<svg width="148" height="148" viewBox="0 0 148 148" fill="none" xmlns="http://www.w3.org/2000/svg">
<path fill-rule="evenodd" clip-rule="evenodd" d="M54.4742 125.795C48.0682 124.327 54.3952 113.005 61.0272 104.479C65.0482 99.3093 67.8452 93.9683 67.8452 93.9683L65.2602 92.1123C65.2602 92.1123 59.8652 101.03 56.6562 104.452C53.4482 107.874 48.6572 115.647 48.4332 118.661C48.2092 121.676 48.3982 125.795 54.4742 125.795" fill="#231F20"/>
<path fill-rule="evenodd" clip-rule="evenodd" d="M104.553 120.983C90.2375 120.351 55.8955 76.43 55.8955 76.43C58.9815 75.028 62.6785 69.111 62.6785 69.111L61.1845 67.532C61.1845 67.532 55.9945 74.486 51.9225 75.216C51.9225 75.216 50.8305 75.17 52.5665 76.892C54.3025 78.616 68.7815 94.4 71.6765 98.058C74.5705 101.716 92.3225 119.984 97.2755 121.462C101.944 122.854 101.944 122.854 103.297 121.87L104.553 120.983Z" fill="#231F20"/>
<path fill-rule="evenodd" clip-rule="evenodd" d="M47.9785 75.4908C45.1265 76.0288 42.1855 75.8888 39.4165 75.1788L37.9105 74.7528C37.4055 74.6198 36.9345 74.3898 36.4495 74.2028C34.7405 73.5218 33.1845 72.5368 31.6895 71.4968C30.9885 70.9148 30.2555 70.3688 29.5965 69.7428C28.9645 69.0888 28.2635 68.5028 27.7065 67.7818C27.1925 67.1608 26.6325 66.5758 26.1855 65.9028C25.7155 65.2488 25.2185 64.6128 24.8385 63.9078L24.0485 62.5828C23.8155 62.1248 23.6035 61.6538 23.3865 61.1878C23.1675 60.7208 22.9475 60.2548 22.8415 59.7448C22.7035 59.2488 22.5815 58.7478 22.4925 58.2418C22.3815 57.6108 22.5485 57.6588 22.9575 58.0848C23.3955 58.5048 24.0135 59.2988 24.5415 60.2828C26.2295 63.8618 28.5505 67.1508 31.6095 69.7788C33.4285 71.3598 35.6655 72.5888 37.9805 73.4248C40.5275 74.3358 43.2705 74.7688 45.9735 74.5008C46.7975 74.3948 47.6255 74.2608 48.4365 74.0728C49.2275 73.8048 50.0485 73.6378 50.8145 73.2818C53.1685 72.3188 55.3665 70.9138 57.1735 69.1498C58.5555 67.7598 59.6745 66.1658 60.4525 64.4258C60.6285 64.0448 60.7795 63.6638 60.9195 63.2668C61.4635 61.8068 61.6055 61.3438 62.1045 61.1008C62.2145 61.0458 62.3295 60.9628 62.4305 60.9348C62.7465 60.8328 62.9295 61.5718 62.6115 62.7938C61.7035 66.4408 59.1075 69.7248 55.9375 71.9998C53.5765 73.7178 50.8705 74.9158 47.9885 75.5218L47.9785 75.4908Z" fill="#231F20"/>
<path fill-rule="evenodd" clip-rule="evenodd" d="M43.1661 58.6792C43.3281 58.4792 43.9731 57.6902 44.6551 56.9392C45.3341 56.1852 46.0761 55.4962 46.2181 55.3782C46.4191 55.1842 47.4021 54.4422 47.5061 54.3622C47.5161 54.3562 47.6211 54.2822 47.7791 54.1702C47.8571 54.1172 47.9481 54.0552 48.0471 53.9892L48.1231 53.9532C48.1641 53.9482 48.1321 53.8902 48.1391 53.8582L48.1351 53.7992C48.1261 53.7422 48.1191 53.6862 48.1121 53.6322C48.0791 53.4002 48.0521 53.2122 48.0401 53.1222C48.0311 53.0352 47.9021 51.8032 47.7691 50.5262C47.6291 49.2652 47.2941 47.9972 47.1871 47.7422C47.1191 47.5582 46.9311 46.9552 46.7021 46.3582C46.4671 45.7622 46.2051 45.1672 46.0991 44.9732C46.0331 44.8402 46.3721 44.6662 46.4381 44.7712C46.7171 45.2142 46.9971 45.6642 47.2001 46.1522C47.3561 46.5252 47.7001 47.3462 47.9311 48.1162C48.1701 48.8842 48.3141 49.5862 48.3311 49.6422C48.4691 50.1692 48.5841 50.7012 48.6901 51.2312L48.8311 51.9722L49.0221 52.9922L49.1301 53.4922L49.3081 54.2442C49.3061 54.3032 49.3791 54.3882 49.3141 54.4252L49.1561 54.5502L48.8351 54.8042L48.4161 55.1522L47.6871 55.7782C46.9791 56.3822 46.3191 57.0222 45.6991 57.7222C45.3461 58.1222 45.0141 58.5422 44.6701 58.9572C44.4701 59.2032 44.2301 59.4182 44.0201 59.6592C43.8651 59.8352 43.5971 59.8032 43.3091 59.7102C42.9811 59.6082 43.0511 58.8222 43.1661 58.6792" fill="#231F20"/>
<path fill-rule="evenodd" clip-rule="evenodd" d="M100.095 66.1957C94.9631 64.9997 86.0531 58.8477 82.5801 58.8477C81.1531 58.8477 82.4351 64.2617 83.1001 64.5317C83.7661 64.8017 81.1021 64.7687 80.6571 61.8477C80.2111 58.9267 81.1731 54.9287 81.1731 54.9287C81.1731 54.9287 87.1171 58.9527 89.7651 59.6627C92.4131 60.3727 101.613 64.9197 101.613 64.9197C101.613 64.9197 100.746 66.3467 100.095 66.1957" fill="#231F20"/>
<path fill-rule="evenodd" clip-rule="evenodd" d="M80.5388 65.6157C80.5388 65.6157 81.5018 65.8747 81.1728 67.5317C80.8428 69.1897 75.4748 80.7957 75.4748 80.7957L73.6948 78.3187L80.5388 65.6157Z" fill="#231F20"/>
<path fill-rule="evenodd" clip-rule="evenodd" d="M74.8692 37.8481C74.3762 40.3741 72.4482 42.3741 71.6762 42.4271C71.2812 42.4531 70.5962 42.5951 70.7102 42.2161C70.3352 43.4601 71.1662 45.9391 72.4342 44.7161C73.1792 43.9981 73.7982 43.0871 74.3852 42.2421C75.4222 40.7471 78.8162 38.4801 77.9182 36.4041C77.9182 36.4041 76.6772 33.6371 73.4392 35.9801C73.4392 35.9801 75.2332 35.9801 74.8692 37.8481" fill="#231F20"/>
<path fill-rule="evenodd" clip-rule="evenodd" d="M106.959 52.9271C105.875 51.5901 104.565 50.3731 103.172 49.2511C102.662 48.8441 102.121 48.4751 101.593 48.0871C99.7281 46.7191 97.7631 45.4621 95.7521 44.2801C94.8611 43.7521 93.9471 43.2531 93.0441 42.7591C91.8881 42.1151 90.6951 41.5311 89.6251 40.6941C89.2971 40.4071 89.4321 40.3651 89.7761 40.4741C90.1261 40.5781 90.7321 40.7821 91.4051 41.1261C93.7921 42.3481 96.2501 43.5051 98.5691 44.9591C99.9581 45.8251 101.446 46.6621 102.838 47.6131C104.353 48.6721 105.84 49.8061 107.137 51.1681C107.936 52.0031 108.673 52.9151 109.256 53.9441C109.469 54.3371 109.68 54.7381 109.821 55.1711C109.994 55.5641 110.069 56.1131 110.176 56.4321C110.313 57.0621 111.063 57.4761 111.788 57.8351C112.944 58.3951 114.252 58.8551 115.325 59.8061C115.569 60.0011 115.791 60.2161 115.999 60.4591C116.384 60.9051 116.56 61.2661 116.591 61.5511C116.632 61.8331 116.599 62.0171 116.513 62.1861C116.474 62.2641 116.445 62.3531 116.4 62.4051C116.246 62.5851 115.886 62.2581 115.345 61.7751C114.667 60.9681 113.821 60.3681 112.81 59.8751C112.305 59.6191 111.772 59.3961 111.19 59.1171C110.624 58.8201 109.974 58.5141 109.376 57.8321C108.92 57.3641 108.725 56.4071 108.684 56.1891C108.598 55.8151 108.47 55.4371 108.292 55.0711C107.953 54.3321 107.483 53.6181 106.936 52.9501L106.959 52.9271Z" fill="#231F20"/>
<path fill-rule="evenodd" clip-rule="evenodd" d="M62.9487 63.9635C62.1847 66.4135 60.8127 68.6495 59.1067 70.5225C57.3897 72.4005 55.3027 73.8775 53.0737 74.9995C52.2527 75.3965 51.4297 75.7775 50.5767 76.0985C49.6977 76.3605 48.8347 76.6965 47.9347 76.8775C44.7637 77.5635 41.4487 77.4155 38.3587 76.5705C35.2627 75.7215 32.3937 74.1865 29.9287 72.1925C27.7487 70.4125 25.8137 68.3175 24.2747 65.9835C22.3327 62.9865 20.8757 59.5415 20.7097 55.9575C20.6307 54.8485 20.8567 54.9825 21.3717 55.8205C21.6247 56.2405 21.9937 56.8225 22.3147 57.5315C22.6467 58.2415 23.1947 59.0005 23.4527 59.9225C24.6377 63.1115 26.4787 66.0115 28.7657 68.5005C31.0497 70.9965 33.8857 73.0225 37.0797 74.2835C37.5637 74.4555 38.0497 74.6295 38.5367 74.8035C39.0257 74.9835 39.5457 75.0445 40.0527 75.1685C41.0677 75.4455 42.1247 75.4525 43.1737 75.5575C43.6987 75.5685 44.2257 75.5195 44.7527 75.5045L45.5437 75.4705C45.8037 75.4355 46.0627 75.3825 46.3237 75.3395L47.8807 75.0695L49.3887 74.6105C53.8007 73.1995 57.8867 70.3255 60.0897 66.2165C60.7667 64.9615 61.2677 63.6115 61.5827 62.2155C61.8347 60.8015 62.0657 59.3705 62.0307 57.9255L62.0437 57.1065L61.9657 56.2885C61.9067 55.7445 61.8767 55.1955 61.7977 54.6535C61.5587 53.5825 61.4057 52.4895 61.0217 51.4545C60.4017 49.3425 59.3997 47.3565 58.2217 45.5195C56.3577 42.6755 53.9327 40.2855 51.1807 38.4715C50.5467 38.1235 49.9487 37.7355 49.2987 37.4295C46.8927 36.2505 46.1087 36.1645 45.6267 35.4565C45.5137 35.3055 45.3517 35.1455 45.2857 35.0055C45.1747 34.7685 45.4087 34.6145 45.9757 34.5515C46.2577 34.5185 46.6237 34.5135 47.0567 34.5485C47.4707 34.6295 47.9517 34.7475 48.4897 34.9035C51.6297 35.9465 54.3517 38.0025 56.6687 40.4105C58.9747 42.8465 60.8557 45.7445 62.1347 48.9185C64.0527 53.6185 64.4887 59.0185 62.9937 63.9715L62.9487 63.9635Z" fill="#231F20"/>
<path fill-rule="evenodd" clip-rule="evenodd" d="M46.83 53.6986C46.842 53.6786 46.853 53.6506 46.859 53.6056L46.685 52.7666C46.559 52.1826 46.419 51.5956 46.271 51.0116C46.165 50.5846 45.993 50.1776 45.893 49.7476C45.525 48.2346 45.151 46.7166 44.713 45.2176C44.518 44.5526 44.268 43.9026 44.008 43.2676C43.655 42.4586 43.275 41.6596 43.154 40.7616C43.116 40.4826 43.488 40.3726 43.944 40.4426C44.396 40.5136 44.959 40.7606 45.195 41.2226C45.942 42.8926 46.488 44.6356 46.869 46.4426C47.09 47.5256 47.536 48.5806 47.846 49.6626L48.318 51.4596L48.763 53.3596L48.947 54.2056C48.964 54.3396 49.036 54.4946 49.007 54.6086L48.63 54.8286L47.891 55.2646L47.379 55.5776C46.431 56.1666 45.517 56.8066 44.722 57.5786C44.104 58.1796 43.613 58.8856 43.098 59.5746C42.985 59.7266 42.883 59.8836 42.76 60.0306C42.301 60.5676 42.054 60.6526 41.566 60.4286C41.455 60.3786 41.337 60.3376 41.236 60.2756C40.894 60.0686 40.841 59.6326 41.097 59.1476C41.853 57.7136 43.016 56.4356 44.377 55.3096C44.882 54.8936 45.416 54.5116 45.959 54.1616L46.368 53.9016L46.719 53.6876C46.737 53.6846 46.756 53.6856 46.775 53.6776L46.83 53.6986Z" fill="#231F20"/>
<path fill-rule="evenodd" clip-rule="evenodd" d="M34.9405 60.0327C34.1785 59.6507 33.4165 59.2677 32.6565 58.8867C32.3765 58.7507 32.0765 58.6677 31.7985 58.5237C30.8135 58.0327 29.8775 57.4167 28.9065 56.8977C28.4815 56.6527 28.0265 56.4707 27.6005 56.2377C27.0425 55.9657 26.4785 55.6907 25.9915 55.2757C25.8395 55.1467 25.9575 54.9747 26.2065 54.8397C26.4545 54.7087 26.8455 54.5837 27.1895 54.6747C27.7935 54.8517 28.4095 54.9887 28.9825 55.2307C29.5535 55.4757 30.1215 55.7387 30.6695 56.0557C31.3315 56.4277 32.1005 56.6197 32.8055 56.9377L35.1445 57.9847L36.5895 58.6337C37.3235 58.9527 38.0485 59.3057 38.7955 59.5957C39.3745 59.8247 39.9915 59.9487 40.5955 60.1577C40.7285 60.2037 40.8675 60.2317 40.9975 60.2887C41.4775 60.5127 41.5575 60.7277 41.3705 61.2487C41.3275 61.3667 41.2925 61.4887 41.2395 61.6027C41.0595 61.9857 40.7065 62.1857 40.3515 62.1287C39.2905 61.9557 38.2585 61.5997 37.2295 61.1377C36.4635 60.7867 35.6925 60.4317 34.9235 60.0787L34.9405 60.0327Z" fill="#231F20"/>
<path fill-rule="evenodd" clip-rule="evenodd" d="M101.908 106.354C103.12 107.816 104.343 109.323 105.356 111.024C106.341 112.725 107.289 114.587 107.413 116.833C107.474 117.938 107.25 119.148 106.667 120.167C106.096 121.196 105.228 121.956 104.343 122.531C103.933 122.817 103.356 123.079 102.798 123.274L101.939 123.453C101.655 123.495 101.376 123.481 101.095 123.492C99.9847 123.469 98.9477 123.23 98.0057 122.875C95.2367 121.848 92.8937 120.276 90.6847 118.59C86.7957 115.608 83.2917 112.244 79.9437 108.752C76.5967 105.26 73.3987 101.643 70.2767 97.967C67.5057 94.698 64.7767 91.396 61.9697 88.233C60.1757 86.193 58.3407 84.181 56.4997 82.185C54.6517 80.211 52.8377 78.147 50.9637 76.33C50.8277 76.185 50.7137 76.054 50.6187 75.939C50.5257 75.827 50.4677 75.778 50.4127 75.703C50.3087 75.567 50.2627 75.463 50.2947 75.404C50.3307 75.292 50.7967 75.274 51.5357 75.554C53.0147 76.093 55.2897 77.663 57.4637 79.953C61.2687 84.063 64.8887 88.288 68.4467 92.596C71.9697 96.883 75.5567 101.122 79.2937 105.259C81.5257 107.735 83.9257 110.147 86.4247 112.463C88.9317 114.764 91.5447 116.999 94.3557 118.809C95.8927 119.798 97.5047 120.694 99.1677 121.204C99.9977 121.435 100.831 121.562 101.609 121.5C101.979 121.425 102.355 121.366 102.678 121.192C103.01 121.058 103.409 120.79 103.721 120.549C105.071 119.571 105.695 118.032 105.356 116.365C105.065 114.707 104.169 113.085 103.165 111.578C101.915 109.709 100.424 107.958 98.9007 106.217C97.3917 104.505 95.7707 102.832 94.1737 101.163C89.2987 96.117 84.3457 91.085 79.3787 86.193C75.5177 82.387 71.6307 78.762 67.7457 75.069C66.8877 74.258 66.0487 73.465 65.1837 72.648C62.0057 69.589 61.1577 68.449 60.8857 67.375C60.8227 67.128 60.7077 66.833 60.7147 66.665C60.7337 66.384 61.0947 66.469 61.7887 66.895C62.4887 67.325 63.4827 68.107 64.6967 69.176C71.8117 75.609 79.0677 82.646 86.2277 89.843C88.8867 92.517 91.5407 95.207 94.1727 97.929C96.7887 100.655 99.4647 103.372 101.944 106.311L101.908 106.354Z" fill="#231F20"/>
<path fill-rule="evenodd" clip-rule="evenodd" d="M97.6767 63.8688C94.8087 62.6048 91.9327 61.3508 89.0647 60.0428C88.0177 59.5618 86.9497 59.1318 85.9117 58.6048C85.0057 58.1428 84.0687 57.6458 83.1917 57.0678C82.3257 56.5028 81.4757 55.8968 80.6667 55.2248C79.0597 53.8928 77.5727 52.2258 76.8037 50.1538C76.4687 49.2408 76.2747 48.2708 76.2377 47.2998C76.2197 46.3248 76.3367 45.3628 76.5537 44.4638C76.8107 43.2948 77.2177 42.1698 77.7547 41.1008C78.3017 40.0468 78.9517 38.9968 79.9067 38.2208C80.5237 37.7488 80.6207 38.0638 80.4927 38.7418C80.3837 39.4478 80.1507 40.5028 79.6587 41.5998C79.2067 42.5758 78.9167 43.6258 78.6077 44.6428C78.3137 45.6818 78.1637 46.6718 78.2287 47.6408C78.3197 49.5938 79.3887 51.4378 80.9357 53.0058C81.8497 53.9538 82.9727 54.7728 84.1657 55.5108C85.3187 56.2408 86.6257 56.8258 87.9057 57.4418C90.7367 58.7768 93.6346 60.0378 96.5266 61.2998L101.876 63.6298C104.578 64.8038 107.276 66.0278 109.949 67.2318C112.024 68.1798 114.098 69.0248 116.124 70.0978C116.572 70.3308 117.013 70.5628 117.454 70.8318C119.072 71.8558 119.498 72.4918 119.384 73.1538C119.361 73.3018 119.354 73.4618 119.301 73.5668C119.09 73.8968 118.469 73.6078 117.401 72.9538C115.77 71.9868 113.928 71.1238 112.064 70.2538C110.194 69.3868 108.276 68.5248 106.344 67.6738C103.457 66.4238 100.556 65.1678 97.6616 63.9148L97.6767 63.8688Z" fill="#231F20"/>
<path fill-rule="evenodd" clip-rule="evenodd" d="M109.017 54.1324C107.963 51.9084 106.004 50.0224 103.837 48.4424C103.047 47.8544 102.172 47.3774 101.331 46.8484C98.3306 45.0144 95.1166 43.4134 91.8526 41.9034C90.4036 41.2334 88.9146 40.6224 87.4456 40.0014C85.5586 39.2124 83.6216 38.4314 81.9386 37.1534C81.4126 36.7574 81.7206 36.4564 82.3986 36.3584C83.0696 36.2734 84.1296 36.3124 85.1776 36.7634C88.8906 38.4174 92.7846 39.9394 96.5426 41.9114C98.7906 43.0834 101.21 44.1784 103.444 45.5804C105.871 47.1414 108.235 48.9774 109.977 51.4404C110.511 52.1944 110.964 53.0164 111.317 53.8824C111.506 54.3094 111.621 54.7684 111.768 55.2104L111.914 55.8984L111.986 56.2414C112.006 56.3494 112.005 56.4124 112.016 56.5004L112.039 56.7424L112.062 56.9904C112.124 57.0434 112.205 57.0704 112.277 57.1104L112.975 57.4584C113.557 57.7584 114.126 58.0864 114.677 58.4444C115.778 59.1564 116.805 59.9844 117.734 60.9064C119.239 62.3944 120.525 64.1144 121.37 66.0914C121.56 66.5244 121.722 66.9574 121.856 67.4144C121.968 67.8404 122.041 68.1994 122.082 68.5024C122.103 68.8094 122.074 69.0634 122.044 69.2714C121.967 69.6884 121.809 69.9384 121.584 70.1444C121.48 70.2374 121.385 70.3554 121.284 70.4114C120.942 70.6024 120.565 69.9594 120.068 68.9084C119.478 67.3224 118.779 65.8024 117.809 64.4354C116.849 63.0654 115.63 61.8554 114.231 60.8474C113.642 60.4274 113.024 60.0414 112.381 59.6914L111.892 59.4354L111.239 59.1194C111.088 59.0464 110.885 58.9564 110.725 58.8634C110.578 58.7464 110.446 58.6214 110.377 58.4584L110.313 58.3494L110.281 58.2934L110.265 58.2644C110.375 58.1854 110.113 58.3704 110.14 58.3514L110.139 58.3484L110.138 58.3444L110.135 58.3364L110.129 58.3204L110.04 58.0654L109.863 57.5544C109.767 56.4654 109.676 56.1954 109.538 55.6374C109.453 55.3894 109.385 55.1354 109.29 54.8894L108.969 54.1604L109.017 54.1324Z" fill="#231F20"/>
<path fill-rule="evenodd" clip-rule="evenodd" d="M81.0539 53.4606C81.2659 53.7846 81.4859 55.0566 81.5199 56.2316C81.5729 57.4136 81.5859 58.5276 81.5939 58.7356C81.5969 59.0466 81.5749 60.4026 81.6089 60.5416C81.6169 60.5636 81.6019 61.1116 81.6409 61.6616C81.6759 62.2126 81.7889 62.7366 81.8509 62.8116C81.8569 62.8236 81.8829 62.8756 81.9119 62.9716C81.9669 62.9976 81.8869 63.0356 82.1369 63.1896C82.5259 63.4536 83.1799 63.7736 83.8459 64.0926C85.1999 64.7656 86.5929 65.4586 86.8889 65.6066C87.1079 65.6936 87.7709 66.0776 88.4049 66.5186C89.0369 66.9636 89.6169 67.4866 89.8209 67.6526C89.9579 67.7686 89.5889 68.1896 89.4719 68.1196C88.9799 67.8036 88.4629 67.5326 87.9569 67.2426C87.5729 67.0136 86.6989 66.5496 85.8669 66.1996C85.0399 65.8436 84.2789 65.5616 84.2149 65.5396C83.6229 65.3536 83.0289 65.1686 82.4279 64.9496C82.1459 64.8476 81.8649 64.7366 81.5749 64.6006C81.4749 64.5596 81.3699 64.5006 81.2669 64.4446L81.1109 64.3596L80.9189 64.1996C80.6319 63.9706 80.5019 63.7276 80.3699 63.4846C80.1359 63.0066 80.0319 62.5616 79.9369 62.1256C79.7829 61.3176 79.6759 60.5366 79.6349 59.7646C79.6049 58.6576 79.5749 57.5546 79.5439 56.4486C79.5229 55.8336 79.4259 55.2336 79.4049 54.6586C79.3819 54.3146 79.3749 53.9996 79.4349 53.6496C79.4449 53.4256 79.6799 53.1786 79.8629 52.9436C79.9649 52.8136 80.1659 52.8716 80.4439 53.0016C80.7319 53.1346 80.9979 53.3536 81.0539 53.4606" fill="#231F20"/>
<path fill-rule="evenodd" clip-rule="evenodd" d="M54.8876 127.428C53.7536 127.645 52.5116 127.489 51.4796 127.043C50.5216 126.592 49.5366 126.074 48.7806 125.199C48.0026 124.38 47.4566 123.283 47.2986 122.188C47.1186 121.097 47.1636 120.008 47.3876 119.009C47.6806 117.535 48.1846 116.162 48.8236 114.882C49.3766 113.765 50.0306 112.669 50.7196 111.645C51.4006 110.618 52.1046 109.624 52.8066 108.626L57.0706 102.701C58.3336 100.953 59.5616 99.1671 60.7626 97.3981C62.3056 95.1231 63.7406 92.7641 65.6046 90.7151C66.1776 90.0711 66.3516 90.3281 66.2476 91.1371C66.1436 91.9461 65.8326 93.3551 64.9766 94.6921C61.8176 99.3401 58.4956 103.864 55.0936 108.374C53.0876 111.1 51.0506 113.964 49.8256 117.043C49.4846 117.884 49.2076 118.745 49.0696 119.608C48.9286 120.465 48.8776 121.34 49.0876 122.127C49.4286 123.725 50.7986 124.932 52.4506 125.486C53.4066 125.821 54.4446 125.775 55.4266 125.397C56.4116 125.022 57.3236 124.362 58.1476 123.604C60.6396 121.256 62.5386 118.201 64.2206 115.154C65.5256 112.764 66.5826 110.303 67.7196 107.839C67.9676 107.295 68.2176 106.765 68.4966 106.226C69.5286 104.229 70.1086 103.68 70.8276 103.573C70.9776 103.538 71.1336 103.47 71.2326 103.462C71.4036 103.45 71.4056 103.668 71.3716 104.11C71.3556 104.563 71.1446 105.147 70.8236 105.883C68.9806 110.292 66.7646 114.953 63.9376 119.376C62.8836 121.017 61.6946 122.604 60.3106 124.086C59.6016 124.818 58.8456 125.525 57.9656 126.138C57.0776 126.735 56.0596 127.251 54.9026 127.472L54.8876 127.428Z" fill="#231F20"/>
<path fill-rule="evenodd" clip-rule="evenodd" d="M73.0372 77.2135C73.1112 77.0095 73.5772 76.3055 74.0202 75.6045C74.4572 74.9005 74.8862 74.2085 74.9642 74.0815C75.0812 73.8925 75.6282 73.0515 75.6742 72.9495C75.6842 72.9345 75.9162 72.5985 76.1672 72.2345C76.4202 71.8725 76.6732 71.4735 76.7492 71.3465C76.8362 71.2275 79.0212 67.8605 79.1692 67.4085C79.3012 67.1135 80.2412 65.5105 80.3892 65.2595C80.4362 65.1885 80.9582 65.1925 80.9622 65.3505C80.9532 65.9195 80.8082 66.3055 80.6042 66.7115C80.3052 67.3205 79.2952 69.3725 79.2502 69.4635L78.7192 70.7205L78.4572 71.3005C78.2082 71.8365 77.9602 72.3705 77.7102 72.9085C77.4812 73.4125 77.2892 73.9375 77.0392 74.4305C76.6722 75.1565 76.3082 75.8785 75.9412 76.6035C75.7332 77.0165 75.5512 77.4455 75.3322 77.8535C75.2152 78.1015 74.9692 78.2725 74.8072 78.4915C74.7522 78.5765 74.5992 78.5785 74.4142 78.5445C74.2212 78.5065 73.9702 78.4165 73.7962 78.3655C73.7012 78.3385 73.6312 78.2785 73.5432 78.1795C73.4642 78.0865 73.3122 77.9205 73.2432 77.7955C73.0662 77.5225 73.0072 77.2835 73.0372 77.2135" fill="#231F20"/>
<path fill-rule="evenodd" clip-rule="evenodd" d="M86.9885 76.1479C87.9625 74.8429 89.0085 73.5769 90.1115 72.3559C90.5135 71.9109 90.8875 71.4379 91.3315 71.0239C92.8515 69.5499 94.6485 68.2349 96.5715 67.3639C97.4055 66.9599 98.2385 66.5579 99.0645 66.1589C99.5885 65.9069 100.09 65.6169 100.606 65.3739C101.118 65.1479 101.619 64.9279 102.156 64.6919C102.477 64.5549 102.62 64.8069 102.538 65.2479C102.46 65.6869 102.132 66.3329 101.545 66.7339C99.3885 67.9799 97.1935 68.6989 95.2535 69.8599C94.0915 70.5699 93.0785 71.6159 92.1125 72.6599C91.0475 73.8149 90.0445 75.0469 89.0895 76.3269C88.5065 77.1179 87.9325 77.9189 87.3825 78.7389C86.5565 79.9859 85.6975 81.2279 84.9235 82.5059C84.3225 83.5039 83.8095 84.5309 83.1605 85.5019C83.0255 85.7199 82.8905 85.9369 82.7285 86.1419C82.4415 86.5299 82.2015 86.7539 81.9715 86.8619C81.7545 86.9769 81.5815 87.0019 81.3915 86.9759C81.3055 86.9639 81.2135 86.9649 81.1445 86.9419C80.9205 86.8679 80.9835 86.4169 81.2285 85.7739C81.6435 84.8389 82.1095 83.9229 82.5775 82.9649C83.0945 82.0449 83.6455 81.1129 84.2115 80.1859C85.0405 78.7949 85.9985 77.4629 86.9495 76.1239L86.9885 76.1479Z" fill="#231F20"/>
<path fill-rule="evenodd" clip-rule="evenodd" d="M74.0581 43.5824C74.5631 43.8434 75.0641 44.0904 75.5831 44.3294C75.8431 44.4484 76.1051 44.5634 76.3831 44.6744C76.5201 44.7284 76.6651 44.7814 76.8201 44.8324C76.9081 44.8574 76.9741 44.8824 77.0811 44.9054C77.1831 44.9244 77.2781 44.9584 77.5201 44.9444C77.5821 44.9454 77.5441 44.5774 77.4761 44.2144C77.4461 44.0474 77.4151 43.8814 77.4151 43.8814C77.4041 43.7924 77.4061 43.7034 77.4191 43.6164C77.4261 43.5724 77.4361 43.5294 77.4491 43.4874C77.4611 43.4814 77.4461 43.4814 77.4461 43.4814L77.4041 43.4734C77.3751 43.4694 77.3101 43.4454 77.2651 43.4344L76.9221 43.3084C76.6841 43.2144 76.4391 43.1064 76.1951 42.9944C75.7081 42.7704 75.2151 42.5264 74.7361 42.2794C74.7301 42.2754 74.6831 42.3534 74.6161 42.4754C74.5511 42.5964 74.4641 42.7584 74.3771 42.9204C74.2061 43.2464 74.0431 43.5764 74.0581 43.5824" fill="#242021"/>
<path fill-rule="evenodd" clip-rule="evenodd" d="M75.4268 41.0006L78.2068 42.0996C78.2358 42.1216 78.7828 40.7366 78.7468 40.7336L75.9668 39.6346C75.9428 39.6216 75.3998 40.9936 75.4268 41.0006" fill="#242021"/>
<path fill-rule="evenodd" clip-rule="evenodd" d="M76.9291 37.4771C76.6951 37.6801 76.5711 37.9411 76.4301 38.1821L76.0201 38.9081L75.2161 40.3421C74.6771 41.2871 74.1251 42.2211 73.5151 43.0791C73.2101 43.5041 72.8871 43.9141 72.5471 44.2461C72.3801 44.4001 72.2001 44.5551 72.0581 44.6221C71.9011 44.6971 71.8711 44.6811 71.8711 44.6811C71.8551 44.6871 71.7371 44.5671 71.6561 44.4031C71.6301 44.3161 71.5991 44.2331 71.5631 44.1491C71.5371 44.0541 71.5311 43.9371 71.5131 43.8311C71.4591 43.3901 71.5011 42.8791 71.5791 42.3751C71.9351 40.3541 72.7371 38.2561 73.8211 36.5351C73.9621 36.3451 74.1151 36.1221 74.2601 35.9981L74.3661 35.8891C74.3931 35.8751 74.4131 35.8691 74.4331 35.8531C74.4441 35.8181 74.5711 35.7951 74.6521 35.7651C75.0141 35.6631 75.4411 35.6871 75.8391 35.8291C76.2331 35.9671 76.6251 36.1781 76.8771 36.4581C77.1071 36.7551 77.2391 36.9691 77.1481 37.2371C77.1161 37.3501 78.0381 38.2041 78.2951 37.7821C78.7441 37.0491 78.4781 36.0191 77.9981 35.5121C77.5271 34.9611 76.9431 34.5831 76.2931 34.3861C75.6471 34.1891 74.9241 34.1571 74.2331 34.3771C74.0591 34.4461 73.9051 34.4721 73.7021 34.6191C73.6091 34.6811 73.5121 34.7481 73.4281 34.8151L73.2491 35.0031C72.9911 35.2581 72.8501 35.5071 72.6661 35.7581C72.0181 36.7571 71.5491 37.7891 71.1391 38.8521C70.7381 39.9171 70.4081 41.0091 70.2231 42.1671C70.1371 42.7481 70.0791 43.3441 70.1561 43.9961C70.1831 44.1611 70.1951 44.3211 70.2381 44.4911C70.2951 44.6661 70.3581 44.8421 70.4251 45.0141C70.5921 45.3301 70.7991 45.6941 71.2861 45.9391C71.7951 46.1851 72.3581 46.0441 72.6831 45.8731C73.0381 45.6991 73.2751 45.4831 73.5151 45.2711C73.9701 44.8401 74.3321 44.3841 74.6751 43.9221C75.3531 42.9971 75.9341 42.0401 76.4991 41.0831C77.0371 40.1211 77.6531 39.1771 78.0981 38.2431C78.1211 38.0101 77.1731 37.3101 76.9291 37.4771" fill="#242021"/>
<path fill-rule="evenodd" clip-rule="evenodd" d="M123.493 50.9752C123.396 51.0962 123.265 50.9242 123.115 50.5752C123.067 50.4642 123.008 50.1102 123.031 50.0532C123.077 49.9442 123.124 49.8382 123.177 49.7592C123.209 49.7132 123.8 49.4212 123.998 49.3042C124.189 49.1932 124.392 49.1372 124.598 49.0932L125.853 48.7982C125.946 48.7772 126.043 48.7742 126.144 48.7882C126.488 48.8382 126.812 48.7802 127.131 48.6842C127.184 48.6682 127.242 48.6682 127.284 48.5992C127.35 48.4832 128.241 48.3172 128.365 48.3442C128.671 48.4122 128.97 48.4372 129.271 48.4862C129.314 48.4932 129.355 48.4632 129.403 48.5302C129.513 48.6862 129.597 48.6452 129.688 48.6462C129.813 48.6452 129.941 48.6582 130.07 48.6992C130.135 48.7192 130.206 48.8092 130.274 48.8792C130.336 48.9432 130.334 49.2022 130.319 49.2312C130.273 49.3182 130.331 49.4322 130.347 49.5382C130.353 49.5742 130.36 49.6202 130.361 49.6492C130.36 49.7142 129.73 50.2292 129.658 50.2372C129.65 50.2392 129.406 50.3052 129.142 50.3772C128.883 50.4532 128.614 50.5342 128.559 50.5592C128.504 50.5852 128.438 50.5552 128.375 50.5412C128.345 50.5332 127.574 50.8032 127.541 50.8052C127.373 50.8152 127.219 50.9072 127.027 50.7932C126.99 50.7712 126.957 50.7852 126.925 50.7932C126.644 50.8702 126.348 50.8672 126.056 50.8852C125.906 50.8942 125.763 50.9422 125.616 50.9682C125.59 50.9732 125.559 50.9562 125.531 50.9532C125.495 50.9472 125.458 50.9332 125.425 50.9422C125.08 51.0242 124.718 51.0122 124.38 51.1422C124.302 51.1722 123.886 51.0762 123.797 51.1162C123.747 51.1372 123.532 50.9262 123.493 50.9752" fill="#231F20"/>
<path fill-rule="evenodd" clip-rule="evenodd" d="M113.951 35.4185C113.822 35.3545 113.972 35.2135 114.285 35.0125C114.385 34.9475 114.716 34.8275 114.773 34.8415C114.885 34.8655 114.994 34.8955 115.079 34.9345C115.136 34.9595 115.488 35.4965 115.618 35.6775C115.743 35.8525 115.815 36.0435 115.87 36.2365C115.987 36.6285 116.104 37.0245 116.22 37.4165C116.244 37.5045 116.249 37.5965 116.239 37.6915C116.203 38.0205 116.267 38.3235 116.365 38.6215C116.381 38.6725 116.382 38.7265 116.449 38.7645C116.563 38.8225 116.732 39.6645 116.702 39.7845C116.639 40.0765 116.616 40.3595 116.561 40.6525C116.554 40.6935 116.581 40.7335 116.517 40.7775C116.368 40.8785 116.402 40.9615 116.398 41.0505C116.391 41.1735 116.378 41.2955 116.326 41.4235C116.302 41.4855 116.212 41.5475 116.14 41.6065C116.076 41.6595 115.831 41.6315 115.805 41.6135C115.727 41.5645 115.614 41.6065 115.513 41.6105C115.479 41.6115 115.434 41.6125 115.407 41.6125C115.35 41.6005 114.902 41.0405 114.89 40.9775C114.888 40.9675 114.837 40.7505 114.765 40.5165C114.698 40.2845 114.616 40.0395 114.592 39.9915C114.567 39.9415 114.596 39.8815 114.609 39.8235C114.616 39.7955 114.347 39.0995 114.342 39.0695C114.33 38.9165 114.236 38.7795 114.341 38.6005C114.362 38.5645 114.347 38.5365 114.338 38.5075C114.256 38.2545 114.25 37.9845 114.219 37.7195C114.205 37.5825 114.153 37.4555 114.119 37.3245C114.114 37.3015 114.128 37.2725 114.131 37.2465C114.134 37.2135 114.145 37.1795 114.136 37.1495C114.038 36.8445 114.026 36.5145 113.875 36.2275C113.84 36.1625 113.898 35.7775 113.848 35.7075C113.822 35.6675 114.003 35.4445 113.951 35.4185" fill="#231F20"/>
<path fill-rule="evenodd" clip-rule="evenodd" d="M39.2632 27.7358C39.3362 27.8678 39.1452 27.9388 38.8032 27.9958C38.6942 28.0128 38.3762 27.9748 38.3352 27.9318C38.2562 27.8488 38.1792 27.7628 38.1262 27.6768C38.0882 27.6248 38.0272 26.8558 38.0022 26.5998C37.9722 26.3448 38.0012 26.1128 38.0392 25.8788L38.2392 24.5008C38.2522 24.4018 38.2872 24.3048 38.3342 24.2158C38.4942 23.9048 38.5732 23.5778 38.5832 23.2538C38.5842 23.1998 38.6032 23.1468 38.5472 23.0888C38.4782 22.9788 38.5132 22.1758 38.5512 22.0788C38.6802 21.8238 38.7572 21.5598 38.8062 21.2898C38.8142 21.2498 38.7912 21.2148 38.8462 21.1678C38.9812 21.0498 38.9442 20.9728 38.9412 20.8868C38.9382 20.7938 38.9352 20.6938 38.9292 20.5168C38.9302 20.4518 38.9772 20.3628 39.0052 20.2778C39.0312 20.2008 39.2012 20.1368 39.2302 20.1468C39.3082 20.1728 39.3662 20.0868 39.4302 20.0428C39.4522 20.0278 39.4812 20.0088 39.5012 20.0018C39.5342 19.9618 40.3212 20.5938 40.3652 20.7198C40.4022 20.7278 40.8702 22.0348 40.8282 22.1858C40.8472 22.2638 40.8082 22.3428 40.7852 22.4208C40.7912 22.4608 40.8672 23.4838 40.8472 23.5198C40.8102 23.7258 40.8392 23.9318 40.6592 24.1068C40.6232 24.1408 40.6262 24.1818 40.6232 24.2228C40.5742 24.5588 40.4302 24.8738 40.3062 25.1808C40.2442 25.3398 40.2192 25.5018 40.1722 25.6618C40.1642 25.6908 40.1342 25.7148 40.1172 25.7408C40.0952 25.7738 40.0652 25.8048 40.0562 25.8408C39.9672 26.2168 39.7852 26.5678 39.7532 26.9418C39.7412 27.0278 39.4882 27.3908 39.4922 27.4898C39.4912 27.5438 39.2312 27.6818 39.2632 27.7358" fill="#231F20"/>
<path fill-rule="evenodd" clip-rule="evenodd" d="M24.7615 37.1773C24.9145 37.1083 24.9585 37.3333 24.9555 37.7393C24.9535 37.8683 24.8545 38.2363 24.8025 38.2773C24.7005 38.3583 24.5975 38.4343 24.5005 38.4823C24.4425 38.5163 23.6335 38.4693 23.3585 38.4483C23.0875 38.4383 22.8435 38.3603 22.6015 38.2723C22.1185 38.0893 21.6325 37.9163 21.1675 37.7213C21.0635 37.6793 20.9685 37.6173 20.8825 37.5393C20.5855 37.2713 20.2405 37.1163 19.8875 36.9903C19.8285 36.9683 19.7765 36.9303 19.6955 36.9623C19.5605 37.0103 18.6605 36.5823 18.5635 36.4893C18.3215 36.2463 18.0575 36.0533 17.7985 35.8473C17.7615 35.8173 17.7075 35.8233 17.6975 35.7353C17.6685 35.5373 17.5695 35.5223 17.4845 35.4663C17.3665 35.3883 17.2475 35.3163 17.1385 35.2103C17.0875 35.1483 17.0535 35.0353 17.0105 34.9483C16.9705 34.8673 17.0555 34.7063 17.0835 34.6913C17.1625 34.6513 17.1415 34.5473 17.1595 34.4713C17.1655 34.4453 17.1735 34.4103 17.1825 34.3903C17.2045 34.3233 18.1605 34.1273 18.2575 34.1503C18.2905 34.1313 19.4875 34.4533 19.6265 34.4763C19.7005 34.4873 19.7525 34.5513 19.8095 34.6013C19.8395 34.6223 20.7885 34.8613 20.8215 34.8793C20.9985 34.9703 21.1995 35.0013 21.3125 35.2243C21.3345 35.2683 21.3745 35.2773 21.4105 35.2913C21.7255 35.4093 22.0025 35.6063 22.2865 35.7783C22.4325 35.8673 22.5945 35.9123 22.7475 35.9833C22.7755 35.9953 22.7935 36.0303 22.8175 36.0513C22.8465 36.0783 22.8735 36.1133 22.9085 36.1263C23.2785 36.2643 23.6115 36.4933 23.9995 36.5603C24.0865 36.5793 24.4295 36.8883 24.5365 36.8943C24.5935 36.9013 24.6985 37.2073 24.7615 37.1773" fill="#231F20"/>
<path fill-rule="evenodd" clip-rule="evenodd" d="M37.107 121.109C37.048 120.93 37.251 120.831 37.604 120.806C37.716 120.798 38.033 120.89 38.07 120.94C38.142 121.04 38.212 121.135 38.257 121.223C38.271 121.281 38.314 122.025 38.404 122.26C38.459 122.493 38.488 122.717 38.516 122.945C38.579 123.405 38.702 123.857 38.892 124.278C38.933 124.372 38.948 124.476 38.973 124.579C39.032 124.941 39.214 125.266 39.459 125.53C39.5 125.573 39.53 125.628 39.608 125.639C39.724 125.671 40.383 126.336 40.456 126.447C40.627 126.73 40.856 126.962 41.1 127.196C41.135 127.228 41.189 127.231 41.201 127.303C41.232 127.47 41.336 127.495 41.426 127.549C41.547 127.632 41.682 127.686 41.805 127.781C41.866 127.826 41.913 127.921 41.966 128.003C42.015 128.076 41.931 128.252 41.901 128.264C41.816 128.301 41.846 128.409 41.832 128.489C41.827 128.515 41.82 128.551 41.811 128.571C41.803 128.63 40.742 128.649 40.631 128.577C40.614 128.581 40.26 128.444 39.889 128.275C39.529 128.093 39.15 127.882 39.08 127.831C38.999 127.786 38.95 127.701 38.894 127.628C38.831 127.638 37.92 126.798 37.911 126.735C37.763 126.527 37.581 126.334 37.561 126.049C37.557 125.994 37.524 125.954 37.495 125.913C37.265 125.542 37.129 125.123 37.019 124.707C36.95 124.477 36.894 124.286 36.831 124.075C36.822 124.037 36.828 123.995 36.83 123.954C36.831 123.902 36.84 123.849 36.83 123.801C36.715 123.296 36.724 122.776 36.686 122.262C36.659 122.138 36.869 121.59 36.868 121.458C36.859 121.378 37.128 121.177 37.107 121.109" fill="#231F20"/>
</svg>
