<svg width="148" height="148" viewBox="0 0 148 148" fill="none" xmlns="http://www.w3.org/2000/svg">
<path fill-rule="evenodd" clip-rule="evenodd" d="M88.2174 93.5237C88.1764 90.9027 88.3814 88.3087 88.9984 85.7687C89.5934 83.2307 90.5404 80.7987 91.6764 78.5127C92.0954 77.6817 92.5104 76.8497 92.9534 76.0397L93.6244 74.8307C93.8424 74.4327 94.1504 73.9697 94.4064 73.6047C95.5234 72.0367 96.6364 70.5607 97.6124 69.0167C98.1074 68.2527 98.5584 67.4707 98.9034 66.6927C99.2564 65.9597 99.4464 65.0097 99.3374 64.8387C99.3064 64.7127 99.1914 64.6307 99.0764 64.5807C99.0164 64.5527 98.9624 64.5347 98.8864 64.5187C98.7804 64.4907 98.6424 64.4737 98.5144 64.4557C97.9754 64.4027 97.3804 64.4277 96.7874 64.5157C95.5994 64.6887 94.4094 65.0627 93.3004 65.5867C92.0974 66.1567 90.9844 66.9277 90.0704 67.8727C89.1624 68.7997 88.4454 69.9827 87.7664 71.1677C86.0364 74.2457 84.8354 77.6797 82.9274 80.8417C82.3054 81.8267 81.9614 81.4247 81.9674 80.3637C81.9734 79.2997 82.2244 77.5317 83.0424 75.6117C83.7744 73.9127 84.5294 72.1937 85.4274 70.4967C85.8794 69.6477 86.3744 68.8047 86.9514 67.9907C87.5064 67.1807 88.2444 66.3377 89.0194 65.6647C90.5944 64.2887 92.4384 63.3207 94.3924 62.7377C95.3714 62.4457 96.3844 62.2547 97.4494 62.2037C97.9864 62.1857 98.5314 62.1967 99.1284 62.3077C99.4094 62.3597 99.8964 62.4847 100.232 62.6687C100.588 62.8567 100.913 63.1057 101.131 63.4387C101.192 63.5517 101.267 63.6537 101.316 63.7737C101.441 64.2287 101.59 64.6807 101.545 65.1747C101.558 65.5937 101.443 65.8817 101.388 66.2397C101.299 66.5557 101.196 66.8587 101.092 67.1597L100.732 68.0047C100.22 69.0957 99.6254 70.0897 99.0034 71.0607C98.3784 72.0277 97.7254 72.9647 97.0774 73.8847L96.1334 75.2437C95.8504 75.6567 95.5874 76.1297 95.3024 76.6137C94.0714 78.7457 92.9574 80.9257 92.1284 83.2037C91.2954 85.4787 90.7784 87.8567 90.5674 90.2787C90.3414 93.2567 90.5704 96.2697 91.2454 99.2117C92.2304 103.679 94.1054 107.973 96.3444 111.966C98.1124 115.067 100.197 117.894 102.37 120.671C102.858 121.276 103.335 121.869 103.826 122.479C105.651 124.739 106.1 125.564 106.04 126.425C106.026 126.621 106.041 126.853 105.99 127.003C105.824 127.507 104.759 126.835 103.288 125.24C99.0114 120.451 95.0764 114.814 92.1274 108.549C91.0624 106.21 90.1214 103.795 89.4224 101.283C88.7494 98.7647 88.3004 96.1697 88.1604 93.5327L88.2174 93.5237Z" fill="#231F20"/>
<path fill-rule="evenodd" clip-rule="evenodd" d="M71.9755 38.1343C72.3155 37.3813 72.7875 36.7713 73.4395 36.4883C74.0945 36.1573 74.9005 36.2603 75.5145 36.5973C75.6815 36.6533 75.8265 36.7813 75.9695 36.9113C76.1105 37.0443 76.2695 37.1413 76.3945 37.3023C76.6375 37.6233 76.9195 37.9273 77.1255 38.2583C77.4265 38.7363 77.6355 39.1363 77.8535 39.5793C78.7005 41.3033 79.2455 43.0763 79.6465 44.8913C79.9395 46.2083 80.2115 47.5543 80.2875 48.9103C80.5555 53.5413 80.4365 58.1183 80.3445 62.6873C80.2945 64.7143 80.3155 66.7493 80.3095 68.7543C80.3115 70.0393 80.3145 71.3273 80.3165 72.6143C80.3605 73.8863 80.1965 75.1993 80.2935 76.3963C80.3305 76.7593 80.3085 76.8283 80.2215 76.9063C80.1435 76.9743 79.9125 76.8813 79.6835 76.5493C79.4495 76.2313 79.2115 75.7493 78.9855 75.1623C78.7865 74.5733 78.5075 73.8813 78.4805 73.1283C78.0335 67.8033 78.2835 62.5703 78.3825 57.2813C78.4475 54.1423 78.2405 50.7943 77.8275 47.7203C77.5685 46.0373 77.1225 44.3623 76.5455 42.7473C76.2625 41.9403 75.9465 41.1433 75.5765 40.3943C75.4785 40.2133 75.3905 40.0193 75.2875 39.8473L75.1425 39.6013C75.1115 39.5473 75.0915 39.5113 75.0615 39.4703C74.9565 39.3073 74.8325 39.1403 74.6595 39.0303C74.4315 38.8753 74.1445 39.0323 74.0325 39.2523C73.9645 39.3583 73.9145 39.4773 73.8715 39.5993C73.8275 39.7193 73.7915 39.8463 73.7205 40.1283C73.4725 41.1253 73.3505 42.2073 73.2685 43.2843C73.0265 46.5663 72.9755 49.9213 72.8655 53.2373C72.7745 55.8183 72.7675 58.3593 72.3505 60.9693C72.2545 61.5443 72.1565 62.1143 71.9795 62.6983C71.3305 64.8813 70.2805 65.4943 69.5905 65.2993C69.4335 65.2723 69.2585 65.2503 69.1685 65.2013C69.0065 65.1073 69.1045 64.9123 69.2085 64.5633C69.2995 64.2043 69.5015 63.8173 69.7395 63.2023C70.0925 62.2953 70.2895 61.2233 70.4375 60.1333C70.5875 59.0373 70.6775 57.9013 70.7345 56.7483C70.8505 54.4393 70.8795 52.0633 70.9145 49.6653C70.9415 47.8833 70.9705 46.0883 71.0585 44.2663C71.1025 43.3563 71.1645 42.4373 71.2665 41.5033C71.3045 41.0323 71.3555 40.5573 71.4295 40.0693C71.4675 39.8203 71.5095 39.5873 71.5675 39.3123C71.6575 38.9303 71.7655 38.5153 71.9235 38.1063L71.9755 38.1343Z" fill="#231F20"/>
<path fill-rule="evenodd" clip-rule="evenodd" d="M74.2909 82.0895C73.4599 79.8665 72.4869 77.6705 71.3739 75.5525C70.9689 74.7775 70.4819 74.0525 70.0449 73.3005C68.5019 70.6735 66.7589 68.0485 64.5099 66.1765C63.5139 65.3905 62.2829 64.8215 61.3969 65.3285C60.7959 65.6105 60.3219 66.2445 60.0059 66.9285C59.6809 67.6205 59.5009 68.3965 59.5259 69.1575C59.5629 69.6065 59.2419 69.7335 58.7569 69.3185C58.2879 68.9195 57.7979 67.8015 58.1439 66.5605C58.4549 65.4915 59.0819 64.4535 60.1669 63.7105C60.7209 63.3545 61.4019 63.1235 62.0969 63.0855C62.4469 63.0795 62.7919 63.0975 63.0809 63.1725C63.3929 63.2255 63.6869 63.3035 63.9469 63.4145C66.0949 64.2725 67.4469 65.7425 68.6099 67.2695C69.9939 69.0985 71.3999 70.9535 72.5769 72.9205C73.8529 75.0875 74.9679 77.3345 75.9409 79.6435C76.5389 81.0655 77.0779 82.5125 77.5529 83.9865C77.9099 85.1055 78.2209 86.2465 78.4379 87.4245C78.6299 88.6105 78.8319 89.8085 78.4849 91.2085C78.2579 91.8065 77.9949 92.2545 77.5489 92.6625C77.1319 93.0745 76.4859 93.3915 75.8569 93.4145C74.5789 93.4835 73.6209 92.9275 72.7919 92.3995C72.4349 92.1505 72.0859 91.9075 71.7679 91.6185C71.2109 91.0555 70.9059 90.6375 70.7949 90.2695C70.6959 89.8925 70.7659 89.5865 70.9139 89.2815C70.9799 89.1435 71.0269 88.9935 71.0999 88.8925C71.2229 88.7185 71.4399 88.7045 71.7679 88.7715C72.0979 88.8375 72.4989 89.0085 72.8739 89.3185C73.4559 89.7525 74.0259 90.1825 74.5819 90.4925C75.1229 90.8155 75.7009 90.9475 75.8039 90.8665C75.8649 90.8345 75.8449 90.8535 75.9219 90.7565C75.9579 90.7395 76.0059 90.6555 76.0589 90.5765C76.1459 90.4855 76.0769 90.4825 76.1189 90.4585C76.2069 90.2015 76.2309 89.4695 76.1269 88.7815C75.8459 86.6555 75.0929 84.3245 74.2349 82.1155L74.2909 82.0895Z" fill="#231F20"/>
<path fill-rule="evenodd" clip-rule="evenodd" d="M67.8476 85.7601C66.6736 83.0721 64.9646 80.4891 63.0946 78.0791C62.3946 77.2071 61.6326 76.3901 60.8826 75.5651C59.5666 74.1051 58.1626 72.7201 56.6646 71.4771C55.9026 70.8851 55.1246 70.2911 54.2966 69.8471C53.4816 69.4081 52.5876 69.0461 51.8246 69.0891C51.4816 69.0961 51.2236 69.2391 50.9896 69.4161C50.8746 69.5261 50.7666 69.6741 50.6586 69.8071C50.5806 69.9741 50.4746 70.1171 50.4106 70.2981C50.1326 71.0011 50.0536 71.8371 50.0666 72.6651C50.0966 73.7381 50.2946 74.8261 50.5436 75.8971C50.8216 76.9621 51.0196 78.0581 51.3346 79.1211C51.5236 79.7771 51.1886 79.8561 50.5946 79.4411C50.0286 79.0211 49.1306 78.0941 48.7366 76.7571C48.4296 75.5671 48.2076 74.3451 48.1526 73.0641C48.1186 71.7931 48.1686 70.4101 48.9626 69.0201C49.1376 68.6751 49.4296 68.3611 49.7306 68.0601C50.1046 67.7611 50.5016 67.4971 50.9496 67.3951C51.3976 67.2201 51.7906 67.2811 52.2086 67.2441C52.5736 67.2951 52.9696 67.3241 53.2996 67.4261C54.6526 67.8031 55.7406 68.4571 56.7546 69.1661C59.1416 70.8921 61.3926 72.8581 63.3546 75.0421C65.5036 77.4421 67.4346 80.0351 69.0116 82.8781C69.9546 84.6401 70.8386 86.4741 71.1406 88.6111C71.2276 89.4171 71.2616 90.3021 70.8776 91.1801C70.8106 91.4031 70.6846 91.6061 70.5376 91.8011C70.3966 91.9961 70.2686 92.2031 70.0716 92.3421C69.7356 92.6421 69.2876 92.9811 68.7456 93.0591C67.7006 93.2141 66.8756 92.8681 66.1576 92.5291C65.4336 92.1731 64.7906 91.7461 64.1726 91.3041C62.2646 89.9191 60.5396 88.4411 58.8986 86.8641C58.5466 86.5081 58.1896 86.1731 57.8536 85.8001C56.5926 84.4301 56.4396 83.7951 56.5726 83.1311C56.6076 82.9761 56.6196 82.8021 56.6756 82.6771C56.8496 82.2591 57.6706 82.5521 58.7816 83.3671C59.5556 84.0101 60.3356 84.6571 61.1216 85.3101C61.8676 85.9781 62.6196 86.6511 63.3776 87.3291C64.1406 87.9821 64.8856 88.6461 65.6456 89.2381C66.3926 89.8161 67.2086 90.3571 67.8346 90.5711C68.0606 90.6541 68.2426 90.6821 68.2756 90.6701C68.3056 90.6671 68.2426 90.6991 68.3966 90.5811C68.5876 90.4211 68.7296 90.1491 68.7806 89.6271C68.8166 88.5431 68.3926 87.1091 67.7956 85.7881L67.8476 85.7601Z" fill="#231F20"/>
<path fill-rule="evenodd" clip-rule="evenodd" d="M46.1117 89.3493C43.8307 85.0073 40.8717 80.9853 37.9987 76.8613C36.9467 75.3483 35.8737 73.8713 34.8687 72.3163C33.9857 70.9393 33.1477 69.5153 32.4297 68.0033C32.0817 67.2393 31.7427 66.4683 31.4947 65.6393C31.2277 64.8213 31.0017 63.9663 30.9697 63.0313C30.9437 62.8053 30.9697 62.5603 30.9817 62.3233C30.9897 62.2013 30.9927 62.0883 31.0077 61.9603L31.1227 61.4943C31.2607 60.8803 31.6357 60.2823 32.2087 60.0143C32.7737 59.7283 33.4437 59.7493 34.0557 59.9003C34.5317 60.0593 34.9627 60.2553 35.3397 60.4813C36.8617 61.3913 38.0567 62.4563 39.2947 63.5633C41.4337 65.5473 43.4127 67.6863 45.1917 69.9423C47.4357 72.8523 49.5907 75.9453 50.7957 79.4783C51.1577 80.5833 50.8777 80.5053 50.2287 79.7443C49.5807 78.9773 48.4307 77.6313 47.2907 75.9353C45.2557 72.9223 42.8537 70.1573 40.3717 67.5163C39.1117 66.2123 37.7997 64.9643 36.4037 63.8543C35.6877 63.2873 34.9877 62.7463 34.2917 62.3533C34.1167 62.2483 33.9517 62.1733 33.7867 62.0933L33.4317 61.9543C33.3377 61.9163 33.2137 61.9073 33.1267 61.9853C32.9637 61.9393 32.8137 63.2253 33.0477 64.1643C33.2377 65.1783 33.6547 66.1983 34.1307 67.1943C35.0957 69.1943 36.3607 71.0913 37.6327 72.9923C40.4017 77.1713 43.4507 81.2193 46.1077 85.5783C46.9237 86.9183 47.6977 88.2893 48.3977 89.7013C49.1107 91.0933 49.7097 92.5993 50.3427 93.9643C52.2327 98.1903 54.9247 102.086 58.0317 105.497C60.4677 108.136 63.1777 110.418 66.0657 112.438C66.6977 112.889 67.3236 113.318 67.9786 113.74C70.3836 115.34 71.1427 115.839 71.5797 116.416C71.6787 116.55 71.8236 116.699 71.8736 116.804C72.0646 117.131 70.7917 116.975 68.7407 116.077C67.2177 115.416 65.8087 114.524 64.3857 113.618C63.0207 112.638 61.6707 111.602 60.4017 110.456C57.8407 108.19 55.4737 105.628 53.3907 102.832C51.8637 100.742 50.4567 98.5463 49.2907 96.2093C48.9847 95.6343 48.7417 95.0253 48.4647 94.4343C48.1887 93.8293 47.9297 93.2473 47.6947 92.6953C47.2067 91.5683 46.6597 90.4643 46.0737 89.3773L46.1117 89.3493Z" fill="#231F20"/>
<path fill-rule="evenodd" clip-rule="evenodd" d="M88.4827 124.061L86.2087 124.465C85.4457 124.561 84.6887 124.683 83.9277 124.763C83.3717 124.814 82.8227 124.92 82.2667 124.967C80.2987 125.071 78.3327 125.087 76.3747 124.895C75.5067 124.862 74.6337 124.732 73.7707 124.685L72.1077 124.44C71.5557 124.332 71.0147 124.132 70.4977 123.914C70.1727 123.771 70.3377 123.458 70.7167 123.202C71.0977 122.947 71.6727 122.732 72.2407 122.859C74.3227 123.2 76.4657 123.269 78.6537 123.386C79.3097 123.42 79.9797 123.406 80.6497 123.329C81.3217 123.268 81.9947 123.193 82.6607 123.099C83.3957 123.015 84.1317 122.929 84.8607 122.798C85.5947 122.692 86.3237 122.561 87.0467 122.396C87.9457 122.228 88.8217 121.981 89.7017 121.742C90.3627 121.546 91.0107 121.311 91.6697 121.103C92.3027 120.843 92.9507 120.603 93.5497 120.289C94.4837 119.801 95.3007 119.157 96.0217 118.495C96.1717 118.342 96.3027 118.179 96.4777 118.052C97.0637 117.545 97.2547 117.415 97.7537 117.514C97.8607 117.534 97.9777 117.54 98.0747 117.569C98.4017 117.66 98.4217 118.106 98.0857 118.814C97.8367 119.333 97.4757 119.728 97.0967 120.154C96.7077 120.539 96.2787 120.863 95.8367 121.197C94.9377 121.789 93.9797 122.304 92.9947 122.709C91.5417 123.354 90.0047 123.718 88.4967 124.107L88.4827 124.061Z" fill="#231F20"/>
<path fill-rule="evenodd" clip-rule="evenodd" d="M90.566 127.562C90.513 127.46 90.4 127.29 90.227 127.291C90.131 127.347 90.136 127.458 90.139 127.576C90.142 127.637 90.152 127.703 90.164 127.774L90.185 127.885L90.191 127.916L90.237 128.062L90.337 128.374C90.608 129.217 90.904 130.055 91.17 131.017C91.23 131.264 91.292 131.514 91.34 131.815C91.365 131.96 91.388 132.121 91.399 132.324C91.407 132.406 91.41 132.521 91.399 132.668C91.386 132.811 91.395 132.901 91.323 133.159C91.292 133.269 91.254 133.377 91.211 133.48C91.168 133.585 91.036 133.789 90.916 133.921C90.676 134.214 90.316 134.396 89.93 134.482C89.613 134.537 89.441 134.506 89.195 134.476C89.018 134.438 88.929 134.4 88.795 134.354C88.531 134.256 88.446 134.184 88.267 134.091C88.131 134.007 88.027 133.935 87.837 133.799C87.748 133.741 87.679 133.658 87.598 133.591C86.993 132.948 86.872 132.589 86.605 132.187L85.937 131.023L84.673 128.757C84.303 128.105 83.929 127.457 83.543 126.867C83.351 126.574 83.15 126.294 82.975 126.086C82.938 126.047 82.884 125.977 82.863 125.962L82.828 125.927C82.824 125.922 82.812 125.908 82.823 125.92C82.848 125.901 82.931 125.791 82.975 125.724C83.185 125.351 83.295 125.16 83.283 124.999C83.288 124.99 83.291 124.977 83.288 124.961C83.284 124.941 83.269 124.922 83.294 124.972C83.31 125.001 83.333 125.024 83.357 125.04C83.381 125.055 83.396 125.051 83.469 125.116C83.59 125.208 83.726 125.269 83.865 125.297C83.917 125.296 84.047 125.358 84.155 125.392L84.234 125.418V125.421L84.233 125.426C84.232 125.432 84.229 125.437 84.223 125.443L84.215 125.527C84.196 125.625 84.196 125.79 84.192 125.941C84.189 126.096 84.202 126.274 84.205 126.441C84.211 126.57 84.225 126.674 84.254 126.837C84.377 127.463 84.607 128.197 84.829 128.911L85.525 131.119C85.748 131.887 85.984 132.615 86.103 133.574C86.121 133.835 86.158 134.085 86.073 134.519C86.048 134.634 85.991 134.791 85.933 134.916C85.864 135.062 85.706 135.267 85.555 135.397C85.143 135.719 84.691 135.74 84.425 135.7C84.308 135.68 84.192 135.652 84.079 135.62L83.845 135.522C83.677 135.452 83.588 135.387 83.468 135.317C83.278 135.193 82.994 135.012 82.795 134.797C82.359 134.308 82.197 133.914 82.009 133.544C81.834 133.166 81.681 132.799 81.535 132.435C81.018 131.146 80.541 129.88 79.988 128.681C79.712 128.091 79.417 127.499 79.091 127.028C78.939 126.802 78.73 126.589 78.67 126.567C78.669 126.558 78.648 126.601 78.706 126.463C78.737 126.416 78.761 126.36 78.775 126.298C78.789 126.214 78.791 126.208 78.795 126.192C78.8 126.186 78.788 126.115 78.795 126.167C78.8 126.193 78.81 126.213 78.821 126.226C78.84 126.274 78.877 126.348 78.916 126.394C78.936 126.418 78.958 126.441 78.981 126.461L78.99 126.468L79.033 126.518V126.519L79.032 126.52L79.029 126.524L79.023 126.534L78.994 126.568C78.903 126.668 78.873 126.8 78.893 127.071C78.918 127.333 79.023 127.666 79.171 127.999C79.473 128.668 79.915 129.358 80.382 130.03C80.856 130.704 81.371 131.367 81.899 132.026C82.436 132.677 82.901 133.403 83.426 134.084C84.062 134.95 83.677 135.154 82.644 134.875C82.128 134.734 81.445 134.475 80.68 134.073C79.941 133.649 79.193 133.017 78.519 132.183C77.933 131.435 77.351 130.656 76.872 129.713C76.635 129.236 76.413 128.722 76.258 128.097C76.121 127.481 75.99 126.691 76.342 125.742C76.504 125.279 76.82 124.847 77.167 124.523C77.223 124.456 77.434 124.302 77.58 124.212C77.724 124.113 77.938 124.018 78.174 123.953C78.603 123.811 79.183 123.859 79.508 123.982C80.235 124.24 80.549 124.593 80.791 124.842C81.046 125.114 81.207 125.356 81.377 125.59C81.995 126.511 82.385 127.351 82.778 128.194C83.161 129.034 83.506 129.863 83.847 130.667L84.357 131.837C84.522 132.196 84.712 132.592 84.81 132.773C84.802 132.785 84.84 132.836 84.832 132.833C84.817 132.827 84.878 132.873 84.894 132.887L84.948 132.926C84.963 132.938 84.993 132.962 84.977 132.952C84.97 132.963 84.984 132.924 84.96 132.978L84.886 133.151C84.84 133.268 84.8 133.388 84.767 133.511C84.692 133.674 84.647 133.831 84.641 134.01C84.618 134.13 84.623 134.222 84.65 134.288C84.638 134.294 84.687 134.339 84.612 134.266C84.588 134.257 84.458 134.17 84.322 134.138C84.229 134.135 83.952 134.039 83.766 134.041C83.66 134.033 83.575 134.044 83.416 134.025C83.313 134.019 83.358 134.019 83.348 134.017L83.35 134.012C83.362 134.016 83.353 133.928 83.358 133.882C83.316 133.279 83.087 132.386 82.868 131.562C82.568 130.521 82.265 129.472 81.96 128.416C81.818 127.867 81.637 127.265 81.602 126.522C81.584 126.225 81.579 125.905 81.589 125.568C81.605 125.377 81.614 125.207 81.652 124.984L81.741 124.615C81.788 124.466 81.897 124.245 82.001 124.081C82.075 123.973 82.231 123.814 82.373 123.709C82.515 123.596 82.674 123.511 82.896 123.46C83.088 123.41 83.36 123.394 83.483 123.42C83.613 123.442 83.746 123.477 83.873 123.522C84.286 123.694 84.46 123.867 84.619 124.005C84.93 124.295 85.126 124.546 85.318 124.797C85.693 125.296 86.004 125.781 86.304 126.267C86.897 127.237 87.433 128.208 87.978 129.153L88.812 130.605C88.951 130.838 89.091 131.072 89.227 131.277C89.398 131.528 89.386 131.531 89.481 131.618C89.491 131.619 89.571 131.679 89.633 131.715C89.668 131.729 89.766 131.791 89.743 131.773C89.739 131.781 89.747 131.752 89.732 131.791L89.678 131.965C89.644 132.069 89.629 132.236 89.604 132.296C89.546 132.408 89.563 132.611 89.579 132.687C89.557 132.719 89.643 132.809 89.568 132.727C89.537 132.702 89.544 132.723 89.48 132.687C89.413 132.649 89.342 132.623 89.271 132.61C89.171 132.611 88.881 132.544 88.647 132.544C88.618 132.562 88.643 132.555 88.63 132.52C88.629 132.481 88.62 132.411 88.604 132.328C88.576 132.171 88.529 131.979 88.473 131.787C88.261 130.998 87.966 130.143 87.691 129.282L87.454 128.531C87.344 128.191 87.246 127.853 87.156 127.516C86.983 126.847 86.834 126.178 86.797 125.592C86.724 124.379 86.867 123.577 87.599 122.743C87.688 122.697 87.805 122.691 87.907 122.663C88.81 122.441 89.615 122.683 90.331 123.15C91.054 123.617 91.768 124.41 92.4 125.338L92.87 126.029L93.206 126.546L93.803 127.457C94.201 128.04 94.615 128.604 95.051 129.006C95.271 129.207 95.493 129.356 95.674 129.421C95.766 129.459 95.843 129.476 95.921 129.472C95.96 129.478 96 129.476 96.041 129.464L96.103 129.457H96.107C95.914 128.733 96.372 130.443 96.324 130.267V130.268L96.323 130.269V130.277C96.322 130.284 96.342 130.296 96.312 130.274C96.28 130.256 96.237 130.264 96.125 130.254C96.037 130.258 95.957 130.289 95.795 130.312C95.726 130.326 95.658 130.343 95.59 130.365L95.491 130.399L95.493 130.403L95.473 130.35L95.384 130.163L95.132 129.718L94.547 128.788L93.312 126.886C93.106 126.561 92.902 126.233 92.704 125.886C92.508 125.527 92.307 125.2 92.146 124.663C92.052 124.301 91.951 123.947 91.866 123.534C91.826 123.326 91.788 123.107 91.779 122.84C91.777 122.587 91.779 122.216 92.051 121.797C92.2 121.578 92.406 121.43 92.632 121.324C92.814 121.258 93.048 121.198 93.183 121.206C93.512 121.187 93.743 121.238 93.971 121.286C94.194 121.336 94.399 121.399 94.588 121.468C94.807 121.533 95.076 121.68 95.26 121.799C95.972 122.282 96.509 122.725 97.11 123.139C97.698 123.548 98.291 123.93 98.886 124.207C99.474 124.485 100.085 124.673 100.529 124.646C100.971 124.611 101.16 124.448 101.425 124.079L101.788 125.79L100.541 125.092C99.877 124.707 99.216 124.345 98.565 123.912C97.357 123.115 96.605 122.463 96.165 121.876C95.943 121.562 95.803 121.312 95.729 121.017C95.686 120.728 95.712 120.433 95.777 120.179C95.817 119.969 95.922 119.691 96.027 119.635C96.124 119.572 96.214 119.616 96.359 119.637C96.429 119.649 96.487 119.642 96.554 119.639C96.652 119.659 96.758 119.677 96.861 119.687C97.141 119.702 97.36 119.828 97.67 120.004C97.976 120.176 98.342 120.392 98.751 120.651C100.16 121.537 101.719 122.406 103.285 123.252L105.143 124.256L103.823 125.791C103.526 126.137 103.295 126.502 102.872 126.79C102.666 126.935 102.451 127.073 102.233 127.199C102 127.297 101.754 127.377 101.508 127.45C100.531 127.69 99.598 127.558 98.909 127.331C97.464 126.88 96.442 126.169 95.467 125.485L94.108 124.48C93.919 124.337 93.666 124.175 93.666 124.175C93.651 124.171 93.706 124.184 93.593 124.15C93.494 124.114 93.415 124.093 93.358 124.083C93.333 124.078 93.277 124.057 93.282 124.065L93.272 124.066L93.267 124.064L93.28 123.842C93.348 123.353 93.293 122.911 93.223 122.715C93.183 122.633 93.194 122.637 93.181 122.609C93.176 122.592 93.141 122.553 93.141 122.553C93.181 122.591 93.144 122.56 93.276 122.635C93.328 122.659 93.369 122.666 93.43 122.678C93.522 122.709 93.615 122.73 93.708 122.74C93.848 122.742 94.178 122.787 94.452 122.772L94.65 122.757C94.649 122.749 94.651 122.762 94.651 122.762L94.656 122.787C94.654 122.796 94.661 122.833 94.67 122.873C94.678 122.937 94.707 123.048 94.729 123.148L94.93 123.894C94.929 123.888 94.93 123.895 94.951 123.944C95.088 124.241 95.396 124.767 95.691 125.232L96.649 126.716C96.98 127.228 97.313 127.734 97.659 128.322L97.928 128.803C98.025 129.007 98.119 129.149 98.259 129.597C98.294 129.75 98.336 129.816 98.354 130.205C98.356 130.284 98.354 130.363 98.349 130.441C98.347 130.517 98.301 130.788 98.237 130.953C98.17 131.142 98.076 131.321 97.968 131.474C97.833 131.661 97.62 131.866 97.383 132.009C97.265 132.081 97.141 132.141 97.019 132.186L96.851 132.241L96.836 132.244L96.776 132.256L96.656 132.28L96.415 132.321C96.098 132.367 95.743 132.363 95.427 132.313C94.084 132.084 93.361 131.362 92.811 130.822C92.27 130.248 91.874 129.69 91.506 129.153L90.594 127.749C90.583 127.722 90.568 127.692 90.549 127.66L90.566 127.562Z" fill="#231F20"/>
<path fill-rule="evenodd" clip-rule="evenodd" d="M36.9928 91.9367C37.1568 91.2997 37.7188 90.9437 38.2478 91.1407C40.8698 92.1177 36.1388 95.2517 36.9928 91.9367" fill="#231F20"/>
<path fill-rule="evenodd" clip-rule="evenodd" d="M75.9003 128.807C75.2373 127.62 74.5743 126.434 73.8863 125.267C73.6363 124.84 73.3303 124.453 73.0823 124.027C72.2073 122.52 71.3353 121.013 70.3763 119.571C69.9533 118.928 69.4722 118.329 68.9922 117.744C68.3552 117.018 67.6793 116.32 67.1212 115.582C66.9522 115.341 67.2162 115.053 67.6722 114.932C68.1212 114.808 68.8213 114.868 69.2483 115.288C70.0312 116.024 70.7063 116.805 71.3472 117.617C71.9572 118.447 72.5182 119.307 73.0192 120.208C73.6192 121.286 74.4352 122.265 75.1272 123.305C75.8842 124.45 76.6113 125.612 77.3403 126.771L78.6842 128.911C79.3772 129.98 80.0262 131.085 80.7642 132.111C81.3362 132.91 82.0223 133.606 82.6643 134.339C82.8053 134.501 82.9513 134.653 83.0793 134.826C83.1953 134.987 83.2822 135.126 83.3412 135.254C83.3892 135.389 83.3802 135.531 83.3722 135.649C83.3522 135.888 83.2383 136.097 83.0673 136.322C82.9893 136.423 82.9273 136.53 82.8553 136.608C82.6403 136.853 82.0783 136.849 81.4823 136.545C80.0513 135.407 79.0282 133.872 77.9952 132.349C77.2302 131.214 76.5692 130.007 75.8532 128.841L75.9003 128.807Z" fill="#231F20"/>
<path fill-rule="evenodd" clip-rule="evenodd" d="M113.13 80.3475C113.34 79.5285 114.063 79.0705 114.743 79.3245C118.115 80.5805 112.032 84.6095 113.13 80.3475" fill="#231F20"/>
<path fill-rule="evenodd" clip-rule="evenodd" d="M42.9338 118.139C43.2078 117.952 43.4258 117.695 43.4928 117.427C43.5208 117.331 43.4998 117.225 43.4948 117.108C43.4818 116.724 43.2238 116.285 42.8328 116.176C42.6648 116.126 42.5148 116.18 42.4298 116.284C42.3218 116.434 42.3118 116.661 42.2188 116.94C42.1828 117.022 41.9448 117.035 41.7128 116.943C41.4878 116.853 41.2398 116.641 41.3048 116.359C41.3478 116.126 41.4568 115.86 41.6588 115.633C41.8548 115.404 42.1588 115.238 42.4528 115.199C43.0508 115.118 43.5358 115.381 43.8388 115.719C44.1958 116.125 44.4838 116.615 44.5148 117.147C44.5548 117.762 44.2628 118.323 43.8988 118.696C43.6678 118.928 43.4128 119.123 43.1298 119.27C42.7088 119.484 42.2148 119.658 41.6068 119.494C41.1498 119.389 40.8438 118.867 40.8088 118.438C40.8008 118.346 40.7788 118.249 40.7798 118.155C40.8468 117.847 40.9498 117.765 41.2278 117.777C41.2908 117.78 41.3538 117.779 41.4148 117.788C41.6198 117.822 41.7738 117.969 41.8298 118.136C41.9028 118.404 42.0038 118.535 42.0298 118.493C42.0768 118.486 42.0418 118.468 42.0978 118.471C42.3148 118.451 42.6638 118.323 42.9158 118.119L42.9338 118.139Z" fill="#231F20"/>
<path fill-rule="evenodd" clip-rule="evenodd" d="M19.807 85.7145C20.081 85.5275 20.298 85.2705 20.365 85.0025C20.394 84.9065 20.373 84.8005 20.367 84.6835C20.354 84.2995 20.097 83.8605 19.706 83.7515C19.538 83.7015 19.387 83.7555 19.303 83.8595C19.194 84.0095 19.184 84.2365 19.092 84.5155C19.055 84.5975 18.817 84.6105 18.586 84.5185C18.36 84.4285 18.112 84.2165 18.177 83.9345C18.221 83.7015 18.33 83.4355 18.532 83.2085C18.728 82.9795 19.032 82.8135 19.326 82.7745C19.923 82.6935 20.409 82.9565 20.711 83.2945C21.068 83.7005 21.356 84.1905 21.387 84.7225C21.428 85.3375 21.136 85.8985 20.771 86.2715C20.541 86.5035 20.286 86.6985 20.002 86.8455C19.582 87.0595 19.087 87.2335 18.48 87.0695C18.022 86.9645 17.716 86.4425 17.682 86.0135C17.674 85.9215 17.651 85.8245 17.653 85.7305C17.719 85.4225 17.823 85.3405 18.1 85.3525C18.164 85.3555 18.227 85.3545 18.288 85.3635C18.493 85.3975 18.647 85.5445 18.703 85.7115C18.775 85.9795 18.877 86.1105 18.903 86.0685C18.95 86.0615 18.915 86.0435 18.971 86.0465C19.187 86.0265 19.537 85.8985 19.788 85.6945L19.807 85.7145Z" fill="#231F20"/>
<path fill-rule="evenodd" clip-rule="evenodd" d="M68.1817 22.0686C68.0567 21.9596 68.1667 21.7936 68.4147 21.5996C68.4937 21.5386 68.7697 21.4526 68.8217 21.4776C68.9227 21.5256 69.0217 21.5736 69.0997 21.6306C69.1447 21.6676 69.5447 22.3326 69.7047 22.5456C69.8527 22.7556 69.9637 22.9786 70.0657 23.2066C70.2757 23.6686 70.5077 24.1216 70.7427 24.5736C70.7937 24.6746 70.8307 24.7816 70.8567 24.8956C70.9407 25.2856 71.1247 25.6316 71.3247 25.9676C71.3577 26.0246 71.3807 26.0876 71.4547 26.1196C71.5737 26.1736 72.0707 27.1116 72.1037 27.2516C72.1927 27.5926 72.2307 27.9656 72.3207 28.3116C72.3307 28.3616 72.3667 28.4016 72.3397 28.4686C72.2777 28.6236 72.3417 28.7096 72.3787 28.8116C72.4307 28.9526 72.4787 29.0966 72.5137 29.2476C72.5307 29.3216 72.5117 29.4166 72.5057 29.5036C72.4987 29.5826 72.3547 29.6236 72.3277 29.6116C72.2537 29.5776 72.2187 29.6596 72.1687 29.6956C72.1517 29.7086 72.1287 29.7236 72.1127 29.7296C72.0877 29.7356 71.3527 29.1676 71.2877 29.0956C71.2807 29.0876 71.0707 28.8416 70.8457 28.5786C70.6037 28.3286 70.4227 28.0266 70.3717 27.9726C70.3237 27.9136 70.3157 27.8316 70.2977 27.7556C70.2667 27.7106 69.7087 26.8756 69.6877 26.8436C69.6017 26.6516 69.4587 26.4866 69.4817 26.2396C69.4857 26.1916 69.4607 26.1556 69.4407 26.1196C69.2657 25.8006 69.1577 25.4496 69.0367 25.1056C68.9747 24.9296 68.8877 24.7646 68.8137 24.5946C68.8007 24.5636 68.8047 24.5256 68.7977 24.4916C68.7907 24.4486 68.7897 24.4026 68.7727 24.3646C68.5897 23.9636 68.4847 23.5306 68.2817 23.1376C68.2327 23.0476 68.1997 22.5426 68.1437 22.4396C68.1117 22.3806 68.2307 22.1116 68.1817 22.0686" fill="#231F20"/>
<path fill-rule="evenodd" clip-rule="evenodd" d="M84.8734 20.166C84.8414 20.022 85.0244 19.985 85.3364 20.005C85.4354 20.011 85.7044 20.117 85.7294 20.166C85.7794 20.259 85.8264 20.353 85.8524 20.44C85.8684 20.493 85.7524 21.2 85.7164 21.444C85.6864 21.682 85.6074 21.9 85.5204 22.114C85.3404 22.548 85.1694 22.986 84.9774 23.413C84.9354 23.508 84.8794 23.596 84.8094 23.677C84.5654 23.952 84.4154 24.272 84.2694 24.596C84.2464 24.65 84.2094 24.699 84.2284 24.773C84.2614 24.897 83.8014 25.74 83.7054 25.828C83.4814 26.056 83.2044 26.253 82.9754 26.475C82.9404 26.506 82.9274 26.552 82.8584 26.559C82.6994 26.575 82.6654 26.664 82.6024 26.737C82.5184 26.84 82.4284 26.939 82.3244 27.03C82.2724 27.076 82.1864 27.1 82.1134 27.131C82.0464 27.159 81.9354 27.06 81.9304 27.034C81.9174 26.959 81.8324 26.965 81.7764 26.939C81.7574 26.931 81.7314 26.919 81.7184 26.908C81.7014 26.891 81.7594 26.063 81.7784 25.981C81.7814 25.973 81.8594 25.702 81.9444 25.412C82.0054 25.115 82.1404 24.844 82.1514 24.781C82.1694 24.717 82.2284 24.676 82.2774 24.629C82.3024 24.607 82.5974 23.785 82.6144 23.756C82.7094 23.604 82.7424 23.421 82.9394 23.323C82.9784 23.303 82.9894 23.268 83.0044 23.235C83.1294 22.956 83.3144 22.706 83.4804 22.446C83.5664 22.314 83.6194 22.166 83.6904 22.027C83.7034 22.001 83.7314 21.984 83.7514 21.962C83.7764 21.935 83.8074 21.91 83.8214 21.877C83.9694 21.539 84.1864 21.23 84.2864 20.871C84.3114 20.79 84.6004 20.47 84.6204 20.371C84.6334 20.317 84.8874 20.224 84.8734 20.166" fill="#231F20"/>
<path fill-rule="evenodd" clip-rule="evenodd" d="M21.8532 42.5071C21.6982 42.4601 21.7362 42.2691 21.8822 41.9881C21.9292 41.8991 22.1432 41.7041 22.2002 41.7071C22.3132 41.7111 22.4252 41.7171 22.5212 41.7401C22.5812 41.7521 23.2292 42.2431 23.4532 42.4121C23.6742 42.5701 23.8532 42.7641 24.0262 42.9651C24.3732 43.3741 24.7262 43.7781 25.0562 44.1991C25.1302 44.2921 25.1912 44.3951 25.2382 44.5071C25.3992 44.8911 25.6412 45.2141 25.8872 45.5351C25.9292 45.5881 25.9602 45.6511 26.0392 45.6751C26.1722 45.7151 26.7752 46.6301 26.8162 46.7711C26.9362 47.1121 27.0012 47.4861 27.1112 47.8301C27.1252 47.8801 27.1632 47.9191 27.1392 47.9871C27.0852 48.1461 27.1542 48.2301 27.1962 48.3301C27.2562 48.4691 27.3112 48.6111 27.3512 48.7611C27.3712 48.8361 27.3562 48.9301 27.3542 49.0171C27.3512 49.0971 27.2082 49.1441 27.1812 49.1331C27.1052 49.1021 27.0742 49.1851 27.0252 49.2231C27.0082 49.2361 26.9862 49.2531 26.9702 49.2591C26.9462 49.2651 26.1902 48.7331 26.1212 48.6671C26.1142 48.6601 25.8922 48.4301 25.6552 48.1841C25.4002 47.9561 25.2022 47.6751 25.1472 47.6281C25.0942 47.5741 25.0812 47.4951 25.0582 47.4231C25.0482 47.3861 24.3952 46.6411 24.3732 46.6101C24.2702 46.4341 24.1092 46.2991 24.1002 46.0581C24.0982 46.0111 24.0692 45.9811 24.0442 45.9491C23.8302 45.6741 23.6702 45.3601 23.4912 45.0591C23.4002 44.9051 23.2792 44.7741 23.1752 44.6301C23.1562 44.6041 23.1522 44.5671 23.1392 44.5361C23.1232 44.4981 23.1112 44.4561 23.0862 44.4241C22.8202 44.0991 22.6122 43.7251 22.3022 43.4371C22.2342 43.3681 22.0402 42.9251 21.9512 42.8541C21.9042 42.8131 21.9162 42.5251 21.8532 42.5071" fill="#231F20"/>
<path fill-rule="evenodd" clip-rule="evenodd" d="M17.2758 56.2779C17.1408 56.3429 17.0558 56.1739 17.0038 55.8679C16.9868 55.7699 17.0298 55.4849 17.0698 55.4479C17.1488 55.3769 17.2268 55.3089 17.3018 55.2619C17.3488 55.2359 18.0308 55.1629 18.2628 55.1129C18.4868 55.0709 18.7068 55.0709 18.9258 55.0819C19.3718 55.0989 19.8198 55.0949 20.2678 55.0939C20.3678 55.0939 20.4658 55.1099 20.5648 55.1389C20.9038 55.2439 21.2478 55.2399 21.5908 55.2219C21.6488 55.2179 21.7068 55.2279 21.7628 55.1769C21.8538 55.0959 22.7868 55.0979 22.9088 55.1359C23.2098 55.2189 23.5138 55.3619 23.8188 55.4479C23.8618 55.4629 23.9078 55.4499 23.9488 55.5059C24.0428 55.6339 24.1358 55.6189 24.2298 55.6349C24.3608 55.6559 24.4918 55.6829 24.6228 55.7239C24.6878 55.7449 24.7528 55.8069 24.8178 55.8539C24.8758 55.8969 24.8478 56.0439 24.8278 56.0609C24.7708 56.1099 24.8198 56.1799 24.8268 56.2419C24.8298 56.2629 24.8318 56.2899 24.8298 56.3069C24.8248 56.3309 24.0808 56.7059 23.9978 56.7299C23.9888 56.7319 23.7128 56.7999 23.4158 56.8729C23.1218 56.9669 22.8138 56.9839 22.7508 57.0029C22.6858 57.0189 22.6188 56.9859 22.5528 56.9669C22.5028 56.9729 21.6288 57.0739 21.5968 57.0779C21.4128 57.0639 21.2258 57.1139 21.0448 56.9799C21.0088 56.9539 20.9708 56.9589 20.9348 56.9599C20.6158 56.9669 20.2998 56.9029 19.9838 56.8539C19.8228 56.8289 19.6588 56.8329 19.4968 56.8209C19.4678 56.8189 19.4398 56.7989 19.4108 56.7889C19.3748 56.7769 19.3388 56.7559 19.3018 56.7549C18.9168 56.7379 18.5378 56.6389 18.1498 56.6499C18.0598 56.6539 17.6528 56.4649 17.5498 56.4709C17.4918 56.4749 17.3298 56.2519 17.2758 56.2779" fill="#231F20"/>
<path fill-rule="evenodd" clip-rule="evenodd" d="M105.483 95.0711C105.385 95.3881 105.376 95.7241 105.491 95.9761C105.528 96.0681 105.61 96.1381 105.689 96.2261C105.939 96.5181 106.414 96.6991 106.787 96.5411C106.95 96.4751 107.034 96.3391 107.035 96.2051C107.025 96.0201 106.892 95.8371 106.79 95.5611C106.767 95.4741 106.945 95.3161 107.183 95.2431C107.416 95.1721 107.741 95.1821 107.867 95.4441C107.978 95.6531 108.059 95.9291 108.044 96.2321C108.033 96.5341 107.9 96.8531 107.694 97.0671C107.278 97.5041 106.734 97.6011 106.287 97.5261C105.755 97.4321 105.224 97.2291 104.867 96.8331C104.452 96.3781 104.33 95.7571 104.381 95.2381C104.416 94.9131 104.495 94.6011 104.624 94.3091C104.818 93.8801 105.096 93.4361 105.673 93.1841C106.096 92.9811 106.661 93.1971 106.956 93.5101C107.02 93.5771 107.097 93.6391 107.155 93.7131C107.295 93.9951 107.266 94.1241 107.042 94.2881C106.99 94.3261 106.941 94.3661 106.888 94.3971C106.708 94.4981 106.495 94.4791 106.347 94.3841C106.123 94.2201 105.962 94.1811 105.968 94.2301C105.936 94.2641 105.974 94.2581 105.929 94.2901C105.772 94.4411 105.579 94.7591 105.509 95.0751L105.483 95.0711Z" fill="#231F20"/>
</svg>
