<svg width="148" height="148" viewBox="0 0 148 148" fill="none" xmlns="http://www.w3.org/2000/svg">
<path fill-rule="evenodd" clip-rule="evenodd" d="M57.3437 33.7161L68.8297 33.6751L73.0177 33.6431L87.7847 33.7601C89.9697 33.7751 92.1647 33.7891 94.3317 33.8031C97.1167 33.8481 99.9157 33.8111 102.698 34.0911C103.563 34.1891 103.439 34.2921 102.698 34.4291C101.956 34.5811 100.605 34.7351 99.0037 34.7261C93.3287 34.7261 87.6497 34.6751 81.9217 34.5891C78.4957 34.5371 74.9287 34.5951 71.4237 34.6101L59.8587 34.6681C57.4857 34.6901 55.1117 34.7121 52.7407 34.7351C49.1487 34.7841 45.5387 34.8241 41.9747 34.9241C39.1937 34.9841 36.5117 35.1781 33.7297 35.2371C33.1167 35.2341 32.5187 35.2211 31.9057 35.1811C29.6367 35.0171 28.9577 34.8781 28.4857 34.5801C28.3787 34.5201 28.2347 34.4651 28.1717 34.4181C27.9487 34.2971 28.9057 34.0111 30.5617 34.1271C31.7857 34.1891 33.0107 34.2541 34.2357 34.2281C35.4847 34.1771 36.7457 34.1251 38.0137 34.0741C40.5667 33.9791 43.1557 33.9101 45.7497 33.8591C49.6037 33.8031 53.4747 33.7471 57.3387 33.6921L57.3437 33.7161Z" fill="#231F20"/>
<path fill-rule="evenodd" clip-rule="evenodd" d="M56.6065 123.964C60.3365 123.923 64.0675 123.854 67.7985 123.758L71.8795 123.608L86.2735 123.174C88.4005 123.074 90.5395 122.973 92.6505 122.874C95.3635 122.746 98.0815 122.47 100.807 122.645C101.657 122.717 101.548 122.824 100.842 123.085C100.138 123.375 98.8375 123.777 97.2775 123.887C91.7445 124.234 86.2075 124.5 80.6115 124.582C77.2665 124.638 73.7915 124.858 70.3705 124.975C66.6105 125.107 62.8465 125.205 59.0835 125.286C56.7665 125.325 54.4485 125.365 52.1335 125.404C48.6255 125.445 45.0995 125.447 41.6145 125.438C38.9045 125.435 36.2465 125.477 33.5565 125.402C32.9635 125.384 32.3815 125.366 31.7845 125.348C29.5645 125.233 28.8665 124.96 28.4515 124.529C28.3565 124.428 28.2285 124.324 28.1795 124.231C28.0125 123.929 28.9405 123.729 30.5235 123.819C35.2475 124.027 40.2755 124.014 45.3195 124.028C49.0675 124.031 52.8385 123.996 56.6015 123.93L56.6065 123.964Z" fill="#231F20"/>
<path fill-rule="evenodd" clip-rule="evenodd" d="M83.5597 54.8457L88.8307 55.1857C89.4717 55.2247 90.1137 55.2157 90.7547 55.2597C93.0137 55.4147 95.2727 55.5817 97.5337 55.7047C98.5377 55.7557 99.5457 55.8127 100.542 55.8417C101.822 55.8807 103.107 55.9067 104.384 56.0607C104.783 56.1097 104.727 56.2807 104.387 56.4677C104.047 56.6517 103.422 56.8827 102.683 56.9307C101.373 57.0067 100.064 57.0737 98.7517 57.1047C97.4407 57.1367 96.1287 57.0337 94.8117 56.9457C93.2367 56.8207 91.5927 56.8827 89.9787 56.8467C88.2057 56.8027 86.4307 56.7557 84.6577 56.6807L81.3827 56.5587C79.7297 56.5097 78.0707 56.4307 76.4287 56.4387C75.1507 56.4437 73.8947 56.5647 72.6297 56.6397C72.3517 56.6567 72.0787 56.6927 71.7977 56.6987C70.7577 56.7097 70.4347 56.5347 70.2307 56.0267C70.1847 55.9087 70.1227 55.7917 70.0987 55.6757C70.0147 55.2837 70.4507 54.9607 71.2157 54.8237C73.4817 54.4917 75.8547 54.5307 78.2387 54.5867C80.0087 54.6337 81.7847 54.7287 83.5587 54.8007L83.5597 54.8457Z" fill="#231F20"/>
<path fill-rule="evenodd" clip-rule="evenodd" d="M77.633 116.466C77.633 116.466 77.225 122.752 77.857 122.767C78.488 122.781 85.045 123.176 84.883 122.584C84.692 121.882 79.041 121.755 78.902 121.088C78.683 120.044 78.757 117.696 78.646 116.742C78.331 114.018 77.504 114.545 77.504 114.545L77.633 116.466Z" fill="#231F20"/>
<path fill-rule="evenodd" clip-rule="evenodd" d="M104.343 104.285C103.343 104.253 102.342 104.22 101.343 104.187C100.979 104.179 100.614 104.212 100.25 104.198C98.9625 104.153 97.6735 104.061 96.3845 103.996C95.8135 103.971 95.2385 103.97 94.6695 103.976C93.9395 103.994 93.1995 104.002 92.4755 103.803C92.2495 103.744 92.2985 103.514 92.5045 103.276C92.7115 103.039 93.0705 102.774 93.4795 102.737C94.9365 102.68 96.4045 102.679 97.8935 102.789C98.7845 102.859 99.7095 102.762 100.621 102.749L103.634 102.728L105.491 102.716C106.429 102.701 107.372 102.713 108.304 102.661C109.029 102.62 109.739 102.482 110.466 102.4C110.626 102.382 110.783 102.348 110.946 102.34C111.55 102.316 111.747 102.452 111.845 102.932C111.868 103.043 111.899 103.153 111.909 103.263C111.941 103.636 111.686 103.931 111.273 104.017C110.032 104.286 108.702 104.33 107.359 104.343C106.358 104.337 105.35 104.33 104.346 104.325L104.343 104.285Z" fill="#231F20"/>
<path fill-rule="evenodd" clip-rule="evenodd" d="M49.4838 104.885L46.3498 104.691C45.9678 104.67 45.5868 104.693 45.2068 104.666C43.8648 104.565 42.5158 104.463 41.1778 104.362C40.5818 104.323 39.9818 104.318 39.3898 104.324C38.6278 104.331 37.8598 104.335 37.1038 104.146C36.8688 104.086 36.9168 103.804 37.1308 103.52C37.3448 103.239 37.7228 102.935 38.1548 102.91C39.6948 102.809 41.2338 102.932 42.7898 103.105C43.7208 103.222 44.6918 103.152 45.6468 103.174L48.7958 103.267L50.7338 103.32C51.7128 103.334 52.6968 103.373 53.6688 103.334C54.4228 103.304 55.1618 103.173 55.9078 103.081C56.0718 103.061 56.2328 103.024 56.3988 103.012C57.0118 102.991 57.2128 103.164 57.3488 103.581C57.3798 103.678 57.4198 103.774 57.4368 103.869C57.4928 104.189 57.2538 104.47 56.8048 104.634C55.4738 104.993 54.0628 105.002 52.6478 105.007C51.5958 105.003 50.5398 104.955 49.4848 104.925L49.4838 104.885Z" fill="#231F20"/>
<path fill-rule="evenodd" clip-rule="evenodd" d="M56.1264 57.8612C56.1264 57.8612 55.8304 57.8612 55.5544 56.2692C55.5544 56.2692 50.7024 56.2422 48.6514 56.0712C47.6984 55.9932 46.8174 55.5462 46.8174 55.5462L56.2454 55.0742L56.1264 57.8612Z" fill="#231F20"/>
<path fill-rule="evenodd" clip-rule="evenodd" d="M57.6792 32.0067L70.8732 32.0997C72.4782 32.1077 74.0822 32.0537 75.6852 32.0737C81.3402 32.1267 86.9962 32.2927 92.6532 32.4237C95.1622 32.4857 97.6862 32.5007 100.179 32.5197C101.783 32.5687 103.386 32.5627 104.996 32.6477C106.601 32.7717 108.22 32.7667 109.826 33.2187C110.821 33.4687 110.621 33.7007 109.734 34.0007C109.291 34.1427 108.676 34.3677 107.974 34.4487C107.246 34.5867 106.4 34.6807 105.49 34.6657C99.0132 34.6807 92.4892 34.5707 85.9162 34.3397C81.9832 34.2017 77.8882 34.3137 73.8632 34.3087L60.5792 34.2767C57.8542 34.2767 55.1272 34.2767 52.4032 34.2777C48.2772 34.2947 44.1292 34.2807 40.0332 34.3607C36.8472 34.4217 33.7282 34.6247 30.5732 34.7347C29.8782 34.7587 29.2002 34.8097 28.4972 34.8187C27.1922 34.8237 26.3312 34.7917 25.7302 34.6657C25.4192 34.5857 25.1672 34.4857 24.9712 34.3707C24.7752 34.2377 24.6272 34.0867 24.5002 33.9377C24.3852 33.7997 24.2322 33.6737 24.1732 33.5677C24.0742 33.3827 24.3022 33.2337 24.7732 33.0097C25.0092 32.8797 25.2972 32.8137 25.6362 32.7537C25.9872 32.6777 26.4132 32.6407 26.8822 32.6067C32.4732 32.2267 38.4132 32.0837 44.3662 32.0207C48.7912 31.9977 53.2372 31.9737 57.6732 31.9497L57.6792 32.0067Z" fill="#231F20"/>
<path fill-rule="evenodd" clip-rule="evenodd" d="M46.496 75.2531C41.566 75.2001 36.637 75.0511 31.687 74.7181C30.784 74.6511 29.878 74.5871 28.968 74.4991C28.511 74.4991 28.031 74.6501 27.572 74.5501C27.109 74.4951 26.641 74.4241 26.16 74.3221C26.002 74.2851 25.853 74.2591 25.687 74.2111C25.532 74.1661 25.376 74.1321 25.113 74.0261C24.633 73.8701 24.217 73.5901 23.935 73.1951C23.795 72.9241 23.718 72.6261 23.63 72.3341C23.542 72.0121 23.548 71.8781 23.507 71.6621C23.462 71.2801 23.42 70.9021 23.395 70.5341C23.335 69.7941 23.304 69.0671 23.273 68.3391C23.22 66.8871 23.199 65.4431 23.188 64.0001C23.167 61.1141 23.197 58.2361 23.238 55.3581C23.253 52.5481 23.269 49.7241 23.284 46.9361C23.296 45.1451 23.284 43.3481 23.326 41.5521C23.366 39.7561 23.438 37.9581 23.823 36.1761C24.137 35.0651 24.472 35.2511 25.014 36.2231C25.294 36.7111 25.572 37.3911 25.835 38.2071C26.067 39.0231 26.172 39.9691 26.155 40.9941C26.055 48.2631 25.7 55.5431 25.402 62.8771C25.342 64.4571 25.333 66.0611 25.377 67.6661C25.396 68.4681 25.435 69.2691 25.489 70.0631C25.519 70.4571 25.552 70.8491 25.598 71.2281C25.617 71.4051 25.658 71.6231 25.673 71.7361C25.688 71.7991 25.699 71.8641 25.728 71.9241C25.781 72.0131 25.89 72.0451 25.982 72.0781C26.144 72.1291 26.475 72.2151 26.743 72.2671C27.03 72.3251 27.325 72.3741 27.622 72.4211C27.924 72.4581 28.223 72.5001 28.521 72.6081C29.104 72.8401 29.723 72.8071 30.33 72.8691L32.167 72.9751C33.395 73.0331 34.627 73.0731 35.86 73.1041C38.327 73.1651 40.798 73.1821 43.27 73.1901C46.314 73.2041 49.361 73.1961 52.405 73.1561C57.016 73.0961 61.652 73.0361 66.23 72.8661C69.789 72.7351 73.273 72.4591 76.793 72.2441C77.568 72.1981 78.326 72.1291 79.108 72.0961C82.009 71.9581 82.947 72.1551 83.575 72.7931C83.718 72.9381 83.905 73.0811 83.988 73.2241C84.262 73.6921 83.096 74.1461 80.985 74.3311C74.718 74.8711 68.079 75.0951 61.41 75.2151C56.456 75.3041 51.476 75.3201 46.502 75.3051L46.496 75.2531Z" fill="#231F20"/>
<path fill-rule="evenodd" clip-rule="evenodd" d="M110.771 95.3945L110.754 85.4915C110.748 84.2865 110.674 83.0825 110.673 81.8795L110.724 69.1325C110.736 67.2455 110.684 65.3505 110.646 63.4755C110.642 62.2705 110.622 61.0615 110.657 59.8485C110.682 59.2435 110.688 58.6315 110.789 58.0245C110.901 57.4175 111.036 56.8075 111.217 56.1915C111.532 55.3615 111.718 55.6545 111.96 56.2965C112.11 56.6345 112.278 57.0735 112.491 57.6205C112.589 57.8935 112.705 58.1785 112.775 58.4915C112.828 58.8015 112.86 59.1275 112.862 59.4655L112.956 63.1055C112.978 64.3235 112.954 65.5455 112.947 66.7695C112.926 69.2185 112.88 71.6765 112.786 74.1485C112.673 77.1055 112.854 80.1795 112.89 83.2035L112.974 93.1855L113.009 99.3305C113.022 102.434 113.035 105.551 113.048 108.632C113.077 111.029 113.215 113.379 113.225 115.769C113.233 116.294 113.236 116.815 113.221 117.348C113.118 119.326 112.871 120.013 112.163 120.314C112.014 120.382 111.868 120.475 111.743 120.496C111.344 120.534 111.056 119.78 111.07 118.414C110.982 114.287 110.856 109.829 110.813 105.375C110.78 102.058 110.748 98.7255 110.715 95.3995L110.771 95.3945Z" fill="#231F20"/>
<path fill-rule="evenodd" clip-rule="evenodd" d="M57.2825 122.488C61.7215 122.497 66.1655 122.473 70.6085 122.406L75.4685 122.264C81.1825 122.179 86.8985 122.096 92.6145 121.944C95.1495 121.873 97.6975 121.751 100.212 121.624C101.828 121.538 103.447 121.452 105.066 121.367C105.875 121.323 106.689 121.314 107.502 121.335L108.723 121.371C109.136 121.398 109.537 121.475 109.956 121.537C110.429 121.601 110.856 121.8 110.741 121.893C110.648 121.988 110.382 122.084 109.97 122.294C109.13 122.732 107.596 123.374 105.741 123.509C102.451 123.701 99.1545 123.886 95.8485 124.019C92.5415 124.125 89.2245 124.187 85.8905 124.185C81.9035 124.182 77.7635 124.454 73.6875 124.564C69.2065 124.683 64.7215 124.759 60.2365 124.809C57.4755 124.826 54.7135 124.843 51.9545 124.861C47.7735 124.876 43.5725 124.813 39.4165 124.763C36.1825 124.715 33.0105 124.771 29.7725 124.575C29.0615 124.515 28.3395 124.49 27.6375 124.407C26.3375 124.254 25.3705 124.066 24.6755 123.625C23.9725 123.184 23.6545 122.432 23.8785 121.96C23.9605 121.742 24.1005 121.543 24.2475 121.474C24.4965 121.344 24.7365 121.619 24.9815 121.609C25.1005 121.606 25.2095 121.592 25.4465 121.617C25.6805 121.632 26.0115 121.696 26.4365 121.744C29.1395 122.042 32.0085 122.158 34.9405 122.233C37.8695 122.314 40.8585 122.367 43.8575 122.395C48.3115 122.442 52.7975 122.468 57.2755 122.428L57.2825 122.488Z" fill="#231F20"/>
<path fill-rule="evenodd" clip-rule="evenodd" d="M23.063 96.6166L23.209 87.4936L23.22 86.9956C23.218 86.7536 23.242 86.5136 23.296 86.3046C23.394 85.8866 23.39 85.3656 23.815 85.1456C24.16 84.8876 24.645 84.7706 25.117 84.6816L25.467 84.6256L25.7 84.5956L26.137 84.5516C30.155 84.2886 34.026 84.4656 37.946 84.5346C39.68 84.5766 41.422 84.5766 43.142 84.5816C45.354 84.5876 47.569 84.5196 49.79 84.8736C50.5 84.9966 50.349 85.3406 49.753 85.6756C49.157 86.0046 48.085 86.4106 46.822 86.4296C42.339 86.4396 37.849 86.4526 33.328 86.3336C31.977 86.2996 30.599 86.3426 29.223 86.4176C28.535 86.4576 27.847 86.5086 27.17 86.5736C26.55 86.6256 25.634 86.7536 25.59 86.7656C25.527 86.7796 25.462 86.7916 25.405 86.8246C25.348 86.8666 25.378 86.9436 25.361 87.0026L25.347 87.2036L25.33 87.7546L25.288 90.0336L25.234 94.6136L25.182 100.257C25.166 103.106 25.112 105.969 25.127 108.799C25.133 110.999 25.266 113.158 25.286 115.345C25.293 115.826 25.321 116.298 25.304 116.786C25.282 118.591 24.987 119.168 24.441 119.503C24.312 119.58 24.182 119.684 24.057 119.723C23.638 119.853 23.343 119.103 23.247 117.813C23.051 113.965 23.01 109.888 23 105.788C23.002 102.74 23.005 99.6776 23.008 96.6206L23.063 96.6166Z" fill="#231F20"/>
<path fill-rule="evenodd" clip-rule="evenodd" d="M83.5845 53.2875L89.8335 53.5295C90.5935 53.5555 91.3525 53.5185 92.1125 53.5515C94.7925 53.6655 97.4755 53.7805 100.153 53.8945C101.345 53.9325 102.539 53.9695 103.721 54.0065C105.247 54.0555 106.75 54.0325 108.319 54.3895C108.592 54.4585 108.736 54.6175 108.66 54.6795C108.597 54.7575 108.43 54.8115 108.238 54.9115C107.832 55.0885 107.101 55.3675 106.241 55.4175C104.704 55.5055 103.17 55.5945 101.628 55.6835C100.085 55.7555 98.5365 55.6645 96.9785 55.5935C95.1145 55.4855 93.1765 55.6265 91.2695 55.6435C89.1725 55.6535 87.0745 55.6615 84.9755 55.6315L81.0995 55.5915C79.1435 55.5835 77.1765 55.5345 75.2325 55.5795C73.7205 55.6135 72.2375 55.7905 70.7255 55.8785C70.3935 55.8995 70.0635 55.9375 69.7245 55.9395C68.4635 55.9165 68.0295 55.6505 67.8395 54.9445C67.8015 54.7845 67.7515 54.6245 67.7515 54.4725C67.7895 53.9595 68.2145 53.6215 69.0815 53.4765C71.6695 53.1345 74.4815 53.1125 77.2895 53.1265C79.3815 53.1605 81.4835 53.1945 83.5815 53.2285L83.5845 53.2875Z" fill="#231F20"/>
<path fill-rule="evenodd" clip-rule="evenodd" d="M57.9476 45.6989C57.9106 47.3929 57.8806 49.0909 57.8786 50.7889C57.8676 51.4099 57.9296 52.0279 57.9126 52.6479C57.8566 54.8369 57.7956 57.0299 57.7886 59.2229C57.7876 60.1949 57.8396 61.1719 57.8966 62.1359C57.9746 63.3809 57.9996 64.6159 57.7196 65.9179C57.6246 66.3249 57.3346 66.2129 57.0146 65.8669C56.7146 65.5309 56.2956 64.9669 56.1796 64.2709C55.9336 63.0379 55.8696 61.7859 55.8176 60.5269C55.7616 59.2659 55.7456 57.9999 55.7896 56.7219C55.8476 55.1939 55.6296 53.6159 55.5606 52.0569C55.4776 50.3439 55.4896 48.6229 55.4736 46.9039L55.4676 43.7269C55.4596 42.1229 55.5046 40.5119 55.4716 38.9139C55.4536 37.6699 55.2736 36.4519 55.2436 35.1889C55.2346 34.9119 55.1996 34.6379 55.2046 34.3589C55.2596 33.3019 55.5206 32.9799 56.2376 32.8789C56.4026 32.8559 56.5696 32.8179 56.7316 32.8169C57.2796 32.8179 57.6796 33.2889 57.7656 33.9849C58.0126 36.0749 58.0386 38.3179 58.0276 40.5909C58.0216 42.2879 58.0156 43.9929 58.0096 45.6949L57.9476 45.6989Z" fill="#231F20"/>
<path fill-rule="evenodd" clip-rule="evenodd" d="M76.0397 112.409C76.0727 110.92 76.0957 109.427 76.0907 107.932C76.1007 107.387 76.0377 106.844 76.0507 106.298C76.0947 104.37 76.1397 102.438 76.1357 100.507C76.1327 99.6513 76.0797 98.7903 76.0227 97.9413C75.9467 96.8443 75.9197 95.7523 76.1887 94.6023C76.2777 94.2453 76.5497 94.3463 76.8497 94.6523C77.1317 94.9533 77.5187 95.4443 77.6297 96.0543C77.8587 97.1313 77.9237 98.2313 77.9767 99.3383C78.0357 100.446 78.0567 101.56 78.0217 102.686C77.9747 104.033 78.1867 105.419 78.2587 106.792C78.3437 108.302 78.3367 109.818 78.3567 111.333L78.3687 114.133C78.3757 115.547 78.3287 116.968 78.3567 118.377C78.3647 119.474 78.5267 120.552 78.5507 121.666C78.5587 121.911 78.5907 122.153 78.5867 122.399C78.5207 123.331 78.2917 123.604 77.6167 123.687C77.4617 123.706 77.3057 123.738 77.1537 123.737C76.6407 123.731 76.2637 123.311 76.1807 122.692C75.9527 120.846 75.9587 118.892 75.9617 116.894C75.9687 115.405 75.9747 113.907 75.9807 112.413L76.0397 112.409Z" fill="#231F20"/>
<path fill-rule="evenodd" clip-rule="evenodd" d="M50.5659 55.9783C49.6719 55.9533 48.7779 55.9283 47.8859 55.9043C47.5599 55.8993 47.2379 55.9613 46.9109 55.9503C45.7549 55.9013 44.5989 55.8523 43.4359 55.7703C42.9189 55.7353 42.4049 55.7673 41.8849 55.7793C41.2159 55.7953 40.5549 55.9193 39.7639 55.5053C39.5129 55.3653 39.7719 54.9953 40.0479 54.6173C40.1979 54.4243 40.2869 54.2413 40.4339 54.0833C40.5829 53.9273 40.7249 53.8203 40.8739 53.8193C42.0559 53.7643 43.3619 53.6493 44.6829 53.8233C45.4789 53.9333 46.2919 53.7593 47.1019 53.7213C47.9949 53.6933 48.8919 53.6643 49.7869 53.6363C50.3389 53.6193 50.8939 53.6033 51.4449 53.5863C52.2829 53.5503 53.1259 53.5503 53.9629 53.4623C54.6179 53.4053 55.2179 53.1513 56.0279 53.0983C56.2009 53.0893 56.3779 53.0603 56.5639 53.0823C57.2429 53.1453 57.5309 53.6003 57.2849 54.2633C57.2269 54.4113 57.1589 54.5593 57.0489 54.6613L56.9679 54.7353L56.9169 54.7773C56.8699 54.8253 56.7679 54.9323 56.6459 55.1213C56.5619 55.2403 56.5469 55.2913 56.5199 55.3203C56.4949 55.3583 56.4719 55.3943 56.4419 55.4253C56.3919 55.4863 56.3269 55.5433 56.2689 55.5693C55.8759 55.6963 55.5069 55.7823 54.9619 55.8693C54.4089 55.9423 53.8249 55.9773 53.2359 55.9993C52.3619 56.0333 51.4659 56.0203 50.5719 56.0383L50.5659 55.9783Z" fill="#231F20"/>
<path fill-rule="evenodd" clip-rule="evenodd" d="M58.6213 96.1768L58.5913 98.9068L58.5873 100.269L58.5913 100.947L58.6303 102.165L58.4633 102.748L58.3813 103.038L58.3603 103.11L58.3553 103.128L58.3543 103.133L58.3533 103.135C58.3783 103.156 58.1403 102.961 58.2413 103.043L58.2403 103.044V103.045L58.2353 103.054L58.2153 103.086L58.1363 103.198C58.0853 103.273 58.0253 103.344 57.9613 103.414C57.8693 103.458 57.7793 103.504 57.6653 103.529C57.4543 103.593 57.2063 103.621 56.9603 103.638L55.2333 103.737C54.7923 103.759 54.3543 103.777 53.9153 103.777C50.8253 103.768 47.7503 103.685 44.6743 103.65C43.3093 103.633 41.9393 103.672 40.5863 103.718C38.8483 103.785 37.1033 103.85 35.3593 103.65C34.8123 103.582 34.8893 103.186 35.3433 102.773C35.7983 102.364 36.6343 101.907 37.6323 101.834C39.4023 101.686 41.1743 101.665 42.9493 101.666C44.7253 101.665 46.5043 101.699 48.2933 101.782C50.4323 101.88 52.6543 101.716 54.8253 101.645C55.3483 101.629 56.0413 101.595 56.0903 101.604C56.1903 101.602 56.2943 101.602 56.4003 101.588C56.4863 101.548 56.4243 101.41 56.4433 101.32L56.3953 97.7988L56.3763 93.3438C56.3633 91.0978 56.4003 88.8418 56.3443 86.6118C56.3023 84.8788 56.1213 83.1808 56.0193 81.4608C55.9953 81.0818 55.9543 80.7098 55.9443 80.3268C55.9453 78.9078 56.2153 78.4458 56.8123 78.1698C56.9523 78.1068 57.0903 78.0228 57.2253 77.9908C57.6833 77.8908 58.0343 78.4588 58.2363 79.4818C58.6593 82.5138 58.6703 85.7318 58.6933 88.9608C58.6883 91.3588 58.6833 93.7678 58.6773 96.1728L58.6213 96.1768Z" fill="#231F20"/>
<path fill-rule="evenodd" clip-rule="evenodd" d="M92.5017 23.2296C93.1597 22.8336 93.9627 22.9616 94.2957 23.5146C95.9467 26.2576 89.0757 25.2906 92.5017 23.2296" fill="#231F20"/>
<path fill-rule="evenodd" clip-rule="evenodd" d="M103.911 103.57C102.796 103.521 101.678 103.475 100.559 103.455C100.151 103.448 99.7471 103.503 99.3391 103.491C97.9001 103.457 96.4551 103.371 95.0131 103.358C94.3741 103.351 93.7331 103.396 93.1011 103.448C92.2881 103.534 91.4801 103.629 90.6301 103.432C90.3661 103.373 90.4091 103.047 90.6161 102.693C90.8201 102.347 91.1811 101.93 91.6401 101.831C93.2721 101.594 94.9341 101.502 96.6181 101.595C97.6261 101.655 98.6611 101.491 99.6881 101.456C100.816 101.418 101.946 101.404 103.078 101.394L105.166 101.378C106.22 101.361 107.281 101.387 108.33 101.328C109.147 101.283 109.945 101.096 110.775 101.001C110.957 100.979 111.136 100.934 111.321 100.924C112.017 100.912 112.237 101.102 112.314 101.778C112.332 101.932 112.359 102.087 112.362 102.24C112.369 102.762 112.065 103.17 111.611 103.282C110.242 103.633 108.768 103.668 107.273 103.668C106.157 103.653 105.035 103.639 103.915 103.625L103.911 103.57Z" fill="#231F20"/>
<path fill-rule="evenodd" clip-rule="evenodd" d="M51.4343 56.9065C50.6603 56.8635 49.8813 56.8205 49.1033 56.8005C48.8193 56.7925 48.5403 56.8515 48.2563 56.8385C47.2513 56.7795 46.2373 56.7195 45.2363 56.6605C44.7883 56.6355 44.3443 56.6715 43.9023 56.7085C43.3383 56.7615 42.7653 56.8825 42.1863 56.6845C41.8303 56.5715 42.2563 54.9295 42.8683 54.8155C43.9813 54.6585 45.1083 54.5395 46.2763 54.7055C46.9763 54.8135 47.6843 54.6435 48.3923 54.6135C49.1713 54.5935 49.9543 54.5745 50.7353 54.5565C51.2183 54.5475 51.7033 54.5375 52.1833 54.5285C52.9153 54.5045 53.6513 54.5175 54.3833 54.4415C54.6703 54.4105 54.9453 54.3465 55.2433 54.2735C55.5573 54.2035 55.8843 54.1405 56.2333 54.1235C56.3873 54.1165 56.5463 54.0915 56.7113 54.1145C57.3183 54.1815 57.5763 54.6275 57.2993 55.2745C57.2333 55.4175 57.1603 55.5625 57.0503 55.6615L56.9683 55.7355L56.9233 55.7715C56.8833 55.8115 56.7933 55.9015 56.6883 56.0605C56.6373 56.1285 56.5483 56.2675 56.5243 56.3215C56.4993 56.3595 56.4763 56.3955 56.4533 56.4295C56.4033 56.4935 56.3553 56.5525 56.3023 56.5805C55.9933 56.7185 55.6153 56.7935 55.2363 56.8605C54.7663 56.9305 54.2613 56.9505 53.7513 56.9665C52.9953 56.9865 52.2163 56.9615 51.4403 56.9665L51.4343 56.9065Z" fill="#231F20"/>
</svg>
