<svg width="148" height="148" viewBox="0 0 148 148" fill="none" xmlns="http://www.w3.org/2000/svg">
<path fill-rule="evenodd" clip-rule="evenodd" d="M51.4697 79.4356C53.5067 81.1106 55.0987 83.3196 55.9377 85.8066C56.2637 86.7036 56.5077 87.6386 56.6157 88.5896C56.7327 89.4296 56.7067 90.2776 56.6577 91.1206L56.4457 92.3716C56.3707 92.7866 56.2237 93.1856 56.1137 93.5906C55.5577 95.1816 54.6557 96.6306 53.5197 97.8466C52.5147 98.9296 51.3127 99.8276 50.0257 100.517C48.3757 101.395 46.5257 102 44.6447 101.999C44.0597 102.011 44.1407 101.854 44.6077 101.646C45.0777 101.451 45.9077 101.144 46.8837 100.873C50.3527 99.9326 53.4597 97.5456 54.9487 94.2236C55.4057 93.2356 55.6207 92.1406 55.7477 91.0386C55.7857 89.9276 55.7557 88.7986 55.4927 87.7116C55.0047 85.3046 53.7657 83.0576 52.0527 81.2756C50.9937 80.1846 49.7547 79.2616 48.3767 78.6056C47.3137 78.1736 46.2067 77.7836 45.0517 77.7016C44.7637 77.6786 44.4767 77.6306 44.1887 77.6286L43.3247 77.6656C42.7517 77.6716 42.1667 77.7726 41.5967 77.8696C39.8167 78.1826 38.1477 78.7986 36.6267 79.7026C36.2907 79.8986 35.9717 80.1096 35.6407 80.3246C35.0287 80.7246 34.6337 81.0046 34.3287 81.1656C34.0157 81.3146 33.8167 81.3786 33.6287 81.3936C33.5427 81.4006 33.4397 81.4236 33.3807 81.4146C33.1947 81.4066 33.5547 80.8786 34.4227 80.1926C35.7127 79.1876 37.1997 78.2816 38.8537 77.7016C39.6767 77.4076 40.5297 77.1886 41.3907 77.0266C41.8217 76.9446 42.2547 76.8826 42.6877 76.8236L44.0407 76.7486C46.7407 76.7216 49.3917 77.7736 51.4827 79.4146L51.4697 79.4356Z" fill="#231F20"/>
<path fill-rule="evenodd" clip-rule="evenodd" d="M111.774 103.514C110.607 103.489 109.456 103.356 108.318 103.155C107.749 103.054 107.184 102.932 106.622 102.789C106.341 102.716 106.061 102.638 105.78 102.547L105.452 102.431C105.423 102.418 105.391 102.406 105.365 102.383C105.351 102.354 105.357 102.417 105.353 102.431L105.352 102.44C105.33 102.436 105.374 103.051 105.399 103.418C105.457 103.836 105.492 104.254 105.567 104.673C106.054 107.679 106.781 110.678 107.356 113.699C107.601 115.043 107.866 116.391 108.068 117.734C108.358 119.452 108.54 121.204 108.496 122.951C108.495 123.495 108.451 123.422 108.352 122.968C108.29 122.666 108.224 122.342 108.161 122.032C108.103 121.643 107.928 121.198 107.887 120.704C107.432 117.207 106.693 113.755 106.023 110.239C105.629 108.135 105.072 105.973 104.836 103.761C104.8 103.498 104.79 103.229 104.78 102.959L104.764 102.552L104.8 101.926C104.889 101.911 105.056 101.829 105.079 101.866C105.106 101.882 105.151 101.895 105.203 101.908C105.229 101.909 105.253 101.935 105.281 101.914L105.366 101.832C105.409 101.734 105.517 101.847 105.594 101.86C105.693 101.903 105.716 101.905 105.775 101.927C105.978 101.995 106.182 102.057 106.391 102.113C106.808 102.227 107.231 102.324 107.657 102.409C108.51 102.58 109.373 102.705 110.238 102.783C111.696 102.906 113.173 102.924 114.588 102.579C116.755 102.13 118.871 101.27 120.569 99.8943C121.231 99.3623 121.786 98.7273 122.283 98.0623C122.739 97.3673 123.165 96.6523 123.447 95.8673C123.6 95.5343 123.674 95.1793 123.794 94.8313C124.155 93.5113 124.226 93.0783 124.486 92.8123C124.542 92.7513 124.602 92.6673 124.653 92.6343C124.81 92.5143 124.9 93.1123 124.716 94.1593C124.426 95.7003 123.823 97.2713 122.818 98.6143C121.811 99.9473 120.48 101.076 118.969 101.819C117.857 102.389 116.676 102.807 115.475 103.097C114.29 103.396 113.006 103.573 111.777 103.531L111.774 103.514Z" fill="#231F20"/>
<path fill-rule="evenodd" clip-rule="evenodd" d="M54.7223 130.362C44.5493 132.792 26.9403 131.387 24.4653 129.274C21.6413 126.862 32.5803 124.801 32.5803 124.801C32.5803 124.801 33.9323 129.881 39.8413 130.12C45.7503 130.36 54.7223 130.362 54.7223 130.362" fill="#231F20"/>
<path fill-rule="evenodd" clip-rule="evenodd" d="M100.614 129.726C94.0973 131.188 75.8543 133.137 71.9803 129.669C69.5493 127.493 83.2083 125.69 83.2083 125.69C83.2083 125.69 80.6273 127.95 81.0863 128.466C81.5443 128.981 100.614 129.726 100.614 129.726" fill="#231F20"/>
<path fill-rule="evenodd" clip-rule="evenodd" d="M67.7037 35.1781C63.4477 35.8231 59.6887 39.3121 59.0697 43.6891C58.7847 45.2741 58.9117 46.9111 59.2247 48.5171C59.4587 49.6861 59.8187 50.8451 60.2917 51.9671C60.5357 52.5261 60.7987 53.0761 61.0737 53.6251L61.2917 54.0301C61.3957 54.2191 61.5527 54.4891 61.6897 54.7111C62.0037 55.1721 62.2917 55.6271 62.6357 56.0811L63.0967 56.9721L63.1397 57.5761L63.1607 57.8061C63.2037 57.8721 63.0977 58.0111 63.0247 58.0511C62.8717 58.1651 62.7067 58.2621 62.4857 58.3451C62.2517 58.4161 62.0097 58.4991 61.6847 58.5301C61.3747 58.5711 60.9897 58.5521 60.6187 58.5381C59.8857 58.4961 59.0547 58.4391 58.4117 58.3661C56.5577 58.1541 54.7117 57.9831 52.8627 57.8431C50.0737 57.6281 47.2657 57.5151 44.5027 57.5241C42.7287 57.5341 40.9537 57.6021 39.2027 57.7601C38.3277 57.8351 37.4537 57.9011 36.5987 58.0391C36.1727 58.1081 35.7497 58.1901 35.3407 58.2981C34.9327 58.4041 34.4947 58.4471 34.1207 58.6361C33.6637 58.8681 33.5017 59.0291 33.4597 58.9761C33.4297 58.9351 33.5277 58.6681 33.8767 58.2991C34.2247 57.9561 34.7687 57.3661 35.5687 57.0211C36.3517 56.6351 37.3097 56.3041 38.3587 56.1001C42.0947 55.5371 45.7907 55.5181 49.4767 55.5691C51.3197 55.6051 53.1597 55.6831 54.9957 55.7911C55.9127 55.8521 56.8307 55.8961 57.7477 55.9391L58.4337 55.9751L58.6057 55.9851C58.6437 55.9871 58.6357 55.9951 58.6527 55.9991C58.6757 55.9981 58.6997 56.0071 58.7247 56.0121L59.0737 56.0911C59.2347 56.1131 59.4727 56.1841 59.6207 56.1321L59.3517 55.7291C59.3097 55.6291 59.2327 55.5201 59.1707 55.4101C59.1707 55.4101 59.0207 55.1521 58.9177 54.9811L58.6047 54.4101C58.1887 53.6471 57.8417 52.8431 57.5177 52.0281C56.8877 50.3911 56.4537 48.6471 56.3457 46.8661C56.2977 45.5291 56.3237 44.1681 56.6437 42.8531C56.7467 42.1851 57.0107 41.5571 57.1917 40.9111C57.4427 40.2751 57.7177 39.6481 58.0657 39.0651C59.4177 36.7061 61.5177 34.8481 63.9437 33.7311C65.4367 33.0111 67.0847 32.6971 68.6487 32.5321C70.2387 32.3691 71.8567 32.4031 73.4407 32.6811C75.8427 33.0881 78.1617 34.1261 80.0497 35.7041C81.9177 37.3001 83.3337 39.4441 83.9957 41.7971C85.1047 45.4511 84.6437 49.3511 83.2947 52.7861C83.0127 53.5551 82.6797 54.2781 82.3157 55.0171C81.5417 56.3261 80.8957 57.0931 80.3747 57.5731C79.8577 58.0541 79.4137 58.2151 78.9937 58.2881C78.8057 58.3241 78.6037 58.4041 78.4767 58.4081C78.0717 58.4421 78.3877 57.1781 79.2537 55.3291C79.8647 53.9371 80.4947 52.5751 80.9677 51.1601C81.4277 49.7431 81.7327 48.2911 81.8347 46.8461C82.1197 43.9661 81.4027 41.0581 79.6297 38.8551C78.3297 37.2111 76.4437 36.0191 74.3407 35.4431C72.2437 34.8371 69.9467 34.8211 67.7207 35.2391L67.7037 35.1781Z" fill="#231F20"/>
<path fill-rule="evenodd" clip-rule="evenodd" d="M108.495 60.0956C108.536 59.8956 108.533 59.9416 108.547 59.8886C108.557 59.8576 108.563 59.8526 108.572 59.8316C108.593 59.7946 108.607 59.7486 108.561 59.7346C108.524 59.7096 108.511 59.6916 108.437 59.6546L107.63 59.3616C106.548 58.9726 105.401 58.6866 104.246 58.4336C103.394 58.2706 102.534 58.1686 101.672 58.0476C98.6382 57.5766 95.5322 57.3726 92.4332 57.4276C91.0582 57.4516 89.6802 57.5946 88.3302 57.7676C86.5922 58.0026 84.9052 58.4476 83.1492 58.5926C82.5982 58.6296 82.5672 58.2796 82.9192 57.7706C83.0962 57.5146 83.3682 57.2146 83.7222 56.9156C84.0782 56.6236 84.5342 56.4306 85.0462 56.3026C88.6872 55.4236 92.4292 55.2066 96.1452 55.5226C98.3652 55.7066 100.68 55.7416 102.944 56.0816C104.186 56.2786 105.425 56.5106 106.653 56.8326C107.266 57.0026 107.88 57.1586 108.485 57.3836L108.939 57.5396L109.166 57.6176L109.467 57.7456C109.88 57.9306 110.285 58.1626 110.639 58.3986C110.69 58.6406 110.829 58.8276 110.848 59.0886C110.894 59.3386 110.807 59.6466 110.762 59.9176L110.486 61.1716L109.992 63.3856C109.511 65.6176 109.04 67.8636 108.753 70.1046C108.53 71.8466 108.483 73.5706 108.482 75.2816C108.493 75.6556 108.504 76.0246 108.515 76.4016C108.537 77.7936 108.466 78.2186 107.98 78.5736C107.87 78.6536 107.764 78.7576 107.651 78.8116C107.283 79.0006 106.867 78.4306 106.705 77.3316C106.259 74.0826 106.598 70.7066 107.083 67.3966C107.447 64.9376 107.963 62.4866 108.44 60.0886L108.495 60.0956Z" fill="#231F20"/>
<path fill-rule="evenodd" clip-rule="evenodd" d="M39.6587 77.6503C41.8697 77.0973 44.3997 76.9913 46.7327 77.6593C49.0697 78.3233 51.1367 79.7363 52.6827 81.5263C53.8047 82.8393 54.7237 84.3313 55.2667 85.9653C55.7587 87.4023 55.9367 88.9263 55.9157 90.4263C55.8897 91.9383 55.5107 93.4023 54.9977 94.8153C53.8297 97.5893 51.6797 99.8363 49.1307 101.21C46.8657 102.432 44.2947 103.075 41.7487 103.029C38.4897 103.037 35.1407 101.793 32.8717 99.4713C32.1427 98.7703 32.5367 98.5873 33.4447 98.7493C33.9087 98.8123 34.4537 99.0273 35.1277 99.1903C35.8157 99.3313 36.4917 99.6453 37.2527 99.9143C39.8807 101.054 42.8527 101.14 45.5807 100.378C46.9327 99.9453 48.2217 99.3263 49.3757 98.4953C50.4927 97.6213 51.4687 96.5833 52.2407 95.3853C54.0017 92.4653 53.9217 88.4093 52.2877 85.3083C51.4017 83.5873 50.0667 82.0953 48.4217 81.0763C46.7627 80.0833 44.8087 79.6113 42.8467 79.7123C40.3877 79.8023 37.9177 80.5983 35.6797 81.7933C35.2567 82.0193 34.8387 82.2593 34.4257 82.5083L33.6187 83.0243L32.7177 83.6463L32.0827 83.9783C31.8677 84.0933 31.7497 84.0643 31.5787 84.1163C31.2607 84.1163 31.0747 83.7823 30.9327 83.3843C30.7807 82.9813 30.7247 82.4173 30.6667 81.8873L30.5417 80.4303C30.4317 78.9213 30.3507 77.4193 30.2777 75.9223C30.1347 72.8263 29.9437 69.7893 30.0197 66.6903C30.0377 66.0073 30.0477 65.3363 30.1087 64.6433C30.2267 63.3603 30.3967 62.5023 30.6487 61.9253C30.9357 61.3583 31.2257 61.0623 31.5607 60.8823C31.7127 60.7993 31.8817 60.6883 32.0087 60.6653C32.2287 60.6313 32.3007 60.8703 32.3397 61.3203C32.3727 61.7743 32.4337 62.4623 32.3417 63.3333C32.1657 65.9433 32.2367 68.7123 32.3257 71.5063C32.4287 74.3033 32.5797 77.1553 32.8207 79.9813L32.8757 80.6023L32.8717 80.6073C32.8687 80.6123 32.8667 80.6313 32.8757 80.6163C32.8777 80.6333 32.8827 80.6243 32.8877 80.6233C32.9087 80.6103 32.8577 80.6473 32.9387 80.5943L33.1637 80.4503L33.6207 80.1673C34.2377 79.7993 34.8647 79.4423 35.5197 79.1253C36.8197 78.4783 38.2047 77.9563 39.6377 77.5913L39.6587 77.6503Z" fill="#231F20"/>
<path fill-rule="evenodd" clip-rule="evenodd" d="M61.0164 127.715L61.0064 127.689L60.9864 127.634C60.9864 127.634 60.9714 127.597 60.9834 127.623L60.8434 127.316C60.6454 126.903 60.4794 126.473 60.3094 126.047C59.9884 125.185 59.7024 124.306 59.5054 123.397C59.0824 121.59 58.9674 119.685 59.2044 117.805C59.7064 114.02 61.8464 110.566 64.9304 108.4C66.0664 107.603 67.4004 106.958 68.7274 106.616C70.0564 106.246 71.4334 106.059 72.8084 106.079C75.2274 106.132 77.6654 106.757 79.7384 108.069C81.8324 109.331 83.4714 111.363 84.3394 113.611C85.1884 115.855 85.5114 118.235 85.3344 120.583C85.2474 121.756 85.0524 122.928 84.6684 124.053C84.4764 124.613 84.2744 125.175 83.9934 125.703C83.8534 125.967 83.7374 126.242 83.5654 126.49L83.3244 126.87C83.2554 126.974 83.1374 127.173 83.1124 127.19L82.8934 127.459C82.8424 127.55 82.7424 127.622 82.6694 127.706C82.6114 127.772 82.4274 127.9 82.6084 127.927C82.8214 127.991 83.0454 128.019 83.2694 128.05L84.3314 128.174L85.7174 128.304C87.5684 128.46 89.4244 128.56 91.2684 128.623C93.7894 128.712 96.3164 128.7 98.8354 128.644C101.345 128.574 103.89 128.512 106.298 127.964C107.04 127.781 107.347 127.674 107.368 127.766C107.383 127.845 107.085 128.119 106.465 128.424C105.233 129.048 102.767 129.757 99.8234 130.032C96.5064 130.341 93.1934 130.312 89.8814 130.245C88.2244 130.2 86.5674 130.125 84.9024 129.999L83.6494 129.89L82.6994 129.787C82.3004 129.74 81.9014 129.68 81.5264 129.605C80.7344 129.454 80.3784 129.103 80.2174 128.722C80.1424 128.584 80.2034 128.5 80.2144 128.382L80.2744 128.055L80.3364 127.728C80.3494 127.673 80.3534 127.621 80.3724 127.564L80.5994 127.322L81.4734 126.257C81.6604 126.04 81.6454 126.016 81.7164 125.91L81.8774 125.644C82.1104 125.301 82.2614 124.901 82.4504 124.527C82.7674 123.74 83.0164 122.915 83.1784 122.06C83.4984 120.353 83.5274 118.547 83.2234 116.804C82.9744 115.382 82.5124 113.958 81.7594 112.754C80.9944 111.548 79.9234 110.533 78.6734 109.79C76.1674 108.28 73.0014 107.91 70.1264 108.527C66.9284 109.085 64.2584 111.323 62.7194 114.186C61.9634 115.617 61.5214 117.198 61.4024 118.823C61.3034 120.448 61.4974 122.11 61.9694 123.708C62.1454 124.351 62.3764 124.983 62.6314 125.604C62.7504 125.919 62.9004 126.221 63.0394 126.528C63.2274 126.951 63.5394 127.47 63.7824 127.933C63.9514 128.205 63.9494 128.376 63.9834 128.567L64.0804 129.136L64.0924 129.207L64.0954 129.225L64.0964 129.229C64.2344 129.296 63.9094 129.141 63.9424 129.158L63.9414 129.161L63.9394 129.172C63.9364 129.186 63.9284 129.193 63.9234 129.204L63.8484 129.305L63.6914 129.503C63.5654 129.63 63.3614 129.721 63.1134 129.784C62.6244 129.915 62.0604 129.981 61.5214 130.057L60.3044 130.205C58.8444 130.369 57.3884 130.506 55.9304 130.625C52.6554 130.89 49.3664 131.062 46.0684 131.084C44.4204 131.091 42.7694 131.064 41.1144 130.946C40.2864 130.888 39.4574 130.804 38.6244 130.676C37.7874 130.528 36.9674 130.402 36.0944 130.018C34.6994 129.43 33.7854 128.237 33.1254 127.082C32.4644 125.9 32.0554 124.65 31.7224 123.402C31.0754 120.897 30.7964 118.364 30.6654 115.83C30.6084 114.713 30.5924 113.62 30.6204 112.496C30.7524 108.33 31.2264 107.025 31.8634 106.21C32.0134 106.025 32.1714 105.778 32.3064 105.687C32.5344 105.539 32.6434 105.865 32.7304 106.609C32.8124 107.354 32.8934 108.519 32.8794 110C32.8704 112.199 33.0084 114.423 33.1534 116.638C33.3184 118.85 33.5984 121.073 34.1494 123.155C34.6784 125.196 35.6584 127.231 36.9614 127.827C37.2224 127.972 37.7674 128.116 38.2574 128.217C38.7654 128.323 39.3054 128.402 39.8534 128.465C40.9534 128.592 42.0924 128.655 43.2384 128.689C46.6494 128.78 50.1294 128.639 53.5984 128.412C55.3334 128.295 57.0704 128.151 58.7974 127.974L60.8644 127.744C60.8964 127.74 60.9904 127.752 60.9414 127.698L61.0164 127.715Z" fill="#231F20"/>
<path fill-rule="evenodd" clip-rule="evenodd" d="M123.971 95.7168C123.562 96.7348 123.038 97.7128 122.364 98.6058C121.692 99.5138 120.873 100.279 119.992 100.928C118.212 102.244 116.045 102.965 113.922 103.137C112.372 103.297 110.82 103.255 109.323 102.99C108.662 102.873 108.012 102.724 107.371 102.55L106.893 102.415L106.656 102.344L106.545 102.31L106.512 102.298L106.241 102.191C106.15 102.162 106.041 102.091 105.95 102.099C105.941 102.19 105.924 102.286 105.92 102.386L105.924 102.702L106.027 103.495C106.399 105.935 107.041 108.426 107.521 110.936C107.955 113.168 108.393 115.422 108.682 117.679C108.865 119.129 109.016 120.597 108.962 122.074L108.931 123.18L108.736 124.279C108.62 125.008 108.458 125.728 108.272 126.438C108.041 127.323 107.932 127.166 107.806 126.38C107.732 125.986 107.685 125.442 107.563 124.792C107.488 124.454 107.411 124.107 107.331 123.747C107.287 123.563 107.266 123.375 107.209 123.183C107.191 122.99 107.174 122.795 107.155 122.594C106.929 119.766 106.596 116.935 106.022 114.095C105.454 111.258 104.807 108.399 104.327 105.42C104.258 104.969 104.187 104.517 104.117 104.064L104.029 103.365L103.98 102.995C103.95 102.83 103.95 102.625 103.947 102.45C103.95 101.736 103.824 100.904 104.118 100.479L104.266 100.091C104.406 100.062 104.463 99.9448 104.557 99.9038C104.772 99.8408 105.052 99.8158 105.396 99.8788C105.742 99.9478 106.122 100.092 106.486 100.211L107.381 100.491C107.803 100.613 108.226 100.726 108.651 100.823C109.501 101.02 110.357 101.166 111.211 101.248C113.085 101.445 114.991 101.259 116.686 100.548C118.371 99.8558 119.885 98.6398 120.891 97.1258C122.141 95.2328 122.799 92.8798 122.732 90.5888C122.674 88.8488 122.241 87.0998 121.383 85.5938C120.544 84.0728 119.251 82.8698 117.714 82.1118C115.303 80.9298 112.503 80.9668 109.923 81.5498C109.348 81.6708 108.802 81.8618 108.236 82.0318C107.187 82.3548 106.514 82.6168 105.995 82.7038C105.469 82.7778 105.119 82.7378 104.749 82.5498C104.581 82.4668 104.379 82.4038 104.25 82.3028C104.033 82.1328 104.088 81.8518 104.397 81.4818C104.704 81.1098 105.274 80.6608 106.101 80.2788C108.54 79.1318 111.37 78.4638 114.336 78.7178C117.273 78.9498 120.406 80.2948 122.391 82.8338C125.301 86.5588 125.648 91.6248 124.023 95.7298L123.971 95.7168Z" fill="#231F20"/>
<path fill-rule="evenodd" clip-rule="evenodd" d="M104.819 41.3693C104.78 41.5683 104.522 41.4853 104.132 41.2433C104.007 41.1653 103.72 40.8473 103.714 40.7703C103.7 40.6203 103.69 40.4713 103.703 40.3463C103.712 40.2693 104.231 39.4783 104.389 39.1973C104.545 38.9233 104.744 38.7033 104.954 38.4953C105.377 38.0723 105.778 37.6343 106.169 37.2063C106.256 37.1113 106.362 37.0353 106.479 36.9733C106.885 36.7613 107.187 36.4393 107.428 36.0793C107.468 36.0203 107.527 35.9733 107.51 35.8683C107.503 35.6993 108.173 34.8013 108.3 34.7183C108.626 34.5123 108.906 34.2663 109.233 34.0373C109.28 34.0043 109.281 33.9413 109.39 33.9483C109.643 33.9633 109.665 33.8433 109.752 33.7583C109.872 33.6403 109.981 33.5153 110.127 33.4043C110.199 33.3493 110.34 33.3263 110.459 33.2883C110.567 33.2543 110.804 33.3993 110.822 33.4373C110.872 33.5433 111.022 33.5403 111.132 33.5793C111.17 33.5933 111.219 33.6103 111.247 33.6263C111.293 33.6363 111.457 34.9103 111.373 35.0213C111.37 35.0273 111.334 35.1283 111.279 35.2793C111.221 35.4283 111.144 35.6253 111.064 35.8293C110.868 36.2003 110.662 36.5873 110.609 36.6863C110.57 36.7743 110.468 36.8183 110.384 36.8723C110.359 36.9113 109.68 37.9823 109.634 38.0103C109.442 38.1863 109.315 38.4193 108.994 38.4653C108.931 38.4733 108.902 38.5173 108.869 38.5563C108.578 38.8803 108.209 39.1213 107.86 39.3713C107.681 39.5003 107.536 39.6603 107.373 39.8023C107.343 39.8273 107.295 39.8333 107.257 39.8493C107.21 39.8693 107.155 39.8833 107.12 39.9163C106.751 40.2643 106.299 40.5163 105.974 40.8993C105.897 40.9873 105.342 41.1853 105.262 41.2933C105.215 41.3513 104.834 41.2883 104.819 41.3693" fill="#231F20"/>
<path fill-rule="evenodd" clip-rule="evenodd" d="M71.1623 16.3316C71.0623 16.1416 71.3273 16.0396 71.8083 16.0006C71.9613 15.9886 72.4063 16.0776 72.4613 16.1336C72.5703 16.2456 72.6743 16.3546 72.7443 16.4586C72.7803 16.5216 72.8743 17.4246 72.9403 17.7336C72.9953 18.0316 72.9893 18.3256 72.9623 18.6156C72.9183 19.2086 72.9033 19.8066 72.8803 20.4066C72.8753 20.5396 72.8463 20.6716 72.7963 20.8026C72.6263 21.2506 72.5983 21.7106 72.6233 22.1726C72.6273 22.2496 72.6113 22.3286 72.6843 22.4056C72.8033 22.5326 72.7743 23.7846 72.7113 23.9456C72.5583 24.3446 72.4523 24.7466 72.2903 25.1476C72.2683 25.2056 72.2923 25.2676 72.1993 25.3176C71.9843 25.4346 72.0103 25.5606 71.9853 25.6856C71.9663 25.8596 71.8743 26.0316 71.7743 26.2026C71.7273 26.2876 71.5983 26.3696 71.5103 26.4516C71.4273 26.5256 71.2163 26.4776 71.1873 26.4496C71.1143 26.3686 71.0013 26.4286 70.9083 26.4326C70.8763 26.4346 70.8343 26.4356 70.8073 26.4316C70.7743 26.4266 70.5983 26.1676 70.4063 25.8966C70.2353 25.6266 70.1163 25.3446 70.1093 25.2896C70.1073 25.2766 70.0533 24.9036 69.9963 24.5066C69.9643 24.1136 69.9303 23.7016 69.9133 23.6176C69.8953 23.5286 69.9493 23.4426 69.9833 23.3556C69.9973 23.3156 69.8803 22.1266 69.8903 22.0786C69.9263 21.8346 69.8623 21.5836 70.0603 21.3496C70.1003 21.3036 70.0923 21.2526 70.0923 21.2046C70.0883 20.7796 70.1873 20.3616 70.2663 19.9416C70.3053 19.7276 70.2993 19.5086 70.3193 19.2926C70.3223 19.2536 70.3533 19.2166 70.3693 19.1786C70.3883 19.1306 70.4173 19.0836 70.4203 19.0346C70.4473 18.5186 70.5993 18.0166 70.5813 17.4906C70.5763 17.3696 70.8663 16.8306 70.8603 16.6896C70.8553 16.6096 71.2003 16.4076 71.1623 16.3316" fill="#231F20"/>
<path fill-rule="evenodd" clip-rule="evenodd" d="M99.9373 58.2272C98.7263 58.1162 97.5083 58.0032 96.2843 57.9762C95.8363 57.9772 95.3943 57.9772 94.9453 57.9772C93.3713 57.9592 91.7923 58.0062 90.2163 58.1192C89.5193 58.1892 88.8173 58.2652 88.1313 58.3742C87.2453 58.4952 86.3773 58.7262 85.4723 58.7452C85.1893 58.7512 85.1943 58.5902 85.3933 58.3652C85.5903 58.1402 85.9793 57.8212 86.4943 57.7232C88.3103 57.3422 90.1593 57.1372 92.0293 57.1232C93.1463 57.1162 94.3023 57.0162 95.4443 57.0142C96.6993 57.0192 97.9553 57.0582 99.2063 57.1672C99.9773 57.2202 100.743 57.3342 101.51 57.4242C102.668 57.5982 103.825 57.8102 104.957 58.0842C105.838 58.2892 106.711 58.4822 107.565 58.7932L108.129 58.9932C108.812 59.3092 108.995 59.4862 109.022 59.7572C109.028 59.8192 109.044 59.8872 109.036 59.9412C109.007 60.1272 108.672 60.1242 108.191 59.9422C106.749 59.4262 105.18 59.0322 103.57 58.7402C102.378 58.5112 101.157 58.3692 99.9373 58.2522V58.2272Z" fill="#231F20"/>
<path fill-rule="evenodd" clip-rule="evenodd" d="M29.7071 32.7357C29.5031 32.7067 29.5681 32.4467 29.7881 32.0537C29.8581 31.9287 30.1621 31.6337 30.2391 31.6227C30.3891 31.6017 30.5371 31.5837 30.6641 31.5887C30.7401 31.5937 31.5661 32.0447 31.8641 32.1787C32.1511 32.3117 32.3881 32.4937 32.6161 32.6867L34.0231 33.8407C34.1261 33.9267 34.2131 34.0297 34.2831 34.1507C34.5271 34.5577 34.8491 34.8877 35.2191 35.1677C35.2801 35.2147 35.3281 35.2777 35.4381 35.2707C35.6201 35.2587 36.5381 36.1047 36.6121 36.2607C36.7981 36.6467 37.0251 36.9907 37.2341 37.3547C37.2641 37.4057 37.3301 37.4247 37.3021 37.5307C37.2361 37.7757 37.3491 37.8367 37.4251 37.9367C37.5311 38.0757 37.6291 38.2237 37.7011 38.3977C37.7361 38.4837 37.7101 38.6327 37.7021 38.7637C37.6951 38.8817 37.4401 39.0897 37.3961 39.0967C37.2691 39.1177 37.2081 39.2727 37.1201 39.3757C37.0901 39.4107 37.0511 39.4567 37.0231 39.4807C36.9661 39.5287 35.8181 39.2897 35.7411 39.2117C35.7311 39.2047 35.4341 38.9837 35.1171 38.7487C34.8021 38.5167 34.4701 38.2777 34.3951 38.2357C34.3171 38.1927 34.2901 38.0947 34.2501 38.0117C34.2301 37.9737 33.2571 37.3057 33.2271 37.2697C33.0701 37.0857 32.8361 36.9787 32.7981 36.6737C32.7911 36.6127 32.7481 36.5877 32.7101 36.5567C32.3891 36.2917 32.1571 35.9367 31.8981 35.6097C31.7661 35.4417 31.5991 35.3097 31.4511 35.1577C31.4251 35.1307 31.4181 35.0827 31.3991 35.0477C31.3771 35.0017 31.3611 34.9497 31.3261 34.9167C30.9581 34.5757 30.6751 34.1497 30.2661 33.8517C30.1721 33.7807 29.9311 33.2437 29.8161 33.1707C29.7531 33.1277 29.7891 32.7467 29.7071 32.7357" fill="#231F20"/>
</svg>
