<svg width="148" height="148" viewBox="0 0 148 148" fill="none" xmlns="http://www.w3.org/2000/svg">
<path fill-rule="evenodd" clip-rule="evenodd" d="M94.9701 39.8895C95.0631 39.1395 95.7461 38.6065 96.4951 38.6995C100.212 39.1585 94.4871 43.7925 94.9701 39.8895" fill="#231F20"/>
<path fill-rule="evenodd" clip-rule="evenodd" d="M78.607 131.468C74.397 131.729 70.18 131.932 65.945 131.962C64.401 131.973 62.848 131.98 61.304 131.923C55.932 131.71 50.494 131.594 45.088 131.201C42.689 131.018 40.273 130.851 37.894 130.551C36.366 130.364 34.836 130.131 33.315 129.809C32.563 129.611 31.797 129.45 31.065 129.17C30.338 128.862 29.609 128.579 28.939 128.144C28.092 127.637 28.318 127.567 29.144 127.699C29.941 127.915 31.443 127.914 33.093 128.325C36.057 128.992 39.143 129.302 42.229 129.552C45.321 129.794 48.436 129.946 51.571 130.096C55.312 130.276 59.257 130.184 63.09 130.253C67.287 130.271 71.511 130.107 75.727 129.841C78.322 129.676 80.92 129.491 83.511 129.266C87.438 128.93 91.385 128.572 95.275 128.12C98.299 127.77 101.25 127.302 104.234 126.883C104.891 126.788 105.534 126.696 106.196 126.601C108.657 126.295 109.461 126.353 110.042 126.822C110.174 126.929 110.346 127.032 110.428 127.146C110.705 127.53 109.734 127.968 107.946 128.269C102.638 129.178 97.002 129.853 91.324 130.427C87.107 130.854 82.861 131.207 78.616 131.513L78.607 131.468Z" fill="#231F20"/>
<path fill-rule="evenodd" clip-rule="evenodd" d="M80.1422 97.7283C77.9032 96.2373 75.5022 94.8703 73.0392 94.0413C70.6502 93.2113 68.0272 93.3923 65.5862 94.3133C63.7952 94.9733 62.1222 96.0063 60.4852 97.1053C59.0372 98.0783 57.6352 99.1533 56.2232 100.243C54.8042 101.345 53.3712 102.405 52.0102 103.522C49.2652 105.76 46.6492 108.172 44.0932 110.656C41.8312 112.863 39.6072 115.164 37.4522 117.441C34.6952 120.388 32.0702 123.453 29.3502 126.407C28.5182 127.339 28.3092 126.981 28.6372 125.876C28.9802 124.788 29.8312 122.903 31.3542 121.103C34.0882 117.957 36.9962 114.972 39.9172 112.048C42.8442 109.113 45.8562 106.211 49.0902 103.517C51.0132 101.898 53.0601 100.311 55.0431 98.7333C57.0441 97.1383 59.1091 95.5233 61.3731 94.1863C62.6281 93.4643 63.9492 92.8303 65.3412 92.3383C66.7482 91.8813 68.2292 91.6013 69.7332 91.5693C71.2412 91.5763 72.7312 91.8683 74.1362 92.3693C75.4952 92.8753 76.7862 93.5003 78.0442 94.1813C81.1382 95.8643 83.9562 97.9543 86.6262 100.179C90.6402 103.59 94.3652 107.293 98.1082 110.885C101.012 113.683 103.919 116.362 106.832 119.072C107.476 119.665 108.107 120.247 108.755 120.845C111.131 123.091 111.803 123.883 111.952 124.76C111.986 124.959 112.058 125.193 112.043 125.348C112 125.867 110.763 125.227 108.927 123.657C103.485 119.006 98.1941 113.671 92.7591 108.489C88.7111 104.653 84.6862 100.784 80.1212 97.7733L80.1422 97.7283Z" fill="#231F20"/>
<path fill-rule="evenodd" clip-rule="evenodd" d="M25.046 107.76C25.026 105.3 25.037 102.866 25.094 100.396C25.123 99.4959 25.102 98.5949 25.161 97.6989C25.351 94.5359 25.768 91.4129 26.064 88.2979C26.2 86.9149 26.266 85.5239 26.302 84.1509C26.321 82.3859 26.338 80.6239 26.49 78.8609C26.546 78.3109 26.898 78.3719 27.271 78.8339C27.642 79.2939 28.065 80.1629 28.116 81.1999C28.269 84.8799 27.846 88.5229 27.385 92.1369C27.097 94.3019 27.044 96.5629 26.946 98.7749C26.845 101.2 26.842 103.655 26.852 106.106C26.866 107.614 26.883 109.123 26.943 110.628C27.028 112.908 27.135 115.201 27.384 117.451C27.574 119.201 27.906 120.898 28.235 122.602C28.312 122.976 28.387 123.345 28.464 123.721C28.72 125.124 28.668 125.592 28.241 125.981C28.146 126.069 28.056 126.179 27.957 126.239C27.636 126.438 27.201 125.918 26.906 124.889C26.071 121.831 25.626 118.519 25.358 115.196C25.157 112.726 25.064 110.24 25 107.765L25.046 107.76Z" fill="#231F20"/>
<path fill-rule="evenodd" clip-rule="evenodd" d="M112.255 106.854C112.211 104.568 112.112 102.274 111.974 99.9765C111.924 99.1375 111.809 98.3035 111.762 97.4635C111.576 94.4955 111.52 91.4735 111.57 88.4975C111.597 87.1735 111.587 85.8445 111.583 84.5335C111.586 83.6915 111.549 82.8475 111.591 82.0045C111.644 81.1625 111.735 80.3215 111.876 79.4855C111.968 78.9635 112.267 79.0435 112.598 79.4955C112.922 79.9475 113.334 80.7705 113.429 81.7345C113.553 85.1495 113.566 88.5335 113.463 91.9615C113.399 94.0145 113.702 96.1205 113.868 98.2355C114.048 100.555 114.198 102.886 114.304 105.22C114.373 106.656 114.408 108.097 114.435 109.536C114.472 111.717 114.414 113.911 114.338 116.083C114.268 117.773 114.264 119.445 114.074 121.142C114.04 121.515 113.988 121.884 113.924 122.259C113.849 122.605 113.789 122.891 113.698 123.123C113.6 123.354 113.484 123.529 113.38 123.67C113.166 123.949 112.945 124.077 112.662 124.141C112.533 124.17 112.402 124.219 112.287 124.222C111.909 124.23 111.728 123.591 111.753 122.626C111.998 119.792 112.225 116.805 112.274 113.738C112.318 111.465 112.292 109.163 112.202 106.86L112.255 106.854Z" fill="#231F20"/>
<path fill-rule="evenodd" clip-rule="evenodd" d="M96.7677 82.0455C98.7137 80.8145 100.65 79.5675 102.542 78.2685C103.233 77.7945 103.88 77.2645 104.561 76.7835C105.76 75.9335 106.949 75.0695 108.068 74.1525C108.623 73.6915 109.168 73.2215 109.655 72.7365C109.879 72.5145 110.147 72.1925 110.245 72.0505C110.334 71.9205 110.437 71.7295 110.333 71.5765C110.289 71.5145 110.249 71.4465 110.2 71.3865L109.914 71.0025C109.71 70.7455 109.53 70.4685 109.33 70.2075C108.931 69.6845 108.534 69.1625 108.138 68.6435C107.102 67.3305 106.082 66.0385 105.022 64.6945C104.37 63.8745 105.976 64.1885 107.387 65.5695C108.641 66.7745 109.857 68.0055 111.024 69.2945C111.169 69.4575 111.32 69.6145 111.449 69.7905L111.949 70.4405C112.203 70.7695 112.38 71.1175 112.422 71.5125C112.44 71.9075 112.35 72.2965 112.176 72.6595C112.096 72.8435 111.981 73.0075 111.884 73.1785C111.796 73.3095 111.722 73.4055 111.638 73.5125C111.476 73.7135 111.311 73.8985 111.144 74.0725C110.81 74.4185 110.472 74.7285 110.119 75.0175C108.433 76.3755 106.777 77.7695 105.041 79.0245C103.132 80.3935 101.182 81.6885 99.2257 82.9665L95.6007 85.3025C93.7717 86.4815 91.9097 87.6235 90.1147 88.8205C88.7197 89.7515 87.4167 90.7645 86.0697 91.7355C85.7727 91.9495 85.4937 92.1755 85.1877 92.3815C84.0637 93.1575 83.5957 93.2285 83.0467 92.9075C82.9227 92.8345 82.7817 92.7755 82.6817 92.6905C82.3557 92.4185 82.6057 91.7725 83.3747 91.1255C85.6677 89.2175 88.2637 87.4985 90.8807 85.7915C92.8277 84.5315 94.7837 83.2655 96.7347 82.0035L96.7677 82.0455Z" fill="#231F20"/>
<path fill-rule="evenodd" clip-rule="evenodd" d="M40.8923 85.5538C38.6513 84.1908 36.4263 82.7948 34.2283 81.3438C33.4263 80.8128 32.5953 80.3268 31.8093 79.7638C30.4253 78.7588 29.0583 77.7548 27.7773 76.4708C27.6183 76.3068 27.4603 76.1348 27.3053 75.9458C27.1243 75.7328 26.9023 75.4188 26.7643 75.1368C26.6273 74.8418 26.5423 74.5278 26.5673 74.2078C26.5933 73.8858 26.7803 73.6208 26.9663 73.3618C27.4583 72.7878 27.7063 72.5728 28.0283 72.2638L28.9613 71.3978C30.0633 70.3908 31.1683 69.3808 32.2613 68.3818C33.6403 67.0868 35.0503 65.7978 36.3643 64.4868C36.7623 64.0808 36.9223 64.2758 36.8023 64.8368C36.6823 65.3988 36.2453 66.2908 35.5253 67.1308C34.2683 68.6388 32.9703 70.0948 31.6513 71.5168C30.9923 72.2268 30.2623 72.8638 29.5843 73.5308C28.7333 74.4308 28.6633 74.2128 28.7293 74.5228C28.7513 74.5698 28.7273 74.5578 28.8113 74.6668C28.8803 74.7618 28.9683 74.8598 29.0513 74.9558C29.2293 75.1498 29.4203 75.3428 29.6283 75.5298C30.0403 75.9068 30.4933 76.2668 30.9593 76.6158C31.8943 77.3148 32.8883 77.9698 33.8663 78.6318C36.0233 80.0848 38.2393 81.4838 40.4793 82.8428C41.8583 83.6788 43.2453 84.5068 44.6443 85.3098C46.7663 86.5248 48.8973 87.7528 51.0563 88.8638C52.7353 89.7268 54.4453 90.4498 56.1473 91.2178C56.5223 91.3858 56.8983 91.5328 57.2713 91.7118C58.6633 92.3598 59.0133 92.7448 59.0553 93.3978C59.0653 93.5458 59.0983 93.7028 59.0813 93.8338C59.0333 94.2608 58.2853 94.3518 57.2153 93.9618C54.0513 92.7908 50.8943 91.1968 47.7693 89.5138C45.4493 88.2628 43.1543 86.9368 40.8693 85.6018L40.8923 85.5538Z" fill="#231F20"/>
<path fill-rule="evenodd" clip-rule="evenodd" d="M44.8213 51.0348C49.4613 50.4048 54.0923 49.9738 58.7293 49.5898C60.4203 49.4508 62.1063 49.2608 63.7973 49.1488C69.7623 48.7448 75.7383 48.5498 81.7143 48.4478C84.3663 48.4078 87.0323 48.3418 89.6703 48.3418C91.3643 48.3498 93.0683 48.3258 94.7733 48.4828C95.6263 48.5548 96.4783 48.6448 97.3323 48.7938C98.1873 48.9518 99.0383 49.1168 99.9013 49.5138C100.45 49.7708 100.623 50.1288 100.504 50.1848C100.385 50.2628 100.078 50.1918 99.6343 50.2108C98.7443 50.2078 97.1553 50.3958 95.2543 50.3578C88.4983 50.1728 81.6163 50.3988 74.7023 50.5538C70.5613 50.6598 66.2633 51.0458 62.0393 51.3798C57.3953 51.7448 52.7493 52.1568 48.1303 52.7188C45.2963 53.0768 42.4363 53.4438 39.7043 54.0838C39.4513 54.1508 39.1923 54.2108 38.9483 54.2878C38.8263 54.3248 38.6983 54.3588 38.5843 54.4008C38.4583 54.4458 38.3483 54.4788 38.2993 54.5028C38.1693 54.5558 38.0263 54.6128 37.9343 54.7248C37.8733 54.8528 37.8833 55.0018 37.8753 55.1538C37.8503 56.1588 37.8813 57.2918 37.9023 58.3628C37.9583 60.5348 38.0363 62.7068 38.1303 64.8648C38.2813 68.2208 38.5533 71.5058 38.7323 74.8308C38.7733 75.5628 38.8133 76.2818 38.8543 77.0198C38.9483 79.7638 38.7933 80.6668 38.2163 81.2428C38.0873 81.3718 37.9553 81.5408 37.8273 81.6098C37.3873 81.8248 37.1183 80.7518 36.9763 78.7718C36.5423 72.8828 36.0913 66.6378 35.8483 60.3478L35.7463 56.8228L35.7373 55.9268V55.4698L35.7473 54.8818C35.7463 54.5968 35.8223 54.3208 35.8893 54.0618C35.9303 53.7888 36.0753 53.5578 36.2493 53.3458C36.5583 52.9018 37.1583 52.6768 37.6453 52.4668C38.9553 52.0088 40.0943 51.8018 41.2873 51.5638C42.4663 51.3438 43.6373 51.1578 44.8073 50.9828L44.8213 51.0348Z" fill="#231F20"/>
<path fill-rule="evenodd" clip-rule="evenodd" d="M101.956 61.4221L102.019 64.9591C102.029 65.3901 102.101 65.8151 102.11 66.2461C102.135 67.7671 102.158 69.2931 102.243 70.8131C102.28 71.4871 102.374 72.1591 102.475 72.8201C102.622 73.6681 102.811 74.5131 102.698 75.3961C102.666 75.6701 102.31 75.6821 101.91 75.5071C101.513 75.3311 101.04 74.9711 100.908 74.4871C100.585 72.7511 100.385 70.9971 100.396 69.2041C100.407 68.1321 100.182 67.0441 100.088 65.9581C99.9873 64.7651 99.9143 63.5681 99.8763 62.3681L99.8023 60.1541C99.7673 59.0351 99.7323 57.9131 99.6983 56.8031C99.6643 55.9411 99.4753 55.0971 99.4813 54.2361C99.4783 54.0471 99.4553 53.8621 99.4663 53.6711C99.5113 52.9621 99.6503 52.7381 100.064 52.5991C100.159 52.5671 100.252 52.5251 100.344 52.5071C100.653 52.4501 100.918 52.7411 101.063 53.2451C101.248 53.9931 101.522 54.7541 101.61 55.5271C101.712 56.2991 101.801 57.0861 101.859 57.8741C101.909 59.0511 101.959 60.2351 102.009 61.4161L101.956 61.4221Z" fill="#231F20"/>
<path fill-rule="evenodd" clip-rule="evenodd" d="M71.8145 36.3719C71.1215 36.4059 69.9915 36.8719 69.0165 37.4169C68.0095 37.9649 67.0125 38.6049 66.0355 39.2819C65.3195 39.7739 64.6525 40.3389 63.9465 40.8529C61.4425 42.6599 58.9675 44.5559 56.5305 46.5049C55.4485 47.3689 54.3975 48.2839 53.3505 49.1839C52.6655 49.7469 51.9845 50.3229 51.2625 50.8589C50.5285 51.3909 49.8095 51.9099 48.8385 52.2539C48.4995 52.3549 48.2915 52.2679 48.2995 52.1279C48.2935 51.9789 48.4155 51.7739 48.5225 51.5269C48.7585 51.0309 49.1625 50.2589 49.9045 49.6079C52.4935 47.2319 55.2665 44.9019 58.1835 42.7139C59.9445 41.4209 61.6045 39.8579 63.4185 38.5239C65.4335 37.0779 67.4285 35.6109 69.8855 34.6109C70.2645 34.4589 70.6775 34.3379 71.1145 34.2509C71.3535 34.2279 71.5595 34.1709 71.8225 34.1869C72.0805 34.1999 72.3515 34.2089 72.5555 34.2829C73.4585 34.5039 74.1425 34.9209 74.8215 35.3329C76.8425 36.6189 78.5185 38.2199 80.2015 39.7699C81.4995 40.9839 82.8175 42.1329 84.0685 43.3789C84.3415 43.6549 84.6305 43.9069 84.8845 44.2059C85.8315 45.3079 85.9865 45.7829 85.7245 46.3869C85.6635 46.5249 85.6175 46.6789 85.5395 46.7929C85.2715 47.1789 84.6165 46.9599 83.8365 46.2719C81.5165 44.2409 79.3285 41.8919 76.9445 39.7869C76.0635 39.0119 75.1675 38.2469 74.2455 37.5989C73.7855 37.2759 73.3175 36.9999 72.8625 36.7609C72.6535 36.6869 72.4095 36.5459 72.2335 36.5119L71.9655 36.4349C71.9155 36.4429 71.8685 36.4409 71.8185 36.4279L71.8145 36.3719Z" fill="#231F20"/>
<path fill-rule="evenodd" clip-rule="evenodd" d="M75.6584 63.7313L69.9254 63.9223L67.8364 64.0443C65.3784 64.1403 62.9114 64.1323 60.4494 64.1713C59.3544 64.1983 58.2584 64.2263 57.1714 64.2533C55.7704 64.2763 54.3874 64.3813 52.9214 64.0183C52.4574 63.8843 52.6294 63.7243 53.0294 63.5873C53.4024 63.4803 54.0544 63.2633 54.8314 63.2563C57.6214 63.1413 60.4454 62.8723 63.2984 62.8043C65.0064 62.7463 66.7764 62.5623 68.5214 62.4423L74.2854 62.0963L77.8344 61.8893C79.6264 61.7743 81.4294 61.7053 83.2084 61.5683C84.5924 61.4673 85.9414 61.2523 87.3164 61.1213C87.6194 61.0903 87.9144 61.0433 88.2204 61.0223C89.3624 60.9673 89.7304 61.0913 89.9714 61.5913C90.0264 61.7053 90.0984 61.8193 90.1304 61.9343C90.2344 62.3223 89.7774 62.6503 88.9694 62.7723C86.5664 63.1523 84.0104 63.3383 81.4324 63.4993C79.5194 63.6273 77.5884 63.6743 75.6644 63.7743L75.6584 63.7313Z" fill="#231F20"/>
<path fill-rule="evenodd" clip-rule="evenodd" d="M73.946 71.5099C73.219 71.5069 72.491 71.5039 71.767 71.4999C71.5 71.4999 71.237 71.5469 70.969 71.5379C70.025 71.5089 69.079 71.4449 68.138 71.3969C67.721 71.3689 67.302 71.3889 66.888 71.3959C66.357 71.4159 65.82 71.4739 65.294 71.3199C64.967 71.2289 65.429 70.1019 66.021 70.0719C67.078 70.0329 68.126 70.0279 69.2 70.1409C69.844 70.2089 70.506 70.0899 71.163 70.0529C71.888 70.0269 72.618 69.9999 73.345 69.9729C73.797 69.9579 74.249 69.9419 74.698 69.9269C75.381 69.8959 76.071 69.9019 76.751 69.8469C77.28 69.8059 77.798 69.6759 78.326 69.5939C78.443 69.5749 78.556 69.5439 78.674 69.5359C79.11 69.5089 79.247 69.6249 79.326 70.0889C79.344 70.1949 79.369 70.2999 79.378 70.4059C79.407 70.7649 79.226 71.0559 78.92 71.1509C78.009 71.4289 77.069 71.4669 76.109 71.5029C75.392 71.5179 74.67 71.5329 73.95 71.5489L73.946 71.5099Z" fill="#231F20"/>
<path fill-rule="evenodd" clip-rule="evenodd" d="M79.907 132.255C76.457 132.466 73.003 132.629 69.544 132.744C68.282 132.777 67.021 132.856 65.757 132.861C61.285 132.866 56.861 132.653 52.425 132.469C50.456 132.397 48.479 132.325 46.526 132.253C44.02 132.13 41.481 132.172 39.009 131.579C38.237 131.416 38.362 131.234 39.043 131.009C39.385 130.894 39.865 130.767 40.441 130.631C40.729 130.57 41.042 130.489 41.37 130.457C41.697 130.438 42.043 130.429 42.402 130.445C47.49 130.62 52.567 130.796 57.719 130.973C60.803 131.111 63.985 130.975 67.121 130.835C70.57 130.684 74.03 130.533 77.485 130.298C79.611 130.155 81.74 130.005 83.863 129.822C87.08 129.548 90.314 129.267 93.495 128.871C95.969 128.566 98.375 128.109 100.804 127.696C101.339 127.603 101.859 127.491 102.4 127.409C104.403 127.103 105.06 127.162 105.576 127.717C105.693 127.843 105.842 127.964 105.919 128.096C106.177 128.544 105.409 129.044 103.95 129.377C99.62 130.356 94.991 130.94 90.335 131.423C86.877 131.779 83.393 132.05 79.916 132.308L79.907 132.255Z" fill="#231F20"/>
<path fill-rule="evenodd" clip-rule="evenodd" d="M44.6528 87.0215L40.2738 84.3015C39.7438 83.9655 39.1838 83.6815 38.6578 83.3395C36.8078 82.1255 34.9808 80.8745 33.2118 79.5295C32.4038 78.9695 31.6358 78.3325 30.8588 77.7395C30.3748 77.3285 29.8608 76.9695 29.4048 76.5125L28.7148 75.8485C28.4948 75.6105 28.2928 75.3475 28.0948 75.0925C27.8508 74.7675 28.0838 74.6645 28.4998 74.7275C28.9228 74.7925 29.4768 75.0085 30.0718 75.3815C31.0948 76.0525 32.2018 76.6495 33.2798 77.2775C34.3368 77.9435 35.3448 78.6965 36.3688 79.4535C37.5658 80.4025 38.9728 81.1415 40.2988 81.9605C41.7528 82.8675 43.2158 83.7705 44.6888 84.6535L47.4218 86.2695C48.8118 87.0635 50.2008 87.8805 51.6208 88.5985C52.7258 89.1545 53.8658 89.5895 54.9948 90.0665C55.2428 90.1715 55.4948 90.2575 55.7398 90.3735C56.6588 90.7855 56.8588 91.0955 56.8018 91.6825C56.7888 91.8155 56.7918 91.9535 56.7618 92.0745C56.6698 92.4685 56.1208 92.6385 55.4028 92.4175C53.2788 91.7485 51.2018 90.7205 49.1528 89.6225C47.6298 88.8085 46.1318 87.9305 44.6298 87.0675L44.6528 87.0215Z" fill="#231F20"/>
<path fill-rule="evenodd" clip-rule="evenodd" d="M94.7469 82.4846C96.1499 81.6076 97.5489 80.7236 98.9249 79.8096C99.4279 79.4756 99.8919 79.0906 100.393 78.7576C102.158 77.5786 103.921 76.3956 105.624 75.1426C106.36 74.5656 107.111 73.9956 107.788 73.3746C108.226 72.9786 108.639 72.5596 109.023 72.1366C109.401 71.7386 109.761 71.2026 109.798 70.8986C109.789 70.7896 109.939 70.4726 110.332 70.7956C110.502 70.9746 110.587 71.3356 110.549 71.6896C110.518 72.0496 110.376 72.4086 110.185 72.7466C109.482 73.9236 108.644 74.8936 107.763 75.8176C106.84 76.6916 105.813 77.4266 104.762 78.1226C103.477 78.9196 102.287 79.9256 101.026 80.7966C99.6419 81.7516 98.2339 82.6706 96.8249 83.5836L94.2179 85.2576C92.9069 86.1086 91.5669 86.9266 90.2889 87.8046C89.2949 88.4866 88.3849 89.2546 87.4329 89.9786C87.2229 90.1376 87.0289 90.3106 86.8099 90.4616C86.0109 91.0346 85.6469 91.0466 85.1769 90.6946C85.0699 90.6156 84.9519 90.5466 84.8629 90.4586C84.5749 90.1766 84.6979 89.6246 85.2289 89.1306C86.8129 87.6756 88.6559 86.4166 90.5229 85.1756C91.9169 84.2676 93.3179 83.3546 94.7159 82.4426L94.7469 82.4846Z" fill="#231F20"/>
<path fill-rule="evenodd" clip-rule="evenodd" d="M47.7018 105.176L45.0338 107.393L42.4388 109.701L40.6178 111.465C38.4588 113.517 36.2898 115.571 34.2488 117.751C33.3438 118.718 32.4658 119.721 31.6348 120.739C30.5598 122.042 29.5698 123.417 28.3488 124.598C27.9748 124.97 27.7768 124.734 27.7918 124.178C27.8148 123.629 28.0058 122.719 28.5938 121.926C30.7718 119.199 33.1098 116.611 35.6628 114.196C37.1858 112.75 38.6598 111.137 40.2378 109.68C41.0918 108.866 41.9668 108.075 42.8568 107.299C43.7318 106.507 44.6368 105.749 45.5418 104.991C46.6388 104.04 47.7938 103.155 48.9238 102.246C50.6598 100.897 52.4428 99.5906 54.2338 98.3406C55.5938 97.3236 56.9778 96.3916 58.3568 95.4176C58.6718 95.2206 58.9828 95.0266 59.2988 94.8286C60.4988 94.1276 60.9388 94.0066 61.3958 94.2376C61.4998 94.2896 61.6218 94.3316 61.7008 94.3986C61.9678 94.6246 61.6088 95.1386 60.7928 95.7136C58.3438 97.3666 55.8028 99.1396 53.2548 100.939C52.3258 101.633 51.3948 102.329 50.4628 103.026L47.7288 105.203L47.7018 105.176Z" fill="#231F20"/>
<path fill-rule="evenodd" clip-rule="evenodd" d="M35.713 74.9289C35.728 74.1719 35.743 73.4139 35.757 72.6589C35.761 72.3839 35.725 72.1119 35.732 71.8369C35.76 70.8679 35.832 69.8979 35.837 68.9329C35.843 68.5039 35.809 68.0759 35.774 67.6539C35.723 67.1119 35.629 66.5729 35.694 66.0209C35.729 65.6769 36.644 66.0209 36.759 66.6509C36.926 67.7649 37.022 68.8839 36.963 70.0159C36.927 70.6929 37.046 71.3879 37.065 72.0749C37.084 72.8279 37.103 73.5859 37.123 74.3409C37.139 74.8049 37.155 75.2699 37.171 75.7319C37.209 76.4329 37.232 77.1379 37.33 77.8279C37.417 78.3619 37.571 78.8769 37.687 79.3969C37.713 79.5119 37.739 79.6239 37.754 79.7409C37.798 80.1749 37.71 80.3279 37.379 80.4739C37.303 80.5079 37.229 80.5479 37.154 80.5719C36.9 80.6539 36.65 80.5089 36.486 80.1999C35.967 79.2879 35.809 78.2589 35.754 77.2299C35.699 76.4659 35.694 75.6959 35.677 74.9319L35.713 74.9289Z" fill="#231F20"/>
</svg>
