<svg width="148" height="148" viewBox="0 0 148 148" fill="none" xmlns="http://www.w3.org/2000/svg">
<path fill-rule="evenodd" clip-rule="evenodd" d="M74.8718 40.3626C72.1278 40.4006 69.3818 40.3736 66.6528 40.0986C65.6578 39.9956 64.6558 39.9666 63.6698 39.7926C60.1688 39.3626 56.7478 38.4656 53.3858 37.4626C51.9128 36.9476 50.3988 36.5306 48.9718 35.9286C48.0518 35.5536 47.0988 35.2506 46.1998 34.8196C45.2938 34.4046 44.4118 33.9386 43.5368 33.4716C42.9918 33.1756 43.1428 33.0686 43.6938 33.1326C44.2418 33.2036 45.2008 33.4086 46.2318 33.8666C49.9058 35.4546 53.6908 36.7626 57.6068 37.7726C58.7828 38.0466 59.9958 38.2786 61.2138 38.5156C62.4438 38.6786 63.6798 38.8436 64.9068 39.0066C67.6128 39.2656 70.3348 39.4606 73.0598 39.3996C74.7388 39.4116 76.4128 39.2796 78.0868 39.1756C80.6128 38.9156 83.1568 38.6256 85.6218 38.0766C86.5828 37.8836 87.5258 37.6526 88.4558 37.3786C89.3908 37.1296 90.3128 36.8486 91.2308 36.5406C91.6358 36.4076 92.0338 36.2786 92.4408 36.1456C93.9398 35.6136 94.4688 35.6006 94.8868 35.7596C94.9818 35.7956 95.1008 35.8206 95.1628 35.8626C95.3678 35.9806 94.8278 36.4216 93.7308 36.8776C90.4508 38.1506 86.8168 38.9896 83.1428 39.5726C80.4178 40.0446 77.6408 40.2346 74.8768 40.3876L74.8718 40.3626Z" fill="#231F20"/>
<path fill-rule="evenodd" clip-rule="evenodd" d="M80.7723 127.083C82.7623 126.949 84.7483 126.75 86.7233 126.47L88.8783 126.121C91.4133 125.717 93.9293 125.188 96.4043 124.5C97.5033 124.2 98.5913 123.835 99.6533 123.448C101.017 122.95 102.374 122.418 103.704 121.837C104.12 121.658 104.1 121.746 103.794 121.997C103.492 122.251 102.899 122.668 102.139 123.049C99.4303 124.359 96.5383 125.223 93.6023 125.91C91.8373 126.29 90.0123 126.737 88.1923 127.046C86.1903 127.378 84.1763 127.64 82.1583 127.824C80.9153 127.935 79.6713 128.046 78.4253 128.098C76.5413 128.229 74.6433 128.228 72.7703 128.27C71.3143 128.246 69.8843 128.348 68.4443 128.291C68.1273 128.283 67.8143 128.275 67.4973 128.267C66.3133 128.178 65.9403 128.09 65.6973 127.902C65.6423 127.859 65.5683 127.817 65.5373 127.777C65.4313 127.645 65.9193 127.547 66.7863 127.496C69.3523 127.388 72.0413 127.448 74.7423 127.339C76.7483 127.303 78.7623 127.214 80.7683 127.062L80.7723 127.083Z" fill="#231F20"/>
<path fill-rule="evenodd" clip-rule="evenodd" d="M98.3646 113.09C99.2866 113.288 100.206 113.503 101.122 113.731C101.456 113.813 101.796 113.874 102.129 113.966C103.3 114.295 104.463 114.669 105.595 115.149C106.094 115.374 106.601 115.585 107.082 115.875C107.389 116.055 107.704 116.266 107.959 116.575C108.219 116.872 108.342 117.415 108.134 117.787C108.014 118.027 107.922 117.893 107.827 117.69C107.77 117.461 107.535 117.315 107.368 117.163C107.053 116.821 106.441 116.492 105.853 116.234C105.243 115.98 104.625 115.723 103.979 115.454C103.213 115.143 102.365 114.965 101.54 114.759C100.633 114.531 99.7186 114.317 98.8006 114.122L97.0986 113.782C96.2366 113.624 95.3696 113.464 94.5066 113.355C93.8356 113.269 93.1696 113.245 92.5016 113.2C92.3556 113.192 92.2056 113.183 92.0616 113.175C91.5136 113.123 91.3476 113.041 91.2586 112.783C91.2376 112.725 91.2086 112.665 91.1996 112.608C91.1706 112.414 91.4106 112.284 91.8196 112.275C93.0336 112.251 94.2996 112.379 95.5606 112.57C96.4976 112.712 97.4336 112.887 98.3676 113.067L98.3646 113.09Z" fill="#231F20"/>
<path fill-rule="evenodd" clip-rule="evenodd" d="M55.8014 113.101C56.2574 112.966 56.7154 112.83 57.1664 112.696C57.3324 112.646 57.4954 112.582 57.6644 112.54C58.2614 112.394 58.8644 112.257 59.4804 112.197C59.7584 112.161 60.0174 112.127 60.2924 112.091C60.6384 112.053 60.9894 112.013 61.3394 112.072C61.5534 112.099 61.2744 112.505 60.9054 112.557C60.2354 112.642 59.5854 112.8 58.9014 112.895C58.4894 112.945 58.0854 113.102 57.6784 113.224C57.2344 113.366 56.7834 113.509 56.3364 113.652C56.0604 113.747 55.7834 113.841 55.5104 113.934C55.0914 114.083 54.6754 114.23 54.2604 114.377C53.9394 114.495 53.6354 114.646 53.3174 114.772C53.2474 114.801 53.1814 114.834 53.1084 114.856C52.8394 114.941 52.7404 114.922 52.6364 114.772C52.6134 114.738 52.5854 114.705 52.5684 114.67C52.5074 114.55 52.5854 114.411 52.7634 114.312C53.2934 114.023 53.8624 113.774 54.4514 113.545C54.8964 113.393 55.3464 113.238 55.7954 113.085L55.8014 113.101Z" fill="#231F20"/>
<path fill-rule="evenodd" clip-rule="evenodd" d="M92.2244 115.242C92.2244 115.242 95.2544 115.606 96.3854 116.562C97.7294 117.698 87.8714 122.356 79.2354 121.592L92.4644 117.476L92.2244 115.242Z" fill="#231F20"/>
<path fill-rule="evenodd" clip-rule="evenodd" d="M75.3244 74.0238C75.1024 74.1728 74.9094 74.3568 74.7794 74.5948C74.6464 74.8368 74.5854 75.0798 74.5644 75.3548C74.5534 75.4908 74.5764 75.6278 74.5974 75.7618C74.6094 75.8348 74.6274 75.9038 74.6544 75.9718C74.7544 76.2238 74.8844 76.4618 75.0984 76.6358C75.5354 76.9918 76.1124 77.2118 76.6504 76.9388C76.7394 76.8938 76.8214 76.8278 76.8904 76.7558C77.0144 76.6258 77.0774 76.5008 77.1384 76.3328C77.1754 76.2318 77.1844 76.1188 77.1924 76.0138C77.1994 75.9308 77.1864 75.8528 77.1754 75.7708C77.1084 75.2698 76.8124 74.8568 76.3974 74.5768C76.2414 74.4718 75.9954 74.4528 75.8194 74.5008C75.6454 74.5488 75.4564 74.6838 75.3714 74.8458C75.2794 75.0198 75.2334 75.2308 75.2954 75.4238C75.3574 75.6158 75.4714 75.7578 75.6404 75.8718C75.6584 75.8838 75.6764 75.8968 75.6934 75.9098C75.6424 75.8708 75.5924 75.8318 75.5414 75.7928C75.6084 75.8438 75.6674 75.9028 75.7194 75.9688C75.6804 75.9178 75.6414 75.8678 75.6024 75.8168C75.6534 75.8828 75.6954 75.9548 75.7294 76.0308C75.7044 75.9708 75.6784 75.9118 75.6534 75.8518C75.6834 75.9218 75.7044 75.9948 75.7154 76.0698C75.7064 76.0028 75.6974 75.9368 75.6884 75.8708C75.6964 75.9258 75.6974 75.9808 75.6904 76.0358C75.6994 75.9688 75.7074 75.9028 75.7174 75.8358C75.7114 75.8718 75.7034 75.9058 75.6904 75.9388C75.7154 75.8788 75.7404 75.8188 75.7654 75.7598C75.7544 75.7868 75.7394 75.8128 75.7214 75.8358C75.7604 75.7858 75.8004 75.7348 75.8394 75.6848C75.8244 75.7018 75.8094 75.7168 75.7914 75.7308C75.8424 75.6918 75.8924 75.6528 75.9434 75.6138C75.9244 75.6278 75.9054 75.6378 75.8844 75.6478C75.9444 75.6228 76.0034 75.5968 76.0634 75.5718C76.0404 75.5808 76.0164 75.5868 75.9924 75.5908C76.0584 75.5818 76.1254 75.5728 76.1924 75.5638C76.1554 75.5688 76.1194 75.5678 76.0834 75.5648C76.1504 75.5728 76.2164 75.5828 76.2824 75.5908C76.2164 75.5818 76.1534 75.5628 76.0924 75.5368C76.1514 75.5618 76.2114 75.5868 76.2714 75.6118C76.1804 75.5728 76.0934 75.5238 76.0144 75.4638C76.0654 75.5028 76.1164 75.5428 76.1664 75.5818C76.1134 75.5398 76.0654 75.4928 76.0234 75.4398C76.0624 75.4908 76.1014 75.5408 76.1404 75.5918C76.0934 75.5308 76.0554 75.4648 76.0254 75.3938C76.0504 75.4538 76.0754 75.5128 76.1004 75.5728C76.0734 75.5028 76.0534 75.4298 76.0424 75.3548C76.0524 75.4208 76.0604 75.4878 76.0694 75.5538C76.0584 75.4668 76.0594 75.3798 76.0704 75.2938C76.0614 75.3598 76.0534 75.4268 76.0444 75.4928C76.0564 75.4118 76.0774 75.3348 76.1084 75.2588C76.0834 75.3178 76.0574 75.3778 76.0324 75.4378C76.0624 75.3678 76.0994 75.3028 76.1454 75.2418C76.1064 75.2928 76.0674 75.3428 76.0284 75.3938C76.0714 75.3378 76.1204 75.2878 76.1754 75.2438C76.1244 75.2828 76.0744 75.3218 76.0234 75.3608C76.0424 75.3468 76.0614 75.3328 76.0814 75.3188C76.2444 75.2098 76.3724 75.0648 76.4264 74.8708C76.4754 74.6908 76.4534 74.4528 76.3504 74.2928C76.2474 74.1328 76.0934 73.9918 75.9024 73.9478C75.7124 73.9048 75.4914 73.9118 75.3244 74.0238" fill="#231F20"/>
<path fill-rule="evenodd" clip-rule="evenodd" d="M80.4234 83.0558C80.4384 83.0488 80.4524 83.0418 80.4674 83.0358C80.4074 83.0608 80.3474 83.0858 80.2884 83.1118C80.3574 83.0818 80.4284 83.0618 80.5034 83.0508C80.4374 83.0588 80.3704 83.0688 80.3044 83.0768C80.3734 83.0688 80.4414 83.0678 80.5094 83.0768C80.4434 83.0678 80.3774 83.0588 80.3104 83.0498C80.3814 83.0598 80.4494 83.0798 80.5154 83.1068C80.4564 83.0818 80.3964 83.0558 80.3364 83.0318C80.4154 83.0648 80.4884 83.1098 80.5564 83.1608C80.5064 83.1218 80.4554 83.0828 80.4044 83.0438C80.4884 83.1098 80.5624 83.1858 80.6284 83.2698C80.5894 83.2188 80.5494 83.1688 80.5104 83.1178C80.5874 83.2168 80.6504 83.3238 80.6994 83.4378C80.6744 83.3788 80.6494 83.3188 80.6244 83.2598C80.6674 83.3628 80.6994 83.4708 80.7154 83.5808C80.7054 83.5148 80.6964 83.4488 80.6884 83.3818C80.6964 83.4548 80.6984 83.5278 80.6894 83.5998C80.6974 83.5338 80.7064 83.4678 80.7154 83.4008C80.7094 83.4458 80.6974 83.4898 80.6804 83.5318C80.7064 83.4718 80.7314 83.4118 80.7564 83.3528C80.7424 83.3868 80.7244 83.4178 80.7034 83.4468C80.7424 83.3958 80.7814 83.3458 80.8204 83.2948C80.7994 83.3218 80.7774 83.3448 80.7514 83.3648C80.8014 83.3258 80.8524 83.2868 80.9034 83.2478C80.8754 83.2688 80.8454 83.2848 80.8144 83.2998C80.8734 83.2738 80.9334 83.2488 80.9934 83.2238C80.9494 83.2418 80.9044 83.2528 80.8584 83.2588C80.9244 83.2498 80.9914 83.2408 81.0574 83.2318C81.0354 83.2348 81.0144 83.2368 80.9924 83.2368C80.7954 83.2438 80.6034 83.3158 80.4624 83.4568C80.3314 83.5868 80.2344 83.8008 80.2424 83.9868C80.2514 84.1808 80.3144 84.3828 80.4624 84.5168C80.6054 84.6488 80.7924 84.7448 80.9924 84.7368C81.4114 84.7218 81.8204 84.5348 82.0304 84.1548C82.2114 83.8268 82.2214 83.4678 82.1494 83.1098C82.0974 82.8528 81.9784 82.5938 81.8224 82.3828C81.7244 82.2478 81.6224 82.1118 81.4924 82.0048C81.2994 81.8468 81.1454 81.7518 80.9144 81.6598C80.7504 81.5958 80.5644 81.5658 80.3874 81.5708C80.1214 81.5778 79.9044 81.6468 79.6664 81.7608C79.5054 81.8378 79.3674 82.0418 79.3214 82.2088C79.2724 82.3888 79.2944 82.6278 79.3974 82.7868C79.5004 82.9468 79.6544 83.0878 79.8454 83.1318C79.9114 83.1398 79.9784 83.1488 80.0454 83.1588C80.1804 83.1578 80.3064 83.1238 80.4234 83.0558" fill="#231F20"/>
<path fill-rule="evenodd" clip-rule="evenodd" d="M75.1281 89.0967C75.1311 89.0947 75.1341 89.0927 75.1371 89.0897C75.0861 89.1287 75.0351 89.1677 74.9851 89.2067C75.0241 89.1777 75.0651 89.1527 75.1101 89.1337C75.0501 89.1587 74.9911 89.1837 74.9311 89.2097C74.9691 89.1937 75.0081 89.1837 75.0491 89.1777C74.9821 89.1867 74.9161 89.1957 74.8501 89.2047C74.8891 89.2007 74.9281 89.2007 74.9671 89.2047C74.9001 89.1957 74.8341 89.1867 74.7671 89.1787C74.8161 89.1847 74.8631 89.1987 74.9081 89.2167C74.8481 89.1917 74.7891 89.1667 74.7291 89.1407C74.7881 89.1667 74.8431 89.2007 74.8951 89.2397C74.8441 89.2007 74.7931 89.1607 74.7431 89.1217C74.8141 89.1777 74.8761 89.2427 74.9301 89.3137C74.8911 89.2627 74.8521 89.2127 74.8131 89.1617C74.8781 89.2467 74.9311 89.3397 74.9731 89.4377C74.9481 89.3777 74.9231 89.3177 74.8981 89.2587C74.9331 89.3437 74.9591 89.4317 74.9721 89.5227C74.9631 89.4567 74.9541 89.3897 74.9451 89.3237C74.9541 89.3887 74.9561 89.4537 74.9471 89.5187L74.9741 89.3197C74.9671 89.3627 74.9571 89.4047 74.9401 89.4447C74.9651 89.3857 74.9911 89.3257 75.0161 89.2657C75.0031 89.2967 74.9861 89.3257 74.9661 89.3527C75.0051 89.3027 75.0441 89.2517 75.0831 89.2007C75.0621 89.2287 75.0381 89.2527 75.0111 89.2737C75.0611 89.2347 75.1121 89.1957 75.1631 89.1567C75.1331 89.1797 75.1011 89.1977 75.0671 89.2127C75.1271 89.1877 75.1861 89.1617 75.2461 89.1367C75.1961 89.1577 75.1441 89.1707 75.0911 89.1787C75.1571 89.1687 75.2241 89.1597 75.2901 89.1517C75.2441 89.1577 75.1971 89.1587 75.1501 89.1587C74.9601 89.1557 74.7541 89.2437 74.6201 89.3787C74.4901 89.5087 74.3921 89.7217 74.4001 89.9087C74.4091 90.1027 74.4731 90.3037 74.6201 90.4387C74.7681 90.5747 74.9461 90.6557 75.1501 90.6587C75.3141 90.6607 75.4871 90.6447 75.6401 90.5847C75.8301 90.5117 76.0111 90.4227 76.1441 90.2617C76.2481 90.1357 76.2901 90.0737 76.3491 89.9327C76.3771 89.8667 76.4041 89.8067 76.4181 89.7357C76.4611 89.5037 76.4541 89.3417 76.4171 89.1097C76.3921 88.9577 76.3291 88.8207 76.2681 88.6807C76.2311 88.5937 76.1861 88.5117 76.1301 88.4347C76.0421 88.3117 75.9481 88.1817 75.8311 88.0837C75.6521 87.9337 75.5141 87.8497 75.2981 87.7667C75.2551 87.7497 75.2121 87.7387 75.1661 87.7317C75.0021 87.7067 74.9061 87.6977 74.7501 87.7187C74.5931 87.7397 74.5001 87.7717 74.3491 87.8407C74.2441 87.8887 74.1581 87.9647 74.0671 88.0357C73.9941 88.1037 73.9421 88.1847 73.9121 88.2777C73.8651 88.3667 73.8441 88.4637 73.8481 88.5667C73.8481 88.7507 73.9291 88.9707 74.0671 89.0967C74.2101 89.2277 74.3981 89.3257 74.5981 89.3167C74.6641 89.3077 74.7311 89.2987 74.7971 89.2897C74.9241 89.2537 75.0341 89.1897 75.1281 89.0967" fill="#231F20"/>
<path fill-rule="evenodd" clip-rule="evenodd" d="M69.5029 119.935C70.2529 117.069 74.7259 110.131 76.8709 108.597C78.5729 107.379 80.1959 106.788 82.1699 107.607C84.1269 108.42 86.0369 110.061 87.4199 111.626C88.8269 113.215 90.7799 115.063 91.1879 117.217C91.2869 117.742 80.4119 123.833 69.5029 119.935" fill="#231F20"/>
<path fill-rule="evenodd" clip-rule="evenodd" d="M58.887 54.1456C57.442 55.3166 66.545 76.0926 81.013 66.7796C85.164 64.1076 90.748 59.1196 90.717 54.5406C90.715 54.3606 66.782 47.7506 58.887 54.1456" fill="#231F20"/>
<path fill-rule="evenodd" clip-rule="evenodd" d="M46.7067 63.4269C44.9647 61.1359 43.4997 58.6619 42.1907 56.1309C41.7277 55.1989 41.1817 54.3089 40.7927 53.3439C39.3417 49.9789 38.1607 46.5159 37.2887 42.9779C37.1157 42.1879 36.9197 41.4019 36.7257 40.6169C36.5297 39.8319 36.3937 39.0349 36.2157 38.2519C35.7837 36.2389 35.3557 34.1749 35.6727 32.0869C35.7917 31.4359 36.1777 31.5089 36.7527 32.0049C37.3817 32.4999 38.0727 33.4049 38.2807 34.5189C38.5307 35.5009 38.5507 36.5109 38.7517 37.4989C38.9377 38.4879 39.0517 39.4919 39.2737 40.4769C39.4607 41.4699 39.6057 42.4769 39.8387 43.4669C40.0457 44.4649 40.2427 45.4699 40.5057 46.4629C41.0317 48.8789 42.1907 51.1799 43.2247 53.4629C44.4357 55.9419 45.7897 58.3569 47.3547 60.6379C48.3457 62.0189 49.3647 63.3859 50.5087 64.6459C50.9177 65.1449 51.3727 65.6019 51.8297 66.0569C52.2877 66.5089 52.7247 66.9879 53.2037 67.4179C54.1827 68.2539 55.1277 69.1339 56.1997 69.8329L57.4237 70.6669L58.7117 71.4379C59.5697 71.9399 60.4227 72.4129 61.2827 72.8209C61.6617 73.0049 62.0457 73.1409 62.4277 73.3049C63.8547 73.8749 64.2927 74.0979 64.4707 74.7729C64.5117 74.9239 64.5797 75.0809 64.5917 75.2249C64.6397 75.6999 63.8707 75.9339 62.6057 75.6239C60.7317 75.1559 58.9567 74.1969 57.3727 73.2109L56.1837 72.4649L54.9787 71.6269L53.7787 70.7709L52.6497 69.8229C51.5027 68.9129 50.5057 67.8409 49.4677 66.8139C48.5177 65.7079 47.5167 64.6429 46.6657 63.4639L46.7067 63.4269Z" fill="#231F20"/>
<path fill-rule="evenodd" clip-rule="evenodd" d="M97.0745 62.3001L98.2545 60.6701C98.6265 60.1101 98.9565 59.5221 99.3105 58.9471C100.047 57.8151 100.618 56.5831 101.231 55.3721C101.702 54.4991 101.961 53.5291 102.37 52.6261C103.708 49.3931 104.771 46.0171 105.478 42.5581C105.667 41.7981 105.776 41.0181 105.891 40.2431C106.002 39.4671 106.129 38.6941 106.202 37.9201C106.296 36.9241 106.331 35.9221 106.453 34.9301C106.508 34.4331 106.561 33.9361 106.637 33.4401C106.702 32.9441 106.801 32.4501 106.984 31.9601C107.202 31.3481 107.575 31.4461 108.067 32.0111C108.605 32.5771 109.166 33.6181 109.16 34.8131C109.056 36.9191 108.718 39.0041 108.302 41.0741C108.103 42.1111 107.796 43.1291 107.512 44.1481C107.241 45.1711 106.902 46.1781 106.529 47.1751C106.121 48.3821 105.709 49.6011 105.293 50.8301C104.921 52.0741 104.446 53.2941 103.949 54.4921C103.45 55.8271 102.734 57.0751 102.122 58.3621C101.808 59.0011 101.407 59.5991 101.053 60.2181C100.674 60.8241 100.356 61.4651 99.9285 62.0411L98.3985 64.1921C97.8715 64.8951 97.2655 65.5411 96.7085 66.2191L96.0615 66.9801C95.8295 67.2201 95.5825 67.4461 95.3435 67.6791L93.9015 69.0671C93.4335 69.5431 92.8645 69.9051 92.3565 70.3321C91.8275 70.7361 91.3285 71.1771 90.7875 71.5581C89.9205 72.1131 89.0765 72.6891 88.2355 73.2741C87.3505 73.7811 86.4405 74.2491 85.5295 74.7321C85.1345 74.9621 84.7275 75.1381 84.2935 75.2821C82.6915 75.8411 82.1275 75.8631 81.6375 75.3991C81.5265 75.2941 81.3915 75.1961 81.3135 75.0791C81.0535 74.6831 81.5835 74.1131 82.6375 73.6311C85.7685 72.2281 88.9005 70.5221 91.5965 68.1551C92.1375 67.7691 92.5905 67.2751 93.0705 66.8131C93.5415 66.3421 94.0405 65.8971 94.4975 65.4081L95.7985 63.8711L96.4495 63.1011L97.0285 62.2711L97.0745 62.3001Z" fill="#231F20"/>
<path fill-rule="evenodd" clip-rule="evenodd" d="M49.2206 88.34C48.3996 89.315 47.5636 90.283 46.8286 91.33C46.4556 91.848 46.0516 92.348 45.7026 92.884L44.6596 94.497C44.1306 95.271 43.7616 96.136 43.2906 96.943C41.6726 99.812 40.2986 102.845 39.3226 106.011C39.0676 106.703 38.9116 107.424 38.7376 108.139C38.5746 108.856 38.3776 109.564 38.2686 110.286C38.1166 111.211 38.0196 112.145 37.8386 113.064C37.7696 113.527 37.6896 113.987 37.5926 114.447C37.5046 114.908 37.3836 115.365 37.1786 115.815C36.9326 116.377 36.5646 116.27 36.0996 115.713C35.5876 115.154 35.0756 114.134 35.1386 112.996C35.3586 111.002 35.8256 109.042 36.4036 107.12C36.6776 106.154 37.0666 105.223 37.4376 104.289C37.6286 103.824 37.8076 103.356 38.0146 102.897L38.6806 101.541C39.1966 100.453 39.7176 99.354 40.2426 98.245C40.7256 97.117 41.3196 96.034 41.9066 94.963C42.5356 93.775 43.3236 92.678 44.0276 91.537C44.8246 90.456 45.5736 89.341 46.4266 88.306L48.0026 86.399L49.6806 84.584C50.5066 83.65 51.4676 82.84 52.3496 81.962C53.2776 81.132 54.2306 80.331 55.1616 79.518C55.9176 78.925 56.6466 78.312 57.3716 77.691C58.1166 77.098 58.8826 76.534 59.6476 75.959C59.9816 75.7 60.3106 75.448 60.6786 75.234C62.0246 74.415 62.5356 74.294 63.1056 74.65C63.2356 74.731 63.3856 74.8 63.4876 74.898C63.8286 75.229 63.4666 75.874 62.5776 76.541C59.9406 78.52 57.1696 80.529 54.6286 82.861C53.6546 83.691 52.7806 84.632 51.8386 85.505C50.9876 86.465 50.0606 87.362 49.2656 88.372L49.2206 88.34Z" fill="#231F20"/>
<path fill-rule="evenodd" clip-rule="evenodd" d="M98.8734 87.4968C99.7114 88.6418 100.623 89.7268 101.375 90.9308L102.549 92.6978C102.922 93.2988 103.266 93.9178 103.626 94.5248L104.431 95.8458C104.677 96.2988 104.922 96.7518 105.151 97.2138C106.764 100.468 108.116 103.851 109.051 107.351L109.395 108.506L109.68 109.678C109.863 110.461 110.083 111.234 110.258 112.013C110.444 113.021 110.688 114.025 110.845 115.043C110.897 115.555 110.911 116.072 110.923 116.587C110.941 117.101 110.925 117.618 110.825 118.136C110.71 118.782 110.324 118.708 109.745 118.217C109.12 117.725 108.399 116.836 108.218 115.736C107.992 114.767 107.879 113.783 107.721 112.804C107.576 111.823 107.322 110.861 107.147 109.88C106.752 107.929 106.31 105.965 105.737 104.017C105.113 101.655 103.871 99.4258 102.721 97.2268C102.058 96.0318 101.363 94.8498 100.639 93.6868C99.8584 92.5608 99.1534 91.3768 98.2864 90.3098C97.7664 89.6448 97.2764 88.9518 96.7294 88.3068L95.0624 86.3908C94.2034 85.4398 93.2724 84.5488 92.3784 83.6268C91.4164 82.7768 90.4764 81.9008 89.4754 81.1138C88.6824 80.5178 87.8774 79.9548 87.0734 79.4018L84.5624 77.8938C84.2014 77.6628 83.8194 77.4828 83.4394 77.2738C82.0424 76.4898 81.6824 76.1008 81.6714 75.4048C81.6694 75.2468 81.6444 75.0758 81.6704 74.9338C81.7554 74.4518 82.5154 74.4628 83.6324 74.9688C86.9484 76.4548 90.1374 78.6638 92.9884 81.2468C94.0944 82.1558 95.0524 83.2298 96.0774 84.2298C97.0484 85.2828 97.9974 86.3608 98.9134 87.4588L98.8734 87.4968Z" fill="#231F20"/>
<path fill-rule="evenodd" clip-rule="evenodd" d="M80.4628 38.9995L79.0778 39.1295L77.6878 39.1785L74.9088 39.2735C73.0568 39.3195 71.2028 39.1975 69.3558 39.1725C68.0078 39.0905 66.6598 38.9955 65.3168 38.8745C64.1288 38.7915 62.9548 38.5895 61.7838 38.3755C60.6138 38.1585 59.4378 37.9885 58.2768 37.7345L54.8238 36.8545C54.2518 36.7005 53.6698 36.5825 53.1058 36.4005L51.4198 35.8275L48.4178 34.8455C47.4248 34.4995 46.4678 34.0585 45.4968 33.6785C44.2658 33.1475 42.9678 32.7535 41.8028 32.0715C40.6048 31.4595 39.4608 30.7415 38.3318 30.0255C37.6318 29.5675 37.9098 29.3325 38.7128 29.3395C39.5108 29.3605 40.8578 29.5445 42.2018 30.2015C46.9928 32.4875 51.9858 34.3715 57.2298 35.6175C58.7758 36.0925 60.4138 36.2895 62.0518 36.5265C62.8728 36.6275 63.6888 36.7945 64.5168 36.8435C65.3448 36.9055 66.1708 36.9675 66.9938 37.0295C67.8998 37.0855 68.8018 37.2205 69.7108 37.2165L72.4368 37.2655C74.2558 37.3535 76.0718 37.1845 77.8918 37.1255C79.0138 37.1075 80.1238 36.9365 81.2398 36.8345C82.3538 36.7095 83.4748 36.6285 84.5748 36.4135C86.2478 36.1245 87.9378 35.8915 89.5848 35.4725C90.4118 35.2795 91.2428 35.1015 92.0628 34.8895C92.8718 34.6415 93.6788 34.3935 94.4838 34.1455C96.9798 33.3505 99.2988 32.2325 101.554 31.0445C102.046 30.7745 102.488 30.4525 102.975 30.1755C103.418 29.9075 103.808 29.7165 104.127 29.5565C104.434 29.3815 104.686 29.2465 104.924 29.1765C105.408 29.0475 105.762 29.0625 106.128 29.1695C106.294 29.2175 106.487 29.2415 106.614 29.3045C106.83 29.4125 106.812 29.6575 106.597 30.0445C106.381 30.4275 105.98 30.9825 105.321 31.5065C101.322 34.3745 96.4438 35.9805 91.5668 37.2165L88.8228 37.8445C87.9098 38.0615 86.9748 38.1685 86.0518 38.3345C85.1238 38.4725 84.2038 38.6655 83.2698 38.7565L80.4728 39.0505L80.4628 38.9995Z" fill="#231F20"/>
<path fill-rule="evenodd" clip-rule="evenodd" d="M64.5357 18.0021C66.4387 17.7381 68.3617 17.7141 70.2777 17.6431C72.1917 17.5121 74.1107 17.6831 76.0247 17.7111C77.4227 17.7251 78.8137 17.8871 80.2047 18.0011C85.0977 18.5701 89.9197 19.6391 94.5777 21.1791C96.6437 21.8641 98.7087 22.5911 100.71 23.4181L102.636 24.2311L104.508 25.1761C105.119 25.5421 105.716 25.8541 106.319 26.2951C106.926 26.7821 107.421 27.3521 107.802 28.0141C108.036 28.4341 108.022 28.7021 107.913 28.7231C107.799 28.7521 107.59 28.6021 107.251 28.4281C106.915 28.2511 106.441 28.0291 105.889 27.8571C105.599 27.7581 105.354 27.7291 105 27.6201C104.666 27.5021 104.325 27.3611 103.985 27.1901C101.518 26.0491 99.0267 24.9111 96.4537 23.9371C93.8647 23.0061 91.2397 22.1331 88.5457 21.4211C87.7387 21.2141 86.9187 21.0201 86.0917 20.8331C85.2647 20.6501 84.4137 20.5571 83.5687 20.4231C82.7217 20.3101 81.8757 20.1531 81.0207 20.0811C80.1667 20.0071 79.3127 19.9331 78.4627 19.8591C76.5977 19.6231 74.7147 19.6741 72.8367 19.5861C70.9577 19.5411 69.0797 19.6991 67.1977 19.7461C66.0417 19.8201 64.8937 19.9871 63.7397 20.1041C62.5897 20.2451 61.4287 20.3221 60.2957 20.5801C58.5767 20.9331 56.8287 21.1921 55.1217 21.6171C53.4277 22.0911 51.7357 22.5651 50.0547 23.0361C48.7727 23.4811 47.5307 24.0051 46.2887 24.5041C45.0517 25.0191 43.8007 25.4821 42.6157 26.1191C42.0887 26.3831 41.5707 26.6421 41.0397 26.9091C39.0487 27.8511 38.3527 28.0171 37.6807 27.7321C37.5277 27.6671 37.3427 27.6171 37.2297 27.5341C36.8487 27.2511 37.5247 26.5661 38.9737 25.7731C40.0457 25.1861 41.1457 24.6071 42.2647 24.0371L43.1097 23.6141L43.9867 23.2551C44.5767 23.0211 45.1677 22.7851 45.7607 22.5481C46.9527 22.0851 48.1507 21.6111 49.3687 21.1751C50.6137 20.8181 51.8627 20.4601 53.1127 20.1001C54.0487 19.8581 54.9627 19.5281 55.9197 19.3681L58.7737 18.8081C59.7287 18.6411 60.6707 18.3981 61.6357 18.2961L64.5247 17.9521L64.5357 18.0021Z" fill="#231F20"/>
<path fill-rule="evenodd" clip-rule="evenodd" d="M52.6033 112.209C53.5393 111.956 54.4793 111.731 55.4183 111.514C55.7603 111.43 56.0883 111.301 56.4333 111.234C57.6473 110.983 58.8743 110.803 60.0903 110.603C60.6293 110.512 61.1693 110.409 61.6973 110.284C62.3793 110.153 63.0383 109.83 63.8083 110.183C64.0453 110.278 64.0293 110.404 63.8933 110.701C63.7933 110.913 63.6943 111.125 63.6153 111.294C63.4953 111.501 63.3413 111.65 63.1603 111.744C61.8293 112.14 60.4813 112.438 59.0553 112.511C58.2053 112.572 57.3813 112.879 56.5463 113.081C55.6283 113.306 54.7103 113.533 53.7973 113.786C53.2383 113.945 52.6773 114.106 52.1243 114.286C51.2893 114.566 50.4433 114.838 49.6513 115.209C49.0353 115.496 48.4883 115.899 47.9243 116.262C47.8013 116.345 47.6903 116.443 47.5623 116.518C47.0703 116.752 46.7953 116.601 46.5043 116.305C46.4353 116.232 46.3603 116.167 46.3033 116.094C46.1163 115.855 46.1883 115.502 46.4543 115.102C46.8903 114.586 47.4573 114.275 48.0203 113.948C48.5883 113.621 49.1973 113.368 49.8063 113.116C50.7173 112.754 51.6543 112.455 52.5863 112.166L52.6033 112.209Z" fill="#231F20"/>
<path fill-rule="evenodd" clip-rule="evenodd" d="M97.0827 126.548C92.1987 128.157 87.0517 129.221 81.9377 129.748C80.0657 129.945 78.1897 130.128 76.3097 130.178C69.6757 130.337 63.0437 129.584 56.6297 128.02C53.7827 127.327 50.9577 126.486 48.2187 125.516C46.4267 124.901 44.6987 124.09 43.0537 123.171C41.4297 122.215 39.8337 121.108 38.6627 119.521C38.2997 119.028 38.2307 118.748 38.3117 118.716C38.4067 118.668 38.6577 118.848 39.1037 119.079C39.5367 119.322 40.1907 119.595 40.9757 119.875C41.7407 120.182 42.5957 120.581 43.5127 121.041C45.1027 121.903 46.7657 122.731 48.4217 123.325C50.1647 123.949 51.9287 124.511 53.7117 125.016C57.2767 126.026 60.9027 126.876 64.6067 127.457C69.0387 128.168 73.7397 128.194 78.3157 127.913C83.3477 127.595 88.3817 126.803 93.2347 125.428C96.2317 124.559 99.2137 123.578 102.08 122.381C103.163 121.924 104.233 121.437 105.258 120.89C106.271 120.339 107.288 119.741 108.061 118.999C108.459 118.641 108.758 118.213 108.853 117.857C108.947 117.505 108.84 117.195 108.512 116.859C107.866 116.185 106.717 115.744 105.662 115.347C102.252 114.176 98.6847 113.568 95.1307 112.961C94.3437 112.841 93.5727 112.724 92.7797 112.604C89.8537 112.075 88.9617 111.652 88.3947 111.09C88.2677 110.956 88.0917 110.819 88.0227 110.7C87.7867 110.313 89.0467 110.14 91.2717 110.218C92.9227 110.279 94.5597 110.578 96.2247 110.823C97.8857 111.094 99.5597 111.409 101.24 111.798C102.922 112.188 104.607 112.63 106.312 113.227C107.173 113.555 108.014 113.851 108.935 114.403C109.392 114.687 109.869 115.019 110.321 115.547C110.541 115.8 110.759 116.17 110.91 116.533C111.05 116.944 111.144 117.365 111.101 117.8C111.073 118.438 110.831 118.99 110.588 119.398C110.466 119.634 110.328 119.784 110.192 119.965C110.056 120.149 109.916 120.301 109.773 120.438C109.206 121.027 108.62 121.444 108.032 121.846C106.854 122.621 105.655 123.229 104.447 123.788C102.031 124.893 99.5767 125.78 97.1057 126.599L97.0827 126.548Z" fill="#231F20"/>
<path fill-rule="evenodd" clip-rule="evenodd" d="M91.8907 47.8485C92.1227 47.9295 92.3567 48.0125 92.5957 48.1095C92.9157 48.2435 93.3497 48.4425 93.6707 48.6695C94.0077 48.9015 94.2637 49.1865 94.4207 49.5355C94.6017 49.8955 94.4987 50.2585 94.4577 50.6435L94.0287 51.8275C93.9307 52.0945 93.8077 52.3465 93.6987 52.6055C93.4827 53.1265 93.2407 53.6315 92.9837 54.1265C92.4857 55.1265 91.9247 56.0875 91.3287 57.0225C90.1347 58.8905 88.7827 60.6465 87.2847 62.2755C85.9617 63.7085 84.5607 65.0885 82.9667 66.2535C81.5697 67.2855 80.0467 68.1835 78.3787 68.8155C77.5507 69.1275 76.6827 69.3105 75.8387 69.5575C74.9757 69.7335 74.0847 69.7865 73.2127 69.9005C69.6547 70.0315 66.2007 68.8335 63.3107 66.9965C60.7327 65.3565 58.4897 63.2625 56.5397 61.0025C54.0327 58.0995 51.8857 54.8485 50.4377 51.3005C49.9807 50.1965 50.3987 50.2015 51.1667 50.9345C51.9317 51.6725 53.0667 53.1035 54.2257 54.8755C56.2347 58.0515 58.6817 60.9395 61.4837 63.3435C64.2897 65.7235 67.5937 67.5225 71.1937 67.9935C73.3527 68.2625 75.5877 67.8245 77.6917 67.0565C79.7537 66.1965 81.6707 64.8635 83.3867 63.3355C87.1507 59.9665 90.2987 55.7175 92.1877 51.0185L92.3347 50.6235C92.3577 50.5425 92.4127 50.4655 92.4097 50.3785C92.3907 50.2935 92.3187 50.2345 92.2507 50.1865C92.1807 50.1375 92.1037 50.0975 92.0257 50.0585L91.9027 50.0025L91.6677 49.9105C91.0167 49.6665 90.3137 49.4695 89.6077 49.2915C88.1887 48.9395 86.7337 48.6685 85.2747 48.4365C80.5017 47.6945 75.6277 47.2805 70.8237 47.2865C67.0907 47.3055 63.4277 47.6315 59.8547 48.3345C59.0687 48.4925 58.3117 48.6855 57.5367 48.8845C54.6757 49.6485 53.8687 50.0105 53.0387 49.8065C52.8547 49.7685 52.6237 49.7565 52.4877 49.6935C52.0177 49.5185 52.9547 48.4515 55.1547 47.5855C58.3997 46.3235 61.8957 45.7965 65.4047 45.4985C68.9227 45.2195 72.4897 45.2325 76.0487 45.4215C78.6907 45.5635 81.3317 45.8125 83.9677 46.1735C86.6117 46.5565 89.2137 46.9645 91.8997 47.7985L91.8907 47.8485Z" fill="#231F20"/>
<path fill-rule="evenodd" clip-rule="evenodd" d="M91.3755 116.736C91.4025 116.726 91.4155 116.702 91.4105 116.676C91.4485 116.779 91.3155 116.217 91.1845 115.856C91.0495 115.464 90.8755 115.075 90.6875 114.688C90.2965 113.916 89.8125 113.161 89.2825 112.42C88.7515 111.677 88.1745 110.947 87.5845 110.206L86.6935 109.079C86.4065 108.711 86.1255 108.359 85.8275 108.007C84.9015 106.914 83.8545 105.933 82.7845 105.007C81.8355 104.195 80.8285 103.457 79.7565 102.872C78.7005 102.278 77.6065 101.945 76.4635 101.977C75.3255 102.005 74.1745 102.397 73.0795 102.971C71.9595 103.543 70.9805 104.257 70.0075 105.106C68.2955 106.593 66.7295 108.3 65.2605 110.026C63.3885 112.261 61.7145 114.679 60.2845 117.119C59.8815 117.889 59.6675 117.747 59.6335 116.879C59.6105 116.44 59.6855 115.84 59.8425 115.131C60.0235 114.435 60.3665 113.684 60.8335 112.939C61.6665 111.622 62.5845 110.384 63.5475 109.182C64.5145 107.983 65.5145 106.812 66.6205 105.731C67.7215 104.643 68.8575 103.592 70.1535 102.634C70.8305 102.147 71.5185 101.729 72.2415 101.369C72.9675 101.004 73.7435 100.687 74.5715 100.482C75.5565 100.228 76.6305 100.149 77.6755 100.295C78.7175 100.437 79.7205 100.826 80.5955 101.282C82.3545 102.196 83.9055 103.403 85.2925 104.727C86.8395 106.168 88.1135 107.871 89.3785 109.437C90.6545 111.043 91.9775 112.719 92.8205 114.75C92.9545 115.051 93.0515 115.374 93.1605 115.689L93.2915 116.195C93.3535 116.412 93.3825 116.655 93.4265 116.884C93.4435 117.214 93.3715 117.557 93.1335 117.811C92.9075 118.054 92.5645 118.28 92.3095 118.438C91.8685 118.702 91.4295 118.927 90.9825 119.134C90.0925 119.549 89.1865 119.899 88.2695 120.212C84.5795 121.456 80.6915 122.025 76.8525 122.107C73.8675 122.153 70.9155 121.978 67.9955 121.384C67.3545 121.248 66.7205 121.138 66.0845 120.951C63.7445 120.207 63.1015 119.695 62.7925 119.081C62.7225 118.939 62.6185 118.785 62.5955 118.665C62.5195 118.253 63.5285 118.354 65.2035 118.72C66.4495 118.986 67.6975 119.254 68.9625 119.488C70.2305 119.708 71.5175 119.875 72.8155 119.99C75.4145 120.202 78.0655 120.179 80.6935 119.861C82.6445 119.629 84.5835 119.244 86.4695 118.694C87.4125 118.42 88.3425 118.101 89.2395 117.733C89.6845 117.545 90.1285 117.353 90.5455 117.139C90.7595 117.035 90.9565 116.923 91.1545 116.813L91.3325 116.706L91.3755 116.736Z" fill="#231F20"/>
<path fill-rule="evenodd" clip-rule="evenodd" d="M74.3736 77.2265C74.0876 76.9085 73.9206 76.4975 73.8636 76.1795C73.7856 75.8575 73.7546 75.5015 73.7966 75.1425C73.8186 74.8785 73.8726 74.6045 73.9906 74.3495C74.4836 73.4375 75.5286 73.0995 76.3416 73.2545C76.7156 73.2945 77.0646 73.4165 77.4026 73.5595C77.8216 73.7545 78.2516 74.0455 78.3806 74.5165C78.4296 74.6565 78.1946 74.7715 77.9146 74.8505C77.6266 74.9325 77.3296 74.9835 77.1786 74.9275C76.7526 74.5735 76.2546 74.4095 75.7046 74.4075C75.3586 74.4215 75.1406 74.6985 75.0336 74.9885C74.8896 75.2965 74.9436 75.8395 75.0896 76.1955C75.1896 76.4015 75.3326 76.5805 75.5696 76.6575C75.9166 76.7825 76.4056 76.7345 76.7696 76.5125C77.0556 76.3495 77.2256 76.0145 77.1906 75.8665C77.1756 75.8345 77.1456 75.8205 77.1506 75.8025C77.1206 75.7605 77.1996 75.6195 77.3756 75.3885L77.4856 75.2265C77.5876 75.0715 77.8676 74.9985 78.1676 75.2935C78.3746 75.5385 78.4276 75.9345 78.3536 76.2515C78.2856 76.5835 78.1196 76.8405 77.9406 77.0385C77.5726 77.4425 77.1236 77.6635 76.6456 77.8005C75.9636 77.9895 74.9966 77.9305 74.3536 77.2475L74.3736 77.2265Z" fill="#231F20"/>
<path fill-rule="evenodd" clip-rule="evenodd" d="M81.4808 81.5067C81.8148 81.6827 82.0768 81.9747 82.2128 82.2107C82.3678 82.4457 82.4968 82.7227 82.5698 83.0267C82.6288 83.2457 82.6718 83.4837 82.6498 83.7287C82.5178 84.6227 81.7638 85.1967 81.0738 85.3037C80.7638 85.3777 80.4528 85.3857 80.1428 85.3757C79.7548 85.3497 79.3208 85.2527 79.0958 84.8997C79.0198 84.7967 79.1968 84.6047 79.4158 84.4237C79.6388 84.2377 79.8728 84.0617 79.9928 84.0487C80.3798 84.1697 80.7328 84.1657 81.1318 84.0707C81.3808 83.9937 81.4448 83.7517 81.4518 83.5357C81.4868 83.2987 81.3028 82.9017 81.1148 82.6867C80.9978 82.5687 80.8628 82.4757 80.6768 82.4797C80.4028 82.4757 80.0478 82.6347 79.8458 82.9017C79.6818 83.1007 79.6768 83.4047 79.7538 83.4587C79.7748 83.4677 79.8028 83.4557 79.7978 83.4607C79.8088 83.4377 79.7588 83.5977 79.6668 83.8647L79.6128 84.0517C79.5648 84.2307 79.3518 84.4057 78.9998 84.2617C78.7428 84.1287 78.5708 83.8057 78.5288 83.5167C78.4798 83.2147 78.5368 82.9497 78.6218 82.7317C78.7958 82.2857 79.0938 81.9737 79.4388 81.7187C79.9308 81.3607 80.7458 81.1107 81.4928 81.4797L81.4808 81.5067Z" fill="#231F20"/>
<path fill-rule="evenodd" clip-rule="evenodd" d="M75.6115 91.2544C75.2535 91.3764 74.8615 91.3644 74.5965 91.3004C74.3195 91.2514 74.0295 91.1544 73.7595 90.9984C73.5595 90.8894 73.3575 90.7564 73.1945 90.5724C72.6375 89.8604 72.7415 88.9184 73.1395 88.3444C73.2985 88.0684 73.5065 87.8374 73.7275 87.6204C74.0135 87.3564 74.3835 87.1084 74.7945 87.1894C74.9215 87.2044 74.9375 87.4654 74.9195 87.7484C74.9005 88.0384 74.8665 88.3284 74.7935 88.4254C74.4395 88.6224 74.1985 88.8814 73.9925 89.2354C73.8765 89.4694 74.0075 89.6824 74.1605 89.8364C74.3085 90.0254 74.7225 90.1654 75.0075 90.1764C75.1745 90.1734 75.3345 90.1394 75.4595 90.0024C75.6515 89.8054 75.7805 89.4384 75.7255 89.1084C75.6945 88.8524 75.4785 88.6394 75.3855 88.6584C75.3645 88.6674 75.3535 88.6964 75.3545 88.6894C75.3625 88.7124 75.2815 88.5664 75.1515 88.3154L75.0525 88.1474C74.9555 87.9904 74.9755 87.7144 75.3225 87.5584C75.5965 87.4634 75.9485 87.5614 76.1875 87.7304C76.4405 87.9024 76.5925 88.1264 76.6925 88.3374C76.8955 88.7724 76.9165 89.2024 76.8635 89.6274C76.7855 90.2324 76.4045 90.9944 75.6235 91.2814L75.6115 91.2544Z" fill="#231F20"/>
<path fill-rule="evenodd" clip-rule="evenodd" d="M122.544 26.4739C123.36 25.9829 124.356 26.1409 124.769 26.8279C126.815 30.2279 118.296 29.0289 122.544 26.4739" fill="#231F20"/>
</svg>
