<svg width="148" height="148" viewBox="0 0 148 148" fill="none" xmlns="http://www.w3.org/2000/svg">
<path fill-rule="evenodd" clip-rule="evenodd" d="M27.7777 93.5803C27.7267 93.6053 27.6687 93.6553 27.6557 93.6703L27.7137 93.6053C27.8127 93.4973 27.8157 93.4463 27.9597 93.2323C28.0127 93.1373 28.0547 93.0333 28.0847 92.9223C28.1407 92.8233 28.1767 92.7093 28.1827 92.5873L28.1817 92.4943C28.0517 95.0793 28.1437 93.2103 28.1137 93.7873H28.1107H28.1037L28.0897 93.7863L28.0357 93.7853L27.9267 93.7813L27.7097 93.7733L27.2627 93.7853C26.6587 93.8163 26.0267 93.9133 25.3777 94.0513C24.0737 94.3243 22.7127 94.7683 21.2217 95.1303C20.6197 95.2563 19.9787 95.5143 19.0977 95.7123C18.6627 95.8043 18.1717 95.8853 17.5757 95.8443C16.9937 95.8113 16.2347 95.5833 15.6837 95.0773C15.5567 94.9543 15.4337 94.8253 15.3177 94.6913C15.1757 94.4933 15.0477 94.2863 14.9477 94.0493C14.8597 93.7553 14.7777 93.4343 14.8177 93.1343C14.8457 92.8173 14.9327 92.5153 15.0437 92.3263C15.5117 91.4913 15.9717 91.2683 16.3577 90.9883C17.1367 90.5103 17.8407 90.2233 18.5477 89.9333L20.3667 89.2143C20.6127 89.1033 20.9277 88.9923 21.1107 88.7343C21.1887 88.6043 21.1677 88.4413 21.0847 88.3653C21.0037 88.2843 20.8927 88.2683 20.7867 88.2653C20.3537 88.2703 19.8537 88.4523 19.2257 88.5873C19.0497 88.6243 18.9517 88.6443 18.6637 88.6913C18.2367 88.7583 17.6657 88.8313 17.1287 88.8293C16.5757 88.8233 15.9677 88.7573 15.3487 88.4853C14.7227 88.2123 14.1677 87.7053 13.8547 87.0573C13.6837 86.7263 13.5687 86.2513 13.6517 85.7643C13.7497 85.2863 14.0087 84.8853 14.2587 84.6533C14.7727 84.1513 15.2727 83.9253 15.7547 83.7043C16.7207 83.3173 17.6557 83.0873 18.5837 82.8753C20.1957 82.5383 21.8127 82.1983 23.4257 81.8603L24.0067 81.7233C24.2137 81.6693 24.2317 81.6603 24.3477 81.6223C24.5337 81.5593 24.7167 81.4893 24.8807 81.3883C25.0407 81.3013 25.2107 81.1183 25.1037 80.9253C25.0497 80.7353 24.8847 80.6043 24.7227 80.5133C24.5067 80.3933 24.2627 80.3553 24.0297 80.3243C23.6497 80.2723 23.0907 80.2563 22.6137 80.2623C21.6107 80.2793 20.6017 80.3913 19.5517 80.5113C17.4337 80.6953 15.4347 80.9283 13.4507 81.3633C12.2137 81.5753 12.1957 81.1753 13.1177 80.3173C14.0347 79.4733 16.0937 78.5373 18.5807 78.3253C19.5937 78.2383 20.7137 78.0863 21.8547 78.0443C22.4327 78.0303 23.0087 78.0163 23.6187 78.0663C23.7697 78.0753 23.9207 78.0853 24.0787 78.1083L24.3387 78.1423C24.4657 78.1573 24.5947 78.1733 24.7247 78.2043C25.2157 78.3513 25.7657 78.4343 26.1727 78.6753C27.0777 79.0683 27.6147 79.7293 27.8427 80.4973L27.9767 81.0953C27.9357 81.2983 27.9707 81.5093 27.9137 81.7063C27.7837 82.0833 27.6107 82.4093 27.3197 82.6973C26.7517 83.2853 25.7357 83.6483 24.7837 84.0203C24.2247 84.2053 23.6867 84.3573 23.1507 84.4973C21.0207 84.9763 18.8697 85.3123 17.0887 85.9223C16.6607 86.0683 16.2567 86.2473 16.0847 86.3643C16.0667 86.3763 16.0677 86.3813 16.0537 86.3873L16.0367 86.3933C16.0437 86.4003 16.0197 86.3913 15.9957 86.3663L15.9457 86.3183C15.8757 86.2563 15.7917 86.2033 15.6947 86.1633C15.6067 86.1273 15.6317 86.1243 15.5807 86.1103C15.5627 86.1053 15.5427 86.1013 15.5197 86.1003C15.5347 86.1033 15.5557 86.1053 15.5717 86.1053C15.6157 86.1053 15.6027 86.0983 15.6727 86.0893C15.8667 86.0983 16.0997 85.9093 16.0517 85.9873C16.0947 86.1123 16.1767 86.2273 16.4067 86.3273C16.6537 86.4223 17.0577 86.4663 17.4987 86.4473C17.6347 86.4353 17.7657 86.4363 17.9077 86.4163C18.0687 86.3933 18.1317 86.4003 18.4247 86.3383C18.8877 86.2583 19.4737 86.1103 20.0227 85.9573C21.1277 85.6493 22.2887 85.2763 23.2387 85.0673C24.1977 84.8513 24.8617 84.8143 25.4107 84.8093C25.9567 84.8123 26.3917 84.8563 26.8297 84.9773C27.2677 85.0983 27.7757 85.3253 28.1497 86.0483C28.2887 86.4003 28.3617 86.7893 28.2857 87.0923C28.2367 87.3943 28.1237 87.6353 27.9857 87.8483C27.4517 88.6723 26.6477 89.3553 25.0387 90.1973C24.1047 90.6403 23.0317 91.0873 21.9137 91.5213L20.2267 92.1633L19.1757 92.5833C18.5637 92.8433 17.8987 93.1573 17.5667 93.4313C17.5357 93.4593 17.4747 93.4983 17.4777 93.5083C17.4667 93.5143 17.4807 93.5773 17.3147 93.4323C17.2497 93.3873 17.1737 93.3513 17.0907 93.3263C16.9837 93.3003 17.0287 93.2963 16.9797 93.2863C16.9667 93.2783 16.8847 93.2793 16.9127 93.2813C16.9447 93.2813 16.9697 93.2743 16.9887 93.2643C17.6317 92.8683 17.4077 93.0973 17.5437 93.1013C17.6897 93.2073 18.3057 93.1653 18.9297 92.9783L19.9697 92.6743L21.0537 92.4013C22.4227 92.0533 23.8397 91.5993 25.3617 91.3223C26.3177 91.1533 27.2327 91.0483 28.3337 91.1263C29.0017 91.2473 29.1917 91.4793 29.4807 91.7173C29.7417 91.9543 29.9427 92.2593 30.0957 92.6123C30.2367 92.9753 30.2987 93.4233 30.1967 93.8373C30.1067 94.2593 29.8827 94.6013 29.6557 94.8503C28.6907 95.7983 27.7197 96.0343 26.7867 96.2993C26.3147 96.4363 25.8527 96.5013 25.3867 96.5923C24.9377 96.6733 24.5887 96.7373 24.1787 96.8573C22.9907 97.2053 21.7867 97.6923 20.8247 98.3913C20.3487 98.7373 19.9377 99.1383 19.6897 99.5563C19.5787 99.7673 19.4957 99.9663 19.4577 100.181C19.4347 100.295 19.4327 100.391 19.4357 100.438C19.4387 100.447 19.4387 100.455 19.4367 100.465C19.4357 100.473 19.4377 100.467 19.4377 100.467C19.4217 100.469 19.3867 100.478 19.3627 100.487C19.2247 100.548 19.2167 100.548 19.1737 100.583C19.1957 100.562 19.1727 100.591 19.2437 100.485C19.2727 100.436 19.2657 100.423 19.3007 100.345C19.3147 100.319 19.3117 100.337 19.3167 100.335C19.3467 100.344 19.4367 100.352 19.5447 100.346C19.7677 100.332 20.0517 100.274 20.3397 100.189C20.9197 100.022 21.5257 99.7793 22.1277 99.5173C23.3547 98.9953 24.4997 98.3693 25.9027 97.8513C26.9607 97.5053 27.9667 97.2113 29.0597 96.9883C29.6067 96.8823 30.1617 96.7903 30.7777 96.7683C31.0887 96.7623 31.4147 96.7693 31.7897 96.8433C32.1617 96.9373 32.6357 97.0473 33.0787 97.5603C33.2527 97.7663 33.3027 97.8803 33.4167 98.0483C33.5097 98.2193 33.5957 98.4173 33.6667 98.6193C33.7977 99.0563 33.8237 99.6103 33.6447 100.095C33.2677 101.047 32.6367 101.455 32.1377 101.812C31.0937 102.481 30.1057 102.866 29.1317 103.274C28.3027 103.622 27.4907 103.963 26.6547 104.314C23.6687 105.624 23.1047 105.978 22.0477 105.986C21.8137 105.989 21.5547 106.068 21.3497 106.055C21.0167 106.049 20.9047 105.655 21.2147 104.942C21.5207 104.234 22.3107 103.323 23.4737 102.573C25.2107 101.502 27.0437 100.796 28.7027 100.053C29.5007 99.6983 30.3537 99.2743 30.6937 98.9523C30.7497 98.9123 30.7437 98.8923 30.7697 98.8703C30.7887 98.8583 30.7737 98.8513 30.7757 98.8613C30.8647 98.9413 30.9657 99.0143 31.0737 99.0783C31.3207 99.2883 31.6207 99.3023 31.4477 99.2863C31.4697 99.2913 31.2357 99.2903 31.1427 99.3403C31.1087 99.3623 30.9297 99.3943 30.8407 99.4363C30.7397 99.4733 30.5907 99.5533 30.6417 99.5373C30.6237 99.5243 30.6007 99.5003 30.5907 99.4773L30.5877 99.4733V99.4723C32.7547 97.9243 31.1847 99.0443 31.6677 98.7003L31.6577 98.7053L31.6227 98.7303C31.5997 98.7483 31.5817 98.7673 31.5667 98.7863C31.5367 98.8253 31.5347 98.8473 31.4407 98.9673C31.3737 99.0653 31.3257 99.1683 31.2947 99.2743C31.2817 99.3593 31.1637 99.5793 31.1297 99.7293C31.0607 99.9683 31.0917 99.8993 31.0937 99.9073L31.0377 99.9083C30.9827 99.8993 30.8167 99.9053 30.6657 99.9153C30.3457 99.9333 29.9407 100 29.5347 100.083C28.7157 100.249 27.8407 100.504 26.9827 100.784C26.3707 100.997 25.4357 101.463 24.5537 101.854C23.6427 102.262 22.7147 102.686 21.6077 103.047C21.1937 103.18 20.7497 103.305 20.1927 103.388C19.9147 103.429 19.5867 103.455 19.1977 103.434C18.7777 103.391 18.2627 103.328 17.6347 102.928C16.9947 102.517 16.5677 101.782 16.4407 101.207C16.3247 100.675 16.3417 100.247 16.3827 99.9163C16.4547 99.2783 16.6967 98.6253 16.9847 98.1013C17.5887 97.0513 18.3637 96.4013 19.1137 95.8633C19.8727 95.3343 20.6447 94.9423 21.4297 94.6163C22.2147 94.2853 23.0177 94.0493 23.8667 93.8883C24.8227 93.7103 25.4007 93.6973 26.0167 93.5723C26.6357 93.4783 27.1897 93.2813 27.4937 93.1313L27.5927 93.0753C27.6017 93.0613 27.5987 93.0563 27.6087 93.0523C27.7657 93.1523 27.9707 93.3583 28.1237 93.3853C28.1437 93.4013 28.2077 93.4163 28.2327 93.4163C28.2007 93.4123 28.1907 93.4163 28.1737 93.4213C28.0997 93.4253 28.0447 93.4443 27.9937 93.4713C27.9087 93.4963 27.8377 93.5363 27.7827 93.5783L27.7777 93.5803Z" fill="#231F20"/>
<path fill-rule="evenodd" clip-rule="evenodd" d="M119.141 36.4003C119.236 36.3103 119.264 36.2923 119.318 36.2053C119.376 36.1233 119.32 36.0243 119.237 36.0043C119.159 35.9703 119.061 35.9723 118.963 36.0043L118.828 36.0603C118.77 36.0873 118.602 36.1963 118.493 36.2593C118.248 36.4193 118.001 36.5953 117.758 36.7923C116.783 37.5823 115.865 38.5773 115.018 39.6283C114.183 40.7053 113.271 41.9393 112.091 43.0243C111.628 43.4213 111.199 43.8333 110.415 44.1713C110.233 44.2563 109.952 44.3173 109.72 44.3673C109.459 44.4093 109.095 44.3813 108.798 44.3243C108.495 44.2143 108.126 44.0493 107.928 43.8533C107.731 43.6503 107.522 43.4503 107.391 43.1963C107.099 42.6793 107.029 42.0983 107.079 41.6493C107.124 41.1833 107.253 40.8353 107.382 40.4943C107.66 39.8573 107.998 39.3633 108.344 38.8883C109.077 37.9363 109.868 37.1213 110.644 36.3473C111.042 35.9423 111.398 35.6273 111.731 35.2513C112.091 34.8583 112.441 34.4653 112.78 34.0673C113.456 33.2733 114.102 32.4553 114.61 31.6243C114.859 31.2143 115.087 30.7863 115.194 30.4233C115.25 30.2473 115.28 30.0793 115.277 29.9923C115.285 29.8883 115.259 29.9053 115.284 29.8813L115.689 29.8903C115.67 29.9303 115.686 29.9043 115.673 29.9623C115.658 30.0183 115.653 30.0733 115.654 30.1253C115.654 30.1543 115.672 30.1163 115.653 30.1323C115.628 30.1423 115.611 30.1353 115.575 30.1413C115.53 30.1593 115.483 30.1743 115.435 30.1873C115.218 30.2863 114.953 30.4273 114.693 30.6343C114.17 31.0253 113.649 31.5203 113.145 32.0313C112.135 33.0633 111.161 34.1823 110.185 35.3103L108.582 37.1663C108.008 37.8053 107.597 38.3203 106.626 39.2193C106.178 39.6243 105.704 39.9683 105.233 40.1323C104.998 40.2273 104.762 40.2633 104.511 40.2733C104.253 40.2583 104 40.1593 103.749 40.0773C103.258 39.8853 102.823 39.5243 102.593 39.0613C102.366 38.6003 102.302 38.0893 102.379 37.5443C102.458 36.8713 102.757 36.0403 103.071 35.4343C103.355 34.8433 103.592 34.4353 103.874 33.9553C104.427 33.0383 105.014 32.1703 105.595 31.3133C106.176 30.4583 106.756 29.6183 107.285 28.7833C107.542 28.3623 107.809 27.9563 108.032 27.5563C108.261 27.1633 108.429 26.7413 108.499 26.4553C108.63 26.1573 108.549 25.9803 108.717 25.8363C108.839 25.7273 109.334 25.7023 109.68 26.4083C110.017 27.1003 109.96 28.1093 109.739 29.1503C109.485 30.1873 108.973 31.2373 108.31 32.2543L106.578 34.8703L105.788 36.1283C105.485 36.6463 105.479 36.6793 105.482 36.6623C105.477 36.6643 105.458 36.6843 105.469 36.7063C105.474 36.7193 105.484 36.7213 105.495 36.7213C105.518 36.7083 105.479 36.7613 105.637 36.6083C107.015 35.1713 108.374 33.5153 109.829 31.9233C110.56 31.1223 111.32 30.3283 112.177 29.5633C112.613 29.1823 113.069 28.8053 113.62 28.4513C113.9 28.2733 114.198 28.0963 114.591 27.9473C114.952 27.8033 115.503 27.6673 116.149 27.7983C116.346 27.8553 116.543 27.9313 116.734 28.0253L116.933 28.1253L117.078 28.3053C117.509 28.8383 117.707 29.5543 117.66 30.0543C117.648 30.5893 117.52 30.9993 117.39 31.3843C117.112 32.1343 116.754 32.7413 116.384 33.3303C115.636 34.4913 114.804 35.5253 113.955 36.5353C113.558 37.0193 113.032 37.5993 112.595 38.0283C112.141 38.4823 111.706 38.9273 111.296 39.3813C110.89 39.8333 110.495 40.2933 110.183 40.7513C109.87 41.1913 109.631 41.6963 109.614 41.9073C109.607 41.9523 109.639 41.9603 109.567 41.9713C109.48 42.0253 109.719 41.8243 109.515 42.0083C109.475 42.0443 109.4 42.1713 109.405 42.1543C109.398 42.1553 109.391 42.1613 109.382 42.1713C109.363 42.1833 109.347 42.2793 109.383 42.1273C109.403 42.0293 109.372 41.9643 109.365 41.8753C109.381 41.8633 109.397 41.8583 109.416 41.8593C109.682 41.7983 110.25 41.3513 110.684 40.9143C111.635 39.9843 112.408 38.8903 113.366 37.7013C114.322 36.5573 115.355 35.4583 116.626 34.5253C116.954 34.2883 117.265 34.0863 117.665 33.8663C118.114 33.6083 118.633 33.3963 119.167 33.2623C120.225 32.9793 121.283 33.2063 122.068 33.6983C122.527 34.0233 122.89 34.6053 122.859 35.1863C122.866 35.7523 122.681 36.3253 122.344 36.8833C122.177 37.1593 121.998 37.4383 121.788 37.6993L121.474 38.0913L121.212 38.3883C120.868 38.7713 120.564 39.0713 120.231 39.4003C118.921 40.6683 117.554 41.8073 116.218 42.9523C115.236 43.8273 114.133 44.6653 113.51 45.5593C113.348 45.7943 113.19 46.0453 113.094 46.2693C113.048 46.3773 113.012 46.4823 113 46.5393C112.942 46.5913 113.124 46.5343 112.808 46.5793C112.721 46.5903 112.696 46.5793 112.633 46.6013C112.572 46.6213 112.519 46.6633 112.542 46.6423C112.542 46.6423 112.537 46.6373 112.529 46.6443C112.575 46.5983 112.606 46.5453 112.622 46.4933C112.636 46.4423 112.63 46.4053 112.679 46.2663C112.705 46.1623 112.693 46.2343 112.702 46.2143C112.722 46.2223 112.852 46.2093 112.956 46.1913C113.086 46.1533 113.2 46.1473 113.345 46.0893C113.485 46.0393 113.634 45.9983 113.701 45.9643C113.828 45.9083 114.106 45.6873 114.347 45.4953L115.097 44.8653L116.608 43.5553C117.624 42.6783 118.647 41.8033 119.752 40.9863C120.183 40.6693 120.622 40.3583 121.104 40.0733C121.593 39.7933 122.083 39.5083 122.802 39.3583C123.156 39.3033 123.66 39.2503 124.181 39.5903C124.662 39.9113 124.898 40.4463 124.953 40.7823C125.009 40.9823 125.016 41.1423 125.03 41.3093C125.034 41.4023 125.049 41.4553 125.042 41.5823C125.033 41.7163 125.015 41.8683 124.986 41.9853C124.864 42.4173 124.697 42.6883 124.539 42.9513C123.891 43.9473 123.188 44.6913 122.484 45.4653C121.778 46.2253 121.062 46.9583 120.35 47.6853C119.736 48.3283 119.134 48.9583 118.515 49.6063C117.373 50.7933 116.654 51.5423 116.096 52.0003C115.565 52.4783 115.179 52.6443 114.735 52.8073C114.538 52.8823 114.35 53.0463 114.209 53.1463C114.078 53.2253 113.974 53.2123 113.875 53.0383C113.776 52.8643 113.727 52.5293 113.775 52.1423C113.851 51.3283 114.379 50.3703 115.145 49.3283C116.338 47.8293 117.636 46.4823 118.923 45.1353C119.552 44.4713 120.184 43.8043 120.819 43.1343C121.124 42.8023 121.419 42.4703 121.684 42.1463C121.944 41.8323 122.204 41.4823 122.303 41.2823L122.325 41.2313C122.328 41.2253 122.335 41.2123 122.335 41.2123C122.342 41.2183 122.308 41.2093 122.349 41.2293L122.502 41.2953C122.683 41.3813 122.99 41.4283 123.1 41.4763C123.169 41.4993 123.241 41.5133 123.315 41.5213L123.429 41.5253L123.486 41.5223L123.501 41.5213C123.774 41.5223 121.187 41.5113 122.281 41.5143V41.5103C122.271 41.4653 122.267 41.4203 122.267 41.3753C122.267 41.3493 122.259 41.3713 122.259 41.3713C122.342 41.3583 122.562 41.2963 122.703 41.2353C123.162 41.1583 123.381 40.7833 123.264 40.9723C123.274 40.9593 123.207 41.1023 123.208 41.1573C123.201 41.2253 123.204 41.2933 123.185 41.4573C123.178 41.5933 123.189 41.7273 123.217 41.8543C123.228 41.8823 123.242 42.0993 123.237 42.0603L123.227 42.0663C123.148 42.0803 122.797 42.2363 122.483 42.4283C122.156 42.6193 121.802 42.8713 121.453 43.1253C120.036 44.1773 118.635 45.4483 117.182 46.7313L116.345 47.4593L115.885 47.8383L115.625 48.0393L115.484 48.1443L115.269 48.2853C114.988 48.4773 114.579 48.6383 114.395 48.6923C114.19 48.7683 113.96 48.8423 113.683 48.9033C113.46 48.9713 113.074 49.0173 112.723 49.0343C112.451 49.0223 112.198 48.9963 111.913 48.9243C111.714 48.8623 111.514 48.7743 111.329 48.6683C111.153 48.5783 110.96 48.4243 110.778 48.2163C110.394 47.7883 110.277 47.3973 110.192 46.9773C110.162 46.7863 110.168 46.6783 110.165 46.5233C110.167 46.3863 110.175 46.2133 110.194 46.1333C110.263 45.7043 110.373 45.4053 110.481 45.1423C110.702 44.6223 110.939 44.2363 111.2 43.8533C111.453 43.4813 111.778 43.0873 112.082 42.7753C112.381 42.4653 112.657 42.2033 112.941 41.9443C114.065 40.9373 115.16 40.0363 116.22 39.1043C116.748 38.6413 117.266 38.1773 117.762 37.7083L118.48 37.0033L118.819 36.6493L119.08 36.3593L119.141 36.4003Z" fill="#231F20"/>
<path fill-rule="evenodd" clip-rule="evenodd" d="M58.8047 67.1361C60.0427 64.5541 61.3597 61.9971 62.8057 59.5031C63.1887 58.8631 63.4927 58.3011 63.9617 57.6071C64.4537 56.8751 65.0327 56.3241 65.6167 55.8121C66.7977 54.8091 68.0447 54.0161 69.3057 53.2791C71.1457 52.2061 73.0017 51.2301 74.8927 50.3421C78.2277 48.7841 81.6027 47.3841 84.9337 45.9281C86.5977 45.1971 88.2497 44.4491 89.8617 43.6421C91.4687 42.8361 93.0537 41.9721 94.4457 40.9331C96.8817 38.9711 99.0647 36.5331 101.08 34.0821C102.381 32.4991 103.619 30.8511 104.893 29.2191C105.535 28.4081 106.162 27.5801 106.856 26.8041C107.557 26.0331 108.272 25.2741 109.014 24.5401C109.953 23.6361 110.003 23.9281 109.538 24.9611C109.305 25.4781 108.965 26.1951 108.539 27.0421C108.321 27.4611 108.097 27.9261 107.819 28.3891C107.53 28.8421 107.212 29.3161 106.858 29.7911C104.362 33.1651 101.845 36.6391 98.7797 39.7131C98.0187 40.4851 97.2247 41.2281 96.4067 41.9481C95.5357 42.7121 94.5837 43.3421 93.6447 43.9071C91.7537 45.0411 89.8097 45.9531 87.8537 46.8371C83.1807 48.9321 78.3417 51.0661 73.7337 53.3531C71.2367 54.6291 68.6797 55.9581 66.7197 57.7351C66.2097 58.1871 65.8657 58.6281 65.5127 59.1861L64.4337 61.0121C63.7287 62.2391 63.0557 63.4881 62.4057 64.7491C60.8007 67.8511 59.3467 71.0521 57.9107 74.2541C56.8427 76.6771 55.8307 79.1221 55.1777 81.6491C54.8647 82.9051 54.4807 84.2651 55.1017 84.9131C55.7547 85.6811 56.9417 85.6151 58.0287 85.0611C59.7327 84.2261 61.2047 82.7981 62.5227 81.3401C63.8467 79.8721 64.9607 78.2401 65.9477 76.5271C66.3807 75.7731 66.7457 75.0061 67.1137 74.2171C67.7957 72.7531 68.1377 71.7531 68.4637 71.0741C68.7987 70.3981 69.0647 70.0181 69.3867 69.7261C69.5317 69.5931 69.6857 69.4051 69.8127 69.3321C70.0277 69.2091 70.1387 69.4941 70.1657 70.1431C70.1737 70.7841 70.0897 71.7981 69.6857 73.0121C68.5117 76.6261 66.5297 80.0221 63.8397 82.9751C62.4787 84.4191 61.0447 85.8291 59.0357 86.8701C58.5337 87.1261 57.9707 87.3501 57.3237 87.4741C56.9917 87.5281 56.6757 87.5981 56.2907 87.5611L55.7397 87.5231C55.5537 87.4901 55.3627 87.4231 55.1767 87.3651C54.7877 87.2641 54.4607 87.0631 54.1467 86.8331C53.8257 86.6281 53.5317 86.3411 53.2877 85.9911C52.7827 85.2821 52.6427 84.4171 52.6607 83.7631C52.6937 82.7491 52.9067 82.0671 53.0657 81.3291C53.2437 80.5991 53.4507 79.8801 53.6737 79.1701C54.1267 77.7531 54.6527 76.3741 55.2157 75.0281C56.3577 72.3361 57.5317 69.7531 58.7527 67.1191L58.8047 67.1361Z" fill="#231F20"/>
<path fill-rule="evenodd" clip-rule="evenodd" d="M103.399 66.323C105.066 63.873 106.821 61.499 108.596 59.153C109.244 58.296 109.847 57.407 110.507 56.564C111.67 55.086 112.839 53.587 114.076 52.136C115.306 50.69 116.583 49.289 117.87 47.896C119.012 46.66 120.153 45.41 121.319 44.204C122.818 42.665 124.342 41.067 126.415 40.103C127.065 39.806 127.117 40.196 126.839 40.811C126.547 41.393 126.039 42.332 125.193 43.136C122.143 46.014 119.296 49.277 116.371 52.492C114.597 54.396 113.067 56.639 111.44 58.775C109.661 61.119 107.901 63.473 106.227 65.884C105.197 67.368 104.192 68.869 103.243 70.402C101.803 72.738 100.346 75.08 99.0924 77.486C98.1144 79.355 97.3524 81.279 96.5814 83.194C96.4224 83.618 96.2654 84.036 96.1064 84.465C95.4964 86.045 95.1674 86.495 94.5754 86.689C94.4454 86.735 94.3154 86.809 94.2104 86.826C93.8924 86.901 93.6904 86.088 93.9904 84.82C94.4664 82.957 95.0814 81.068 95.9144 79.259C96.7334 77.442 97.6814 75.666 98.6714 73.922C100.152 71.341 101.701 68.805 103.353 66.298L103.399 66.323Z" fill="#231F20"/>
<path fill-rule="evenodd" clip-rule="evenodd" d="M37.8283 75.6536C35.4513 76.1746 33.0663 76.6736 30.6753 77.1476C29.8033 77.3206 28.9392 77.5396 28.0662 77.6946C24.9882 78.2476 21.9013 78.7476 18.8123 79.2246C17.4413 79.4356 16.0683 79.6816 14.7103 79.9146C13.8393 80.0726 12.9623 80.2106 12.0813 80.3226C11.2113 80.5356 10.2753 80.2026 9.40025 80.3106C8.84725 80.3226 8.90425 80.1346 9.34525 79.8816C9.56325 79.7436 9.88425 79.6466 10.2543 79.3936C10.4593 79.2686 10.6583 79.1486 10.8563 79.0276C10.9633 78.9586 11.0763 78.9126 11.1863 78.8276C11.3043 78.7996 11.4243 78.7716 11.5483 78.7506C15.0583 78.1086 18.5963 77.5886 22.1813 77.0696C24.3273 76.7736 26.5203 76.2296 28.6823 75.7656C31.0583 75.2586 33.4323 74.7166 35.8003 74.1446L40.1702 73.0606C42.3712 72.4886 44.5923 71.9416 46.7773 71.3496C48.4783 70.8896 50.1142 70.3236 51.8392 69.8906C52.2202 69.7966 52.5912 69.6876 52.9912 69.6206C54.4512 69.3456 55.1502 69.6036 55.3722 70.2556C55.4262 70.3966 55.4762 70.5276 55.4702 70.6206C55.4502 70.7826 55.2893 70.8596 55.0923 71.0386C54.8923 71.2266 54.5752 71.3416 54.1092 71.4446C52.7222 71.7656 51.2023 72.2416 49.6733 72.6666C48.1213 73.0956 46.5543 73.5286 44.9813 73.9636C42.6263 74.5836 40.2302 75.1306 37.8442 75.7006L37.8283 75.6536Z" fill="#231F20"/>
<path fill-rule="evenodd" clip-rule="evenodd" d="M96.8711 96.3784C96.9171 96.2614 96.9351 96.1394 96.9761 96.0204C97.0001 95.9184 97.0041 95.7204 97.0231 95.7054C97.0201 95.6604 97.0511 95.6924 96.9491 95.4624C96.8541 95.2694 96.7321 95.0514 96.5901 94.8294C96.3091 94.3854 95.9801 93.9294 95.6361 93.4814C94.9481 92.5804 94.1951 91.6954 93.4301 90.8244C92.7791 90.0864 92.0671 89.4034 91.4001 88.6764C89.0401 86.1074 86.6081 83.6184 84.0691 81.1934C82.9441 80.0914 81.8231 79.0134 80.6591 78.0384C79.1571 76.7754 77.5761 75.7454 75.9681 74.7604C75.4711 74.4234 75.5621 74.2604 76.1881 74.0864C76.8251 73.8494 78.0251 73.8524 79.1011 74.4724C81.0161 75.5334 82.5601 76.9804 84.0631 78.3554C84.7961 79.0434 85.5291 79.7324 86.2651 80.4234C87.0241 81.1284 87.7391 81.8694 88.4411 82.6254C90.1181 84.4324 92.0181 86.1444 93.7461 87.9824C94.6941 88.9954 95.6261 90.0244 96.5251 91.0984C96.9751 91.6354 97.4171 92.1824 97.8421 92.7574C98.2641 93.3454 98.6831 93.9004 99.0361 94.6784C99.1601 94.9434 99.2561 95.3094 99.2631 95.6344C99.2351 97.5184 98.1551 99.0374 96.9011 100.043C96.3511 100.492 95.7511 100.859 95.1181 101.157C94.4621 101.438 93.8661 101.721 93.0281 101.78C92.6241 101.858 92.2541 101.753 91.8691 101.733C91.5191 101.634 91.1431 101.566 90.8211 101.424C90.1581 101.165 89.5451 100.841 88.9831 100.475C88.0901 99.9224 87.2801 99.3064 86.5031 98.6644C85.7231 98.0244 84.9681 97.3664 84.2731 96.6514C83.9721 96.3314 83.6701 96.0274 83.3891 95.6884C82.2941 94.4764 82.3071 93.7994 82.3681 93.2884C82.3911 93.1664 82.3911 93.0284 82.4241 92.9394C82.4811 92.7874 82.6611 92.7974 82.9731 92.9144C83.2771 93.0394 83.7741 93.2154 84.2361 93.5874C84.9171 94.1334 85.6021 94.6824 86.2931 95.2354C86.9511 95.8024 87.6001 96.3864 88.2701 96.9154C88.9371 97.4484 89.6111 97.9634 90.2771 98.3954C90.9381 98.8294 91.6311 99.1914 92.1951 99.3034C92.3101 99.3514 92.3931 99.3304 92.4881 99.3464C92.5771 99.3504 92.6841 99.3914 92.7491 99.3604C92.8231 99.3474 92.8971 99.3434 92.9751 99.3464C93.0861 99.3174 93.2051 99.2944 93.3301 99.2494C93.8291 99.0894 94.3501 98.8464 94.8201 98.5584C95.7761 97.9934 96.5381 97.2104 96.8151 96.3644L96.8711 96.3784Z" fill="#231F20"/>
<path fill-rule="evenodd" clip-rule="evenodd" d="M81.8401 103.453C82.7891 104.166 83.7971 104.8 84.8341 105.216C85.2141 105.37 85.6031 105.413 85.9651 105.496C86.6191 105.623 87.1701 105.628 87.6811 105.357C88.3721 104.981 89.0311 104.558 89.6531 104.095C90.2061 103.684 90.6891 103.188 91.0851 102.659C91.5761 101.955 91.9441 101.249 92.3691 100.49C92.5031 100.254 92.8271 100.347 93.1141 100.683C93.3981 101.009 93.6521 101.641 93.4491 102.245C93.1001 103.31 92.3911 104.168 91.6741 104.911C90.9441 105.66 90.0991 106.234 89.2141 106.702C88.7701 106.943 87.9821 107.437 87.2411 107.545C86.4991 107.683 85.7871 107.645 85.1371 107.51C83.7091 107.194 82.5041 106.555 81.3601 105.873C80.6601 105.446 79.9951 104.977 79.3461 104.498C78.3611 103.769 77.4481 102.958 76.5211 102.184C75.8001 101.581 75.0201 101.058 74.2981 100.43C74.1401 100.291 73.9661 100.171 73.8191 100.015C73.2731 99.4408 73.2541 99.1148 73.6931 98.5848C73.7921 98.4638 73.8851 98.3348 73.9961 98.2278C74.3791 97.8678 74.8861 97.8508 75.3231 98.1438C76.6181 99.0258 77.8371 100.066 79.0491 101.148C79.9591 101.936 80.8841 102.728 81.8691 103.403L81.8401 103.453Z" fill="#231F20"/>
<path fill-rule="evenodd" clip-rule="evenodd" d="M73.5615 109.35C74.5585 110.092 75.6015 110.777 76.6755 111.272C77.0645 111.45 77.4735 111.554 77.8465 111.665C78.1735 111.759 78.4935 111.823 78.7695 111.83C78.8995 111.825 79.0255 111.818 79.1305 111.792C79.2765 111.753 79.4875 111.661 79.6635 111.598C80.3945 111.307 81.1115 110.965 81.7475 110.514C82.3125 110.117 82.7985 109.613 83.1715 109.062C83.6365 108.34 83.9485 107.575 84.2405 106.828C84.3195 106.617 84.7175 106.586 85.1135 106.892C85.5005 107.186 85.8385 107.872 85.6425 108.527C85.3205 109.682 84.5785 110.619 83.7715 111.377C82.9515 112.135 82.0045 112.698 81.0185 113.087C80.7225 113.208 80.4315 113.327 80.1385 113.447L79.9125 113.545L79.5995 113.651C79.3885 113.725 79.1895 113.741 78.9825 113.781C78.1825 113.86 77.4745 113.739 76.8315 113.546C75.4215 113.105 74.2505 112.37 73.1185 111.621C72.4255 111.152 71.7635 110.651 71.1115 110.143C70.1245 109.372 69.1985 108.528 68.2635 107.715C67.5425 107.078 66.7475 106.531 66.0555 105.835C65.9005 105.686 65.7415 105.539 65.5975 105.374C65.0745 104.743 65.0455 104.402 65.3915 103.982C65.4705 103.885 65.5435 103.78 65.6325 103.7C65.9425 103.433 66.3695 103.503 66.7865 103.824C68.0815 104.757 69.3165 105.882 70.6135 106.977C71.5785 107.786 72.5585 108.593 73.5895 109.305L73.5615 109.35Z" fill="#231F20"/>
<path fill-rule="evenodd" clip-rule="evenodd" d="M57.1661 107.038C58.4301 108.186 59.7051 109.336 61.0571 110.375C61.5401 110.772 62.0821 111.073 62.5741 111.452C63.4531 112.098 64.3531 112.7 65.2731 113.246C66.2171 113.758 67.0841 114.13 68.1831 114.362C69.1081 114.574 70.0611 114.645 70.9241 114.495C72.0441 114.283 72.9051 113.725 73.6201 112.835C73.8491 112.569 74.1391 112.72 74.2741 113.194C74.4321 113.656 74.3391 114.543 73.6231 115.192C73.0001 115.757 72.1951 116.062 71.4371 116.232C70.6691 116.396 69.9161 116.413 69.1981 116.359C68.4791 116.303 67.7911 116.172 67.1331 116.009C66.8201 115.937 66.4591 115.82 66.1041 115.675C65.7391 115.546 65.4201 115.383 65.1221 115.204C63.6631 114.38 62.2221 113.583 60.9051 112.625C59.4571 111.583 58.0841 110.459 56.7541 109.292C55.9281 108.583 55.1371 107.836 54.3361 107.102C53.1401 105.971 51.9791 104.795 50.8371 103.621C49.9391 102.719 49.0161 101.863 48.1461 100.914C47.9611 100.697 47.7691 100.49 47.5911 100.261C46.9291 99.4194 46.9021 98.9734 47.2351 98.5504C47.3141 98.4494 47.3851 98.3364 47.4771 98.2564C47.7871 97.9894 48.2941 98.1764 48.7431 98.6924C50.2071 100.215 51.8071 101.841 53.4461 103.456C54.6661 104.654 55.9161 105.846 57.1961 106.999L57.1661 107.038Z" fill="#231F20"/>
<path fill-rule="evenodd" clip-rule="evenodd" d="M31.1145 102.03L35.6725 100.447C36.2295 100.255 36.7625 100.004 37.3245 99.824C39.3005 99.175 41.3225 98.632 43.3685 98.157C44.2825 97.96 45.1835 97.705 46.1135 97.528C46.7065 97.415 47.3145 97.275 47.9475 97.272C48.5825 97.306 49.2385 97.396 49.8545 97.716C50.2395 97.913 50.0275 98.188 49.6455 98.475C49.2625 98.736 48.7645 99.161 48.2075 99.303C46.1605 99.565 43.8755 100.141 41.5735 100.646C40.1855 100.954 38.8185 101.533 37.4435 102.02L32.8875 103.634L30.0795 104.651C28.6565 105.167 27.2275 105.685 25.8145 106.197C24.7145 106.605 23.6735 107.123 22.5185 107.486C22.2575 107.551 22.0165 107.647 21.7395 107.689C20.7325 107.865 20.2965 107.671 20.1155 107.161C20.0725 107.044 20.0205 106.928 20.0055 106.813C19.9805 106.619 20.0735 106.445 20.2225 106.298C20.3655 106.161 20.5825 106.024 20.8705 105.916C22.5805 105.138 24.5815 104.44 26.5765 103.67C28.0785 103.109 29.5875 102.545 31.0935 101.981L31.1145 102.03Z" fill="#231F20"/>
<path fill-rule="evenodd" clip-rule="evenodd" d="M29.1682 93.4437C28.5002 92.0517 27.9302 90.6127 27.4672 89.1377C27.2872 88.6047 27.0922 88.0717 26.9542 87.5237C26.5222 85.5747 26.2982 83.5597 26.4822 81.5597C26.5372 80.6737 26.6472 79.7867 26.7922 78.9117C26.9032 78.3557 26.9952 77.7827 27.1872 77.2407C27.3762 76.6967 27.6742 76.1957 28.0352 75.7437C28.2602 75.4587 28.6012 75.7067 28.8802 76.1557C29.1602 76.6107 29.3922 77.2347 29.3122 77.7887C28.7102 79.6607 28.5312 81.6267 28.4652 83.7207C28.4262 84.9827 28.8072 86.2627 29.1542 87.5107C29.5382 88.8897 30.0332 90.2547 30.6332 91.5787C31.0002 92.3957 31.4052 93.1987 31.8542 93.9777C32.5332 95.1557 33.2702 96.3207 34.1362 97.3577C34.8082 98.1637 35.6012 98.8397 36.3842 99.4607L36.9102 99.8337C37.5272 100.311 37.5582 100.522 37.5132 101.043C37.5072 101.164 37.5252 101.291 37.5222 101.407C37.5782 101.799 36.9032 102.014 36.1832 101.703C35.1482 101.247 34.3652 100.564 33.5962 99.8467C32.8412 99.1197 32.1612 98.3157 31.5452 97.4657C30.6262 96.2067 29.8392 94.8537 29.1222 93.4707L29.1682 93.4437Z" fill="#231F20"/>
<path fill-rule="evenodd" clip-rule="evenodd" d="M109.793 47.5288C109.521 46.9858 109.285 46.4118 108.93 45.9038L108.436 45.1138L107.851 44.3828C107.571 44.0178 107.229 43.7148 106.895 43.3978L106.045 42.5158L105.105 41.7138C104.51 41.1268 103.786 40.6998 103.103 40.2068C102.486 39.7828 101.772 39.5168 101.102 39.2028C100.226 38.8238 99.2982 38.5708 98.4652 38.0278C98.2042 37.8608 98.3392 37.5438 98.6952 37.2788C99.0492 37.0178 99.6462 36.7778 100.225 36.9008C100.727 37.0388 101.266 37.0788 101.738 37.3148C102.222 37.5148 102.704 37.7238 103.182 37.9438C103.667 38.1458 104.115 38.4318 104.562 38.7188C105.004 39.0138 105.457 39.2858 105.864 39.6348C106.349 40.0558 106.86 40.4508 107.389 40.8298C107.884 41.2558 108.388 41.6818 108.863 42.1278C109.348 42.6588 109.819 43.2068 110.264 43.7678C110.654 44.3758 111.113 44.9318 111.435 45.5778C111.642 45.9698 111.86 46.3528 112.051 46.7498L112.561 47.9698C113.014 49.2248 113.339 50.5238 113.522 51.8348C113.713 52.8448 113.838 53.8638 113.854 54.9208C113.838 55.1528 113.845 55.3848 113.814 55.6198C113.772 55.8368 113.74 56.0118 113.666 56.1558C113.589 56.2978 113.484 56.4008 113.392 56.4808C113.2 56.6398 112.995 56.6978 112.731 56.7078C112.61 56.7128 112.491 56.7288 112.384 56.7178C112.038 56.6818 111.774 56.2598 111.604 55.7088C111.396 54.1188 111.19 52.5708 110.886 50.9888C110.664 49.8148 110.263 48.6618 109.741 47.5588L109.793 47.5288Z" fill="#231F20"/>
<path fill-rule="evenodd" clip-rule="evenodd" d="M108.873 105.814C108.725 105.839 108.733 105.63 108.84 105.29C108.874 105.181 109.052 104.893 109.103 104.867C109.203 104.816 109.301 104.767 109.386 104.74C109.437 104.728 110.027 104.848 110.238 104.856C110.439 104.874 110.619 104.933 110.793 105.004C111.152 105.143 111.521 105.259 111.893 105.375C111.975 105.401 112.051 105.445 112.122 105.503C112.364 105.707 112.649 105.804 112.95 105.856C112.999 105.865 113.045 105.89 113.111 105.844C113.219 105.768 114.01 105.983 114.095 106.078C114.312 106.276 114.547 106.429 114.778 106.599C114.81 106.623 114.857 106.612 114.87 106.693C114.901 106.88 114.989 106.876 115.065 106.913C115.171 106.963 115.272 107.035 115.367 107.125C115.414 107.171 115.442 107.278 115.476 107.366C115.506 107.445 115.415 107.665 115.39 107.686C115.319 107.744 115.329 107.864 115.307 107.96C115.299 107.993 115.29 108.036 115.28 108.061C115.26 108.111 114.481 108.397 114.413 108.365C114.405 108.364 114.156 108.333 113.887 108.3C113.621 108.268 113.341 108.236 113.281 108.237C113.219 108.238 113.173 108.183 113.123 108.143C113.1 108.133 112.298 107.999 112.268 107.981C112.117 107.907 111.938 107.906 111.831 107.706C111.81 107.667 111.775 107.663 111.743 107.654C111.465 107.573 111.215 107.411 110.961 107.265C110.831 107.192 110.688 107.148 110.552 107.088C110.528 107.077 110.511 107.046 110.491 107.026C110.464 107.002 110.441 106.969 110.41 106.957C110.082 106.824 109.797 106.604 109.456 106.494C109.374 106.47 109.108 106.137 109.018 106.109C108.965 106.095 108.931 105.804 108.873 105.814" fill="#231F20"/>
<path fill-rule="evenodd" clip-rule="evenodd" d="M96.2906 117.452C96.1726 117.354 96.3886 117.268 96.8036 117.177C96.9356 117.148 97.3406 117.138 97.3986 117.166C97.5116 117.222 97.6216 117.279 97.6996 117.339C97.7486 117.373 97.9556 117.968 98.0346 118.173C98.1156 118.371 98.1256 118.568 98.1236 118.765C98.1176 119.163 98.1266 119.562 98.1106 119.955C98.1066 120.043 98.0826 120.129 98.0386 120.213C97.8876 120.5 97.8586 120.794 97.8706 121.093C97.8736 121.142 97.8566 121.191 97.9196 121.245C98.0236 121.336 97.9596 122.132 97.8896 122.227C97.7296 122.466 97.6216 122.71 97.4906 122.951C97.4716 122.985 97.4936 123.026 97.4106 123.05C97.2176 123.106 97.2396 123.187 97.2176 123.264C97.1856 123.369 97.1456 123.474 97.0726 123.575C97.0366 123.625 96.9256 123.666 96.8366 123.71C96.7556 123.75 96.4826 123.696 96.4546 123.676C96.3736 123.619 96.2396 123.645 96.1236 123.638C96.0856 123.634 96.0356 123.629 96.0036 123.626C95.9356 123.615 95.5206 122.938 95.5306 122.87C95.5296 122.863 95.5156 122.63 95.4996 122.379C95.4816 122.133 95.4596 121.875 95.4466 121.823C95.4316 121.767 95.4816 121.718 95.5146 121.667C95.5306 121.642 95.4536 120.91 95.4596 120.883C95.4976 120.737 95.4406 120.584 95.6186 120.452C95.6526 120.426 95.6466 120.395 95.6466 120.365C95.6426 120.11 95.7276 119.863 95.7866 119.614C95.8176 119.487 95.8016 119.357 95.8126 119.228C95.8136 119.205 95.8406 119.184 95.8526 119.161C95.8676 119.133 95.8916 119.105 95.8916 119.076C95.8886 118.772 95.9916 118.471 95.9226 118.168C95.9096 118.098 96.1036 117.768 96.0756 117.688C96.0626 117.643 96.3386 117.492 96.2906 117.452" fill="#231F20"/>
<path fill-rule="evenodd" clip-rule="evenodd" d="M35.7551 45.0736C35.6231 45.0946 35.6411 44.9066 35.7451 44.5946C35.7781 44.4946 35.9431 44.2326 35.9911 44.2106C36.0831 44.1666 36.1751 44.1256 36.2551 44.1046C36.3031 44.0936 36.8601 44.2446 37.0591 44.2816C37.2491 44.3186 37.4141 44.3986 37.5731 44.4886C37.8991 44.6626 38.2291 44.8396 38.5551 45.0146C38.6271 45.0536 38.6911 45.1086 38.7451 45.1766C38.9331 45.4096 39.1741 45.5576 39.4351 45.6716C39.4781 45.6906 39.5151 45.7226 39.5831 45.6986C39.6951 45.6576 40.3451 46.0626 40.4061 46.1536C40.5581 46.3786 40.7321 46.5676 40.8971 46.7736C40.9201 46.8026 40.9631 46.8036 40.9551 46.8786C40.9381 47.0526 41.0161 47.0706 41.0741 47.1206C41.1551 47.1916 41.2331 47.2686 41.2951 47.3696C41.3261 47.4196 41.3241 47.5236 41.3311 47.6126C41.3371 47.6926 41.1941 47.8806 41.1681 47.8936C41.0891 47.9316 41.0651 48.0476 41.0181 48.1336C41.0021 48.1626 40.9801 48.1996 40.9661 48.2226C40.9321 48.2706 40.2051 48.2976 40.1501 48.2596C40.1441 48.2576 39.9381 48.1666 39.7141 48.0686C39.4941 47.9736 39.2641 47.8766 39.2131 47.8636C39.1591 47.8496 39.1331 47.7896 39.1001 47.7426C39.0851 47.7196 38.4071 47.4646 38.3891 47.4406C38.2761 47.3426 38.1221 47.3106 38.0711 47.1116C38.0611 47.0726 38.0321 47.0616 38.0061 47.0476C37.7831 46.9266 37.6001 46.7406 37.4061 46.5716C37.3071 46.4856 37.1901 46.4286 37.0821 46.3566C37.0631 46.3436 37.0541 46.3136 37.0391 46.2926C37.0201 46.2676 37.0051 46.2356 36.9801 46.2206C36.7161 46.0636 36.4971 45.8336 36.2111 45.7146C36.1461 45.6856 35.9421 45.3726 35.8641 45.3456C35.8201 45.3296 35.8081 45.0646 35.7551 45.0736" fill="#231F20"/>
<path fill-rule="evenodd" clip-rule="evenodd" d="M53.9715 29.9397C53.8795 29.7537 54.1365 29.6647 54.6025 29.6247C54.7515 29.6127 55.1815 29.6977 55.2335 29.7557C55.3355 29.8687 55.4335 29.9827 55.4975 30.0917C55.5365 30.1577 55.5765 31.1057 55.6075 31.4277C55.6375 31.7427 55.5965 32.0407 55.5435 32.3367L55.2525 34.1347C55.2305 34.2667 55.1865 34.3957 55.1235 34.5187C54.9055 34.9437 54.8225 35.3937 54.7955 35.8497C54.7905 35.9247 54.7675 36.0007 54.8275 36.0837C54.9185 36.2227 54.7525 37.4267 54.6785 37.5757C54.4775 37.9437 54.3415 38.3247 54.1915 38.7067C54.1695 38.7607 54.1915 38.8217 54.1045 38.8667C53.9025 38.9717 53.9255 39.0967 53.9005 39.2167C53.8635 39.3847 53.8275 39.5527 53.7555 39.7197C53.7195 39.8027 53.6095 39.8827 53.5215 39.9637C53.4415 40.0387 53.1665 39.9917 53.1375 39.9637C53.0535 39.8827 52.9195 39.9437 52.8045 39.9487C52.7655 39.9497 52.7145 39.9517 52.6835 39.9477C52.6145 39.9437 52.1455 38.8877 52.1545 38.7687C52.1535 38.7437 52.0795 37.2497 52.0685 37.0327C52.0585 36.9407 52.1165 36.8567 52.1555 36.7717C52.1675 36.7297 52.1645 35.5107 52.1835 35.4647C52.2465 35.2227 52.2165 34.9647 52.4345 34.7517C52.4775 34.7107 52.4765 34.6597 52.4815 34.6097C52.5295 34.1867 52.6765 33.7837 52.8025 33.3797C52.8655 33.1727 52.8845 32.9587 52.9285 32.7477C52.9355 32.7107 52.9705 32.6777 52.9885 32.6417C53.0135 32.5967 53.0465 32.5547 53.0545 32.5067C53.1345 32.0067 53.3315 31.5317 53.3525 31.0237C53.3585 30.9077 53.6705 30.4077 53.6675 30.2717C53.6675 30.1957 54.0095 30.0137 53.9715 29.9397" fill="#231F20"/>
<path fill-rule="evenodd" clip-rule="evenodd" d="M67.7633 78.6635C67.2783 79.3835 66.7703 80.0865 66.2193 80.7525C66.0243 81.0005 65.8273 81.2475 65.6173 81.4825C64.8673 82.3025 64.0713 83.0775 63.2263 83.7885C62.8513 84.1095 62.4833 84.4235 62.1113 84.7415C61.6263 85.1335 61.1133 85.4955 60.5653 85.7955C60.3953 85.8895 60.3713 85.8085 60.4493 85.6355C60.5283 85.4645 60.6953 85.1875 60.9573 84.9515C61.4053 84.5105 61.8763 84.1085 62.3493 83.7055C62.8183 83.2985 63.2863 82.8865 63.7443 82.4585C64.3053 81.9575 64.7843 81.3355 65.2673 80.7415C65.7953 80.0835 66.3073 79.4115 66.7723 78.7045C67.0633 78.2725 67.3373 77.8295 67.5963 77.3765C67.9873 76.6905 68.3593 75.9875 68.6653 75.2645C68.8953 74.6985 69.0763 74.1275 69.2713 73.5575C69.3113 73.4325 69.3523 73.3025 69.3923 73.1795C69.5643 72.7155 69.6913 72.5925 69.8963 72.5475C69.9443 72.5385 69.9933 72.5205 70.0363 72.5195C70.1803 72.5175 70.2273 72.7485 70.1803 73.1245C70.0993 73.6795 69.9373 74.2265 69.7733 74.7825C69.5793 75.3275 69.3403 75.8625 69.0793 76.3905C68.6963 77.1755 68.2493 77.9335 67.7813 78.6735L67.7633 78.6635Z" fill="#231F20"/>
</svg>
