<svg width="148" height="148" viewBox="0 0 148 148" fill="none" xmlns="http://www.w3.org/2000/svg">
<path fill-rule="evenodd" clip-rule="evenodd" d="M74.9391 125.788C74.5641 125.874 74.3551 125.633 73.9491 125.402C73.8121 125.327 73.6271 125.038 73.7551 124.925C73.8701 124.825 74.0231 124.697 74.1581 124.62C74.2841 124.549 74.4181 124.48 74.5601 124.418C74.7581 124.267 77.2851 124.121 78.0991 124.307C78.9061 124.401 79.6851 124.626 80.4481 124.905C81.2191 125.208 81.9891 125.53 82.7441 125.962C83.1241 126.168 83.4951 126.404 83.8571 126.69C84.0391 126.832 84.2241 126.948 84.3981 127.126L84.7601 127.48C84.9011 127.621 85.0511 127.759 85.1561 127.904C85.3701 128.157 85.4761 128.446 85.6291 128.715C85.7481 128.99 85.9531 129.259 85.9761 129.529C86.0271 129.996 86.1321 130.404 86.1701 130.884C86.1971 131.118 86.2251 131.35 86.2521 131.579C86.2911 131.835 86.2671 131.934 86.2781 132.119C85.1521 132.273 83.9181 132.447 83.0921 132.765C82.9161 132.819 82.8261 132.845 82.7431 132.879C82.6541 132.915 82.5681 132.96 82.4931 133.031C82.3711 133.144 81.5581 133.439 80.6911 133.698C80.2511 133.806 79.8361 134.03 79.4731 134.137C79.1091 134.245 78.8211 134.283 78.7131 134.295C77.6201 134.341 76.5141 134.402 75.3871 134.309C75.2251 134.286 75.0521 134.323 74.9051 134.2C74.5711 133.925 74.2291 133.932 73.8841 133.88C73.4101 133.825 72.9261 133.657 72.4941 133.418C72.2721 133.304 72.1151 133.018 71.9471 132.83C71.7981 132.65 71.9991 132.442 72.0761 132.418C72.2961 132.377 72.1961 132.187 72.2231 132.071C72.2321 132.029 72.2441 131.975 72.2651 131.943C72.2761 131.924 72.4491 131.886 72.6931 131.804C72.9181 131.785 73.2241 131.705 73.5221 131.628C74.1101 131.521 74.7011 131.33 74.8201 131.319C74.8341 131.318 75.0411 131.294 75.3501 131.259C75.6641 131.216 76.0781 131.173 76.5111 131.082C77.3721 130.929 78.2891 130.654 78.4721 130.589C78.6651 130.534 78.8881 130.584 79.1041 130.588C79.1281 130.586 79.3201 130.561 79.5891 130.495C79.8541 130.405 80.2011 130.287 80.5481 130.169C81.2501 129.925 81.9501 129.68 82.0031 129.662C82.0611 129.66 82.1951 129.605 82.1631 129.62C82.1681 129.623 82.1861 129.651 82.3351 129.726L82.3511 129.733C82.3971 129.755 82.3981 129.746 82.4031 129.744C82.3701 129.68 82.3731 129.649 82.3701 129.6L82.3571 129.517C82.3281 129.455 82.4131 129.552 82.2281 129.329C81.9121 129.033 81.5461 128.786 81.1511 128.536C81.0821 128.489 81.0301 128.415 80.9671 128.356C80.8861 128.284 80.8021 128.209 80.7071 128.158C79.7221 127.619 78.6651 127.059 77.5231 126.806C77.2651 126.764 76.0851 126.148 75.7781 126.144C75.6941 126.135 75.5261 126.027 75.3521 125.928C75.1871 125.846 75.0131 125.772 74.9391 125.788" fill="#231F20"/>
<path fill-rule="evenodd" clip-rule="evenodd" d="M53.6842 39.9801C53.1992 39.4901 53.0052 38.9211 52.9232 38.3081C52.8992 38.1111 53.1592 37.9191 53.3282 38.0401C53.6552 38.2771 53.9952 38.5131 54.3072 38.7871C54.3992 38.8721 55.1342 39.6211 55.8792 40.5791C56.6392 41.5211 57.3642 42.7251 57.6532 43.3951C58.2462 44.6621 58.5792 46.1711 58.3942 47.7151C58.2242 49.2851 57.4982 50.7801 56.5342 51.9241C55.5122 53.1671 54.2732 53.9301 53.1702 54.6051C52.6762 54.9091 52.1862 55.1751 51.7142 55.4281C50.9042 55.8581 50.1882 56.3511 49.6932 56.9231C49.1722 57.5211 48.9902 58.0451 48.8672 58.9711C48.8242 59.2511 48.7822 59.5491 48.8362 59.8441C48.8572 59.9661 48.8532 60.3501 48.8482 60.9371C48.8372 61.5171 48.8292 62.3271 48.6532 63.2271C48.4772 64.1291 48.0682 65.0351 47.6522 65.6561C47.2312 66.2861 46.8612 66.6611 46.6992 66.8211C45.8882 67.5441 45.1502 67.9981 44.3432 68.4841C43.5432 68.9471 42.7202 69.3621 41.8512 69.6861C41.6072 69.7821 41.3512 69.9111 41.0962 69.9161C40.4972 69.9121 39.9792 70.1201 39.4142 70.2381C38.6392 70.4021 37.8262 70.4811 37.0262 70.3491C36.6302 70.3081 36.2552 70.1271 35.8992 69.9671C35.5782 69.8261 35.8222 69.5741 35.9362 69.5541C36.2772 69.5041 36.0342 69.3261 36.0292 69.2031C36.0272 69.1611 36.0242 69.1051 36.0452 69.0741C36.0562 69.0541 36.3152 69.0341 36.6862 69.0051C36.8732 68.9731 37.0892 68.9351 37.3202 68.8941C37.5502 68.8471 37.7932 68.7561 38.0362 68.7051C39.0152 68.4501 39.9562 67.9331 40.1522 67.8731C40.1742 67.8561 40.5172 67.7271 41.0112 67.4771C41.5072 67.2391 42.1432 66.8541 42.7662 66.4251C43.3852 65.9951 43.9912 65.4961 44.3972 65.0901C44.7562 64.7341 45.0102 64.3481 45.0692 64.2431C45.2192 63.9991 45.4042 63.7891 45.5462 63.5501C45.6042 63.4851 45.9172 62.6551 45.9152 61.4681C45.9112 60.2921 45.9842 58.7891 46.0292 58.6891C46.1272 58.1081 46.2132 57.5681 46.4672 56.8801C46.5802 56.5561 46.7642 56.2641 46.9312 55.9711C47.1332 55.7111 47.3322 55.4341 47.5752 55.2301C47.7662 55.0731 47.9182 54.8551 48.0912 54.6891C49.5752 53.1871 51.2792 52.4691 52.6752 51.5881C53.3882 51.1361 54.0142 50.6711 54.4802 50.1301C54.5652 50.0241 54.6742 49.9371 54.7712 49.8381C54.8922 49.7141 55.0352 49.5981 55.1102 49.4481C56.1352 47.9971 56.3082 46.1231 55.6022 44.3271C55.5392 44.1201 55.3442 43.5111 55.1002 42.8841C54.8652 42.2561 54.5442 41.6341 54.3912 41.4121C54.2372 41.1571 53.8832 40.1781 53.6842 39.9801" fill="#231F20"/>
<path fill-rule="evenodd" clip-rule="evenodd" d="M90.6083 69.382C90.0343 68.823 89.3373 68.469 88.5843 68.166C88.3463 68.067 88.3703 67.812 88.6903 67.779C89.3013 67.718 89.9773 67.743 90.6403 68.033C90.7273 68.09 91.2383 68.282 91.7303 68.927C92.2193 69.56 92.4803 70.682 92.2123 71.705C91.9833 72.753 91.3773 73.637 90.7273 74.341C90.0573 75.069 89.2263 75.476 88.8173 75.702C87.9413 76.178 87.9003 76.29 87.6633 77.02C87.4733 77.7 87.4073 78.565 87.3603 79.447C87.2543 81.256 87.4343 83.278 86.7673 85.477C86.5793 86.022 86.3493 86.569 86.0203 87.08C85.8533 87.333 85.6903 87.589 85.4803 87.812L85.1783 88.156L84.8883 88.428C84.1283 89.16 83.2953 89.801 82.4183 90.349C81.6423 90.845 80.8163 91.249 79.9743 91.578C77.0763 92.686 74.0673 93.324 71.0013 93.425C70.4913 93.46 69.9683 93.414 69.4693 93.478C69.0363 93.499 66.8053 93.504 64.3743 92.672C63.1633 92.222 62.0583 91.485 61.2963 90.753C60.5293 90.022 60.0823 89.333 59.9303 89.072C59.1693 87.778 58.7173 86.261 58.8123 84.686L58.8843 84.098C58.9283 83.901 58.9863 83.702 59.0403 83.506C59.1243 83.109 59.3323 82.741 59.5173 82.377C59.9443 81.681 60.5103 81.09 61.1183 80.688C61.4573 80.427 61.8143 80.202 62.1673 80.078C62.9853 79.849 63.6903 79.489 64.4133 79.179C65.4053 78.749 66.3693 78.338 67.1523 77.762C67.3443 77.619 67.5483 77.488 67.7223 77.331C67.9233 77.19 68.0893 77.02 68.2373 76.826C68.5253 76.483 68.6373 76.78 68.5783 76.95C68.4093 77.423 68.7103 77.138 68.8303 77.136C68.8703 77.139 68.9223 77.142 68.9363 77.178C68.9403 77.189 68.8993 77.298 68.8203 77.485C68.7573 77.685 68.5773 77.9 68.3913 78.195C67.9713 78.732 67.2853 79.339 66.5463 79.81C65.8093 80.285 65.0523 80.703 64.4693 81.038C63.8893 81.371 63.4873 81.632 63.3533 81.709C63.3303 81.732 62.8133 81.998 62.2773 82.485C62.0073 82.726 61.7663 83.031 61.5663 83.367C61.5023 83.553 61.4063 83.726 61.3583 83.929C61.3403 84.145 61.2523 84.33 61.2663 84.57C61.2033 85.481 61.5163 86.479 61.9313 87.184C62.3433 87.899 62.7893 88.363 62.9473 88.505C63.2623 88.821 63.5873 89.138 63.9373 89.433C63.9863 89.455 64.3323 89.705 64.8873 89.953C65.4403 90.208 66.1963 90.396 67.0873 90.553C68.8183 90.852 70.6113 90.789 70.7443 90.786C72.1643 90.803 73.5713 90.573 74.9913 90.452C75.2753 90.442 75.5513 90.35 75.8283 90.279C78.1963 89.668 80.4823 88.693 82.3713 87.235C82.6263 87.063 82.8293 86.838 83.0593 86.641C83.3053 86.433 83.4723 86.236 83.6303 86.048C83.9363 85.644 84.1683 85.179 84.3403 84.659C84.3893 84.462 84.4833 84.284 84.5333 84.079C84.6013 83.825 84.6783 83.567 84.7083 83.291C84.8923 81.862 84.8413 80.303 84.9913 78.637C85.0683 77.799 85.2183 76.95 85.5623 76.045C85.7523 75.597 86.0013 75.11 86.4213 74.707C86.8273 74.303 87.3143 74.045 87.6993 73.871C88.0963 73.677 88.9473 73.472 89.5873 72.882C90.2923 72.295 90.7123 71.475 90.7563 71.159C90.7983 70.984 90.9353 70.611 90.9073 70.233C90.8993 69.854 90.7233 69.499 90.6083 69.382" fill="#231F20"/>
<path fill-rule="evenodd" clip-rule="evenodd" d="M52.8929 30.9065C48.0189 32.9685 43.5749 36.0635 39.9519 39.9275C36.3209 43.7875 33.5039 48.3855 31.6409 53.3305C27.8819 63.2145 28.0309 74.5365 32.1949 84.2785C34.2469 89.1515 37.2809 93.6085 41.0419 97.3205C44.8009 101.038 49.2749 104.016 54.1339 106.082C58.9929 108.151 64.2409 109.31 69.5279 109.446C74.8139 109.589 80.1329 108.683 85.0739 106.787C90.0039 104.884 94.5859 102.036 98.4179 98.3775C102.256 94.7275 105.333 90.2875 107.423 85.4255C109.521 80.5655 110.636 75.2935 110.728 70.0095C110.828 64.7225 109.905 59.4345 108.088 54.4815C106.302 49.5675 103.68 44.8295 100.132 40.8975C96.6099 36.9415 92.2549 33.7445 87.4649 31.5135C77.8719 27.0245 66.6409 26.4065 56.5749 29.5535C53.7579 30.4235 54.7389 32.7935 57.3229 31.9635C66.8039 28.9955 77.4039 29.5855 86.3969 33.7995C90.8909 35.8925 94.9599 38.8825 98.2509 42.5775C101.573 46.2705 104.003 50.6425 105.718 55.3475C107.43 60.0125 108.3 64.9955 108.206 69.9625C108.119 74.9285 107.071 79.8755 105.106 84.4285C103.147 88.9845 100.268 93.1375 96.6779 96.5515C93.0929 99.9735 88.8059 102.64 84.1719 104.431C79.5389 106.209 74.5549 107.059 69.5909 106.924C64.6269 106.797 59.6899 105.707 55.1199 103.761C45.9579 99.9035 38.3409 92.4685 34.5179 83.2965C30.6119 74.1695 30.4649 63.5105 34.0009 54.2185C35.7529 49.5725 38.3959 45.2615 41.7919 41.6535C45.1809 38.0395 49.3259 35.1545 53.8849 33.2265C54.8649 32.7815 55.1329 31.9805 54.9239 31.3965C54.7049 30.7905 53.9459 30.4245 52.8929 30.9065" fill="#232020"/>
<path fill-rule="evenodd" clip-rule="evenodd" d="M55.9556 20.4392C47.6226 22.5062 39.8676 26.8382 33.7326 32.8562C33.5056 33.0522 35.1776 34.7282 35.3676 34.5232C41.1996 28.8002 48.5876 24.6692 56.5336 22.7002C56.7476 22.6422 56.1796 20.3662 55.9556 20.4392" fill="#232020"/>
<path fill-rule="evenodd" clip-rule="evenodd" d="M27.0213 41.0743C23.7783 46.0683 21.4633 51.6543 20.1873 57.4633C20.1243 57.6613 22.4383 58.1573 22.4663 57.9653C23.6843 52.4243 25.8913 47.1003 28.9793 42.3453C29.0663 42.2183 27.1043 40.9333 27.0213 41.0743" fill="#232020"/>
<path fill-rule="evenodd" clip-rule="evenodd" d="M19.0269 66.7126C18.8559 71.9456 19.5009 77.2056 20.9389 82.2406C20.9709 82.4206 23.2439 81.7616 23.1839 81.6006C21.8119 76.7976 21.1969 71.7806 21.3599 66.7886C21.3689 66.6536 19.0249 66.5686 19.0269 66.7126" fill="#232020"/>
<path fill-rule="evenodd" clip-rule="evenodd" d="M25.3939 92.9517C28.6619 98.7787 33.1639 103.898 38.4799 107.926C43.7939 111.962 49.9039 114.921 56.3399 116.656C62.7829 118.371 69.5519 118.812 76.1649 118.023L78.6439 117.695C79.4719 117.601 80.2739 117.357 81.0909 117.195L83.5299 116.649C84.3329 116.429 85.1209 116.153 85.9159 115.907C89.1239 114.994 92.1839 113.614 95.1169 112.03C95.9379 111.593 94.7469 109.547 93.9939 109.983C91.1979 111.493 88.2779 112.814 85.2089 113.682C84.4479 113.917 83.6959 114.182 82.9289 114.394L80.5969 114.913C79.8169 115.068 79.0509 115.305 78.2579 115.392L75.8899 115.705C69.5689 116.459 63.0979 116.039 56.9389 114.399C50.7889 112.741 44.9559 109.913 39.8919 106.067C34.8249 102.227 30.5419 97.3577 27.4319 91.8127C27.0789 91.2237 25.0079 92.3267 25.3939 92.9517" fill="#232020"/>
<path fill-rule="evenodd" clip-rule="evenodd" d="M31.6427 67.4801C31.6457 68.1081 31.6767 68.7361 31.7227 69.3581L31.7577 69.8251L31.7967 70.2081C31.8017 70.2451 31.7827 70.3021 31.8307 70.3141L31.8837 70.3481L32.2727 70.5141C32.5367 70.6371 32.8177 70.7221 33.0937 70.8191C33.6507 70.9991 34.2257 71.1401 34.8137 71.2191C37.1617 71.5451 39.6427 71.1791 41.7677 70.1351C42.5307 69.7701 43.2687 69.2261 44.0187 68.7301L45.0487 67.8921C45.3947 67.6141 45.6727 67.2831 45.9947 66.9871C47.0447 65.8811 47.8467 64.5941 48.2197 63.1331C48.6187 61.6631 48.5627 60.1091 48.6297 58.3161L48.7007 57.6121C48.7567 57.3581 48.8017 57.1101 48.8777 56.8551C49.0007 56.6051 49.0587 56.3081 49.2907 56.0421C49.4997 55.7531 49.7557 55.5781 49.9637 55.4271C50.7817 54.9091 51.5097 54.5861 52.2197 54.1761C53.6257 53.3881 54.8927 52.4301 55.7327 51.1511C57.2907 48.8981 57.1027 45.7701 56.1697 43.1751C55.5477 41.4841 54.6047 39.8971 53.4417 38.4971C52.2677 37.1381 50.9197 35.7771 49.3907 35.0541C49.1497 34.9361 49.0017 34.8891 48.8997 34.8261C48.7977 34.7611 48.7457 34.6881 48.7527 34.6181C48.7597 34.5471 48.8277 34.4751 48.9727 34.4061C49.1187 34.3301 49.3477 34.2691 49.6257 34.2771C50.7687 34.2421 52.8117 34.9881 54.4237 36.7061C55.8387 38.2201 57.0577 39.9441 57.8507 41.9111C58.6327 43.8771 59.0327 46.0291 58.8077 48.2291C58.6057 50.4311 57.4487 52.6511 55.7857 54.0661C54.9717 54.7961 54.0757 55.3841 53.1807 55.8811L51.8657 56.5771C51.6597 56.6861 51.4427 56.7961 51.2717 56.8991C51.0777 57.0001 50.9347 57.1181 50.8767 57.1471C50.8197 57.1691 50.7887 57.2911 50.6997 57.4671C50.6577 57.6791 50.5897 57.8721 50.5777 58.1421C50.5177 58.6361 50.5257 59.2321 50.5187 59.8241C50.5177 61.0241 50.4757 62.3341 50.1567 63.6191C49.8487 64.9071 49.2667 66.1331 48.5217 67.2191C48.1237 67.7391 47.7357 68.2731 47.2637 68.7121C47.0347 68.9391 46.8177 69.1831 46.5777 69.3921L45.8397 69.9961C45.3117 70.4611 44.7197 70.8081 44.1497 71.1971C43.5997 71.5921 42.9337 71.9221 42.2947 72.2091C40.9977 72.7851 39.6167 73.1221 38.2257 73.2811C36.8337 73.4391 35.4207 73.3921 34.0447 73.1241C33.3537 73.0111 32.6767 72.8131 32.0127 72.5841C31.6757 72.4681 31.3697 72.3301 31.0227 72.1841L30.3447 71.8351L30.0067 71.6611C29.9307 71.6471 29.9377 71.5711 29.9257 71.5101L29.8947 71.3221C29.8487 71.0221 29.7917 70.6881 29.7657 70.4151L29.7007 69.7931C29.6627 69.3781 29.6307 68.9641 29.6137 68.5511C29.5707 67.7241 29.5517 66.8971 29.5737 66.0711C29.5977 64.4201 29.7277 62.7721 29.9767 61.1411C30.3407 58.6681 30.9687 56.2291 31.8477 53.8841L32.5607 52.1481C32.8207 51.5801 33.1117 51.0261 33.3847 50.4641C33.6427 49.8951 33.9857 49.3721 34.2967 48.8321L34.7717 48.0271C34.8777 47.8711 35.0187 47.5291 35.1637 47.2671C36.9587 43.8581 39.0357 40.6691 41.7567 37.9001C42.3457 37.2821 42.9697 36.7181 43.6347 36.1591C44.2697 35.6631 44.8277 35.2841 45.3097 34.9951C45.8097 34.7301 46.2237 34.5341 46.5747 34.3971C47.2867 34.1401 47.7767 34.1671 48.1947 34.2911C48.3877 34.3501 48.6197 34.3901 48.7467 34.4771C48.9627 34.6231 48.8177 34.9131 48.4047 35.2981C48.2007 35.4961 47.9197 35.6961 47.5877 35.9371C47.2667 36.2021 46.8867 36.4881 46.4507 36.7891C45.1997 37.7591 43.9967 38.8201 42.8807 40.0111C41.7757 41.2131 40.7407 42.5101 39.7777 43.8791C38.8197 45.2481 37.9207 46.6931 37.1387 48.1741L36.8577 48.7241L36.8287 48.7841C36.8117 48.8161 36.7817 48.8841 36.7557 48.9241L36.6157 49.1621L36.4557 49.4321L35.8127 50.5121C35.3707 51.2251 35.0497 52.0071 34.6567 52.7501C32.5917 57.2981 31.5787 62.4001 31.6947 67.4721L31.6427 67.4801Z" fill="#231F20"/>
<path fill-rule="evenodd" clip-rule="evenodd" d="M70.1635 29.9932C70.0625 29.9932 69.9365 29.9972 69.7775 30.0172L69.6495 30.0352C69.5985 30.0352 69.5475 30.0582 69.5945 30.0782C69.6395 30.1072 69.6965 30.1272 69.7605 30.1512L70.7965 30.5122C71.3325 30.7042 71.8705 30.9132 72.4155 31.1972C72.6895 31.3462 72.9625 31.4962 73.2425 31.7162C73.4885 31.8972 73.9075 32.3002 74.0755 32.7352C74.2655 33.1752 74.2535 33.6882 74.0445 34.1202C74.0135 34.2352 73.9405 34.3362 73.8775 34.4412L73.7285 34.6782C73.6335 34.8252 73.4925 34.9692 73.3705 35.1092C72.8165 35.7052 71.9405 35.9062 71.4065 35.9722C70.4145 36.0862 69.9805 36.3122 69.4765 37.0092C68.9955 37.6902 68.6425 38.5062 68.5935 39.2862C68.4485 40.6812 69.3015 42.0442 70.5885 42.9292C71.2225 43.3792 71.9505 43.7372 72.7065 43.9962C73.4205 44.2442 74.2275 44.3232 75.0455 44.3352C76.6935 44.3582 78.3925 44.0562 80.1495 43.8612C81.0325 43.7742 81.9335 43.6722 82.9295 43.8352C83.4175 43.9022 83.9795 44.1402 84.3745 44.4352C84.7715 44.7272 85.1055 45.0362 85.4285 45.3492C86.5535 46.4612 87.5725 47.6022 88.6925 48.6222C89.8045 49.6362 91.0015 50.5542 92.3045 51.1132C93.1555 51.4572 93.9995 51.5922 94.9015 51.5262C95.8545 51.4562 96.8045 51.3132 97.7415 51.1242C98.6775 50.9342 99.6045 50.6972 100.498 50.3962C101.366 50.0962 102.31 49.7292 102.879 49.2412C102.95 49.1722 103.002 49.1192 103.044 49.0892C103.049 49.0762 103.115 49.0532 103.125 49.0542C103.165 49.0592 103.258 49.0042 103.33 48.9792C103.405 48.9572 103.497 48.9632 103.614 49.1152C103.643 49.1882 103.662 49.2922 103.664 49.4312C103.644 49.5472 103.609 49.6942 103.545 49.8462C102.98 51.0182 101.132 52.2172 98.8235 52.7512C97.7955 52.9882 96.7565 53.1562 95.7075 53.2602L94.9175 53.3192C94.6595 53.3412 94.3195 53.3142 94.0245 53.3082C93.7135 53.3132 93.4235 53.2432 93.1285 53.1862C92.8305 53.1342 92.5415 53.0652 92.2725 52.9572C91.1545 52.5932 90.1875 52.0062 89.3265 51.3602C88.4595 50.7152 87.6715 50.0072 86.9415 49.2762C86.2075 48.5492 85.5135 47.8002 84.8315 47.0862C84.1635 46.3892 83.4235 45.6522 82.9295 45.4972C82.2565 45.3122 81.2655 45.3572 80.3035 45.4532C79.3265 45.5492 78.3155 45.6892 77.2805 45.7772C76.0455 45.8842 74.7515 45.9562 73.4105 45.7412C72.0325 45.5142 70.8175 44.9732 69.6805 44.2052C68.5625 43.4362 67.5635 42.3142 67.1415 40.8882C66.7225 39.4552 67.0495 37.8962 67.7425 36.7142C68.1005 36.0672 68.5925 35.3812 69.3595 34.9322C70.1225 34.4632 71.0175 34.4342 71.5355 34.3232C71.8095 34.2642 71.9905 34.1932 72.1475 34.0522C72.2365 34.0032 72.2985 33.8862 72.3825 33.8102L72.4825 33.6492C72.4985 33.6242 72.5195 33.6002 72.5315 33.5712C72.6295 33.2992 72.5375 33.1462 71.9695 32.7902C71.4625 32.4862 70.8525 32.2392 70.2345 32.0212L69.7655 31.8612L69.0655 31.6432L67.5015 31.1952C66.9765 31.0492 66.4995 30.8922 66.1435 30.7322C65.7955 30.5702 65.5985 30.4182 65.4375 30.2772C65.2685 30.1272 65.1015 30.0332 64.9365 29.8052C64.9205 29.7852 64.8875 29.7102 64.8995 29.6952L64.9435 29.6482L65.0335 29.5522C65.0945 29.4922 65.1485 29.4102 65.2075 29.3402C65.2465 29.2892 65.2885 29.2422 65.3275 29.1862C65.8425 29.0592 66.3525 28.9312 66.9215 28.8262C67.4555 28.7042 68.0495 28.6152 68.6575 28.5352L69.5545 28.4122L70.3235 28.3452C70.7335 28.3082 71.1445 28.2802 71.5565 28.2712C73.2015 28.1932 74.8535 28.2512 76.4905 28.4502C79.0585 28.7522 81.6035 29.4172 83.9655 30.5002C86.3495 31.5902 88.4265 33.0922 90.5055 34.5232C93.7175 36.8022 96.8135 39.1452 99.6015 41.9332C100.207 42.5562 100.803 43.1652 101.371 43.8422C103.442 46.3842 103.739 47.5412 103.619 48.3382C103.587 48.5242 103.572 48.7522 103.511 48.8682C103.254 49.2622 102.719 48.1472 101.343 46.3772C99.3055 43.7332 96.6985 41.3682 93.9495 39.1372C91.1875 36.9392 88.2085 34.7822 85.1665 32.9602C82.9435 31.6612 80.4615 30.7952 77.8905 30.3312C76.6075 30.0842 75.2945 29.9772 73.9825 29.9122C73.3235 29.9182 72.6655 29.8772 72.0065 29.9202L71.0185 29.9632L70.1735 30.0342L70.1635 29.9932Z" fill="#231F20"/>
<path fill-rule="evenodd" clip-rule="evenodd" d="M62.3447 90.8564C64.2737 91.9394 66.8697 92.1784 69.4597 92.3674C72.0407 92.5524 74.6097 92.5864 77.0617 92.1414C78.8567 91.8324 80.5267 91.1484 82.0417 90.2414C82.7117 89.8424 83.3417 89.3754 83.9297 88.8554C84.5077 88.3374 85.1027 87.7534 85.5217 87.1864C86.3997 86.0084 86.8287 84.5014 87.0667 82.8964C87.1847 82.0904 87.2627 81.2594 87.3447 80.4114C87.4487 79.6614 87.3247 78.7444 87.7407 77.6434C87.8547 77.3714 88.0117 77.0894 88.2437 76.8424C88.5067 76.5764 88.6867 76.4704 88.8717 76.3324L89.9417 75.6114C90.6357 75.1454 91.3007 74.6694 91.9157 74.1484C93.0067 73.2374 93.9337 72.1324 94.2937 70.9024C94.4777 70.2834 94.4687 69.7564 94.2257 69.2524C93.9907 68.7524 93.5377 68.3024 92.9987 67.9374C92.6477 67.7044 92.2697 67.4934 91.8647 67.3234C91.6637 67.2374 91.4587 67.1574 91.2517 67.0864L90.9457 66.9874C90.8787 66.9624 90.8337 66.9654 90.7187 66.9554C89.9147 66.8324 89.0917 66.9514 88.3007 67.2384C86.7147 67.8124 85.2667 68.9654 83.9917 70.2504C83.5967 70.6554 83.3407 70.7504 83.1717 70.6064C82.9977 70.4734 82.9457 70.0674 83.0767 69.4934C83.3407 68.3834 84.3387 66.4164 86.7467 65.2754C87.7997 64.7944 89.0117 64.4874 90.2657 64.5274L91.2047 64.6324C91.6787 64.7104 91.9067 64.8294 92.1757 64.9204C92.7057 65.1234 93.2187 65.3664 93.7247 65.6574C94.2297 65.9534 94.7227 66.3154 95.1887 66.7524C95.6437 67.2184 96.0777 67.7644 96.3607 68.4554C96.6217 69.1394 96.7537 69.9334 96.6307 70.6354C96.5467 71.3624 96.3237 71.8994 96.0717 72.4784C94.9597 74.6864 93.1587 76.0174 91.4897 77.1634C90.6947 77.7164 89.5897 78.3364 89.6997 78.4424C89.5987 78.6524 89.5317 79.0484 89.5007 79.5064C89.4747 79.9604 89.4177 80.5724 89.3567 81.0274C89.2147 82.2094 89.0877 83.4454 88.7897 84.7104C88.4947 85.9674 88.0137 87.2684 87.2067 88.3914C86.8097 88.9724 86.3427 89.4344 85.8997 89.8974C85.4487 90.3604 84.9497 90.7864 84.4427 91.1924C83.4217 92.0054 82.2697 92.6424 81.0867 93.1564C78.4567 94.2644 75.6347 94.5934 72.9137 94.6224C71.5477 94.6284 70.1937 94.5634 68.8507 94.4634C67.5207 94.3574 66.1527 94.2484 64.7857 93.9654C63.1227 93.6184 61.3747 93.0614 59.9737 91.8034C59.2817 91.1814 58.7257 90.3774 58.4017 89.5034C58.2227 89.0694 58.1457 88.6534 58.0157 88.2274C57.9497 87.7894 57.8387 87.3584 57.8217 86.9114C57.7047 85.5684 57.9267 84.1694 58.5037 82.9314C59.0757 81.6894 59.9777 80.6234 61.0417 79.8204C62.1097 79.0174 63.3207 78.4494 64.5717 78.0794C64.8507 78.0004 65.2957 77.8984 65.3757 77.8554C65.5907 77.7504 65.8547 77.5934 66.0837 77.4404C66.5527 77.1214 66.9877 76.7494 67.3687 76.3344C67.9697 75.6934 68.4157 74.9334 68.7137 74.1304C69.0397 73.2294 69.3957 72.2924 69.9407 71.4004C70.4877 70.5124 71.2867 69.6894 72.2507 69.1784C73.2037 68.6494 74.2377 68.3804 75.2407 68.2384C76.1277 68.1224 76.9817 68.0514 77.8787 68.0754C79.5387 68.1354 80.6337 68.4404 81.3467 68.7664C82.0617 69.0994 82.4067 69.4644 82.5877 69.8804C82.6697 70.0724 82.7857 70.2874 82.7837 70.4474C82.7567 70.9844 81.6777 70.5804 79.5917 70.3254C78.0667 70.1424 76.3977 70.2204 74.9067 70.5254C73.3917 70.8614 72.3527 71.5274 71.6567 72.7834C71.2887 73.4174 71.0077 74.1354 70.6927 74.9824C70.3087 75.9774 69.7377 76.9044 69.0307 77.6934C68.3147 78.4814 67.5047 79.1414 66.5457 79.6664L66.3507 79.7674C66.2627 79.8114 66.1537 79.8634 66.0527 79.9034L65.5827 80.0334L65.0177 80.1884C64.6557 80.3234 64.2817 80.4364 63.9417 80.6094C62.9107 81.0844 61.9767 81.7334 61.2957 82.5584C60.6157 83.3834 60.1767 84.3564 60.0287 85.4044C59.8767 86.4454 60.0547 87.5934 60.4207 88.6444C60.7527 89.5574 61.4067 90.2834 62.3657 90.8064L62.3447 90.8564Z" fill="#231F20"/>
<path fill-rule="evenodd" clip-rule="evenodd" d="M75.5289 124.709V117.963C75.5459 117.886 73.1789 117.886 73.1949 117.963V124.709C73.1889 124.77 75.5339 124.77 75.5289 124.709" fill="#232020"/>
<path fill-rule="evenodd" clip-rule="evenodd" d="M79.728 131.264C80.718 131.146 81.708 131.015 82.696 130.865C83.19 130.792 83.682 130.704 84.18 130.643L84.923 130.539C84.969 130.512 85.033 130.548 85.066 130.513C85.154 130.509 85.316 130.543 85.33 130.426C85.339 130.332 85.291 130.243 85.241 130.154C85.201 130.092 85.188 130.073 85.105 129.981C84.952 129.803 84.782 129.633 84.609 129.463C84.258 129.129 83.885 128.805 83.494 128.498C80.749 126.33 77.115 125.012 73.588 125.613C72.031 125.873 70.543 126.543 69.257 127.462C67.605 128.661 66.239 130.217 64.883 131.805C64.46 132.3 64.218 132.048 64.247 131.376C64.272 130.709 64.583 129.593 65.414 128.584C66.878 126.811 68.819 125.339 71.052 124.462C73.288 123.583 75.803 123.443 78.098 123.977C80.843 124.608 83.519 125.812 85.707 127.687C86.024 127.963 86.331 128.254 86.624 128.571C87.019 129.001 87.462 129.552 87.699 130.077C87.932 130.612 88.036 131.127 87.84 131.642C87.625 132.187 87.04 132.254 86.568 132.508L85.109 132.826L84.077 133.03L81.999 133.365C80.184 133.639 78.36 133.854 76.531 134.023C75.145 134.149 73.748 134.224 72.346 134.242C70.934 134.267 69.499 134.158 68.124 133.983C65.978 133.714 63.901 133.432 61.859 133.25C61.412 133.222 60.973 133.196 60.523 133.168C58.873 133.048 58.383 132.932 58.006 132.249C57.921 132.097 57.807 131.944 57.753 131.791C57.562 131.285 58.284 130.801 59.633 130.727C63.637 130.532 67.537 131.714 71.162 131.803C73.909 131.838 76.853 131.587 79.715 131.205L79.728 131.264Z" fill="#231F20"/>
<path fill-rule="evenodd" clip-rule="evenodd" d="M88.1436 14.6586C87.9976 14.5476 88.1616 14.3736 88.5056 14.1536C88.6156 14.0826 88.9806 13.9776 89.0446 14.0036C89.1686 14.0546 89.2906 14.1076 89.3856 14.1706C89.4436 14.2086 89.8636 14.9696 90.0136 15.2276C90.1636 15.4766 90.2476 15.7416 90.3216 16.0106L90.7626 17.6396C90.7926 17.7606 90.8036 17.8856 90.7946 18.0136C90.7626 18.4546 90.8596 18.8666 90.9706 19.2756C90.9906 19.3436 90.9926 19.4156 91.0696 19.4696C91.1966 19.5596 91.4156 20.6796 91.3946 20.8326C91.3426 21.2166 91.3386 21.5906 91.3166 21.9686C91.3106 22.0226 91.3436 22.0726 91.2776 22.1346C91.1256 22.2796 91.1746 22.3846 91.1816 22.4986C91.1906 22.6576 91.1926 22.8166 91.1676 22.9816C91.1546 23.0636 91.0776 23.1596 91.0196 23.2516C90.9666 23.3346 90.7196 23.3516 90.6876 23.3336C90.5966 23.2816 90.4956 23.3636 90.3966 23.3926C90.3636 23.4026 90.3206 23.4156 90.2926 23.4186C90.2366 23.4256 89.5736 22.6356 89.5436 22.5386C89.5196 22.5176 89.1086 21.2436 89.0396 21.1046C89.0056 21.0316 89.0296 20.9456 89.0386 20.8636C89.0416 20.8236 88.6686 19.8216 88.6636 19.7806C88.6356 19.5636 88.5216 19.3646 88.6396 19.1186C88.6626 19.0706 88.6456 19.0286 88.6346 18.9866C88.5366 18.6256 88.5236 18.2466 88.4876 17.8746C88.4696 17.6836 88.4066 17.5036 88.3696 17.3176C88.3626 17.2836 88.3786 17.2446 88.3816 17.2096C88.3856 17.1636 88.3966 17.1166 88.3856 17.0756C88.2716 16.6426 88.2546 16.1846 88.0786 15.7696C88.0406 15.6736 88.0936 15.1526 88.0376 15.0446C88.0086 14.9846 88.2036 14.7026 88.1436 14.6586" fill="#231F20"/>
<path fill-rule="evenodd" clip-rule="evenodd" d="M119.602 38.602C119.498 38.787 119.273 38.609 118.987 38.211C118.895 38.084 118.732 37.651 118.749 37.573C118.782 37.42 118.816 37.272 118.864 37.157C118.896 37.091 119.579 36.538 119.792 36.314C120.002 36.107 120.244 35.961 120.493 35.828C120.999 35.554 121.495 35.248 122.01 34.952C122.123 34.886 122.249 34.843 122.387 34.819C122.857 34.739 123.263 34.528 123.654 34.272C123.72 34.23 123.796 34.206 123.827 34.099C123.869 33.921 125.019 33.332 125.21 33.341C125.659 33.324 126.085 33.261 126.521 33.233C126.582 33.228 126.633 33.18 126.717 33.253C126.913 33.424 127.019 33.347 127.146 33.322C127.32 33.284 127.504 33.271 127.693 33.29C127.788 33.3 127.906 33.398 128.015 33.471C128.114 33.538 128.165 33.872 128.15 33.915C128.107 34.038 128.21 34.172 128.255 34.304C128.27 34.348 128.29 34.406 128.297 34.443C128.301 34.524 127.608 35.361 127.526 35.398C127.52 35.401 127.443 35.442 127.327 35.503C127.213 35.569 127.062 35.656 126.906 35.745C126.599 35.933 126.283 36.133 126.224 36.189C126.161 36.243 126.064 36.225 125.977 36.227C125.936 36.221 125.03 36.848 124.987 36.865C124.771 36.938 124.602 37.115 124.308 37.042C124.249 37.027 124.212 37.058 124.173 37.081C123.831 37.288 123.437 37.401 123.053 37.541C122.857 37.612 122.681 37.729 122.494 37.821C122.46 37.837 122.413 37.829 122.374 37.834C122.324 37.841 122.269 37.839 122.227 37.862C121.79 38.102 121.295 38.227 120.87 38.513C120.773 38.581 120.17 38.603 120.059 38.683C119.996 38.729 119.643 38.529 119.602 38.602" fill="#231F20"/>
<path fill-rule="evenodd" clip-rule="evenodd" d="M95.2914 114.579L89.4224 102.027C89.3734 101.874 86.8834 103.039 86.9674 103.176L92.8354 115.727C92.8824 115.844 95.3504 114.69 95.2914 114.579" fill="#232020"/>
<path fill-rule="evenodd" clip-rule="evenodd" d="M56.6356 31.4463L51.2816 19.6593C51.2376 19.5153 48.7256 20.6323 48.8046 20.7613L54.1716 32.5763C54.2146 32.6873 56.6906 31.5503 56.6356 31.4463" fill="#232020"/>
<path fill-rule="evenodd" clip-rule="evenodd" d="M72.9162 34.0757C73.1192 33.6747 73.4162 33.3247 73.7082 32.8477C73.8012 32.7017 74.0552 32.7067 74.1092 32.9037C74.2182 33.2787 74.2812 33.7057 74.2102 34.1727C74.1952 34.2347 74.1402 34.5917 73.8522 34.9907C73.5762 35.3987 73.1232 35.8017 72.6822 36.1277C72.2412 36.4607 71.7962 36.7687 71.4752 37.0527C71.1612 37.3277 70.9292 37.5977 70.8012 37.7847C70.2772 38.5157 70.0952 39.2527 70.3652 39.8627C70.4212 40.0237 70.5242 40.1787 70.6292 40.3347L71.1072 40.8827C71.2532 41.0827 71.4352 41.2237 71.6152 41.3617C71.7942 41.4987 71.9572 41.6677 72.1572 41.7567C72.8882 42.2417 73.7512 42.4507 74.7432 42.4337C75.1862 42.4167 75.6312 42.4267 76.1102 42.3887C77.7482 42.3217 79.4582 41.8067 81.3882 41.5867C81.7062 41.5437 82.0622 41.5697 82.3872 41.4897C82.5132 41.4397 82.9912 41.4767 83.6312 41.5417C83.9572 41.6177 84.3302 41.7217 84.7182 41.8417C85.0832 41.9887 85.4602 42.1787 85.8142 42.4057C87.2572 43.3617 88.0262 44.6617 88.2012 44.9027C88.6322 45.6227 88.9402 46.1807 89.3802 46.7087C89.8122 47.2417 90.3182 47.7197 90.8622 48.1527C91.0192 48.2747 91.2082 48.3667 91.3272 48.5237C91.5972 48.9087 92.0192 49.0597 92.4162 49.2377C92.9772 49.4707 93.5462 49.7077 94.1492 49.8707C94.4472 49.9577 94.7442 50.0767 95.0532 50.1687C95.3342 50.2577 95.1832 50.4457 95.0782 50.4697C94.7782 50.5297 95.0172 50.6427 95.0452 50.7287C95.0542 50.7597 95.0652 50.7987 95.0502 50.8237C95.0462 50.8307 94.9802 50.8447 94.8672 50.8647C94.7542 50.8797 94.5922 50.9137 94.3962 50.9197C94.0062 50.9467 93.4732 50.9637 92.9222 50.9157C91.8032 50.8697 90.7022 50.3927 90.5012 50.2927C90.4782 50.2777 90.1112 50.1007 89.5972 49.7827C89.0862 49.4617 88.4432 48.9777 87.8542 48.4047C87.2642 47.8567 86.7082 47.1187 86.3732 46.6647C86.0112 46.1857 85.7422 45.8667 85.6462 45.7637C85.4472 45.5477 85.2952 45.3057 85.1222 45.0947C85.0792 45.0457 84.3962 44.3867 83.5622 44.1947C82.7952 43.9487 81.7772 44.0937 81.7102 44.0817C80.9042 44.1327 80.0662 44.3577 79.1472 44.3757C78.9702 44.3777 78.7822 44.4267 78.6032 44.4667C77.0522 44.7907 75.3522 45.1257 73.5052 44.8017C73.0372 44.7127 72.5702 44.6277 72.1142 44.4367C71.6432 44.2997 71.2242 44.0447 70.8062 43.7887C70.6522 43.7007 70.5182 43.5877 70.4052 43.4547C70.2522 43.2987 70.1082 43.1357 69.9502 42.9917C69.4992 42.6377 69.2442 42.1597 68.8982 41.7407C68.5682 41.2907 68.2852 40.6747 68.1842 40.0507C67.9582 38.7597 68.4532 37.4927 69.1662 36.6077C69.3252 36.3937 69.8812 35.8657 70.5162 35.4997C71.1222 35.1437 71.6952 34.8657 71.8792 34.7247C72.1152 34.5877 72.8692 34.2877 72.9162 34.0757" fill="#231F20"/>
</svg>
