<svg width="148" height="148" viewBox="0 0 148 148" fill="none" xmlns="http://www.w3.org/2000/svg">
<path fill-rule="evenodd" clip-rule="evenodd" d="M115.771 65.5543C115.981 65.5673 116.181 65.5663 116.305 65.5553C116.324 65.5543 116.349 65.5423 116.35 65.5353C116.35 65.5353 116.357 65.5283 116.362 65.5273L116.372 65.5263H116.373H116.374L116.45 65.6023V65.6023L116.449 65.6013L116.444 65.5963L116.435 65.5873C116.363 65.5283 116.413 65.5723 116.44 65.5583C116.471 65.5533 116.506 65.5293 116.539 65.4943C116.609 65.4263 116.689 65.3143 116.73 65.1853C116.769 65.0713 116.757 64.9483 116.731 64.8323C116.681 64.6833 116.644 64.5463 116.726 64.3563C116.755 64.2963 116.966 64.2003 117.217 64.1533C117.466 64.1053 117.782 64.1173 117.872 64.2363C118.16 64.6533 118.211 65.1703 117.986 65.7013C117.829 65.9863 117.732 66.4393 117.372 66.7093C117.027 66.9633 116.713 67.0323 116.426 67.0963C116.253 67.1243 116.077 67.1523 115.911 67.1793C115.66 67.2213 115.408 67.2103 115.181 67.2803C115.005 67.3333 114.85 67.4833 114.704 67.5913C114.671 67.6153 114.643 67.6543 114.612 67.6693C114.492 67.7243 114.447 67.6273 114.284 67.1903L114.178 66.9033C114.065 66.5883 114.041 66.2623 114.151 66.1343C114.451 65.7463 114.788 65.6463 115.097 65.5803C115.326 65.5263 115.556 65.5333 115.759 65.5143L115.771 65.5543Z" fill="#231F20"/>
<path fill-rule="evenodd" clip-rule="evenodd" d="M116.072 71.7813C116.282 71.7943 116.482 71.7933 116.606 71.7823C116.626 71.7813 116.65 71.7693 116.652 71.7623C116.652 71.7623 116.658 71.7553 116.664 71.7543L116.673 71.7533H116.674H116.675L116.751 71.8293L116.75 71.8283L116.746 71.8233L116.737 71.8143C116.665 71.7553 116.715 71.7993 116.741 71.7853C116.772 71.7803 116.807 71.7563 116.841 71.7213C116.91 71.6533 116.99 71.5413 117.032 71.4133C117.07 71.2983 117.058 71.1753 117.033 71.0593C116.982 70.9103 116.946 70.7733 117.028 70.5833C117.057 70.5233 117.267 70.4273 117.518 70.3803C117.767 70.3323 118.084 70.3443 118.174 70.4633C118.461 70.8803 118.512 71.3973 118.288 71.9283C118.131 72.2133 118.034 72.6663 117.674 72.9363C117.328 73.1903 117.015 73.2603 116.727 73.3233C116.554 73.3513 116.379 73.3793 116.212 73.4063C115.961 73.4483 115.71 73.4373 115.482 73.5083C115.306 73.5603 115.151 73.7103 115.005 73.8183C114.972 73.8423 114.944 73.8813 114.914 73.8963C114.793 73.9513 114.748 73.8543 114.586 73.4173L114.479 73.1303C114.366 72.8163 114.342 72.4893 114.452 72.3613C114.752 71.9743 115.089 71.8743 115.398 71.8083C115.627 71.7533 115.857 71.7613 116.06 71.7413L116.072 71.7813Z" fill="#231F20"/>
<path fill-rule="evenodd" clip-rule="evenodd" d="M31.3861 107.664C31.3861 107.664 32.5001 107.664 32.6671 106.951C32.9141 105.893 32.9451 100.022 32.9451 100.022C60.0291 101.281 59.5471 101.313 66.8041 100.523C67.2651 100.473 68.5311 98.9631 66.8601 98.9631C65.6761 98.9631 32.3881 98.2281 32.3881 98.2281C32.3881 98.2281 31.1091 97.0981 30.9411 100.356C30.8601 101.931 31.3861 107.664 31.3861 107.664" fill="#231F20"/>
<path fill-rule="evenodd" clip-rule="evenodd" d="M96.7209 39.2051C96.9619 38.4471 97.2209 37.6951 97.5349 36.9631C97.6449 36.6941 97.7279 36.4151 97.8619 36.1551C98.3129 35.2341 98.8479 34.3511 99.4749 33.5401C99.7639 33.1891 100.028 32.8191 100.321 32.4761C100.683 32.0271 101.068 31.5771 101.573 31.2761C101.879 31.0881 102.1 32.0471 101.705 32.4901C100.975 33.2941 100.365 34.1681 99.6789 35.0501C99.2659 35.5801 99.0279 36.2441 98.7469 36.8671C98.4569 37.5631 98.1789 38.2711 97.9599 39.0021C97.8149 39.4501 97.6929 39.9051 97.5819 40.3631C97.4199 41.0591 97.2629 41.7631 97.1829 42.4711C97.1139 43.0201 97.1519 43.5711 97.1259 44.1161C97.1239 44.2371 97.1329 44.3561 97.1249 44.4771C97.1089 44.9271 96.9499 45.0571 96.6879 45.1351C96.6249 45.1531 96.5629 45.1781 96.5029 45.1861C96.3059 45.2161 96.1389 45.0171 96.0509 44.6721C95.8819 43.6551 95.9889 42.5921 96.1609 41.5371C96.2949 40.7521 96.4829 39.9731 96.6929 39.1991L96.7209 39.2051Z" fill="#231F20"/>
<path fill-rule="evenodd" clip-rule="evenodd" d="M88.506 48.2378C84.567 48.0448 80.625 47.8778 76.682 47.7578L72.367 47.6978C67.297 47.5578 62.224 47.3738 57.153 47.3678C54.904 47.3618 52.643 47.4368 50.418 47.5358C47.581 47.6848 44.643 47.8978 41.959 48.1478C41.764 48.1778 41.66 48.1798 41.584 48.1558C41.562 48.0988 41.498 48.0678 41.441 48.0218C41.386 47.9768 41.335 47.9058 41.379 47.7688C41.425 47.6408 41.542 47.4858 41.709 47.3288C42.377 46.6748 43.788 46.0358 45.459 45.8638C51.38 45.2698 57.252 45.2238 63.183 45.4218C66.727 45.5458 70.414 45.4378 74.037 45.5158C78.02 45.5948 82.004 45.7238 85.985 45.8748C88.435 45.9768 90.887 46.0788 93.335 46.1808C97.044 46.3628 100.77 46.5438 104.451 46.7238C107.318 46.8098 110.134 46.8938 112.971 46.9788C113.597 47.0048 114.211 47.0108 114.842 47.0548C116.01 47.1398 116.778 47.2408 117.304 47.4218C117.829 47.6188 118.117 47.8608 118.331 48.1888C118.429 48.3388 118.563 48.4888 118.612 48.6288C118.697 48.8638 118.492 49.0468 118.054 49.1878C117.616 49.3248 116.942 49.4448 116.094 49.4158C111.059 49.3478 105.759 49.0878 100.426 48.8318C96.466 48.6458 92.485 48.4408 88.509 48.2948L88.506 48.2378Z" fill="#231F20"/>
<path fill-rule="evenodd" clip-rule="evenodd" d="M19.6257 60.8891L20.5427 59.7071C20.8637 59.3251 21.2047 58.9581 21.5327 58.5841C22.1727 57.8221 22.8997 57.1361 23.6107 56.4411C24.1107 55.9171 24.6437 55.4231 25.2027 54.9601C26.1597 54.1111 27.2617 53.4421 28.3037 52.7161C28.8497 52.3881 29.4147 52.0911 29.9657 51.7771L30.7947 51.3121L31.6677 50.9311C32.1847 50.7071 32.6937 50.4701 33.1987 50.2271C33.7077 49.9911 34.2437 49.8241 34.7587 49.6151C35.4307 49.3751 36.0767 49.0441 36.7797 48.8971C37.4627 48.6791 38.2057 48.6861 38.9077 48.5931C39.3527 48.5571 39.3417 48.8211 39.0537 49.2141C38.9097 49.4131 38.6967 49.6401 38.4417 49.8911C38.3127 50.0141 38.1727 50.1391 38.0217 50.2551L37.7867 50.4291C37.6997 50.4651 37.6117 50.5011 37.5197 50.5301C34.9207 51.4301 32.4537 52.5591 30.0167 53.8951C28.5437 54.6801 27.2417 55.8481 25.9877 56.9971C25.2737 57.6061 24.6607 58.3231 23.9847 58.9781C23.3657 59.6861 22.7437 60.3981 22.1597 61.1391C21.4627 62.0721 20.7627 63.0061 20.1657 64.0101C19.2237 65.5051 18.3937 67.0891 17.7347 68.7191C17.2387 69.9951 16.9707 71.3211 16.6777 72.6251C16.6137 72.9121 16.5727 73.1991 16.4947 73.4841C16.1807 74.5291 15.8137 74.8001 15.2517 74.9281C15.1237 74.9571 14.9987 75.0051 14.8897 75.0151C14.5487 75.0571 14.2377 74.5201 14.1517 73.6111C14.1237 72.2881 14.4217 70.9921 14.8297 69.7211C15.2537 68.4551 15.7857 67.2081 16.3967 65.9981C17.3177 64.2081 18.3867 62.4861 19.5787 60.8601L19.6257 60.8891Z" fill="#231F20"/>
<path fill-rule="evenodd" clip-rule="evenodd" d="M100.186 60.9098C100.914 60.1988 101.63 59.4788 102.417 58.8388L103.569 57.8498L104.771 56.9268C105.353 56.4738 105.902 55.9818 106.526 55.5878C108.666 54.1178 110.971 52.9068 113.345 51.8878C113.87 51.6548 114.392 51.4168 114.935 51.2198C115.477 51.0248 115.987 50.7538 116.546 50.6088C117.939 50.1618 119.414 49.7138 120.944 49.9698C121.413 50.0128 121.333 50.2788 120.972 50.6168C120.599 50.9408 120.015 51.4088 119.288 51.6988C116.676 52.4768 114.06 53.5258 111.462 54.7668C110.671 55.1138 109.944 55.6178 109.194 56.0838C108.462 56.5808 107.765 57.1368 107.037 57.6368C106.275 58.2358 105.501 58.8258 104.753 59.4468C104.038 60.1038 103.272 60.7128 102.593 61.4098C101.747 62.2578 100.89 63.1008 100.142 64.0378L99.2636 65.0808L98.4596 66.1828L97.6706 67.2918L96.9926 68.4638C96.2586 69.6618 95.8816 71.0038 95.3326 72.2538C95.2426 72.5418 95.1786 72.8328 95.0586 73.1118C94.6506 74.1578 94.3216 74.4228 93.7766 74.5058C93.6526 74.5248 93.5266 74.5628 93.4176 74.5628C93.0726 74.5718 92.8756 74.0098 93.0036 73.1208C93.3106 70.4458 94.6946 67.9528 96.2136 65.6418C97.3886 63.9428 98.7146 62.3488 100.146 60.8758L100.186 60.9098Z" fill="#231F20"/>
<path fill-rule="evenodd" clip-rule="evenodd" d="M19.4253 75.9259C25.4453 76.1249 31.4673 76.3029 37.4893 76.4389L44.0803 76.5139L67.3103 76.9599C70.7453 76.9929 74.2003 76.9529 77.6053 76.8599C81.9723 76.7389 86.3853 76.5609 90.6853 76.2909C92.0113 76.1589 91.9123 76.3649 90.8133 76.8419C90.2613 77.1039 89.4553 77.3569 88.4733 77.6289C87.4883 77.9419 86.3303 78.1229 85.0593 78.2329C76.0753 78.9379 67.1173 79.0539 58.0833 78.8969C52.6813 78.7309 47.0593 78.7729 41.5353 78.6689C35.4623 78.5519 29.3873 78.3829 23.3153 78.1969L17.0083 77.9889L16.7223 77.9829C16.6353 78.0289 16.6273 78.1429 16.5983 78.2279C16.5763 78.3209 16.5583 78.4159 16.5433 78.5109L16.4873 78.9399C16.4063 79.6799 16.3543 80.4399 16.3133 81.2009C16.0473 86.8099 16.0903 92.5049 16.3023 98.0979C16.4123 100.271 16.6063 102.422 16.8733 104.54C17.0123 105.593 17.1663 106.658 17.3963 107.637C17.4713 107.935 17.4743 107.94 17.5243 108.073C17.5563 108.183 17.6353 108.274 17.7543 108.291C17.8943 108.332 17.8863 108.319 18.1913 108.391L18.9513 108.539C19.8593 108.702 20.7703 108.814 21.7033 108.945C25.1823 109.35 26.1933 109.755 26.9273 110.322C27.1003 110.463 27.3233 110.551 27.4543 110.664C27.5623 110.758 27.5613 110.853 27.4303 110.971C27.2943 111.093 27.0313 111.215 26.6903 111.311C25.9973 111.504 24.9273 111.675 23.5963 111.594C21.6183 111.448 19.6773 111.231 17.6213 110.809C17.4453 110.758 16.8803 110.67 16.5063 110.455C16.3063 110.359 16.1053 110.262 15.9193 110.139C15.7323 110.021 15.6133 109.82 15.4893 109.642C15.2613 109.263 15.1323 108.793 15.0293 108.349C14.9683 108.065 14.9233 107.799 14.8803 107.533C14.7183 106.479 14.6233 105.462 14.5453 104.44C14.3863 102.4 14.3333 100.361 14.2643 98.3159C14.1463 96.2739 14.0713 94.2229 14.0383 92.1699C13.9903 89.5619 13.9843 86.9499 14.0383 84.3259C14.0683 83.0129 14.1103 81.6989 14.1923 80.3679C14.2373 79.6819 14.2793 79.0749 14.3773 78.2899C14.4623 77.6619 14.5723 77.0129 14.8593 76.5369C15.0093 76.3259 15.1973 76.0879 15.4583 76.0089C15.7193 75.9379 15.9763 75.8559 16.2403 75.7949L19.4193 75.8709L19.4253 75.9259Z" fill="#231F20"/>
<path fill-rule="evenodd" clip-rule="evenodd" d="M95.777 100.596C95.685 102.988 95.566 105.382 95.312 107.808L95.238 108.629L95.106 109.791C94.987 110.313 94.711 110.822 94.185 111.055C93.91 111.215 93.576 111.297 93.264 111.397L92.863 111.495L92.56 111.554C92.156 111.631 91.764 111.687 91.373 111.742C90.591 111.846 89.819 111.924 89.048 111.992C87.506 112.129 85.972 112.224 84.44 112.311C83.08 112.405 81.717 112.5 80.368 112.594C78.637 112.7 76.887 112.845 75.137 112.589C74.59 112.506 74.682 112.082 75.14 111.651C75.6 111.223 76.412 110.748 77.384 110.658C80.835 110.298 84.31 110.072 87.819 109.906C88.867 109.854 89.927 109.711 90.963 109.512C91.46 109.417 92.034 109.281 92.416 109.173C92.559 109.125 92.821 109.093 92.785 108.877C92.802 108.835 92.802 108.786 92.813 108.739L92.867 108.324L92.946 107.454C93.006 106.877 93.034 106.287 93.075 105.701C93.146 104.525 93.191 103.341 93.222 102.155C93.26 100.694 93.284 99.2284 93.279 97.7634C93.268 95.5424 93.282 93.3064 93.204 91.0964C93.152 89.3794 92.894 87.6984 92.839 85.9864C92.826 85.6084 92.783 85.2424 92.791 84.8584C92.798 83.4444 93.016 82.9834 93.62 82.7084C93.758 82.6454 93.896 82.5614 94.031 82.5284C94.484 82.4184 94.86 82.9974 95.02 83.9994C95.572 86.9884 95.747 90.1684 95.85 93.3844C95.914 95.7714 95.871 98.1804 95.841 100.593L95.777 100.596Z" fill="#231F20"/>
<path fill-rule="evenodd" clip-rule="evenodd" d="M122.318 80.7544L122.354 74.1504L122.293 71.7444C122.305 68.9124 122.302 66.0814 122.243 63.2514C122.214 61.9974 122.14 60.7364 122.032 59.4994C121.923 57.9214 121.766 56.2764 121.744 54.7854C121.732 54.3464 121.927 54.2554 122.302 54.6044C122.713 54.9964 123.182 55.7274 123.36 56.6664C123.498 57.4834 123.652 58.3054 123.747 59.1224C123.825 59.9424 123.899 60.7644 123.946 61.5854C124.064 63.2274 124.09 64.8764 124.065 66.5334C124.026 68.5144 124.225 70.5644 124.284 72.5854C124.353 74.8074 124.378 77.0314 124.393 79.2544L124.42 83.3594C124.438 85.4314 124.417 87.5134 124.468 89.5704C124.51 91.1704 124.673 92.7374 124.752 94.3314C124.769 94.6824 124.807 95.0254 124.813 95.3794C124.825 96.6994 124.622 97.1214 124.011 97.3614C123.871 97.4174 123.732 97.4924 123.594 97.5194C123.137 97.6124 122.753 97.0614 122.66 96.1294C122.36 93.3434 122.301 90.3844 122.284 87.4104C122.277 85.1994 122.272 82.9764 122.265 80.7584L122.318 80.7544Z" fill="#231F20"/>
<path fill-rule="evenodd" clip-rule="evenodd" d="M108.346 104.937C109.65 104.36 110.95 103.759 112.231 103.123L113.612 102.387C115.263 101.571 116.903 100.728 118.529 99.8581C119.243 99.4601 119.945 99.0321 120.618 98.5831C121.058 98.3041 121.472 97.9891 121.911 97.7121C122.345 97.4401 122.814 97.1821 123.239 96.9441C123.511 96.8001 123.661 97.0011 123.615 97.3881C123.564 97.7841 123.317 98.3511 122.845 98.7561C121.106 100.064 119.258 101.161 117.307 102.115C116.132 102.668 114.997 103.396 113.828 104.018C112.54 104.697 111.235 105.343 109.924 105.978L107.483 107.108C106.249 107.675 104.986 108.193 103.752 108.741C102.79 109.163 101.872 109.648 100.902 110.06C100.69 110.153 100.489 110.263 100.263 110.333C99.4263 110.582 99.1253 110.544 98.8423 110.189C98.7773 110.108 98.7003 110.031 98.6543 109.946C98.4973 109.659 98.7563 109.298 99.2973 109.009C100.906 108.18 102.658 107.474 104.41 106.681C105.715 106.11 107.031 105.526 108.326 104.902L108.346 104.937Z" fill="#231F20"/>
<path fill-rule="evenodd" clip-rule="evenodd" d="M123.82 89.9146C123.82 89.9146 128.119 89.8306 131.878 91.8356C135.637 93.8406 131.251 96.8456 129.678 97.7896C126.755 99.5436 109.546 108.037 103.069 107.648C103.069 107.648 123.162 98.4356 123.664 97.0986C124.165 95.7616 123.82 89.9146 123.82 89.9146" fill="#231F20"/>
<path fill-rule="evenodd" clip-rule="evenodd" d="M70.9605 106.2C71.0045 105.648 71.0535 105.095 71.1155 104.541C71.1345 104.339 71.1035 104.139 71.1275 103.937C71.2125 103.223 71.3135 102.509 71.3765 101.796C71.4035 101.48 71.3905 101.163 71.3705 100.85C71.3445 100.448 71.2625 100.042 71.4135 99.6376C71.5015 99.3866 72.7245 99.7056 72.7855 100.154C72.8705 100.957 72.8985 101.765 72.7545 102.591C72.6665 103.084 72.7775 103.592 72.7885 104.095C72.7985 104.648 72.7925 105.202 72.7665 105.759C72.7565 106.102 72.7465 106.446 72.7355 106.786C72.7265 107.305 72.7125 107.826 72.7325 108.342C72.7475 108.742 72.8955 109.133 72.9265 109.535C72.9355 109.624 72.9585 109.711 72.9575 109.801C72.9485 110.136 72.8245 110.245 72.4185 110.304C72.3265 110.317 72.2345 110.336 72.1435 110.342C71.8355 110.363 71.5755 110.225 71.4545 109.998C71.0665 109.32 70.9365 108.598 70.8885 107.861C70.8765 107.313 70.9065 106.757 70.9155 106.202L70.9605 106.2Z" fill="#231F20"/>
<path fill-rule="evenodd" clip-rule="evenodd" d="M45.7729 97.4443L51.8319 97.7123C52.5689 97.7393 53.3059 97.7053 54.0439 97.7363C56.6429 97.8313 59.2439 97.9913 61.8459 98.1173C63.0019 98.1713 64.1629 98.1723 65.3109 98.1773C66.7899 98.1473 68.2599 98.1993 69.7679 98.5463C70.2399 98.6623 70.1169 98.8883 69.7019 99.1313C69.2989 99.3533 68.5889 99.7003 67.7529 99.7783C67.0039 99.8813 66.2649 99.8753 65.5149 99.8823L63.2679 99.8903C61.7669 99.8823 60.2599 99.8443 58.7469 99.7483C56.9359 99.6343 55.0499 99.7033 53.1959 99.6793L47.0779 99.5233L43.3119 99.4053C41.4099 99.3503 39.4999 99.2523 37.6099 99.2303C36.1389 99.2053 34.6929 99.3103 33.2279 99.3023C32.9049 99.3033 32.5879 99.3273 32.2629 99.3143C31.6569 99.2913 31.2619 99.2093 30.9969 99.0393C30.7299 98.8873 30.5869 98.6983 30.4859 98.4333C30.4399 98.3133 30.3749 98.1943 30.3529 98.0823C30.2779 97.7123 30.7979 97.4043 31.6719 97.2383C34.2419 97.0403 36.9429 97.0913 39.6719 97.1793C41.6999 97.2503 43.7369 97.3213 45.7709 97.3923L45.7729 97.4443Z" fill="#231F20"/>
<path fill-rule="evenodd" clip-rule="evenodd" d="M30.2661 104.963C30.3031 104.49 30.3391 104.015 30.3761 103.546C30.3871 103.372 30.3631 103.2 30.3761 103.026C30.4241 102.412 30.4751 101.794 30.4941 101.176C30.5031 100.901 30.4801 100.628 30.4561 100.356C30.4231 100.008 30.3501 99.6573 30.4541 99.2933C30.5151 99.0753 31.3651 99.3493 31.4271 99.7203C31.5171 100.407 31.5811 101.114 31.5101 101.838C31.4661 102.27 31.5621 102.712 31.5821 103.152C31.6051 103.637 31.6041 104.124 31.5851 104.612C31.5741 104.913 31.5631 105.216 31.5521 105.514C31.5311 105.973 31.5111 106.43 31.4911 106.885C31.4881 107.242 31.5611 107.599 31.5621 107.981C31.5641 108.064 31.5631 108.147 31.5501 108.229C31.4691 108.542 31.3471 108.623 30.9931 108.575C30.9161 108.566 30.8421 108.561 30.7731 108.546C30.5571 108.5 30.3201 108.308 30.2751 108.125C30.0701 107.553 30.1481 106.982 30.1611 106.361C30.1841 105.899 30.2091 105.43 30.2331 104.964L30.2661 104.963Z" fill="#231F20"/>
<path fill-rule="evenodd" clip-rule="evenodd" d="M61.0366 115.373C61.9186 114.722 62.7826 114.036 63.5546 113.258C63.8516 112.986 64.0746 112.653 64.3496 112.363C65.3136 111.338 66.2206 110.232 66.9346 108.991C67.2516 108.44 67.5096 107.855 67.7246 107.263C67.9906 106.496 68.2156 105.72 68.5736 104.972C68.6896 104.74 68.9216 104.83 69.1176 105.108C69.3096 105.384 69.4936 105.865 69.4046 106.356C69.0186 108.071 68.2706 109.722 67.2146 111.156C66.5786 112.006 66.0146 112.958 65.2826 113.759C64.4896 114.645 63.6176 115.451 62.7036 116.192C62.1436 116.652 61.5646 117.083 60.9766 117.498C60.0926 118.136 59.1596 118.703 58.2586 119.29C57.5646 119.759 56.9066 120.257 56.2246 120.739C56.0716 120.84 55.9296 120.954 55.7706 121.047C55.1846 121.4 54.9236 121.369 54.5846 121.019C54.5076 120.937 54.4206 120.862 54.3556 120.774C54.1376 120.48 54.2416 120.081 54.6126 119.748C55.7516 118.824 57.0116 118.033 58.2806 117.239C59.2036 116.626 60.1396 116.024 61.0086 115.341L61.0366 115.373Z" fill="#231F20"/>
<path fill-rule="evenodd" clip-rule="evenodd" d="M33.6942 120.468L38.6812 120.742C39.2882 120.774 39.8962 120.749 40.5032 120.787C42.6432 120.93 44.7822 121.092 46.9232 121.278C47.8722 121.358 48.8302 121.41 49.7772 121.461C50.9862 121.535 52.2452 121.514 53.3982 122.133C53.7592 122.284 53.6782 122.415 53.3242 122.611C53.0792 122.749 52.8282 122.891 52.6062 123.016C52.3182 123.152 52.0062 123.212 51.6572 123.245C51.0422 123.309 50.4532 123.198 49.8412 123.199L48.0152 123.112C46.7902 123.067 45.5662 122.95 44.3292 122.806C42.8522 122.628 41.3052 122.699 39.7862 122.658L34.7692 122.5L31.6782 122.395C30.1172 122.354 28.5482 122.283 26.9942 122.28C25.7842 122.279 24.6012 122.399 23.3782 122.411C23.1072 122.412 22.8512 122.449 22.5682 122.425C22.0392 122.389 21.7282 122.301 21.4762 122.137C21.2212 121.935 21.1222 121.727 21.0922 121.472C21.0792 121.356 21.0552 121.242 21.0682 121.142C21.0902 120.972 21.2292 120.845 21.4212 120.72C21.6292 120.595 21.8022 120.474 22.1742 120.433C24.1912 120.248 26.4422 120.246 28.6742 120.285C30.3422 120.329 32.0192 120.373 33.6932 120.418L33.6942 120.468Z" fill="#231F20"/>
<path fill-rule="evenodd" clip-rule="evenodd" d="M26.4065 113.902C27.4085 113.152 28.3995 112.38 29.3435 111.555C29.6925 111.258 30.0015 110.922 30.3385 110.614C31.5495 109.549 32.7255 108.441 33.8045 107.247C34.2905 106.722 34.6995 106.134 35.0865 105.55C35.5515 104.779 36.0565 104.046 36.5325 103.298C36.6975 103.072 36.9535 103.195 37.1335 103.538C37.3085 103.87 37.4375 104.484 37.2145 105.009C36.8725 105.984 36.2825 106.786 35.6815 107.562C35.0715 108.331 34.4045 109.046 33.6825 109.704C32.8155 110.486 32.0355 111.403 31.1765 112.217C30.2215 113.098 29.2355 113.944 28.2285 114.758C27.6045 115.255 26.9815 115.752 26.3455 116.231C25.3945 116.972 24.3995 117.662 23.4435 118.381C22.7025 118.943 22.0335 119.583 21.2915 120.138C21.1285 120.26 20.9735 120.387 20.8015 120.499C20.1475 120.892 19.8445 120.861 19.4895 120.587C19.4075 120.523 19.3175 120.466 19.2505 120.396C19.0275 120.162 19.1395 119.757 19.5005 119.317C20.6205 118.09 21.9945 117.144 23.3565 116.139C24.3645 115.394 25.3915 114.657 26.3755 113.868L26.4065 113.902Z" fill="#231F20"/>
<path fill-rule="evenodd" clip-rule="evenodd" d="M95.4457 38.1685C95.7907 37.2045 96.1747 36.2575 96.6227 35.3445C96.7747 35.0065 96.8987 34.6565 97.0807 34.3325C97.7087 33.1865 98.4227 32.0935 99.2067 31.0645C99.5637 30.6135 99.8817 30.1345 100.223 29.6795C100.644 29.0855 101.068 28.4715 101.681 28.0425C102.055 27.7745 102.614 29.0835 102.168 29.7125C101.329 30.8355 100.579 31.9945 99.6587 33.0985C99.1127 33.7665 98.7877 34.6025 98.4017 35.3815C97.9867 36.2455 97.5987 37.1275 97.2757 38.0365C97.0767 38.5965 96.8847 39.1605 96.7407 39.7375C96.5077 40.6065 96.2977 41.4945 96.2187 42.3885C96.1297 43.0815 96.2497 43.7765 96.2447 44.4585C96.2557 44.6095 96.2807 44.7575 96.2807 44.9095C96.3037 45.4715 96.0787 45.6475 95.6947 45.7725C95.6017 45.8015 95.5117 45.8395 95.4237 45.8565C95.1327 45.9145 94.8627 45.6795 94.6937 45.2395C94.3237 43.9385 94.4327 42.5375 94.6477 41.1675C94.8287 40.1495 95.0907 39.1435 95.4037 38.1585L95.4457 38.1685Z" fill="#231F20"/>
<path fill-rule="evenodd" clip-rule="evenodd" d="M65.1813 24.053C68.2793 23.94 71.2413 24.047 74.2513 24.115C75.3453 24.146 76.4383 24.119 77.5303 24.165C81.3803 24.325 85.2243 24.56 89.0673 24.802C90.7723 24.915 92.4883 24.989 94.1833 25.07C96.3613 25.178 98.5583 25.213 100.731 25.707C101.411 25.869 101.235 26.284 100.613 26.634C99.9923 26.981 98.9253 27.301 97.6903 27.228C93.3083 26.969 88.8853 26.801 84.4343 26.397C81.7693 26.168 78.9873 26.21 76.2573 26.155C73.2573 26.094 70.2493 26.033 67.2633 26.08L65.5433 26.135C65.2653 26.155 64.9743 26.166 64.7133 26.197L64.5133 26.218L64.3993 26.235C64.3253 26.246 64.2513 26.261 64.1973 26.308L63.5023 26.88C63.2663 27.098 63.0493 27.339 62.8213 27.567C61.0283 29.521 59.8393 32.071 59.1333 34.689C58.5893 36.737 58.3983 38.826 58.2963 40.916C58.2643 41.375 58.2903 41.83 58.2633 42.294C58.2153 44.015 58.0413 44.555 57.4303 44.925C57.2933 45.009 57.1573 45.121 57.0223 45.171C56.5903 45.341 56.1533 44.613 56.0693 43.286C55.8593 39.365 56.4143 35.134 58.0643 31.125C58.6053 29.901 59.2253 28.695 60.0293 27.573C60.4523 27.027 60.8513 26.46 61.3613 25.972C61.6133 25.727 61.8393 25.46 62.1143 25.237L63.0303 24.491C63.0773 24.451 63.1343 24.427 63.1863 24.393C63.2593 24.4 63.3033 24.351 63.3633 24.333C63.4743 24.28 63.5863 24.229 63.7073 24.208C63.9323 24.155 64.2223 24.071 64.3283 24.074C64.6273 24.038 64.9053 24.016 65.1733 24L65.1813 24.053Z" fill="#231F20"/>
<path fill-rule="evenodd" clip-rule="evenodd" d="M76.5104 29.8242C75.6534 29.7912 74.7944 29.7592 73.9394 29.7252C73.6234 29.7272 73.3164 29.7292 72.9994 29.7302C71.8954 29.6902 70.7814 29.6502 69.6804 29.6102C69.1894 29.5952 68.6964 29.6152 68.2094 29.6192C67.5834 29.6332 66.9544 29.6782 66.3294 29.5722C65.9394 29.5122 66.4344 28.7122 67.1514 28.6512C68.4224 28.5522 69.6944 28.5652 70.9814 28.6782C71.7514 28.7452 72.5514 28.6782 73.3394 28.6792C74.2044 28.6912 75.0734 28.7022 75.9414 28.7132C76.4754 28.7252 77.0114 28.7382 77.5434 28.7502C78.3524 28.7652 79.1654 28.8062 79.9684 28.8042C80.5934 28.8032 81.2074 28.7392 81.8284 28.7072C81.9654 28.6982 82.0984 28.6912 82.2364 28.6962C82.7444 28.7192 82.9024 28.8102 82.9954 29.1112C83.0164 29.1792 83.0464 29.2472 83.0564 29.3152C83.0934 29.5422 82.8774 29.7222 82.5054 29.7892C81.4004 30.0002 80.2544 29.9392 79.0964 29.9282C78.2384 29.9032 77.3734 29.8772 76.5114 29.8522L76.5104 29.8242Z" fill="#231F20"/>
<path fill-rule="evenodd" clip-rule="evenodd" d="M70.0622 32.3796C70.5472 32.4146 71.0352 32.4496 71.5172 32.4846C71.6932 32.4946 71.8712 32.4826 72.0472 32.5036C72.6702 32.5696 73.2932 32.6406 73.9172 32.6876C74.1932 32.7086 74.4722 32.7086 74.7462 32.7056C75.0992 32.7016 75.4532 32.6746 75.8052 32.7446C76.0252 32.7836 75.7462 33.3026 75.3402 33.3416C74.6202 33.3906 73.9002 33.4096 73.1742 33.3356C72.7402 33.2896 72.2882 33.3386 71.8442 33.3376C71.3582 33.3186 70.8672 33.2996 70.3792 33.2796C70.0782 33.2676 69.7752 33.2556 69.4772 33.2436C69.0222 33.2326 68.5642 33.2056 68.1132 33.2216C67.7882 33.2446 67.4212 33.2706 67.0702 33.2956C66.9942 33.2996 66.9192 33.3106 66.8422 33.3096C66.5562 33.3126 66.4652 33.2346 66.4042 33.0406C66.3902 32.9966 66.3722 32.9546 66.3632 32.9126C66.3362 32.7786 66.4522 32.6306 66.6622 32.5666C67.2822 32.3876 67.9372 32.2656 68.5942 32.3046C69.0802 32.3216 69.5722 32.3396 70.0622 32.3576V32.3796Z" fill="#231F20"/>
<path fill-rule="evenodd" clip-rule="evenodd" d="M39.0594 116.797C38.2024 116.761 37.3434 116.725 36.4874 116.69C36.1724 116.691 35.8654 116.692 35.5484 116.693C34.4434 116.65 33.3304 116.605 32.2294 116.562C31.7384 116.544 31.2454 116.566 30.7584 116.569C30.1324 116.584 29.5034 116.631 28.8774 116.518C28.4884 116.455 28.9824 115.601 29.6994 115.536C30.9704 115.431 32.2414 115.446 33.5294 115.569C34.2994 115.641 35.0994 115.57 35.8874 115.573C36.7524 115.586 37.6224 115.599 38.4894 115.612C39.0234 115.625 39.5594 115.638 40.0924 115.651C40.9014 115.668 41.7134 115.711 42.5174 115.708C43.1424 115.706 43.7574 115.635 44.3784 115.6C44.5154 115.589 44.6484 115.583 44.7864 115.587C45.2944 115.61 45.4524 115.707 45.5444 116.027C45.5654 116.1 45.5944 116.172 45.6044 116.244C45.6404 116.486 45.4244 116.679 45.0514 116.752C43.9464 116.981 42.8014 116.918 41.6444 116.907C40.7864 116.88 39.9224 116.854 39.0604 116.827L39.0594 116.797Z" fill="#231F20"/>
<path fill-rule="evenodd" clip-rule="evenodd" d="M38.4304 113.306C38.9154 113.341 39.4034 113.377 39.8854 113.412C40.0624 113.421 40.2394 113.409 40.4154 113.43C41.0384 113.496 41.6624 113.568 42.2854 113.614C42.5624 113.635 42.8404 113.635 43.1144 113.633C43.4674 113.628 43.8214 113.601 44.1734 113.671C44.3934 113.711 44.1144 114.23 43.7084 114.269C42.9884 114.317 42.2684 114.336 41.5424 114.262C41.1084 114.216 40.6564 114.265 40.2124 114.265C39.7264 114.245 39.2354 114.226 38.7474 114.206C38.4464 114.195 38.1434 114.182 37.8454 114.171C37.3904 114.159 36.9334 114.133 36.4814 114.148C36.1564 114.171 35.7894 114.198 35.4384 114.222C35.3624 114.226 35.2874 114.237 35.2104 114.237C34.9244 114.239 34.8334 114.162 34.7724 113.968C34.7584 113.924 34.7404 113.881 34.7314 113.839C34.7044 113.706 34.8214 113.558 35.0304 113.493C35.6504 113.315 36.3054 113.193 36.9624 113.231C37.4484 113.249 37.9404 113.266 38.4304 113.284V113.306Z" fill="#231F20"/>
<path fill-rule="evenodd" clip-rule="evenodd" d="M78.8824 64.9757C79.4154 64.3257 79.9774 63.7017 80.5554 63.0937C80.7574 62.8657 80.9494 62.6237 81.1704 62.4107C81.9504 61.6597 82.8194 60.9877 83.7384 60.3857C83.9474 60.2567 84.1494 60.1177 84.3484 59.9747L84.9964 59.5977C85.5424 59.2817 86.2054 58.9617 86.9284 59.0917C87.1514 59.1227 87.0904 59.5127 86.9604 59.9137C86.8184 60.3277 86.6894 60.6937 86.4654 60.7827C85.6334 61.1147 84.7014 61.6847 83.7044 62.2867C83.1074 62.6527 82.6464 63.2257 82.1494 63.7437C81.6004 64.3127 81.0654 64.9057 80.5554 65.5237C80.2404 65.9017 79.9414 66.2957 79.6484 66.6927C79.2194 67.3037 78.7814 67.9187 78.4494 68.5797C78.1994 69.0977 78.0384 69.6417 77.8634 70.1587C77.8334 70.2727 77.7884 70.3777 77.7344 70.4847C77.5184 70.8727 77.4124 70.9487 77.0634 70.9927C76.9864 71.0017 76.9104 71.0187 76.8394 71.0217C76.6024 71.0317 76.4404 70.8027 76.3974 70.3587C76.2714 69.0807 76.8294 68.0357 77.4044 67.0527C77.8354 66.3157 78.3404 65.6307 78.8484 64.9527L78.8824 64.9757Z" fill="#231F20"/>
<path fill-rule="evenodd" clip-rule="evenodd" d="M33.0719 64.9531C33.6069 64.2831 34.1829 63.6361 34.7719 63.0031C34.9789 62.7671 35.1699 62.5111 35.3959 62.2891C36.2139 61.5231 37.0899 60.8071 38.0569 60.2201C38.4779 59.9421 38.8909 59.6701 39.3079 59.3951C39.5849 59.2341 39.8549 59.0521 40.1389 58.8961C40.4349 58.7641 40.7519 58.6671 41.0819 58.6401C41.2919 58.6241 41.3959 59.0541 41.3969 59.5201C41.3939 59.9871 41.3139 60.4881 41.0459 60.6171C40.0909 61.1281 39.2099 61.7491 38.1699 62.3251C37.5429 62.6691 37.0979 63.2731 36.5959 63.7961C36.0419 64.3741 35.5059 64.9861 34.9899 65.6201C34.6789 66.0171 34.3609 66.4111 34.0719 66.8281C33.6279 67.4531 33.1789 68.0871 32.7859 68.7471C32.4749 69.2571 32.3169 69.8441 32.0119 70.3551C31.9479 70.4701 31.8899 70.5831 31.8119 70.6911C31.5149 71.0871 31.3259 71.1561 30.9689 71.0651C30.8879 71.0441 30.8039 71.0301 30.7309 71.0021C30.4849 70.9091 30.3859 70.6181 30.4359 70.2341C30.5229 69.0621 31.0379 68.0641 31.5739 67.0511C32.0139 66.3221 32.5179 65.6241 33.0309 64.9271L33.0719 64.9531Z" fill="#231F20"/>
<path fill-rule="evenodd" clip-rule="evenodd" d="M41.0074 76.7423L50.7344 77.2213L54.2824 77.3203L60.5334 77.6103L66.7844 77.9383C68.6334 78.0193 70.4934 78.0353 72.3284 78.0313C74.6884 78.0553 77.0484 77.9053 79.4114 78.1693C80.1484 78.2393 80.0574 78.4143 79.4424 78.6863C79.1344 78.8233 78.6964 78.9923 78.1644 79.1663C77.6324 79.3553 77.0054 79.5043 76.3234 79.5273C71.4864 79.8173 66.6504 79.8533 61.7844 79.6103C58.8774 79.4003 55.8464 79.4053 52.8724 79.2843L43.0634 78.8163L37.0284 78.5193C33.9834 78.3783 30.9244 78.2263 27.9004 78.1323C25.5484 78.0913 23.2364 78.2753 20.9104 78.3073C20.3984 78.3223 19.8964 78.3363 19.3804 78.3503C17.4664 78.4133 16.8674 78.0283 16.4694 77.4953C16.3794 77.3703 16.2584 77.2503 16.2074 77.1363C16.1194 76.9423 16.2734 76.7733 16.6254 76.5963C16.9774 76.4263 17.5284 76.2113 18.2324 76.1563C20.3174 76.0283 22.4574 75.9483 24.6224 76.0773C25.7054 76.1373 26.7944 76.1973 27.8884 76.2573C28.9844 76.2603 30.0834 76.2803 31.1834 76.3183C34.4494 76.4433 37.7304 76.5683 41.0054 76.6923L41.0074 76.7423Z" fill="#231F20"/>
<path fill-rule="evenodd" clip-rule="evenodd" d="M61.8596 115.893C62.6546 115.344 63.4346 114.767 64.1566 114.125C64.4296 113.9 64.6536 113.627 64.9126 113.389C65.8206 112.544 66.6946 111.644 67.4346 110.632C67.7576 110.181 68.0486 109.704 68.3016 109.213C68.6236 108.581 68.9076 107.935 69.2826 107.321C69.4026 107.131 69.5606 107.223 69.6636 107.471C69.7636 107.716 69.8326 108.136 69.6916 108.542C69.1486 109.961 68.3356 111.281 67.3196 112.423C66.7126 113.104 66.1396 113.861 65.4666 114.506C64.7326 115.217 63.9466 115.87 63.1336 116.478C62.6346 116.853 62.1246 117.213 61.6076 117.558C60.8286 118.089 60.0146 118.57 59.2246 119.065C58.6336 119.465 58.0336 119.872 57.4366 120.277C57.3026 120.362 57.1776 120.456 57.0386 120.536C56.5276 120.834 56.3116 120.825 56.0456 120.578C55.9846 120.52 55.9166 120.468 55.8666 120.405C55.6986 120.195 55.8096 119.885 56.1426 119.61C57.1586 118.845 58.2746 118.164 59.3996 117.483C60.2206 116.959 61.0536 116.444 61.8396 115.869L61.8596 115.893Z" fill="#231F20"/>
<path fill-rule="evenodd" clip-rule="evenodd" d="M118.621 64.9492L118.595 65.5332L118.582 65.8242L118.535 66.3052C118.604 66.4152 118.513 66.4842 118.51 66.5742L118.493 66.6382L118.484 66.6702L118.48 66.6852V66.6862L118.409 66.6482V66.6492L118.408 66.6502L118.407 66.6512L118.405 66.6552L118.401 66.6612L118.331 66.7662C118.293 66.8372 118.225 66.8962 118.153 66.9532C118.093 67.0192 118.007 67.0622 117.909 67.0942C117.475 67.2612 117.388 67.3052 117.138 67.3812C116.753 67.4862 116.368 67.5792 115.979 67.6652C115.573 67.7372 115.267 67.8512 114.62 67.8792C114.075 67.9072 113.975 67.1482 113.923 66.7832C113.853 66.3372 113.796 65.8872 113.816 65.5052C113.822 65.4162 113.998 65.3202 114.23 65.3942C114.455 65.4692 114.704 65.6872 114.754 65.9402L114.873 66.5892L114.902 66.7382C114.913 66.7882 114.898 66.7492 114.903 66.7622C114.903 66.7622 114.896 66.7712 114.892 66.7812C114.884 66.8032 114.892 66.8262 114.918 66.8412C114.891 66.8632 115.028 66.8392 115.129 66.8212C115.233 66.8042 115.339 66.7872 115.448 66.7692C115.967 66.6862 116.471 66.4422 116.972 66.2562C117.038 66.2322 117.163 66.1802 117.183 66.1782L117.279 66.1512C117.311 66.1402 117.347 66.1312 117.378 66.1122C117.413 66.0912 117.35 66.0402 117.426 66.0252C117.394 65.9782 117.398 65.6702 117.392 65.4362C117.391 65.2772 117.377 65.0132 117.389 64.9392C117.396 64.8432 117.406 64.7362 117.405 64.6362L117.406 64.5182C117.411 64.4782 117.413 64.4242 117.363 64.4382C117.293 64.4422 117.222 64.4552 117.147 64.4672L116.916 64.5132L116.535 64.6052C116.103 64.7152 115.685 64.8822 115.237 64.9882C115.137 65.0102 115.041 65.0452 114.939 65.0592C114.559 65.1112 114.425 64.9942 114.351 64.6582C114.334 64.5842 114.312 64.5132 114.303 64.4462C114.275 64.2312 114.417 63.9642 114.646 63.8722C114.99 63.7422 115.339 63.6332 115.702 63.5322C116.168 63.4142 116.622 63.2992 117.081 63.1822C118.393 62.7702 118.737 63.7332 118.652 64.9462L118.621 64.9492Z" fill="#231F20"/>
<path fill-rule="evenodd" clip-rule="evenodd" d="M118.922 71.1758L118.882 72.1258V72.5318L118.79 72.8788C118.598 72.9118 118.646 73.0538 118.526 73.1198C118.434 73.1998 118.347 73.2828 118.209 73.3208C117.776 73.4878 117.689 73.5328 117.439 73.6078C117.054 73.7138 116.669 73.8058 116.28 73.8918C115.873 73.9638 115.568 74.0778 114.92 74.1058C114.375 74.1338 114.276 73.3748 114.224 73.0098C114.154 72.5638 114.097 72.1138 114.117 71.7318C114.123 71.6428 114.299 71.5468 114.531 71.6218C114.756 71.6958 115.005 71.9138 115.054 72.1668L115.173 72.8158L115.203 72.9658C115.213 73.0148 115.199 72.9758 115.204 72.9898C115.204 72.9898 115.197 72.9988 115.193 73.0078C115.184 73.0298 115.193 73.0538 115.219 73.0678C115.191 73.0908 115.329 73.0658 115.43 73.0488C115.534 73.0308 115.64 73.0138 115.749 72.9958C116.268 72.9138 116.772 72.6688 117.272 72.4828L117.468 72.4088L117.549 72.3868C117.59 72.3638 117.691 72.3678 117.689 72.3058L117.701 72.1118L117.692 71.6628C117.692 71.5038 117.678 71.2398 117.69 71.1658C117.697 71.0698 117.706 70.9628 117.706 70.8638L117.707 70.7448C117.712 70.7048 117.714 70.6508 117.664 70.6648C117.594 70.6688 117.523 70.6818 117.447 70.6948L117.217 70.7398L116.835 70.8318C116.404 70.9418 115.986 71.1088 115.537 71.2158C115.438 71.2378 115.342 71.2718 115.24 71.2868C114.859 71.3388 114.726 71.2208 114.652 70.8848C114.635 70.8108 114.613 70.7408 114.604 70.6728C114.576 70.4578 114.718 70.1908 114.946 70.0988C115.291 69.9688 115.64 69.8598 116.003 69.7598C116.469 69.6408 116.923 69.5258 117.382 69.4088C118.693 68.9968 119.038 69.9598 118.953 71.1728L118.922 71.1758Z" fill="#231F20"/>
</svg>
