<svg width="148" height="148" viewBox="0 0 148 148" fill="none" xmlns="http://www.w3.org/2000/svg">
<path fill-rule="evenodd" clip-rule="evenodd" d="M123.788 67.8154C125.359 70.8464 127.001 73.8434 128.722 76.7944C129.355 77.8684 130.026 78.9184 130.682 79.9764C132.94 83.7434 135.325 87.4404 137.902 91.0024C139.027 92.5964 140.273 94.1114 141.472 95.6294C142.246 96.6024 143.09 97.5194 143.883 98.4784C144.284 98.9584 144.677 99.4174 145.066 99.9774C145.433 100.513 145.723 101.012 146.118 101.38C146.621 101.79 146.508 102.037 145.739 101.902C145.363 101.822 144.859 101.541 144.388 101.162C144.158 100.976 143.925 100.788 143.685 100.594C143.46 100.43 143.173 100.165 142.941 99.9034C142.075 98.9544 141.198 98.0114 140.35 97.0444C139.526 96.0574 138.684 95.0834 137.892 94.0674C136.347 92.0084 134.849 89.9084 133.46 87.7244C131.787 85.1234 129.935 82.4944 128.255 79.8164C126.437 76.8564 124.682 73.8574 123.023 70.8074C122.001 68.9314 121.009 67.0384 120.026 65.1434C118.542 62.2714 117.147 59.3344 115.739 56.4554C114.65 54.2684 113.357 52.1534 111.809 50.5044C111.477 50.1594 111.084 49.8574 110.792 49.6874C110.493 49.5124 110.254 49.5764 110.056 49.6334C109.96 49.6494 109.831 49.6904 109.678 49.7464C109.527 49.7834 109.361 49.8184 109.175 49.8424C109.005 49.8624 108.819 49.9204 108.663 49.9194C108.399 49.9184 108.26 49.6954 108.266 49.2204C108.266 49.1024 108.312 48.9654 108.355 48.8144C108.39 48.6664 108.481 48.4964 108.617 48.3034C108.857 47.9164 109.288 47.5334 109.885 47.3714C110.324 47.2654 110.807 47.2694 111.257 47.4294C111.492 47.4814 111.702 47.6074 111.924 47.7104C112.134 47.8164 112.253 47.9154 112.423 48.0204C113.003 48.4314 113.456 48.8864 113.872 49.3534C114.693 50.2904 115.365 51.2864 115.979 52.3094C116.592 53.3324 117.144 54.3904 117.655 55.4584C118.155 56.4954 118.658 57.5364 119.16 58.5784C120.665 61.6624 122.204 64.7514 123.832 67.7864L123.788 67.8154Z" fill="#231F20"/>
<path fill-rule="evenodd" clip-rule="evenodd" d="M104.741 48.9531C104.377 48.1961 103.97 47.4501 103.507 46.7391C103.335 46.4821 103.118 46.2631 102.942 46.0091L102.47 45.3381C102.441 45.2521 102.267 45.0981 102.072 44.9531C101.679 44.6581 101.205 44.4021 100.725 44.2231C100.299 44.0701 99.8352 44.0181 99.4642 44.0771C99.2082 44.1001 99.0662 44.2281 98.9622 44.3071C98.8802 44.3981 98.7872 44.5131 98.6842 44.7471C98.6082 44.8701 98.2292 44.9011 97.8742 44.6801C97.7042 44.5651 97.5132 44.3891 97.4352 44.1321C97.3852 43.8711 97.3752 43.5211 97.6282 43.2351C97.8202 42.9601 98.0812 42.8011 98.3452 42.6361C98.5882 42.5331 98.8762 42.4091 99.1012 42.3871C99.5952 42.2881 100.012 42.3231 100.416 42.3761C101.211 42.5081 101.912 42.7521 102.559 43.1521C102.952 43.4021 103.332 43.5621 103.84 44.0411C104.135 44.3421 104.435 44.6411 104.702 44.9641C105.286 45.6781 105.812 46.4331 106.302 47.2101C106.601 47.6891 106.883 48.1781 107.159 48.6691C107.576 49.4151 107.918 50.2031 108.309 50.9571C108.616 51.5411 109.02 52.0791 109.35 52.6741C109.423 52.8051 109.501 52.9321 109.554 53.0711C109.747 53.5931 109.597 53.8231 109.032 54.0901C108.903 54.1511 108.777 54.2181 108.647 54.2671C108.22 54.4271 107.746 54.3381 107.49 54.0481C106.712 53.1961 106.32 52.2111 105.815 51.2171C105.454 50.4801 105.093 49.7261 104.694 48.9851L104.741 48.9531Z" fill="#231F20"/>
<path fill-rule="evenodd" clip-rule="evenodd" d="M97.0514 45.7313C96.5764 44.7203 96.0514 43.7363 95.4204 42.8583C95.1744 42.5613 94.9064 42.2653 94.6444 42.0023C94.4264 41.7413 94.1914 41.5153 93.9464 41.3043C93.7074 41.0723 93.4704 40.8953 93.1974 40.7373C92.6634 40.4263 92.0374 40.2283 91.4124 40.2613C90.8584 40.2853 90.3224 40.5043 89.9184 40.8563C89.3794 41.3133 89.1404 41.9843 88.8574 42.7033C88.7644 42.9253 88.4524 42.8903 88.1644 42.6143C87.8724 42.3493 87.5934 41.7763 87.8054 41.1713C88.1484 40.1123 89.0384 39.1663 90.1274 38.7363C91.2254 38.3443 92.4174 38.4053 93.3994 38.8353C94.6034 39.3103 95.6254 40.0703 96.4114 40.9223C97.2704 41.8783 97.9274 42.9323 98.5114 44.0013C98.8734 44.6583 99.1964 45.3303 99.5144 45.9983C99.9924 47.0143 100.401 48.0573 100.858 49.0613C101.208 49.8433 101.665 50.5673 102.056 51.3233C102.144 51.4903 102.247 51.6453 102.322 51.8173C102.599 52.4563 102.547 52.7063 102.027 53.0593C101.914 53.1373 101.808 53.2233 101.697 53.2863C101.336 53.4913 100.817 53.3833 100.533 52.9503C99.6444 51.6893 99.0354 50.2693 98.4174 48.8593C97.9674 47.8093 97.5224 46.7583 97.0064 45.7583L97.0514 45.7313Z" fill="#231F20"/>
<path fill-rule="evenodd" clip-rule="evenodd" d="M84.9528 54.6492L86.8658 57.9342L87.8318 59.5632L88.3938 60.4932C88.7028 60.9972 89.0208 61.5032 89.3618 62.0042C89.4948 62.3102 89.6618 62.6402 89.7658 62.9242L89.7958 63.5792C89.7788 63.7362 89.7288 63.9692 89.5358 64.2202C89.3628 64.4382 89.1728 64.5522 88.9638 64.6672C88.5338 64.8722 87.9258 64.9462 87.2068 64.8772C86.8468 64.8422 86.4768 64.7852 86.0998 64.7112C85.9138 64.6802 85.7238 64.6302 85.5368 64.5912L85.0468 64.4792C83.3558 64.0562 81.7428 63.5412 80.1308 62.9942C79.3378 62.7242 78.4978 62.4192 77.7478 62.1362C76.9998 61.8692 76.2148 61.6252 75.4338 61.4032C73.8708 60.9652 72.2748 60.6002 70.7228 60.4452C69.9478 60.3692 69.1698 60.3592 68.5288 60.4812C68.2148 60.5402 67.9528 60.6482 67.8208 60.7462C67.6988 60.8402 67.6718 60.8852 67.6458 61.0372C67.4708 62.0952 68.2628 63.3852 69.3648 64.4542C71.3238 66.3652 73.8858 67.8662 76.4438 69.2532C79.0278 70.6462 81.7028 71.8622 84.3988 73.2252C85.0808 73.5912 85.7358 73.8972 86.4928 74.4852C87.1158 75.0342 87.6488 75.5872 88.1568 76.1442L91.1588 79.4502C93.1648 81.6072 95.2088 83.7082 97.4478 85.5252C98.4598 86.2902 99.4918 87.0552 100.61 87.5972C101.164 87.9162 101.719 88.0762 102.324 88.3432C102.958 88.6172 103.631 88.8242 104.231 89.1532C106.701 90.3632 108.894 91.9622 110.931 93.6702C113.537 95.8822 115.956 98.2912 118.203 100.831C120.46 103.363 122.572 106.005 124.533 108.737C125.764 110.432 125.308 110.447 123.828 109.37C123.086 108.832 122.085 108.024 120.924 107.017C119.781 105.994 118.534 104.729 117.24 103.316C114.944 100.82 112.618 98.3632 110.111 96.1682C107.602 94.0082 104.927 91.9682 102.01 90.8402C101.383 90.5652 100.3 90.2062 99.5028 89.7722C98.6478 89.3502 97.8698 88.8462 97.1078 88.3302C95.5948 87.2842 94.2578 86.0862 92.9738 84.8592C90.4448 82.3792 88.3188 79.5432 86.0478 77.0712C85.7138 76.7072 85.3658 76.3582 85.0548 76.0902C84.7828 75.8742 84.3358 75.6072 83.9018 75.3742C83.0218 74.8932 82.0798 74.4352 81.1388 73.9742C79.2478 73.0552 77.3238 72.1312 75.4228 71.1232C73.5228 70.1102 71.6348 69.0322 69.8518 67.7122C68.9628 67.0492 68.0978 66.3292 67.3158 65.4652C66.5478 64.6022 65.8198 63.5652 65.5318 62.2392C65.4948 61.8902 65.4168 61.5382 65.4608 61.1792C65.4748 60.9972 65.4838 60.8262 65.5108 60.6362C65.5658 60.4192 65.6058 60.1992 65.7168 59.9952C65.8958 59.5742 66.2318 59.2252 66.5718 58.9812C66.9158 58.7342 67.2668 58.5982 67.6028 58.4922C68.9468 58.1192 70.1168 58.2312 71.2718 58.3412C73.5668 58.6202 75.7268 59.1962 77.8678 59.8902C79.9878 60.6592 81.9778 61.3672 84.0768 61.9652C84.5948 62.1132 85.1148 62.2542 85.6318 62.3792C85.8648 62.4372 86.0868 62.4892 86.3248 62.5252C86.4428 62.5432 86.5618 62.5562 86.6828 62.5582C86.7888 62.5542 86.9658 62.5542 86.9778 62.4202C86.9148 62.1992 86.7358 62.0242 86.6258 61.8122L86.1228 60.9842C83.1638 56.0522 80.3418 51.0662 77.4708 46.1132C75.1778 42.3962 73.4128 38.2732 72.1278 34.0952C71.8028 33.0472 71.5028 31.9932 71.2358 30.9292C70.9618 29.8832 70.7158 28.7502 70.6128 27.6462C70.5068 26.5302 70.4428 25.4072 70.6528 24.2192C70.7088 23.9212 70.7828 23.6212 70.9108 23.3112C71.0348 23.0012 71.2488 22.6262 71.5268 22.3772C72.0778 21.8302 72.9678 21.7402 73.6608 21.9722C74.6448 22.2772 75.3758 22.8322 76.0468 23.4352C76.7068 24.0442 77.2698 24.7172 77.7858 25.4082C78.8048 26.7972 79.6408 28.2672 80.4478 29.7142C82.0088 32.5672 83.8578 35.3132 85.6358 38.0862C86.4338 39.3042 87.2168 40.4962 88.0218 41.7242C90.9688 46.3152 91.7218 47.9112 91.7948 49.2272C91.8108 49.5272 91.8698 49.9002 91.8278 50.1042C91.6778 50.7942 90.2458 49.0732 88.0298 45.7742C86.3878 43.3242 84.7038 40.8442 83.0418 38.2992C82.2098 37.0272 81.3848 35.7372 80.5728 34.4282C79.7608 33.1472 78.9398 31.7142 78.2268 30.3892C77.4928 29.0592 76.7448 27.7692 75.8998 26.6222C75.0718 25.5022 74.0528 24.4792 73.1318 24.1342C73.0878 24.1232 73.0438 24.1092 73.0018 24.0922C72.9938 24.0892 72.9948 24.0912 72.9948 24.0912L72.9898 24.0932C72.9908 24.1032 72.9828 24.0942 72.9858 24.1022C72.9798 24.1142 72.8618 24.4222 72.8268 24.6832C72.7778 24.9652 72.7508 25.2882 72.7418 25.6222C72.7228 26.9822 72.9018 28.4592 73.2658 29.8522C74.3598 34.2382 75.9018 38.5772 78.0208 42.5342C80.3458 46.5592 82.6718 50.5872 84.9948 54.6112L84.9528 54.6492Z" fill="#231F20"/>
<path fill-rule="evenodd" clip-rule="evenodd" d="M132.609 100.704C132.051 101.169 131.415 101.548 130.819 101.953C130.164 102.279 129.556 102.678 128.877 102.933C128.384 103.122 127.928 103.398 127.426 103.554C126.522 103.773 125.637 104.036 124.721 104.093C124.267 104.133 123.819 104.223 123.368 104.221L122.018 104.22C121.221 104.257 120.437 104.136 119.653 104.138C118.642 104.169 117.649 103.937 116.716 103.541C116.426 103.412 116.544 103.082 116.869 102.743C117.195 102.411 117.727 102.013 118.265 101.982C119.196 102.022 120.123 102.062 121.059 102.102C121.525 102.157 121.976 102.078 122.441 102.108C122.904 102.121 123.377 102.172 123.839 102.131C124.972 102.129 126.076 101.714 127.129 101.308C127.701 101.062 128.297 100.854 128.831 100.52C129.104 100.365 129.386 100.223 129.655 100.058L130.43 99.5103C130.759 99.2973 131.055 99.0403 131.349 98.7783C131.643 98.5173 131.954 98.2723 132.212 97.9703C133.051 97.1183 133.816 96.1613 134.424 95.1213C134.885 94.3033 135.17 93.4123 135.48 92.5393C135.545 92.3453 135.588 92.1453 135.665 91.9553C136.032 91.2863 136.362 91.1563 136.919 91.2043C137.037 91.2123 137.147 91.2033 137.234 91.2143C137.479 91.2313 137.844 91.7283 137.839 92.3713C137.694 94.2253 136.763 95.9533 135.645 97.5433C134.784 98.7133 133.781 99.7993 132.649 100.746L132.609 100.704Z" fill="#231F20"/>
<path fill-rule="evenodd" clip-rule="evenodd" d="M136.849 103.092C136.806 102.996 136.745 102.869 136.641 102.737C136.59 102.675 136.516 102.599 136.436 102.596C136.36 102.595 136.313 102.639 136.274 102.685C136.191 102.777 136.144 102.924 136.192 103.072C136.214 103.146 136.251 103.221 136.295 103.3L136.361 103.426L136.409 103.529L136.438 103.593L136.524 103.816C136.717 104.267 136.801 104.858 136.778 105.407C136.743 105.669 136.704 105.944 136.638 106.187C136.574 106.412 136.485 106.666 136.329 106.954C136.143 107.25 135.903 107.637 135.311 107.908C134.719 108.165 134.123 108.065 133.765 107.93C133.088 107.646 132.793 107.328 132.492 107.042C132.361 106.913 132.254 106.787 132.141 106.661L131.984 106.473C131.937 106.418 131.96 106.439 131.938 106.411L131.808 106.21L131.516 105.738C131.405 105.569 131.291 105.378 131.125 105.215C130.949 105.07 130.691 105.01 130.499 105.102C130.309 105.189 130.196 105.39 130.231 105.576C130.255 105.764 130.339 105.948 130.428 106.145L130.726 106.775L130.799 106.95L130.907 107.258C130.952 107.473 131.017 107.611 131.03 107.891C131.036 108.026 131.045 108.144 131.033 108.29C131.002 108.465 130.952 108.644 130.886 108.808C130.741 109.092 130.417 109.427 130.188 109.49C130.062 109.548 129.929 109.599 129.803 109.636L129.511 109.67C129.326 109.693 129.119 109.703 128.866 109.661C128.644 109.617 128.448 109.547 128.276 109.465C127.616 109.127 127.216 108.699 126.836 108.307C126.44 107.89 126.187 107.557 125.889 107.229C125.756 107.085 125.628 106.954 125.483 106.864C125.41 106.823 125.329 106.78 125.238 106.803C125.141 106.827 125.092 106.94 125.034 107.011C124.914 107.416 125.05 107.759 125.169 108.038C125.304 108.326 125.438 108.613 125.574 108.903C125.615 108.986 125.598 109.061 125.579 109.141C125.569 109.239 125.523 109.33 125.441 109.359C125.264 109.408 125.039 109.402 124.515 109.074C124.016 108.761 123.18 108.007 122.539 107.056C122.197 106.575 122.002 106.126 121.858 105.693C121.765 105.296 121.723 104.912 121.802 104.585C121.894 104.114 122.12 103.66 122.55 103.168C122.695 103.053 122.813 102.917 122.98 102.82C123.146 102.721 123.329 102.662 123.471 102.62C123.759 102.555 123.966 102.536 124.196 102.57C124.642 102.634 125.157 102.82 125.852 103.46C126.543 104.035 127.29 105.111 128.059 105.953L128.609 106.548C128.736 106.68 128.793 106.737 128.884 106.819C129.046 106.97 129.207 107.094 129.294 107.143C129.332 107.196 129.379 107.046 129.244 107.435C129.207 107.553 129.193 107.682 129.183 107.732L129.182 107.789V107.819V107.823C129.187 108.431 129.177 106.999 129.178 107.146L129.179 107.145V107.144L129.183 107.137L129.187 107.138C129.189 107.153 129.232 107.372 129.266 107.478C129.324 107.637 129.311 107.682 129.323 107.751C129.335 107.819 129.357 107.887 129.39 107.952C129.422 108.018 129.465 108.081 129.518 108.14C129.522 108.151 129.516 108.154 129.523 108.164C129.527 108.174 129.537 108.185 129.552 108.194C129.587 108.214 129.48 108.148 129.45 108.144C129.401 108.128 129.353 108.122 129.308 108.124C129.283 108.123 129.271 108.131 129.236 108.13L129.07 108.111C128.861 108.094 128.61 108.129 128.462 108.186C128.442 108.148 128.454 108.126 128.418 108.034C128.378 107.898 128.224 107.563 128.093 107.327L127.69 106.56C127.134 105.545 126.703 104.56 126.661 103.928C126.608 103.274 126.658 102.848 126.843 102.315C126.974 101.956 127.238 101.546 127.606 101.223C127.976 100.902 128.468 100.681 128.934 100.635C129.413 100.574 129.834 100.672 130.127 100.815C130.445 100.958 130.763 101.13 131.138 101.406C131.901 101.955 132.785 103.273 133.637 104.322L133.966 104.71L134.146 104.905C134.265 105.028 134.385 105.15 134.489 105.234C134.592 105.327 134.698 105.387 134.698 105.387C134.619 105.576 134.525 105.842 134.523 105.963C134.508 106.095 134.543 106.148 134.516 106.087C134.497 106.054 134.483 106.042 134.411 105.95C134.349 105.883 134.29 105.854 134.161 105.743C134.103 105.7 134.043 105.662 133.982 105.63C133.964 105.623 133.975 105.641 133.975 105.626C133.98 105.611 133.987 105.596 133.995 105.583C134.041 105.483 134.06 105.359 134.077 105.271C134.082 105.176 134.096 105.1 134.067 105.004C134.065 104.961 134.052 104.908 134.024 104.85L133.995 104.764C133.991 104.741 133.918 104.634 133.884 104.572C133.548 104.002 133.038 103.317 132.809 102.763C132.551 102.193 132.416 101.682 132.349 101.175C132.238 100.174 132.449 99.0703 132.977 98.2143C133.225 97.8073 133.639 97.3903 134.17 97.3143C134.671 97.2603 135.051 97.4193 135.436 97.6163C135.903 97.8573 136.38 98.2423 136.88 98.7653C137.378 99.2953 137.88 99.9683 138.355 100.651L139.06 101.631C139.267 101.923 139.387 102.086 139.547 102.288C139.62 102.379 139.699 102.472 139.744 102.514C139.752 102.522 139.775 102.548 139.77 102.542C139.817 102.467 139.632 102.695 139.548 102.855C139.455 102.995 139.404 103.05 139.389 103.185C139.381 103.229 139.37 103.218 139.373 103.245C139.374 103.255 139.377 103.265 139.384 103.275C139.335 103.178 139.367 103.245 139.355 103.224L139.354 103.231C139.328 103.209 139.297 103.195 139.266 103.189C139.235 103.195 139.078 103.159 138.961 103.172C138.893 103.175 138.859 103.194 138.767 103.202C138.689 103.206 138.537 103.23 138.578 103.222C138.575 103.216 138.583 103.226 138.575 103.205C138.557 103.144 138.522 103.047 138.475 102.944C138.288 102.521 138.012 102.041 137.744 101.576L136.756 99.9233C135.938 98.5413 135.189 97.1233 134.984 96.0893C134.875 95.5413 134.764 95.0533 134.886 94.4883C135.001 93.9363 135.429 93.3253 136.052 93.1383C136.391 93.0203 136.74 93.0213 137.013 93.0923C137.295 93.1583 137.45 93.3093 137.661 93.4203C138.094 93.6713 138.638 93.9113 139.328 94.5143C140.008 95.1583 140.721 95.8523 141.46 96.4963C141.888 96.8763 142.085 97.0363 142.331 97.2373L143.061 97.8323C143.497 98.1703 143.925 98.5023 144.363 98.8423C145.97 100.118 146.33 100.604 146.265 101.496C146.251 101.697 146.271 101.918 146.232 102.1C146.134 102.714 145.004 102.682 143.64 101.81C141.828 100.732 139.064 98.3073 139.677 98.9963C139.608 99.0353 139.692 99.1873 139.694 99.1673C139.694 99.1673 139.688 99.1633 139.683 99.1683L139.679 99.1733L139.678 99.1763L139.81 99.4133L140.484 100.644C140.71 101.086 140.933 101.489 141.175 102.152L141.269 102.46C141.302 102.588 141.335 102.748 141.355 102.931C141.366 103.071 141.367 103.215 141.357 103.356L141.347 103.468C141.336 103.536 141.323 103.605 141.306 103.674C141.271 103.811 141.224 103.948 141.164 104.076C141.097 104.28 140.761 104.716 140.429 104.91C140.128 105.131 139.504 105.277 139.049 105.187C138.793 105.136 138.619 105.066 138.418 104.965C138.302 104.904 138.277 104.883 138.238 104.857L138.123 104.773C137.945 104.64 137.881 104.568 137.802 104.489C137.641 104.325 137.553 104.213 137.456 104.092C137.271 103.858 137.136 103.659 136.995 103.456L136.879 103.284C136.862 103.255 136.871 103.267 136.865 103.257L136.833 103.186L136.849 103.092Z" fill="#231F20"/>
<path fill-rule="evenodd" clip-rule="evenodd" d="M29.1274 41.041L28.5654 41.226C28.4374 41.249 27.9654 41.403 27.6834 41.433C27.3644 41.474 27.0564 41.479 26.7434 41.505C26.4294 41.529 26.1784 41.431 25.8934 41.4C25.7514 41.36 25.6474 41.254 25.5234 41.185L25.3434 41.068L25.3204 41.054C25.2624 41.103 25.3984 40.983 25.3824 40.995L25.3794 40.992L25.3744 40.987L25.3634 40.978L25.3184 40.938L25.2394 40.862C25.0104 40.695 25.0154 40.383 25.0034 40.068C25.0024 39.748 25.0994 39.367 25.2084 38.999C25.2584 38.814 25.3204 38.629 25.3844 38.443L25.5414 37.997C25.8434 37.179 26.1674 36.392 26.4974 35.606L27.5114 33.272L28.0314 32.114L28.1884 31.797L28.0114 31.684L27.3024 31.264C26.5504 30.813 25.7934 30.355 25.0484 29.834C24.6784 29.565 24.3084 29.293 23.9514 28.97C23.7724 28.816 23.5974 28.641 23.4254 28.459C23.3374 28.374 23.2564 28.266 23.1744 28.167C23.0984 28.077 22.9994 27.958 22.9014 27.782C22.5344 27.278 22.3974 26.709 22.3384 26.159C22.3684 25.908 22.4174 25.634 22.5744 25.421C22.7344 25.218 22.9444 25.051 23.2024 24.921C23.4444 24.784 23.7434 24.677 24.0044 24.592L24.2064 24.525L24.3424 24.487L24.6094 24.414C25.3174 24.229 26.0104 24.091 26.7044 23.962C27.3964 23.835 28.0874 23.724 28.7794 23.62L29.8164 23.472C30.2524 23.411 30.3114 23.409 30.4424 23.396C30.4834 23.35 30.5094 23.283 30.5444 23.226L30.7564 22.814L31.2704 21.826C31.6164 21.168 31.9704 20.513 32.3374 19.862C32.7044 19.211 33.0824 18.564 33.4874 17.926C33.6894 17.606 33.9014 17.29 34.1244 16.975C34.2354 16.818 34.3514 16.661 34.4734 16.506C34.5984 16.352 34.7014 16.208 34.9204 15.984C35.2704 15.613 35.6674 15.292 36.1334 15.221C36.3824 15.171 36.5954 15.301 36.7974 15.412C37.0134 15.498 37.1834 15.711 37.3754 15.863C37.7784 16.251 37.9364 16.488 38.1634 16.785C38.3804 17.069 38.5674 17.361 38.7614 17.652C39.5104 18.821 40.1654 20.016 40.7794 21.22C41.1744 21.993 41.5594 22.771 41.9254 23.562L42.1674 24.088C42.2134 24.158 42.2204 24.274 42.2984 24.301L43.2154 24.454C44.9084 24.749 46.5954 25.074 48.2644 25.48C50.3444 25.987 47.3534 27.275 43.4604 26.582L42.1574 26.349L40.8654 26.114C40.6304 25.791 40.5084 25.33 40.3234 24.943C39.9424 24.059 39.6184 23.351 39.2364 22.556C38.4904 21.022 37.7024 19.472 36.7994 18.129L36.4574 17.65L36.2834 17.439L36.2654 17.41C36.2554 17.39 36.2304 17.348 36.1994 17.363C36.1394 17.414 36.2454 17.259 35.9074 17.678C35.6654 17.985 35.4264 18.322 35.1944 18.672C34.2644 20.078 33.4104 21.606 32.5704 23.139C32.4454 23.372 32.3204 23.605 32.1934 23.841L31.9104 24.387C31.7994 24.593 31.6894 24.797 31.5694 24.994L30.0934 25.186L29.0854 25.333C28.4124 25.437 27.7394 25.553 27.0714 25.684C26.4044 25.815 25.7374 25.96 25.1034 26.136L24.6994 26.255C24.6274 26.279 24.5854 26.293 24.5314 26.317C24.4394 26.354 24.2944 26.421 24.3494 26.548C24.3614 26.628 24.3944 26.704 24.4314 26.775L24.4984 26.877L24.6724 27.089C24.9504 27.403 25.2914 27.708 25.6564 27.999C26.2804 28.492 26.9764 28.944 27.6854 29.382L28.7664 30.028L30.5164 31.022L29.2754 33.771L28.3694 35.855C28.0734 36.551 27.7844 37.249 27.5124 37.949L27.1744 38.851C27.1174 39.009 27.0614 39.172 27.0224 39.343C27.0164 39.408 26.9794 39.503 27.0414 39.546C27.1104 39.557 27.1794 39.579 27.2504 39.583C27.3974 39.59 27.5444 39.573 27.6924 39.548L27.9154 39.495C28.0584 39.463 28.2034 39.41 28.3474 39.361C28.9274 39.177 29.5014 38.912 30.0694 38.646C31.2014 38.087 32.2964 37.425 33.3404 36.696C34.3424 35.974 34.9964 35.518 36.4244 34.129C36.8514 34.536 37.3154 34.979 37.7144 35.334L38.6214 36.127C39.2304 36.652 39.8594 37.147 40.4954 37.629C41.1394 38.096 41.7864 38.562 42.4644 38.953C42.7964 39.165 43.1464 39.325 43.4874 39.508L44.0094 39.73C44.1614 39.806 44.4104 39.877 44.4744 39.893C44.6874 39.96 44.9404 40.003 45.1664 39.975C45.2684 39.955 45.4354 39.975 45.4274 39.82C45.4314 39.7 45.4074 39.583 45.3794 39.469C45.3524 39.355 45.3194 39.245 45.2844 39.138L45.1324 38.689C44.9974 38.301 44.8494 37.913 44.6974 37.525C44.3914 36.751 44.0654 35.98 43.7314 35.211L42.5704 32.518C42.3724 32.03 42.1504 31.53 41.9644 31.039C42.6354 30.93 43.3094 30.821 43.9944 30.71C44.7514 30.574 45.3774 30.461 45.9044 30.367C46.3684 30.284 46.7394 30.223 47.0484 30.188C47.6664 30.114 48.0364 30.155 48.3904 30.276C48.5574 30.339 48.7544 30.355 48.8864 30.421C49.1084 30.513 48.9894 30.811 48.5184 31.141C48.0524 31.47 47.2754 31.799 46.2644 32.07C45.7944 32.197 45.2564 32.326 44.8284 32.423C44.7384 32.459 44.6474 32.495 44.5544 32.532C44.5824 32.593 44.6274 32.656 44.6584 32.704L44.7044 32.772C44.7174 32.798 44.7054 32.76 44.7394 32.836L44.8374 33.057C45.0964 33.652 45.3574 34.249 45.6194 34.85C45.8764 35.455 46.1274 36.067 46.3714 36.693L46.7274 37.644L46.8974 38.132L46.9784 38.382L47.1014 38.798C47.4844 40.048 47.5734 41.348 46.4524 41.662L46.1044 41.811C45.9754 41.84 45.8174 41.826 45.6744 41.835C45.3794 41.834 45.0974 41.87 44.7904 41.839C44.4934 41.821 44.1344 41.692 43.8164 41.604C43.6124 41.552 43.4424 41.474 43.2654 41.401C41.8524 40.812 40.6814 40.031 39.5464 39.215C38.8414 38.699 38.1594 38.163 37.4984 37.604L36.5164 36.755C36.3994 36.65 36.4464 36.691 36.4364 36.682L36.4354 36.679L36.4314 36.672C36.4264 36.674 36.4304 36.668 36.4134 36.681C36.1064 36.955 35.7854 37.198 35.4704 37.455C34.8264 37.941 34.1764 38.415 33.4974 38.845C32.1444 39.715 30.7404 40.495 29.1494 41.083L29.1274 41.041Z" fill="#231F20"/>
<path fill-rule="evenodd" clip-rule="evenodd" d="M110.863 37.7058L111.084 38.4868C111.189 38.8658 111.287 39.2488 111.336 39.6108C111.447 40.3618 111.366 40.9188 110.978 41.3588C110.741 41.5488 110.439 41.5958 110.176 41.7178C109.868 41.7638 109.519 41.7368 109.198 41.7488C108.863 41.7268 108.495 41.5888 108.151 41.5158C107.798 41.4528 107.436 41.2718 107.269 41.1928C106.64 40.9088 106.051 40.6218 105.511 40.2618C104.564 39.6258 103.695 38.9278 102.859 38.2048C102.444 37.8398 102.034 37.4718 101.632 37.0978L101.032 36.5318C100.912 36.4168 100.875 36.3758 100.836 36.3328L100.703 36.1918C100.631 36.1168 100.556 36.0328 100.481 35.9668L100.089 36.3368L99.7143 36.6728L99.2803 37.0458C98.3213 37.8548 97.3533 38.6968 96.1563 39.1458C95.4173 39.4088 95.2913 37.2188 96.3573 36.4798C96.9153 36.0958 97.4603 35.6958 97.9953 35.2888L98.3913 34.9808C98.5403 34.8618 98.5883 34.8308 98.9163 34.5478L100.463 33.1148C101.13 33.7788 101.799 34.4448 102.472 35.1148C102.837 35.4888 103.203 35.8648 103.572 36.2438C104.607 37.2898 105.892 38.1408 107.129 38.8708C107.47 39.0648 107.812 39.2608 108.156 39.4068C108.314 39.4858 108.335 39.4958 108.425 39.5298C108.5 39.5588 108.577 39.5958 108.662 39.6088C108.746 39.6238 108.834 39.6578 108.925 39.6478C109.002 39.6368 109.145 39.6828 109.159 39.5758C109.193 39.4138 109.154 39.2418 109.123 39.0608L109.087 38.8918C109.071 38.8278 109.068 38.8008 109.024 38.6518L108.803 37.9228C108.649 37.4348 108.483 36.9478 108.309 36.4628L107.495 34.2538C107.115 33.2968 106.737 32.3438 106.361 31.3948C106.345 31.3398 106.289 31.2598 106.308 31.2268C107.124 31.0978 107.946 30.9398 108.776 30.7418C109.327 30.5938 109.871 30.4288 110.406 30.2618L111.124 30.0138C112.014 29.7288 112.257 29.7578 112.669 30.1678C112.764 30.2608 112.879 30.3438 112.967 30.4408C113.289 30.7458 113.001 31.3308 112.268 31.6908C111.487 32.0808 110.691 32.3488 109.875 32.5778L109.26 32.7378L109.118 32.7718L109.111 32.7818L109.102 32.7988C109.095 32.8188 109.1 32.8308 109.107 32.8388C109.127 32.8558 109.133 32.8528 109.133 32.8528C109.762 34.4058 110.369 36.0188 110.911 37.6868L110.863 37.7058Z" fill="#231F20"/>
<path fill-rule="evenodd" clip-rule="evenodd" d="M92.3185 23.409L93.5925 23.232L94.1875 23.157C94.2775 23.149 94.2635 23.157 94.3105 23.156C94.3305 23.139 94.3465 23.112 94.3655 23.086L94.6395 22.568L95.2445 21.433C95.6525 20.679 96.0715 19.928 96.5095 19.181C96.9915 18.367 97.4395 17.529 98.0285 16.733C98.1635 16.551 98.3065 16.369 98.4605 16.187C98.5235 16.112 98.6345 15.978 98.7725 15.843C98.8975 15.708 99.0265 15.58 99.1665 15.474C99.4365 15.239 99.7385 15.084 100.058 15.024C100.395 14.941 100.709 15.089 100.99 15.225C101.193 15.373 101.368 15.553 101.556 15.713C101.742 15.861 101.92 16.108 102.006 16.209C102.22 16.474 102.396 16.74 102.576 17.007C102.925 17.542 103.235 18.082 103.531 18.627C104.123 19.716 104.649 20.821 105.154 21.935L106.056 23.945L106.197 24.263L106.25 24.381C106.274 24.411 106.331 24.4 106.37 24.412L107.202 24.543C109.027 24.837 110.877 25.037 112.658 25.566C113.769 25.896 112.007 27.408 109.909 27.043L107.124 26.536L105.241 26.176L104.898 26.11C104.834 26.024 104.803 25.899 104.755 25.795L104.489 25.146L104.166 24.357C103.457 22.65 102.709 20.935 101.885 19.285C101.648 18.805 101.378 18.347 101.09 17.904C100.941 17.699 100.795 17.47 100.634 17.29C100.514 17.138 100.5 17.129 100.416 17.053C100.348 16.974 100.236 16.961 100.158 17.034C100.073 17.098 100.029 17.147 99.9405 17.255C99.6035 17.668 99.2775 18.149 98.9625 18.635C98.3665 19.556 97.8095 20.53 97.2685 21.512L95.4935 24.834L94.2625 24.993C92.7145 25.201 91.1595 25.43 89.6595 25.769C89.3765 25.835 89.0945 25.903 88.8225 25.981C88.5715 26.053 88.4745 26.081 88.3095 26.15C88.1625 26.202 87.9845 26.319 88.0555 26.499C88.0755 26.659 88.1385 26.815 88.2255 26.955C88.2885 27.067 88.4685 27.302 88.6565 27.493C88.8395 27.691 89.0495 27.877 89.2645 28.058C89.6955 28.42 90.1735 28.747 90.6605 29.058C91.0385 29.301 91.4295 29.525 91.8255 29.741L93.1195 30.416L94.0545 30.898L94.2935 31.021L94.4135 31.083C94.4145 31.117 94.3875 31.161 94.3755 31.2L94.1905 31.683L93.5555 33.347C93.4155 33.721 93.2965 34.093 93.1465 34.466C92.5925 35.847 92.2905 36.234 91.7025 36.344C91.5685 36.368 91.4255 36.415 91.3025 36.412C90.8885 36.402 90.8335 35.72 91.1615 34.66C91.4045 33.874 91.6705 33.084 91.9515 32.291L92.0545 32.001L92.0495 31.967L92.0385 31.914C92.0245 31.886 91.9515 31.894 91.9325 31.89L91.9265 31.889L91.8565 31.853L91.7135 31.777L91.4275 31.622L90.8555 31.305C90.4735 31.089 90.0925 30.864 89.7125 30.622C88.9525 30.133 88.1915 29.62 87.4595 28.902C87.3235 28.762 87.1885 28.638 87.0575 28.472L86.8575 28.229C86.7785 28.131 86.6935 27.969 86.6125 27.842C86.2535 27.311 86.0965 26.706 86.0835 26.149L86.1275 25.738C86.2065 25.623 86.2065 25.469 86.2835 25.354C86.4205 25.12 86.6375 24.943 86.8715 24.774C87.1275 24.62 87.4115 24.492 87.7055 24.381L88.1315 24.238L88.4005 24.159C89.7415 23.795 91.0165 23.579 92.3075 23.364L92.3185 23.409Z" fill="#231F20"/>
<path fill-rule="evenodd" clip-rule="evenodd" d="M57.15 27.1592L56.951 27.2122L56.904 27.2212L56.849 27.2312C56.814 27.2372 56.76 27.2572 56.77 27.3002C56.767 27.3312 56.775 27.3642 56.786 27.3982C56.795 27.4162 56.798 27.4292 56.813 27.4532L56.991 27.6832C57.27 28.0052 57.626 28.3232 58.004 28.6272C58.772 29.2352 59.638 29.7952 60.525 30.3322L60.905 30.5582L61.47 30.8772L62.856 31.6432L61.991 33.5632C61.246 35.1572 60.507 36.7582 59.832 38.3672L59.385 39.4782C59.317 39.6392 59.245 39.8132 59.196 40.0052C59.187 40.0532 59.173 40.1032 59.182 40.1522C59.193 40.2072 59.257 40.1892 59.296 40.2072C59.384 40.2372 59.477 40.2242 59.572 40.2282C59.668 40.2262 59.763 40.2052 59.863 40.1932C59.958 40.1782 60.041 40.1532 60.278 40.0912C61.7 39.6692 63.096 38.9452 64.406 38.1762C66.084 37.1592 67.665 35.9652 69.196 34.8362C69.662 34.4842 69.971 34.8552 69.898 35.5682C69.83 36.2852 69.314 37.3132 68.332 38.0142C66.598 39.2552 64.774 40.3092 62.796 41.1632C62.295 41.3692 61.792 41.5692 61.257 41.7352C61.125 41.7772 60.997 41.8242 60.855 41.8572L60.358 41.9872C59.887 42.1172 59.435 42.1102 58.983 42.1672C58.744 42.2152 58.578 42.1282 58.376 42.1112C58.19 42.0682 57.964 42.0762 57.845 41.9552L57.631 41.8152L57.525 41.7462L57.499 41.7292L57.485 41.7202C57.429 41.7692 57.559 41.6512 57.544 41.6622L57.541 41.6592L57.534 41.6532L57.482 41.6052C57.35 41.4802 57.258 41.3722 57.236 41.1972C57.083 40.5542 57.484 39.5122 57.773 38.7752C58.263 37.6172 58.758 36.4482 59.257 35.2672L60.007 33.5102L60.348 32.7342L60.485 32.4482L60.495 32.4292L60.211 32.2512L59.411 31.7722C58.823 31.4122 58.237 31.0392 57.661 30.6352C57.086 30.2292 56.517 29.7982 55.983 29.2722C55.708 28.9752 55.489 28.7802 55.206 28.3182C54.891 27.8792 54.767 27.3832 54.709 26.9012L54.723 26.7422C54.743 26.0972 55.412 25.8182 55.995 25.5892L56.434 25.4472L56.758 25.3582L57.402 25.2012C58.257 25.0072 59.106 24.8562 59.954 24.7122L61.491 24.4712L62.753 24.3032C63.117 23.7142 63.482 23.1272 63.844 22.5422C64.266 21.8832 64.687 21.2252 65.106 20.5702C65.66 19.7272 66.197 18.8872 66.802 18.0652C66.954 17.8602 67.11 17.6562 67.277 17.4532L67.55 17.1362C67.676 16.9972 67.819 16.8702 67.956 16.7352C68.245 16.4942 68.554 16.2782 68.891 16.1852C69.236 16.0852 69.608 16.1872 69.839 16.3942C70.08 16.5922 70.288 16.8752 70.506 17.1502L70.957 17.7162C71.936 18.9912 72.139 19.4792 71.955 20.0692C71.913 20.2032 71.887 20.3582 71.825 20.4672C71.617 20.8332 70.975 20.4982 70.173 19.6012L69.286 18.5882C69.091 18.3512 69.113 18.4092 69.067 18.3702C69.032 18.3512 69.01 18.3332 68.981 18.3312C68.907 18.3562 68.875 18.4372 68.857 18.4752C68.855 18.4802 68.854 18.4862 68.847 18.4962L68.755 18.6022L68.561 18.8372L68.173 19.3402C67.145 20.7332 66.157 22.2922 65.196 23.8522C64.764 24.5722 64.331 25.2922 63.897 26.0162L61.728 26.3232L60.174 26.5712C59.148 26.7492 58.11 26.9432 57.166 27.2022L57.15 27.1592Z" fill="#231F20"/>
<path fill-rule="evenodd" clip-rule="evenodd" d="M32.786 39.9801C31.878 40.5491 30.943 41.0721 29.963 41.5311C29.472 41.7581 28.968 41.9691 28.448 42.1561C28.178 42.2401 27.923 42.3381 27.642 42.4071L27.223 42.5101C27.072 42.5521 26.977 42.5561 26.705 42.6001C26.177 42.6931 25.747 42.6021 25.272 42.5621L24.839 42.3351C24.89 42.2351 24.793 42.2591 24.781 42.2151L24.694 42.1281C24.658 42.0591 24.604 42.0021 24.587 41.9201C24.48 41.6171 24.521 41.2091 24.589 40.8131C24.713 40.1421 24.793 39.9331 24.886 39.5791L25.178 38.6051L25.808 36.6911L27.126 32.9761L27.261 32.6201C27.067 32.5041 26.004 31.9251 25.258 31.4721C24.598 31.0741 23.93 30.6621 23.311 30.1211C22.713 29.5891 22.091 28.8441 22 27.8551C21.998 27.2241 22.432 27.4221 22.855 27.7081C23.325 28.0081 23.818 28.1771 24.333 28.6671C24.849 29.1731 25.546 29.6431 26.247 30.1001L27.335 30.7751L29.213 31.8701L28.586 33.6051L28.234 34.5241C27.996 35.1341 27.757 35.7471 27.517 36.3631C27.18 37.2211 26.891 38.1161 26.637 39.0181C26.51 39.4681 26.39 39.9221 26.286 40.3691L26.206 40.7341C26.191 40.8101 26.176 40.8881 26.177 40.9701C26.178 41.0451 26.266 41.0251 26.314 41.0471C26.39 41.0561 26.473 41.0621 26.555 41.0521C26.568 41.0561 26.809 41.0241 27.022 40.9621C27.44 40.8681 27.869 40.7191 28.29 40.5521C29.137 40.2191 29.97 39.8041 30.781 39.3481C31.869 38.7271 32.926 38.0331 33.911 37.2591C34.165 37.0641 34.391 36.8751 34.646 36.6551C35.011 36.3411 35.34 36.0121 35.682 35.7011L36.722 36.6851L37.448 37.3341C37.932 37.7581 38.428 38.1621 38.932 38.5511C40.109 39.4421 41.368 40.1911 42.648 40.7631C42.928 40.9011 43.214 40.9601 43.492 41.0811C43.75 41.1631 43.958 41.2151 44.132 41.2861C44.299 41.3301 44.426 41.3611 44.537 41.4181C44.764 41.5441 44.861 41.6061 45.023 41.8241C45.092 41.9141 45.189 42.0011 45.25 42.0911C45.352 42.2431 45.301 42.4011 45.042 42.5551C44.772 42.7361 44.339 42.7901 43.8 42.7411C42.278 42.4911 40.991 41.7991 39.77 41.0451C38.555 40.2771 37.422 39.3921 36.334 38.4571L35.691 37.8901C35.691 37.8901 35.691 37.8861 35.69 37.8801L35.685 37.8781H35.681L35.684 37.8741L35.589 37.9551C35.296 38.2131 34.991 38.4481 34.689 38.6881C34.077 39.1531 33.454 39.5991 32.81 40.0121L32.786 39.9801Z" fill="#231F20"/>
<path fill-rule="evenodd" clip-rule="evenodd" d="M59.7432 36.9392L58.7392 39.0222L58.2662 40.0672L58.0462 40.5882L57.9412 40.8482L57.9102 40.9092C57.8652 41.0122 57.7912 41.2142 57.9692 41.2002L57.9872 41.2042C58.0402 41.2152 58.1052 41.2302 58.1672 41.2322C58.1612 41.2362 58.3252 41.2312 58.4262 41.2262L58.7722 41.1892C59.2342 41.1422 59.7092 41.0622 60.1802 40.9582C61.1222 40.7542 62.0662 40.4902 62.9842 40.1522C63.7992 39.8542 64.5952 39.4832 65.3332 39.0512C66.2882 38.4992 67.1442 37.8272 68.0192 37.2512C68.2942 37.0762 68.5722 37.3792 68.6202 37.8792C68.6782 38.3842 68.4492 39.0912 67.8662 39.4982C65.8102 40.9072 63.5622 41.7892 61.1842 42.2742C60.5542 42.3982 59.9292 42.5212 59.2972 42.6452C58.9602 42.6872 58.6642 42.7552 58.2892 42.7732C57.7452 42.8472 57.2822 42.7502 56.7982 42.6992L56.4732 42.5212L56.3122 42.4322C56.3472 42.3302 56.2362 42.3262 56.2202 42.2642C55.9742 41.8472 56.1812 41.1872 56.3862 40.5862C56.5142 40.2252 56.5552 40.1392 56.6412 39.9232L56.8752 39.3712C57.1912 38.6392 57.5252 37.9242 57.8622 37.2112L59.1302 34.5972L59.5652 33.7162L59.8202 33.2292C59.2562 32.9002 58.6962 32.5742 58.1392 32.2502C57.1542 31.6722 56.1392 31.1722 55.2012 30.3812C54.9972 30.2002 54.7852 30.0302 54.6022 29.7972C54.2582 29.3792 54.1052 28.9912 54.0962 28.7042C54.0832 28.4132 54.1982 28.2312 54.4062 28.1012C54.4982 28.0422 54.5892 27.9772 54.6842 27.9522C55.0252 27.8962 55.2592 28.1682 55.5452 28.5132C56.0132 29.0772 56.8062 29.6092 57.6272 30.1222C58.0412 30.3802 58.4742 30.6352 58.9162 30.8892L60.4192 31.7422C60.9112 32.0162 61.4032 32.2912 61.8982 32.5672C61.1942 34.0262 60.4862 35.4922 59.7802 36.9542L59.7432 36.9392Z" fill="#231F20"/>
<path fill-rule="evenodd" clip-rule="evenodd" d="M91.0148 32.4131C91.2418 32.4781 90.3558 31.9131 89.8578 31.5591C89.6508 31.4171 89.4198 31.3131 89.2178 31.1611C88.5038 30.6231 87.8118 30.0441 87.1568 29.3951C86.8698 29.0991 86.5528 28.8361 86.2638 28.5091C85.9018 28.1201 85.4378 27.5731 85.5538 26.8571C85.5878 26.6361 86.0058 26.7131 86.4198 26.7951C86.8288 26.8901 87.2278 26.8791 87.2888 26.9971C87.5338 27.4971 88.2078 28.1891 88.8388 28.9131C89.2288 29.3551 89.7808 29.6331 90.2788 29.9741L91.1098 30.5391L91.5298 30.8201L91.7418 30.9591L92.0678 31.1611L92.8688 31.6551L92.9668 31.7141C92.9808 31.7251 93.0028 31.7331 93.0118 31.7461L92.9858 31.8011L92.8848 32.0211L92.6868 32.4551L92.1918 33.5271C92.0578 33.8131 91.9318 34.1011 91.8208 34.3951C91.6498 34.8511 91.5688 35.3341 91.4498 35.8041C91.4238 35.9081 91.4118 36.0151 91.3778 36.1161C91.2508 36.4911 91.1028 36.5671 90.6728 36.4871C90.5758 36.4681 90.4748 36.4561 90.3808 36.4301C90.0588 36.3431 89.8688 36.0911 89.8908 35.7851C89.9578 34.8771 90.2718 34.0141 90.6238 33.1631L90.8268 32.6921L90.9288 32.4641L90.9358 32.4691C90.9418 32.4761 90.9878 32.4461 90.9738 32.4361L91.0148 32.4131Z" fill="#231F20"/>
</svg>
