<svg width="148" height="148" viewBox="0 0 148 148" fill="none" xmlns="http://www.w3.org/2000/svg">
<path fill-rule="evenodd" clip-rule="evenodd" d="M109.407 93.5215C108.654 92.0725 107.95 90.5925 107.154 89.1615C106.334 87.7445 105.566 86.2935 104.672 84.9185C104.026 83.9105 103.373 82.9075 102.696 81.9225C100.407 78.3755 97.8805 74.9805 95.2025 71.7065C94.5965 70.9905 93.9865 70.2725 93.3545 69.5785C92.7015 68.9035 92.0505 68.2305 91.4035 67.5625C90.5755 66.6985 89.6595 65.9245 88.8055 65.0875C88.3845 64.6615 87.9275 64.2775 87.5105 63.8485C87.0965 63.4155 86.6915 62.9725 86.2945 62.5195C85.8035 61.9495 86.1145 61.7295 86.8705 61.8295C87.2495 61.8785 87.7435 62.0045 88.2955 62.2165C88.8535 62.4195 89.4495 62.7345 89.9585 63.2215C93.6485 66.5915 97.0015 70.3115 99.9045 74.4035C100.757 75.6385 101.67 76.8615 102.592 78.0885C103.472 79.3465 104.404 80.5795 105.238 81.8625C107.064 84.6895 108.807 87.5725 110.371 90.5535C111.378 92.3625 112.24 94.2495 113.148 96.1075C113.8 97.5335 114.394 98.9905 115.019 100.427C115.576 101.895 116.132 103.359 116.684 104.814C117.074 105.961 117.495 107.086 117.927 108.208C118.314 109.344 118.675 110.488 119.043 111.639C119.214 112.143 119.379 112.639 119.484 113.166C119.926 115.108 119.846 115.771 119.255 116.293C119.121 116.412 118.994 116.56 118.854 116.638C118.392 116.897 117.775 116.196 117.362 114.853C116.159 110.862 114.909 106.688 113.295 102.585C112.76 101.041 112.054 99.5545 111.442 98.0295C110.792 96.5195 110.057 95.0425 109.359 93.5515L109.407 93.5215Z" fill="#231F20"/>
<path fill-rule="evenodd" clip-rule="evenodd" d="M55.2482 128.859C51.3032 128.141 47.3602 127.268 43.5382 125.758C41.6372 124.99 39.7392 124.086 38.0482 122.669C37.2132 121.958 36.4222 121.091 35.8982 119.992C35.8362 119.854 35.7622 119.722 35.7112 119.578L35.5432 119.051C35.3042 118.64 35.5472 118.149 35.5742 117.891L35.9142 116.372C36.7032 113.493 37.6542 110.717 38.8382 108.051C42.9682 98.6319 48.2592 89.8299 54.2652 81.5579C55.5912 79.7179 57.0132 77.9389 58.3952 76.1389L60.5742 73.5229L61.6592 72.2179L62.8052 70.9699C66.6632 66.6719 70.8552 62.4849 75.8972 59.5089C77.4502 58.5629 77.4482 59.0499 76.4762 60.3129C75.9872 60.9399 75.2862 61.7929 74.3442 62.6619C73.4262 63.5679 72.3872 64.6659 71.1342 65.6949C62.5222 73.3849 55.4022 82.7399 49.1322 92.6659C48.6652 93.4109 48.1872 94.1549 47.7332 94.9179C47.2942 95.6889 46.8532 96.4629 46.4122 97.2399C45.5092 98.7859 44.7052 100.396 43.8842 102.002C43.0482 103.602 42.3422 105.266 41.5632 106.896C40.8872 108.564 40.1192 110.202 39.5332 111.886C39.1952 112.807 38.8242 113.722 38.5632 114.657C38.2812 115.588 37.9572 116.518 37.7902 117.452C37.7062 117.889 37.5312 118.505 37.5672 118.573C37.5822 118.596 37.6362 118.853 37.7372 119.02C37.8252 119.203 37.9062 119.39 38.0332 119.561C38.4822 120.268 39.1392 120.897 39.8742 121.447C41.3602 122.548 43.1462 123.348 44.9592 124.026C46.7862 124.693 48.6772 125.228 50.5912 125.682C55.3112 126.784 60.1572 127.456 65.0112 127.9C72.3702 128.56 79.8222 128.775 87.1602 128.488C92.8612 128.254 98.4442 127.665 103.949 126.657C105.158 126.428 106.33 126.159 107.526 125.877C109.742 125.342 111.138 124.89 112.11 124.611C113.094 124.351 113.672 124.249 114.226 124.207C114.492 124.202 114.782 124.088 114.983 124.088C115.15 124.087 115.207 124.177 115.147 124.382C115.091 124.596 114.899 124.899 114.563 125.253C113.892 125.944 112.652 126.747 110.967 127.328C105.979 129.032 100.741 129.743 95.4362 130.271C90.1272 130.768 84.7302 130.939 79.3262 130.895C71.3002 130.804 63.2352 130.258 55.2482 128.915V128.859Z" fill="#231F20"/>
<path fill-rule="evenodd" clip-rule="evenodd" d="M81.5042 86.7665C84.1182 86.4485 86.7262 86.1235 89.2542 85.6615C90.5132 85.4295 91.7632 85.1585 92.8882 84.7925C93.1662 84.7015 93.4392 84.6035 93.6812 84.4975C93.8052 84.4485 93.9532 84.3725 93.9242 84.3915L94.0002 84.3525C94.0962 84.3025 94.2052 84.1975 94.1672 84.0745C94.1562 83.9945 94.1052 83.9285 94.0512 83.8675C94.0412 83.8525 94.0172 83.8335 94.0112 83.8295L93.9272 83.7645C93.8122 83.6735 93.6422 83.5915 93.5042 83.5015C92.8832 83.1615 92.1372 82.8625 91.3592 82.6055C89.7932 82.0935 88.1082 81.7045 86.4162 81.3325C83.3032 80.6775 80.1192 80.1075 76.9462 79.2195C75.3142 78.7235 73.6752 78.1635 72.0912 77.3125C71.3102 76.8845 70.4942 76.4405 69.7522 75.7985C69.0202 75.1745 68.2972 74.2905 68.0632 73.1495C67.8972 72.2695 68.1722 71.5665 68.4222 71.0265C68.6902 70.4715 69.0122 70.0135 69.3472 69.5835C70.0162 68.7215 70.7522 67.9875 71.5012 67.2775C73.0052 65.8685 74.5942 64.6125 76.1952 63.3875L78.5982 61.5835L79.0102 61.2695C79.1222 61.2175 79.1232 61.1115 79.1202 60.9985L79.1442 60.3965C79.1562 60.1575 79.1492 59.9045 79.1532 59.6585C79.1732 57.6825 79.1182 55.6815 79.0712 53.6875C78.9352 48.6745 78.6512 43.6305 78.3742 38.6555C78.2002 35.4575 78.0252 32.2515 77.8512 29.0485C77.7002 25.8415 77.5732 22.6345 77.6952 19.4135C77.7962 17.3965 78.0892 17.6835 78.5172 19.3575C78.7422 20.1955 79.0032 21.3815 79.2862 22.8185C79.5402 24.2555 79.7402 25.9455 79.8582 27.7845C80.2912 34.3045 80.6372 40.8345 80.9072 47.3875C81.0402 50.6645 81.1722 53.9445 81.2212 57.2505C81.2382 58.0755 81.2372 58.9085 81.2312 59.7445C81.2332 60.1755 81.2172 60.5455 81.1972 61.0615C81.1902 61.4365 81.1702 61.8085 81.1372 62.1755C80.8732 62.4205 80.5662 62.6855 80.3062 62.8865L76.2962 65.9105C74.9562 66.9545 73.6382 68.0505 72.4442 69.2385C71.8532 69.8315 71.2832 70.4515 70.8302 71.0925C70.3742 71.6965 70.0532 72.4875 70.1412 72.6945C70.3172 73.3855 70.9352 74.0665 71.7832 74.6005C72.6142 75.1695 73.6692 75.4675 74.6902 75.8135C76.7752 76.4325 78.9682 76.9095 81.1682 77.3655C83.8382 77.8965 86.5402 78.4205 89.2632 79.0795C90.6252 79.4175 91.9922 79.7845 93.3692 80.3265C94.0562 80.5835 94.7522 80.9335 95.4412 81.3675L96.0512 81.8365C96.2572 82.0155 96.4082 82.2385 96.5892 82.4375C96.7882 82.6285 96.8772 82.8755 96.9962 83.1065C97.1282 83.3325 97.1932 83.5885 97.2702 83.8375C97.3262 84.1405 97.3232 84.4645 97.2582 84.7725C97.1692 85.0735 97.0522 85.3685 96.8572 85.6185C96.4952 86.1385 95.9322 86.5155 95.3482 86.8375C94.7942 87.1205 94.4372 87.2445 93.9802 87.4085C93.5472 87.5585 93.1192 87.6825 92.6922 87.7985C90.9842 88.2515 89.2952 88.5415 87.6072 88.8065C82.1582 89.6565 76.7032 90.0535 71.3592 90.8755C70.3522 91.0425 69.3492 91.2245 68.3692 91.4495C67.8792 91.5615 67.3982 91.6875 66.9282 91.8285C66.6952 91.9005 66.4652 91.9765 66.2432 92.0595L65.9192 92.1885C65.8202 92.2275 65.7832 92.2505 65.7122 92.2825C65.4712 92.4045 65.2022 92.5595 65.1042 92.8305C65.0052 93.1215 65.2472 93.3575 65.3832 93.5915C65.4322 93.6975 65.5932 93.8495 65.7502 94.0265C65.9122 94.1885 66.0362 94.3805 66.2322 94.5165C66.5902 94.8145 66.9452 95.1175 67.3672 95.3545C68.9912 96.3745 70.9292 96.9925 72.8862 97.4525C74.8512 97.9115 76.8662 98.2175 78.8882 98.4595C85.1832 99.2295 91.4642 99.2865 97.8122 100.514C99.2082 100.784 100.581 101.109 101.973 101.587C104.552 102.489 106.15 103.599 107.063 104.569C107.288 104.819 107.481 105.048 107.644 105.261C107.793 105.49 107.902 105.715 107.996 105.916C108.184 106.32 108.266 106.674 108.254 107.028C108.256 107.343 108.292 107.71 108.228 107.904C108.121 108.23 107.69 107.985 107.083 107.389C106.388 106.846 105.441 105.98 103.892 105.195C102.765 104.593 101.502 104.152 100.196 103.795C98.8992 103.42 97.5312 103.165 96.1562 102.923C93.3882 102.472 90.5282 102.186 87.6212 101.926C84.7122 101.667 81.7552 101.432 78.7602 101.082C75.7642 100.702 72.7252 100.281 69.6562 99.2795C68.5202 98.9135 67.3782 98.4355 66.2652 97.7945L65.4402 97.2755C65.1682 97.0925 64.9092 96.8625 64.6472 96.6545C64.3792 96.4535 64.1312 96.2135 63.8982 95.9455L63.5432 95.5575L63.3432 95.3325C63.2702 95.2165 63.2122 95.0995 63.1462 94.9825L62.3752 93.5835C62.2112 93.1125 62.2182 92.5925 62.3562 92.1065C62.5042 91.6235 62.7712 91.1935 63.1342 90.8255C63.5152 90.4715 63.9602 90.1555 64.4622 89.9235C64.5772 89.8675 64.7242 89.7845 64.8142 89.7505L65.0522 89.6515C65.2112 89.5825 65.3602 89.5325 65.5132 89.4755C65.8172 89.3675 66.1152 89.2715 66.4072 89.1875C66.9952 89.0165 67.5702 88.8755 68.1412 88.7505C72.6872 87.8405 77.0822 87.2735 81.4842 86.6965L81.5042 86.7665Z" fill="#231F20"/>
<path fill-rule="evenodd" clip-rule="evenodd" d="M78.0429 21.9206C78.0429 21.9206 92.2999 19.9146 96.2079 22.9766C96.2079 22.9766 97.1579 23.6106 96.8409 24.8776C96.5669 25.9736 93.8419 32.4446 93.1129 34.1706C93.0139 34.4046 83.1569 35.1566 79.4889 34.8236C79.1329 34.7916 77.8619 23.0046 78.0429 21.9206" fill="#231F20"/>
<path fill-rule="evenodd" clip-rule="evenodd" d="M97.5537 27.4316C97.3957 27.8256 94.4647 34.9526 93.8477 35.5186C93.3747 35.9516 86.7227 36.1476 86.7227 36.1476C86.7227 36.1476 86.8917 38.6806 88.5467 38.7596C90.2007 38.8376 102.087 39.3746 103.033 37.9566C103.662 37.0116 100.767 34.2026 100.216 33.7306C100.216 33.7306 104.177 31.4336 104.18 30.3826C104.186 28.8066 97.5537 27.4316 97.5537 27.4316" fill="#231F20"/>
<path fill-rule="evenodd" clip-rule="evenodd" d="M37.1163 114.62C37.1163 114.62 24.5903 118.725 25.0103 122.83C25.0103 122.83 24.5903 128.83 50.0633 129.304C50.0633 129.304 58.2763 129.754 62.9063 129.304C62.9063 129.304 39.5953 126.08 37.6363 120.606C35.6763 115.132 37.1163 114.62 37.1163 114.62" fill="#231F20"/>
<path fill-rule="evenodd" clip-rule="evenodd" d="M103.122 55.1445C103.176 54.5685 103.687 54.1445 104.263 54.1985C107.119 54.4655 102.841 58.1445 103.122 55.1445" fill="#231F20"/>
<path fill-rule="evenodd" clip-rule="evenodd" d="M58.6364 30.6835C58.6904 30.1075 59.2014 29.6835 59.7774 29.7375C62.6334 30.0045 58.3554 33.6835 58.6364 30.6835" fill="#231F20"/>
</svg>
