<svg width="148" height="148" viewBox="0 0 148 148" fill="none" xmlns="http://www.w3.org/2000/svg">
<path fill-rule="evenodd" clip-rule="evenodd" d="M117.607 36.9655C118.219 36.2355 119.212 36.0605 119.826 36.5735C122.869 39.1205 114.424 40.7655 117.607 36.9655" fill="#231F20"/>
<path fill-rule="evenodd" clip-rule="evenodd" d="M84.9322 39.0219C85.4862 39.1649 86.0372 39.3209 86.5842 39.4889L87.4022 39.7509L87.4902 39.7809L87.5102 39.7899L87.5512 39.8069L98.6082 33.2229L109.953 42.6779L111.908 44.2929C110.615 47.4199 109.322 50.5439 108.031 53.6679L107.426 55.0809L107.886 55.7969C108.157 56.2269 108.421 56.6619 108.676 57.1019C108.931 57.5429 109.177 57.9869 109.414 58.4369L109.737 59.0669L109.828 59.2639L122.102 61.4939L124.366 78.5159L122.091 79.7129L117.225 82.2859C115.732 83.0869 114.242 83.8879 112.758 84.6839L112.697 85.0369L112.551 85.7689C112.447 86.2649 112.334 86.7569 112.214 87.2479C112.093 87.7369 111.965 88.2229 111.827 88.7079L111.457 89.9299L111.391 90.1329C113.848 93.1219 116.309 96.1159 118.769 99.1069L115.386 103.66C114.4 104.962 113.402 106.254 112.388 107.532C110.992 109.288 110.672 108.678 111.313 106.793C111.634 105.85 112.194 104.588 112.982 103.145C113.375 102.423 113.826 101.656 114.331 100.86C114.59 100.466 114.856 100.061 115.129 99.6469L115.342 99.3379L115.442 99.1939L115.44 99.1899L115.434 99.1819V99.1809C113.134 96.3349 110.834 93.4889 108.531 90.6389L109.054 89.1279L109.311 88.3189C109.46 87.8329 109.6 87.3389 109.73 86.8439C109.861 86.3489 109.982 85.8509 110.093 85.3509L110.253 84.5949L110.534 83.0659C112.671 81.9439 114.809 80.8209 116.949 79.6969L119.82 78.2029L121.257 77.4579L121.617 77.2709C121.724 77.2149 121.667 77.2489 121.701 77.2319L121.778 77.2029C121.288 73.1839 120.797 69.1569 120.304 65.1179C120.253 64.6979 120.203 64.2769 120.151 63.8519C120.139 63.7119 120.126 63.5709 120.114 63.4259L119.914 63.3799L119.81 63.3569L119.481 63.2949L117.978 63.0209C116.974 62.8399 115.966 62.6609 114.955 62.4789C112.746 62.0959 110.525 61.7099 108.298 61.3239L107.745 60.2109L107.388 59.5309C107.161 59.1099 106.926 58.6939 106.683 58.2829C106.439 57.8719 106.187 57.4639 105.927 57.0629L105.479 56.3859L104.772 55.3629C105.663 53.2179 106.553 51.0749 107.44 48.9399L109.099 44.9989L98.4042 36.0839L90.9062 40.5589L87.8322 42.3989L86.7612 42.0279L86.0712 41.8049C85.6152 41.6629 85.1552 41.5299 84.6922 41.4069C84.2292 41.2829 83.7642 41.1679 83.2962 41.0639L82.5862 40.9129L81.4902 40.7069C79.9022 37.8709 78.3162 35.0369 76.7302 32.2039C76.2842 31.4069 75.8372 30.6089 75.3922 29.8139C70.8872 30.4099 66.3752 31.0069 61.9062 31.5989C61.4022 34.7109 60.9032 37.7909 60.4072 40.8559C60.2642 41.7669 60.1202 42.6759 59.9812 43.5599L58.9952 44.0529L58.3082 44.4169C57.8722 44.6549 57.4412 44.9019 57.0182 45.1579C56.5952 45.4129 56.1792 45.6759 55.7702 45.9479L55.1442 46.3739L54.2352 47.0169C50.3892 45.8419 46.5902 44.6829 42.7782 43.5199L42.6472 43.7049C41.7912 44.8609 40.9542 45.9929 40.0922 47.1589C36.5692 51.8079 35.3092 53.1799 34.0382 53.7829C33.7492 53.9189 33.4042 54.1289 33.1872 54.1709C32.4532 54.3129 33.5782 52.1789 36.0652 48.7049C36.9232 47.5159 37.7852 46.3199 38.6542 45.1149C39.0922 44.5149 39.5312 43.9129 39.9722 43.3069C40.6142 42.4439 41.2582 41.5789 41.9052 40.7089C45.8192 41.9149 49.8082 43.1439 53.8482 44.3889L53.8712 44.3649L54.4822 43.9549C54.9202 43.6679 55.3662 43.3889 55.8192 43.1189C56.2722 42.8489 56.7322 42.5869 57.1992 42.3359L57.8442 41.9949L57.8532 41.9859C58.5022 37.9239 59.1612 33.7989 59.8202 29.6689L59.8492 29.4919C65.4462 28.7339 71.0562 27.9739 76.6792 27.2119C78.7952 30.9789 80.9172 34.7559 83.0382 38.5319L83.6242 38.6549L84.9342 38.9599L84.9322 39.0219Z" fill="#231F20"/>
<path fill-rule="evenodd" clip-rule="evenodd" d="M62.8699 113.423L62.1199 113.184L62.0469 113.151L52.0449 120.561L42.3489 112.524L38.7709 109.601C39.7499 107.628 40.7269 105.658 41.7039 103.69L44.1009 98.9933L43.5329 98.0863C43.2259 97.5873 42.9289 97.0853 42.6409 96.5793C42.3519 96.0723 42.0709 95.5623 41.7979 95.0453L41.3949 94.2633L41.2539 93.9593L29.1659 91.4493L28.0969 83.3683C27.7609 80.9433 27.4239 78.5123 27.0889 76.0983C29.4649 74.6983 31.8259 73.3083 34.1689 71.9273L37.9179 69.6803L37.9679 69.3563L38.1139 68.5953C38.2169 68.0893 38.3309 67.5863 38.4569 67.0853C38.5819 66.5843 38.7189 66.0863 38.8659 65.5913L39.1789 64.6043L37.3279 61.8953C36.6249 60.8483 35.9329 59.7943 35.2569 58.7313C34.2569 57.1583 34.8549 56.9833 36.2009 57.8853C36.8739 58.3363 37.7339 59.0573 38.6739 60.0083C39.1439 60.4843 39.6349 61.0173 40.1319 61.6033C40.6849 62.2693 40.9169 62.5163 42.1029 64.1913C41.9949 64.5143 41.8849 64.8433 41.7729 65.1743L41.4739 66.0863L41.2859 66.7173C41.1639 67.1383 41.0499 67.5613 40.9429 67.9863C40.8369 68.4113 40.7389 68.8383 40.6479 69.2673L40.5079 69.9713L40.2659 71.3223L34.2209 74.8243L31.5199 76.3763L30.1679 77.1513L29.8299 77.3433C29.7269 77.4023 29.7949 77.3613 29.7679 77.3753L29.7409 77.3833C29.9949 79.3783 30.2489 81.3743 30.5039 83.3733L30.9459 86.9083C31.0749 87.9723 31.2989 89.7163 31.2399 89.4813L31.3429 89.5163L31.3979 89.5343L31.4369 89.5463L31.6029 89.5823L32.9309 89.8733L35.5889 90.4623C36.6759 90.6973 37.7679 90.9353 38.8709 91.1743C40.1579 91.4393 41.4559 91.7053 42.7679 91.9763L43.3839 93.2293L43.7679 93.9643C44.0309 94.4533 44.3039 94.9413 44.5849 95.4243C44.8669 95.9083 45.1569 96.3893 45.4549 96.8613L45.9359 97.6083L46.7599 98.8033C45.2579 101.827 43.7459 104.872 42.2459 107.895L41.7009 108.964L52.0989 117.586L58.1129 113.121L61.6199 110.512L62.9239 110.957L63.7949 111.229L65.5579 111.733L67.3369 112.186L68.2259 112.39L69.5369 112.65L71.5109 116.973C72.5089 119.165 73.5079 121.361 74.5019 123.545C78.4099 123.04 85.1899 122.135 89.0739 121.58L89.0869 121.498C89.6849 117.518 90.2759 113.589 90.8639 109.68L91.9199 109.146L92.6059 108.774C93.0399 108.531 93.4679 108.28 93.8899 108.022C94.3109 107.763 94.7269 107.495 95.1369 107.219L95.7619 106.787L96.7659 106.07L96.8619 106.1C98.2839 106.53 99.6749 106.951 101.108 107.386C105.848 108.872 107.303 109.512 108.121 110.449C108.307 110.663 108.567 110.9 108.656 111.082C108.958 111.7 106.905 111.468 103.399 110.489C101.344 109.907 99.2659 109.319 97.1629 108.723L97.0729 108.808L96.4519 109.24C96.0149 109.536 95.5709 109.823 95.1189 110.101C94.6669 110.378 94.2089 110.646 93.7439 110.903L93.0889 111.258L93.0379 111.298L93.0399 111.361L92.9439 112.009L92.7189 113.493C92.5659 114.485 92.4129 115.48 92.2599 116.477C91.8779 118.863 91.4949 121.264 91.1099 123.673C88.0349 124.101 84.9089 124.535 81.7809 124.971C78.8859 125.364 75.9859 125.759 73.0749 126.154C71.3439 122.373 69.6079 118.578 67.8709 114.783L67.8449 114.775L67.1959 114.631L65.7419 114.279C64.7779 114.035 63.8229 113.773 62.8629 113.483L62.8699 113.423Z" fill="#231F20"/>
<path fill-rule="evenodd" clip-rule="evenodd" d="M38.1895 108.229L41.0075 102.206L41.9935 99.989L42.2785 99.385L42.3495 99.234L42.3755 99.188L42.4215 99.105L40.6045 95.287L40.3315 95.227L39.7585 95.121L38.6125 94.91C37.3685 94.683 36.1105 94.498 34.8685 94.324C33.2715 94.1 31.6565 93.952 30.0905 93.54C29.1155 93.283 30.6005 92.058 32.4375 92.337C33.8895 92.558 35.3385 92.795 36.7875 93.057C37.5095 93.193 38.2325 93.329 38.9595 93.465L40.0445 93.684L40.5875 93.796L41.5495 93.979L41.9615 94.841L42.1785 95.332C42.4315 95.904 42.7045 96.476 42.9875 97.047C43.3275 97.713 43.6695 98.384 44.0125 99.055C43.6605 99.847 43.3085 100.64 42.9575 101.428L40.1465 107.509L39.0385 109.89L39.5865 110.374C41.1615 111.734 42.7295 113.118 44.3215 114.433C45.5585 115.456 46.8295 116.391 48.0845 117.365C48.3625 117.577 48.6355 117.786 48.9145 118C49.9295 118.823 50.1825 119.167 50.1395 119.653C50.1295 119.764 50.1355 119.887 50.1055 119.981C50.0025 120.297 49.4315 120.149 48.6415 119.601C46.2995 117.976 43.9875 116.077 41.6895 114.141C40.2015 112.868 38.7085 111.59 37.2135 110.313L38.1545 108.217L38.1895 108.229Z" fill="#231F20"/>
<path fill-rule="evenodd" clip-rule="evenodd" d="M26.4069 74.8287L31.5569 72.1207L33.3479 71.1337L36.4609 69.5237C36.5049 69.4977 36.5839 69.4917 36.5749 69.4247L36.6339 69.1417C36.7039 68.8277 36.7879 68.5267 36.8789 68.2307C37.0599 67.6397 37.2629 67.0647 37.4739 66.4947C37.6849 65.9307 37.8949 65.3657 38.1039 64.8047C37.9179 64.5827 37.7349 64.3627 37.5529 64.1437C36.6809 63.0997 35.7529 62.0947 35.0159 60.9447C34.5569 60.2267 36.2339 60.2617 37.2229 61.4757L38.2949 62.8107L39.6749 64.5667C39.3139 65.4727 38.9519 66.3797 38.5879 67.2917C38.3069 68.0367 38.0189 68.8037 37.8389 69.5187C37.8009 69.6897 37.7819 69.8797 37.7519 70.0537C37.7179 70.1287 37.7739 70.2637 37.6659 70.2877L37.4209 70.4157L36.6849 70.8007L35.5559 71.4107C34.8039 71.8247 34.0489 72.2417 33.2979 72.6547L28.3079 75.3057L27.1639 75.9047L27.3309 77.4377C27.5339 79.1817 27.7189 80.9347 27.9609 82.6597C28.1489 84.0017 28.4109 85.3057 28.6419 86.6257L28.7989 87.4927C28.9629 88.5827 28.9179 88.9417 28.5949 89.2227C28.5219 89.2857 28.4509 89.3667 28.3739 89.4087C28.1149 89.5487 27.8319 89.1327 27.6479 88.3427C27.1029 86.0007 26.7449 83.5017 26.4189 80.9897C26.1839 79.0557 25.9489 77.1127 25.7129 75.1727L26.3799 74.8067L26.4069 74.8287Z" fill="#231F20"/>
<path fill-rule="evenodd" clip-rule="evenodd" d="M56.6822 40.9441C56.8332 40.1911 56.9852 39.4371 57.1362 38.6861C57.1922 38.4121 57.2102 38.1311 57.2702 37.8581C57.4862 36.8941 57.7352 35.9361 57.9732 34.9771C58.0782 34.5511 58.1512 34.1171 58.2222 33.6851C58.3112 33.1331 58.3482 32.5561 58.6332 32.0461C58.8072 31.7321 59.9342 32.5051 59.8002 33.0931C59.5672 34.1691 59.3012 35.2531 58.9252 36.3361C58.7022 36.9851 58.6432 37.6911 58.5122 38.3741C58.3672 39.1241 58.2222 39.8771 58.0762 40.6291C57.9942 41.0931 57.9122 41.5591 57.8302 42.0211L57.6822 42.9871C56.9502 43.2831 56.6572 43.4431 56.2482 43.6851C55.7882 43.9661 55.3962 44.3331 55.0052 44.6881C54.9222 44.7681 54.8362 44.8511 54.7552 44.9291C54.4262 45.2091 54.2712 45.2311 53.9672 45.0161C53.8982 44.9671 53.8242 44.9241 53.7622 44.8711C53.5502 44.6891 53.5462 44.3951 53.7652 44.1151C54.4172 43.2931 55.3212 42.6651 56.2962 42.1621L56.4532 42.0831L56.4582 42.0861H56.4672C56.4672 42.0861 56.4692 42.0901 56.4712 42.0801L56.4862 41.9751L56.5182 41.7681L56.6492 40.9411L56.6822 40.9441Z" fill="#231F20"/>
<path fill-rule="evenodd" clip-rule="evenodd" d="M92.5413 112.23L92.5273 111.772C92.7153 111.634 92.8913 111.54 93.0833 111.418L93.3693 111.243L93.5223 111.143C93.7033 111.028 93.8973 110.876 94.0853 110.719C94.4643 110.405 94.8403 110.059 95.2063 109.7C95.4943 109.417 95.7493 109.102 96.0313 108.812L96.4843 108.343L96.7923 108.007L97.1623 107.593C98.1453 107.773 98.4913 107.872 99.0103 108L100.495 108.397C101.13 108.572 101.76 108.745 102.39 108.917C103.192 109.158 104.055 109.362 104.752 110.019C104.971 110.228 104.695 110.453 104.331 110.607C103.967 110.756 103.545 110.876 103.151 110.713C101.747 110.126 100.139 109.691 98.5573 109.18C98.3553 109.118 98.1503 109.061 97.9423 109.013L97.7643 108.969C97.7303 108.96 97.6953 108.951 97.6613 108.947L97.2973 109.364C97.0983 109.592 96.8953 109.819 96.6853 110.037C95.8893 110.844 95.0393 111.723 94.0743 112.338C94.0043 112.4 93.8793 112.382 93.8753 112.456L93.8333 113.815C93.7883 114.892 93.6533 115.965 93.5033 117.027C93.3813 117.85 93.3063 118.676 93.0943 119.498C93.0573 119.68 93.0093 119.859 92.9503 120.039C92.7313 120.707 92.5103 120.868 92.1433 120.843C92.0573 120.836 91.9663 120.839 91.8863 120.819C91.6163 120.748 91.5233 120.405 91.6393 119.966C91.9333 118.629 92.1903 117.221 92.3483 115.757C92.3993 115.214 92.4543 114.668 92.4813 114.12L92.5153 113.295L92.5223 112.883L92.5213 112.641L92.5073 112.224L92.5413 112.23Z" fill="#231F20"/>
<path fill-rule="evenodd" clip-rule="evenodd" d="M66.0797 70.2301C63.7547 73.2161 62.9887 77.4031 64.2137 81.0811C64.6467 82.4211 65.3757 83.6461 66.2337 84.7571C66.9787 85.7541 67.9227 86.5931 68.9417 87.3131C69.9637 88.0351 71.1077 88.5941 72.3177 88.9441C74.7237 89.6851 77.3907 89.6381 79.8297 88.8341C81.9987 88.1231 83.9507 86.7511 85.3457 84.9851C87.1707 82.7071 88.0157 79.8421 88.2417 76.9841C88.2937 76.0971 88.9137 76.1161 89.5447 76.9491C90.1587 77.7571 90.6837 79.5451 90.0747 81.4901C89.0397 84.8871 86.7257 87.8961 83.6627 89.7051C80.6297 91.5391 76.9557 92.1881 73.5127 91.5491C69.4267 90.7871 65.4517 88.3541 63.2967 84.6651C62.1207 82.6621 61.4147 80.3791 61.3137 78.0731C61.2137 75.7661 61.6747 73.4461 62.6327 71.3611C63.2487 70.0891 64.0377 68.9111 64.9697 67.8591C65.9137 66.8161 67.0217 65.9361 68.2107 65.2021C71.8547 62.9971 76.4827 62.6341 80.4007 64.0901C83.4437 65.1911 86.1677 67.1491 88.0177 69.8781C88.2107 70.1841 88.4027 70.4881 88.5947 70.7921C88.7687 71.1061 88.9317 71.4291 89.0937 71.7581C89.6567 73.0051 89.8197 73.9141 89.8327 74.5461C89.8367 75.1841 89.6737 75.5661 89.3837 75.8731C89.2517 76.0121 89.1187 76.1871 88.9777 76.2671C88.4767 76.5321 88.1037 75.5561 87.5177 74.0021C86.6057 71.6981 85.0357 69.6241 82.9987 68.1241C80.9717 66.6181 78.4857 65.6811 75.9627 65.5891C74.0947 65.5121 72.1947 65.9181 70.4887 66.7081C68.7687 67.4921 67.2847 68.7601 66.1307 70.2611L66.0797 70.2301Z" fill="#231F20"/>
<path fill-rule="evenodd" clip-rule="evenodd" d="M70.2322 75.9459C70.2752 75.6619 70.4842 74.5879 71.1072 73.2609C71.4052 72.5949 71.8272 71.8749 72.3432 71.1589C72.8582 70.4339 73.5482 69.7359 74.2242 69.1819C75.5902 68.0559 77.2032 67.1959 78.6932 67.0509C79.4282 66.9629 80.0822 67.0099 80.5432 67.1119C81.0022 67.2079 81.2672 67.3359 81.2952 67.3319C81.5352 67.3939 81.6512 67.6689 81.6662 67.9949C81.6892 68.4959 81.3902 68.9339 81.0862 69.1879C80.8742 69.3649 80.7052 69.4979 80.5862 69.5279C80.1322 69.5669 79.7142 69.7239 79.2682 69.9269C78.9762 70.0659 78.6882 70.2239 78.3862 70.4039C78.0772 70.5549 77.7692 70.7509 77.4692 70.9579C76.9822 71.3059 76.4132 71.6299 76.1132 72.1789C75.8872 72.5959 75.6452 72.9019 75.3922 73.2839C75.1512 73.6569 74.9282 74.0589 74.8652 74.5249C74.7472 75.4009 74.4422 76.1999 74.4332 77.0569C74.4262 78.1669 74.5072 79.2469 74.8502 80.1689C74.9612 80.4579 75.1892 80.6869 75.3152 80.9339C75.3942 81.1389 75.4412 81.1759 75.4752 81.3259C75.5522 81.4429 75.5982 81.5809 75.7222 81.6849C75.9922 81.9699 76.4472 82.1389 76.8642 82.3309C77.5122 82.6139 78.2582 82.8169 78.9812 82.8349C79.1922 82.8499 79.3922 82.7189 79.5902 82.7329C79.8422 82.7169 80.1102 82.7979 80.3492 82.7469C80.7022 82.6779 81.0042 82.5299 81.2332 82.3529C81.2562 82.3349 81.2472 82.2659 81.2532 82.2259C81.2472 82.0769 81.4442 81.8039 81.5972 81.6429C81.7642 81.4669 81.9302 81.3069 82.1162 81.1599C82.7392 80.6159 83.2162 79.9939 83.5452 79.3919C83.6982 79.1249 85.0582 77.2939 83.7942 74.5079C83.6572 74.1839 83.4532 73.8049 83.3172 73.5259C83.2522 73.4129 83.2042 73.3159 83.1282 73.2419C82.9912 73.0929 82.7112 72.9699 82.3762 72.9379C81.6792 72.8789 81.0892 73.1609 81.0572 73.1819C81.0302 73.2059 80.9972 73.2189 80.9692 73.2409C80.8752 73.3139 80.6402 73.2109 80.7762 73.6079C80.8262 73.7469 80.7232 73.7039 80.6652 73.7159C80.6072 73.7219 80.4982 73.6699 80.6372 73.8989C80.7012 74.0019 80.6352 73.9939 80.5672 73.9679C80.3742 73.8949 80.1812 73.8459 80.0652 73.8759C79.9462 73.8999 79.8712 73.9899 80.0052 74.1849C80.0772 74.2929 79.9122 74.2609 79.9092 74.3279C79.9512 74.6269 79.6082 74.7189 79.9562 75.0219C80.0692 75.1079 79.8052 75.1979 79.7282 75.3199C79.7002 75.3659 79.6242 75.4149 79.6892 75.4599C79.9262 75.6319 79.9132 75.7889 79.8432 76.0129C79.7382 76.3179 79.9952 76.5389 80.1162 76.7579L80.3102 77.0339C80.3802 77.1109 80.4502 77.1779 80.5042 77.2619C80.6632 77.4239 80.7952 77.6089 80.8912 77.5769C80.9302 77.5699 80.9902 77.4679 81.0082 77.4829C81.0892 77.4709 81.1132 77.3789 81.1982 77.3229C81.2442 77.2829 81.3482 77.3949 81.3992 77.3749C81.7452 77.3149 82.4522 76.7229 82.5802 76.4439C82.5862 76.4249 82.6122 76.3909 82.5992 76.3829L82.5922 76.3669C82.5922 76.3669 82.5852 76.3599 82.5982 76.3619L82.6982 76.3909C82.9822 76.4619 83.2282 76.4709 83.3562 76.4619C83.3882 76.4659 83.4802 76.4449 83.4802 76.4449L83.4902 76.4439L83.4992 76.4409L83.5042 76.4389L83.5072 76.4379H83.5082H83.5092V76.4379C84.2132 76.1629 82.5512 76.8109 82.7222 76.7449V76.7459C82.7332 76.7469 82.7112 76.7629 82.7522 76.7509C82.8402 76.7159 82.9272 76.6749 83.0122 76.6299C83.1712 76.5539 83.3802 76.3769 83.4542 76.3539C83.9622 75.9879 83.9052 75.8069 83.8862 75.9969C83.8802 76.0429 83.8822 76.0849 83.8892 76.1199C83.8912 76.1739 83.8922 76.2629 83.9072 76.3249C83.9412 76.4389 83.9752 76.6089 84.0392 76.7419C84.1112 76.8719 84.1472 76.9879 84.2222 77.0799C84.3002 77.1879 84.2262 77.0929 84.2182 77.0969C84.2122 77.0939 84.1632 77.0809 84.1622 77.0719C84.0942 77.0259 83.9322 76.9139 83.7492 76.8239C83.4072 76.6329 82.8842 76.6099 82.8452 76.6409C82.7492 76.6769 82.8652 76.6349 82.8602 76.6259C82.8772 76.6119 82.8822 76.6009 82.8822 76.6009L82.8832 76.5989C82.8832 76.5989 82.9122 76.5769 82.7962 76.6729C82.6302 76.8089 82.4522 76.9379 82.2462 77.0379C81.8372 77.2429 81.3062 77.2899 80.9202 77.1209C80.5052 76.9559 80.2622 76.6649 80.2782 76.5169C80.2752 76.0479 80.5912 74.6859 81.7862 73.7679C82.0862 73.5269 82.4552 73.2999 82.9252 73.1289C83.1562 73.0429 83.4502 72.9929 83.7282 72.9519C84.0452 72.9539 84.3632 72.9309 84.7012 73.0339C85.3892 73.1849 86.0062 73.6489 86.3722 74.1069C86.6002 74.3559 86.6942 74.5659 86.8322 74.8019C86.9642 75.0179 87.0712 75.3059 87.1572 75.6019C87.4742 76.8039 87.1702 77.8949 86.8232 78.6719C86.4562 79.4599 86.0002 80.0579 85.5502 80.5459C84.6632 81.5139 83.6902 82.0179 83.3172 82.1579C82.8572 82.3329 82.3962 82.4299 81.9132 82.5129C81.4032 82.5529 80.8942 82.5849 80.3862 82.4889C79.3902 82.3539 78.3792 81.8749 77.6702 81.2679C76.6672 80.4479 75.9532 79.4779 75.5072 78.4249C75.0622 77.3429 74.9172 76.1999 74.9242 74.9959C74.9222 74.0559 75.0572 72.9459 75.4552 72.0009C75.5202 71.8639 75.6222 71.7469 75.7092 71.6229C75.8192 71.4689 75.9392 71.3219 76.0402 71.1669C76.1942 70.9389 76.3552 70.7029 76.5132 70.4689C76.5752 70.3729 76.6562 70.2999 76.7182 70.2069C76.7592 70.1439 76.7462 70.0179 76.8172 69.9929C77.1492 69.8739 77.4212 69.7169 77.6892 69.5559C77.9412 69.3769 78.1902 69.1999 78.4482 69.0169C78.5652 68.9349 78.7142 68.9099 78.8292 68.8259C79.9312 68.0499 81.3712 67.3609 82.9162 67.7569C83.2132 67.8439 83.4682 67.8769 83.8092 67.7599C84.0032 67.6879 84.2192 67.7229 84.3802 67.8309C84.7742 68.1069 85.2042 68.2679 85.6462 68.4339C86.0782 68.6329 86.5542 68.8109 86.8862 69.1769C87.2502 69.5189 87.5722 69.8699 87.8632 70.2539L88.0812 70.5419L88.2102 70.7589C88.2902 70.9019 88.3622 71.0499 88.4192 71.2069C88.6722 71.8349 89.1532 72.3919 89.4042 73.0629C89.5062 73.4189 89.8962 74.3889 90.1092 75.5129C90.3152 76.6389 90.3182 77.8719 90.2342 78.4109C90.1492 79.1789 89.9242 79.9219 89.6732 80.6309C89.0662 82.3239 88.0822 83.7569 87.0002 84.9359C86.3262 85.6569 85.6242 86.2959 84.8782 86.8879C83.8612 87.6659 82.7112 88.1609 81.5762 88.4289C81.1612 88.5379 79.6432 88.7729 77.7762 88.4179C75.9332 88.0319 73.6772 87.1579 71.9532 85.1709C71.5312 84.6719 71.1552 84.1119 70.8582 83.4949C70.5982 82.9299 70.4252 82.4229 70.2832 81.8949C70.0062 80.8539 69.9152 79.8759 69.9082 79.0359C69.9142 77.3539 70.2092 76.2199 70.2322 75.9459" fill="#231F20"/>
<path fill-rule="evenodd" clip-rule="evenodd" d="M79.2277 76.2505C79.2717 76.2195 78.9787 74.8905 78.4487 74.7085C78.2157 74.5575 77.8047 74.6405 77.5077 74.9065C77.3587 75.0295 77.2467 75.1725 77.1667 75.2755C77.0837 75.3765 77.0547 75.4595 77.0487 75.4645C77.0297 75.5335 76.8817 75.5305 76.6467 75.5005C76.2947 75.4535 75.8947 75.3315 75.6927 75.1235C75.5577 74.9835 75.4507 74.8205 75.4697 74.7165C75.5427 74.2965 75.7317 73.8775 76.0077 73.4965C76.3877 73.0085 76.9587 72.5985 77.6447 72.4115C78.2167 72.2575 78.8147 72.3545 79.3907 72.4335C80.3317 72.5585 80.8577 73.3025 81.4427 73.8045C82.0457 74.3155 82.2507 75.0085 82.5457 75.7725C82.8787 76.8145 82.6907 78.0235 82.2107 79.0355C82.0777 79.3665 81.9397 79.7075 81.7177 79.9975C81.3997 80.3635 81.0037 80.6375 80.5867 80.9005C80.0907 81.2575 79.4877 81.5915 78.7387 81.7265C78.1647 81.8115 77.5077 81.7835 76.8467 81.5255C76.2077 81.2785 75.6117 80.8115 75.2517 80.3115C74.9927 80.0085 74.8017 79.7705 74.6767 79.4685C74.4877 79.0485 74.5107 78.6895 74.4567 78.3505C74.3427 77.8445 74.3717 77.3145 74.3307 76.7885C74.3237 76.7385 74.2887 76.6685 74.2707 76.6045C74.1957 76.2955 74.1967 75.9735 74.2427 75.6645C74.3047 75.3605 74.4567 75.0825 74.5777 74.7975C75.0767 73.8255 76.0337 73.0535 76.8447 72.5995C77.0147 72.4815 78.1427 72.0795 78.9867 71.8895C79.9907 71.5725 79.8187 71.7315 80.0367 71.6075C80.0327 71.5725 80.1337 71.3805 80.1457 71.2975C80.1637 71.1955 80.2037 71.0895 80.1977 71.0175C80.2207 70.8535 80.2167 70.7425 80.1987 70.6565C80.1797 70.4835 80.1217 70.3835 80.1037 70.3715C80.0937 70.3655 80.0907 70.3545 80.0817 70.3465C80.0557 70.3225 80.1597 70.1835 79.8467 70.3525C79.7347 70.4155 79.7897 70.3515 79.7937 70.3235C79.7987 70.2985 79.8707 70.2155 79.6717 70.3535C79.5837 70.4155 79.6027 70.3735 79.6357 70.3255C79.8247 70.0655 79.9427 69.7545 79.6047 69.9625C79.5107 70.0235 79.5767 69.8915 79.5247 69.8955C79.2957 69.9255 79.2787 69.6225 78.9327 69.8225C78.8147 69.8975 78.8587 69.6475 78.8187 69.5505C78.8027 69.5125 78.7987 69.4455 78.7477 69.4775C78.5507 69.6025 78.4397 69.5455 78.3667 69.3885C78.2667 69.1765 78.0167 69.2595 77.8387 69.2175L77.3087 69.1285C77.0737 69.0745 76.8487 68.9585 76.5857 68.9805C76.5047 68.9855 76.4047 69.0655 76.3227 69.0615C76.1037 69.0435 75.8697 69.1175 75.6467 69.1245C75.5367 69.1255 75.4437 69.0085 75.3327 68.9885C74.8277 68.8725 74.3067 68.7695 73.7827 68.7125C73.5787 68.6875 73.3737 68.7855 73.1727 68.7115C72.8447 68.5895 72.5107 68.5325 72.1967 68.6775C71.9757 68.7845 71.7307 68.5515 71.5007 68.5015C71.2467 68.4455 70.9917 68.4145 70.7947 68.3985C70.6487 68.3805 70.3487 67.4665 70.1727 66.5385C69.9887 65.6135 69.9967 64.6525 70.0847 64.6525C70.3367 64.6215 71.6977 64.2265 73.0607 64.0605C74.4237 63.8735 75.8377 63.8535 76.1087 63.9265C76.8017 64.0835 77.4857 64.2895 78.1767 64.4985C78.6507 64.6475 79.1487 64.7365 79.6307 64.9355C80.1197 65.1295 80.5737 65.4405 81.0687 65.6915C81.4587 65.8945 81.9127 66.0395 82.3407 66.2885C82.4047 66.3215 82.4457 66.3945 82.4957 66.4505C82.5587 66.5215 82.6097 66.6045 82.6837 66.6625C82.7937 66.7495 82.9207 66.8195 83.0377 66.9185C83.0837 66.9555 83.1247 66.9995 83.1807 67.0295C83.2167 67.0495 83.3117 67.0205 83.3157 67.0665C83.3497 67.4935 83.5697 67.7645 83.8027 68.0475C83.8527 68.1155 83.8537 68.2135 83.9077 68.2805C84.4167 68.8985 84.9607 69.7775 84.7117 70.6375C84.6767 70.8065 84.6397 70.9415 84.8017 71.1005C84.8937 71.1905 84.8987 71.3015 84.8367 71.3895C84.5267 71.8015 84.7767 72.2645 84.6227 72.6575C84.5507 72.8285 84.5037 73.0215 84.4327 73.2575C84.3437 73.5255 84.2197 73.7905 84.0467 74.0175C83.6877 74.4345 83.4837 74.9875 83.0077 75.3175C82.8317 75.4825 81.9897 76.0255 81.5127 76.2215C80.9487 76.4845 80.4907 76.6445 80.2977 76.7115C80.0157 76.8085 79.7627 76.8435 79.5577 76.9185C79.3167 77.0015 79.1147 77.0905 79.0427 77.1395C78.9887 77.1805 78.9747 77.1725 78.9927 77.2075C78.9797 77.2195 79.0027 77.2475 79.0187 77.2575C79.0437 77.2715 79.0337 77.4575 79.0837 77.5505C79.0937 77.5475 79.0687 77.6785 79.0617 77.6535C79.1417 77.6105 78.7917 77.7425 78.6097 77.8835C78.4817 77.9375 78.3597 78.0085 78.2447 78.1565C78.1647 78.2035 78.2377 78.2685 78.2507 77.8025C78.2327 77.7455 78.2417 77.5995 78.2167 77.5015C78.2017 77.4275 78.2087 77.5275 78.2307 77.4975C78.2687 77.5055 78.3267 77.5235 78.3997 77.4925C78.7187 77.4365 79.0247 77.1145 79.1347 76.8535C79.1537 76.7835 79.1827 76.7175 79.2107 76.6545C79.2107 76.5885 79.2157 76.5275 79.2287 76.4735C79.2667 76.3645 79.2397 76.2785 79.2277 76.2505" fill="#231F20"/>
</svg>
