<svg width="148" height="148" viewBox="0 0 148 148" fill="none" xmlns="http://www.w3.org/2000/svg">
<path fill-rule="evenodd" clip-rule="evenodd" d="M35.6303 53.8186L37.4903 53.0716C38.1033 52.8046 38.6983 52.4996 39.3053 52.2146C40.5273 51.6646 41.6923 50.9986 42.8603 50.3356C43.7283 49.8756 44.5053 49.2706 45.3383 48.7546C48.2443 46.8826 51.0383 44.8006 53.6263 42.4696C54.7583 41.4196 55.8903 40.3516 56.9243 39.2166C57.6083 38.5066 58.2493 37.7546 58.9063 37.0166C59.5573 36.2736 60.2763 35.5886 60.9893 34.8966C61.4433 34.4736 61.5753 34.6866 61.4613 35.2726C61.3263 35.8396 61.0523 36.8796 60.3383 37.7936C57.7353 40.9576 54.8313 43.9086 51.4963 46.3816C50.9993 46.7516 50.5083 47.1376 50.0163 47.5286C49.5113 47.9056 49.0033 48.2836 48.4943 48.6636C47.4983 49.4526 46.4323 50.1606 45.3783 50.8616C44.2293 51.6506 42.9823 52.2886 41.7873 53.0036C40.5453 53.6356 39.3083 54.2806 38.0393 54.8536C36.4583 55.5226 34.8863 56.2066 33.2513 56.7246C32.6363 56.9316 32.0293 57.1636 31.4063 57.3466L29.5253 57.8486C28.8963 58.0066 28.2773 58.2066 27.6453 58.3376L25.7493 58.7266C25.2603 58.8376 24.7753 58.9466 24.2893 59.0566C23.8043 59.1676 23.3133 59.2266 22.8263 59.3186C21.8503 59.4856 20.8753 59.6736 19.8893 59.8046C19.4533 59.8406 19.0283 59.8946 18.5873 59.9196C16.9513 60.0196 16.4243 59.8656 16.0753 59.3616C15.9963 59.2446 15.8923 59.1306 15.8463 59.0136C15.6933 58.6226 16.3443 58.2556 17.4933 58.0596C18.3483 57.9436 19.2093 57.8276 20.0763 57.7106C20.9383 57.5436 21.8073 57.3936 22.6853 57.2696C23.5673 57.1696 24.4393 56.9786 25.3153 56.7926C26.1883 56.5966 27.0833 56.4786 27.9493 56.2356C30.5373 55.5726 33.1283 54.8216 35.6093 53.7766L35.6303 53.8186Z" fill="#221F1F"/>
<path fill-rule="evenodd" clip-rule="evenodd" d="M39.5047 121.267C37.7297 119.049 36.4197 116.801 35.0777 114.482C33.7617 112.168 32.5637 109.798 31.4117 107.416C30.5727 105.677 29.7067 103.955 28.9267 102.197L20.8917 83.5715C19.7087 80.8135 18.4947 78.0475 17.3557 75.2905C16.6237 73.5195 15.8747 71.7505 15.1957 69.9515C14.8517 69.0545 14.5287 68.1475 14.2197 67.2385C13.9047 66.3305 13.7037 65.3835 13.4697 64.4505C13.2017 63.2785 13.5377 63.3385 14.2547 64.1565C14.6137 64.5645 15.0737 65.1595 15.5957 65.8865C16.0807 66.6255 16.5417 67.5285 16.9497 68.5415C18.3877 72.1415 19.9337 75.6975 21.4537 79.2815C22.9497 82.8825 24.4497 86.4915 25.9587 90.1215C27.7487 94.4775 29.8047 98.9265 31.8157 103.273C34.0297 108.05 36.3897 112.755 39.1957 117.18C40.8757 119.886 43.0577 122.192 45.5527 124.218C49.2977 127.313 53.6247 129.746 58.0257 131.769C61.4707 133.312 65.0037 134.461 68.5947 135.376C69.3857 135.572 70.1607 135.765 70.9577 135.962C73.9147 136.655 74.8267 136.985 75.4097 137.6C75.5427 137.737 75.7257 137.876 75.7997 137.995C75.9237 138.196 75.6667 138.321 75.0787 138.403C74.4957 138.473 73.5607 138.568 72.4197 138.378C68.9907 137.989 65.5697 137.047 62.2187 135.821C58.8637 134.597 55.5597 133.093 52.3807 131.325C47.7057 128.637 43.1507 125.532 39.4687 121.307L39.5047 121.267Z" fill="#231F20"/>
<path fill-rule="evenodd" clip-rule="evenodd" d="M101.484 93.1326C101.138 97.2656 100.863 101.413 100.673 105.558C100.619 106.322 100.672 107.04 100.566 107.889C100.449 108.71 100.366 109.556 100.112 110.309C98.5267 115.763 95.3507 120.284 92.0157 124.523C90.5247 126.405 88.9567 128.238 87.3387 129.987C85.2477 132.212 83.0527 134.404 80.4517 136.089C79.6407 136.614 79.5127 136.186 79.8877 135.362C80.2717 134.548 81.1017 133.311 82.3197 132.119C86.6107 127.859 90.6767 123.293 94.1327 118.256C94.6327 117.493 95.1497 116.725 95.5747 115.905C95.7947 115.5 96.0237 115.095 96.2327 114.681L96.8077 113.417C97.2187 112.58 97.4637 111.694 97.7897 110.832C98.0037 109.953 98.2957 109.07 98.3787 108.211C98.4617 107.732 98.5337 107.28 98.5267 106.747L98.5847 105.169L98.7247 102.016C98.8277 99.9156 98.9537 97.8156 99.0887 95.7176C99.2587 93.1346 99.4697 90.5536 99.6827 87.9756C100.026 84.0696 100.48 80.1546 100.951 76.2846C101.38 73.2816 101.683 70.3176 102.378 67.3526C102.521 66.6996 102.626 66.0526 102.856 65.4026C103.693 63.0156 104.402 62.3706 104.954 62.0826C105.09 62.0176 105.238 61.9196 105.345 61.9016C105.714 61.8526 105.494 62.8606 105.103 64.5226C104.031 69.5826 103.374 75.0966 102.708 80.6546C102.242 84.7856 101.845 88.9576 101.54 93.1316L101.484 93.1326Z" fill="#221F1F"/>
<path fill-rule="evenodd" clip-rule="evenodd" d="M87.6651 42.929C86.6301 42.518 85.606 42.094 84.616 41.598C83.606 41.145 82.64 40.611 81.67 40.09C80.953 39.729 80.249 39.345 79.561 38.934C77.164 37.435 74.884 35.777 72.739 33.974C71.768 33.2 70.827 32.379 69.87 31.604L68.073 30.047C67.501 29.497 66.957 28.917 66.466 28.293C65.852 27.522 67.924 27.235 69.241 28.388C71.613 30.438 74.041 32.381 76.489 34.394C77.216 35.006 78.027 35.531 78.86 36.029C79.678 36.554 80.552 36.987 81.39 37.469C82.303 38.016 83.2731 38.45 84.2111 38.951C85.1771 39.391 86.14 39.848 87.126 40.241L88.96 40.942C89.577 41.161 90.207 41.337 90.831 41.533C91.771 41.85 92.749 42.027 93.71 42.27C94.678 42.484 95.6631 42.596 96.6341 42.73C97.3971 42.773 98.155 42.766 98.904 42.77C99.655 42.755 100.401 42.662 101.146 42.626C101.475 42.612 101.794 42.564 102.122 42.52C103.34 42.396 103.74 42.535 104.081 43.147C104.158 43.286 104.256 43.424 104.31 43.565C104.492 44.042 104.018 44.49 103.069 44.724C101.666 45.109 100.182 45.22 98.677 45.278C97.926 45.27 97.17 45.213 96.411 45.164C95.659 45.067 94.907 44.946 94.154 44.827C93.04 44.635 91.9461 44.336 90.8531 44.055C89.7841 43.695 88.6871 43.415 87.6481 42.986L87.6651 42.929Z" fill="#221F1F"/>
<path fill-rule="evenodd" clip-rule="evenodd" d="M47.924 74.7788C46.515 79.9228 47.62 85.6268 50.519 90.2198C51.568 91.9088 52.891 93.4158 54.324 94.7888C56.878 97.1748 59.955 99.0808 63.344 99.9768C66.713 100.943 70.353 100.799 73.662 99.6118C76.564 98.4908 79.223 96.5518 81.239 94.2018C83.826 91.1178 85.255 87.2488 85.82 83.3018C85.946 82.0688 86.397 82.1758 86.887 83.3188C87.114 83.8908 87.332 84.7308 87.392 85.7658C87.481 86.8028 87.335 88.0218 86.897 89.2498C86.139 91.4328 85.002 93.4718 83.57 95.2878C82.859 96.1948 82.051 97.0498 81.185 97.8018L79.875 98.9148L78.457 99.9048C76.508 101.144 74.337 102.076 72.06 102.563C69.785 103.054 67.423 103.095 65.153 102.719C59.734 101.8 54.551 98.9388 50.929 94.7658C46.921 90.2488 44.545 84.1578 44.971 78.0718C45.226 74.3308 46.463 70.7388 48.636 67.6458C50.37 65.3658 52.651 63.6508 55.065 62.2968C56.273 61.6118 57.533 61.0318 58.822 60.5408C60.108 60.0408 61.422 59.6178 62.763 59.3088C64.842 58.8048 66.966 58.5238 69.115 58.5528C71.26 58.5688 73.449 58.9568 75.498 59.8728C75.948 60.0738 76.377 60.3178 76.812 60.5498C77.218 60.8298 77.658 61.0728 78.037 61.4088C79.515 62.5898 80.093 63.7588 80.421 64.5318C80.568 64.9378 80.675 65.2578 80.693 65.5508C80.694 65.8518 80.65 66.1048 80.597 66.3298C80.547 66.5368 80.529 66.7808 80.474 66.9038C80.378 67.1158 80.122 66.9248 79.66 66.4928C79.201 66.0618 78.665 65.3378 77.88 64.5448C76.715 63.3798 75.36 62.4468 73.792 61.8588C72.235 61.2568 70.501 61.0088 68.743 60.9688C65.214 60.9088 61.538 61.7848 58.201 63.3028C55.741 64.4578 53.398 65.9528 51.582 67.8598C51.134 68.3378 50.72 68.8358 50.346 69.3548C50.166 69.6158 50.008 69.8858 49.834 70.1498L49.388 71.0408L48.94 71.9328L48.583 72.8728C48.321 73.4928 48.155 74.1408 47.984 74.7868L47.924 74.7788Z" fill="#221F1F"/>
<path fill-rule="evenodd" clip-rule="evenodd" d="M80.1215 76.5892C78.7435 78.6072 77.5525 80.7882 76.4395 83.0322C76.0325 83.8522 75.7365 84.7212 75.3465 85.5562L74.3275 87.7932C73.7995 88.9742 73.2925 90.4362 72.5645 91.0712C72.3835 91.2282 72.2225 91.4002 71.9965 91.4532C71.9425 91.4712 71.8825 91.4882 71.8145 91.5012L71.7625 91.5062L71.7495 91.5082H71.7465C71.7425 91.4982 71.7655 91.6012 71.7545 91.5572H71.7485L71.7245 91.5562L71.6305 91.5552C71.5115 91.5432 71.3995 91.5262 71.2905 91.4902C70.8545 91.3372 70.3955 91.0922 69.9295 90.6862C69.4625 90.2832 69.0185 89.7552 68.6055 89.2552L68.0495 88.5902L67.6585 88.1042C66.7345 86.9582 65.7505 85.8722 64.7425 84.8582C64.0905 84.2122 63.4145 83.5982 62.7755 82.9822L62.2905 82.5332L62.0505 82.3172C62.0105 82.2802 61.9715 82.2452 61.9295 82.2142C61.9125 82.1482 61.8725 82.1132 61.8445 82.0612C61.7325 81.8522 61.5755 81.7052 61.4175 81.5822C61.2635 81.4512 61.1035 81.3272 60.9565 81.2432C60.6545 81.0602 60.5095 80.7122 61.1725 80.3992C61.5065 80.2572 61.9965 80.2072 62.5415 80.2552C62.8095 80.2892 63.1845 80.2002 63.4825 80.2772C63.7535 80.3732 64.0295 80.5022 64.2735 80.6692C66.0435 81.8252 67.3645 83.2802 68.7015 84.6832L69.6685 85.7572L70.1395 86.2972L70.3715 86.5662C70.4435 86.6512 70.4085 86.6292 70.4335 86.6672C70.4915 86.8262 70.5445 87.0452 70.7725 87.3712C70.8575 87.4882 70.9155 87.4102 70.9595 87.3822C71.0065 87.3402 71.0495 87.2812 71.0915 87.2122C71.1805 87.0552 71.2335 86.9412 71.3305 86.6822C71.7285 85.5672 72.1175 84.4212 72.5805 83.3132C73.5855 80.8682 74.8195 78.4982 76.2115 76.2242C77.0675 74.8232 78.0045 73.4682 79.0075 72.1622C80.5155 70.1722 82.3085 68.3852 84.2175 66.7852C85.6985 65.5462 87.1965 64.3062 88.9525 63.4242C89.3375 63.2332 89.7065 63.0232 90.1145 62.8672C90.8615 62.5562 91.4185 62.5332 91.8105 62.5592C92.2085 62.5972 92.4735 62.7612 92.7165 63.0222C92.8265 63.1422 92.9575 63.2532 93.0335 63.3762C93.2885 63.7942 92.7955 64.3362 91.9175 64.9612C89.2675 66.6752 86.8175 68.5632 84.6485 70.9262C83.0755 72.6932 81.4985 74.5422 80.1985 76.6322L80.1215 76.5892Z" fill="#221F1F"/>
<path fill-rule="evenodd" clip-rule="evenodd" d="M34.9807 51.0022C37.7797 49.6292 40.4887 48.0232 43.0717 46.2162C44.0107 45.5522 44.8877 44.8072 45.8017 44.1072C49.0377 41.6552 52.1187 38.9522 54.9457 35.9942C56.1917 34.6752 57.3787 33.2852 58.4667 31.8532C59.1627 30.9312 59.8277 29.9822 60.4777 29.0352C61.0957 28.0662 61.9017 27.2212 62.5787 26.3042C63.0107 25.7502 63.3367 25.9812 63.4707 26.7672C63.5387 27.1622 63.5477 27.6862 63.4797 28.2892C63.3827 28.8712 63.3027 29.5892 62.9087 30.1672C61.6057 32.2662 60.1627 34.2482 58.5907 36.1282C57.0197 38.0082 55.2477 39.7172 53.3907 41.3302C51.1637 43.2472 48.9967 45.3992 46.6217 47.2462C44.0177 49.2782 41.2527 51.1102 38.3747 52.7362C36.5957 53.7242 34.7847 54.6572 32.9217 55.4752C30.1087 56.7372 27.1667 57.7242 24.2237 58.5662C21.9417 59.2432 19.6737 59.8932 17.3207 60.3032C16.8017 60.3802 16.2957 60.4872 15.7687 60.5462C14.7927 60.6772 14.1367 60.5912 13.6807 60.4432C13.2227 60.2842 12.9597 60.0112 12.7517 59.5802C12.6557 59.3832 12.5327 59.1902 12.4787 58.9942C12.3007 58.3362 13.0637 57.7432 14.3847 57.4542C15.3697 57.2752 16.3527 57.0092 17.3447 56.8342C18.3277 56.5662 19.3267 56.3942 20.3197 56.1432C22.3147 55.6982 24.3107 55.1362 26.2977 54.5122C29.2397 53.5542 32.1497 52.3782 34.9387 50.9342L34.9807 51.0022Z" fill="#221F1F"/>
<path fill-rule="evenodd" clip-rule="evenodd" d="M72.1835 137.927C59.6315 134.234 44.7765 128.805 39.0805 120.363C33.7865 112.516 29.9385 103.546 26.0345 94.9173C21.6425 85.2133 17.1275 75.4223 13.7205 65.3423L11.9995 68.7833C15.4075 78.8643 19.9215 88.6543 24.3135 98.3583C28.2185 106.988 32.0645 115.957 37.3595 123.804C42.2785 131.095 64.3035 140.418 68.4485 139.255L72.1835 137.927Z" fill="#231F20"/>
<path fill-rule="evenodd" clip-rule="evenodd" d="M89.7684 46.4475C87.9634 45.9905 86.2064 45.3565 84.4774 44.6835C83.8474 44.4355 83.2164 44.1845 82.5984 43.9085C80.4494 42.8605 78.3884 41.6405 76.4954 40.1985C76.0594 39.9035 75.6684 39.5415 75.2474 39.2245C74.8384 38.8925 74.4014 38.5955 74.0214 38.2345C73.5224 37.7855 72.9984 37.3595 72.5114 36.8935C72.0494 36.4025 71.6044 35.8935 71.2064 35.3505C70.7104 34.6835 72.4084 34.6125 73.4504 35.6145C75.3684 37.3845 77.4344 38.9465 79.6074 40.4645C80.2624 40.9125 80.9614 41.3235 81.7064 41.6555L82.8134 42.1765L83.9464 42.6395C85.5874 43.3515 87.2994 43.9025 89.0264 44.4055C90.1014 44.6675 91.1734 44.9605 92.2684 45.1425C93.9174 45.4665 95.5994 45.6885 97.2684 45.7855C98.5694 45.8315 99.8454 45.7575 101.125 45.6785L101.966 45.6195C103.018 45.5665 103.355 45.6865 103.607 46.1755C103.664 46.2855 103.739 46.3965 103.775 46.5085C103.897 46.8855 103.475 47.2165 102.682 47.3645C101.509 47.5955 100.288 47.6935 99.0484 47.7325C97.8084 47.7575 96.5534 47.6465 95.2994 47.5225C93.4394 47.2875 91.5824 46.9595 89.7604 46.4925L89.7684 46.4475Z" fill="#221F1F"/>
</svg>
