<svg width="148" height="148" viewBox="0 0 148 148" fill="none" xmlns="http://www.w3.org/2000/svg">
<path fill-rule="evenodd" clip-rule="evenodd" d="M63.3688 67.6178C60.9748 67.6398 58.5728 67.5918 56.1568 67.3888C53.7338 67.1888 51.3238 66.8278 48.8398 65.9168C48.4848 65.8098 48.1178 65.5988 47.7688 65.4158C47.3948 65.2428 47.1408 64.9768 46.6218 64.5778C46.3498 64.2328 46.1498 63.8078 46.0458 63.3758C45.9668 63.0118 45.9298 62.7738 45.8868 62.4868C45.8068 61.9368 45.7518 61.4068 45.7058 60.8748C45.2568 54.7408 45.1248 48.6928 44.7758 42.6218C44.6378 39.9318 44.4278 37.2318 44.1648 34.5768C43.8198 31.1618 43.3528 27.7668 43.2248 24.3418C43.1768 23.2758 43.5108 23.3508 44.0808 24.1798C44.3698 24.5938 44.7098 25.1968 45.0668 25.9418C45.3958 26.6888 45.6648 27.5868 45.8338 28.5738C46.8888 35.5898 47.2248 42.6238 47.3558 49.7098C47.3938 51.8278 47.5078 53.9838 47.6548 56.1448C47.8118 58.2908 47.9638 60.5078 48.2438 62.5308L48.3098 62.8948C48.3268 62.9538 48.3368 63.0298 48.3978 63.0618C48.4428 63.0878 48.6058 63.2408 48.7888 63.3688C48.9938 63.4768 49.1928 63.5918 49.3888 63.7198C49.5868 63.8448 49.8308 63.9268 50.0518 64.0338C50.2758 64.1348 50.5008 64.2488 50.7548 64.3058C51.2438 64.4548 51.7398 64.5948 52.2588 64.6898C52.7668 64.8098 53.2918 64.8888 53.8178 64.9668C55.9218 65.2738 58.0848 65.3888 60.2488 65.4308C63.1508 65.4798 66.0688 65.3918 68.9798 65.2188C73.3918 64.9558 77.8268 64.5588 82.1908 64.0078C85.5838 63.5768 88.8858 62.9778 92.2268 62.4258C92.9638 62.3008 93.6848 62.1788 94.4268 62.0538C95.8078 61.8378 96.7308 61.7708 97.3998 61.8578C98.0628 61.9228 98.4638 62.0718 98.7858 62.3098C98.9348 62.4228 99.1198 62.5298 99.2018 62.6408C99.3368 62.8318 99.1258 63.0178 98.6618 63.2178C98.1838 63.4188 97.4328 63.6868 96.4398 63.9298C90.5168 65.1048 84.1738 66.0618 77.7698 66.7248C73.0128 67.2268 68.2058 67.5628 63.3758 67.6728L63.3688 67.6178Z" fill="#231F20"/>
<path fill-rule="evenodd" clip-rule="evenodd" d="M98.8403 46.5726L98.9423 42.3696C98.9483 41.8586 98.8883 41.3496 98.9013 40.8386C98.9383 39.0336 98.9933 37.2256 98.9723 35.4216C98.9753 34.6206 98.8733 33.8226 98.8313 33.0306C98.7493 32.0176 98.6193 31.0006 98.7243 29.9816C98.7583 29.6626 99.1263 29.6576 99.5353 29.8846C99.9413 30.1116 100.416 30.5766 100.529 31.1616C100.977 33.2356 101.052 35.3266 100.941 37.4476C100.87 38.7146 101.058 40.0176 101.104 41.3066C101.149 42.7236 101.177 44.1436 101.173 45.5636L101.162 48.1856C101.167 49.5096 101.127 50.8396 101.167 52.1556C101.203 53.1796 101.363 54.1846 101.433 55.2186C101.448 55.4466 101.485 55.6706 101.486 55.9006C101.427 56.7606 101.205 57.0356 100.596 57.1406C100.456 57.1656 100.316 57.2026 100.179 57.2086C99.7193 57.2276 99.3603 56.8506 99.2273 56.2736C98.8523 54.5356 98.8323 52.6746 98.7973 50.7936C98.7923 49.3916 98.7873 47.9826 98.7813 46.5766L98.8403 46.5726Z" fill="#231F20"/>
<path fill-rule="evenodd" clip-rule="evenodd" d="M77.5147 20.431C74.9167 20.567 72.3077 20.723 69.6947 20.92C68.7417 20.993 67.7927 21.124 66.8377 21.189C63.4677 21.425 60.0807 21.593 56.6837 21.617C55.1777 21.63 53.6627 21.661 52.1627 21.637C51.2007 21.629 50.2307 21.595 49.2627 21.513C48.2957 21.39 47.3337 21.197 46.4027 20.882C45.8207 20.686 45.9697 20.47 46.5177 20.287C47.0657 20.119 48.0037 19.889 49.0707 19.869C52.8427 20.069 56.6877 19.838 60.5817 19.717C62.9157 19.654 65.3327 19.315 67.7187 19.08C70.3447 18.829 72.9797 18.586 75.6237 18.399C77.2507 18.282 78.8837 18.198 80.5147 18.117C82.9877 18.003 85.4777 17.993 87.9417 18.005C89.8567 17.998 91.7467 17.984 93.6617 18.08C94.0817 18.114 94.4977 18.123 94.9207 18.177C96.4887 18.38 96.9567 18.667 97.1697 19.29C97.2177 19.435 97.2897 19.583 97.3057 19.722C97.3567 20.189 96.6667 20.447 95.5617 20.397C92.2737 20.285 88.8417 20.154 85.3487 20.188C82.7577 20.219 80.1397 20.309 77.5217 20.485L77.5147 20.431Z" fill="#231F20"/>
<path fill-rule="evenodd" clip-rule="evenodd" d="M89.4185 36.3732C87.2595 39.0112 85.2105 41.7682 83.2715 44.6082C82.5645 45.6462 81.9485 46.7412 81.2575 47.7892L79.4465 50.5772L78.5555 51.9832L78.1135 52.6902L77.4105 53.8642C77.1745 54.2332 76.9595 54.6802 76.7115 54.9752L76.3515 55.4542C76.2915 55.5262 76.2325 55.6282 76.1725 55.6762L75.9935 55.8012L75.6385 56.0472L75.3245 56.2102C75.0015 56.2492 74.8045 56.0432 74.5555 55.8992C74.0745 55.5922 73.5615 54.9112 73.1265 54.1372C72.6915 53.4212 72.1985 52.4832 72.0015 52.1162C71.0635 50.3782 70.0255 48.7002 68.9125 47.1272C68.1955 46.1202 67.4445 45.1422 66.6575 44.2302C65.8695 43.3312 65.0555 42.4422 64.1715 41.8612C63.6525 41.5572 63.7385 41.0402 64.6325 40.8102C65.5185 40.5942 67.1255 40.9962 68.2795 42.0982C70.3295 44.0302 71.8715 46.2142 73.2795 48.4452C73.6315 49.0032 73.9725 49.5642 74.3055 50.1262L74.7985 50.9702C74.8565 51.0682 74.8355 51.0432 74.8405 51.0592L74.8435 51.0882L74.8545 51.1552C74.8715 51.2502 74.9015 51.3792 74.9585 51.5462C74.9785 51.6022 75.0375 51.7862 75.0765 51.7332C75.1135 51.7192 75.1555 51.6962 75.2035 51.6652C75.2615 51.6272 75.3265 51.5652 75.3935 51.4892L75.4955 51.3642L75.5475 51.2942L75.5745 51.2592L75.6495 51.1342C76.0555 50.4472 76.4625 49.7572 76.8715 49.0652C77.6825 47.6762 78.4895 46.2722 79.3585 44.9222C81.2675 41.9522 83.2875 39.0482 85.4305 36.2322C86.7515 34.5002 88.1155 32.7992 89.5365 31.1432C91.6825 28.6282 94.0295 26.2602 96.4875 24.0382C98.4135 22.3302 100.345 20.6222 102.695 19.3152C103.202 19.0142 103.723 18.7462 104.294 18.5332C106.418 17.7502 107.275 17.9902 107.815 18.7902C107.941 18.9752 108.093 19.1562 108.168 19.3482C108.293 19.6732 108.16 20.0072 107.858 20.3112C107.554 20.6192 107.082 20.8602 106.475 21.1672C102.907 22.8642 99.4725 25.6102 96.2625 28.7912C93.8875 31.1562 91.6045 33.7142 89.4865 36.4192L89.4185 36.3732Z" fill="#231F20"/>
<path fill-rule="evenodd" clip-rule="evenodd" d="M61.4374 68.7706C59.2354 68.7296 57.0264 68.6026 54.8224 68.2976C52.6174 67.9926 50.4204 67.4956 48.2864 66.6056C47.9024 66.4226 47.5054 66.2706 47.1374 66.0466L46.5884 65.6986L46.3054 65.5186C46.1914 65.4696 46.0654 65.2916 45.9484 65.1816C45.5084 64.6336 45.4214 64.2006 45.2904 63.7806C45.1644 63.3536 45.0904 62.9496 45.0174 62.5406C44.5634 59.6846 44.4414 56.8976 44.2784 54.0936L43.8764 45.7116C43.7574 43.2356 43.5894 40.7496 43.3704 38.3036C43.0874 35.1586 42.6924 32.0296 42.4804 28.8866C42.4084 27.9076 42.6484 27.9916 43.0804 28.7676C43.3014 29.1556 43.5594 29.7176 43.8354 30.4096C44.0874 31.1026 44.3024 31.9306 44.4434 32.8396C45.3434 39.2956 45.5744 45.7676 45.7584 52.2696C45.8144 54.2126 45.9304 56.1926 46.1084 58.1676C46.1974 59.1556 46.3064 60.1416 46.4404 61.1136C46.5784 62.0706 46.7414 63.0756 47.0274 63.8486C47.0604 63.9646 47.1164 64.0196 47.1384 64.0856C47.1774 64.1336 47.1844 64.1546 47.2424 64.1996L47.8604 64.6016C48.2924 64.8606 48.7524 65.1016 49.2174 65.3306C49.6984 65.5356 50.1764 65.7486 50.6914 65.8836C51.1934 66.0466 51.7054 66.1886 52.2294 66.2996C54.3094 66.7816 56.4674 67.0186 58.6304 67.1426C61.2954 67.2916 63.9814 67.2746 66.6604 67.1506C70.7204 66.9576 74.8004 66.5946 78.8124 66.0746C81.9334 65.6746 84.9714 65.1306 88.0494 64.6356C88.7284 64.5256 89.3934 64.4186 90.0774 64.3086C92.6234 63.9186 93.5094 64.1336 94.0764 64.4506C94.2064 64.5336 94.3724 64.6156 94.4414 64.6956C94.6594 64.9666 93.6884 65.1676 91.8614 65.5886C86.4144 66.5436 80.5874 67.5046 74.6944 68.1026C70.3164 68.5486 65.8904 68.8536 61.4424 68.8096L61.4374 68.7706Z" fill="#231F20"/>
<path fill-rule="evenodd" clip-rule="evenodd" d="M64.3634 128.599C61.9694 128.621 59.5674 128.572 57.1504 128.37C54.7284 128.17 52.3184 127.809 49.8344 126.898C49.3804 126.751 48.9194 126.48 48.4784 126.238L47.7454 125.663C47.6014 125.542 47.4524 125.428 47.3984 125.238C47.2874 125.089 47.2324 124.908 47.1604 124.736C47.0824 124.571 47.0384 124.368 47.0124 124.225C46.9894 124.104 46.9584 123.973 46.9424 123.861L46.8414 123.179C46.7824 122.733 46.7374 122.293 46.7004 121.856C46.2514 115.722 46.1184 109.674 45.7704 103.603C45.6314 100.913 45.4224 98.2133 45.1594 95.5573C44.8144 92.1433 44.3474 88.7483 44.2194 85.3233C44.1714 84.2563 44.5054 84.3323 45.0744 85.1603C45.3644 85.5743 45.7044 86.1783 46.0604 86.9223C46.3894 87.6703 46.6584 88.5673 46.8284 89.5553C47.8834 96.5703 48.2194 103.605 48.3494 110.69C48.3874 112.809 48.5014 114.965 48.6484 117.126C48.8054 119.272 48.9584 121.488 49.2374 123.512C49.3454 124.107 49.2584 123.911 49.6604 124.261C50.0704 124.51 50.4964 124.795 51.0064 124.997C51.9894 125.452 53.1284 125.661 54.2574 125.862C56.5334 126.233 58.8884 126.366 61.2434 126.411C64.1444 126.46 67.0624 126.372 69.9744 126.2C74.3864 125.936 78.8214 125.54 83.1844 124.989C86.5784 124.558 89.8804 123.959 93.2214 123.406C93.9584 123.282 94.6784 123.16 95.4214 123.035C96.8014 122.819 97.7244 122.752 98.3944 122.839C99.0564 122.904 99.4584 123.052 99.7804 123.291C99.9284 123.403 100.114 123.511 100.195 123.622C100.33 123.813 100.12 123.999 99.6564 124.198C99.1784 124.4 98.4274 124.667 97.4344 124.911C91.5114 126.086 85.1684 127.043 78.7634 127.705C74.0064 128.207 69.2004 128.543 64.3704 128.654L64.3634 128.599Z" fill="#231F20"/>
<path fill-rule="evenodd" clip-rule="evenodd" d="M99.8348 107.553L99.9368 103.35C99.9428 102.839 99.8828 102.331 99.8958 101.819C99.9318 100.014 99.9878 98.2061 99.9668 96.4031C99.9698 95.6011 99.8668 94.8031 99.8248 94.0111C99.7438 92.9981 99.6138 91.9811 99.7178 90.9621C99.7528 90.6431 100.121 90.6381 100.529 90.8651C100.936 91.0921 101.41 91.5571 101.524 92.1421C101.971 94.2161 102.047 96.3071 101.936 98.4281C101.865 99.6951 102.053 100.998 102.099 102.287C102.144 103.705 102.172 105.124 102.168 106.544L102.157 109.166C102.162 110.49 102.122 111.82 102.162 113.136C102.198 114.16 102.357 115.165 102.428 116.199C102.442 116.427 102.48 116.651 102.481 116.882C102.422 117.741 102.2 118.016 101.591 118.121C101.451 118.146 101.311 118.183 101.174 118.189C100.714 118.208 100.355 117.831 100.222 117.254C99.8468 115.516 99.8258 113.655 99.7918 111.774C99.7868 110.372 99.7808 108.963 99.7758 107.557L99.8348 107.553Z" fill="#231F20"/>
<path fill-rule="evenodd" clip-rule="evenodd" d="M78.5089 81.4117C75.9109 81.5477 73.3019 81.7037 70.6889 81.9017C69.7359 81.9737 68.7879 82.1047 67.8319 82.1697C64.4619 82.4057 61.0749 82.5737 57.6789 82.5977C56.1729 82.6117 54.6579 82.6417 53.1579 82.6187C52.1949 82.6097 51.2249 82.5757 50.2569 82.4947C49.2909 82.3707 48.3279 82.1777 47.3969 81.8627C46.8149 81.6677 46.9639 81.4517 47.5119 81.2677C48.0609 81.1007 48.9979 80.8707 50.0649 80.8497C53.8369 81.0497 57.6819 80.8187 61.5759 80.6977C63.9099 80.6347 66.3269 80.2957 68.7129 80.0607C71.3389 79.8097 73.9749 79.5667 76.6189 79.3797C78.2459 79.2627 79.8779 79.1787 81.5089 79.0977C83.9819 78.9837 86.4719 78.9737 88.9359 78.9867C90.8519 78.9787 92.7409 78.9647 94.6559 79.0607C95.0769 79.0947 95.4919 79.1047 95.9149 79.1577C97.4829 79.3617 97.9509 79.6487 98.1639 80.2707C98.2129 80.4157 98.2839 80.5637 98.2999 80.7027C98.3509 81.1697 97.6619 81.4287 96.5569 81.3777C93.2679 81.2657 89.8369 81.1347 86.3429 81.1687C83.7519 81.1997 81.1339 81.2897 78.5169 81.4657L78.5089 81.4117Z" fill="#231F20"/>
<path fill-rule="evenodd" clip-rule="evenodd" d="M90.4131 97.354C88.2531 99.993 86.2051 102.75 84.2661 105.59C83.5581 106.627 82.9431 107.722 82.2511 108.77L80.2081 111.924L79.2051 113.516L77.6871 116.045C77.2661 116.625 76.8161 116.943 76.4561 117.12C76.3721 117.156 76.2761 117.252 76.1241 117.191C76.0031 117.156 75.9041 117.102 75.7991 117.041C75.5941 116.92 75.3861 116.774 75.1701 116.567C74.7341 116.169 74.3271 115.477 73.9471 114.822C73.7571 114.492 73.5651 114.163 73.3891 113.83L72.9961 113.097C72.0581 111.36 71.0201 109.681 69.9061 108.109C69.1901 107.101 68.4391 106.123 67.6521 105.211C66.8641 104.312 66.0501 103.424 65.1651 102.842C64.6471 102.538 64.7321 102.021 65.6271 101.791C66.5131 101.575 68.1201 101.977 69.2731 103.079C71.3241 105.011 72.8661 107.195 74.2731 109.427C74.6251 109.984 74.9671 110.545 75.3001 111.107L75.7931 111.952C75.8511 112.049 75.8301 112.024 75.8351 112.041L75.8381 112.069L75.8481 112.136C75.8661 112.232 75.8951 112.36 75.9521 112.527C75.9731 112.583 76.0321 112.767 76.0701 112.714C76.1071 112.7 76.1491 112.678 76.1981 112.646C76.2231 112.629 76.2481 112.608 76.2751 112.583C76.3361 112.532 76.3991 112.459 76.4641 112.377L76.5631 112.248L76.8421 111.785C77.2251 111.134 77.6091 110.48 77.9951 109.824C78.7631 108.509 79.5301 107.182 80.3521 105.904C82.2611 102.934 84.2821 100.03 86.4251 97.213C87.7451 95.481 89.1101 93.78 90.5301 92.125C92.6771 89.609 95.0241 87.241 97.4821 85.02C99.4071 83.311 101.34 81.603 103.69 80.296C104.197 79.995 104.718 79.727 105.289 79.515C107.413 78.731 108.27 78.971 108.81 79.771C108.936 79.957 109.088 80.137 109.162 80.329C109.288 80.654 109.155 80.989 108.853 81.293C108.549 81.6 108.077 81.841 107.47 82.148C103.902 83.845 100.467 86.591 97.2571 89.772C94.8821 92.137 92.5991 94.696 90.4801 97.4L90.4131 97.354Z" fill="#231F20"/>
<path fill-rule="evenodd" clip-rule="evenodd" d="M63.8243 129.642C59.3223 129.621 54.7513 129.439 50.2913 127.964C49.4713 127.714 48.6763 127.345 47.9133 126.89L47.3463 126.533C47.2323 126.481 47.1033 126.34 46.9823 126.209C46.8463 126.084 46.7503 125.943 46.6863 125.807C46.4073 125.292 46.3203 124.879 46.2003 124.443C45.5913 121.476 45.4843 118.634 45.2883 115.751L44.8413 107.151C44.7123 104.61 44.5353 102.059 44.3093 99.5497C44.0133 96.3227 43.6133 93.1097 43.3873 89.8867C43.3103 88.8817 43.5513 88.9697 43.9873 89.7667C44.2093 90.1647 44.4703 90.7437 44.7483 91.4527C45.0033 92.1647 45.2203 93.0147 45.3653 93.9467C46.2853 100.569 46.5333 107.207 46.7553 113.875C46.8223 115.868 46.9563 117.897 47.1593 119.919C47.2653 120.928 47.3873 121.938 47.5553 122.92C47.6423 123.406 47.7343 123.898 47.8653 124.339C47.9223 124.568 48.0033 124.769 48.0753 124.94C48.1213 125.005 48.1363 125.089 48.1713 125.102C48.1983 125.135 48.2053 125.161 48.3143 125.22C50.0143 126.357 52.1263 127.091 54.2943 127.442C56.4613 127.83 58.6833 128.003 60.9093 128.078C63.6513 128.161 66.4073 128.094 69.1573 127.934C73.3233 127.696 77.5063 127.28 81.6213 126.735C84.8233 126.31 87.9383 125.747 91.0963 125.234C91.7933 125.121 92.4753 125.009 93.1773 124.895C95.7873 124.491 96.6943 124.7 97.2773 125.015C97.4113 125.098 97.5813 125.178 97.6523 125.259C97.7733 125.395 97.5623 125.522 97.1173 125.646C96.6583 125.784 95.9453 125.969 95.0063 126.165C89.4153 127.151 83.4423 128.147 77.4043 128.798C72.9183 129.293 68.3843 129.633 63.8303 129.681L63.8243 129.642Z" fill="#231F20"/>
<path fill-rule="evenodd" clip-rule="evenodd" d="M105.622 39.1024C105.937 39.2254 106.093 39.5804 105.971 39.8944C105.363 41.4564 103.982 38.4644 105.622 39.1024" fill="#231F20"/>
</svg>
