<svg width="148" height="148" viewBox="0 0 148 148" fill="none" xmlns="http://www.w3.org/2000/svg">
<path fill-rule="evenodd" clip-rule="evenodd" d="M65.771 55.5148C63.844 53.7418 61.831 52.0208 59.76 50.6078C59.5 50.4108 59.249 50.2898 58.995 50.1428C58.664 49.9718 58.793 49.9798 58.637 49.9828L56.826 50.0938C56.51 50.1158 56.193 50.1258 55.877 50.1558L54.937 50.3288L53.054 50.6718C51.246 51.1508 49.459 51.7268 47.726 52.4728L46.565 52.9268L45.44 53.4728C44.693 53.8448 43.929 54.1848 43.194 54.5838C41.746 55.4258 40.266 56.2208 38.887 57.1888C36.062 59.0188 33.419 61.1428 30.909 63.4068L29.26 64.9448C28.723 65.4708 28.212 66.0248 27.691 66.5648C26.631 67.6328 25.684 68.7988 24.71 69.9248C22.286 72.8908 20.159 76.0778 18.102 79.2618C17.452 80.2478 16.996 79.8528 17 78.6808C17.007 78.0978 17.11 77.3018 17.397 76.4228C17.708 75.5638 18.146 74.5828 18.792 73.6388C21.084 70.2918 23.712 67.2158 26.571 64.3678C29.437 61.5278 32.523 58.8948 35.879 56.6078C39.887 53.8898 44.222 51.1998 48.97 49.5408C51.598 48.7168 54.287 47.9838 57.073 47.8458L58.114 47.7798L58.681 47.7438C58.906 47.7528 59.209 47.6338 59.426 47.8308L60.496 48.4218C60.816 48.5988 61.08 48.8098 61.374 49.0038C61.958 49.3888 62.505 49.8028 63.038 50.2268C63.583 50.6418 64.115 51.0678 64.626 51.5118C67.18 53.6638 69.602 55.9348 71.952 58.2708C75.522 61.7988 78.927 65.5128 82.229 69.2348C84.783 72.1398 87.333 74.9568 89.736 77.9518C90.274 78.6038 90.784 79.2568 91.301 79.9348C93.208 82.4588 93.593 83.4288 93.483 84.3108C93.455 84.5148 93.453 84.7588 93.387 84.9088C93.161 85.4158 92.114 84.5818 90.717 82.7898C86.467 77.5358 81.89 72.0818 77.019 66.8358C73.404 62.9478 69.686 59.0968 65.738 55.5618L65.771 55.5148Z" fill="#231F20"/>
<path fill-rule="evenodd" clip-rule="evenodd" d="M89.2007 27.608C87.8627 27.976 86.5637 28.456 85.2617 28.934C83.9407 29.371 82.6957 29.983 81.4137 30.519C80.4697 30.897 79.6347 31.48 78.7217 31.915C75.5597 33.543 72.4717 35.393 69.7877 37.736L68.8837 38.505C68.5867 38.767 68.3357 39.072 68.0627 39.357C67.5347 39.941 67.0087 40.524 66.4847 41.103L64.7707 43.557C64.2397 44.396 63.7787 45.264 63.1577 46.06C62.7817 46.557 62.2547 46.235 61.9887 45.484C61.7197 44.739 61.7327 43.524 62.3577 42.413C64.7897 38.648 68.1337 35.647 71.8317 33.349C72.9147 32.619 74.0547 31.953 75.1807 31.247C76.2867 30.505 77.4757 29.899 78.6437 29.282C79.9157 28.574 81.2807 28.067 82.5977 27.464C83.9287 26.89 85.3077 26.44 86.6577 25.922L89.2067 25.129C90.0517 24.851 90.9097 24.621 91.7747 24.412L93.7317 23.916C94.3877 23.761 95.0547 23.653 95.7137 23.517C96.3747 23.393 97.0307 23.244 97.6927 23.133C98.3567 23.032 99.0197 22.931 99.6807 22.831C100.703 22.638 101.728 22.519 102.753 22.382C103.265 22.316 103.775 22.229 104.291 22.178L105.848 22.084C106.307 22.059 106.758 22.012 107.222 22C108.954 22.102 109.496 22.318 109.773 22.983C109.837 23.135 109.925 23.289 109.951 23.438C110.038 23.941 109.315 24.291 108.142 24.335C104.646 24.517 100.984 24.929 97.3147 25.612C95.9617 25.912 94.5877 26.132 93.2457 26.516L91.2197 27.036L89.2227 27.664L89.2007 27.608Z" fill="#231F20"/>
<path fill-rule="evenodd" clip-rule="evenodd" d="M120.684 51.1137L117.536 45.5787C117.154 44.9047 116.732 44.2537 116.361 43.5717C115.068 41.1597 113.82 38.7177 112.702 36.2037C112.209 35.0877 111.697 33.9707 111.253 32.8307C110.683 31.3807 110.096 29.8367 110.276 28.1427C110.334 27.6167 110.659 27.7397 111.009 28.1297C111.332 28.5227 111.811 29.1287 112.054 29.9017C112.919 32.7077 114.342 35.4827 115.597 38.3537C116.367 40.0717 117.427 41.7267 118.392 43.3967L121.618 48.8987L123.642 52.2717C124.671 53.9707 125.681 55.6957 126.733 57.3687C127.549 58.6727 128.449 59.8917 129.262 61.1937C129.435 61.4847 129.619 61.7617 129.782 62.0617C130.405 63.1717 130.318 63.6767 130.068 64.0897C130.004 64.1867 129.952 64.2997 129.882 64.3707C129.651 64.6047 129.172 64.2737 128.564 63.5857C126.945 61.4477 125.486 59.0307 123.962 56.6117C122.842 54.8107 121.739 52.9787 120.644 51.1417L120.684 51.1137Z" fill="#231F20"/>
<path fill-rule="evenodd" clip-rule="evenodd" d="M114.241 68.5706C112.157 69.2656 110.128 70.1726 108.189 71.2486C107.475 71.6336 106.829 72.1256 106.137 72.5436C103.734 74.0776 101.433 75.8246 99.4307 77.8916C98.5277 78.7946 97.7497 79.8206 97.0287 80.8566C96.1257 82.2116 95.3937 83.6536 94.4297 84.9706C94.1187 85.3756 93.5927 85.0456 93.2697 84.3756C92.9527 83.7126 92.8167 82.6646 93.3507 81.8066C95.1617 78.7336 97.5857 76.0356 100.426 73.9006C102.12 72.6266 103.791 71.2026 105.627 70.0646C107.641 68.8166 109.764 67.7496 111.965 66.8876C113.318 66.3546 114.706 65.9126 116.104 65.5216C118.231 64.9506 120.425 64.6056 122.619 64.4476C124.324 64.3386 126.037 64.2636 127.787 64.5746C128.173 64.6346 128.554 64.6996 128.936 64.8246C130.356 65.2826 130.703 65.7536 130.631 66.4386C130.615 66.5966 130.614 66.7636 130.568 66.9056C130.39 67.3976 129.76 67.4336 128.913 67.2266C126.38 66.6026 123.517 66.6096 120.634 67.0276C118.495 67.3366 116.346 67.8826 114.264 68.6256L114.241 68.5706Z" fill="#231F20"/>
<path fill-rule="evenodd" clip-rule="evenodd" d="M114.86 70.1892C113.025 70.9472 111.246 71.8822 109.543 72.9452C108.922 73.3352 108.332 73.7722 107.73 74.1902C105.589 75.6432 103.546 77.2662 101.668 79.0662C100.828 79.8582 100.076 80.7442 99.3289 81.6052C98.4019 82.7362 97.5159 83.9182 96.7839 85.1412C96.5609 85.5212 96.3799 85.4062 96.3359 84.9472C96.2819 84.4832 96.4269 83.6862 96.8779 82.9132C98.4809 80.1922 100.707 77.9892 103.12 76.0382C104.573 74.8822 106.032 73.6172 107.604 72.5452C109.33 71.3712 111.143 70.3192 113.035 69.4242C114.195 68.8672 115.396 68.3912 116.618 67.9802C118.47 67.3592 120.408 66.9542 122.352 66.7942C123.859 66.6722 125.375 66.6202 126.885 66.8862C127.222 66.9192 127.543 67.0002 127.874 67.0812C128.488 67.2352 128.867 67.4172 129.11 67.5962C129.354 67.7712 129.462 67.9452 129.508 68.1682C129.529 68.2702 129.567 68.3772 129.563 68.4692C129.548 68.7762 128.999 68.8282 128.188 68.6272C126.954 68.4032 125.714 68.2072 124.432 68.1772C123.151 68.1652 121.849 68.2672 120.55 68.4852C118.626 68.8342 116.714 69.4302 114.877 70.2212L114.86 70.1892Z" fill="#231F20"/>
<path fill-rule="evenodd" clip-rule="evenodd" d="M113.497 74.103C112.718 74.425 111.926 74.721 111.17 75.104C110.4 75.458 109.64 75.834 108.904 76.257C108.36 76.554 107.836 76.885 107.316 77.219C105.422 78.314 103.652 79.615 101.946 80.995C101.229 81.65 100.476 82.284 99.8471 83.017C99.4341 83.479 99.0001 83.924 98.5961 84.394C98.1981 84.868 97.7831 85.328 97.3271 85.757C96.7601 86.299 96.4791 84.835 97.3861 83.638C99.0351 81.589 101.038 79.854 103.196 78.352C103.861 77.928 104.511 77.461 105.158 76.983C105.83 76.54 106.505 76.094 107.175 75.651C107.944 75.218 108.706 74.772 109.488 74.364C110.288 73.988 111.059 73.559 111.878 73.228L113.378 72.595L114.911 72.043C115.677 71.745 116.489 71.566 117.273 71.321C118.077 71.137 118.875 70.935 119.683 70.79C120.937 70.569 122.183 70.331 123.484 70.33C123.77 70.333 124.053 70.32 124.341 70.344C125.418 70.468 125.719 70.773 125.843 71.141C125.872 71.227 125.916 71.312 125.924 71.387C125.938 71.514 125.829 71.604 125.624 71.684C125.42 71.76 125.122 71.847 124.778 71.814C122.706 71.792 120.515 72.036 118.326 72.579C117.509 72.745 116.711 73.035 115.897 73.251C115.105 73.55 114.291 73.792 113.513 74.135L113.497 74.103Z" fill="#231F20"/>
<path fill-rule="evenodd" clip-rule="evenodd" d="M40.2931 97.4847C42.8591 99.4667 45.3751 101.516 47.8391 103.626C48.7351 104.4 49.6781 105.118 50.5481 105.923C52.0971 107.323 53.5931 108.786 55.0571 110.282C55.7931 111.024 56.4911 111.81 57.2101 112.569L58.2451 113.755L58.7391 114.323C58.8031 114.401 58.8881 114.506 58.9591 114.604L59.1271 114.822L59.5101 115.297C59.5431 115.329 59.5741 115.387 59.6071 115.399C59.6231 115.351 59.6321 115.301 59.6431 115.253L59.7121 114.956C59.7601 114.759 59.8161 114.564 59.8771 114.377L59.9741 114.102C60.0481 113.922 60.1371 113.71 60.2301 113.513C60.7571 112.368 61.4651 111.257 62.4261 110.353C63.3791 109.446 64.5951 108.796 65.8591 108.529C66.6661 108.38 66.6521 109.029 66.2651 109.768C65.8651 110.528 65.2551 111.398 64.4611 112.075C63.5621 112.838 62.8521 113.836 62.3221 115.018C62.3011 115.053 62.2211 115.261 62.1551 115.43C62.0871 115.601 62.0181 115.772 61.9631 115.955C61.8401 116.305 61.7421 116.69 61.6411 117.073L61.4841 117.642C61.3741 117.705 61.2641 117.777 61.1551 117.834L60.5841 117.898L60.2101 117.946L60.1211 117.959C60.0881 117.805 60.3931 119.308 60.2631 118.671H60.2601L60.2561 118.669L60.2471 118.665L60.2291 118.657L60.1921 118.643L60.1201 118.613L59.8301 118.493L58.6811 118C58.1051 117.299 57.5811 116.611 56.9871 115.923L56.1111 114.874C55.5521 114.173 54.9361 113.51 54.3511 112.818C52.4741 110.677 50.1971 108.756 48.0011 106.831C45.5781 104.717 43.0921 102.661 40.5501 100.675C38.9831 99.4547 37.4051 98.2457 35.7931 97.0877C33.3701 95.3207 30.8411 93.6357 28.3671 91.9037C26.4431 90.5677 24.4991 89.3277 22.6231 87.9307C22.2091 87.6247 21.7931 87.3347 21.3911 87.0047C19.8991 85.7747 19.5721 85.1987 19.7181 84.4597C19.7521 84.2907 19.7651 84.1017 19.8291 83.9597C20.0531 83.4787 20.8701 83.7287 21.9721 84.5257C25.2641 86.8777 28.7591 89.3447 32.3331 91.7717C35.0031 93.5437 37.7241 95.4777 40.3251 97.4337L40.2931 97.4847Z" fill="#231F20"/>
<path fill-rule="evenodd" clip-rule="evenodd" d="M61.8522 114.3C62.2162 113.816 62.5962 113.344 62.9872 112.88C63.1332 112.714 63.2532 112.526 63.4022 112.362C63.9462 111.794 64.5312 111.26 65.1812 110.792C65.4712 110.584 65.7642 110.373 66.0822 110.183C66.5002 109.984 67.0072 109.719 67.5462 109.926C67.7092 109.976 67.6182 110.215 67.4862 110.46C67.3442 110.709 67.2382 110.939 67.0892 111.012C66.5542 111.211 65.8802 111.66 65.2032 112.139C64.7902 112.431 64.4822 112.865 64.1522 113.267C63.7792 113.702 63.4232 114.16 63.0822 114.631C62.8672 114.917 62.6682 115.217 62.4702 115.515C62.1782 115.974 61.8812 116.436 61.6412 116.921C61.4462 117.294 61.3522 117.708 61.1992 118.094C61.1662 118.18 61.1452 118.268 61.1062 118.352C60.9632 118.661 60.8412 118.724 60.5402 118.667C60.4712 118.654 60.4002 118.647 60.3352 118.628C60.1152 118.564 60.0012 118.356 60.0352 118.088C60.1102 117.28 60.4652 116.545 60.8452 115.823C61.1442 115.297 61.4852 114.789 61.8262 114.285L61.8522 114.3Z" fill="#231F20"/>
<path fill-rule="evenodd" clip-rule="evenodd" d="M44.3815 108.947L38.6255 104.43C37.9225 103.895 37.1865 103.404 36.4705 102.885C35.2065 101.971 33.9215 101.082 32.6225 100.207C31.3265 99.3293 30.0275 98.4483 28.6785 97.6553C27.4905 96.9353 26.2765 96.2413 25.0755 95.5633C23.5285 94.6973 21.9935 93.8013 20.5225 92.7983C20.0655 92.4823 20.2295 92.3333 20.7445 92.3663C21.2575 92.4023 22.1375 92.5973 23.0545 93.0623C24.6885 93.8703 26.2675 94.7803 27.8415 95.7013C29.4155 96.6233 30.9915 97.5473 32.4905 98.6093C34.2945 99.8603 36.2385 101.065 38.0685 102.38C40.0865 103.835 41.9865 105.387 43.9445 106.877L47.5275 109.687C49.3255 111.121 51.0865 112.623 52.7985 114.141C54.1255 115.325 55.4675 116.452 56.7035 117.717C56.9845 117.987 57.2485 118.261 57.5165 118.548C58.4715 119.647 58.6635 120.093 58.6315 120.524C58.6215 120.624 58.6275 120.74 58.5995 120.816C58.5085 121.07 57.9685 120.758 57.1965 120.05C54.8945 117.962 52.5655 115.717 50.0675 113.594C48.2145 112.019 46.3065 110.479 44.3625 108.976L44.3815 108.947Z" fill="#231F20"/>
<path fill-rule="evenodd" clip-rule="evenodd" d="M44.1575 110.792C42.3335 109.517 40.4945 108.259 38.6245 107.044C37.9485 106.592 37.2355 106.196 36.5535 105.753C34.1535 104.183 31.7245 102.651 29.2715 101.157C28.1785 100.502 27.0665 99.8657 25.9665 99.2407C24.5515 98.4367 23.1115 97.6877 21.7515 96.7517C21.3255 96.4537 21.5155 96.3047 22.0025 96.3227C22.4795 96.3447 23.2915 96.5107 24.1185 96.9457C25.5875 97.7217 27.0585 98.4967 28.5005 99.3317C29.9385 100.174 31.3575 101.055 32.7665 101.966C34.4445 103.068 36.2715 104.082 38.0035 105.184C39.9075 106.397 41.7955 107.637 43.6565 108.919C44.8135 109.688 45.9315 110.52 47.0695 111.317C48.7745 112.554 50.4555 113.842 52.0885 115.157C52.7405 115.644 53.3445 116.185 53.9725 116.694L54.9085 117.466L55.7825 118.324C56.0375 118.578 56.2895 118.829 56.5465 119.084C57.3935 120.16 57.5535 120.597 57.4595 120.989C57.4405 121.078 57.4375 121.179 57.4085 121.24C57.3275 121.432 56.7815 121.147 56.1675 120.465C54.2185 118.514 51.9345 116.613 49.5725 114.771L46.8885 112.764L44.1415 110.82L44.1575 110.792Z" fill="#231F20"/>
<path fill-rule="evenodd" clip-rule="evenodd" d="M89.4059 40.8387C90.4689 40.3927 91.5689 40.0467 92.6669 39.7267C93.0639 39.5997 93.4609 39.4727 93.8649 39.3717C95.2979 39.0397 96.7439 38.7977 98.1949 38.6507C98.8399 38.5747 99.4779 38.4977 100.117 38.4217C100.527 38.3847 100.937 38.3287 101.35 38.3017C101.763 38.2937 102.177 38.3097 102.589 38.3637C103.098 38.4237 102.453 39.3787 101.556 39.4977C99.9439 39.6537 98.3479 39.8427 96.7179 40.0437C95.7389 40.1517 94.7679 40.4907 93.8099 40.7787C92.7539 41.0937 91.7129 41.4637 90.6899 41.8807C90.0619 42.1417 89.4349 42.4087 88.8309 42.7207C87.9079 43.1787 87.0049 43.6917 86.1669 44.2787C85.5299 44.7567 84.9689 45.3047 84.4119 45.8527L84.0529 46.2187C83.5939 46.6637 83.3739 46.7207 82.9889 46.5187C82.9019 46.4727 82.8059 46.4347 82.7279 46.3797C82.4639 46.1957 82.4849 45.8247 82.7899 45.4187C83.6919 44.2157 84.9269 43.2047 86.2769 42.4017C87.2729 41.7947 88.3219 41.2707 89.3889 40.8057L89.4059 40.8387Z" fill="#231F20"/>
<path fill-rule="evenodd" clip-rule="evenodd" d="M92.4818 49.674C93.2718 49.27 94.0868 48.922 94.9038 48.591C95.1988 48.465 95.4848 48.32 95.7868 48.21C96.8538 47.831 97.9368 47.512 99.0228 47.234C99.5018 47.102 99.9798 46.962 100.45 46.813C101.052 46.621 101.662 46.423 102.309 46.424C102.706 46.408 102.415 47.437 101.759 47.684C100.566 48.056 99.3788 48.399 98.1508 48.707C97.4118 48.883 96.7138 49.258 96.0108 49.568C95.2358 49.91 94.4688 50.274 93.7178 50.672C93.2528 50.911 92.7928 51.162 92.3468 51.436C91.6698 51.846 90.9948 52.276 90.3818 52.772C89.9128 53.167 89.5168 53.629 89.1058 54.071C89.0188 54.17 88.9288 54.272 88.8428 54.369C88.4948 54.72 88.3078 54.749 87.9478 54.526C87.8658 54.476 87.7778 54.431 87.7038 54.373C87.4498 54.179 87.4228 53.849 87.6378 53.52C88.2688 52.539 89.1758 51.728 90.1688 51.046C90.8998 50.528 91.6788 50.075 92.4618 49.643L92.4818 49.674Z" fill="#231F20"/>
<path fill-rule="evenodd" clip-rule="evenodd" d="M42.6226 69.9538C43.7536 69.0858 44.9076 68.2448 46.1146 67.4818C46.5546 67.2038 46.9706 66.8898 47.4246 66.6328C48.2216 66.1648 49.0366 65.7568 49.8166 65.3298C50.6096 64.8998 51.4126 64.4648 52.2366 64.0608C52.9676 63.7038 53.7046 63.3378 54.4726 63.0378C55.4456 62.6638 56.5456 62.2998 57.6736 62.5658C58.0226 62.6458 57.8966 62.9318 57.6076 63.2018C57.3126 63.4608 56.9116 63.7518 56.4176 63.8488C54.6196 64.2258 52.8416 65.2558 50.9946 66.1888C49.8756 66.7728 48.7856 67.4878 47.7446 68.1798C46.5886 68.9458 45.4456 69.7418 44.3366 70.5888C43.6526 71.1078 42.9826 71.6478 42.3266 72.2048C41.3386 73.0548 40.3536 73.9248 39.4526 74.8578C38.7486 75.5788 38.1286 76.3558 37.4846 77.1158C37.3436 77.2848 37.2116 77.4548 37.0616 77.6178C36.5056 78.2198 36.2556 78.3448 35.8636 78.2298C35.7736 78.2038 35.6766 78.1878 35.5996 78.1508C35.3396 78.0228 35.3906 77.6158 35.7196 77.0928C36.7006 75.5468 37.9436 74.0768 39.3486 72.7578C40.3816 71.7668 41.4786 70.8318 42.5966 69.9248L42.6226 69.9538Z" fill="#231F20"/>
<path fill-rule="evenodd" clip-rule="evenodd" d="M79.737 93.1953C79.72 94.3023 79.795 95.4023 80.023 96.4183C80.069 96.6793 80.147 96.9193 80.228 97.1563C80.295 97.4053 80.398 97.6233 80.503 97.8383C80.591 98.0703 80.73 98.2463 80.853 98.4383L80.928 98.5593L81 98.6253C81.069 98.6873 81.143 98.7793 81.199 98.7993C81.337 98.8963 81.365 98.9223 81.421 98.9093C81.471 98.9413 81.512 98.8993 81.634 98.8413C81.886 98.6773 82.216 98.2843 82.489 97.8533C83.045 96.9603 83.513 95.9093 83.954 94.8453C84.609 93.2853 85.13 91.6523 85.909 90.0283C86.182 89.4683 86.475 88.9063 86.919 88.3303C87.4 87.6203 88.529 86.9533 89.436 87.4353C91.235 88.3083 91.7 89.9223 91.797 91.2583C91.893 92.6223 91.693 93.8923 91.439 95.1213C91.181 96.3473 90.83 97.5423 90.509 98.6953C90.426 98.9863 90.36 99.2613 90.295 99.5353C90.211 99.8513 90.142 100.188 90.039 100.482C89.852 101.093 89.634 101.665 89.432 102.236C88.509 104.719 87.872 107.281 88.259 109.776C88.482 111.371 89.108 112.882 89.937 114.279L90.603 115.367C90.859 115.799 91.025 116.216 91.188 116.624C91.507 117.434 91.761 118.234 92.132 118.885C92.361 119.277 92.428 119.455 92.317 119.575C92.214 119.681 91.877 119.675 91.432 119.384C90.988 119.104 90.492 118.558 90.033 117.897C89.801 117.569 89.575 117.21 89.352 116.867C89.242 116.694 89.13 116.536 89.024 116.388C88.939 116.293 88.781 116.066 88.631 115.842C87.538 114.322 86.746 112.517 86.394 110.61C86.038 108.7 86.166 106.729 86.58 104.906C86.988 103.087 87.739 101.385 88.246 99.8483C88.315 99.6523 88.349 99.4793 88.405 99.2943L88.576 98.6243L88.953 97.3393C89.204 96.5043 89.44 95.6833 89.64 94.8603C89.909 93.7343 90.091 92.5723 90.019 91.4933C89.998 90.9473 89.86 90.4603 89.675 90.0403C89.549 89.8623 89.463 89.6463 89.291 89.5253C89.209 89.4623 89.162 89.3573 89.058 89.3173C88.932 89.2523 88.945 89.2513 88.91 89.2283C88.779 89.1383 88.611 89.2033 88.516 89.3153C88.516 89.3153 88.342 89.5203 88.253 89.6583C88.148 89.8243 88.04 89.9913 87.942 90.1793C87.542 90.9223 87.195 91.7533 86.853 92.5863C85.938 94.7513 85.243 97.0213 83.813 99.1933C83.417 99.7183 82.99 100.3 82.128 100.654C81.684 100.789 81.178 100.824 80.75 100.641C80.311 100.488 80.004 100.237 79.745 99.9903C78.703 98.8613 78.366 97.6263 78.112 96.3833C77.595 93.3263 77.984 90.3383 78.566 87.4393C78.849 86.0983 79.208 84.7773 79.668 83.4713C79.786 83.1463 79.91 82.8243 80.039 82.5093L80.341 81.7843C80.413 81.6123 80.486 81.4373 80.549 81.2583C80.587 81.0973 80.728 80.8513 80.546 80.7373C80.112 80.4243 79.573 80.7453 79.242 81.0643C79.145 81.1633 79.088 81.2053 78.962 81.3583C78.83 81.5073 78.7 81.6593 78.582 81.8243C78.335 82.1443 78.108 82.4873 77.899 82.8413C76.24 85.6823 75.401 88.9583 75.188 92.1743C75.15 92.8853 75.14 93.5783 75.17 94.2873C75.339 96.9033 75.507 97.7063 75.347 98.3933C75.313 98.5493 75.3 98.7473 75.253 98.8553C75.174 99.0363 74.977 98.8903 74.661 98.4463C74.361 98.0013 73.963 97.2373 73.702 96.1873C72.986 93.0453 73.364 89.7183 74.302 86.5833C74.781 85.0083 75.406 83.4633 76.276 81.9843C76.491 81.6133 76.731 81.2493 76.989 80.8893C77.127 80.7113 77.25 80.5303 77.401 80.3563L77.627 80.0933C77.707 79.9873 77.868 79.8343 78.01 79.7113C78.299 79.4493 78.582 79.1673 78.896 79.0013C79.203 78.7753 79.51 78.6643 79.817 78.5583C80.419 78.3933 81.012 78.3833 81.549 78.6213C81.766 78.7273 81.981 78.8443 82.196 78.9823C82.461 79.3663 82.684 79.5233 82.724 79.9053C82.799 80.2513 82.722 80.7373 82.536 81.2603C82.374 81.7573 82.115 82.3583 81.942 82.7933L81.633 83.5643C81.247 84.5553 80.94 85.6193 80.675 86.6863C80.149 88.8243 79.818 91.0303 79.784 93.1903L79.737 93.1953Z" fill="#231F20"/>
<path fill-rule="evenodd" clip-rule="evenodd" d="M69.8863 88.7198C69.8553 87.0458 69.9043 85.3638 70.1183 83.6728C70.1933 83.0568 70.2503 82.4298 70.3953 81.8118C70.5563 81.1268 70.7803 80.4398 71.0913 79.7688C71.2433 79.4338 71.4283 79.1018 71.6543 78.7858C71.8673 78.4708 72.1153 78.1798 72.5593 77.8068C72.6783 77.7118 72.8153 77.6558 72.9533 77.5988C73.0843 77.5208 73.2313 77.4968 73.3833 77.4908C73.6793 77.4778 73.9773 77.5478 74.2453 77.6818C74.5013 77.7978 74.7893 78.0218 74.9453 78.1838C75.1163 78.3528 75.2673 78.5288 75.3933 78.7138C76.0313 79.5858 76.3753 80.5548 76.5983 81.5258C76.8813 82.7668 76.9753 84.0898 76.5403 85.2848C76.4173 85.6598 76.0853 85.5338 75.7583 85.1738C75.5943 84.9938 75.4283 84.7578 75.2973 84.4938C75.1593 84.2298 75.0113 83.9398 75.0223 83.6358C74.9853 82.5818 74.7713 81.5608 74.4143 80.6588C74.2403 80.2138 74.0073 79.7938 73.7623 79.5028C73.6803 79.4008 73.7003 79.4128 73.6833 79.3858C73.6723 79.3648 73.6553 79.3428 73.6343 79.3238C73.5903 79.2788 73.5203 79.2648 73.4573 79.2888L73.4183 79.3028C73.3963 79.2888 73.2823 79.4178 73.1803 79.5138C73.0923 79.6338 72.9963 79.7478 72.9143 79.8798C72.7513 80.1478 72.6113 80.4448 72.4963 80.7628C72.2663 81.3988 72.1153 82.0928 71.9913 82.7938C71.7173 84.3388 71.6153 85.9548 71.6163 87.5728C71.6163 88.5688 71.6483 89.5708 71.7223 90.5688C71.8413 92.0808 71.9893 93.6058 72.2743 95.0888C72.4933 96.2418 72.8413 97.3448 73.1793 98.4498C73.2523 98.6938 73.3493 98.9248 73.4043 99.1758C73.6263 100.095 73.5923 100.415 73.2373 100.732C73.1563 100.803 73.0803 100.89 72.9963 100.944C72.7143 101.124 72.3333 100.822 72.0173 100.162C71.0903 98.2008 70.6523 95.9808 70.3013 93.7538C70.0523 92.0948 69.9143 90.4128 69.8423 88.7238L69.8863 88.7198Z" fill="#231F20"/>
<path fill-rule="evenodd" clip-rule="evenodd" d="M66.0694 94.5625C65.7474 93.4835 65.4564 92.3935 65.1984 91.2885C65.1014 90.8865 64.9684 90.4915 64.8904 90.0815C64.7604 89.3545 64.6614 88.6165 64.6254 87.8475C64.6164 87.4585 64.6264 87.0555 64.6884 86.6275C64.8004 86.1215 64.9494 85.7875 65.1764 85.4115C65.3504 85.0995 65.7214 84.6465 66.1494 84.4895C66.5944 84.3115 67.0984 84.4075 67.5214 84.6305C68.0384 84.9155 68.3224 85.1965 68.6394 85.5155C68.9444 85.8255 69.1674 86.1825 69.3414 86.5645C69.4484 86.8055 69.1804 86.9715 68.7834 87.0205C68.3974 87.0565 67.8214 87.0365 67.5274 86.7485C67.2654 86.5025 66.9734 86.2655 66.7874 86.1665C66.7874 86.1665 66.7884 86.1405 66.7634 86.1275C66.7484 86.1285 66.7404 86.1065 66.7014 86.1475C66.6324 86.2475 66.5504 86.3495 66.4774 86.5045C66.3774 86.6675 66.3754 86.7315 66.3144 86.8335C66.2934 86.9905 66.2374 87.1255 66.2254 87.3115C66.1264 88.1795 66.4164 89.1725 66.6284 90.1245C66.8664 91.1825 67.1464 92.2485 67.4624 93.3055C67.6584 93.9555 67.8614 94.6045 68.0844 95.2475C68.4274 96.2195 68.7654 97.2015 69.1914 98.1335C69.3614 98.5085 69.5404 98.8105 69.7534 99.2145C69.9654 99.6445 70.0894 100.091 70.1774 100.492L70.2934 100.986C70.3794 101.551 70.2674 101.645 69.9754 101.96L69.7814 102.173C69.5834 102.403 69.1244 102.261 68.8094 101.696C68.4164 100.877 68.3464 100.198 68.1094 99.8115C67.7964 99.2125 67.4614 98.4695 67.1814 97.7795C66.7514 96.7335 66.3884 95.6555 66.0294 94.5785L66.0694 94.5625Z" fill="#231F20"/>
<path fill-rule="evenodd" clip-rule="evenodd" d="M66.1547 104.189C67.7147 105.808 69.4887 107.278 71.2827 108.779C71.9357 109.329 72.6257 109.842 73.2697 110.418C75.5327 112.457 77.6787 114.642 79.5277 117.084C80.3477 118.165 81.1567 119.267 81.8637 120.423C82.7797 121.893 83.6147 123.486 83.9057 125.229C84.0057 125.77 83.6587 125.776 83.1877 125.457C82.7307 125.127 82.0917 124.524 81.6747 123.702C80.2807 120.719 78.1847 118.095 75.9727 115.487C74.6337 113.929 72.9767 112.554 71.3537 111.205C69.5647 109.714 67.7187 108.224 65.9757 106.583C64.9057 105.573 63.8927 104.474 62.9677 103.33C62.2727 102.452 61.6097 101.537 61.0537 100.533C60.7707 100.035 60.5327 99.5 60.3477 98.929C60.1897 98.419 60.0217 97.505 60.3687 96.849C60.6357 96.327 61.2237 96.053 61.7997 96.071C62.0927 96.047 62.3707 96.165 62.6337 96.305L63.0147 96.553L63.3047 96.772C64.0067 97.328 64.6137 97.89 65.2377 98.445C65.5087 98.689 65.7887 98.908 66.0467 99.16C67.0387 100.04 67.1587 100.438 67.2117 100.91C67.2197 101.02 67.2557 101.14 67.2527 101.234C67.2467 101.393 67.0997 101.457 66.7827 101.432C66.4767 101.4 66.0207 101.277 65.5607 100.99C64.8937 100.545 64.2837 100.054 63.7167 99.531C63.1567 99.031 62.5657 98.457 62.0827 98.072C61.9367 97.952 61.9587 97.979 61.9487 97.979C61.9407 97.98 61.9337 97.982 61.9287 97.988C61.9187 97.997 61.9177 98.008 61.9197 98.016C61.9267 98.04 61.9177 97.991 61.9377 98.062C61.9977 98.31 62.1037 98.603 62.2427 98.903C63.1077 100.716 64.6367 102.562 66.1847 104.154L66.1547 104.189Z" fill="#231F20"/>
<path fill-rule="evenodd" clip-rule="evenodd" d="M55.863 70.0881C56.259 69.7931 56.662 69.5051 57.075 69.2321C57.229 69.1351 57.356 69.0061 57.517 68.9181C58.069 68.5931 58.655 68.3221 59.235 68.0591C59.499 67.9531 59.746 67.8151 60.008 67.7111C60.335 67.5591 60.672 67.4041 61.048 67.3981C61.275 67.3841 61.216 68.2001 60.902 68.3841C60.611 68.5431 60.326 68.6981 60.026 68.8611C59.718 68.9881 59.411 69.1301 59.082 69.2471C58.691 69.3971 58.365 69.6881 58.018 69.9301C57.638 70.2021 57.243 70.4621 56.869 70.7541C56.636 70.9291 56.405 71.1111 56.181 71.3001C55.842 71.5881 55.5 71.8781 55.19 72.1961C54.943 72.4381 54.774 72.7501 54.529 72.9941C54.476 73.0491 54.43 73.1101 54.373 73.1611C54.155 73.3501 54.032 73.3571 53.824 73.2201C53.777 73.1891 53.727 73.1611 53.684 73.1261C53.542 73.0101 53.519 72.8151 53.607 72.6171C53.845 72.0051 54.259 71.5061 54.73 71.0441C55.08 70.7031 55.463 70.3851 55.843 70.0671L55.863 70.0881Z" fill="#231F20"/>
<path fill-rule="evenodd" clip-rule="evenodd" d="M80.3032 70.1765C78.5712 68.2585 76.7992 66.3735 74.9872 64.5275L72.9632 62.5475C70.6152 60.1905 68.2132 57.8845 65.7512 55.6455C64.6542 54.6575 63.5142 53.7065 62.3672 52.8005C61.6272 52.2225 60.8742 51.6575 60.1172 51.1105C59.3592 50.5825 58.6222 49.9565 57.8882 49.5285C57.6762 49.4065 57.6522 49.3435 57.6402 49.2245C57.6372 49.1315 57.7972 48.9945 58.1062 48.9795C58.7082 48.9415 59.7232 49.1765 60.6472 49.7945C63.8452 52.0745 66.7682 54.6115 69.5472 57.3595C71.2022 59.0075 73.0172 60.6185 74.7142 62.2955C76.5792 64.1395 78.4022 66.0275 80.1912 67.9455C81.2892 69.1285 82.3782 70.3215 83.4492 71.5275C85.0782 73.3505 86.6592 75.2305 88.2192 77.0905C89.4252 78.5405 90.6572 79.9285 91.8132 81.4025C92.0692 81.7265 92.3222 82.0425 92.5692 82.3775C93.4752 83.6265 93.5862 84.1485 93.5052 84.5965C93.4822 84.7015 93.4742 84.8255 93.4372 84.9025C93.3132 85.1595 92.7702 84.7725 92.0222 83.9415C89.8782 81.4255 87.7232 78.7125 85.4502 76.0565C83.7672 74.0825 82.0482 72.1175 80.2792 70.2035L80.3032 70.1765Z" fill="#231F20"/>
<path fill-rule="evenodd" clip-rule="evenodd" d="M36.4921 96.4986C38.6481 98.0786 40.7741 99.6966 42.8671 101.354C43.6311 101.96 44.4131 102.541 45.1681 103.156C47.8181 105.341 50.3941 107.616 52.8811 109.985C53.9741 111.048 55.1081 112.08 56.1661 113.165C57.5511 114.529 58.9111 115.949 60.0451 117.543C60.4021 118.037 60.1191 118.152 59.5671 117.945C59.0061 117.743 58.2091 117.207 57.4551 116.41C54.7821 113.573 51.9551 110.866 49.0631 108.154C47.3351 106.528 45.3751 105.02 43.4721 103.514C41.3831 101.853 39.2611 100.227 37.1031 98.6496C35.7731 97.6826 34.4371 96.7206 33.0791 95.7966C31.0081 94.4016 28.9551 92.9396 26.9411 91.4826C25.3731 90.3506 23.8111 89.2696 22.2961 88.0836C21.9661 87.8186 21.6261 87.5786 21.3121 87.2876C20.1211 86.2386 19.8651 85.7656 19.8421 85.3056C19.8391 85.1986 19.8171 85.0756 19.8351 84.9936C19.9011 84.7146 20.4971 85.0126 21.4271 85.6716C24.1331 87.6826 26.9621 89.8256 29.9031 91.8736C32.0701 93.3986 34.3071 94.8906 36.5101 96.4686L36.4921 96.4986Z" fill="#231F20"/>
<path fill-rule="evenodd" clip-rule="evenodd" d="M44.692 110.862C42.949 109.581 41.189 108.319 39.398 107.097C38.751 106.644 38.067 106.243 37.414 105.799C35.115 104.219 32.788 102.677 30.435 101.174C29.387 100.514 28.318 99.8734 27.262 99.2454C25.902 98.4374 24.515 97.6824 23.212 96.7534C22.804 96.4594 22.992 96.3044 23.47 96.3194C23.942 96.3364 24.733 96.5024 25.532 96.9394C26.948 97.7184 28.365 98.4984 29.75 99.3394C31.13 100.186 32.492 101.073 33.841 101.99C35.448 103.1 37.204 104.121 38.865 105.23C40.689 106.45 42.497 107.697 44.278 108.983C45.387 109.755 46.454 110.591 47.545 111.388C49.175 112.628 50.78 113.918 52.343 115.227C52.968 115.712 53.54 116.257 54.146 116.758C54.756 117.252 55.336 117.788 55.879 118.371C56.124 118.621 56.366 118.868 56.612 119.119C57.418 120.179 57.573 120.599 57.466 120.991C57.445 121.079 57.439 121.179 57.408 121.24C57.322 121.432 56.783 121.158 56.187 120.491C54.299 118.58 52.132 116.678 49.867 114.847L47.302 112.839L44.675 110.89L44.692 110.862Z" fill="#231F20"/>
<path fill-rule="evenodd" clip-rule="evenodd" d="M87.1146 120.212C86.4676 120.536 85.8066 120.813 85.1356 121.06C84.8896 121.149 84.6636 121.282 84.4106 121.354C83.5226 121.617 82.5926 121.777 81.6146 121.747C81.1816 121.726 80.7236 121.71 80.2446 121.521C79.9416 121.411 79.6186 121.184 79.4286 120.872C79.2256 120.561 79.1876 120.203 79.2476 119.906C79.2816 119.709 79.6046 119.767 79.9356 119.865C80.2576 119.977 80.6106 120.057 80.6646 120.077C80.7006 120.126 80.7436 120.108 80.8096 120.144C80.8926 120.164 81.0116 120.204 81.1856 120.211C81.5166 120.243 81.9476 120.224 82.4006 120.204C82.9536 120.187 83.4926 119.923 84.0316 119.716C84.6296 119.49 85.2276 119.234 85.8066 118.937C86.1596 118.751 86.5156 118.562 86.8476 118.339C87.3516 118.008 87.8596 117.661 88.2526 117.223C88.5546 116.884 88.7436 116.457 88.8606 116.09C88.8836 116.009 88.8826 115.926 88.9116 115.854C88.9836 115.597 89.0926 115.603 89.6046 115.592L89.9526 115.579C90.3346 115.556 90.6516 115.815 90.6296 116.256C90.5266 117.536 89.7386 118.362 88.9826 119.017C88.4046 119.503 87.7726 119.889 87.1386 120.249L87.1146 120.212Z" fill="#231F20"/>
<path fill-rule="evenodd" clip-rule="evenodd" d="M88.1324 121.374C88.1254 121.388 88.1194 121.407 88.1154 121.43C88.1154 121.454 88.1064 121.429 88.1164 121.51L88.1624 121.827C88.1934 122.052 88.2294 122.245 88.2524 122.563C88.2524 122.656 88.2714 122.714 88.2364 122.957C88.2154 123.042 88.2234 123.051 88.1684 123.193C88.0734 123.39 87.9674 123.545 87.7354 123.675C87.4854 123.846 86.9934 123.778 86.9964 123.749C86.8924 123.715 86.7904 123.666 86.7014 123.606C86.3864 123.351 86.4154 123.319 86.2664 123.142C85.9314 122.606 85.9314 122.255 85.8524 121.956C85.7914 121.649 85.7384 121.369 85.6714 121.133C85.6434 121.029 85.6084 120.936 85.5744 120.874C85.5654 120.786 85.4604 120.81 85.5654 120.736C85.7424 120.53 85.6904 120.521 85.6994 120.586C85.6924 120.637 85.6994 120.785 85.7344 120.84L85.6894 120.656L85.6734 120.611C85.6524 120.57 85.6484 120.562 85.6484 120.562C85.6154 120.521 85.6894 120.622 85.8764 120.694C85.8884 120.692 85.8584 120.732 85.8524 120.794C85.8294 120.918 85.8314 121.11 85.8494 121.308C85.8594 121.412 85.8684 121.5 85.8884 121.627L85.9984 122.199C86.0794 122.579 86.1664 122.958 86.2154 123.3C86.3134 124.01 86.2154 124.391 86.0494 124.742C86.0024 124.829 85.9344 124.931 85.8014 124.996C85.6714 125.057 85.5464 125.059 85.4354 125.045C85.2124 125.016 85.0214 124.928 84.8134 124.806C84.7854 124.795 84.7564 124.773 84.7274 124.756C84.3584 124.551 83.9034 124.083 83.4884 123.549C83.2954 123.305 83.0404 122.99 82.9134 122.871C82.8514 122.81 82.7824 122.746 82.7414 122.719C82.7284 122.709 82.7284 122.713 82.7224 122.707C82.7224 122.69 82.8034 122.574 82.8144 122.496C82.8724 122.365 82.8104 122.305 82.8534 122.357C82.8964 122.408 82.9574 122.426 83.0834 122.478C83.2444 122.514 83.1734 122.504 83.1884 122.52C83.1874 122.545 83.1834 122.589 83.1874 122.642C83.1924 122.743 83.2034 122.848 83.2274 122.955C83.2714 123.169 83.3464 123.389 83.4384 123.608C83.6354 124.041 83.8224 124.513 84.0584 124.979C84.1984 125.271 83.9864 125.394 83.5924 125.325C83.2164 125.248 82.5794 124.999 82.2234 124.362C82.0304 123.98 81.8664 123.557 81.7854 123.067C81.7564 122.799 81.7154 122.615 81.7844 122.19C81.8204 122.063 81.8404 121.913 82.0364 121.663C82.1234 121.551 82.3334 121.392 82.5114 121.342C82.6074 121.312 82.7104 121.294 82.8094 121.29C82.8984 121.287 82.9504 121.295 83.0234 121.306C83.5084 121.424 83.5634 121.554 83.7064 121.643C83.8174 121.735 83.9044 121.82 83.9814 121.898C84.0664 121.983 84.0414 121.964 84.0494 121.976L84.0554 122.006C84.0634 122.037 84.0744 122.065 84.1134 122.146C84.1414 122.182 84.1964 122.297 84.2894 122.342C84.3644 122.36 84.3864 122.342 84.4194 122.306C84.4464 122.27 84.4454 122.191 84.4364 122.098L84.3504 121.541C84.3104 121.156 84.2304 120.764 84.4114 120.176C84.4964 119.888 84.7864 119.509 85.1554 119.373C85.3344 119.292 85.5034 119.282 85.6794 119.266C85.8624 119.275 86.0864 119.3 86.2504 119.398C86.7514 119.669 86.9014 120.043 87.0274 120.313C87.1434 120.598 87.2014 120.852 87.2614 121.101L87.4044 121.795C87.4274 121.903 87.4514 122 87.4754 122.085C87.5004 122.166 87.5064 122.182 87.5334 122.232L87.6014 122.322C87.6014 122.322 87.6184 122.344 87.6094 122.334L87.6054 122.331L87.5474 122.393C87.5084 122.436 87.4724 122.482 87.4384 122.53C87.3654 122.65 87.3214 122.668 87.2974 122.733C87.2764 122.819 87.2684 122.817 87.2754 122.833C87.3014 122.743 86.4674 122.733 86.6954 122.713L86.6844 122.565L86.5704 121.78C86.4634 121.126 86.3834 120.388 86.4554 119.832C86.5274 119.264 86.6734 118.822 87.0344 118.469C87.1084 118.405 87.1914 118.348 87.2814 118.297C87.3764 118.245 87.4784 118.187 87.5284 118.233C87.6544 118.273 87.7714 118.325 87.8974 118.373C88.1034 118.619 88.3114 118.861 88.5264 119.138L89.1714 120.05C89.2754 120.194 89.3984 120.369 89.4904 120.479C89.5654 120.577 89.6414 120.659 89.7164 120.742C89.7884 120.814 89.8734 120.899 89.9274 120.929C89.9494 120.942 89.9984 120.979 89.9754 120.957C89.9644 120.965 89.9374 121.079 89.9444 121.144C89.9414 121.169 89.9324 121.157 89.9334 121.177C89.9334 121.183 89.9364 121.194 89.9404 121.2C89.9274 121.169 89.9114 121.142 89.8924 121.119C89.8584 121.074 89.7954 121.035 89.7634 121.033C89.7624 121.028 89.7714 120.982 89.7804 120.962C89.7874 120.9 89.8014 120.827 89.7864 120.744C89.7734 120.583 89.6824 120.379 89.5824 120.182C89.3674 119.775 89.0474 119.366 88.7564 118.868C88.6274 118.65 88.4864 118.416 88.3954 118.105C88.3084 117.819 88.2944 117.507 88.3604 117.237C88.4354 116.982 88.5614 116.754 88.6974 116.662C88.9674 116.427 89.1944 116.478 89.4034 116.592C89.4964 116.644 89.5924 116.691 89.6554 116.756C89.8654 116.953 89.6874 117.498 89.8224 117.532C89.8704 117.594 90.0164 117.926 90.2784 118.29C90.5254 118.664 90.8274 119.07 91.0894 119.643C91.2174 119.923 91.3404 120.276 91.3644 120.721C91.3724 120.942 91.3474 121.192 91.2744 121.445C91.2284 121.579 91.1724 121.711 91.1104 121.838C90.9754 122.039 90.7914 122.252 90.5334 122.385C90.2194 122.538 89.7934 122.554 89.6314 122.487C89.5194 122.46 89.4094 122.424 89.3064 122.38C89.2314 122.344 89.1864 122.313 89.1264 122.277C88.8694 122.121 88.7774 122.009 88.6284 121.877C88.5244 121.763 88.4024 121.639 88.3174 121.53L88.2484 121.446C88.2324 121.427 88.2474 121.444 88.2424 121.438V121.439C88.2424 121.439 88.2444 121.435 88.2394 121.416C88.2304 121.36 88.1804 121.357 88.1764 121.4L88.1324 121.374Z" fill="#231F20"/>
</svg>
