<svg width="148" height="148" viewBox="0 0 148 148" fill="none" xmlns="http://www.w3.org/2000/svg">
<path fill-rule="evenodd" clip-rule="evenodd" d="M80.6837 29.6819C79.0887 27.0719 79.6887 26.0549 84.5607 22.8849C89.4337 19.7159 84.4967 18.4399 84.4967 18.4399C78.8117 18.0099 75.1217 20.5929 73.4647 22.7769C71.8087 24.9609 74.5977 29.3569 74.5977 29.3569L80.6837 29.6819Z" fill="#221F1F"/>
<path fill-rule="evenodd" clip-rule="evenodd" d="M40.8904 59.8215C37.6684 64.8545 35.7464 70.6895 35.1324 76.6295L34.9734 78.2595C34.9294 78.8035 34.9694 79.3505 34.9624 79.8955C35.0004 80.9855 34.9104 82.0815 35.0684 83.1635C35.2644 87.0145 36.2584 90.7895 37.6294 94.3825C38.0174 95.2645 38.3054 96.1955 38.7754 97.0395L40.1214 99.6045C41.1664 101.225 42.1664 102.889 43.4374 104.353C44.4554 105.741 45.7354 106.905 46.9304 108.138C47.5594 108.722 48.2444 109.243 48.8974 109.796L49.8874 110.612C50.2304 110.865 50.5934 111.091 50.9444 111.331C54.5294 113.842 58.5654 115.689 62.7534 116.936C64.0434 117.376 63.7994 117.661 62.5864 117.642C61.9794 117.632 61.1274 117.545 60.1104 117.364C59.0864 117.202 57.9734 116.732 56.7574 116.254C48.2874 112.499 41.2514 105.598 37.4014 97.1255C35.0984 92.0775 33.6954 86.3575 33.6574 80.6805C33.6604 79.9015 33.6464 79.1215 33.6634 78.3425L33.8954 76.0165C33.9814 74.4565 34.3844 72.9435 34.6754 71.4155C34.8014 70.6445 35.0524 69.9065 35.2804 69.1625L35.9684 66.9335L36.8534 64.7755C37.1594 64.0615 37.4194 63.3265 37.8104 62.6525L39.1474 60.1145C39.6464 59.2995 40.1824 58.5075 40.6984 57.7025C41.1894 56.8805 41.8074 56.1485 42.3934 55.3955C42.9884 54.6485 43.5444 53.8705 44.2254 53.1975C48.1014 48.9065 52.8864 45.4255 58.1074 43.0485C62.1834 41.2415 66.4684 40.0755 70.8854 39.7165C71.3714 39.6705 71.8524 39.6245 72.3344 39.5785C72.8184 39.5705 73.3034 39.5815 73.7964 39.5875C74.7084 39.6115 75.4654 39.6315 76.1004 39.6485C76.7304 39.7295 77.2364 39.8215 77.6514 39.9045C78.4804 40.0745 78.9454 40.2475 79.3004 40.4715C79.4624 40.5745 79.6784 40.6835 79.7654 40.7765C80.0544 41.0915 78.5734 41.1275 76.0084 40.8885C68.3674 40.6475 60.2204 42.5955 53.4634 47.0805C48.3704 50.2585 44.1144 54.7435 40.9224 59.8325L40.8904 59.8215Z" fill="#221F1F"/>
<path fill-rule="evenodd" clip-rule="evenodd" d="M80.8007 43.1056C80.6997 42.9216 80.9407 42.8086 81.3917 42.7356C81.5347 42.7126 81.9567 42.7706 82.0097 42.8256C82.1147 42.9336 82.2147 43.0426 82.2817 43.1476C82.3227 43.2126 82.4057 44.1676 82.4507 44.4926C82.4937 44.8086 82.4687 45.1166 82.4327 45.4226C82.3577 46.0456 82.3037 46.6706 82.2317 47.2936C82.2167 47.4326 82.1797 47.5676 82.1247 47.7016C81.9357 48.1596 81.8697 48.6326 81.8457 49.1106C81.8427 49.1906 81.8207 49.2706 81.8757 49.3546C81.9677 49.4926 81.8077 50.7786 81.7367 50.9396C81.5597 51.3376 81.4317 51.7426 81.2817 52.1456C81.2607 52.2026 81.2777 52.2686 81.1957 52.3136C81.0027 52.4166 81.0167 52.5476 80.9877 52.6746C80.9467 52.8496 80.8977 53.0236 80.8167 53.1936C80.7767 53.2786 80.6657 53.3526 80.5747 53.4296C80.4927 53.4996 80.2337 53.4246 80.2087 53.3936C80.1357 53.3036 80.0037 53.3536 79.8927 53.3476C79.8547 53.3456 79.8067 53.3426 79.7777 53.3346C79.7117 53.3186 79.3747 52.2426 79.3907 52.1316C79.3947 52.1046 79.4237 50.5956 79.4077 50.4226C79.3997 50.3316 79.4517 50.2476 79.4877 50.1616C79.5047 50.1216 79.4887 48.9106 79.4977 48.8626C79.5457 48.6186 79.5047 48.3626 79.6917 48.1356C79.7277 48.0906 79.7247 48.0396 79.7277 47.9896C79.7477 47.5616 79.8577 47.1446 79.9457 46.7246C79.9907 46.5096 79.9917 46.2896 80.0177 46.0726C80.0227 46.0336 80.0517 45.9976 80.0667 45.9596C80.0857 45.9126 80.1137 45.8656 80.1177 45.8156C80.1557 45.2996 80.3047 44.7966 80.2867 44.2736C80.2827 44.1526 80.5427 43.6116 80.5317 43.4726C80.5247 43.3946 80.8417 43.1796 80.8007 43.1056" fill="#221F1F"/>
<path fill-rule="evenodd" clip-rule="evenodd" d="M114.079 84.0573C114.258 83.9543 114.369 84.1943 114.442 84.6433C114.465 84.7873 114.411 85.2093 114.357 85.2633C114.252 85.3693 114.146 85.4703 114.043 85.5373C113.981 85.5793 113.051 85.6723 112.733 85.7203C112.425 85.7663 112.125 85.7443 111.826 85.7113C111.219 85.6423 110.609 85.5943 110.001 85.5293C109.866 85.5153 109.733 85.4793 109.602 85.4263C109.156 85.2413 108.694 85.1803 108.227 85.1613C108.149 85.1583 108.072 85.1373 107.99 85.1933C107.855 85.2863 106.6 85.1393 106.444 85.0693C106.055 84.8973 105.659 84.7723 105.266 84.6273C105.21 84.6063 105.146 84.6243 105.102 84.5423C105 84.3503 104.872 84.3663 104.749 84.3383C104.578 84.2993 104.408 84.2513 104.242 84.1723C104.159 84.1333 104.086 84.0233 104.011 83.9333C103.943 83.8513 104.015 83.5923 104.045 83.5663C104.132 83.4923 104.083 83.3603 104.088 83.2503C104.09 83.2123 104.093 83.1633 104.1 83.1343C104.115 83.0693 105.163 82.7223 105.272 82.7363C105.299 82.7403 106.769 82.7543 106.938 82.7373C107.027 82.7273 107.109 82.7793 107.193 82.8133C107.232 82.8303 108.413 82.8023 108.459 82.8113C108.698 82.8563 108.948 82.8133 109.17 82.9973C109.213 83.0343 109.264 83.0303 109.312 83.0323C109.73 83.0483 110.137 83.1543 110.547 83.2383C110.756 83.2813 110.971 83.2803 111.183 83.3043C111.221 83.3083 111.256 83.3373 111.293 83.3513C111.339 83.3703 111.385 83.3973 111.433 83.4013C111.937 83.4343 112.428 83.5783 112.938 83.5553C113.056 83.5493 113.584 83.8043 113.72 83.7913C113.797 83.7843 114.007 84.0983 114.079 84.0573" fill="#221F1F"/>
<path fill-rule="evenodd" clip-rule="evenodd" d="M37.1435 74.7303C36.9735 74.8343 36.8685 74.5963 36.7995 74.1473C36.7775 74.0043 36.8305 73.5823 36.8815 73.5273C36.9815 73.4213 37.0815 73.3193 37.1795 73.2503C37.2395 73.2083 38.1235 73.1063 38.4255 73.0553C38.7175 73.0063 39.0025 73.0243 39.2865 73.0553C39.8645 73.1183 40.4435 73.1603 41.0215 73.2193C41.1495 73.2323 41.2755 73.2663 41.3995 73.3183C41.8245 73.4993 42.2625 73.5553 42.7065 73.5693C42.7805 73.5723 42.8535 73.5923 42.9315 73.5353C43.0605 73.4413 44.2525 73.5763 44.4015 73.6443C44.7705 73.8133 45.1465 73.9333 45.5195 74.0743C45.5725 74.0943 45.6335 74.0763 45.6755 74.1583C45.7715 74.3483 45.8935 74.3323 46.0105 74.3583C46.1735 74.3953 46.3355 74.4413 46.4925 74.5193C46.5705 74.5573 46.6405 74.6673 46.7115 74.7553C46.7765 74.8363 46.7075 75.0963 46.6795 75.1223C46.5965 75.1973 46.6425 75.3293 46.6375 75.4393C46.6355 75.4773 46.6335 75.5253 46.6265 75.5553C46.6115 75.6203 45.6145 75.9773 45.5115 75.9643C45.4865 75.9613 44.0885 75.9603 43.9275 75.9803C43.8435 75.9903 43.7655 75.9393 43.6855 75.9053C43.6485 75.8893 42.5265 75.9293 42.4825 75.9203C42.2555 75.8773 42.0185 75.9233 41.8085 75.7413C41.7665 75.7053 41.7185 75.7093 41.6725 75.7083C41.2755 75.6953 40.8885 75.5943 40.4995 75.5143C40.3005 75.4733 40.0965 75.4763 39.8955 75.4553C39.8595 75.4513 39.8255 75.4223 39.7905 75.4083C39.7465 75.3903 39.7035 75.3633 39.6575 75.3603C39.1785 75.3323 38.7125 75.1933 38.2275 75.2213C38.1155 75.2273 37.6135 74.9783 37.4845 74.9923C37.4115 75.0003 37.2115 74.6883 37.1435 74.7303" fill="#221F1F"/>
<path fill-rule="evenodd" clip-rule="evenodd" d="M70.1061 118.884C70.2101 119.05 69.9721 119.151 69.5241 119.214C69.3811 119.234 68.9591 119.181 68.9041 119.131C68.7971 119.033 68.6961 118.935 68.6271 118.84C68.5851 118.781 68.4831 117.923 68.4321 117.63C68.3821 117.345 68.4011 117.069 68.4321 116.793C68.4951 116.234 68.5361 115.672 68.5951 115.111C68.6091 114.987 68.6421 114.864 68.6951 114.745C68.8751 114.334 68.9311 113.909 68.9461 113.479C68.9481 113.407 68.9681 113.336 68.9111 113.259C68.8171 113.134 68.9521 111.978 69.0201 111.834C69.1881 111.477 69.3081 111.113 69.4501 110.752C69.4701 110.7 69.4521 110.641 69.5341 110.601C69.7231 110.509 69.7071 110.391 69.7331 110.277C69.7711 110.119 69.8171 109.963 69.8941 109.81C69.9321 109.735 70.0421 109.668 70.1311 109.599C70.2111 109.537 70.4711 109.606 70.4971 109.634C70.5721 109.715 70.7041 109.671 70.8141 109.676C70.8511 109.678 70.9001 109.681 70.9291 109.687C70.9951 109.702 71.3521 110.672 71.3391 110.772C71.3351 110.796 71.3361 112.153 71.3551 112.309C71.3651 112.39 71.3141 112.466 71.2811 112.543C71.2651 112.579 71.3041 113.669 71.2951 113.711C71.2521 113.931 71.2981 114.161 71.1161 114.364C71.0811 114.405 71.0851 114.45 71.0831 114.495C71.0711 114.881 70.9701 115.255 70.8901 115.633C70.8491 115.825 70.8521 116.023 70.8301 116.218C70.8261 116.253 70.7981 116.286 70.7841 116.32C70.7661 116.363 70.7381 116.405 70.7361 116.449C70.7081 116.913 70.5691 117.365 70.5971 117.835C70.6031 117.944 70.3541 118.429 70.3681 118.555C70.3761 118.625 70.0641 118.818 70.1061 118.884" fill="#221F1F"/>
<path fill-rule="evenodd" clip-rule="evenodd" d="M114.812 81.5084C114.818 81.3594 114.818 81.2134 114.814 81.0704C114.825 80.3084 114.709 79.5344 114.669 78.7664C114.206 68.7974 109.758 59.1034 102.562 52.1954C98.9801 48.7324 94.7481 45.9324 90.1331 44.0334C85.5181 42.1344 80.5461 41.1414 75.5691 41.0634C65.5951 40.8494 55.6171 44.6014 48.2361 51.3054C44.5351 54.6374 41.4621 58.6684 39.2391 63.1294C37.0101 67.5874 35.6431 72.4694 35.1921 77.4334C34.7711 82.4014 35.2861 87.4464 36.7121 92.2224C38.1341 96.9994 40.4661 101.499 43.5401 105.419C49.6561 113.295 58.8391 118.708 68.7011 120.214C73.6171 120.992 78.6851 120.87 83.5571 119.793C88.4321 118.731 93.0851 116.698 97.2101 113.904C105.489 108.337 111.541 99.5524 113.712 89.8124C113.876 89.1134 114.109 88.4044 114.226 87.7044C114.257 87.5584 114.283 87.4074 114.305 87.2534C114.527 85.6654 114.159 84.3374 113.488 84.2864C112.816 84.2364 112.102 85.3904 111.897 86.8654C111.878 87.0044 111.864 87.1414 111.855 87.2764C111.84 88.0004 111.648 88.7104 111.484 89.4174L110.942 91.6444L110.18 93.8054C109.737 95.2724 108.992 96.6154 108.367 98.0084C104.251 106.042 97.1501 112.485 88.7601 115.806C84.5731 117.473 80.0851 118.4 75.5711 118.476C71.0561 118.518 66.5391 117.776 62.2931 116.267C53.7871 113.272 46.4481 107.084 42.0571 99.1864C39.8671 95.2404 38.3971 90.9004 37.7461 86.4404C37.0911 81.9814 37.2451 77.4054 38.1641 72.9904C39.9481 64.1244 45.2541 56.0984 52.4921 50.7344C59.7211 45.3324 68.9231 42.6554 77.9331 43.4094C86.9371 44.1524 95.6011 48.2154 101.874 54.7184C105.017 57.9524 107.587 61.7484 109.395 65.8844C111.186 70.0284 112.214 74.4924 112.421 78.9954C112.459 79.6724 112.513 80.3704 112.406 81.0374C112.391 81.1774 112.379 81.3214 112.374 81.4674C112.317 82.9564 112.818 84.2184 113.488 84.2864C114.158 84.3544 114.752 83.1104 114.812 81.5084" fill="#232020"/>
<path fill-rule="evenodd" clip-rule="evenodd" d="M44.4557 42.515C41.4427 44.926 38.7607 47.744 36.3997 50.806C35.7817 51.551 35.2317 52.348 34.6907 53.152C34.1437 53.951 33.5697 54.735 33.1247 55.592C32.1937 57.28 31.1307 58.906 30.4397 60.716C27.2967 67.751 25.7687 75.582 26.4097 83.316C26.7987 88.954 28.1947 94.53 30.5177 99.683C32.5867 104.22 35.3157 108.442 38.6067 112.195C41.9207 115.945 45.9297 118.998 50.2027 121.592C54.5467 124.086 59.2407 125.993 64.1287 127.126C69.0197 128.224 74.0787 128.652 79.0907 128.256C87.9797 127.561 96.7407 124.406 103.899 119.204C106.221 117.567 108.369 115.686 110.335 113.64C112.326 111.615 114.096 109.379 115.664 107.018C118.835 102.312 121.078 97.018 122.446 91.515C123.219 88.076 123.777 88.586 123.789 91.74C123.768 93.31 123.512 95.537 122.816 98.156C122.076 100.749 120.955 103.769 119.135 106.718C112.797 117.249 102.368 125.086 90.6667 128.619C87.7367 129.496 84.7357 130.118 81.7047 130.514C78.6657 130.868 75.6017 130.948 72.5467 130.807C69.4937 130.605 66.4607 130.162 63.4817 129.469C60.5227 128.707 57.5957 127.792 54.8057 126.541C48.1257 123.618 41.8637 119.285 36.8077 113.75C31.7347 108.225 28.0507 101.434 25.9397 94.291C21.0487 78.569 24.8747 60.581 35.4147 48.079C41.7207 40.241 50.4387 34.403 60.0247 31.458C67.2957 29.247 75.0667 28.692 82.5747 29.82C90.0857 30.945 97.2997 33.819 103.511 38.077C105.961 39.689 108.147 41.637 110.267 43.623C111.251 44.69 112.322 45.682 113.218 46.825L114.611 48.495L115.892 50.251C119.285 54.953 121.809 60.245 123.469 65.814C124.19 68.27 124.773 70.716 125.142 73.278C125.789 78.031 125.672 81.219 125.455 83.419C125.348 84.523 125.188 85.384 124.999 86.089C124.827 86.796 124.623 87.347 124.377 87.825C124.161 88.262 123.924 88.839 123.736 89.077C123.002 89.867 123.565 86.075 123.284 79.367C122.801 69.435 119.492 59.342 113.393 51.063C111.908 48.968 110.169 47.061 108.368 45.219C106.486 43.461 104.551 41.736 102.396 40.294C98.1707 37.296 93.3877 35.087 88.3907 33.631C80.9567 31.494 72.9857 31.166 65.3747 32.703C57.7597 34.224 50.5337 37.637 44.5097 42.551L44.4557 42.515Z" fill="#221F1F"/>
<path fill-rule="evenodd" clip-rule="evenodd" d="M75.6993 83.0145C75.4243 83.0325 75.3223 82.7465 75.3193 82.2715C75.3183 82.1195 75.4883 81.7295 75.5763 81.7015C75.7493 81.6455 75.9203 81.5955 76.0813 81.5765C76.1793 81.5635 77.5153 81.9055 77.9753 82.0095C78.4203 82.1075 78.8393 82.2705 79.2533 82.4465L81.7843 83.5035C81.9713 83.5835 82.1503 83.6825 82.3203 83.8005C82.9053 84.2005 83.5383 84.4895 84.1893 84.7435C84.2973 84.7855 84.4023 84.8445 84.5313 84.8315C84.7433 84.8065 86.4703 85.6025 86.6703 85.7575C87.1703 86.1395 87.6903 86.4685 88.1973 86.8425C88.2683 86.8945 88.3643 86.9155 88.4013 87.0195C88.4853 87.2605 88.6673 87.3235 88.8303 87.4295C89.0573 87.5785 89.2773 87.7165 89.4833 87.9205C89.5843 88.0165 89.6453 88.1735 89.7113 88.3095C89.7723 88.4325 89.5673 88.6185 89.5173 88.6215C89.3723 88.6305 89.3833 88.7845 89.3303 88.8815C89.3133 88.9145 89.2893 88.9575 89.2683 88.9795C89.2273 89.0135 87.7733 88.7165 87.6173 88.6555C87.6083 88.6515 87.4793 88.5975 87.2853 88.5145C87.0923 88.4355 86.8333 88.3295 86.5683 88.2215C86.0363 88.0095 85.4733 87.7965 85.3533 87.7635C85.2303 87.7255 85.1303 87.6345 85.0243 87.5565C84.9773 87.5165 83.3343 86.9495 83.2723 86.9195C82.9513 86.7565 82.5943 86.6765 82.3313 86.3865C82.2803 86.3285 82.2093 86.3075 82.1413 86.2825C81.5633 86.0625 81.0213 85.7605 80.4673 85.4825C80.1853 85.3395 79.8853 85.2365 79.5943 85.1125C79.5413 85.0905 79.4983 85.0455 79.4503 85.0135C79.3893 84.9725 79.3323 84.9245 79.2653 84.8985C78.5683 84.6255 77.9113 84.2535 77.1893 84.0375C77.0243 83.9875 76.3393 83.4915 76.1443 83.4405C76.0353 83.4125 75.8093 83.0075 75.6993 83.0145" fill="#221F1F"/>
<path fill-rule="evenodd" clip-rule="evenodd" d="M76.462 78.9948C76.542 79.2638 76.285 79.4328 75.823 79.5478C75.675 79.5838 75.256 79.5078 75.21 79.4268C75.116 79.2678 75.029 79.1108 74.974 78.9548C74.94 78.8598 74.973 77.4528 74.97 76.9728C74.967 76.5068 75.032 76.0528 75.11 75.5998L75.574 72.8378C75.611 72.6328 75.667 72.4328 75.743 72.2358C76.004 71.5608 76.141 70.8638 76.246 70.1568C76.262 70.0398 76.297 69.9228 76.255 69.7968C76.183 69.5918 76.575 67.6898 76.684 67.4538C76.947 66.8088 77.168 66.2688 77.406 65.6818C77.442 65.5988 77.442 65.4978 77.537 65.4368C77.76 65.2958 77.771 65.1038 77.844 64.9138C77.946 64.6508 78.035 64.4028 78.194 64.1458C78.274 64.0188 78.42 63.9228 78.543 63.8278C78.655 63.7408 78.871 63.9188 78.883 63.9668C78.917 64.1118 79.066 64.0728 79.17 64.1088C79.206 64.1208 79.251 64.1378 79.277 64.1548C79.312 64.1818 79.326 65.6598 79.306 65.8408C79.304 65.8498 79.278 65.9898 79.239 66.1998C79.205 66.4108 79.159 66.6908 79.112 66.9788C79.019 67.5548 78.942 68.1658 78.932 68.2908C78.923 68.4228 78.856 68.5428 78.804 68.6658C78.778 68.7238 78.587 70.4858 78.573 70.5558C78.486 70.9118 78.485 71.2858 78.263 71.6148C78.219 71.6798 78.214 71.7548 78.205 71.8278C78.118 72.4528 77.946 73.0628 77.798 73.6788C77.722 73.9928 77.69 74.3148 77.634 74.6328C77.624 74.6898 77.59 74.7438 77.569 74.7988C77.544 74.8688 77.509 74.9368 77.499 75.0098C77.389 75.7668 77.173 76.5058 77.125 77.2738C77.113 77.4508 76.784 78.2468 76.778 78.4528C76.775 78.5668 76.43 78.8878 76.462 78.9948" fill="#221F1F"/>
<path fill-rule="evenodd" clip-rule="evenodd" d="M77.2332 82.5438C77.0602 82.8488 76.7212 82.3098 76.4232 82.6108C74.2492 84.8148 71.3442 79.7598 74.1022 78.5218C75.6122 77.8438 78.6032 80.1438 77.2332 82.5438" fill="#231F20"/>
<path fill-rule="evenodd" clip-rule="evenodd" d="M73.6461 84.887C72.3281 84.241 71.4261 83.119 71.0321 81.801C70.8901 81.323 70.7601 80.813 70.8011 80.288C70.8851 79.354 71.3191 78.495 71.8911 77.898C72.4631 77.289 73.1521 76.871 73.8931 76.615C74.5491 76.392 75.2491 76.228 76.0061 76.284C76.4841 76.337 77.0121 76.43 77.4491 76.726C77.9011 76.99 78.2361 77.426 78.3621 77.893C78.4561 78.198 77.8291 78.411 77.2001 78.602C76.9001 78.7 76.6001 78.797 76.3571 78.876C76.1141 78.984 75.9861 79.042 75.9391 79.024C75.7981 78.956 75.6231 78.866 75.2341 78.869C74.8611 78.886 74.3921 78.996 73.9391 79.206C73.6691 79.333 73.4661 79.567 73.3801 79.814C73.2791 80.058 73.2541 80.304 73.2651 80.581C73.2761 81.183 73.6281 81.895 74.1921 82.343C74.5331 82.628 74.9541 82.797 75.3731 82.826C75.9071 82.868 76.7371 82.458 77.2261 81.891C77.6111 81.44 77.7491 80.81 77.6581 80.457C77.6331 80.382 77.6021 80.313 77.5701 80.268C77.5001 80.096 77.6071 80.001 78.0881 79.509L78.4061 79.163C78.5891 78.974 78.7951 78.859 79.0351 78.872C79.2711 78.887 79.5581 79.015 79.7451 79.338C80.0521 79.797 80.1661 80.386 80.1571 80.925C80.1301 81.454 80.0001 81.97 79.7921 82.391C79.3821 83.264 78.7671 83.929 78.0171 84.452C77.4551 84.837 76.8221 85.162 75.9721 85.296C75.5011 85.356 75.0981 85.339 74.7201 85.273C74.3361 85.206 73.9641 85.098 73.6241 84.946L73.6461 84.887Z" fill="#221F1F"/>
<path fill-rule="evenodd" clip-rule="evenodd" d="M88.6388 20.5114C86.9078 19.8504 85.0028 19.4734 83.0998 19.4334C82.7538 19.4344 82.4058 19.4434 82.0608 19.4684C81.7188 19.5104 81.3768 19.5514 81.0318 19.5704C79.8278 19.6934 78.6388 19.9294 77.5348 20.3544C76.4438 20.7904 75.4648 21.4474 74.7858 22.3304C74.2038 23.1204 73.8458 24.0974 73.9198 25.1134C73.9678 26.4194 74.4698 27.6634 74.8008 29.0384C74.8838 29.4694 74.2868 29.7174 73.5598 29.5994C73.1968 29.5394 72.7988 29.3854 72.4418 29.1244C72.2648 28.9944 72.0968 28.8394 71.9528 28.6584C71.8288 28.4644 71.7278 28.2444 71.6618 28.0034C71.1688 26.3464 71.0238 24.3374 71.7998 22.4934C72.5548 20.6454 74.1078 19.3134 75.6998 18.6114C77.6098 17.7634 79.5948 17.1764 81.5988 17.0404C83.7938 16.8934 85.9738 17.1534 88.0658 17.7324C89.3598 18.0654 90.6028 18.6004 91.7898 19.2354C93.5498 20.2374 95.2428 21.6664 96.0858 23.6644C96.7678 25.1824 96.9458 26.9254 96.6158 28.5534C96.5188 28.8974 96.4448 29.2444 96.3298 29.5914C96.1408 30.2504 95.8458 30.5794 95.6168 30.8034C95.3688 31.0134 95.1058 31.0614 94.7548 31.0094C94.5958 30.9854 94.4288 30.9764 94.2818 30.9274C93.7908 30.7544 93.6408 30.1144 93.8758 29.3504C94.1428 28.1974 94.3938 27.0744 94.2298 26.0734C94.1028 25.0734 93.7068 24.1714 93.0098 23.3544C92.0078 22.1214 90.3598 21.1894 88.6218 20.5714L88.6388 20.5114Z" fill="#221F1F"/>
<path fill-rule="evenodd" clip-rule="evenodd" d="M25.207 90.5181C25.5 92.5611 26.152 94.5181 26.709 96.5001L26.927 97.2421L27.211 97.9591L27.779 99.3951L28.347 100.832L28.63 101.551L28.979 102.24C29.929 104.067 30.792 105.946 31.983 107.635C32.56 108.488 33.056 109.4 33.698 110.206L35.622 112.627L36.325 113.511L37.113 114.318L38.698 115.925C39.707 117.048 40.927 117.938 42.067 118.917C50.26 125.644 60.708 129.651 71.343 130.164C76.064 130.397 80.845 129.91 85.395 128.781C88.336 128.107 91.166 127.019 93.94 125.847L95.978 124.864L96.996 124.373L97.98 123.817L99.956 122.718L101.859 121.501C103.442 120.497 103.448 120.906 102.297 122.079C101.708 122.644 100.888 123.499 99.716 124.264C99.141 124.664 98.505 125.085 97.82 125.519C97.125 125.935 96.35 126.302 95.55 126.697C89.848 129.454 83.594 130.979 77.287 131.454C70.966 131.915 64.568 131.06 58.515 129.163C51.32 126.808 44.191 123 38.543 117.637L36.306 115.347C35.943 114.956 35.54 114.602 35.21 114.182L34.213 112.931C33.555 112.092 32.872 111.27 32.235 110.416L30.502 107.728C30.216 107.278 29.918 106.835 29.644 106.38L28.913 104.957L27.455 102.113L26.276 99.1431L25.687 97.6581L25.24 96.1241L24.694 94.2361C24.519 93.6051 24.304 92.9841 24.209 92.3341L23.485 88.4711C23.219 85.8681 22.909 83.2611 23.025 80.6411C22.955 78.6551 23.248 76.6861 23.446 74.7131C23.508 73.7201 23.757 72.7561 23.952 71.7841L24.56 68.8721L25.455 66.0391C25.764 65.1001 26.008 64.1371 26.442 63.2461C27.254 61.4471 27.912 59.5761 28.954 57.9001C30.385 55.1971 32.001 52.6331 33.872 50.2591C35.724 47.8761 37.753 45.6331 40.003 43.6011C40.983 42.6951 41.986 41.8571 43.049 41.0291C45.031 39.5081 46.454 38.6661 47.463 38.1091C48.489 37.5751 49.121 37.3431 49.676 37.2521C49.927 37.2081 50.246 37.1271 50.406 37.1321C50.963 37.1811 49.24 38.2181 46.309 40.2441C41.968 43.2681 38.01 47.0521 34.661 51.4051C33.836 52.5031 33.026 53.6181 32.275 54.7781C31.483 55.9151 30.888 57.1661 30.191 58.3631C29.857 58.9691 29.507 59.5681 29.185 60.1811L28.364 62.0941C27.827 63.3741 27.209 64.6261 26.854 65.9761L25.924 68.9341C25.658 69.9321 25.492 70.9561 25.269 71.9671C24.754 73.9791 24.676 76.0621 24.425 78.1191C24.253 82.2521 24.353 86.4401 25.238 90.5021L25.207 90.5181Z" fill="#221F1F"/>
</svg>
