<svg width="148" height="148" viewBox="0 0 148 148" fill="none" xmlns="http://www.w3.org/2000/svg">
<path fill-rule="evenodd" clip-rule="evenodd" d="M23.7082 96.327C23.9172 96.035 24.1192 95.744 24.2822 95.474C24.3622 95.342 24.4372 95.208 24.4782 95.117L24.5172 95.032C24.5652 95.058 24.8582 95.104 24.9922 95.113C25.0522 95.127 25.1142 95.133 25.1792 95.132L25.2752 95.125L25.3242 95.118L25.3302 95.117C25.3502 95.114 25.1822 95.133 25.2552 95.125L25.2642 95.126L25.2812 95.127C25.5012 95.137 25.6162 94.95 25.5262 95.085C25.4882 95.163 25.4692 95.478 25.5532 95.844C25.5632 95.89 25.5782 95.918 25.5892 95.977L25.6042 96.057L25.6022 96.058L25.5892 96.061C25.5892 96.061 25.5662 96.064 25.5392 96.076C25.4962 96.089 25.4392 96.111 25.3742 96.142C25.1192 96.257 24.8122 96.434 24.5122 96.62L24.0552 96.91L23.4312 97.333L21.7642 98.502C21.2202 98.871 20.6662 99.249 20.2042 99.478C19.7402 99.711 19.3592 99.826 19.0692 99.853L18.4582 99.883C18.3222 99.871 18.1912 99.855 18.0262 99.796C17.8532 99.744 17.6232 99.54 17.4992 99.358C17.2452 98.974 17.2732 98.677 17.2822 98.348C17.3252 97.957 17.4542 97.507 17.7412 96.945C18.0022 96.398 18.5002 95.718 18.9812 95.074L20.4332 93.248L21.3432 92.12C21.9342 91.366 22.5042 90.603 22.9812 89.819C23.4432 89.052 23.8522 88.181 23.8162 87.546C23.8152 87.373 23.7612 87.247 23.7082 87.12L23.5282 86.694L24.1852 86.8C24.2212 86.806 24.2662 86.785 24.2802 86.738C24.2672 86.745 24.2662 86.814 24.2962 86.828C24.3322 87.008 24.5232 87.192 24.6302 87.319C24.6182 87.33 24.5782 87.369 24.5292 87.43C24.4372 87.541 24.3342 87.683 24.2342 87.826L23.6272 88.732C23.2192 89.35 22.8042 89.975 22.3562 90.584C21.6702 91.502 20.9422 92.436 19.9072 93.189C19.3882 93.556 18.7662 93.88 18.0322 93.983C17.3022 94.097 16.4932 93.904 15.9202 93.503C15.2112 92.958 15.7732 92.663 16.4722 92.486C16.8312 92.369 17.1992 92.23 17.4612 92.033C17.7282 91.837 17.9492 91.64 18.3312 91.418C19.1512 90.929 19.9972 89.96 20.7592 88.963C21.1462 88.455 21.5212 87.924 21.9092 87.37L22.5212 86.514C22.6352 86.361 22.7432 86.214 22.9112 86.021C22.9752 85.944 23.1102 85.803 23.2572 85.676C23.3262 85.62 23.4262 85.551 23.5172 85.499L23.6602 85.424L23.7372 85.389C23.8092 85.363 23.8882 85.34 23.9712 85.324C24.3062 85.254 24.6972 85.31 24.9452 85.453C25.2232 85.598 25.4832 85.882 25.6042 86.148L25.5262 86.002C25.9782 86.757 25.9972 87.605 25.8852 88.216C25.7732 88.848 25.5632 89.369 25.3342 89.848C24.8632 90.788 24.2982 91.576 23.7132 92.328C23.0232 93.191 22.3252 94.065 21.6212 94.946C21.4812 95.124 21.3482 95.303 21.2222 95.49C21.1132 95.677 20.9372 95.875 20.9532 96.135C21.0022 96.295 21.1622 96.256 21.2572 96.204C21.6112 96.038 21.9732 95.78 22.4122 95.502L23.0032 95.114C23.2902 94.926 23.5862 94.741 23.8982 94.561C24.2202 94.383 24.5202 94.205 24.9912 94.06C25.0982 94.024 25.2632 93.994 25.4342 93.981C25.5432 93.978 25.6762 93.993 25.7922 94.016C25.9462 94.06 26.1282 94.144 26.2552 94.264C26.5532 94.558 26.5882 94.843 26.6062 95.049C26.6132 95.263 26.5812 95.408 26.5482 95.541C26.3382 96.214 26.0572 96.59 25.7852 97.022C25.5092 97.436 25.2252 97.825 24.9392 98.208C24.3782 98.961 23.7712 99.746 23.2772 100.44C23.1162 100.662 22.9532 100.894 22.8052 101.144C22.6822 101.388 22.4672 101.679 22.5792 101.968C22.7142 102.178 22.9672 102.304 23.2142 102.257C23.4582 102.219 23.6802 102.091 23.8882 101.951C24.0972 101.808 24.2902 101.64 24.4772 101.467L25.5832 100.406C26.1522 99.888 26.8082 99.482 27.4042 99.324C27.6912 99.245 28.0402 99.218 28.3162 99.442C28.5442 99.666 28.6272 99.91 28.7122 100.198C28.7932 100.483 28.8222 100.848 28.8222 101.247C28.8142 101.642 28.7812 102.117 28.7982 102.446C28.8202 102.724 28.8412 102.79 28.8882 102.897C28.9342 102.996 29.0082 103.081 29.1052 103.125C29.3122 103.191 29.3822 103.158 29.7642 103.072C30.4642 102.897 31.0002 102.678 31.3932 102.618C31.7932 102.559 32.0762 102.598 32.3752 102.774C32.5112 102.851 32.6732 102.915 32.7792 103.007C33.1262 103.305 32.6842 104.01 31.3962 104.661C30.9102 104.903 30.4132 105.104 29.7182 105.233C28.9342 105.369 27.8932 105.192 27.3282 104.484C27.0302 104.148 26.8462 103.715 26.7472 103.258C26.6922 103.007 26.6762 102.821 26.6622 102.65L26.6402 102.41C26.6192 102.367 26.6052 102.346 26.5892 102.337C26.5492 102.307 26.4892 102.41 26.4982 102.413C26.5142 102.402 26.4792 102.439 26.3702 102.548L26.0832 102.827L25.6632 103.219C24.8972 103.902 24.0642 104.473 23.3102 104.714C22.7282 104.906 22.2312 104.882 21.7192 104.758C21.2082 104.629 20.7412 104.256 20.3492 103.843C20.1362 103.473 19.9822 103.218 19.9592 102.867C19.9182 102.535 19.9582 102.149 20.1162 101.707C20.2512 101.274 20.5162 100.793 20.7932 100.325C20.9452 100.09 21.0852 99.852 21.2492 99.62L21.6442 99.051C22.3322 98.093 23.0402 97.19 23.6622 96.3L23.7082 96.327Z" fill="#221F1F"/>
<path fill-rule="evenodd" clip-rule="evenodd" d="M35.6639 107.154L27.7609 108.063L26.7709 108.172L26.1439 108.23C25.8049 108.255 25.6349 108.184 25.4529 108.175C24.7259 108.052 23.9939 108.039 23.2759 107.797C22.5539 107.604 21.8329 107.412 21.1489 107.066C20.8089 106.901 20.4469 106.783 20.1259 106.573L19.1609 105.956C17.9269 105.066 16.8169 103.958 16.0479 102.656C15.2389 101.383 14.6779 99.9768 14.3729 98.5388C14.0469 97.1038 13.9209 95.6348 14.0499 94.1648C14.0589 93.7978 14.1269 93.4288 14.1839 93.0618C14.2299 92.6938 14.3059 92.3258 14.4149 91.9588C14.5059 91.5908 14.6099 91.2238 14.7719 90.8568L15.0789 90.0918C15.2449 89.8758 15.5219 89.6878 15.7139 89.5058C18.6369 87.0158 21.4649 84.4068 24.3169 81.8218C34.3799 72.6998 44.2319 63.2998 54.1459 53.9688C58.5279 49.8058 62.9349 45.6198 67.2829 41.4898C72.9019 36.2138 78.4699 30.8008 84.8009 26.2578C86.7829 24.8458 86.9109 25.6158 85.7139 27.3828C85.1159 28.2648 84.1849 29.3788 83.0249 30.6928C82.4399 31.3418 81.7839 32.0158 81.0689 32.7128C80.3629 33.4248 79.5939 34.1538 78.7659 34.8798C67.0829 45.2738 55.7869 56.2148 44.0849 66.9138C37.0939 73.3228 30.0519 80.2498 22.8029 86.7398C21.8039 87.6298 20.8159 88.5288 19.7939 89.3978L18.2719 90.7108L17.5109 91.3658L17.2979 91.5488C17.2439 91.5798 17.2439 91.6508 17.2139 91.7078C16.8129 92.6808 16.6059 93.9478 16.5849 95.1458C16.5809 96.3648 16.7659 97.5838 17.0979 98.7508C17.4369 99.9198 18.0109 100.989 18.7009 101.957C19.4339 102.894 20.3339 103.684 21.3669 104.282C21.8899 104.565 22.4459 104.804 23.0089 105.017L23.8889 105.26C24.1789 105.353 24.4759 105.426 24.7869 105.451L25.7059 105.575C25.8609 105.592 26.0159 105.626 26.0669 105.618L26.4839 105.573L28.4679 105.35C34.9829 104.605 41.4979 103.806 47.9959 102.937C57.8379 101.616 67.7219 100.216 77.4229 98.4918C84.9599 97.1398 92.3109 95.5618 99.5929 93.6378C101.195 93.2108 102.745 92.7428 104.335 92.2618C107.28 91.3678 109.161 90.6858 110.458 90.2258C111.759 89.7598 112.488 89.5468 113.197 89.4278C113.351 89.3938 113.529 89.3398 113.703 89.2888C113.856 89.2238 114.011 89.1588 114.135 89.1328C114.345 89.0878 114.436 89.1838 114.368 89.4698C114.307 89.7608 114.049 90.2098 113.594 90.6548C112.688 91.5868 111.04 92.5418 108.862 93.4178C105.626 94.7048 102.29 95.6868 98.9059 96.5868C95.5199 97.4788 92.0809 98.2668 88.6089 98.9958C81.6639 100.451 74.5859 101.679 67.4829 102.807C56.9319 104.477 46.3029 105.895 35.6849 107.218L35.6639 107.154Z" fill="#221F1F"/>
<path fill-rule="evenodd" clip-rule="evenodd" d="M36.7027 105.19C34.2637 104.287 32.0627 102.763 30.1827 100.909C28.3167 99.0364 26.8507 96.7104 26.0147 94.1414C25.1777 91.5754 24.9847 88.7814 25.4517 86.1214C25.9107 83.4664 26.8457 80.8794 28.3257 78.6774C28.7677 77.9214 30.5987 79.0984 30.2427 79.7934L29.4087 81.4184C29.1827 81.9794 28.9757 82.5454 28.7227 83.0924C28.4457 83.6344 28.3357 84.2264 28.1307 84.7904C27.9207 85.3564 27.8067 85.9404 27.6987 86.5264C27.2437 88.8594 27.2377 91.2844 27.8597 93.5934C28.4657 95.9044 29.6687 98.0614 31.2627 99.9074C32.8447 101.782 34.8687 103.247 37.0197 104.523C37.9457 105.102 37.7897 105.562 36.7027 105.19" fill="#221F1F"/>
<path fill-rule="evenodd" clip-rule="evenodd" d="M102.776 36.2398C100.737 33.4828 98.4245 30.8438 95.7345 28.9788C95.0685 28.5058 94.3755 28.1408 93.6935 27.8368C93.0235 27.5848 92.3425 27.4548 91.9415 27.5398C91.7415 27.5828 91.6195 27.6318 91.5065 27.7588C91.4045 27.7888 91.2065 28.2288 91.0435 28.5108C90.8415 28.8008 90.7555 29.1788 90.6335 29.5328C90.5785 29.7128 90.5045 29.8848 90.4605 30.0718L90.3625 30.6548C89.9675 32.9348 90.3005 35.4468 90.7595 37.8938C91.1775 40.0648 91.7505 42.2358 92.4625 44.3738C93.1485 46.5178 93.9535 48.6358 94.8145 50.7338C96.5525 54.9238 98.5185 59.0378 100.689 63.0458C102.609 66.6048 104.737 70.0798 106.975 73.4058C108.421 75.5368 109.944 77.6188 111.515 79.6438C112.301 80.6548 113.095 81.6598 113.915 82.6178C114.724 83.5828 115.571 84.5388 116.435 85.2948C116.709 85.5588 116.857 85.6738 116.944 85.8288C117.029 85.9788 117.048 86.1218 116.99 86.2408C116.932 86.3598 116.796 86.4558 116.56 86.5098C116.326 86.5648 115.969 86.5748 115.596 86.4768C114.012 86.1408 111.66 84.5948 109.779 82.1888C106.425 77.9238 103.535 73.4168 100.832 68.7818C98.1565 64.1358 95.7155 59.3408 93.6275 54.3568C92.3825 51.3758 91.1375 48.3218 90.0625 45.1658C88.9975 42.0108 88.0765 38.7508 87.7085 35.3538C87.5575 33.4808 87.4725 31.5628 87.9215 29.6078C88.0245 29.1228 88.2155 28.6398 88.3645 28.1578C88.5025 27.6728 88.8215 27.2258 89.0495 26.7638C89.1155 26.6488 89.1705 26.5368 89.2445 26.4198L89.5725 26.0388C89.6885 25.9178 89.7945 25.7868 89.9235 25.6818L90.3555 25.4068C90.6445 25.2048 90.9555 25.1188 91.2715 25.0388C91.5925 24.9318 91.8865 24.9308 92.1855 24.9248C93.3635 24.9308 94.3795 25.2658 95.2585 25.7028C96.1655 26.1198 96.9635 26.6518 97.7375 27.2028C99.2645 28.3258 100.604 29.6188 101.857 30.9728C104.926 34.3248 107.392 38.1178 109.52 42.0518C112.723 48.0328 115.067 54.4548 116.764 60.9348C118.106 65.9688 119.154 70.9858 119.776 76.1128C119.898 77.2418 120.056 78.3458 120.153 79.4888C120.27 81.6278 120.371 82.9658 120.206 84.0528C120.048 85.0558 119.794 85.5688 119.444 86.0058C119.284 86.2048 119.137 86.4668 119.005 86.6248C118.791 86.9418 118.404 86.5158 118.23 85.7058C118.133 85.3028 118.068 84.7988 118.013 84.2248C117.967 83.6478 117.886 83.0638 117.797 82.2768C116.942 73.2898 115.315 63.9118 112.22 54.9588C109.919 48.3368 106.874 41.8848 102.728 36.2868L102.776 36.2398Z" fill="#221F1F"/>
<path fill-rule="evenodd" clip-rule="evenodd" d="M93.7006 48.6984C100.083 42.7444 108.639 59.2534 103.955 67.4494C102.388 70.1934 91.5006 50.7504 93.7006 48.6984" fill="#221F1F"/>
<path fill-rule="evenodd" clip-rule="evenodd" d="M123.993 59.2486C123.855 59.3236 123.765 59.1636 123.651 58.8556C123.616 58.7576 123.608 58.4616 123.651 58.4186C123.733 58.3356 123.821 58.2526 123.912 58.1946C123.968 58.1556 124.797 58.0366 125.072 57.9926C125.34 57.9486 125.605 57.9536 125.865 57.9746L127.444 58.0926C127.56 58.1016 127.673 58.1336 127.783 58.1846C128.16 58.3556 128.551 58.4226 128.949 58.4556C129.015 58.4606 129.08 58.4806 129.153 58.4346C129.273 58.3586 130.338 58.5296 130.466 58.6026C130.784 58.7946 131.111 58.9376 131.433 59.0976C131.479 59.1216 131.534 59.1156 131.566 59.1896C131.641 59.3596 131.749 59.3606 131.851 59.3976C131.994 59.4376 132.128 59.5316 132.26 59.6276C132.326 59.6726 132.381 59.7726 132.441 59.8426C132.495 59.9086 132.436 60.0356 132.41 60.0506C132.335 60.0876 132.375 60.1686 132.37 60.2286C132.368 60.2496 132.366 60.2766 132.36 60.2936C132.352 60.3146 132.118 60.4036 131.87 60.5106C131.625 60.6006 131.376 60.6576 131.329 60.6576C131.309 60.6576 130.098 60.6426 129.912 60.6406C129.838 60.6436 129.771 60.5936 129.703 60.5586C129.67 60.5416 128.677 60.5046 128.639 60.4956C128.441 60.4446 128.229 60.4696 128.052 60.2996C128.016 60.2656 127.974 60.2666 127.934 60.2636C127.584 60.2296 127.247 60.1266 126.909 60.0216C126.736 59.9716 126.558 59.9586 126.382 59.9246C126.351 59.9186 126.322 59.8936 126.292 59.8786C126.253 59.8606 126.216 59.8356 126.176 59.8306C125.759 59.7706 125.353 59.6346 124.934 59.6316C124.839 59.6296 124.402 59.4246 124.293 59.4376C124.232 59.4386 124.049 59.2156 123.993 59.2486" fill="#221F1F"/>
<path fill-rule="evenodd" clip-rule="evenodd" d="M56.8498 124.871C54.3638 125.834 51.5898 126.307 48.8888 125.967C47.9098 125.85 46.9237 125.718 45.9917 125.408C45.5857 125.261 45.1747 125.127 44.7847 124.949L44.1938 124.687L43.5608 124.338C42.7657 123.848 42.1137 123.298 41.5017 122.729C40.2847 121.591 39.2198 120.382 38.1788 119.162C37.2578 118.079 36.3178 117.016 35.3858 115.972C34.1908 114.633 32.9148 113.338 32.0088 111.815C31.4218 110.851 34.3148 110.254 35.6518 111.86C37.9918 114.642 40.1668 117.5 42.4718 120.172C43.1628 120.947 43.9747 121.666 44.7847 122.127C45.1427 122.332 45.6557 122.533 46.1447 122.698C46.6357 122.865 47.1317 123.008 47.6307 123.126C49.8217 123.671 52.1498 123.586 54.3848 122.937C55.7268 122.522 57.1917 121.978 58.2197 121.212C58.5977 120.909 58.9387 120.591 59.1227 120.177L59.2978 119.885C59.3448 119.785 59.3548 119.679 59.3878 119.578L59.4818 119.269L59.4797 118.948C59.4917 118.086 58.9748 117.153 58.2908 116.355C57.2168 115.09 55.7487 114.164 54.3267 113.142C54.0127 112.92 53.6787 112.706 53.3657 112.464C52.1967 111.545 51.9258 110.944 52.2598 110.243C52.3338 110.082 52.3978 109.91 52.4998 109.781C52.6728 109.561 52.9487 109.494 53.2507 109.53C53.5367 109.567 53.9118 109.712 54.3188 109.982C55.5818 110.784 56.9658 111.655 58.3078 112.751C58.9778 113.317 59.6478 113.909 60.2728 114.654C60.9028 115.359 61.4958 116.269 61.8768 117.387C61.9848 117.836 62.1388 118.253 62.1198 118.758C62.1248 119.002 62.1238 119.247 62.1168 119.489C62.0928 119.729 62.0217 119.965 61.9667 120.202C61.9017 120.434 61.8498 120.683 61.7558 120.893L61.4358 121.494C61.2268 121.896 60.9668 122.273 60.6628 122.588C59.4308 123.873 58.0807 124.409 56.8787 124.931L56.8498 124.871Z" fill="#221F1F"/>
<path fill-rule="evenodd" clip-rule="evenodd" d="M118.58 33.4612C118.467 33.7252 118.166 33.7412 117.754 33.6152C117.622 33.5752 117.365 33.3102 117.381 33.2182C117.412 33.0392 117.446 32.8612 117.502 32.7012C117.536 32.6042 118.433 31.4072 118.727 30.9872C119.016 30.5842 119.34 30.2172 119.687 29.8702C120.391 29.1652 121.095 28.4562 121.817 27.7652C121.978 27.6112 122.153 27.4732 122.34 27.3492C122.984 26.9272 123.55 26.4212 124.096 25.8912C124.186 25.8022 124.291 25.7252 124.34 25.5952C124.421 25.3802 125.968 24.0182 126.22 23.9062C126.815 23.5882 127.379 23.2332 127.954 22.8952C128.036 22.8472 128.1 22.7662 128.213 22.7702C128.479 22.7792 128.624 22.6362 128.794 22.5232C129.025 22.3582 129.286 22.2322 129.552 22.1122C129.684 22.0542 129.849 22.0382 129.998 22.0032C130.134 21.9732 130.201 22.1612 130.182 22.2072C130.124 22.3362 130.264 22.3442 130.324 22.3982C130.345 22.4172 130.371 22.4412 130.381 22.4632C130.393 22.5002 129.514 23.9772 129.373 24.0822C129.358 24.0962 128.928 24.5142 128.474 24.9552C128.025 25.3972 127.563 25.8642 127.475 25.9652C127.382 26.0712 127.246 26.1282 127.122 26.1982C127.06 26.2302 125.737 27.5632 125.681 27.6112C125.374 27.8492 125.131 28.1582 124.737 28.2952C124.659 28.3232 124.606 28.3822 124.551 28.4362C124.074 28.9012 123.541 29.3052 123.027 29.7312C122.766 29.9502 122.53 30.1972 122.284 30.4332C122.239 30.4762 122.178 30.5012 122.127 30.5362C122.061 30.5802 121.991 30.6182 121.935 30.6722C121.368 31.2472 120.726 31.7492 120.19 32.3592C120.066 32.4992 119.302 32.9952 119.165 33.1642C119.089 33.2572 118.625 33.3552 118.58 33.4612" fill="#221F1F"/>
<path fill-rule="evenodd" clip-rule="evenodd" d="M118.512 47.0119C118.416 47.1029 118.304 47.1309 118.174 47.1129C118.07 47.0959 117.934 47.0349 117.756 46.9599C117.644 46.9109 117.451 46.6779 117.505 46.5909C117.602 46.4289 117.744 46.2389 117.856 46.1289C117.938 46.0229 119.275 45.2969 119.724 45.0529C120.158 44.8189 120.612 44.6239 121.07 44.4549C121.997 44.0969 122.924 43.7499 123.862 43.4359C124.07 43.3649 124.283 43.3109 124.501 43.2749C125.25 43.1479 125.967 42.9239 126.673 42.6629C126.79 42.6189 126.915 42.5909 127.013 42.4979C127.174 42.3439 129.118 41.7249 129.384 41.6929C130.044 41.6099 130.691 41.4809 131.347 41.3859C131.441 41.3719 131.53 41.3229 131.633 41.3679C131.87 41.4739 132.056 41.3919 132.255 41.3479C132.531 41.2879 132.809 41.2369 133.095 41.2129C133.236 41.2019 133.394 41.2539 133.546 41.2869C133.683 41.3179 133.685 41.5699 133.651 41.6069C133.55 41.7159 133.68 41.7979 133.719 41.8909C133.732 41.9229 133.749 41.9649 133.751 41.9919C133.753 42.0509 132.333 42.9229 132.166 42.9759C132.128 42.9899 129.946 43.7869 129.666 43.8889C129.538 43.9449 129.392 43.9479 129.251 43.9649C129.184 43.9719 127.427 44.6439 127.354 44.6619C126.977 44.7589 126.623 44.9309 126.211 44.9079C126.129 44.9039 126.056 44.9349 125.983 44.9609C125.352 45.1819 124.698 45.3279 124.052 45.4989C123.72 45.5839 123.403 45.7099 123.078 45.8119C123.019 45.8299 122.954 45.8279 122.892 45.8369C122.815 45.8489 122.735 45.8539 122.661 45.8779C121.896 46.1329 121.106 46.3109 120.366 46.6229C120.198 46.6949 119.312 46.8409 119.132 46.9419C119.028 46.9929 118.584 46.9329 118.512 47.0119" fill="#221F1F"/>
</svg>
