<svg width="148" height="148" viewBox="0 0 148 148" fill="none" xmlns="http://www.w3.org/2000/svg">
<path fill-rule="evenodd" clip-rule="evenodd" d="M41.0382 84.7998C40.9172 79.9738 40.8472 75.1498 40.7882 70.3268C40.7682 68.5678 40.6832 66.8098 40.6772 65.0518C40.6512 58.8508 40.7042 52.6518 40.7462 46.4538L40.7382 42.3238L40.7152 40.2618L40.7032 39.2338C40.6902 39.0418 40.7132 38.8488 40.6702 38.6918C40.6032 38.6148 40.5052 38.5748 40.4172 38.5308L39.9872 38.3358L38.7702 37.7748C37.9522 37.3798 37.1372 36.9268 36.3712 36.3758C34.8452 35.2948 33.4942 33.7148 32.9612 31.8278C32.6632 30.6318 33.3032 30.7438 34.0992 31.3958C34.9292 32.0658 36.0822 32.9968 37.3882 34.0518C37.9882 34.5388 38.6642 34.9678 39.3872 35.3618C39.7492 35.5578 40.1232 35.7448 40.5142 35.9328C40.9302 36.1488 41.1792 36.2098 42.1032 36.7498C42.4622 36.9868 42.7762 37.2858 42.9072 37.6768L43.0172 38.8628C43.0702 39.3378 43.0402 39.4288 43.0462 39.6868L43.0412 40.3568L43.0172 43.0388C42.9792 46.6178 42.9142 50.2068 42.8082 53.8128C42.6822 58.1248 42.8592 62.6108 42.9142 67.0198C42.9762 71.8678 43.0452 76.7188 43.1642 81.5668C43.2332 84.5498 43.3252 87.5338 43.4422 90.5128C43.6302 95.0258 43.8302 99.5618 44.2342 104.023C44.5502 107.488 45.0352 110.875 45.6582 114.225C45.8102 114.957 45.9462 115.684 46.1192 116.406C46.4032 117.763 46.6162 118.63 46.7052 119.236C46.7562 119.536 46.7672 119.788 46.7452 120.015C46.7282 120.232 46.7022 120.401 46.6352 120.604C46.5782 120.783 46.5492 121.016 46.4782 121.168C46.3592 121.425 46.0802 121.362 45.6392 120.907C45.3932 120.675 45.2342 120.372 45.0222 119.986C44.8012 119.597 44.6372 119.143 44.4672 118.626C43.4842 115.55 43.0132 112.386 42.5802 109.168C42.1692 105.952 41.9012 102.687 41.6732 99.4158C41.3422 94.5578 41.1542 89.6758 40.9822 84.8078L41.0382 84.7998Z" fill="#231F20"/>
<path fill-rule="evenodd" clip-rule="evenodd" d="M32.1892 91.2726C31.9832 86.3516 31.8562 81.4296 31.7522 76.5096C31.6982 74.7146 31.6262 72.9206 31.6192 71.1266C31.6002 64.7986 31.6732 58.4736 31.8002 52.1516C31.8372 49.3446 31.8752 46.5246 31.9122 43.7406C31.9262 41.9516 31.9622 40.1566 32.0152 38.3636C32.1262 36.5646 32.2772 34.7876 32.6012 32.9736C32.8462 31.8186 33.0922 32.0896 33.2962 33.0516C33.4972 34.0026 33.8352 35.7436 33.8762 37.7886C33.7902 45.0596 33.7032 52.3186 33.6152 59.6646C33.5302 64.0566 33.7642 68.6256 33.9002 73.1146C34.0222 78.0526 34.1772 82.9926 34.3872 87.9296C34.5342 90.9666 34.6722 94.0066 34.8692 97.0396C35.1672 101.634 35.4852 106.251 35.9512 110.796C36.0862 111.889 36.2202 112.975 36.3542 114.056L36.5732 115.671L36.6852 116.476L36.7402 116.862L36.7732 117.054L37.2332 117.583C37.4452 117.816 37.6622 118.044 37.8882 118.265C38.3392 118.705 38.8092 119.126 39.3082 119.504C39.8772 119.957 40.4872 120.315 41.1092 120.68C42.2802 121.326 43.0942 121.625 43.6562 121.917C44.2242 122.198 44.5562 122.416 44.8272 122.698C44.9492 122.83 45.1232 122.964 45.1962 123.084C45.3212 123.286 45.0872 123.425 44.5132 123.515C43.9402 123.617 43.0302 123.579 41.9002 123.297C40.5072 122.879 39.1892 122.195 37.9822 121.347C37.3712 120.93 36.8052 120.451 36.2512 119.948C35.9762 119.695 35.7092 119.429 35.4472 119.154L35.0622 118.726C34.8562 118.484 34.6492 118.208 34.4472 117.943C34.1952 115.951 33.9412 113.935 33.6852 111.905C33.4442 110.004 33.2932 108.084 33.1052 106.164C32.8552 103.695 32.7052 101.213 32.5462 98.7306C32.3742 96.2496 32.2612 93.7636 32.1302 91.2816L32.1892 91.2726Z" fill="#231F20"/>
<path fill-rule="evenodd" clip-rule="evenodd" d="M90.6617 123.993C87.0147 124.743 83.3487 125.444 79.6607 126.053C78.3157 126.279 76.9777 126.555 75.6247 126.736C70.8517 127.361 66.0227 127.75 61.1787 127.6C59.0297 127.535 56.8677 127.375 54.7377 127.105C52.0217 126.717 49.2037 126.131 46.8097 124.622C46.0557 124.174 46.4067 123.814 47.2637 123.658C47.6907 123.578 48.2427 123.547 48.8477 123.59C49.4807 123.578 50.1627 123.657 50.8547 123.882C55.9037 125.238 61.3037 125.175 66.7617 125.191C70.0407 125.141 73.4287 124.566 76.7567 124.047C80.4207 123.478 84.0797 122.796 87.7297 122.045C89.9767 121.579 92.2237 121.103 94.4647 120.596C97.8677 119.83 101.286 119.06 104.662 118.301C107.295 117.704 109.855 117.002 112.548 116.557C113.142 116.465 113.732 116.371 114.341 116.304C114.917 116.274 115.398 116.262 115.799 116.271C116.212 116.315 116.545 116.355 116.811 116.453C117.341 116.657 117.635 116.993 117.812 117.314C117.895 117.468 118.007 117.617 118.039 117.745C118.093 117.964 117.875 118.118 117.48 118.278C117.095 118.41 116.511 118.647 115.786 118.659C113.575 118.909 111.244 119.41 108.871 119.923C106.481 120.469 104.06 121.02 101.634 121.574C97.9917 122.398 94.3317 123.227 90.6807 124.054L90.6617 123.993Z" fill="#231F20"/>
<path fill-rule="evenodd" clip-rule="evenodd" d="M116.034 63.6136C115.862 67.6296 115.782 71.6506 115.759 75.6736L115.845 80.0736C115.902 85.2446 115.986 90.4226 116.305 95.5886C116.422 97.8826 116.66 100.18 116.902 102.444C117.085 103.895 117.268 105.35 117.452 106.803C117.65 108.255 117.822 109.708 117.861 111.179C117.89 112.094 117.409 112.044 116.814 111.345C116.218 110.648 115.469 109.301 115.236 107.613C114.425 101.635 113.934 95.6216 113.919 89.5466C113.894 85.9166 113.643 82.1506 113.614 78.4406C113.555 74.3636 113.625 70.2836 113.731 66.2076C113.8 63.6996 113.907 61.1916 114.023 58.6866C114.212 54.8926 114.47 51.0846 114.758 47.3236C114.854 45.8606 114.949 44.4106 115.043 42.9636C115.124 41.5156 115.226 40.0716 115.371 38.6246C115.426 37.9856 115.48 37.3596 115.536 36.7166C115.865 34.3406 116.15 33.6116 116.804 33.2016C116.953 33.1096 117.107 32.9796 117.249 32.9356C117.728 32.7876 117.951 33.8056 117.836 35.5336C117.465 40.6846 117.077 46.0596 116.687 51.4716C116.425 55.5006 116.209 59.5566 116.09 63.6096L116.034 63.6136Z" fill="#231F20"/>
<path fill-rule="evenodd" clip-rule="evenodd" d="M80.2342 25.9397C76.3402 26.0537 72.4632 26.0117 68.5982 25.9407C67.1772 25.9007 65.8072 25.9717 64.3412 25.8847C59.3412 25.5227 54.4722 24.9867 49.5572 25.0967C47.3822 25.1217 45.2062 25.3487 43.1112 25.7487C40.4252 26.2867 37.8252 27.1727 35.6142 28.5837C34.9182 29.0057 34.6712 28.6327 35.0052 27.8287C35.3082 27.0027 36.3522 25.7667 37.9692 25.1137C40.8082 23.9417 43.7712 23.4587 46.6942 23.2057C49.6262 22.9677 52.5492 23.0047 55.4552 23.1987C58.9232 23.4147 62.5492 23.6077 65.9912 23.6587C69.8652 23.6947 73.7352 23.7217 77.5952 23.6137C79.9702 23.5437 82.3452 23.4397 84.7072 23.2377C88.2832 22.9347 91.8692 22.4927 95.3392 21.7067C98.0332 21.0767 100.605 20.2127 103.166 19.2937C103.726 19.0797 104.263 18.8397 104.839 18.6587C106.963 17.9527 107.679 17.8257 108.361 18.2227C108.515 18.3097 108.703 18.3817 108.813 18.4827C109.187 18.8207 108.467 19.5187 106.966 20.3237C102.493 22.6637 97.2922 24.1077 92.0322 24.9117C88.1242 25.5357 84.1692 25.8337 80.2422 26.0007L80.2342 25.9397Z" fill="#231F20"/>
<path fill-rule="evenodd" clip-rule="evenodd" d="M69.7386 39.0204C73.6096 38.8714 77.4796 38.5254 81.3426 38.0844C82.7516 37.9064 84.1516 37.6774 85.5546 37.4734C90.5096 36.7854 95.4556 35.9304 100.343 34.8064C102.51 34.3014 104.661 33.6874 106.761 33.0214C109.434 32.1124 112.152 31.2344 114.696 30.1534C115.441 29.7774 115.501 29.9674 114.998 30.6164C114.475 31.2164 113.384 32.3024 111.847 32.9804C109.15 34.2294 106.332 35.0894 103.513 35.9164C100.686 36.7214 97.8216 37.3974 94.9206 37.9444C91.4516 38.5934 87.8666 39.3854 84.2996 39.9434C80.3776 40.5564 76.4256 40.9804 72.4626 41.2494C70.0236 41.4044 67.5796 41.5244 65.1356 41.5494C61.4326 41.6044 57.7086 41.4574 54.0376 41.1434C51.1856 40.8984 48.3676 40.6544 45.5596 40.0654C44.9376 39.9564 44.3296 39.8364 43.7146 39.6584C43.1436 39.5014 42.6726 39.3604 42.2836 39.2264C41.9006 39.0714 41.5986 38.9204 41.3606 38.7734C40.8826 38.4784 40.6566 38.1844 40.5366 37.8024C40.4816 37.6284 40.3946 37.4434 40.3866 37.2874C40.3646 36.7564 41.3876 36.6934 42.9706 37.0994C45.3626 37.6134 47.8286 38.0224 50.3516 38.3514C52.8826 38.6404 55.4606 38.8514 58.0606 38.9864C61.9216 39.1734 65.8306 39.1674 69.7306 38.9604L69.7386 39.0204Z" fill="#231F20"/>
<path fill-rule="evenodd" clip-rule="evenodd" d="M34.7256 116.245C34.7256 116.245 22.9546 117.268 22.9996 121.75C23.0456 126.245 45.2426 134.358 75.4266 126.169C75.4266 126.169 58.3346 125.945 46.5746 122.835C42.8346 121.847 34.7256 116.245 34.7256 116.245" fill="#231F20"/>
<path fill-rule="evenodd" clip-rule="evenodd" d="M91.0735 32.1655C89.8535 32.3745 88.6325 32.5725 87.4065 32.7365C86.1835 32.9215 84.9575 33.0805 83.7295 33.2225C82.8345 33.3355 81.9475 33.4965 81.0475 33.5695C77.8815 33.8655 74.6985 33.9725 71.5225 34.0075L69.4045 34.0245C68.6985 34.0245 67.9915 33.9905 67.2915 33.9785C65.4935 33.9325 63.6655 33.8095 61.9045 33.3385C61.3545 33.2025 61.4905 32.9505 62.0065 32.7455C62.5265 32.5285 63.3945 32.3975 64.3955 32.4425C67.9545 32.6105 71.5485 32.4965 75.1935 32.4045C76.2835 32.3645 77.3925 32.2565 78.5055 32.1445C79.6175 32.0045 80.7315 31.8345 81.8425 31.7185L85.4975 31.2325L89.1435 30.6565C90.6325 30.3845 92.1295 30.1375 93.6065 29.8075C94.7305 29.5785 95.8535 29.3325 96.9665 29.0565C98.0845 28.7985 99.1935 28.5135 100.283 28.1925C101.137 27.9595 101.961 27.6635 102.779 27.3625C103.602 27.0745 104.408 26.7535 105.21 26.4205C105.564 26.2755 105.914 26.1455 106.279 26.0225C107.609 25.5235 108.073 25.4625 108.517 25.6975C108.618 25.7515 108.74 25.7935 108.813 25.8565C109.061 26.0625 108.618 26.5215 107.679 27.0775C106.291 27.9115 104.775 28.5685 103.21 29.1205C101.652 29.7105 100.038 30.1755 98.4195 30.6385C95.9985 31.2555 93.5425 31.7635 91.0855 32.2105L91.0735 32.1655Z" fill="#231F20"/>
<path fill-rule="evenodd" clip-rule="evenodd" d="M85.3081 97.6787L81.4301 98.0447C80.9581 98.0937 80.4961 98.1977 80.0251 98.2407C78.3541 98.3917 76.6781 98.5427 75.0091 98.6927C74.2461 98.7437 73.5061 98.8047 72.7921 98.9027C71.8731 99.0417 71.0061 99.2317 70.1761 99.3667C69.9221 99.4087 69.7571 99.0537 69.8471 98.5887C69.9311 98.1247 70.3351 97.5547 70.9261 97.4027C71.9631 97.1197 72.9671 97.0657 73.9181 97.0007C74.8501 96.9407 75.7871 96.8807 76.7501 96.8187C77.9191 96.7687 79.0991 96.4847 80.2761 96.3207L84.1671 95.8147L86.5611 95.5037C87.7671 95.3327 88.9841 95.1947 90.1721 94.9667C91.0961 94.7887 91.9831 94.4877 92.8851 94.2357C93.0841 94.1797 93.2751 94.1047 93.4771 94.0607C94.2261 93.8947 94.4881 94.0007 94.7361 94.5637C94.7931 94.6917 94.8611 94.8177 94.9031 94.9497C95.0421 95.3937 94.7891 95.8187 94.2561 96.0347C92.6731 96.6777 90.9501 96.9827 89.2121 97.2417C87.9211 97.4337 86.6161 97.5667 85.3171 97.7277L85.3081 97.6787Z" fill="#231F20"/>
<path fill-rule="evenodd" clip-rule="evenodd" d="M88.3138 105.826C87.3768 105.923 86.4378 105.979 85.5038 106.043C85.1638 106.068 84.8338 106.16 84.4938 106.177C83.2918 106.239 82.0898 106.269 80.9008 106.36C80.3768 106.403 79.8538 106.501 79.3518 106.622C78.7278 106.767 78.0198 107.041 77.5518 106.977C77.4368 106.936 77.1058 106.56 77.0908 106.04C77.1228 105.485 77.3908 104.923 77.8058 104.8C79.2248 104.42 80.5788 104.251 81.9978 104.282C82.8428 104.305 83.6758 104.057 84.5148 103.946C85.4368 103.835 86.3618 103.724 87.2858 103.613C87.8518 103.541 88.4228 103.484 88.9838 103.393C89.8368 103.261 90.6978 103.145 91.5188 102.913C92.1508 102.716 92.7438 102.433 93.3338 102.178C93.4598 102.12 93.5908 102.061 93.7168 102.004C94.1988 101.826 94.4038 101.921 94.7138 102.411C94.7848 102.523 94.8628 102.631 94.9238 102.745C95.1298 103.131 95.0458 103.545 94.6938 103.831C94.1698 104.265 93.6018 104.576 93.0058 104.863C92.4148 105.135 91.7738 105.272 91.1488 105.415C90.2118 105.624 89.2638 105.745 88.3258 105.883L88.3138 105.826Z" fill="#231F20"/>
<path fill-rule="evenodd" clip-rule="evenodd" d="M81.8375 71.6779C82.0925 71.8529 82.3545 72.0079 82.6175 72.0829C82.7505 72.1399 82.8825 72.1369 83.0145 72.1709C83.1145 72.1499 83.2625 72.1879 83.3365 72.1519C83.4665 72.1169 83.5315 72.0519 83.6265 71.9399C83.8085 71.7579 83.9685 71.3479 84.0455 70.8989C84.1365 70.4529 84.1805 69.9659 84.2125 69.4679C84.2395 69.0279 84.2215 68.5719 84.2155 68.1099C84.2255 67.5309 84.1395 66.8279 84.6875 66.2009C84.8615 66.0099 85.1165 66.3229 85.3705 66.6369C85.6155 66.9479 85.9175 67.1799 85.8765 67.3969C85.7295 68.2529 85.7915 69.4889 85.5015 70.7169C85.4155 71.0899 85.3495 71.4839 85.2395 71.8999C85.1095 72.3109 84.9345 72.7959 84.4955 73.1459C84.2745 73.3609 83.9925 73.4549 83.7185 73.5499C83.4525 73.6049 83.1855 73.6199 82.9355 73.6149C82.4485 73.5719 81.9855 73.4389 81.5835 73.2319C81.0905 72.9779 80.6525 72.6609 80.2765 72.3059C79.6945 71.7759 79.2285 71.1629 78.7665 70.5719C78.4095 70.1089 78.0135 69.6839 77.6675 69.2109C77.5925 69.1059 77.5045 69.0109 77.4375 68.8989C77.1895 68.4849 77.2175 68.2939 77.5335 68.0349C77.6065 67.9759 77.6755 67.9109 77.7525 67.8619C78.0155 67.6939 78.3215 67.7529 78.5445 67.9939C79.2145 68.7099 79.7715 69.5229 80.3915 70.2539C80.8485 70.7899 81.3275 71.3139 81.8565 71.6459L81.8375 71.6779Z" fill="#231F20"/>
<path fill-rule="evenodd" clip-rule="evenodd" d="M79.6479 66.0753C79.4219 66.3143 79.1269 66.3683 78.6869 66.4043C78.5459 66.4143 78.3039 66.2313 78.3469 66.1023C78.4199 65.8493 78.5279 65.5943 78.6879 65.3553C78.7269 65.2903 79.2459 64.7353 79.9999 64.4223C80.7469 64.0963 81.5489 64.0003 81.9219 63.9203C82.6599 63.7863 83.3199 63.7213 83.8619 63.5723C84.2959 63.4523 84.5789 63.1573 84.6149 62.9503C84.6349 62.8493 84.6089 62.8223 84.5999 62.8123C84.5889 62.8023 84.5509 62.7553 84.4199 62.6863C84.2569 62.6273 84.0989 62.5693 83.9159 62.5023C83.5999 62.4023 83.1719 62.4193 82.7909 62.5493C82.4259 62.6563 82.0139 62.9513 81.9139 63.1223C81.8679 63.1873 81.7929 63.2893 81.7909 63.4443C81.7889 63.5023 81.7279 63.6853 81.6039 64.0093C81.5369 64.1753 81.4609 64.3703 81.3349 64.6113C81.2909 64.7003 81.1559 64.9433 81.0359 65.0853C80.9169 65.2513 80.7789 65.4073 80.6239 65.5383C80.0199 66.1163 79.1249 66.1883 78.5079 65.9453C78.2109 65.8333 77.8999 65.6643 77.7619 65.5693C77.6389 65.4883 77.5699 65.4343 77.5249 65.3993L77.2309 65.1503L77.1719 65.1033C77.1719 65.1033 77.1759 65.0963 77.1749 65.0903L77.1609 65.0573C77.1369 65.0133 77.0839 64.9753 77.0249 64.9763C76.9419 64.9733 76.8309 65.0173 76.7679 65.1233C76.7439 65.1613 76.7679 65.2003 76.6939 65.2463C76.5309 65.3723 76.6319 65.5933 76.7289 65.7443C76.8749 65.9753 77.0859 66.1583 77.3209 66.2733C77.4329 66.3463 77.5669 66.4543 77.7419 66.5003C77.9029 66.5503 77.8999 66.7903 77.8339 66.8323C77.6589 66.9453 77.8299 67.0333 77.8789 67.1273C77.8929 67.1603 77.9129 67.2023 77.9069 67.2323C77.9069 67.2323 77.7259 67.3593 77.3999 67.3993C77.0779 67.4623 76.6089 67.3983 76.2079 67.1813C75.7999 66.9753 75.4469 66.6453 75.2279 66.3133C75.0079 65.9783 74.9189 65.6643 74.8989 65.5443C74.9019 65.5273 74.8099 65.2083 74.9069 64.6823C74.9839 64.1553 75.4049 63.4493 76.2239 63.0113C76.5439 62.8673 76.9489 62.7443 77.3679 62.8213C77.5759 62.8513 77.7799 62.9173 77.9789 62.9973C78.0789 63.0303 78.1749 63.0843 78.2729 63.1353L78.4579 63.2333C78.6519 63.3443 78.8309 63.4463 78.9739 63.5283C79.0449 63.5663 79.0539 63.5623 79.0539 63.5623C79.0599 63.5603 79.0669 63.5583 79.0669 63.5583C79.0859 63.5463 79.0889 63.5963 79.1189 63.6243C79.1189 63.6243 79.1469 63.6173 79.1639 63.5873C79.1719 63.5733 79.1779 63.5543 79.1799 63.5363C79.1789 63.5313 79.1859 63.5113 79.1729 63.5233L79.2419 63.3593C79.3459 63.0973 79.4609 62.7363 79.6009 62.4123C79.7339 62.0923 79.9049 61.8223 79.9279 61.7893C80.0559 61.6123 80.2519 61.3823 80.4069 61.2463C80.5599 61.1013 80.7209 60.9753 80.8869 60.8633C81.2189 60.6393 81.5799 60.4793 81.9589 60.4183C82.1089 60.3963 82.2489 60.3363 82.3929 60.2923C83.0099 60.1013 83.6829 60.0223 84.3839 60.1573C85.0259 60.2943 85.7579 60.5563 86.3369 61.2203C86.9359 61.8993 87.1119 62.9793 86.7759 63.7453C86.7269 63.8903 86.6399 64.0123 86.5559 64.1283C86.4579 64.2843 86.3349 64.4113 86.2249 64.5433C85.6699 65.2543 84.7709 65.5773 84.0809 65.6863C83.3859 65.8063 82.7419 65.8163 82.1489 65.8813C82.0089 65.8953 81.6209 65.8713 81.2509 65.8703C80.8829 65.8713 80.5429 65.9193 80.4199 65.9583C80.2859 65.9843 79.7399 65.9493 79.6479 66.0753" fill="#231F20"/>
<path fill-rule="evenodd" clip-rule="evenodd" d="M39.9033 86.8831C39.7503 82.8351 39.6443 78.7871 39.5493 74.7421C39.5183 73.2651 39.4223 71.7921 39.4033 70.3171C39.3273 65.1141 39.3203 59.9131 39.3023 54.7141C39.2923 52.4071 39.2353 50.0881 39.1663 47.8001C39.0823 44.8601 38.9023 41.9081 39.1103 38.9631C39.2463 37.1301 41.1953 39.4521 41.2493 42.8271C41.3423 48.8201 41.3643 54.8131 41.2353 60.8641C41.1583 64.4831 41.3573 68.2431 41.4453 71.9411C41.5403 76.0071 41.6453 80.0741 41.7963 84.1381C41.8883 86.6401 41.9933 89.1421 42.1293 91.6391C42.3383 95.4211 42.5673 99.2221 42.9733 102.956C43.2983 105.855 43.7763 108.683 44.3713 111.474C44.4903 112.093 44.6673 112.676 44.8093 113.287C45.0903 114.406 45.2703 115.136 45.3683 115.631C45.4403 116.163 45.4193 116.452 45.3063 116.798C45.2523 116.955 45.2233 117.156 45.1563 117.289C45.0443 117.512 44.7983 117.467 44.4213 117.106C44.3283 117.016 44.2253 116.906 44.1213 116.778C44.0383 116.653 43.9523 116.511 43.8633 116.354C43.6873 116.038 43.4813 115.653 43.3463 115.225C42.4413 112.664 41.9543 110.011 41.5363 107.317C41.1283 104.622 40.8443 101.884 40.6133 99.1421C40.2663 95.0681 40.0513 90.9741 39.8533 86.8911L39.9033 86.8831Z" fill="#231F20"/>
<path fill-rule="evenodd" clip-rule="evenodd" d="M70.2359 74.476C69.5149 71.547 69.1939 68.586 69.1689 65.6C69.1829 64.509 69.1559 63.415 69.3109 62.317C69.4229 61.351 69.6339 60.383 69.9189 59.427L70.2199 58.599L70.3189 58.325C70.3369 58.281 70.3459 58.229 70.3729 58.192L70.5009 58.121L71.0139 57.839C71.4769 57.582 71.8899 57.403 72.3319 57.19C74.0839 56.408 75.8879 55.795 77.7329 55.329C79.3699 54.92 81.0409 54.589 82.7279 54.451C83.8089 54.34 84.9149 54.357 86.0179 54.46C87.1119 54.631 88.2309 54.87 89.2089 55.454C89.8339 55.791 89.5179 56.109 88.8519 56.268C88.5149 56.356 88.1189 56.364 87.6439 56.411C87.4109 56.424 87.1699 56.419 86.9219 56.395C86.6639 56.397 86.3989 56.378 86.1279 56.332C84.1919 56.033 82.1319 56.238 80.1109 56.585C78.0799 56.945 76.0659 57.548 74.0869 58.261C73.4999 58.486 72.9159 58.736 72.3489 59.021C71.5379 59.506 71.8709 59.062 71.5549 59.912C71.2179 61.102 71.0819 62.387 71.0009 63.663C70.8339 66.481 71.0989 69.367 71.6289 72.173C71.8049 73.034 71.9969 73.894 72.2469 74.731C72.3649 75.153 72.4999 75.566 72.6509 75.971L72.7599 76.276L72.8359 76.46C72.8989 76.563 72.9129 76.749 73.0159 76.787L73.7159 76.908C74.0409 76.972 74.3699 76.999 74.6989 77.03C75.3559 77.111 76.0189 77.126 76.6809 77.142C78.0069 77.138 79.3349 77.029 80.6459 76.813C82.6949 76.482 84.6299 75.833 86.7419 75.43C87.2039 75.337 87.6719 75.261 88.1599 75.215C89.9929 75.078 90.6469 75.474 90.8829 76.034C90.9409 76.168 91.0199 76.305 91.0339 76.429C91.0589 76.639 90.8769 76.789 90.5699 76.878C90.2679 76.947 89.8229 77.015 89.2659 77.042C85.9399 77.429 82.1079 78.886 77.9499 79.037C76.4169 79.132 74.8539 79.033 73.3209 78.795L72.5029 78.658L71.9709 78.57L71.7059 78.525C71.6019 78.528 71.6189 78.395 71.5699 78.336L71.1689 77.424L70.9759 76.98L70.8779 76.704C70.6059 75.967 70.3839 75.231 70.1909 74.492L70.2359 74.476Z" fill="#231F20"/>
<path fill-rule="evenodd" clip-rule="evenodd" d="M89.2285 70.1255C89.2145 69.2745 89.2235 68.4215 89.2365 67.5695C89.2355 67.2595 89.2095 66.9485 89.2225 66.6375C89.2775 65.5395 89.3945 64.4415 89.5615 63.3505C89.6205 62.8585 89.6785 62.3765 89.7365 61.8895C89.8195 61.2685 89.8755 60.6085 90.2295 60.0435C90.3345 59.8665 90.6525 60.0215 90.9315 60.2855C91.2095 60.5525 91.4525 60.9025 91.3805 61.2055C91.1475 62.3135 91.0115 63.4885 90.7875 64.6955C90.6495 65.4205 90.7315 66.1875 90.7385 66.9385C90.7415 67.7665 90.7595 68.5985 90.7935 69.4325C90.8205 69.9445 90.8405 70.4585 90.8865 70.9715C90.9505 71.7475 91.0085 72.5305 91.1365 73.2955C91.2355 73.8905 91.4395 74.4575 91.6035 75.0355C91.6395 75.1635 91.6905 75.2855 91.7185 75.4155C91.8215 75.8965 91.7335 76.0695 91.3025 76.2425C91.2045 76.2825 91.1075 76.3295 91.0075 76.3585C90.6695 76.4585 90.3535 76.3045 90.1965 75.9635C89.7335 74.9515 89.5155 73.8305 89.3735 72.6925C89.2775 71.8455 89.2335 70.9875 89.1885 70.1305L89.2285 70.1255Z" fill="#231F20"/>
<path fill-rule="evenodd" clip-rule="evenodd" d="M82.9437 78.8115C81.9787 79.0205 81.0117 79.2295 80.0487 79.4385C79.6927 79.5125 79.3427 79.6195 78.9807 79.6775C77.7037 79.8755 76.3837 80.0005 75.0487 79.8395C74.4607 79.7555 73.8587 79.6705 73.2837 79.4475C72.5517 79.1895 71.8037 78.7355 71.4207 78.0295C71.2937 77.8125 71.5747 77.6685 71.9287 77.6155C72.2797 77.5735 72.6877 77.5735 72.9387 77.7655C73.8547 78.4565 75.1347 78.6325 76.5267 78.6795C77.3637 78.7105 78.2317 78.4825 79.0897 78.3035C80.0367 78.1065 80.9897 77.8755 81.9477 77.6375L83.7257 77.2025C84.6287 76.9835 85.5487 76.8015 86.4767 76.6435C87.1987 76.5245 87.9237 76.3625 88.7187 76.3935C88.8927 76.4035 89.0697 76.4175 89.2477 76.4465C89.9117 76.6035 90.0787 76.8455 90.0127 77.2325C89.9987 77.3235 89.9897 77.4155 89.9607 77.4985C89.8487 77.7805 89.5487 77.8815 89.2117 77.8625C88.1917 77.8335 87.0277 77.9635 85.7787 78.2135C84.8577 78.3925 83.9077 78.6055 82.9547 78.8445L82.9437 78.8115Z" fill="#231F20"/>
</svg>
