<svg width="148" height="148" viewBox="0 0 148 148" fill="none" xmlns="http://www.w3.org/2000/svg">
<path fill-rule="evenodd" clip-rule="evenodd" d="M42.4728 98.467C42.4748 96.252 42.4678 94.033 42.4298 91.811C42.4168 91 42.3288 90.193 42.3228 89.382C42.2998 86.52 42.3068 83.653 42.3318 80.785C42.3348 79.513 42.2858 78.236 42.2268 76.975L42.1128 74.54C42.1228 73.727 42.2008 72.912 42.3308 72.102C42.4188 71.596 42.8458 71.666 43.3118 72.091C43.7718 72.515 44.3248 73.292 44.4428 74.214C44.6108 77.488 44.7078 80.762 44.5888 84.091C44.4938 86.082 44.7258 88.143 44.7968 90.177L44.9748 96.9C45.0098 98.281 45.0178 99.664 45.0248 101.046C45.0408 103.139 45.0008 105.243 45.0368 107.321C45.0878 108.932 45.1378 110.524 45.1878 112.124C45.1968 112.477 45.2188 112.822 45.1828 113.177C45.0768 114.493 44.9008 114.905 44.4338 115.168C44.3278 115.227 44.2228 115.307 44.1208 115.34C43.7798 115.451 43.4958 114.904 43.3358 113.946C42.8808 111.103 42.7188 108.141 42.6208 105.153C42.5508 102.931 42.4798 100.7 42.4088 98.473L42.4728 98.467Z" fill="#231F20"/>
<path fill-rule="evenodd" clip-rule="evenodd" d="M60.3095 117.64C62.3625 118.347 64.4445 119.013 66.5405 119.639C67.3045 119.871 68.0955 120.009 68.8595 120.243C71.5585 121.071 74.2525 121.968 76.9625 122.833C78.1645 123.208 79.3875 123.568 80.5965 123.92C81.3695 124.187 82.1595 124.362 82.9275 124.7C83.3115 124.862 83.6955 125.023 84.0645 125.215C84.4305 125.438 84.7835 125.705 85.1195 125.967C85.5405 126.306 85.2035 126.624 84.5935 126.831C84.2895 126.936 83.9195 127.018 83.5455 127.047C83.1855 127.069 82.7225 127.088 82.3315 126.932C79.4335 125.945 76.2545 125.243 73.1535 124.199C71.2925 123.577 69.2605 123.279 67.3125 122.767C65.1685 122.215 63.0285 121.615 60.8925 120.994L56.9595 119.793C54.9765 119.168 53.0065 118.465 51.0475 117.786C50.2895 117.51 49.5205 117.28 48.7455 117.062C47.9775 116.82 47.2115 116.558 46.4415 116.29C46.1025 116.173 45.7575 116.084 45.4335 115.913C44.2315 115.284 44.0035 114.806 44.1555 114.003C44.1915 113.816 44.2095 113.622 44.2695 113.453C44.4705 112.885 45.1955 112.688 46.1195 112.869C47.4345 113.228 48.7725 113.631 50.0895 114.098C51.4395 114.526 52.7795 115.008 54.1565 115.47C56.1755 116.198 58.2395 116.915 60.3275 117.565L60.3095 117.64Z" fill="#231F20"/>
<path fill-rule="evenodd" clip-rule="evenodd" d="M106.168 120.721C111.61 119.135 117.019 117.281 122.406 115.391C124.372 114.7 126.309 113.93 128.268 113.224L133.439 111.33L133.843 111.183C133.904 111.154 133.998 111.147 134.036 111.097C134.042 111.027 134.053 110.957 134.052 110.882L134.075 110.388L134.213 107.631L134.764 96.6052C134.921 93.3432 135.021 90.0612 135.114 86.8232C135.229 82.6612 135.301 78.4832 135.6 74.3272C135.694 73.0322 136.001 73.2112 136.301 74.3142C136.597 75.4172 136.915 77.4462 136.912 79.8452C136.876 88.3512 136.813 96.8522 136.377 105.418C136.309 106.699 136.257 107.993 136.215 109.295C136.194 110.041 136.173 110.789 136.151 111.539C136.161 111.826 136.043 112.026 135.995 112.274L135.947 112.451L135.944 112.462L135.942 112.468C135.971 112.49 135.687 112.291 135.806 112.377L135.793 112.392L135.765 112.422L135.711 112.483L135.478 112.746L135.354 112.885L135.167 112.969L134.799 113.128L134.235 113.362C131.791 114.358 129.335 115.351 126.88 116.287C121.483 118.349 116.035 120.282 110.526 122.07C107.127 123.153 103.728 124.216 100.178 124.974C99.7623 125.058 99.3443 125.138 98.9153 125.201C98.4863 125.263 98.1003 125.328 97.4243 125.346C96.8223 125.364 96.2343 125.298 95.7623 125.024C95.5223 124.897 95.3143 124.661 95.2503 124.413C95.1653 124.184 95.1633 123.866 95.1223 123.595C95.1113 121.625 95.1013 119.659 95.0903 117.697C95.0963 115.834 95.1023 113.976 95.1083 112.126C95.1173 107.972 95.0223 103.897 95.1243 99.7892C95.1473 98.8852 95.1403 97.9992 95.1843 97.0872C95.4243 93.7122 95.7153 92.6492 96.2213 91.9482C96.3373 91.7882 96.4523 91.5762 96.5573 91.4852C96.8963 91.1782 97.1703 92.5692 97.3293 95.0432C97.4633 96.8792 97.5003 98.7332 97.5473 100.606C97.5833 102.479 97.6633 104.371 97.6663 106.273C97.7013 110.078 97.7373 113.935 97.7733 117.801C97.7803 119.401 97.7863 121.004 97.7933 122.614C97.7993 122.624 97.7713 122.64 97.8393 122.638C98.6793 122.554 99.6113 122.376 100.535 122.168C102.392 121.749 104.272 121.221 106.142 120.661L106.168 120.721Z" fill="#231F20"/>
<path fill-rule="evenodd" clip-rule="evenodd" d="M61.6674 75.3048C64.2404 76.1608 66.8324 76.9848 69.4404 77.7578C70.3934 78.0388 71.3664 78.2318 72.3144 78.5298C75.6604 79.5688 79.0184 80.5858 82.4004 81.5098C83.8964 81.9428 85.4184 82.3018 86.9204 82.6528C87.8864 82.8728 88.8564 83.0948 89.8244 83.3158C90.7874 83.5678 91.7354 83.8718 92.6844 84.2078C93.2964 84.4408 93.1214 84.6548 92.5514 84.8368C91.9784 85.0128 90.9464 85.2348 89.7974 85.1368C85.7784 84.5448 81.7624 83.8928 77.8454 82.6628C75.4984 81.9528 72.9824 81.5158 70.5514 80.9038C67.8874 80.2008 65.2344 79.4428 62.5884 78.6588L57.7134 77.1698C55.2524 76.4128 52.8134 75.5428 50.3824 74.7218C48.4884 74.0868 46.5834 73.5738 44.7204 72.7418C44.3104 72.5458 43.8934 72.4128 43.4884 72.1678C41.9414 71.3608 41.8454 70.3518 41.9354 69.7998C41.9624 69.6578 41.9684 69.5098 42.0144 69.4098C42.0914 69.2408 42.3084 69.2248 42.6384 69.2528C42.9374 69.3028 43.4674 69.2728 43.9674 69.4408C45.4674 69.9758 47.1174 70.5098 48.8084 71.0068C50.4974 71.5678 52.2044 72.1358 53.9174 72.7048C56.4904 73.5228 59.0674 74.4398 61.6844 75.2318L61.6674 75.3048Z" fill="#231F20"/>
<path fill-rule="evenodd" clip-rule="evenodd" d="M131.787 69.259C126.343 67.109 120.752 65.137 115.186 63.185L109.059 61.127L98.2793 57.441L92.8753 55.645L92.0313 55.372C91.6823 55.255 91.3133 55.155 90.9863 55.026L91.0853 53.034C91.1383 52.093 91.1693 51.152 91.1853 50.211C91.2463 46.868 90.9893 43.512 90.6113 40.197C90.1363 35.94 89.4803 31.637 89.4623 27.315C89.4473 25.968 89.8503 26.129 90.3373 27.232C90.8203 28.336 91.4383 30.366 91.6883 32.814C92.1413 37.15 92.7783 41.51 92.9853 45.98C93.0903 48.209 93.0873 50.45 92.9823 52.683L92.9333 53.516C92.9243 53.552 92.9143 53.593 92.9093 53.635C92.8853 53.691 92.9583 53.679 92.9843 53.707C93.0163 53.718 92.9963 53.717 93.0723 53.744L93.4663 53.874L96.6143 54.936C101.625 56.659 106.904 58.25 112.046 59.959C117.698 61.845 123.338 63.77 128.952 65.802C130.304 66.295 131.643 66.79 132.999 67.323C133.901 67.698 135.12 68.112 135.685 68.634C135.949 68.876 136.257 69.153 136.04 69.482L135.335 70.354C134.405 71.045 133.255 71.705 132.681 72.045C127.762 74.786 122.605 76.951 117.504 79.081C113.534 80.723 109.659 82.378 105.651 83.848C104.77 84.174 103.911 84.508 103 84.794C99.6283 85.839 98.3943 85.898 97.5033 85.277C97.3103 85.138 97.0783 85.004 96.9813 84.856C96.7163 84.327 97.8503 83.885 100.221 83.054C103.725 81.85 107.341 80.474 110.985 79.061C114.631 77.641 118.318 76.165 121.961 74.591C122.957 74.162 123.953 73.73 124.934 73.275C125.926 72.834 126.906 72.375 127.873 71.898C128.856 71.44 129.797 70.934 130.749 70.438C131.234 70.198 131.673 69.918 132.133 69.656L132.221 69.606C132.227 69.602 132.237 69.599 132.237 69.599C132.25 69.598 132.254 69.591 132.263 69.586C132.305 69.574 132.344 69.549 132.295 69.533L132.251 69.508C132.251 69.508 132.241 69.498 131.774 69.315L131.787 69.259Z" fill="#231F20"/>
<path fill-rule="evenodd" clip-rule="evenodd" d="M49.6595 68.6072C48.4925 68.9922 47.3265 69.3792 46.1125 69.7332L45.6515 69.8632L45.0455 70.0222C44.5035 70.1582 43.9495 70.2712 43.4555 70.2622C42.9625 70.2382 42.5565 70.1392 42.2005 69.8122C42.0275 69.6762 42.0295 69.4192 41.9445 69.2212L41.7505 68.5882C41.7765 66.5422 41.8005 65.7282 41.8385 64.5312L41.9035 60.6172C42.0585 56.0282 42.1505 51.4502 41.8775 46.8792C41.7655 44.8522 41.5475 42.8202 41.2865 40.8232C40.9225 38.2592 40.4455 35.7082 40.0995 33.1352C40.0005 32.3312 40.3595 32.3622 40.8465 32.9632C41.3205 33.5652 41.9885 34.7332 42.2885 36.2202C42.8525 38.8462 43.2885 41.5032 43.5855 44.1792C43.8655 46.8572 43.9755 49.5552 43.9685 52.2572C43.9495 55.4872 44.0745 58.8392 44.0405 62.1232L43.9575 67.4602L43.9465 67.7152C43.9175 67.8092 43.9815 67.8952 44.0735 67.8882C44.2375 67.9022 44.4035 67.8662 44.5735 67.8332C44.6505 67.8242 45.1365 67.6882 45.5105 67.5742L46.6825 67.2042C48.7725 66.5172 50.8735 65.7762 52.9735 65.0532C56.1575 63.9502 59.3905 62.9232 62.5965 61.9362C65.0845 61.1582 67.5225 60.3512 70.0485 59.7502C70.6045 59.6162 71.1455 59.4692 71.7115 59.3582C72.7565 59.1202 73.4855 59.1872 73.9895 59.2152C74.4985 59.2702 74.8045 59.3942 75.0615 59.5922C75.1795 59.6822 75.3275 59.7632 75.4005 59.8512C75.6435 60.1432 74.8335 60.5572 73.3845 61.1062C71.2185 61.8182 68.9845 62.4172 66.7415 63.1442C64.4825 63.7982 62.1935 64.4892 59.9055 65.2212C56.5045 66.3052 53.1045 67.4672 49.6825 68.6592L49.6595 68.6072Z" fill="#231F20"/>
<path fill-rule="evenodd" clip-rule="evenodd" d="M52.8649 28.0343C54.5379 27.7273 56.2129 27.4123 57.8829 27.0653C58.4919 26.9373 59.0859 26.7473 59.6959 26.6253C61.8559 26.2103 64.0199 25.7933 66.1779 25.3783C67.1369 25.1863 68.0849 24.9323 69.0259 24.6913C70.2259 24.3533 71.4479 24.0433 72.7249 24.0003C73.1219 23.9873 73.1319 24.3483 72.8829 24.7803C72.6309 25.2133 72.1429 25.7233 71.4689 25.9533C69.0749 26.7083 66.6149 27.3013 64.0899 27.7483C62.5769 28.0073 61.0649 28.5223 59.5359 28.8703C57.8569 29.2613 56.1689 29.6273 54.4779 29.9793L51.3529 30.6213C49.7759 30.9473 48.1779 31.2173 46.6119 31.5593C45.3889 31.8003 44.2109 32.1623 42.9879 32.4103C42.7189 32.4673 42.4619 32.5583 42.1799 32.5523C41.1439 32.5693 40.8019 32.4243 40.5459 31.9803C40.4869 31.8793 40.4139 31.7823 40.3779 31.6833C40.2549 31.3553 40.6359 31.0013 41.3269 30.7023C42.3419 30.2053 43.4179 29.9923 44.5009 29.6953C45.5859 29.4103 46.6979 29.1773 47.8219 28.9663C49.4929 28.6383 51.1739 28.3083 52.8499 27.9793L52.8649 28.0343Z" fill="#231F20"/>
<path fill-rule="evenodd" clip-rule="evenodd" d="M43.6543 105.141C43.0373 105.289 27.8613 104.1 21.6853 110.679C14.8753 117.932 60.5353 124.489 82.6753 125.475L44.1903 113.55L43.6543 105.141Z" fill="#231F20"/>
<path fill-rule="evenodd" clip-rule="evenodd" d="M115.768 54.0042C114.88 55.8122 114.036 57.6522 113.262 59.5252C112.968 60.2042 112.767 60.9172 112.492 61.6032C111.506 64.0182 110.576 66.4632 109.736 68.9402C109.376 70.0422 109.081 71.1692 108.839 72.2882C108.532 73.7122 108.302 75.2202 107.995 76.5112C107.898 76.9032 107.43 76.9282 106.978 76.5132C106.761 76.3182 106.515 75.9452 106.396 75.5812C106.269 75.2092 106.205 74.7732 106.261 74.3192C106.758 71.2182 107.577 68.2602 108.714 65.3722C109.416 63.6562 109.914 61.7992 110.572 60.0262C111.303 58.0822 112.099 56.1602 112.941 54.2592C113.452 53.0862 114.027 51.9382 114.558 50.7752L115.881 48.1772C116.354 47.3262 116.83 46.4782 117.27 45.6172C118.033 44.3142 118.628 42.9402 119.482 41.6532C119.666 41.3682 119.812 41.0692 120.04 40.8062C120.908 39.8412 121.332 39.6682 121.988 39.9782C122.138 40.0482 122.298 40.1062 122.428 40.1962C122.863 40.5042 122.843 41.1812 122.424 41.8942C121.239 44.0622 119.805 46.2262 118.561 48.6312C117.609 50.3832 116.677 52.1842 115.827 54.0262L115.768 54.0042Z" fill="#231F20"/>
<path fill-rule="evenodd" clip-rule="evenodd" d="M125.07 36.2013C125.065 36.1533 125.044 36.1133 125.002 36.0783C124.98 36.0633 124.955 36.0533 124.927 36.0463C124.908 36.0373 124.858 36.0383 124.707 36.0693C124.121 36.2123 123.467 36.4683 122.865 36.7653C122.416 36.9823 122.017 37.3023 121.578 37.5643C120.032 38.5163 118.544 39.7173 117.086 40.9833C116.437 41.5363 115.794 42.1473 115.181 42.7293C114.396 43.4883 113.721 44.2683 112.94 44.9453C112.7 45.1563 112.342 44.8823 112.147 44.3713C111.951 43.8683 111.949 43.0933 112.386 42.5613C113.158 41.6263 113.98 40.8463 114.748 40.0923C115.525 39.3133 116.416 38.6023 117.349 37.9153C118.472 37.1083 119.499 36.0673 120.736 35.2683C121.415 34.8343 122.137 34.4433 122.902 34.1263C123.288 33.9643 123.648 33.8263 124.105 33.7023C124.597 33.5573 125.269 33.4993 125.806 33.6813C126.494 33.9003 127.017 34.4863 127.324 35.0643C127.622 35.6553 127.703 36.2013 127.77 36.7203C127.859 37.5063 127.827 38.2433 127.81 38.9543C127.801 39.3073 127.792 39.6553 127.804 39.9743C127.818 40.3043 127.844 40.6743 127.873 41.0143C127.967 42.0923 128.241 43.1163 128.553 44.0573C128.62 44.2653 128.72 44.4563 128.784 44.6583C129.048 45.3893 128.901 45.6633 128.282 46.1113C128.139 46.2123 128.003 46.3293 127.857 46.4193C127.375 46.7273 126.752 46.5583 126.335 45.8973C125.783 44.9083 125.499 43.8123 125.346 42.7563C125.27 42.2263 125.224 41.7013 125.193 41.1883L125.153 40.4283C125.141 40.2063 125.132 39.8343 125.137 39.5763C125.151 38.7673 125.199 38.0693 125.187 37.4323C125.192 36.8093 125.049 36.2693 125.022 36.2433L125.07 36.2013Z" fill="#231F20"/>
<path fill-rule="evenodd" clip-rule="evenodd" d="M87.9967 64.5965C88.3637 65.8845 88.6837 67.1835 88.9947 68.4815C89.1077 68.9545 89.2657 69.4155 89.3647 69.8925C89.7037 71.5775 89.9387 73.2805 90.1217 74.9835C90.2017 75.7405 90.3247 76.4925 90.4327 77.2405C90.5627 78.1995 90.7597 79.1745 90.5677 80.1675C90.5137 80.4755 90.0937 80.4265 89.6707 80.1825C89.2497 79.9365 88.8187 79.5185 88.7477 78.9985C88.5257 77.1485 88.1987 75.2845 88.0177 73.3585C87.9137 72.2025 87.5337 71.0545 87.2357 69.9125C86.9217 68.6515 86.5757 67.3935 86.1977 66.1445C85.9657 65.3755 85.7117 64.6115 85.4497 63.8515C85.0327 62.7075 84.6227 61.5505 84.0947 60.4605C83.6807 59.6155 83.1367 58.8515 82.6297 58.0705C82.5147 57.8995 82.3937 57.7365 82.2957 57.5555C81.9377 56.8835 81.9757 56.5925 82.4447 56.1635C82.5517 56.0655 82.6517 55.9575 82.7657 55.8735C83.1477 55.5905 83.6387 55.6915 84.0387 56.1325C84.6487 56.7775 85.1397 57.5165 85.5567 58.3065C85.9947 59.0865 86.3517 59.9185 86.7007 60.7555C87.2097 62.0035 87.6347 63.2905 88.0477 64.5755L87.9967 64.5965Z" fill="#231F20"/>
<path fill-rule="evenodd" clip-rule="evenodd" d="M78.892 50.4479C79.105 49.6229 79.466 48.9559 79.957 48.4919C80.174 48.3109 80.411 48.1599 80.696 48.0779C80.991 47.9939 81.279 48.0159 81.536 48.0899C82.053 48.2279 82.58 48.6119 83.041 49.1449C83.291 49.4319 83.592 49.7789 83.788 50.0279C83.939 50.2129 84.084 50.3989 84.212 50.5939C85.109 51.9709 85.9 53.3439 86.828 54.6169C87.231 55.1869 87.69 55.7129 88.173 56.1879C88.805 56.7939 89.487 57.2939 90.093 57.8719C90.279 58.0539 90.082 58.3989 89.666 58.6249C89.251 58.8569 88.591 58.9299 88.1 58.5989C86.413 57.4059 85.16 55.9009 84.235 54.2299C83.672 53.2399 82.907 52.3519 82.246 51.4709L82.13 51.3189C82.101 51.2829 82.103 51.2739 82.086 51.2519L82.006 51.1309C81.949 51.0499 81.888 50.9629 81.813 50.8789C81.739 50.7979 81.654 50.7049 81.541 50.6659C81.42 50.6249 81.332 50.7179 81.266 50.7949C81.217 50.8489 81.177 50.9149 81.143 50.9849C81.072 51.1319 81.021 51.2999 80.982 51.4839C80.936 51.7189 80.903 52.1689 80.885 52.5199C80.853 53.0869 80.842 53.6919 80.757 54.3299C80.683 54.9059 80.62 55.4909 80.571 56.0809C80.493 56.9969 80.534 57.9329 80.402 58.9039C80.375 59.1169 80.362 59.3349 80.309 59.5489C80.115 60.3509 79.761 60.5159 79.112 60.3879C78.96 60.3579 78.806 60.3369 78.663 60.2909C78.18 60.1249 77.924 59.6939 77.917 59.2009C77.997 57.7699 78.15 56.2769 78.357 54.5929L78.47 53.7299L78.54 52.8499L78.621 51.8569L78.685 51.3259C78.717 51.0189 78.79 50.7259 78.838 50.4289L78.892 50.4479Z" fill="#231F20"/>
<path fill-rule="evenodd" clip-rule="evenodd" d="M62.0904 66.1319C60.6144 66.5079 59.1424 66.9039 57.6734 67.3109L56.0744 67.7869C54.1814 68.3009 52.2854 68.8159 50.4004 69.3699C49.5654 69.6309 48.7324 69.8909 47.9044 70.1509C46.8314 70.4809 45.8154 70.8939 44.6124 70.9919C44.2154 71.0069 44.2984 70.7779 44.5454 70.5109C44.7784 70.2589 45.2124 69.8839 45.8034 69.6739C46.8654 69.2949 47.9234 68.9169 48.9894 68.5359C50.0664 68.1789 51.1614 67.8629 52.2704 67.5719C53.5984 67.2279 54.9314 66.7159 56.2704 66.3009C57.7404 65.8399 59.2284 65.4289 60.7134 65.0139L63.4604 64.2639C64.8454 63.8799 66.2494 63.5419 67.6184 63.1389C68.6854 62.8379 69.7094 62.4539 70.7664 62.1589C70.9994 62.0919 71.2234 62.0139 71.4604 61.9549C72.3444 61.7679 72.6694 61.8889 72.9204 62.1089C72.9784 62.1629 73.0494 62.2109 73.0884 62.2649C73.2184 62.4419 72.9084 62.7219 72.3154 63.0629C71.4184 63.4979 70.4634 63.7929 69.5054 64.1379C68.5334 64.4279 67.5424 64.6979 66.5484 64.9719C65.0704 65.3689 63.5854 65.7679 62.1024 66.1669L62.0904 66.1319Z" fill="#231F20"/>
<path fill-rule="evenodd" clip-rule="evenodd" d="M115.181 79.4707C116.927 78.9447 118.669 78.4017 120.393 77.8087L122.261 77.1137C124.475 76.3447 126.674 75.5307 128.818 74.5977C129.771 74.1857 130.692 73.6997 131.585 73.1997C132.712 72.5297 133.802 71.7927 134.851 71.0957C135.191 70.8887 135.372 71.1267 135.31 71.5917C135.278 71.8247 135.185 72.1177 135.019 72.4317C134.848 72.7397 134.583 72.9987 134.258 73.2417C131.917 74.8617 129.405 75.9887 126.81 76.9577C125.252 77.5167 123.699 78.2487 122.123 78.8497C120.39 79.5057 118.643 80.1227 116.889 80.7137L113.645 81.7837C112.004 82.3117 110.357 82.8417 108.728 83.3657C107.47 83.7987 106.262 84.3057 105.03 84.7827C104.759 84.8867 104.496 85.0017 104.219 85.0957C103.187 85.4287 102.818 85.3947 102.45 84.9467C102.367 84.8447 102.266 84.7467 102.204 84.6377C101.993 84.2707 102.323 83.8207 103.045 83.4867C105.191 82.5117 107.536 81.7857 109.895 81.0567C111.647 80.5157 113.408 79.9727 115.164 79.4297L115.181 79.4707Z" fill="#231F20"/>
<path fill-rule="evenodd" clip-rule="evenodd" d="M52.6925 29.4652C54.0125 29.2202 55.3325 28.9622 56.6495 28.6842C57.1285 28.5692 57.6015 28.4562 58.0805 28.3412C59.7775 27.9962 61.4805 27.6512 63.1755 27.3062C63.9275 27.1432 64.6745 26.9442 65.4105 26.7432C66.3535 26.4712 67.3035 26.2142 68.2855 26.0952C68.5915 26.0612 68.6075 26.2892 68.4155 26.5832C68.2235 26.8742 67.8285 27.2482 67.2935 27.4282C65.3895 28.0512 63.4465 28.5282 61.4595 28.9102C60.2695 29.1322 59.0695 29.5152 57.8635 29.7912C56.5395 30.0982 55.2085 30.3842 53.8765 30.6662L51.4145 31.1702C50.1685 31.4182 48.9185 31.6672 47.6825 31.9122C46.7215 32.1072 45.7915 32.3712 44.8375 32.5712C44.6275 32.6162 44.4255 32.6822 44.2075 32.6892C43.4025 32.7392 43.1345 32.6602 42.9295 32.3892C42.8815 32.3272 42.8235 32.2692 42.7935 32.2082C42.6925 32.0052 42.9885 31.7652 43.5385 31.5472C44.3485 31.1862 45.2055 31.0182 46.0685 30.7902C46.9325 30.5742 47.8165 30.3852 48.7055 30.2202C50.0275 29.9582 51.3575 29.6942 52.6825 29.4302L52.6925 29.4652Z" fill="#231F20"/>
</svg>
