<svg width="148" height="148" viewBox="0 0 148 148" fill="none" xmlns="http://www.w3.org/2000/svg">
<path fill-rule="evenodd" clip-rule="evenodd" d="M94.794 57.1287C94.356 56.8907 94.13 56.4887 94.005 56.1057C93.963 55.9847 94.096 55.8787 94.22 55.9377C94.459 56.0577 94.696 56.1697 94.941 56.2747C95.057 56.4027 97.361 57.4347 98.19 57.5337C98.977 57.6987 99.758 57.7927 100.486 57.7847C100.747 57.7877 100.994 57.7487 101.227 57.6987C101.339 57.6647 101.465 57.6547 101.565 57.6057C101.727 57.5677 102.065 57.3737 102.341 57.1907C102.923 56.8337 103.324 56.8597 103.593 56.9677C103.656 56.9897 103.754 57.0507 103.832 57.1087L103.998 57.2717L104.138 57.5207C104.175 57.6177 104.185 57.7547 104.21 57.8707C104.213 58.3657 104.19 58.8857 104.143 59.4177L104.049 60.2947C104.001 60.6927 103.931 61.0867 103.841 61.4747C103.518 62.9107 103.237 64.1597 102.939 65.4827C102.886 65.7097 102.803 65.9347 102.783 66.1697C102.774 66.2417 102.731 66.4207 102.642 66.6827C102.595 66.8157 102.538 66.9677 102.454 67.1497C102.399 67.2527 102.369 67.3327 102.273 67.4747C102.233 67.5347 102.19 67.6017 102.091 67.7047C102.034 67.7587 102.035 67.7747 101.924 67.8557C101.824 67.9267 101.71 67.9877 101.596 68.0297L101.948 67.8237C101.839 67.9197 101.699 68.0037 101.554 68.0567C101.463 68.0817 101.459 68.1047 101.266 68.1137C101.105 68.1207 100.913 68.0827 100.756 68.0037C100.677 67.9647 100.607 67.9187 100.549 67.8707C100.489 67.8207 100.494 67.8177 100.463 67.7867C100.42 67.7377 100.379 67.6837 100.342 67.6267C100.267 67.5127 100.211 67.3677 100.211 67.3527C100.145 67.1337 100.14 67.0207 100.125 66.9057C100.108 66.6957 100.105 66.5177 100.104 66.3467C100.108 66.0217 100.112 65.6987 100.116 65.4047C100.123 64.8537 100.129 64.4137 100.131 64.2567C100.161 63.7157 100.138 63.1687 100.031 62.7677C99.954 62.5427 99.981 62.5687 99.919 62.4947C99.851 62.4517 99.824 62.4207 99.658 62.4667C99.564 62.5047 99.446 62.5727 99.312 62.6007C98.989 62.6457 98.734 62.8857 98.483 63.1127C98.119 63.4457 97.721 63.7867 97.34 64.0827C97.13 64.2137 96.919 64.3337 96.685 64.4347C96.484 64.5377 96.466 64.3787 96.497 64.2977C96.606 64.0907 96.422 64.1707 96.361 64.1487C96.339 64.1387 96.312 64.1267 96.304 64.1047C96.272 64.0587 96.678 63.3827 97.203 62.8267C97.648 62.2847 98.294 61.5867 98.47 61.5107C98.504 61.5007 98.698 61.2947 99.29 61.0697C99.579 60.9567 100.073 60.8897 100.492 61.0647C100.917 61.2127 101.298 61.6797 101.455 62.0487C101.771 62.7547 101.817 63.3697 101.888 63.8697C101.941 64.3657 101.957 64.7297 101.968 64.8537C101.988 65.1117 101.957 65.3697 101.938 65.6207C101.939 65.6497 101.944 65.8427 101.951 66.1417C101.958 66.2847 101.965 66.4567 101.981 66.6127C101.987 66.6967 101.999 66.7607 102.007 66.7957C102.081 66.7667 101.843 66.8047 101.679 66.8617C101.601 66.8827 101.494 66.9377 101.443 66.9457C101.398 66.9507 101.353 66.9657 101.314 66.9917C101.214 67.0847 101.226 67.0637 101.215 67.0767C101.218 67.0217 101.164 66.9107 101.087 66.8847L101.25 66.9787C101.236 66.9057 101.199 66.8587 101.143 66.8107C101.073 66.7157 100.99 66.6357 100.897 66.5707C100.856 66.5477 100.794 66.4987 100.728 66.4437C100.657 66.3897 100.709 66.4247 100.693 66.4117L100.7 66.3957L100.779 66.1977C100.837 66.0307 100.893 65.8547 100.937 65.6897C101.024 65.3527 101.087 65.1087 101.096 65.0757C101.293 64.4417 101.398 63.7687 101.664 63.1327C101.716 63.0067 101.737 62.8697 101.762 62.7357C101.97 61.6067 102.227 60.3707 102.369 59.3347C102.38 59.2957 102.384 59.2517 102.383 59.2147C102.378 59.1777 102.4 59.0767 102.332 59.1247C102.318 59.1317 102.316 59.1137 102.303 59.1137C102.288 59.1117 102.269 59.1077 102.244 59.1237C102.183 59.1437 102.254 59.1287 102.04 59.2067C101.833 59.2717 101.622 59.3077 101.413 59.3557C100.995 59.4167 100.583 59.4317 100.178 59.4167C99.369 59.3817 98.607 59.1897 97.865 58.9777C97.503 58.9047 96.02 58.1067 95.683 57.8927C95.481 57.7837 94.961 57.2297 94.794 57.1287" fill="#231F20"/>
<path fill-rule="evenodd" clip-rule="evenodd" d="M102.26 51.1498C101.186 52.1168 99.43 51.9578 98.409 50.8838C96.148 48.5078 99.178 44.3908 102.102 47.5738C103.053 48.6098 103.25 50.2578 102.26 51.1498" fill="#231F20"/>
<path d="M37.1466 94.8579C39.1126 87.2799 40.6456 79.5799 41.6906 71.8129C42.0072 69.469 42.2248 67.1154 42.4421 64.7642C42.4876 64.2716 42.5331 63.7792 42.5796 63.2869C43.0426 58.2719 43.3026 53.2359 43.2796 48.2029C43.2426 43.1739 42.9486 38.1319 42.0876 33.1999C41.6966 31.0169 41.1806 28.8469 40.4166 26.7969C40.0346 25.7749 39.5896 24.7819 39.0406 23.8829C38.4946 22.9909 37.8326 22.1699 37.0486 21.7009C36.0656 21.0649 34.8936 21.2389 33.8946 21.9719C32.8986 22.6639 32.1556 23.8369 31.5466 25.0349C30.9416 26.2539 30.4786 27.5689 30.1006 28.9089C29.7356 30.2519 29.3836 31.6169 29.1976 32.9939C29.0056 34.6849 28.6196 34.5219 28.2556 32.9489C27.9486 31.3909 27.7686 28.3849 29.1116 25.0829C29.7176 23.6359 30.4566 22.1809 31.6956 20.9079C32.3346 20.2939 33.1156 19.7049 34.0286 19.3729C34.9436 19.0219 36.1046 18.9449 37.1076 19.2809C38.1176 19.6039 38.9066 20.2119 39.5236 20.8459C40.1416 21.4889 40.6326 22.1799 41.0426 22.8819C41.8606 24.2899 42.4256 25.7429 42.9036 27.2029C43.8386 30.1269 44.3716 33.0919 44.7576 36.0629C45.1346 39.0349 45.3286 42.0169 45.4006 44.9999C45.5636 52.1319 45.4096 59.5429 44.6976 66.7839C43.8896 74.7399 42.5466 82.6329 40.7806 90.4209C39.6846 95.2119 38.4196 99.9649 36.9946 104.663C35.9136 108.22 34.7296 111.764 33.4456 115.246C32.8276 116.971 32.2496 118.703 32.0266 120.43C31.7816 122.129 32.0896 123.857 32.9886 125.209C33.6776 126.26 34.7506 126.975 35.9466 127.281C37.1476 127.567 38.4666 127.495 39.6816 127.1C42.1506 126.422 43.9756 124.365 45.3456 122.107C45.9316 121.08 46.4326 120.027 46.9036 118.908C47.3503 117.858 47.6929 116.971 47.981 116.226C48.2611 115.5 48.4897 114.909 48.7126 114.43C49.1566 113.454 49.5326 112.922 49.9936 112.543C50.0582 112.49 50.1248 112.43 50.1912 112.37C50.3405 112.236 50.4893 112.102 50.6146 112.045C51.2086 111.771 51.1146 113.692 50.1366 117.029C49.3686 119.492 48.4336 122.004 46.8986 124.362C46.1106 125.522 45.2176 126.677 44.0286 127.62C42.8536 128.564 41.4446 129.308 39.9166 129.7C38.4326 130.059 36.7806 130.143 35.1486 129.703C34.3346 129.478 33.5506 129.1 32.8336 128.617C32.1256 128.115 31.5126 127.49 31.0056 126.798C30.0186 125.378 29.5336 123.766 29.4336 122.135C29.3576 120.486 29.6576 119.017 30.0196 117.631C30.409 116.172 30.907 114.799 31.3885 113.472C31.5858 112.928 31.7804 112.391 31.9636 111.86C32.6096 109.998 33.2436 108.129 33.8356 106.246C35.0366 102.485 36.1156 98.6809 37.0836 94.8529L37.1466 94.8579Z" fill="#231F20"/>
<path d="M37.1466 94.8579C39.1126 87.2799 40.6456 79.5799 41.6906 71.8129C42.0072 69.469 42.2248 67.1154 42.4421 64.7642C42.4876 64.2716 42.5331 63.7792 42.5796 63.2869C43.0426 58.2719 43.3026 53.2359 43.2796 48.2029C43.2426 43.1739 42.9486 38.1319 42.0876 33.1999C41.6966 31.0169 41.1806 28.8469 40.4166 26.7969C40.0346 25.7749 39.5896 24.7819 39.0406 23.8829C38.4946 22.9909 37.8326 22.1699 37.0486 21.7009C36.0656 21.0649 34.8936 21.2389 33.8946 21.9719C32.8986 22.6639 32.1556 23.8369 31.5466 25.0349C30.9416 26.2539 30.4786 27.5689 30.1006 28.9089C29.7356 30.2519 29.3836 31.6169 29.1976 32.9939C29.0056 34.6849 28.6196 34.5219 28.2556 32.9489C27.9486 31.3909 27.7686 28.3849 29.1116 25.0829C29.7176 23.6359 30.4566 22.1809 31.6956 20.9079C32.3346 20.2939 33.1156 19.7049 34.0286 19.3729C34.9436 19.0219 36.1046 18.9449 37.1076 19.2809C38.1176 19.6039 38.9066 20.2119 39.5236 20.8459C40.1416 21.4889 40.6326 22.1799 41.0426 22.8819C41.8606 24.2899 42.4256 25.7429 42.9036 27.2029C43.8386 30.1269 44.3716 33.0919 44.7576 36.0629C45.1346 39.0349 45.3286 42.0169 45.4006 44.9999C45.5636 52.1319 45.4096 59.5429 44.6976 66.7839C43.8896 74.7399 42.5466 82.6329 40.7806 90.4209C39.6846 95.2119 38.4196 99.9649 36.9946 104.663C35.9136 108.22 34.7296 111.764 33.4456 115.246C32.8276 116.971 32.2496 118.703 32.0266 120.43C31.7816 122.129 32.0896 123.857 32.9886 125.209C33.6776 126.26 34.7506 126.975 35.9466 127.281C37.1476 127.567 38.4666 127.495 39.6816 127.1C42.1506 126.422 43.9756 124.365 45.3456 122.107C45.9316 121.08 46.4326 120.027 46.9036 118.908C47.3503 117.858 47.6929 116.971 47.981 116.226C48.2611 115.5 48.4897 114.909 48.7126 114.43C49.1566 113.454 49.5326 112.922 49.9936 112.543C50.0582 112.49 50.1248 112.43 50.1912 112.37C50.3405 112.236 50.4893 112.102 50.6146 112.045C51.2086 111.771 51.1146 113.692 50.1366 117.029C49.3686 119.492 48.4336 122.004 46.8986 124.362C46.1106 125.522 45.2176 126.677 44.0286 127.62C42.8536 128.564 41.4446 129.308 39.9166 129.7C38.4326 130.059 36.7806 130.143 35.1486 129.703C34.3346 129.478 33.5506 129.1 32.8336 128.617C32.1256 128.115 31.5126 127.49 31.0056 126.798C30.0186 125.378 29.5336 123.766 29.4336 122.135C29.3576 120.486 29.6576 119.017 30.0196 117.631C30.409 116.172 30.907 114.799 31.3885 113.472C31.5858 112.928 31.7804 112.391 31.9636 111.86C32.6096 109.998 33.2436 108.129 33.8356 106.246C35.0366 102.485 36.1156 98.6809 37.0836 94.8529L37.1466 94.8579Z" stroke="#E4E4E7"/>
<path d="M101.348 17.1299C103.37 16.9879 105.459 16.8969 107.601 17.2119C109.734 17.4849 111.903 18.2229 113.771 19.4319C114.685 20.0559 115.556 20.7459 116.295 21.5409C116.359 21.6086 116.423 21.6752 116.487 21.7418C116.611 21.8702 116.734 21.9987 116.854 22.1349L117.367 22.8209L117.87 23.5119C117.969 23.6699 118.053 23.8332 118.138 23.9965C118.18 24.0782 118.222 24.1599 118.266 24.2409C119.324 26.1919 119.867 28.2529 120.199 30.2799C120.701 33.2459 120.874 36.1929 120.831 39.1169C120.715 44.2699 120.15 49.3479 119.438 54.3849C118.728 59.4239 117.864 64.4249 116.98 69.4159C116.196 73.8429 115.457 78.2999 114.779 82.6979C114.348 85.5229 113.964 88.3579 113.647 91.1869C113.485 92.6009 113.356 94.0159 113.249 95.4219C113.11 96.8319 113.078 98.2279 113.119 99.6119C113.285 101.277 112.899 101.223 112.223 99.7479C111.638 98.2739 111.002 95.3379 111.323 92.0009C111.823 86.0829 112.745 80.2939 113.742 74.5139C114.096 72.4417 114.46 70.3713 114.823 68.3005C115.472 64.5982 116.122 60.8945 116.722 57.1769C117.82 50.2519 118.541 42.9369 118.254 35.8729C118.05 32.0379 117.557 28.0709 115.726 24.9649L114.942 23.9159C114.641 23.5829 114.316 23.2469 113.987 22.9339C113.305 22.3319 112.592 21.7629 111.795 21.3369C110.224 20.4419 108.422 19.9759 106.553 19.8159C104.249 19.6079 101.852 19.8169 99.4401 20.0579L92.1621 20.8459C84.8061 21.6589 77.3751 22.3469 69.9941 22.5799C64.2591 22.7409 58.5921 22.7249 52.8991 21.9589C51.9177 21.8614 50.9613 21.6829 49.991 21.5019C49.7174 21.4509 49.4427 21.3996 49.1661 21.3499C44.5261 20.3279 43.1711 19.4879 42.4741 18.4949C42.4281 18.4274 42.3765 18.3579 42.3249 18.2885C42.1993 18.1196 42.0737 17.9507 42.0291 17.8089C41.9221 17.4709 42.3591 17.3479 43.2111 17.4219C43.7493 17.4544 44.4344 17.6034 45.2716 17.7855C45.7754 17.895 46.3341 18.0166 46.9491 18.1319C56.5731 20.2579 67.1061 20.2249 77.6391 19.4609C82.8383 19.0763 88.0226 18.5046 93.2596 17.927C95.9337 17.6321 98.6215 17.3357 101.332 17.0619L101.348 17.1299Z" fill="#231F20"/>
<path d="M101.348 17.1299C103.37 16.9879 105.459 16.8969 107.601 17.2119C109.734 17.4849 111.903 18.2229 113.771 19.4319C114.685 20.0559 115.556 20.7459 116.295 21.5409C116.359 21.6086 116.423 21.6752 116.487 21.7418C116.611 21.8702 116.734 21.9987 116.854 22.1349L117.367 22.8209L117.87 23.5119C117.969 23.6699 118.053 23.8332 118.138 23.9965C118.18 24.0782 118.222 24.1599 118.266 24.2409C119.324 26.1919 119.867 28.2529 120.199 30.2799C120.701 33.2459 120.874 36.1929 120.831 39.1169C120.715 44.2699 120.15 49.3479 119.438 54.3849C118.728 59.4239 117.864 64.4249 116.98 69.4159C116.196 73.8429 115.457 78.2999 114.779 82.6979C114.348 85.5229 113.964 88.3579 113.647 91.1869C113.485 92.6009 113.356 94.0159 113.249 95.4219C113.11 96.8319 113.078 98.2279 113.119 99.6119C113.285 101.277 112.899 101.223 112.223 99.7479C111.638 98.2739 111.002 95.3379 111.323 92.0009C111.823 86.0829 112.745 80.2939 113.742 74.5139C114.096 72.4417 114.46 70.3713 114.823 68.3005C115.472 64.5982 116.122 60.8945 116.722 57.1769C117.82 50.2519 118.541 42.9369 118.254 35.8729C118.05 32.0379 117.557 28.0709 115.726 24.9649L114.942 23.9159C114.641 23.5829 114.316 23.2469 113.987 22.9339C113.305 22.3319 112.592 21.7629 111.795 21.3369C110.224 20.4419 108.422 19.9759 106.553 19.8159C104.249 19.6079 101.852 19.8169 99.4401 20.0579L92.1621 20.8459C84.8061 21.6589 77.3751 22.3469 69.9941 22.5799C64.2591 22.7409 58.5921 22.7249 52.8991 21.9589C51.9177 21.8614 50.9613 21.6829 49.991 21.5019C49.7174 21.4509 49.4427 21.3996 49.1661 21.3499C44.5261 20.3279 43.1711 19.4879 42.4741 18.4949C42.4281 18.4274 42.3765 18.3579 42.3249 18.2885C42.1993 18.1196 42.0737 17.9507 42.0291 17.8089C41.9221 17.4709 42.3591 17.3479 43.2111 17.4219C43.7493 17.4544 44.4344 17.6034 45.2716 17.7855C45.7754 17.895 46.3341 18.0166 46.9491 18.1319C56.5731 20.2579 67.1061 20.2249 77.6391 19.4609C82.8383 19.0763 88.0226 18.5046 93.2596 17.927C95.9337 17.6321 98.6215 17.3357 101.332 17.0619L101.348 17.1299Z" stroke="#E4E4E7"/>
<path d="M94.8137 108.309L83.9777 109.29C83.3657 109.35 82.755 109.423 82.1441 109.497C81.4395 109.582 80.7348 109.667 80.0277 109.73C75.3707 110.146 70.6947 110.483 66.0127 110.681C65.1223 110.699 64.2306 110.727 63.34 110.755C62.1493 110.793 60.9606 110.83 59.7797 110.843C58.4547 110.875 57.1247 110.88 55.7947 110.856C54.4657 110.777 53.1427 110.583 51.8277 110.389C51.0087 110.259 51.1267 110.154 51.8317 109.963C51.9574 109.932 52.1016 109.895 52.2623 109.853C53.0032 109.661 54.0947 109.378 55.3347 109.192C57.8792 109.105 60.4137 108.945 62.9548 108.784C65.7547 108.607 68.5626 108.43 71.4007 108.349C73.7857 108.252 76.2277 107.963 78.6678 107.673C79.5396 107.57 80.4111 107.467 81.2797 107.372L92.1927 106.233C93.2629 106.124 94.3332 106.015 95.4035 105.907C96.5725 105.788 97.7414 105.669 98.9097 105.55C99.5942 105.478 100.28 105.407 100.965 105.336C103.673 105.055 106.384 104.773 109.063 104.444C109.424 104.402 109.787 104.357 110.15 104.313C112.412 104.033 114.713 103.748 117.125 104.116C117.737 104.209 118.341 104.322 118.949 104.514C121.19 105.307 121.674 106.067 121.661 106.859C121.66 106.909 121.66 106.961 121.661 107.012C121.663 107.152 121.664 107.292 121.631 107.406C121.456 107.945 120.551 107.732 119.259 107.251C116.113 106.061 112.423 106.495 108.49 106.958C107.587 107.064 106.672 107.171 105.747 107.261C102.583 107.581 99.4065 107.903 96.2336 108.224L94.8247 108.367L94.8137 108.309Z" fill="#231F20"/>
<path d="M94.8137 108.309L83.9777 109.29C83.3657 109.35 82.755 109.423 82.1441 109.497C81.4395 109.582 80.7348 109.667 80.0277 109.73C75.3707 110.146 70.6947 110.483 66.0127 110.681C65.1223 110.699 64.2306 110.727 63.34 110.755C62.1493 110.793 60.9606 110.83 59.7797 110.843C58.4547 110.875 57.1247 110.88 55.7947 110.856C54.4657 110.777 53.1427 110.583 51.8277 110.389C51.0087 110.259 51.1267 110.154 51.8317 109.963C51.9574 109.932 52.1016 109.895 52.2623 109.853C53.0032 109.661 54.0947 109.378 55.3347 109.192C57.8792 109.105 60.4137 108.945 62.9548 108.784C65.7547 108.607 68.5626 108.43 71.4007 108.349C73.7857 108.252 76.2277 107.963 78.6678 107.673C79.5396 107.57 80.4111 107.467 81.2797 107.372L92.1927 106.233C93.2629 106.124 94.3332 106.015 95.4035 105.907C96.5725 105.788 97.7414 105.669 98.9097 105.55C99.5942 105.478 100.28 105.407 100.965 105.336C103.673 105.055 106.384 104.773 109.063 104.444C109.424 104.402 109.787 104.357 110.15 104.313C112.412 104.033 114.713 103.748 117.125 104.116C117.737 104.209 118.341 104.322 118.949 104.514C121.19 105.307 121.674 106.067 121.661 106.859C121.66 106.909 121.66 106.961 121.661 107.012C121.663 107.152 121.664 107.292 121.631 107.406C121.456 107.945 120.551 107.732 119.259 107.251C116.113 106.061 112.423 106.495 108.49 106.958C107.587 107.064 106.672 107.171 105.747 107.261C102.583 107.581 99.4065 107.903 96.2336 108.224L94.8247 108.367L94.8137 108.309Z" stroke="#E4E4E7"/>
<path d="M99.6211 127.525C97.33 127.595 95.0549 127.609 92.7875 127.622C91.0902 127.632 89.3973 127.642 87.7051 127.676L83.3711 127.798C78.2811 127.859 73.2011 127.923 68.1421 128.293L64.7421 128.571C63.6001 128.643 62.4681 128.7 61.3491 128.745C58.4741 128.88 55.6211 129.052 52.8881 129.573C52.0471 129.751 52.0111 129.36 52.6481 128.768C53.2801 128.183 54.6581 127.463 56.3611 127.248C58.4894 126.977 60.5987 126.875 62.6652 126.776C63.5173 126.735 64.3622 126.695 65.1981 126.643C68.0791 126.382 71.1061 126.176 74.0691 126.125C76.0585 126.083 78.0882 125.988 80.1247 125.893C81.7354 125.817 83.3504 125.741 84.9531 125.692L96.9181 125.384C99.3641 125.309 101.803 125.192 104.223 124.958C106.055 124.775 107.882 124.538 109.678 124.183L111.016 123.893C111.143 123.854 111.27 123.818 111.397 123.783C111.686 123.702 111.972 123.622 112.247 123.501C113.055 123.198 113.796 122.742 114.489 122.234C116.64 120.592 117.911 118.099 118.496 115.563C118.595 115.193 118.646 114.82 118.698 114.445C118.724 114.251 118.751 114.057 118.784 113.862L118.797 113.753C119.047 111.699 119.131 111.009 119.674 110.476C119.718 110.432 119.76 110.384 119.803 110.336C119.881 110.247 119.958 110.16 120.037 110.107C120.242 109.97 120.451 110.127 120.668 110.552C120.776 110.764 120.884 111.044 120.986 111.386C121.063 111.729 121.132 112.135 121.187 112.597C121.301 113.968 121.143 115.38 120.824 116.781C120.471 118.176 119.866 119.53 119.066 120.784C117.477 123.284 114.916 125.373 111.835 126.14C107.74 127.127 103.672 127.394 99.6291 127.581L99.6211 127.525Z" fill="#231F20"/>
<path d="M99.6211 127.525C97.33 127.595 95.0549 127.609 92.7875 127.622C91.0902 127.632 89.3973 127.642 87.7051 127.676L83.3711 127.798C78.2811 127.859 73.2011 127.923 68.1421 128.293L64.7421 128.571C63.6001 128.643 62.4681 128.7 61.3491 128.745C58.4741 128.88 55.6211 129.052 52.8881 129.573C52.0471 129.751 52.0111 129.36 52.6481 128.768C53.2801 128.183 54.6581 127.463 56.3611 127.248C58.4894 126.977 60.5987 126.875 62.6652 126.776C63.5173 126.735 64.3622 126.695 65.1981 126.643C68.0791 126.382 71.1061 126.176 74.0691 126.125C76.0585 126.083 78.0882 125.988 80.1247 125.893C81.7354 125.817 83.3504 125.741 84.9531 125.692L96.9181 125.384C99.3641 125.309 101.803 125.192 104.223 124.958C106.055 124.775 107.882 124.538 109.678 124.183L111.016 123.893C111.143 123.854 111.27 123.818 111.397 123.783C111.686 123.702 111.972 123.622 112.247 123.501C113.055 123.198 113.796 122.742 114.489 122.234C116.64 120.592 117.911 118.099 118.496 115.563C118.595 115.193 118.646 114.82 118.698 114.445C118.724 114.251 118.751 114.057 118.784 113.862L118.797 113.753C119.047 111.699 119.131 111.009 119.674 110.476C119.718 110.432 119.76 110.384 119.803 110.336C119.881 110.247 119.958 110.16 120.037 110.107C120.242 109.97 120.451 110.127 120.668 110.552C120.776 110.764 120.884 111.044 120.986 111.386C121.063 111.729 121.132 112.135 121.187 112.597C121.301 113.968 121.143 115.38 120.824 116.781C120.471 118.176 119.866 119.53 119.066 120.784C117.477 123.284 114.916 125.373 111.835 126.14C107.74 127.127 103.672 127.394 99.6291 127.581L99.6211 127.525Z" stroke="#E4E4E7"/>
<path d="M70.8029 38.5367C70.65 38.5336 70.4971 38.5304 70.3441 38.5272C69.1137 38.5017 67.8821 38.4762 66.6529 38.4887C66.1479 38.5097 65.6479 38.5297 65.1429 38.5497C63.3659 38.5637 61.5879 38.5927 59.8209 38.7227C59.0389 38.7797 58.2509 38.8687 57.4919 39.0107C57.3882 39.031 57.284 39.0508 57.1796 39.0706C56.796 39.1436 56.4106 39.2168 56.0419 39.3167C55.8029 39.3727 55.5639 39.4257 55.3219 39.4697C55.0969 39.5377 54.8689 39.5987 54.6329 39.6507C54.3409 39.7127 54.2529 39.4847 54.4019 39.1517C54.5439 38.8277 54.9679 38.3287 55.5489 38.1617C57.6139 37.5047 59.6799 37.1667 61.7879 37.1547C62.5472 37.145 63.3181 37.0726 64.0908 37C64.5974 36.9524 65.1046 36.9048 65.6099 36.8747C67.0119 36.7987 68.4159 36.7567 69.8179 36.7237L72.4069 36.6957C72.8421 36.6897 73.2782 36.6878 73.7141 36.6859C74.5861 36.6821 75.4575 36.6783 76.3209 36.6417C76.8375 36.6186 77.3486 36.5664 77.8586 36.5144C78.3417 36.4652 78.8239 36.416 79.3089 36.3917C79.3929 36.3867 79.4762 36.3794 79.5594 36.3721C79.6941 36.3603 79.8286 36.3485 79.9659 36.3467C80.7869 36.3147 81.0509 36.5077 81.2249 36.9357C81.2385 36.9695 81.2538 37.0029 81.269 37.0359C81.2972 37.0975 81.3249 37.1578 81.3399 37.2177C81.3779 37.3717 81.3139 37.5127 81.1649 37.6507C81.0169 37.7867 80.7849 37.9367 80.4879 37.9857C79.6049 38.1667 78.6989 38.3327 77.7789 38.4127C76.8777 38.4792 75.964 38.5036 75.0491 38.5281L74.9889 38.5297C73.5979 38.5467 72.2009 38.5647 70.8069 38.5827L70.8029 38.5367Z" fill="#231F20"/>
<path d="M70.8029 38.5367C70.65 38.5336 70.4971 38.5304 70.3441 38.5272C69.1137 38.5017 67.8821 38.4762 66.6529 38.4887C66.1479 38.5097 65.6479 38.5297 65.1429 38.5497C63.3659 38.5637 61.5879 38.5927 59.8209 38.7227C59.0389 38.7797 58.2509 38.8687 57.4919 39.0107C57.3882 39.031 57.284 39.0508 57.1796 39.0706C56.796 39.1436 56.4106 39.2168 56.0419 39.3167C55.8029 39.3727 55.5639 39.4257 55.3219 39.4697C55.0969 39.5377 54.8689 39.5987 54.6329 39.6507C54.3409 39.7127 54.2529 39.4847 54.4019 39.1517C54.5439 38.8277 54.9679 38.3287 55.5489 38.1617C57.6139 37.5047 59.6799 37.1667 61.7879 37.1547C62.5472 37.145 63.3181 37.0726 64.0908 37C64.5974 36.9524 65.1046 36.9048 65.6099 36.8747C67.0119 36.7987 68.4159 36.7567 69.8179 36.7237L72.4069 36.6957C72.8421 36.6897 73.2782 36.6878 73.7141 36.6859C74.5861 36.6821 75.4575 36.6783 76.3209 36.6417C76.8375 36.6186 77.3486 36.5664 77.8586 36.5144C78.3417 36.4652 78.8239 36.416 79.3089 36.3917C79.3929 36.3867 79.4762 36.3794 79.5594 36.3721C79.6941 36.3603 79.8286 36.3485 79.9659 36.3467C80.7869 36.3147 81.0509 36.5077 81.2249 36.9357C81.2385 36.9695 81.2538 37.0029 81.269 37.0359C81.2972 37.0975 81.3249 37.1578 81.3399 37.2177C81.3779 37.3717 81.3139 37.5127 81.1649 37.6507C81.0169 37.7867 80.7849 37.9367 80.4879 37.9857C79.6049 38.1667 78.6989 38.3327 77.7789 38.4127C76.8777 38.4792 75.964 38.5036 75.0491 38.5281L74.9889 38.5297C73.5979 38.5467 72.2009 38.5647 70.8069 38.5827L70.8029 38.5367Z" stroke="#E4E4E7"/>
<path d="M69.5069 58.929C69.2492 58.9096 68.9915 58.8897 68.7338 58.8698C67.7715 58.7954 66.809 58.7209 65.8459 58.672C65.6338 58.6616 65.4217 58.6627 65.2096 58.6638C64.9767 58.665 64.7438 58.6662 64.5109 58.652C64.4133 58.6472 64.3158 58.6423 64.2182 58.6374C62.7472 58.5639 61.2723 58.4901 59.8019 58.506C59.2192 58.491 58.6393 58.5338 58.0639 58.5763C57.9501 58.5847 57.8364 58.5931 57.7229 58.601C57.4917 58.6249 57.2613 58.6521 57.031 58.6792C56.3845 58.7554 55.7394 58.8314 55.0839 58.835C54.8059 58.831 54.7949 58.584 54.9849 58.294C55.1739 58.007 55.5679 57.655 56.0849 57.535C57.9119 57.163 59.7529 56.94 61.6109 57.068C62.2856 57.1027 62.9737 57.0742 63.6634 57.0455C64.1083 57.0271 64.5538 57.0086 64.9969 57.007C66.2379 57.004 67.4799 57.034 68.7179 57.073L71.0039 57.167C71.3451 57.1798 71.6867 57.1955 72.0282 57.2112C72.841 57.2485 73.6534 57.2859 74.4589 57.283C74.9397 57.2809 75.4161 57.2445 75.8911 57.2082C76.2944 57.1774 76.6967 57.1467 77.0999 57.137C77.1719 57.1341 77.2434 57.1288 77.3148 57.1236C77.4346 57.1149 77.5543 57.1062 77.6759 57.108C78.3969 57.095 78.6169 57.283 78.7709 57.716C78.7823 57.7484 78.7951 57.7806 78.8079 57.8126C78.8329 57.8756 78.8576 57.9377 78.8709 57.998C78.9049 58.153 78.8479 58.293 78.7149 58.429C78.5819 58.564 78.3729 58.711 78.1039 58.757C77.3109 58.922 76.4999 59.061 75.6799 59.108C74.8619 59.141 74.0329 59.133 73.2049 59.114C72.6639 59.0938 72.1214 59.0733 71.5782 59.0528C70.8885 59.0268 70.1977 59.0008 69.5079 58.975L69.5069 58.929Z" fill="#231F20"/>
<path d="M69.5069 58.929C69.2492 58.9096 68.9915 58.8897 68.7338 58.8698C67.7715 58.7954 66.809 58.7209 65.8459 58.672C65.6338 58.6616 65.4217 58.6627 65.2096 58.6638C64.9767 58.665 64.7438 58.6662 64.5109 58.652C64.4133 58.6472 64.3158 58.6423 64.2182 58.6374C62.7472 58.5639 61.2723 58.4901 59.8019 58.506C59.2192 58.491 58.6393 58.5338 58.0639 58.5763C57.9501 58.5847 57.8364 58.5931 57.7229 58.601C57.4917 58.6249 57.2613 58.6521 57.031 58.6792C56.3845 58.7554 55.7394 58.8314 55.0839 58.835C54.8059 58.831 54.7949 58.584 54.9849 58.294C55.1739 58.007 55.5679 57.655 56.0849 57.535C57.9119 57.163 59.7529 56.94 61.6109 57.068C62.2856 57.1027 62.9737 57.0742 63.6634 57.0455C64.1083 57.0271 64.5538 57.0086 64.9969 57.007C66.2379 57.004 67.4799 57.034 68.7179 57.073L71.0039 57.167C71.3451 57.1798 71.6867 57.1955 72.0282 57.2112C72.841 57.2485 73.6534 57.2859 74.4589 57.283C74.9397 57.2809 75.4161 57.2445 75.8911 57.2082C76.2944 57.1774 76.6967 57.1467 77.0999 57.137C77.1719 57.1341 77.2434 57.1288 77.3148 57.1236C77.4346 57.1149 77.5543 57.1062 77.6759 57.108C78.3969 57.095 78.6169 57.283 78.7709 57.716C78.7823 57.7484 78.7951 57.7806 78.8079 57.8126C78.8329 57.8756 78.8576 57.9377 78.8709 57.998C78.9049 58.153 78.8479 58.293 78.7149 58.429C78.5819 58.564 78.3729 58.711 78.1039 58.757C77.3109 58.922 76.4999 59.061 75.6799 59.108C74.8619 59.141 74.0329 59.133 73.2049 59.114C72.6639 59.0938 72.1214 59.0733 71.5782 59.0528C70.8885 59.0268 70.1977 59.0008 69.5079 58.975L69.5069 58.929Z" stroke="#E4E4E7"/>
<path d="M69.2331 47.7839C68.9735 47.7751 68.7137 47.7652 68.454 47.7553C67.738 47.7279 67.0217 47.7005 66.3071 47.6969C66.1283 47.6949 65.9509 47.7057 65.7737 47.7164C65.5969 47.7272 65.4203 47.7379 65.2431 47.7359C63.9881 47.7139 62.7321 47.7009 61.4791 47.7479C60.9211 47.7539 60.3671 47.8159 59.8211 47.8779C59.6733 47.897 59.5259 47.9181 59.3785 47.9391C58.8258 48.0181 58.2737 48.097 57.7061 48.0749C57.4821 48.0639 57.4681 47.8169 57.6121 47.5329C57.7561 47.2529 58.0571 46.9149 58.4621 46.8089C59.8991 46.4639 61.3491 46.1899 62.8371 46.2609C63.3968 46.276 63.9638 46.2176 64.5319 46.1591C64.8649 46.1248 65.1984 46.0905 65.5311 46.0709C66.5201 46.0159 67.5101 45.9889 68.4991 45.9669L70.3261 45.9519C70.6173 45.9475 70.9091 45.9467 71.2009 45.946C71.8318 45.9444 72.4625 45.9429 73.0861 45.9039C73.4564 45.8804 73.8224 45.826 74.1878 45.7718C74.5218 45.7222 74.8553 45.6727 75.1911 45.6469C75.2507 45.6415 75.3097 45.6335 75.3686 45.6254C75.4629 45.6126 75.557 45.5997 75.6531 45.5979C76.2321 45.5629 76.4191 45.7499 76.5471 46.1779C76.5564 46.2078 76.5665 46.2373 76.5765 46.2666C76.5987 46.3315 76.6203 46.3949 76.6321 46.4569C76.6621 46.6119 76.6191 46.7529 76.5161 46.8919C76.4131 47.0299 76.2521 47.1819 76.0421 47.2339C75.4221 47.4199 74.7861 47.5919 74.1401 47.6739C73.4931 47.7409 72.8371 47.7699 72.1791 47.7899C71.2358 47.8034 70.287 47.816 69.3406 47.8285L69.2361 47.8299L69.2331 47.7839Z" fill="#231F20"/>
<path d="M69.2331 47.7839C68.9735 47.7751 68.7137 47.7652 68.454 47.7553C67.738 47.7279 67.0217 47.7005 66.3071 47.6969C66.1283 47.6949 65.9509 47.7057 65.7737 47.7164C65.5969 47.7272 65.4203 47.7379 65.2431 47.7359C63.9881 47.7139 62.7321 47.7009 61.4791 47.7479C60.9211 47.7539 60.3671 47.8159 59.8211 47.8779C59.6733 47.897 59.5259 47.9181 59.3785 47.9391C58.8258 48.0181 58.2737 48.097 57.7061 48.0749C57.4821 48.0639 57.4681 47.8169 57.6121 47.5329C57.7561 47.2529 58.0571 46.9149 58.4621 46.8089C59.8991 46.4639 61.3491 46.1899 62.8371 46.2609C63.3968 46.276 63.9638 46.2176 64.5319 46.1591C64.8649 46.1248 65.1984 46.0905 65.5311 46.0709C66.5201 46.0159 67.5101 45.9889 68.4991 45.9669L70.3261 45.9519C70.6173 45.9475 70.9091 45.9467 71.2009 45.946C71.8318 45.9444 72.4625 45.9429 73.0861 45.9039C73.4564 45.8804 73.8224 45.826 74.1878 45.7718C74.5218 45.7222 74.8553 45.6727 75.1911 45.6469C75.2507 45.6415 75.3097 45.6335 75.3686 45.6254C75.4629 45.6126 75.557 45.5997 75.6531 45.5979C76.2321 45.5629 76.4191 45.7499 76.5471 46.1779C76.5564 46.2078 76.5665 46.2373 76.5765 46.2666C76.5987 46.3315 76.6203 46.3949 76.6321 46.4569C76.6621 46.6119 76.6191 46.7529 76.5161 46.8919C76.4131 47.0299 76.2521 47.1819 76.0421 47.2339C75.4221 47.4199 74.7861 47.5919 74.1401 47.6739C73.4931 47.7409 72.8371 47.7699 72.1791 47.7899C71.2358 47.8034 70.287 47.816 69.3406 47.8285L69.2361 47.8299L69.2331 47.7839Z" stroke="#E4E4E7"/>
<path d="M66.1772 67.5521C66.0032 67.5401 65.829 67.5281 65.6547 67.5161C65.2194 67.4861 64.784 67.4561 64.3512 67.4261C64.2459 67.4213 64.141 67.4259 64.0361 67.4304C63.9208 67.4354 63.8054 67.4404 63.6892 67.4331C63.656 67.4311 63.6227 67.429 63.5894 67.427C62.8417 67.3809 62.094 67.3349 61.3472 67.3301C61.0012 67.3181 60.6562 67.3461 60.3172 67.3821C60.2226 67.3928 60.1283 67.4053 60.0341 67.4178C59.6951 67.4627 59.3568 67.5076 59.0062 67.4661C58.8652 67.4481 58.8462 67.2381 58.9272 67.0021C59.0072 66.7691 59.1872 66.4901 59.4422 66.4181C60.3422 66.1791 61.2502 65.9971 62.1792 66.1041C62.5356 66.1362 62.8956 66.1003 63.2556 66.0644C63.4564 66.0444 63.6571 66.0243 63.8572 66.0161C64.4426 65.9942 65.0289 65.9904 65.6135 65.9867C65.643 65.9865 65.6726 65.9863 65.7022 65.9861L66.8372 65.9951C66.98 65.9944 67.1229 65.9951 67.266 65.9959C67.6951 65.9981 68.1245 66.0004 68.5482 65.9621C68.7892 65.9402 69.0256 65.8878 69.2612 65.8356C69.455 65.7926 69.6483 65.7498 69.8432 65.7241C69.8803 65.7186 69.917 65.711 69.9535 65.7034C70.0107 65.6916 70.0677 65.6798 70.1262 65.6761C70.4812 65.6341 70.6032 65.7901 70.7002 66.1531C70.7077 66.1809 70.7159 66.2083 70.7239 66.2354C70.7396 66.288 70.755 66.3396 70.7642 66.3911C70.8122 66.6281 70.6832 66.9391 70.4262 67.0681C70.0442 67.2421 69.6492 67.3961 69.2462 67.4721C68.8422 67.5361 68.4302 67.5631 68.0192 67.5791C67.6079 67.5959 67.1952 67.5942 66.7826 67.5925C66.5814 67.5916 66.3802 67.5908 66.1792 67.5921L66.1772 67.5521Z" fill="#231F20"/>
<path d="M66.1772 67.5521C66.0032 67.5401 65.829 67.5281 65.6547 67.5161C65.2194 67.4861 64.784 67.4561 64.3512 67.4261C64.2459 67.4213 64.141 67.4259 64.0361 67.4304C63.9208 67.4354 63.8054 67.4404 63.6892 67.4331C63.656 67.4311 63.6227 67.429 63.5894 67.427C62.8417 67.3809 62.094 67.3349 61.3472 67.3301C61.0012 67.3181 60.6562 67.3461 60.3172 67.3821C60.2226 67.3928 60.1283 67.4053 60.0341 67.4178C59.6951 67.4627 59.3568 67.5076 59.0062 67.4661C58.8652 67.4481 58.8462 67.2381 58.9272 67.0021C59.0072 66.7691 59.1872 66.4901 59.4422 66.4181C60.3422 66.1791 61.2502 65.9971 62.1792 66.1041C62.5356 66.1362 62.8956 66.1003 63.2556 66.0644C63.4564 66.0444 63.6571 66.0243 63.8572 66.0161C64.4426 65.9942 65.0289 65.9904 65.6135 65.9867C65.643 65.9865 65.6726 65.9863 65.7022 65.9861L66.8372 65.9951C66.98 65.9944 67.1229 65.9951 67.266 65.9959C67.6951 65.9981 68.1245 66.0004 68.5482 65.9621C68.7892 65.9402 69.0256 65.8878 69.2612 65.8356C69.455 65.7926 69.6483 65.7498 69.8432 65.7241C69.8803 65.7186 69.917 65.711 69.9535 65.7034C70.0107 65.6916 70.0677 65.6798 70.1262 65.6761C70.4812 65.6341 70.6032 65.7901 70.7002 66.1531C70.7077 66.1809 70.7159 66.2083 70.7239 66.2354C70.7396 66.288 70.755 66.3396 70.7642 66.3911C70.8122 66.6281 70.6832 66.9391 70.4262 67.0681C70.0442 67.2421 69.6492 67.3961 69.2462 67.4721C68.8422 67.5361 68.4302 67.5631 68.0192 67.5791C67.6079 67.5959 67.1952 67.5942 66.7826 67.5925C66.5814 67.5916 66.3802 67.5908 66.1792 67.5921L66.1772 67.5521Z" stroke="#E4E4E7"/>
<path d="M101.666 46.6377C101.155 46.1747 100.404 45.9957 99.656 46.2157C99.4107 46.2883 99.2009 46.4351 98.9924 46.581C98.9739 46.5939 98.9555 46.6069 98.937 46.6197C98.123 47.1647 97.649 48.3177 97.958 49.3497C98.085 49.8007 98.418 50.1757 98.819 50.4257C99.1847 50.6511 99.5913 50.7455 100.009 50.8424C100.2 50.887 100.395 50.9321 100.588 50.9907C100.778 51.0477 100.805 51.4877 100.592 51.9167C100.39 52.3517 99.868 52.7427 99.303 52.6027C98.333 52.3627 97.387 51.7777 96.796 50.8647C96.189 49.9507 96.083 48.8187 96.338 47.8747C96.637 46.7417 97.265 45.6317 98.298 45.0207C99.411 44.3587 100.835 44.2677 101.99 44.8457C102.685 45.2047 103.253 45.7567 103.626 46.4027C104.202 47.3817 104.336 48.5727 104.054 49.6497C103.852 50.4917 103.349 51.3427 102.557 51.8507C102.549 51.8557 102.542 51.8606 102.534 51.8656C102.37 51.9706 102.206 52.0751 102.024 52.1477C101.306 52.4057 101.031 52.2687 100.864 51.8337C100.854 51.8085 100.844 51.7833 100.834 51.7581C100.804 51.6825 100.774 51.607 100.758 51.5297C100.692 51.1767 100.91 50.8897 101.214 50.7177C102.146 50.1757 102.511 49.5227 102.511 48.5247C102.497 47.8347 102.187 47.0977 101.641 46.6727L101.666 46.6377Z" fill="#231F20"/>
<path d="M101.666 46.6377C101.155 46.1747 100.404 45.9957 99.656 46.2157C99.4107 46.2883 99.2009 46.4351 98.9924 46.581C98.9739 46.5939 98.9555 46.6069 98.937 46.6197C98.123 47.1647 97.649 48.3177 97.958 49.3497C98.085 49.8007 98.418 50.1757 98.819 50.4257C99.1847 50.6511 99.5913 50.7455 100.009 50.8424C100.2 50.887 100.395 50.9321 100.588 50.9907C100.778 51.0477 100.805 51.4877 100.592 51.9167C100.39 52.3517 99.868 52.7427 99.303 52.6027C98.333 52.3627 97.387 51.7777 96.796 50.8647C96.189 49.9507 96.083 48.8187 96.338 47.8747C96.637 46.7417 97.265 45.6317 98.298 45.0207C99.411 44.3587 100.835 44.2677 101.99 44.8457C102.685 45.2047 103.253 45.7567 103.626 46.4027C104.202 47.3817 104.336 48.5727 104.054 49.6497C103.852 50.4917 103.349 51.3427 102.557 51.8507C102.549 51.8557 102.542 51.8606 102.534 51.8656C102.37 51.9706 102.206 52.0751 102.024 52.1477C101.306 52.4057 101.031 52.2687 100.864 51.8337C100.854 51.8085 100.844 51.7833 100.834 51.7581C100.804 51.6825 100.774 51.607 100.758 51.5297C100.692 51.1767 100.91 50.8897 101.214 50.7177C102.146 50.1757 102.511 49.5227 102.511 48.5247C102.497 47.8347 102.187 47.0977 101.641 46.6727L101.666 46.6377Z" stroke="#E4E4E7"/>
<path d="M102.811 41.2357C100.535 40.3377 97.8446 40.7357 95.8356 42.2547C95.1576 42.7135 94.6562 43.3693 94.1621 44.0154C94.0973 44.1001 94.0326 44.1848 93.9676 44.2687C93.0426 45.6087 92.5126 47.2287 92.4986 48.8707C92.4993 48.9464 92.4978 49.0224 92.4962 49.0985C92.4935 49.2284 92.4908 49.3584 92.4996 49.4877L92.5846 50.0997C92.6093 50.4543 92.7111 50.7929 92.813 51.1323C92.8307 51.191 92.8483 51.2498 92.8656 51.3087C93.0876 52.1117 93.4736 52.8507 93.9866 53.5017C94.8666 54.6857 96.2186 55.4997 97.6326 55.9257C99.4816 56.4867 101.437 56.3367 103.314 56.0097C103.896 55.9077 104.048 56.4357 103.663 57.1147C103.295 57.8067 102.257 58.5857 100.874 58.6357C98.4646 58.7137 95.9836 58.0397 93.9986 56.5187C93.0086 55.7667 92.1776 54.7837 91.5946 53.6847C91.3126 53.1347 91.0506 52.5617 90.9116 51.9727L90.6776 51.0947C90.6432 50.8806 90.6196 50.664 90.5962 50.4484C90.5868 50.363 90.5775 50.2776 90.5676 50.1927C90.2406 47.3247 91.1176 44.2827 92.9976 42.0727C95.0606 39.6487 98.3736 38.3197 101.518 38.7567C103.444 38.9917 105.254 39.9067 106.678 41.1537C108.826 43.0827 110.135 45.8697 110.227 48.7357C110.292 50.9467 109.634 53.2447 108.123 54.9727C107.796 55.3527 107.457 55.7147 107.061 56.0337C105.557 57.1737 104.857 57.1647 104.325 56.7957C104.291 56.7714 104.256 56.7476 104.22 56.7238C104.124 56.6587 104.027 56.5936 103.963 56.5167C103.667 56.1417 104.194 55.6307 105.065 54.9747C107.714 53.0397 108.849 49.5877 107.701 46.4427C106.917 44.1297 105.073 42.0887 102.796 41.2867L102.811 41.2357Z" fill="#231F20"/>
<path d="M102.811 41.2357C100.535 40.3377 97.8446 40.7357 95.8356 42.2547C95.1576 42.7135 94.6562 43.3693 94.1621 44.0154C94.0973 44.1001 94.0326 44.1848 93.9676 44.2687C93.0426 45.6087 92.5126 47.2287 92.4986 48.8707C92.4993 48.9464 92.4978 49.0224 92.4962 49.0985C92.4935 49.2284 92.4908 49.3584 92.4996 49.4877L92.5846 50.0997C92.6093 50.4543 92.7111 50.7929 92.813 51.1323C92.8307 51.191 92.8483 51.2498 92.8656 51.3087C93.0876 52.1117 93.4736 52.8507 93.9866 53.5017C94.8666 54.6857 96.2186 55.4997 97.6326 55.9257C99.4816 56.4867 101.437 56.3367 103.314 56.0097C103.896 55.9077 104.048 56.4357 103.663 57.1147C103.295 57.8067 102.257 58.5857 100.874 58.6357C98.4646 58.7137 95.9836 58.0397 93.9986 56.5187C93.0086 55.7667 92.1776 54.7837 91.5946 53.6847C91.3126 53.1347 91.0506 52.5617 90.9116 51.9727L90.6776 51.0947C90.6432 50.8806 90.6196 50.664 90.5962 50.4484C90.5868 50.363 90.5775 50.2776 90.5676 50.1927C90.2406 47.3247 91.1176 44.2827 92.9976 42.0727C95.0606 39.6487 98.3736 38.3197 101.518 38.7567C103.444 38.9917 105.254 39.9067 106.678 41.1537C108.826 43.0827 110.135 45.8697 110.227 48.7357C110.292 50.9467 109.634 53.2447 108.123 54.9727C107.796 55.3527 107.457 55.7147 107.061 56.0337C105.557 57.1737 104.857 57.1647 104.325 56.7957C104.291 56.7714 104.256 56.7476 104.22 56.7238C104.124 56.6587 104.027 56.5936 103.963 56.5167C103.667 56.1417 104.194 55.6307 105.065 54.9747C107.714 53.0397 108.849 49.5877 107.701 46.4427C106.917 44.1297 105.073 42.0887 102.796 41.2867L102.811 41.2357Z" stroke="#E4E4E7"/>
<path d="M98.6424 61.8979C98.9314 61.7869 99.2284 61.7859 99.5604 61.9329C99.6049 61.9716 99.6481 62.0067 99.6901 62.0408C99.8324 62.1563 99.9605 62.2603 100.072 62.4549C100.219 62.6869 100.309 63.0489 100.363 63.4219L100.559 65.1349C100.563 65.1675 100.567 65.2002 100.57 65.2328C100.656 65.9984 100.741 66.765 100.872 67.4709C100.896 67.6429 100.947 67.7739 101.04 67.9359C101.072 67.9879 101.157 68.0679 101.201 68.0199C101.29 67.9309 101.348 67.8099 101.415 67.6579C101.455 67.6049 101.648 66.9349 101.774 66.4589C102.045 65.4389 102.279 64.3979 102.498 63.3529C102.712 62.3159 102.896 61.2659 103.056 60.2249C103.087 60.0225 103.117 59.8199 103.146 59.6172C103.312 58.4768 103.478 57.3337 103.882 56.2129C104.04 55.7929 104.303 55.9409 104.52 56.3489C104.738 56.7579 104.962 57.4499 104.89 58.2229C104.544 60.9509 104.154 63.7059 103.338 66.4299C103.228 66.8178 103.117 67.2051 103.006 67.5934C102.932 67.8526 102.858 68.1122 102.783 68.3729C102.742 68.5156 102.69 68.6598 102.638 68.8042C102.607 68.8905 102.576 68.9768 102.547 69.0629C102.523 69.1149 102.499 69.1683 102.474 69.2219C102.404 69.3761 102.333 69.5317 102.255 69.6609C102.099 69.9603 101.922 70.1289 101.731 70.3109C101.674 70.366 101.615 70.4223 101.554 70.4839C101.437 70.5159 101.27 70.5069 101.105 70.4679C100.944 70.4419 100.808 70.3829 100.682 70.3089C100.435 70.1529 100.231 69.9379 100.053 69.6419C99.8854 69.3769 99.7544 69.0289 99.6444 68.6709C99.6285 68.6076 99.6115 68.5451 99.5944 68.4826C99.5611 68.3606 99.5279 68.2389 99.5034 68.1119C99.4604 67.9199 99.4194 67.7189 99.4064 67.6259C99.3244 67.1439 99.2644 66.6679 99.2104 66.1949L99.0654 64.7909C99.0599 64.7321 99.0551 64.6798 99.0507 64.632C99.0324 64.4312 99.0212 64.3079 98.9864 64.1109L98.9864 64.1108C98.9714 64.0368 98.9554 63.9578 98.9154 63.8909C98.8401 63.7861 98.7377 63.8673 98.6629 63.9267C98.6514 63.9359 98.6405 63.9445 98.6304 63.9519C98.5454 64.0239 98.4654 64.1079 98.3844 64.1959L98.2634 64.3319L98.0964 64.5349L97.6434 65.1159L96.3834 66.7479C95.8284 67.4659 95.2364 68.0899 94.7334 68.3529C94.706 68.3663 94.6789 68.38 94.6519 68.3937C94.4689 68.4863 94.2899 68.577 94.0494 68.5439C93.783 68.4659 93.7133 68.2551 93.6522 68.0705C93.642 68.0396 93.632 68.0095 93.6214 67.9809C93.4424 67.4269 93.4774 66.5439 93.6264 65.5479L93.7854 64.3509L93.9024 63.3689L93.9804 62.5189C94.1064 61.4729 94.2054 61.2339 94.6014 60.9679C94.6421 60.9401 94.681 60.9064 94.719 60.8734C94.7604 60.8375 94.8008 60.8024 94.8414 60.7769C95.0784 60.5749 95.5454 61.1009 95.5844 61.9919C95.6304 62.5767 95.5857 63.1404 95.5411 63.7012C95.5382 63.7378 95.5353 63.7743 95.5324 63.8109L95.4374 64.6989L95.3834 65.1389L95.3704 65.2429L95.3744 65.2519L95.3814 65.2649C95.4214 65.3239 95.4524 65.2599 95.4524 65.2599L95.4534 65.2579L95.4554 65.2629L95.4594 65.2649H95.4614L95.5544 65.1469L95.9874 64.5969L96.8794 63.4769L97.2794 62.9999C97.3789 62.8786 97.4816 62.769 97.5844 62.6593C97.6325 62.6079 97.6806 62.5565 97.7284 62.5039C98.0334 62.2009 98.3474 61.9579 98.6404 61.8529L98.6424 61.8979Z" fill="#231F20"/>
<path d="M98.6424 61.8979C98.9314 61.7869 99.2284 61.7859 99.5604 61.9329C99.6049 61.9716 99.6481 62.0067 99.6901 62.0408C99.8324 62.1563 99.9605 62.2603 100.072 62.4549C100.219 62.6869 100.309 63.0489 100.363 63.4219L100.559 65.1349C100.563 65.1675 100.567 65.2002 100.57 65.2328C100.656 65.9984 100.741 66.765 100.872 67.4709C100.896 67.6429 100.947 67.7739 101.04 67.9359C101.072 67.9879 101.157 68.0679 101.201 68.0199C101.29 67.9309 101.348 67.8099 101.415 67.6579C101.455 67.6049 101.648 66.9349 101.774 66.4589C102.045 65.4389 102.279 64.3979 102.498 63.3529C102.712 62.3159 102.896 61.2659 103.056 60.2249C103.087 60.0225 103.117 59.8199 103.146 59.6172C103.312 58.4768 103.478 57.3337 103.882 56.2129C104.04 55.7929 104.303 55.9409 104.52 56.3489C104.738 56.7579 104.962 57.4499 104.89 58.2229C104.544 60.9509 104.154 63.7059 103.338 66.4299C103.228 66.8178 103.117 67.2051 103.006 67.5934C102.932 67.8526 102.858 68.1122 102.783 68.3729C102.742 68.5156 102.69 68.6598 102.638 68.8042C102.607 68.8905 102.576 68.9768 102.547 69.0629C102.523 69.1149 102.499 69.1683 102.474 69.2219C102.404 69.3761 102.333 69.5317 102.255 69.6609C102.099 69.9603 101.922 70.1289 101.731 70.3109C101.674 70.366 101.615 70.4223 101.554 70.4839C101.437 70.5159 101.27 70.5069 101.105 70.4679C100.944 70.4419 100.808 70.3829 100.682 70.3089C100.435 70.1529 100.231 69.9379 100.053 69.6419C99.8854 69.3769 99.7544 69.0289 99.6444 68.6709C99.6285 68.6076 99.6115 68.5451 99.5944 68.4826C99.5611 68.3606 99.5279 68.2389 99.5034 68.1119C99.4604 67.9199 99.4194 67.7189 99.4064 67.6259C99.3244 67.1439 99.2644 66.6679 99.2104 66.1949L99.0654 64.7909C99.0599 64.7321 99.0551 64.6798 99.0507 64.632C99.0324 64.4312 99.0212 64.3079 98.9864 64.1109L98.9864 64.1108C98.9714 64.0368 98.9554 63.9578 98.9154 63.8909C98.8401 63.7861 98.7377 63.8673 98.6629 63.9267C98.6514 63.9359 98.6405 63.9445 98.6304 63.9519C98.5454 64.0239 98.4654 64.1079 98.3844 64.1959L98.2634 64.3319L98.0964 64.5349L97.6434 65.1159L96.3834 66.7479C95.8284 67.4659 95.2364 68.0899 94.7334 68.3529C94.706 68.3663 94.6789 68.38 94.6519 68.3937C94.4689 68.4863 94.2899 68.577 94.0494 68.5439C93.783 68.4659 93.7133 68.2551 93.6522 68.0705C93.642 68.0396 93.632 68.0095 93.6214 67.9809C93.4424 67.4269 93.4774 66.5439 93.6264 65.5479L93.7854 64.3509L93.9024 63.3689L93.9804 62.5189C94.1064 61.4729 94.2054 61.2339 94.6014 60.9679C94.6421 60.9401 94.681 60.9064 94.719 60.8734C94.7604 60.8375 94.8008 60.8024 94.8414 60.7769C95.0784 60.5749 95.5454 61.1009 95.5844 61.9919C95.6304 62.5767 95.5857 63.1404 95.5411 63.7012C95.5382 63.7378 95.5353 63.7743 95.5324 63.8109L95.4374 64.6989L95.3834 65.1389L95.3704 65.2429L95.3744 65.2519L95.3814 65.2649C95.4214 65.3239 95.4524 65.2599 95.4524 65.2599L95.4534 65.2579L95.4554 65.2629L95.4594 65.2649H95.4614L95.5544 65.1469L95.9874 64.5969L96.8794 63.4769L97.2794 62.9999C97.3789 62.8786 97.4816 62.769 97.5844 62.6593C97.6325 62.6079 97.6806 62.5565 97.7284 62.5039C98.0334 62.2009 98.3474 61.9579 98.6404 61.8529L98.6424 61.8979Z" stroke="#E4E4E7"/>
<path d="M89.582 107.358L81.093 108.192L77.997 108.533C74.35 108.868 70.693 109.141 67.033 109.334C65.406 109.403 63.774 109.473 62.161 109.543C61.8198 109.551 61.4786 109.563 61.1372 109.574C60.4409 109.598 59.7442 109.622 59.047 109.62C58.1452 109.605 57.2441 109.528 56.3464 109.452C56.2089 109.441 56.0714 109.429 55.934 109.418C55.289 109.356 55.377 109.289 55.923 109.156C55.9731 109.144 56.027 109.131 56.0846 109.118C56.6551 108.983 57.5803 108.765 58.654 108.607C60.522 108.51 62.3848 108.377 64.2509 108.245C66.5827 108.079 68.9196 107.913 71.278 107.816C73.2141 107.716 75.2014 107.489 77.1835 107.262C77.7988 107.192 78.4135 107.122 79.026 107.056L87.569 106.129C89.333 105.948 91.06 105.767 92.795 105.484C94.2439 105.239 95.696 104.994 97.1447 104.749C98.3287 104.55 99.5104 104.35 100.686 104.152C101.197 104.064 101.705 103.974 102.212 103.885C103.727 103.616 105.233 103.35 106.766 103.163C107.035 103.131 107.302 103.1 107.569 103.069C107.75 103.048 107.931 103.027 108.114 103.006C109.811 102.875 110.361 103.011 110.725 103.42C110.75 103.448 110.777 103.476 110.804 103.504C110.867 103.569 110.93 103.634 110.963 103.7C111.122 104.017 110.445 104.298 109.245 104.434C105.679 104.845 101.944 105.441 98.156 106.096C97.8947 106.14 97.6331 106.185 97.3712 106.23C94.8141 106.667 92.2288 107.109 89.59 107.394L89.582 107.358Z" fill="#231F20"/>
<path d="M89.582 107.358L81.093 108.192L77.997 108.533C74.35 108.868 70.693 109.141 67.033 109.334C65.406 109.403 63.774 109.473 62.161 109.543C61.8198 109.551 61.4786 109.563 61.1372 109.574C60.4409 109.598 59.7442 109.622 59.047 109.62C58.1452 109.605 57.2441 109.528 56.3464 109.452C56.2089 109.441 56.0714 109.429 55.934 109.418C55.289 109.356 55.377 109.289 55.923 109.156C55.9731 109.144 56.027 109.131 56.0846 109.118C56.6551 108.983 57.5803 108.765 58.654 108.607C60.522 108.51 62.3848 108.377 64.2509 108.245C66.5827 108.079 68.9196 107.913 71.278 107.816C73.2141 107.716 75.2014 107.489 77.1835 107.262C77.7988 107.192 78.4135 107.122 79.026 107.056L87.569 106.129C89.333 105.948 91.06 105.767 92.795 105.484C94.2439 105.239 95.696 104.994 97.1447 104.749C98.3287 104.55 99.5104 104.35 100.686 104.152C101.197 104.064 101.705 103.974 102.212 103.885C103.727 103.616 105.233 103.35 106.766 103.163C107.035 103.131 107.302 103.1 107.569 103.069C107.75 103.048 107.931 103.027 108.114 103.006C109.811 102.875 110.361 103.011 110.725 103.42C110.75 103.448 110.777 103.476 110.804 103.504C110.867 103.569 110.93 103.634 110.963 103.7C111.122 104.017 110.445 104.298 109.245 104.434C105.679 104.845 101.944 105.441 98.156 106.096C97.8947 106.14 97.6331 106.185 97.3712 106.23C94.8141 106.667 92.2288 107.109 89.59 107.394L89.582 107.358Z" stroke="#E4E4E7"/>
<path d="M41.375 55.0811C41.363 50.6941 41.217 46.3041 40.842 41.9401C40.7356 40.7217 40.5754 39.5109 40.4154 38.3027C40.3664 37.9323 40.3174 37.5622 40.27 37.1921C39.903 34.4161 39.451 31.6371 38.66 29.0091C38.262 27.7081 37.767 26.4101 37.052 25.4101C36.693 24.9191 36.264 24.5671 35.873 24.4701C35.515 24.3871 34.935 24.5511 34.508 24.8651C33.711 25.4371 33.168 26.5331 32.807 27.6531C32.439 28.7871 32.212 29.9941 32.051 31.2051C32.0384 31.3125 32.0253 31.4195 32.0122 31.5265C31.9774 31.8102 31.9427 32.0933 31.918 32.3801L31.887 32.9081L31.882 33.0301C31.8834 33.0611 31.92 33.0613 31.9538 33.0615C31.968 33.0616 31.9817 33.0617 31.992 33.0641L32.25 33.0681L32.498 33.0691L33.042 33.0841C34.663 33.1441 36.296 33.2271 37.957 33.6591C39.027 33.9911 38.645 34.4621 37.745 34.7981C36.84 35.1531 35.341 35.5191 33.521 35.4501L32.159 35.3981C32.0973 35.3954 32.0354 35.3928 31.9736 35.3902C31.6255 35.3757 31.2768 35.3612 30.944 35.3221C30.746 35.3011 30.57 35.2571 30.408 35.1971C30.3869 35.1782 30.3647 35.16 30.3425 35.1418C30.3047 35.1108 30.2668 35.0797 30.234 35.0451L30.127 34.8521L30.026 34.6691L29.998 34.6191L29.995 34.6121C29.7668 34.7992 29.7911 34.7771 29.8163 34.7542C29.8303 34.7415 29.8446 34.7286 29.816 34.7511L29.813 34.7371L29.807 34.7061L29.784 34.5861L29.69 34.1031C29.6744 33.9842 29.6489 33.8729 29.6235 33.7616C29.5772 33.5592 29.5308 33.3564 29.543 33.1061L29.666 32.0061L29.75 31.3761C29.994 29.6941 30.31 27.9911 31.003 26.2701C31.358 25.4161 31.809 24.5371 32.566 23.7471C32.949 23.3621 33.399 22.9881 33.947 22.7471C34.211 22.6071 34.494 22.5191 34.785 22.4531C35.048 22.3691 35.422 22.3411 35.758 22.3451C36.47 22.3691 37.108 22.6721 37.583 23.0171C38.078 23.3671 38.396 23.7761 38.707 24.1761C39.276 24.9871 39.647 25.8151 39.964 26.6411C40.697 28.6191 41.174 30.6231 41.604 32.6461C42.022 34.6691 42.354 36.7091 42.59 38.7381C43.108 43.2011 43.342 47.6741 43.441 52.1431C43.499 54.8941 43.491 57.6461 43.445 60.3931C43.369 64.5561 43.137 68.7321 42.83 72.8551C42.8035 73.2082 42.7773 73.5608 42.7512 73.9127C42.5405 76.7552 42.3324 79.5627 41.924 82.3861C41.9027 82.5303 41.882 82.674 41.8613 82.8175C41.7819 83.3686 41.7029 83.9161 41.595 84.4731C41.071 87.0741 40.637 87.8611 39.931 88.2271C39.8854 88.2507 39.8389 88.2773 39.7923 88.3039C39.6733 88.3718 39.5539 88.44 39.449 88.4601C38.947 88.5481 38.963 87.4631 39.282 85.6311C40.188 80.1641 40.691 74.2741 41.023 68.3521C41.255 63.9501 41.375 59.5131 41.322 55.0871L41.375 55.0811Z" fill="#231F20"/>
<path d="M41.375 55.0811C41.363 50.6941 41.217 46.3041 40.842 41.9401C40.7356 40.7217 40.5754 39.5109 40.4154 38.3027C40.3664 37.9323 40.3174 37.5622 40.27 37.1921C39.903 34.4161 39.451 31.6371 38.66 29.0091C38.262 27.7081 37.767 26.4101 37.052 25.4101C36.693 24.9191 36.264 24.5671 35.873 24.4701C35.515 24.3871 34.935 24.5511 34.508 24.8651C33.711 25.4371 33.168 26.5331 32.807 27.6531C32.439 28.7871 32.212 29.9941 32.051 31.2051C32.0384 31.3125 32.0253 31.4195 32.0122 31.5265C31.9774 31.8102 31.9427 32.0933 31.918 32.3801L31.887 32.9081L31.882 33.0301C31.8834 33.0611 31.92 33.0613 31.9538 33.0615C31.968 33.0616 31.9817 33.0617 31.992 33.0641L32.25 33.0681L32.498 33.0691L33.042 33.0841C34.663 33.1441 36.296 33.2271 37.957 33.6591C39.027 33.9911 38.645 34.4621 37.745 34.7981C36.84 35.1531 35.341 35.5191 33.521 35.4501L32.159 35.3981C32.0973 35.3954 32.0354 35.3928 31.9736 35.3902C31.6255 35.3757 31.2768 35.3612 30.944 35.3221C30.746 35.3011 30.57 35.2571 30.408 35.1971C30.3869 35.1782 30.3647 35.16 30.3425 35.1418C30.3047 35.1108 30.2668 35.0797 30.234 35.0451L30.127 34.8521L30.026 34.6691L29.998 34.6191L29.995 34.6121C29.7668 34.7992 29.7911 34.7771 29.8163 34.7542C29.8303 34.7415 29.8446 34.7286 29.816 34.7511L29.813 34.7371L29.807 34.7061L29.784 34.5861L29.69 34.1031C29.6744 33.9842 29.6489 33.8729 29.6235 33.7616C29.5772 33.5592 29.5308 33.3564 29.543 33.1061L29.666 32.0061L29.75 31.3761C29.994 29.6941 30.31 27.9911 31.003 26.2701C31.358 25.4161 31.809 24.5371 32.566 23.7471C32.949 23.3621 33.399 22.9881 33.947 22.7471C34.211 22.6071 34.494 22.5191 34.785 22.4531C35.048 22.3691 35.422 22.3411 35.758 22.3451C36.47 22.3691 37.108 22.6721 37.583 23.0171C38.078 23.3671 38.396 23.7761 38.707 24.1761C39.276 24.9871 39.647 25.8151 39.964 26.6411C40.697 28.6191 41.174 30.6231 41.604 32.6461C42.022 34.6691 42.354 36.7091 42.59 38.7381C43.108 43.2011 43.342 47.6741 43.441 52.1431C43.499 54.8941 43.491 57.6461 43.445 60.3931C43.369 64.5561 43.137 68.7321 42.83 72.8551C42.8035 73.2082 42.7773 73.5608 42.7512 73.9127C42.5405 76.7552 42.3324 79.5627 41.924 82.3861C41.9027 82.5303 41.882 82.674 41.8613 82.8175C41.7819 83.3686 41.7029 83.9161 41.595 84.4731C41.071 87.0741 40.637 87.8611 39.931 88.2271C39.8854 88.2507 39.8389 88.2773 39.7923 88.3039C39.6733 88.3718 39.5539 88.44 39.449 88.4601C38.947 88.5481 38.963 87.4631 39.282 85.6311C40.188 80.1641 40.691 74.2741 41.023 68.3521C41.255 63.9501 41.375 59.5131 41.322 55.0871L41.375 55.0811Z" stroke="#E4E4E7"/>
<path d="M34.5632 123.324C35.4252 124.175 36.6462 124.725 37.9462 124.651C38.1832 124.645 38.4182 124.615 38.6472 124.546C38.8822 124.501 39.1092 124.429 39.3382 124.349C40.9842 123.871 42.4212 122.61 43.5702 121.024C44.0822 120.326 44.5162 119.558 44.9252 118.786L44.9332 118.77C45.4347 117.772 45.9462 116.754 46.6852 115.854C46.9172 115.573 47.1402 115.764 47.2642 116.179C47.3822 116.592 47.4452 117.237 47.2072 117.845C46.7882 118.922 46.2222 119.953 45.6212 120.994C45.0042 122.023 44.2852 123.039 43.3462 123.91C42.2692 124.962 40.8982 126.017 39.2972 126.369C37.5602 126.792 35.6122 126.501 34.1412 125.477C33.2232 124.871 32.5142 124.001 32.0282 123.054C31.2682 121.61 31.1612 119.948 31.3132 118.455C31.4272 117.282 31.6042 116.14 31.9512 115.053C31.9739 114.981 31.9956 114.908 32.0172 114.836C32.0668 114.67 32.1162 114.505 32.1782 114.341C32.5262 113.475 32.7792 113.258 33.0692 113.15C33.0945 113.142 33.12 113.132 33.1449 113.122C33.1889 113.104 33.2312 113.087 33.2682 113.082C33.4602 113.056 33.4952 113.469 33.4392 114.156C33.3889 114.553 33.3326 114.95 33.2765 115.345C33.0503 116.94 32.8281 118.505 33.0252 119.953C33.1342 120.599 33.2612 121.227 33.5242 121.799C33.7952 122.36 34.1512 122.869 34.5952 123.287L34.5632 123.324Z" fill="#231F20"/>
<path d="M34.5632 123.324C35.4252 124.175 36.6462 124.725 37.9462 124.651C38.1832 124.645 38.4182 124.615 38.6472 124.546C38.8822 124.501 39.1092 124.429 39.3382 124.349C40.9842 123.871 42.4212 122.61 43.5702 121.024C44.0822 120.326 44.5162 119.558 44.9252 118.786L44.9332 118.77C45.4347 117.772 45.9462 116.754 46.6852 115.854C46.9172 115.573 47.1402 115.764 47.2642 116.179C47.3822 116.592 47.4452 117.237 47.2072 117.845C46.7882 118.922 46.2222 119.953 45.6212 120.994C45.0042 122.023 44.2852 123.039 43.3462 123.91C42.2692 124.962 40.8982 126.017 39.2972 126.369C37.5602 126.792 35.6122 126.501 34.1412 125.477C33.2232 124.871 32.5142 124.001 32.0282 123.054C31.2682 121.61 31.1612 119.948 31.3132 118.455C31.4272 117.282 31.6042 116.14 31.9512 115.053C31.9739 114.981 31.9956 114.908 32.0172 114.836C32.0668 114.67 32.1162 114.505 32.1782 114.341C32.5262 113.475 32.7792 113.258 33.0692 113.15C33.0945 113.142 33.12 113.132 33.1449 113.122C33.1889 113.104 33.2312 113.087 33.2682 113.082C33.4602 113.056 33.4952 113.469 33.4392 114.156C33.3889 114.553 33.3326 114.95 33.2765 115.345C33.0503 116.94 32.8281 118.505 33.0252 119.953C33.1342 120.599 33.2612 121.227 33.5242 121.799C33.7952 122.36 34.1512 122.869 34.5952 123.287L34.5632 123.324Z" stroke="#E4E4E7"/>
<path d="M71.8282 128.329C70.3282 128.38 68.8272 128.444 67.3272 128.537C67.213 128.547 67.0989 128.558 66.9848 128.568C66.5532 128.607 66.123 128.645 65.6902 128.683C65.1035 128.721 64.5162 128.756 63.9286 128.79C62.5854 128.87 61.2411 128.949 59.9012 129.069C59.0765 129.137 58.2564 129.263 57.4454 129.389C57.4146 129.394 57.3839 129.398 57.3532 129.403C57.1474 129.436 56.9423 129.475 56.7371 129.514C56.4049 129.577 56.0725 129.639 55.7362 129.677C55.1912 129.729 54.6452 129.764 54.0902 129.756C53.7442 129.748 53.7452 129.493 53.9832 129.164C54.2222 128.842 54.6922 128.4 55.3072 128.206C57.5152 127.725 59.7582 127.521 62.0262 127.426C62.8631 127.396 63.7136 127.301 64.5664 127.207C65.0964 127.148 65.6273 127.089 66.1562 127.045C67.6742 126.923 69.1942 126.829 70.7152 126.745L73.5242 126.604C73.8623 126.59 74.2006 126.576 74.5389 126.562C75.6218 126.517 76.7046 126.472 77.7782 126.427C78.2488 126.408 78.7157 126.364 79.1827 126.32C79.8042 126.262 80.4258 126.204 81.0562 126.203C81.2962 126.199 81.5412 126.207 81.7872 126.226C82.0172 126.247 82.2062 126.271 82.3642 126.302C82.5198 126.343 82.6486 126.42 82.7487 126.479L82.7552 126.483C82.9592 126.613 83.0622 126.749 83.1282 126.922C83.1382 126.948 83.1497 126.975 83.161 127C83.1838 127.052 83.2059 127.102 83.2132 127.148C83.2502 127.372 82.8492 127.549 82.2402 127.694C80.7641 127.979 79.2085 128.043 77.6225 128.108C77.2026 128.125 76.7805 128.143 76.3572 128.164C74.8532 128.232 73.3412 128.301 71.8332 128.37L71.8282 128.329Z" fill="#231F20"/>
<path d="M71.8282 128.329C70.3282 128.38 68.8272 128.444 67.3272 128.537C67.213 128.547 67.0989 128.558 66.9848 128.568C66.5532 128.607 66.123 128.645 65.6902 128.683C65.1035 128.721 64.5162 128.756 63.9286 128.79C62.5854 128.87 61.2411 128.949 59.9012 129.069C59.0765 129.137 58.2564 129.263 57.4454 129.389C57.4146 129.394 57.3839 129.398 57.3532 129.403C57.1474 129.436 56.9423 129.475 56.7371 129.514C56.4049 129.577 56.0725 129.639 55.7362 129.677C55.1912 129.729 54.6452 129.764 54.0902 129.756C53.7442 129.748 53.7452 129.493 53.9832 129.164C54.2222 128.842 54.6922 128.4 55.3072 128.206C57.5152 127.725 59.7582 127.521 62.0262 127.426C62.8631 127.396 63.7136 127.301 64.5664 127.207C65.0964 127.148 65.6273 127.089 66.1562 127.045C67.6742 126.923 69.1942 126.829 70.7152 126.745L73.5242 126.604C73.8623 126.59 74.2006 126.576 74.5389 126.562C75.6218 126.517 76.7046 126.472 77.7782 126.427C78.2488 126.408 78.7157 126.364 79.1827 126.32C79.8042 126.262 80.4258 126.204 81.0562 126.203C81.2962 126.199 81.5412 126.207 81.7872 126.226C82.0172 126.247 82.2062 126.271 82.3642 126.302C82.5198 126.343 82.6486 126.42 82.7487 126.479L82.7552 126.483C82.9592 126.613 83.0622 126.749 83.1282 126.922C83.1382 126.948 83.1497 126.975 83.161 127C83.1838 127.052 83.2059 127.102 83.2132 127.148C83.2502 127.372 82.8492 127.549 82.2402 127.694C80.7641 127.979 79.2085 128.043 77.6225 128.108C77.2026 128.125 76.7805 128.143 76.3572 128.164C74.8532 128.232 73.3412 128.301 71.8332 128.37L71.8282 128.329Z" stroke="#E4E4E7"/>
<path d="M35.6428 85.2324C36.3848 81.2014 37.0008 77.1414 37.4178 73.0564C37.5548 71.5644 37.6878 70.0724 37.7888 68.5784C38.2648 63.3184 38.5248 58.0304 38.5568 52.7374C38.5748 50.3884 38.4748 48.0274 38.3558 45.6994C38.323 45.1363 38.2892 44.573 38.2554 44.0094C38.1097 41.5805 37.9637 39.1474 37.8988 36.7124C37.8828 35.7774 38.2218 35.8694 38.6388 36.6284C39.0528 37.3864 39.5818 38.8124 39.7688 40.5434C39.9458 42.0764 40.0728 43.6134 40.1928 45.1524C40.2648 46.6934 40.3108 48.2374 40.3518 49.7814C40.3522 49.8749 40.3527 49.9683 40.3532 50.0618C40.3609 51.5144 40.3685 52.968 40.3488 54.4224C40.3153 55.33 40.2822 56.2385 40.2491 57.1487C40.2257 57.7901 40.2023 58.4322 40.1788 59.0754C40.0843 60.3639 40.0314 61.6708 39.978 62.9869C39.9545 63.5665 39.931 64.148 39.9038 64.7304C39.8697 65.2703 39.84 65.8113 39.8103 66.3527C39.7353 67.7196 39.6602 69.0882 39.5148 70.4434C39.0938 74.6034 38.5618 78.7554 37.8148 82.8694L37.1218 86.6654L36.2778 90.4294C35.9666 91.9721 35.5484 93.4932 35.1308 95.0123C35.0316 95.373 34.9324 95.7336 34.8348 96.0944C34.7368 96.4366 34.6459 96.7806 34.5551 97.1245C34.3974 97.7212 34.2399 98.3175 34.0458 98.9024C33.9651 99.1535 33.8846 99.4045 33.8041 99.6553C33.588 100.328 33.3724 101 33.1568 101.67C33.0824 101.908 33.0088 102.146 32.9353 102.384C32.566 103.578 32.1993 104.763 31.7498 105.917C31.5803 106.381 31.4137 106.844 31.247 107.308C30.9119 108.241 30.5767 109.174 30.2188 110.101C30.0991 110.362 29.9801 110.621 29.8611 110.88C29.7087 111.212 29.5562 111.543 29.4018 111.88C28.3028 114.073 27.8668 114.727 27.4088 115.083C27.3748 115.11 27.3392 115.14 27.3039 115.17C27.2312 115.232 27.1596 115.292 27.1058 115.317C26.8388 115.443 27.0928 114.462 27.6938 112.787C29.5818 107.874 31.3638 102.651 32.8668 97.3134C33.063 96.4994 33.275 95.6888 33.4871 94.8777C33.7969 93.6928 34.107 92.5069 34.3688 91.3084C34.5141 90.5775 34.6719 89.8489 34.8297 89.1203C35.1095 87.8283 35.3894 86.5361 35.5998 85.2304L35.6428 85.2324Z" fill="#231F20"/>
<path d="M35.6428 85.2324C36.3848 81.2014 37.0008 77.1414 37.4178 73.0564C37.5548 71.5644 37.6878 70.0724 37.7888 68.5784C38.2648 63.3184 38.5248 58.0304 38.5568 52.7374C38.5748 50.3884 38.4748 48.0274 38.3558 45.6994C38.323 45.1363 38.2892 44.573 38.2554 44.0094C38.1097 41.5805 37.9637 39.1474 37.8988 36.7124C37.8828 35.7774 38.2218 35.8694 38.6388 36.6284C39.0528 37.3864 39.5818 38.8124 39.7688 40.5434C39.9458 42.0764 40.0728 43.6134 40.1928 45.1524C40.2648 46.6934 40.3108 48.2374 40.3518 49.7814C40.3522 49.8749 40.3527 49.9683 40.3532 50.0618C40.3609 51.5144 40.3685 52.968 40.3488 54.4224C40.3153 55.33 40.2822 56.2385 40.2491 57.1487C40.2257 57.7901 40.2023 58.4322 40.1788 59.0754C40.0843 60.3639 40.0314 61.6708 39.978 62.9869C39.9545 63.5665 39.931 64.148 39.9038 64.7304C39.8697 65.2703 39.84 65.8113 39.8103 66.3527C39.7353 67.7196 39.6602 69.0882 39.5148 70.4434C39.0938 74.6034 38.5618 78.7554 37.8148 82.8694L37.1218 86.6654L36.2778 90.4294C35.9666 91.9721 35.5484 93.4932 35.1308 95.0123C35.0316 95.373 34.9324 95.7336 34.8348 96.0944C34.7368 96.4366 34.6459 96.7806 34.5551 97.1245C34.3974 97.7212 34.2399 98.3175 34.0458 98.9024C33.9651 99.1535 33.8846 99.4045 33.8041 99.6553C33.588 100.328 33.3724 101 33.1568 101.67C33.0824 101.908 33.0088 102.146 32.9353 102.384C32.566 103.578 32.1993 104.763 31.7498 105.917C31.5803 106.381 31.4137 106.844 31.247 107.308C30.9119 108.241 30.5767 109.174 30.2188 110.101C30.0991 110.362 29.9801 110.621 29.8611 110.88C29.7087 111.212 29.5562 111.543 29.4018 111.88C28.3028 114.073 27.8668 114.727 27.4088 115.083C27.3748 115.11 27.3392 115.14 27.3039 115.17C27.2312 115.232 27.1596 115.292 27.1058 115.317C26.8388 115.443 27.0928 114.462 27.6938 112.787C29.5818 107.874 31.3638 102.651 32.8668 97.3134C33.063 96.4994 33.275 95.6888 33.4871 94.8777C33.7969 93.6928 34.107 92.5069 34.3688 91.3084C34.5141 90.5775 34.6719 89.8489 34.8297 89.1203C35.1095 87.8283 35.3894 86.5361 35.5998 85.2304L35.6428 85.2324Z" stroke="#E4E4E7"/>
</svg>
