<svg width="148" height="148" viewBox="0 0 148 148" fill="none" xmlns="http://www.w3.org/2000/svg">
<path fill-rule="evenodd" clip-rule="evenodd" d="M45.7854 69.9746C46.3524 70.5156 46.8804 71.0906 47.3464 71.7066C47.5134 71.9336 47.7084 72.1386 47.8604 72.3746C48.4284 73.1876 48.9054 74.0496 49.3724 74.9096C49.5844 75.2926 49.7904 75.6676 50.0004 76.0476C50.2654 76.5336 50.5434 77.0126 50.7424 77.5286C50.8684 77.8496 50.2484 77.6816 49.9274 77.1336C49.3644 76.1616 48.8664 75.1696 48.3344 74.1816C48.0154 73.5906 47.6004 73.0296 47.1924 72.4826C46.7354 71.8906 46.2674 71.2996 45.7234 70.7886C45.4054 70.4536 45.0364 70.1796 44.6824 69.8866C44.1134 69.4936 43.5154 69.1206 42.8654 68.8956C42.6104 68.8186 42.3614 68.7266 42.1024 68.6826C41.8434 68.6486 41.5814 68.6136 41.3244 68.5786C41.2124 68.5586 41.0964 68.5786 40.9814 68.5716C40.5544 68.5566 40.4224 68.5006 40.3294 68.3096C40.3074 68.2656 40.2794 68.2226 40.2664 68.1786C40.2234 68.0336 40.4084 67.9266 40.7514 67.9096C41.7714 67.8246 42.8644 68.1116 43.8244 68.6046C44.5554 68.9496 45.1894 69.4526 45.7954 69.9606L45.7854 69.9746Z" fill="#231F20"/>
<path fill-rule="evenodd" clip-rule="evenodd" d="M111.758 70.4414C111.383 70.8234 111.016 71.2204 110.7 71.6604C110.586 71.8214 110.476 71.9854 110.373 72.1534C109.972 72.7244 109.649 73.3464 109.35 73.9834C109.239 74.2734 109.117 74.5644 109.053 74.8674C108.953 75.2534 108.895 75.6424 108.737 76.0184C108.649 76.2564 108.229 75.8724 108.256 75.3734C108.405 74.5264 108.707 73.7054 109.15 72.9634C109.424 72.5264 109.655 72.0464 109.95 71.6114C110.283 71.1404 110.637 70.6854 111.037 70.2714C111.274 70.0074 111.539 69.7734 111.797 69.5324C112.205 69.1854 112.635 68.8604 113.09 68.5804C113.436 68.3534 113.793 68.1444 114.185 67.9974C114.269 67.9644 114.362 67.9284 114.442 67.8974C114.787 67.8404 114.904 67.8704 114.992 67.9604C115.013 67.9804 115.037 68.0004 115.05 68.0214C115.093 68.0904 114.975 68.1944 114.769 68.3044C114.154 68.6204 113.573 68.9994 112.988 69.4084C112.555 69.7124 112.154 70.0744 111.77 70.4524L111.758 70.4414Z" fill="#231F20"/>
<path fill-rule="evenodd" clip-rule="evenodd" d="M49.8144 49.9216C49.9614 50.5096 50.0894 51.1006 50.2124 51.6916C50.2584 51.9066 50.3284 52.1166 50.3614 52.3346C50.4884 53.1026 50.5754 53.8756 50.6664 54.6466C50.7044 54.9946 50.7414 55.3286 50.7794 55.6736C50.8304 56.1086 50.8714 56.5566 50.7984 57.0036C50.7614 57.2756 50.3604 56.9126 50.2684 56.4486C50.1164 55.5996 49.9354 54.7496 49.8644 53.8636C49.8104 53.3346 49.6434 52.8066 49.5274 52.2766C49.4034 51.6936 49.2734 51.1096 49.1304 50.5296C49.0364 50.1756 48.9524 49.8166 48.8444 49.4656C48.6864 48.9326 48.5284 48.3946 48.3154 47.8876C48.1544 47.4906 47.9304 47.1306 47.7204 46.7756C47.6744 46.6996 47.6244 46.6176 47.5794 46.5446C47.4244 46.2526 47.4394 46.1266 47.5524 45.9586C47.5794 45.9196 47.6014 45.8776 47.6304 45.8456C47.7244 45.7376 47.9024 45.7906 48.1224 45.9846C48.7024 46.5966 49.0024 47.3856 49.2934 48.1566C49.5024 48.7346 49.6724 49.3246 49.8344 49.9146L49.8144 49.9216Z" fill="#231F20"/>
<path fill-rule="evenodd" clip-rule="evenodd" d="M91.0052 55.5754C90.8172 54.9804 90.6942 54.3734 90.5752 53.7704C90.5322 53.5484 90.4922 53.3364 90.4492 53.1114C90.3372 52.3304 90.2812 51.5484 90.2182 50.7694C90.1962 50.4244 90.1592 50.0774 90.1192 49.7364C90.0732 49.2974 90.0112 48.8574 90.0312 48.4144C90.0432 48.1384 90.5262 48.4544 90.5842 48.9544C90.6722 49.8444 90.7632 50.7284 90.8162 51.6284C90.8512 52.1654 90.9682 52.7134 91.0662 53.2504C91.1672 53.8444 91.2992 54.4294 91.4572 55.0084C91.5602 55.3624 91.6742 55.7134 91.8072 56.0564C92.0142 56.5764 92.2472 57.0904 92.5212 57.5794C92.7332 57.9614 92.9812 58.3134 93.2112 58.6854C93.2622 58.7654 93.3172 58.8514 93.3652 58.9294C93.5402 59.2444 93.5542 59.3654 93.4372 59.5104C93.4102 59.5434 93.3862 59.5804 93.3562 59.6064C93.2542 59.6954 93.0902 59.6144 92.9402 59.4024C92.4942 58.7714 92.0772 58.0774 91.6982 57.3274C91.4192 56.7694 91.1862 56.1784 90.9912 55.5814L91.0052 55.5754Z" fill="#231F20"/>
<path fill-rule="evenodd" clip-rule="evenodd" d="M28.5055 62.4699C29.7405 64.8799 31.1245 67.2649 32.4985 69.6509C33.8595 72.0429 35.3175 74.4069 36.5335 76.9549C37.4225 78.7739 38.3365 80.5899 39.1255 82.4669C40.5105 85.7779 41.6795 89.2159 42.3495 92.7819C42.6855 94.5639 42.9005 96.3719 42.9545 98.1909C42.9935 100.015 42.8705 101.817 42.6505 103.608C42.2555 106.783 41.5265 109.918 40.5875 112.936C39.3795 116.809 37.8205 120.615 35.6445 124.035C34.9705 125.106 34.7275 124.766 34.8765 123.646C35.0455 122.533 35.4865 120.601 36.3735 118.517C37.9975 114.839 39.3155 111.033 40.1675 107.127C41.0065 103.218 41.4165 99.2169 40.9495 95.2389C40.4215 90.4449 38.5355 85.6709 36.4755 81.1209C35.9045 79.8669 35.3165 78.6189 34.7045 77.3769C34.1185 76.1409 33.4455 74.9589 32.7615 73.7469L28.6235 66.4999C27.9655 65.3139 27.3145 64.1209 26.7055 62.8949C26.4015 62.2819 26.1055 61.6619 25.8385 61.0129C25.7095 60.6839 25.5805 60.3559 25.4775 59.9909C25.3855 59.6789 25.2365 59.1099 25.4295 58.6379C25.7855 57.7959 26.3065 57.1449 27.0745 56.6869C27.7565 56.2909 28.5475 56.1789 29.2715 56.2259C30.0015 56.2759 30.6865 56.4729 31.3295 56.7319C32.6165 57.2589 33.7265 58.0709 34.7125 58.9839C36.6725 60.8269 38.1275 63.1529 38.9875 65.6699L39.1845 66.2759C39.2335 66.4489 39.2805 66.6219 39.3285 66.7929C39.3385 66.9219 39.4185 67.0289 39.5365 67.0799C39.5955 67.1129 39.6335 67.1299 39.7155 67.1669L40.0055 67.2899L41.2485 67.7839C42.0885 68.1289 42.9205 68.5249 43.7205 68.9819C45.3195 69.8999 46.7765 71.1009 47.9715 72.5379C48.5605 73.2409 49.0805 73.9769 49.5405 74.7769C50.3805 76.2689 50.7195 77.3489 50.8955 78.1109C51.0555 78.8799 51.0055 79.3579 50.8415 79.7639C50.7725 79.9489 50.7195 80.1779 50.6415 80.2909C50.3635 80.6749 49.7615 79.4549 48.8325 77.3959C47.8265 75.2659 46.4105 73.3339 44.5735 71.8619C43.6525 71.1279 42.6445 70.4979 41.5525 69.9779C41.0065 69.7109 40.4435 69.4829 39.8505 69.2309C39.5525 69.1059 39.2485 68.9829 38.8945 68.8129C38.6275 68.6839 38.3325 68.5129 38.1075 68.3009C37.9935 68.1949 37.8795 68.0809 37.8275 67.9289C37.7235 67.8109 37.7075 67.6419 37.6275 67.5069L37.4915 66.9429C37.4635 66.8189 37.4245 66.6979 37.3875 66.5759C37.3115 66.3329 37.2445 66.0879 37.1515 65.8499C36.9805 65.3679 36.7835 64.8929 36.5545 64.4319C36.1065 63.5059 35.5595 62.6189 34.9275 61.8019C33.7805 60.3429 32.3375 59.0389 30.7345 58.3439C29.9465 57.9789 29.1015 57.8709 28.4685 58.0179C28.1555 58.0989 27.8995 58.2409 27.6795 58.4509C27.5655 58.5499 27.4685 58.6809 27.3765 58.8219C27.3335 58.8969 27.2805 58.9609 27.2405 59.0419C27.2015 59.1309 27.1555 59.2259 27.1655 59.2009C27.1665 59.2099 27.1535 59.2099 27.1615 59.2249C27.1625 59.2569 27.2085 59.4359 27.2465 59.5629C27.3435 59.8579 27.4625 60.1729 27.6045 60.4949C27.8825 61.1389 28.2075 61.7929 28.5435 62.4439L28.5055 62.4699Z" fill="#231F20"/>
<path fill-rule="evenodd" clip-rule="evenodd" d="M125.252 68.7031C123.874 70.5881 122.466 72.4341 121.229 74.3351C120.923 74.8101 120.626 75.2881 120.366 75.7671C120.097 76.2421 119.896 76.7091 119.712 77.2591C119.353 78.3201 118.88 79.3481 118.676 80.4611C118.509 81.2661 118.254 82.0531 118.178 82.8761L117.87 85.3301C117.668 88.2361 117.684 91.1781 118.044 94.1071C118.425 97.0291 118.95 99.9511 119.751 102.811C120.427 105.357 121.279 107.875 122.219 110.322C123.417 113.473 124.844 116.544 125.884 119.785C126.215 120.793 125.835 120.789 125.147 120.105C124.478 119.414 123.408 118.085 122.629 116.287C119.979 109.885 117.606 103.224 116.664 96.1841C116.099 92.0011 115.723 87.5481 116.379 83.2101C116.696 80.8261 117.39 78.5011 118.271 76.2601C118.713 75.0901 119.393 74.0641 120.037 73.0711C120.697 72.0801 121.386 71.1211 122.082 70.1721L124.644 66.6871C125.47 65.5271 126.326 64.3421 126.922 63.1411C127.017 62.9511 127.101 62.7201 127.137 62.5891C127.163 62.4701 127.18 62.3261 127.087 62.2291C127.025 62.1541 126.887 61.9321 126.754 61.7921C126.595 61.6651 126.45 61.5161 126.28 61.4011C126.093 61.3131 125.918 61.2031 125.726 61.1241L125.116 60.9611C124.27 60.8121 123.36 60.9951 122.523 61.3181C120.814 61.9571 119.401 63.2991 118.331 64.7871C118.113 65.0531 117.965 65.3681 117.783 65.6571C117.6 65.9461 117.441 66.2481 117.309 66.5641C117.173 66.8771 117.009 67.1751 116.901 67.4971L116.53 68.5491L116.417 68.7871C116.335 68.8311 116.304 68.9211 116.232 68.9731C116.107 69.0921 115.96 69.2051 115.805 69.2801L115.196 69.6461C114.799 69.8901 114.423 70.1531 114.057 70.4301C113.326 70.9821 112.656 71.6071 112.038 72.2791C111.572 72.8001 111.156 73.3441 110.755 73.9221C109.295 76.0861 109.01 76.8851 108.294 77.2121C108.144 77.2931 107.981 77.4181 107.859 77.4551C107.652 77.5161 107.595 77.2671 107.65 76.7341C107.686 76.1951 107.957 75.4211 108.422 74.4741C109.171 73.0001 110.171 71.6041 111.396 70.3841C112.012 69.7801 112.674 69.2081 113.395 68.7081C113.754 68.4591 114.124 68.2201 114.496 67.9991L114.959 67.7281C114.967 67.7211 114.973 67.7121 114.972 67.7001C114.926 67.8071 115.047 67.4791 115.101 67.3301L115.303 66.7751C115.449 66.4091 115.643 66.0591 115.813 65.7011C115.976 65.3381 116.19 65.0001 116.403 64.6601C116.612 64.3181 116.823 63.9771 117.081 63.6641C118.039 62.3711 119.237 61.2081 120.702 60.3801C121.845 59.7321 123.169 59.2621 124.627 59.3061C125.348 59.3471 126.11 59.4741 126.79 59.8631C127.148 60.0201 127.443 60.2741 127.74 60.5311C127.898 60.6491 128.031 60.7881 128.142 60.9451L128.586 61.5131C128.669 61.7781 128.807 62.0391 128.797 62.3301C128.79 62.6021 128.763 62.9311 128.687 63.1471C128.571 63.5451 128.429 63.8491 128.283 64.1491C127.992 64.7401 127.67 65.2651 127.337 65.7771C126.673 66.7971 125.981 67.7641 125.29 68.7241L125.252 68.7031Z" fill="#231F20"/>
<path fill-rule="evenodd" clip-rule="evenodd" d="M40.7455 36.3039C40.2655 35.6779 39.7135 35.1509 39.1535 34.6909C38.8605 34.5129 38.5825 34.2509 38.2775 34.1279C38.1345 34.0539 37.9695 34.0079 37.8815 33.9799C37.7675 33.9529 37.7725 33.9509 37.7275 33.9509C37.6515 33.9569 37.5945 33.9869 37.5515 34.0919C37.4855 34.2519 37.4195 34.6219 37.4145 34.9679C37.3935 35.6909 37.4905 36.4919 37.6225 37.2849C37.7225 37.8679 37.8545 38.4499 37.9995 39.0389C38.1455 39.6219 38.2945 40.2699 38.4125 40.8379C39.3435 45.0149 40.4145 49.2599 41.1735 53.5459C41.5205 55.4489 41.8365 57.3719 42.0765 59.2909C42.3375 61.7379 42.6245 64.3419 41.6955 66.8269C41.4115 67.5989 41.0745 67.3169 40.8325 66.5929C40.6255 65.8689 40.3415 64.7529 40.3635 63.4289C40.4165 61.0739 40.1235 58.6369 39.7615 56.2099C39.3885 53.7789 38.9275 51.3349 38.4625 48.8689C37.9135 45.9249 36.9755 42.9069 36.3395 39.8799C35.9745 38.2099 35.5555 36.5249 35.6405 34.6209C35.6885 34.1399 35.7305 33.6339 36.0925 33.0249C36.2815 32.7489 36.5175 32.5009 36.8205 32.3569C37.1245 32.2309 37.4595 32.1519 37.7935 32.1949C39.0665 32.3509 39.6605 32.9679 40.4625 33.4889C42.1715 34.9489 43.3925 36.7359 44.4625 38.5649C46.0985 41.3389 47.3235 44.3139 48.4105 47.2869C49.2425 49.6039 50.0535 51.8889 50.5905 54.2989C50.7045 54.8309 50.8135 55.3559 50.9095 55.8989C51.0225 56.9179 51.0315 57.6049 50.9475 58.0859C50.8475 58.5739 50.6635 58.8459 50.4385 59.0539C50.3395 59.1489 50.2495 59.2739 50.1685 59.3249C49.9215 59.4899 49.5355 58.6879 49.2915 57.3279C48.5045 53.2569 47.1605 48.9819 45.4675 44.8669C44.8225 43.3489 44.1595 41.8249 43.3645 40.3889C42.9985 39.6469 42.5445 38.9749 42.1345 38.2669C41.6675 37.6169 41.2415 36.9099 40.7135 36.3359L40.7455 36.3039Z" fill="#231F20"/>
<path fill-rule="evenodd" clip-rule="evenodd" d="M52.2736 37.0917C51.7996 35.7647 51.2586 34.4627 50.6216 33.2257C49.9836 31.9937 49.2386 30.8097 48.3466 29.8627C47.7256 29.1727 46.8386 28.7027 46.4516 28.7787C46.2866 28.8017 46.0956 28.9097 46.0576 29.0117C45.9896 29.1387 45.9196 29.5387 45.9436 29.9397C45.9676 30.7507 46.1036 31.6617 46.2706 32.5517C46.6126 34.3457 47.0766 36.1567 47.5246 37.9727C47.9266 39.5837 48.3526 41.2057 48.7206 42.8317C48.9596 43.8767 49.1556 44.9417 49.2466 46.0347C49.3276 47.1237 49.3156 48.2697 48.9206 49.3757C48.6206 50.0697 48.3936 49.7957 48.2276 49.2027C48.0486 48.5957 47.7196 47.6877 47.5526 46.5647C46.8916 42.5437 45.5446 38.4317 44.7156 34.1027C44.4856 32.7917 44.1496 31.4897 44.0966 29.9937C44.0956 29.6117 44.0886 29.2287 44.1996 28.7697C44.2946 28.3317 44.5656 27.7347 45.0436 27.4337C45.4266 27.1197 45.9746 26.9287 46.4776 26.9237C46.9936 26.9037 47.4386 27.0517 47.8216 27.2237C48.6646 27.6207 49.2606 28.1907 49.8006 28.7707C50.3406 29.3547 50.7946 29.9807 51.2086 30.6227C52.0326 31.9077 52.7046 33.2557 53.2906 34.6297C54.0116 36.3217 54.5936 38.0587 55.0946 39.8117C55.8406 42.4707 56.3766 45.1887 56.8026 47.8837C57.1386 49.9777 57.4956 52.0337 57.7096 54.1277C57.7656 54.5887 57.8136 55.0387 57.8476 55.5057C57.9706 57.2347 57.8056 57.7907 57.3116 58.1657C57.1966 58.2507 57.0836 58.3627 56.9686 58.4127C56.5876 58.5787 56.2276 57.8887 56.0846 56.6537C55.6216 52.9937 55.2096 49.1667 54.4646 45.3807C53.9176 42.5737 53.2246 39.7777 52.2316 37.1117L52.2736 37.0917Z" fill="#231F20"/>
<path fill-rule="evenodd" clip-rule="evenodd" d="M63.3886 48.9171C63.2696 47.9341 63.1266 46.9521 62.9546 45.9771C62.7796 44.9701 62.6036 43.9981 62.3956 43.0191C62.2436 42.3061 62.0276 41.6121 61.8566 40.9091C61.5556 39.6701 61.2136 38.4421 60.7736 37.2761C60.5526 36.6971 60.3036 36.1311 60.0026 35.6341C59.7176 35.1411 59.3086 34.7031 59.0496 34.6451C58.9136 34.6171 58.7776 34.6391 58.6476 34.7121C58.4776 34.8131 58.3286 34.9551 58.1836 35.1201C57.9076 35.4631 57.7226 35.9381 57.6086 36.4471C57.3086 37.7711 57.4586 39.2611 56.9346 40.7751C56.7516 41.2581 56.5166 41.0841 56.2876 40.6591C56.0726 40.2301 55.6886 39.5491 55.6646 38.6921C55.6816 37.9351 55.7026 37.1421 55.8476 36.2971C55.9946 35.4721 56.2556 34.5021 57.0606 33.6741C57.2406 33.4651 57.5246 33.3201 57.7556 33.1461C58.0646 32.9711 58.4276 32.8711 58.7846 32.8371C59.5086 32.7701 60.2506 33.1931 60.6006 33.5451C61.3606 34.2871 61.7076 35.0491 62.0306 35.8011C62.7516 37.5991 63.3886 39.3971 63.8666 41.2261C64.3766 43.2431 64.7626 45.2331 65.1166 47.2791C65.3226 48.5341 65.4826 49.7951 65.6106 51.0571C65.8076 52.9681 65.8856 54.8961 65.9526 56.8021C66.0016 58.2831 66.1066 59.7431 66.0756 61.2291C66.0636 61.5561 66.0846 61.8791 66.0376 62.2071C65.9206 63.4291 65.6236 63.7851 65.1336 63.9611C65.0216 64.0021 64.9096 64.0611 64.8086 64.0771C64.6356 64.1041 64.5016 63.9851 64.3866 63.7511C64.2706 63.5161 64.1666 63.1661 64.1626 62.7381C64.0656 60.1991 64.0906 57.5631 63.9246 54.8851C63.8026 52.9011 63.6236 50.9051 63.3396 48.9281L63.3886 48.9171Z" fill="#231F20"/>
<path fill-rule="evenodd" clip-rule="evenodd" d="M69.9901 80.6892C70.1071 77.4382 69.8301 74.1242 69.7141 70.7632C69.6781 69.5372 69.6011 68.3042 69.6531 67.0632C69.8451 62.7752 69.9521 58.5182 69.7371 54.2722C69.6191 52.4072 69.4561 50.4822 68.9361 48.7952C68.8571 48.5312 68.7611 48.2652 68.6511 48.0532C68.5901 47.9192 68.5541 47.8832 68.5141 47.8312C68.4721 47.7822 68.4241 47.7342 68.3681 47.7062C68.2571 47.6322 68.1081 47.6632 68.0101 47.7392C67.9551 47.7702 67.9111 47.8142 67.8651 47.8552C67.7991 47.9242 67.6981 48.0072 67.6261 48.1032C66.9851 48.8452 66.6981 50.0072 66.2501 51.1732C65.9451 51.9072 65.7281 51.6942 65.6031 51.0042C65.5371 50.6572 65.4681 50.1872 65.4601 49.5952C65.4531 49.0062 65.5321 48.2562 65.9921 47.4802C66.2061 47.1302 66.4221 46.8372 66.7931 46.4932L67.1581 46.2092C67.2841 46.1262 67.4251 46.0772 67.5581 46.0092C67.8191 45.8592 68.1221 45.8252 68.4061 45.8312C68.9991 45.8532 69.5231 46.2092 69.8851 46.6872L70.1531 47.0452L70.3031 47.3162C70.4151 47.5012 70.4791 47.6692 70.5491 47.8412C71.0521 49.2092 71.1891 50.4762 71.3361 51.7522C71.5891 54.2942 71.5381 56.8062 71.4461 59.3202C71.4011 60.8252 71.3561 62.3512 71.3101 63.8882C71.2721 65.4322 71.2161 66.9722 71.2251 68.4612C71.2421 71.7712 71.5621 75.1222 71.6191 78.5122C71.6521 80.5982 71.5711 82.7072 71.2471 84.7932C70.9971 86.3702 70.6031 87.9412 69.9931 89.4322C69.3881 90.9212 68.6071 92.3282 67.7031 93.6342C67.0071 94.6562 66.2391 95.6142 65.4021 96.5102C64.5691 97.4102 63.6721 98.2582 62.6721 98.9952C62.2451 99.3362 61.7931 99.6282 61.3301 99.9332C59.5541 100.983 58.8211 100.996 58.2721 100.707C58.1451 100.638 57.9911 100.582 57.9061 100.5C57.6181 100.209 58.2711 99.6922 59.4511 99.0152C62.9641 97.0162 66.0901 93.8532 67.9441 90.0062C69.3451 87.1832 69.8711 83.9622 69.9491 80.6932L69.9901 80.6892Z" fill="#231F20"/>
<path fill-rule="evenodd" clip-rule="evenodd" d="M62.2353 110.07C62.0703 111.411 61.8883 112.759 61.7783 114.114C61.7503 114.61 61.7213 115.101 61.6933 115.598C61.5483 117.341 61.4173 119.091 61.3633 120.842C61.3433 121.619 61.3623 122.401 61.4083 123.169C61.4453 124.139 61.5223 125.184 61.4993 126.07C61.4853 126.298 61.2633 126.435 60.9433 126.218C60.6143 125.966 60.2803 125.501 60.1973 124.914C59.8873 122.855 59.9643 120.808 60.1193 118.749C60.2283 117.517 60.1843 116.236 60.2423 114.976C60.3133 113.592 60.4253 112.21 60.5563 110.829L60.8653 108.284C61.0283 107 61.2593 105.718 61.4543 104.445C61.6343 103.458 61.7143 102.467 61.9403 101.475C61.9893 101.257 62.0013 101.037 62.0773 100.819C62.3733 100.019 62.6323 99.8305 63.0303 99.8145C63.1233 99.8115 63.2183 99.7975 63.3013 99.8095C63.5763 99.8515 63.6993 100.261 63.6493 100.835C63.4043 102.496 63.0433 104.229 62.7993 106.035C62.5973 107.364 62.4093 108.715 62.2753 110.072L62.2353 110.07Z" fill="#231F20"/>
<path fill-rule="evenodd" clip-rule="evenodd" d="M46.7134 115.641C48.0004 116.089 49.3084 116.485 50.6354 116.791C51.1204 116.901 51.6134 116.958 52.0994 117.05C53.8124 117.381 55.5534 117.634 57.2924 117.571C58.0624 117.55 58.8274 117.419 59.5554 117.225C60.4914 116.957 61.3644 116.599 62.2644 116.249C62.5504 116.151 62.7004 116.427 62.6334 116.844C62.5724 117.262 62.2694 117.849 61.6884 118.147C60.6734 118.684 59.5534 118.916 58.4604 119.06C57.3604 119.198 56.2604 119.179 55.1824 119.05C53.8954 118.9 52.5624 118.844 51.2744 118.606C49.8604 118.346 48.4744 117.986 47.1094 117.572C46.2684 117.321 45.4414 117.03 44.6144 116.743C43.3644 116.299 42.1384 115.782 40.9204 115.281C39.9734 114.889 39.0064 114.58 38.0644 114.128C37.8594 114.024 37.6514 113.933 37.4514 113.803C36.7204 113.31 36.5734 112.932 36.7284 112.508C36.7654 112.412 36.7964 112.313 36.8494 112.238C37.0534 112.004 37.3944 112.015 37.9244 112.178C39.5084 112.706 41.1534 113.512 42.8644 114.176C44.1304 114.684 45.4154 115.181 46.7234 115.598L46.7134 115.641Z" fill="#231F20"/>
<path fill-rule="evenodd" clip-rule="evenodd" d="M82.7375 65.1806C83.2845 66.7426 83.8505 68.3086 84.5085 69.8426C85.1325 71.3526 85.8605 72.9886 86.3755 74.6246C86.7675 75.8196 87.1565 77.0046 87.4745 78.2006C88.0315 80.3046 88.5475 82.4066 89.2205 84.4156C89.8845 86.4276 90.7735 88.3656 91.8895 90.1566C92.8865 91.7386 94.1105 93.1936 95.5365 94.3496C97.3875 95.8316 99.5355 96.7876 101.801 97.4466C102.486 97.7896 102.392 97.9436 101.675 98.2196C101.317 98.3546 100.799 98.4826 100.196 98.4516C99.8925 98.4436 99.5625 98.4186 99.2145 98.3686C98.8775 98.2906 98.5235 98.1866 98.1635 98.0536C95.6615 96.9966 93.5155 95.2206 91.8765 93.1486C90.2195 91.0726 89.0295 88.7026 88.1545 86.2596C87.1065 83.3146 86.3245 80.2676 85.4295 77.3366C84.9465 75.7276 84.4225 74.1426 83.7635 72.6246C83.1135 71.0756 82.3665 69.5086 81.7765 67.9036C81.3845 66.9236 81.0145 65.9356 80.6875 64.9276C80.3295 63.9346 80.0395 62.9136 79.7485 61.8956C79.5245 61.1246 79.3705 60.3296 79.1805 59.5486C79.0475 58.7496 78.8725 57.9616 78.7965 57.1516C78.6025 55.5446 78.5235 53.8946 78.8805 52.2426C79.0325 51.6026 79.2165 50.9586 79.6015 50.3486C79.9765 49.6716 80.9135 49.0066 81.7745 49.3746C82.1775 49.5126 82.5775 49.8646 82.8155 50.1576C83.0445 50.4356 83.2275 50.7186 83.3965 51.0006C83.7225 51.5676 83.9855 52.1356 84.2325 52.6996C84.4455 53.1876 84.6535 53.6656 84.8675 54.1576C85.2395 55.0596 85.4825 55.5996 85.6125 55.9596C85.7525 56.3196 85.7345 56.4986 85.7565 56.7896C85.7655 56.9226 85.8525 57.0546 85.9155 57.1696C85.9655 57.2706 85.9635 57.3606 85.8455 57.4326C85.7345 57.5096 85.4805 57.5396 85.2125 57.4406C84.6405 57.2406 84.1745 56.6836 83.7805 56.0036C83.2105 54.9886 82.7925 53.9656 82.3335 53.0036C82.1055 52.5276 81.8695 52.0646 81.6195 51.6766C81.5085 51.5086 81.3355 51.2846 81.2855 51.2476C81.2655 51.2396 81.2485 51.2366 81.2325 51.2396C81.2165 51.2426 81.2045 51.2526 81.1975 51.2646C81.1705 51.3066 81.2525 51.2026 81.1195 51.4046C80.9325 51.6976 80.7895 52.1396 80.6895 52.5906C80.4985 53.5176 80.4545 54.5606 80.5305 55.6176C80.7675 58.7786 81.6955 62.0146 82.7805 65.1596L82.7375 65.1806Z" fill="#231F20"/>
<path fill-rule="evenodd" clip-rule="evenodd" d="M85.3265 42.6151C85.2575 44.6231 85.3305 46.6761 85.4935 48.7241C85.5555 49.4721 85.6815 50.2131 85.7615 50.9601C86.0425 53.5941 86.4205 56.2341 86.9765 58.8341C87.2305 59.9851 87.5325 61.1341 87.8795 62.2451C88.0975 62.9611 88.3595 63.6611 88.6135 64.3571C88.8705 65.0451 89.0925 65.7631 89.4035 66.3781C89.5925 66.7351 89.4245 66.8921 88.9515 66.7151C88.4935 66.5301 87.7855 65.9691 87.3625 65.1581C86.6685 63.6931 86.1745 62.1981 85.7295 60.6831C85.3355 59.1581 85.0255 57.6141 84.8055 56.0511C84.5415 54.1811 84.1095 52.2691 83.8595 50.3541C83.5875 48.2521 83.4075 46.1301 83.3955 43.9921C83.3875 42.6771 83.4265 41.3571 83.5915 40.0291C83.7285 39.0251 83.9125 38.0101 84.3375 37.0131C84.5665 36.5231 84.8305 36.0151 85.2945 35.6061C85.7145 35.1521 86.3905 34.9521 87.0125 34.9101C87.5545 34.8971 88.0985 35.1511 88.4535 35.5361C88.7985 35.9031 89.0085 36.2881 89.1905 36.6591C89.5415 37.4031 89.7825 38.1211 90.0275 38.8321C90.1335 39.1451 90.2545 39.4421 90.3505 39.7561C90.7335 40.9011 90.6735 41.3041 90.2655 41.7191C90.1755 41.8111 90.0925 41.9231 89.9975 41.9921C89.8375 42.1091 89.6445 42.0741 89.4235 41.9071C89.2015 41.7411 88.9405 41.4451 88.7655 41.0151C88.2055 39.7821 87.8095 38.3581 87.3335 37.3351C87.2225 37.0781 87.0805 36.9021 87.0195 36.8441C86.9835 36.8031 86.9905 36.8411 86.9815 36.8341C86.8005 36.8711 86.6525 36.8991 86.3995 37.2621C86.0345 37.7821 85.7715 38.7251 85.6225 39.6541C85.4615 40.5981 85.3915 41.6031 85.3755 42.6131L85.3265 42.6151Z" fill="#231F20"/>
<path fill-rule="evenodd" clip-rule="evenodd" d="M95.3807 32.3192C95.2997 31.6062 95.1917 30.8972 95.0267 30.2642C94.9847 30.1072 94.9417 29.9582 94.8897 29.8202L94.7977 29.5912C94.7777 29.5432 94.7317 29.4872 94.6707 29.4962C94.6567 29.4982 94.6887 29.4942 94.6357 29.4992C94.5577 29.5032 94.4777 29.5062 94.4107 29.5412C94.2747 29.6042 94.1147 29.6092 93.9857 29.7002C93.7137 29.8382 93.4587 30.0452 93.2187 30.2972C92.7367 30.8062 92.3787 31.5482 92.0947 32.3182C91.7177 33.3612 91.5357 34.5082 91.3717 35.6602C90.8387 39.7582 91.0587 44.0412 91.5927 48.2342C91.8347 50.0992 92.2017 51.9592 92.6497 53.7672C93.2497 56.0892 93.9657 58.3672 94.6497 60.6382C94.8707 61.3402 94.5907 61.3882 94.0127 60.9422C93.4337 60.5002 92.5307 59.5372 92.0437 58.1842C91.1327 55.8082 90.6207 53.3362 90.1617 50.8652C89.7157 48.3892 89.4657 45.8762 89.3867 43.3442C89.3247 40.3202 89.1667 37.1542 89.7377 34.0152C89.9927 32.7022 90.3497 31.3712 91.0697 30.1192C91.4027 29.4872 91.9237 28.9102 92.5177 28.4192C92.8587 28.2202 93.1727 27.9672 93.5647 27.8642C93.7537 27.8042 93.9397 27.7232 94.1317 27.6892L94.8517 27.6022C95.4607 27.5562 96.0107 27.9622 96.3077 28.4872C96.4777 28.7742 96.5687 28.9862 96.6427 29.1892C96.7227 29.3982 96.7867 29.6022 96.8477 29.8062C97.4097 31.9392 97.5317 34.0092 97.6407 36.0952C97.7247 37.6742 97.6857 39.2592 97.7327 40.7952C97.7777 42.3412 97.8877 43.8822 98.1047 45.3942C98.4347 47.7502 99.1027 49.9862 99.8947 52.1852C100.082 52.6662 100.265 53.1382 100.453 53.6222C101.151 55.4202 101.215 56.0572 100.915 56.6332C100.844 56.7652 100.787 56.9252 100.704 57.0202C100.432 57.3382 99.8047 56.7302 99.1327 55.4242C98.1937 53.4702 97.4087 51.3502 96.8497 49.1252C96.2867 46.8992 95.9717 44.5802 95.8257 42.2752C95.7037 40.5692 95.7277 38.8252 95.6797 37.2142C95.6257 35.5712 95.5187 33.9232 95.3337 32.3312L95.3807 32.3192Z" fill="#231F20"/>
<path fill-rule="evenodd" clip-rule="evenodd" d="M107.366 43.6329C107.223 42.0399 107.077 40.4509 106.886 38.8809C106.686 37.3209 106.475 35.7329 106.04 34.3269C105.923 33.9399 105.718 33.4879 105.589 33.3189C105.529 33.2229 105.405 33.1579 105.298 33.2119C105.325 33.2049 105.142 33.2659 105.025 33.3619C104.41 33.7279 103.923 34.5399 103.571 35.4009C103.216 36.2749 102.976 37.2359 102.796 38.2129C102.436 40.1729 102.332 42.2119 102.313 44.2439C102.304 46.0519 102.44 47.8729 102.654 49.6549C102.8 50.8009 102.982 51.9419 103.146 53.0809C103.329 54.2189 103.51 55.3509 103.666 56.4849C103.784 57.1749 103.537 57.1889 103.037 56.6879C102.794 56.4359 102.492 56.0529 102.184 55.5669C101.9 55.0769 101.655 54.4749 101.498 53.8039C100.907 51.4299 100.718 49.0059 100.588 46.5809C100.488 44.1539 100.552 41.7009 100.939 39.2499C101.158 37.8999 101.409 36.5179 101.877 35.1369C102.126 34.4479 102.429 33.7589 102.872 33.1049L103.244 32.6279C103.383 32.4769 103.541 32.3339 103.691 32.1899C103.845 32.0479 104.041 31.9369 104.218 31.8139C104.304 31.7489 104.406 31.7049 104.508 31.6609L104.921 31.4879C105.275 31.3869 105.662 31.3559 106.009 31.4959C106.317 31.6119 106.577 31.8269 106.799 32.0739C107.031 32.3569 107.154 32.5809 107.256 32.7879C107.467 33.2169 107.611 33.6339 107.732 34.0469C107.971 34.8729 108.133 35.6869 108.275 36.4979C108.55 38.1209 108.734 39.7369 108.907 41.3489L109.489 47.2899C109.772 50.2829 110.024 53.2929 110.519 56.2259C110.913 58.4999 111.46 60.7049 112.188 62.8269C112.352 63.2929 112.532 63.7399 112.717 64.1949C113.408 65.8779 113.665 66.3389 113.512 66.9179C113.483 67.0459 113.474 67.1999 113.428 67.3009C113.301 67.6429 112.52 67.1719 111.811 65.8749C109.785 62.0279 109.17 57.6119 108.462 53.3059C108.214 51.6979 108.002 50.0849 107.805 48.4739C107.62 46.8619 107.489 45.2459 107.322 43.6409L107.366 43.6329Z" fill="#231F20"/>
<path fill-rule="evenodd" clip-rule="evenodd" d="M103.162 114.25C102.86 113.089 102.54 111.929 102.2 110.772C102.077 110.351 101.898 109.948 101.776 109.526C101.343 108.037 100.884 106.553 100.395 105.078C100.181 104.422 99.9185 103.783 99.6475 103.157C99.2955 102.358 98.8915 101.564 98.6515 100.749C98.5785 100.496 98.8525 100.368 99.2305 100.436C99.6155 100.506 100.097 100.775 100.339 101.233C101.161 102.868 101.915 104.515 102.363 106.299C102.642 107.359 103.116 108.393 103.472 109.45C103.865 110.612 104.224 111.787 104.563 112.968L105.177 115.151C105.464 116.263 105.751 117.378 106.035 118.481C106.245 119.346 106.567 120.166 106.745 121.056C106.784 121.25 106.837 121.439 106.865 121.637C106.923 122.397 106.807 122.653 106.397 122.813C106.304 122.849 106.211 122.896 106.117 122.916C105.801 122.981 105.51 122.699 105.357 122.229C104.837 120.826 104.461 119.307 104.051 117.751C103.748 116.597 103.455 115.426 103.121 114.265L103.162 114.25Z" fill="#231F20"/>
<path fill-rule="evenodd" clip-rule="evenodd" d="M115.98 113.814C114.893 114.303 113.758 114.641 112.625 114.926C112.212 115.033 111.801 115.141 111.384 115.223C109.903 115.464 108.417 115.577 106.938 115.574C106.281 115.56 105.624 115.617 104.972 115.586C104.138 115.585 103.281 115.57 102.469 115.291C102.215 115.206 102.309 114.906 102.569 114.624C102.834 114.336 103.242 114.085 103.694 114.082C105.29 114.093 106.863 114.104 108.537 114.117C109.03 114.122 109.528 114.063 110.02 113.964C110.517 113.886 111.004 113.758 111.491 113.647C112.566 113.418 113.615 113.091 114.646 112.708C115.256 112.429 115.901 112.196 116.471 111.836C116.909 111.576 117.368 111.338 117.765 111.017C118.179 110.717 118.592 110.415 118.931 110.037C119.521 109.505 119.875 108.798 120.326 108.187C120.413 108.043 120.474 107.885 120.563 107.742C120.88 107.202 121.118 107.111 121.51 107.165C121.601 107.178 121.697 107.181 121.78 107.205C122.057 107.279 122.13 107.628 121.975 108.137C121.516 109.651 120.368 110.93 119.104 111.962C118.623 112.339 118.137 112.712 117.602 113.002L116.816 113.461L115.999 113.849L115.98 113.814Z" fill="#231F20"/>
<path fill-rule="evenodd" clip-rule="evenodd" d="M56.52 63.5262C55.861 63.5082 55.199 63.4982 54.541 63.5442C54.3 63.5532 54.066 63.6092 53.827 63.6292C52.984 63.7062 52.134 63.7942 51.298 63.9742C50.926 64.0502 50.566 64.1792 50.214 64.3072C49.762 64.4822 49.334 64.7052 48.854 64.8162C48.552 64.8882 48.584 64.0582 49.105 63.7702C50.035 63.3092 51.03 62.9642 52.069 62.8272C52.689 62.7472 53.317 62.5932 53.947 62.5162C54.641 62.4392 55.336 62.4022 56.029 62.3942C56.456 62.3852 56.881 62.3952 57.306 62.4002C57.948 62.4252 58.59 62.4512 59.228 62.4762C59.721 62.4932 60.209 62.4492 60.699 62.4462C60.808 62.4442 60.914 62.4342 61.022 62.4402C61.424 62.4642 61.544 62.5502 61.603 62.8452C61.616 62.9132 61.636 62.9802 61.641 63.0472C61.657 63.2712 61.478 63.4412 61.185 63.4882C60.311 63.6232 59.414 63.6222 58.518 63.6182C57.853 63.5892 57.187 63.5552 56.522 63.5542L56.52 63.5262Z" fill="#231F20"/>
<path fill-rule="evenodd" clip-rule="evenodd" d="M94.9305 63.3095C95.4885 62.9875 96.0675 62.6905 96.6565 62.4125C96.8675 62.3045 97.0765 62.1845 97.2965 62.0915C98.0815 61.7815 98.9075 61.5485 99.7505 61.4195C100.127 61.3705 100.499 61.3005 100.879 61.2655C101.361 61.2305 101.87 61.2195 102.327 61.4325C102.471 61.4955 102.394 61.7395 102.233 61.9785C102.069 62.2175 101.839 62.4585 101.613 62.4685C100.804 62.5565 100.009 62.5775 99.1275 62.7215C98.5985 62.7925 98.1085 63.0745 97.6125 63.3055C97.0625 63.5575 96.5185 63.8445 95.9835 64.1535C95.6555 64.3475 95.3265 64.5415 95.0065 64.7525C94.5185 65.0665 94.0255 65.3855 93.5755 65.7505C93.2305 66.0395 92.9225 66.3655 92.5805 66.6505C92.5065 66.7145 92.4395 66.7855 92.3605 66.8455C92.0705 67.0715 91.9125 67.0605 91.6995 66.9235C91.6505 66.8905 91.5975 66.8635 91.5555 66.8285C91.4145 66.7095 91.4285 66.4885 91.5745 66.2375C91.8085 65.8885 92.0685 65.5505 92.3475 65.2255C92.6405 64.9155 92.9815 64.6545 93.3175 64.3855C93.8275 63.9965 94.3545 63.6215 94.9115 63.2835L94.9305 63.3095Z" fill="#231F20"/>
<path fill-rule="evenodd" clip-rule="evenodd" d="M26.745 23.9641C27.25 24.3151 27.762 24.6551 28.269 25.0041C28.528 25.1831 28.787 25.3621 29.041 25.5471C29.163 25.6361 29.285 25.7251 29.405 25.8151C29.465 25.8601 29.525 25.9051 29.585 25.9511C29.433 25.8351 29.664 26.0141 29.672 26.0211C30.151 26.4021 30.612 26.8071 31.035 27.2491C31.147 27.3661 31.256 27.4861 31.363 27.6101C31.411 27.6651 31.458 27.7221 31.505 27.7781C31.548 27.8301 31.629 27.9321 31.544 27.8221C31.742 28.0781 31.92 28.3501 32.083 28.6281C32.342 29.0681 32.974 29.2641 33.417 28.9781C33.861 28.6931 34.043 28.1141 33.767 27.6441C32.369 25.2591 29.94 23.8131 27.729 22.2801C27.308 21.9891 26.628 22.1901 26.395 22.6301C26.132 23.1271 26.296 23.6531 26.745 23.9641" fill="#231F20"/>
<path fill-rule="evenodd" clip-rule="evenodd" d="M19.2296 41.008C21.7096 40.608 24.2376 41.001 26.7336 40.901C27.2596 40.88 27.7086 40.468 27.7086 39.926C27.7086 39.414 27.2626 38.93 26.7336 38.95C24.0486 39.059 21.3826 38.696 18.7116 39.128C18.1906 39.212 17.9016 39.86 18.0306 40.327C18.1826 40.88 18.7086 41.093 19.2296 41.008" fill="#231F20"/>
<path fill-rule="evenodd" clip-rule="evenodd" d="M116.715 21.4824C115.213 23.6094 113.477 25.7444 112.994 28.3764C112.899 28.8934 113.136 29.4274 113.675 29.5754C114.149 29.7064 114.778 29.4154 114.874 28.8944C115.105 27.6384 115.582 26.6524 116.251 25.5654C116.91 24.4944 117.674 23.4934 118.399 22.4654C118.703 22.0364 118.476 21.3814 118.049 21.1314C117.561 20.8464 117.02 21.0504 116.715 21.4824" fill="#231F20"/>
<path fill-rule="evenodd" clip-rule="evenodd" d="M129.199 33.12C126.636 33.611 124.328 34.86 121.859 35.65C121.357 35.81 121.034 36.327 121.178 36.849C121.313 37.343 121.873 37.691 122.377 37.53C124.846 36.74 127.155 35.492 129.718 35.001C130.235 34.901 130.53 34.28 130.399 33.802C130.25 33.26 129.718 33.021 129.199 33.12" fill="#231F20"/>
<path fill-rule="evenodd" clip-rule="evenodd" d="M48.7771 123.536C48.8081 123.465 48.8451 123.381 48.8521 123.287C48.8591 123.188 48.7851 123.126 48.7381 123.132C48.6431 123.139 48.5751 123.23 48.4871 123.351L48.3511 123.567C48.2721 123.71 48.3471 123.537 47.9971 124.24C47.7281 124.758 47.4611 125.275 47.0421 125.845C46.7871 126.128 46.6221 126.464 45.9011 126.789C45.6761 126.854 45.4901 126.927 45.2111 126.898C44.9351 126.884 44.6911 126.81 44.5111 126.7C44.4141 126.647 44.3161 126.587 44.2321 126.524L44.0641 126.361C43.9541 126.25 43.8431 126.122 43.7961 126.037C43.7131 125.903 43.6001 125.738 43.5561 125.624C43.5071 125.505 43.3851 125.28 43.3531 125.129C43.2221 124.799 43.2491 124.423 43.2601 124.09C43.3271 123.5 43.4651 123.07 43.6011 122.641C43.8951 121.809 44.2321 121.069 44.5471 120.349C44.8211 119.723 45.0911 119.082 45.2101 118.568C45.2411 118.441 45.2521 118.339 45.2611 118.263C45.2641 118.247 45.2491 118.204 45.2801 118.216C45.3601 118.204 45.4551 118.171 45.5221 118.144C45.5661 118.135 45.6111 118.116 45.6551 118.087C45.7091 118.049 45.6841 118.073 45.7061 118.056C45.7301 118.034 45.7121 118.046 45.6911 118.074C45.6691 118.106 45.6901 118.089 45.6431 118.164L45.6211 118.207L45.5151 118.467L45.5141 118.465L45.5081 118.456C45.4651 118.446 45.4061 118.416 45.3561 118.45C45.2461 118.445 45.1651 118.459 45.0481 118.56C44.9691 118.612 44.8811 118.673 44.7971 118.777C44.7101 118.864 44.6201 118.958 44.5411 119.083C44.2291 119.556 43.9571 120.139 43.7181 120.751L42.9981 122.666C42.8681 122.998 42.7331 123.334 42.5501 123.691C42.4041 124.014 42.0261 124.544 41.5751 124.806C41.2771 124.945 41.1581 125.009 40.8861 125.093C40.7721 125.132 40.6521 125.171 40.4911 125.191C40.3501 125.217 40.1941 125.238 39.9731 125.208C39.7961 125.208 39.5181 125.093 39.3101 124.949C39.1121 124.774 38.9491 124.547 38.9001 124.368C38.7571 123.976 38.7861 123.719 38.7921 123.464C38.8881 122.516 39.1591 121.802 39.4081 121.055C39.8381 119.842 40.2891 118.662 40.6601 117.503C40.8391 116.934 41.0031 116.332 41.0211 115.868L41.0201 115.716C41.0101 115.684 41.0051 115.656 41.0041 115.624C41.0011 115.615 40.9991 115.623 40.9991 115.623C41.0031 115.626 41.1141 115.555 41.1321 115.539C41.1451 115.536 41.1591 115.528 41.1741 115.514C41.1971 115.491 41.2021 115.473 41.1721 115.519C41.1541 115.548 41.1461 115.575 41.1431 115.599V115.618V115.62L41.1211 115.703L41.1201 115.704H41.1191L41.1161 115.705L41.1081 115.707C41.0971 115.707 41.0861 115.694 41.0741 115.706C41.0551 115.704 41.0121 115.712 40.9471 115.76C40.5831 116.001 40.1561 116.724 39.8431 117.392C39.5121 118.082 39.2171 118.821 38.9091 119.56C38.5971 120.303 38.2931 121.058 37.8971 121.802C37.7001 122.173 37.4801 122.544 37.2161 122.911C36.9431 123.271 36.6581 123.657 36.1011 123.96C35.9421 124.052 35.7091 124.087 35.5801 124.098C35.4431 124.089 35.3321 124.086 35.2521 124.033C35.0891 123.946 35.0371 123.851 35.0581 123.762C35.0781 123.57 35.4621 123.463 35.5891 123.079C35.8631 122.417 35.9291 120.925 36.6561 119.237C37.2441 117.896 37.7121 116.528 38.7171 115.048C39.0001 114.679 39.3071 114.265 39.9451 113.892C40.0901 113.8 40.3151 113.72 40.5051 113.655C40.7251 113.606 40.9671 113.564 41.1971 113.579C41.5961 113.581 42.3231 113.792 42.7151 114.346C42.9001 114.584 42.9951 114.832 43.0671 115.052C43.1081 115.229 43.1581 115.458 43.1611 115.601C43.1831 115.923 43.1611 116.178 43.1371 116.426C43.0741 116.891 42.9811 117.306 42.8761 117.693C42.4721 119.238 41.8231 120.553 41.3511 121.88C41.1121 122.511 40.8821 123.23 40.8401 123.621C40.8331 123.668 40.8291 123.705 40.8291 123.69C40.8361 123.682 40.5541 123.754 40.4901 123.768C40.4061 123.777 40.3221 123.803 40.2421 123.848C40.1381 123.916 40.1461 123.898 40.1151 123.92C40.0921 123.93 40.0531 123.995 40.0941 123.937C40.1121 123.907 40.1181 123.877 40.1161 123.854C40.1501 123.764 40.1681 123.667 40.1671 123.576C40.1651 123.486 40.1411 123.421 40.1451 123.232C40.1451 123.171 40.1541 123.213 40.1601 123.202C40.1581 123.217 40.2261 123.19 40.2711 123.179C40.3201 123.166 40.3671 123.16 40.4371 123.127L40.5331 123.087C40.5521 123.079 40.5531 123.081 40.5661 123.08C40.6311 123.043 40.6491 123.066 40.8221 122.763C40.9641 122.496 41.1051 122.184 41.2431 121.857C41.6111 120.974 41.9541 120.011 42.4151 119.027C42.6661 118.533 42.9171 118.039 43.3191 117.522C43.4951 117.267 43.7681 117.021 44.1001 116.77C44.2911 116.678 44.4781 116.573 44.6721 116.488L45.2931 116.327C45.5051 116.361 45.7251 116.307 45.9341 116.364C46.1421 116.397 46.3491 116.445 46.6451 116.634C46.9201 116.803 47.1611 117.104 47.2711 117.373C47.3971 117.65 47.4311 117.899 47.4451 118.11C47.4701 118.945 47.2731 119.471 47.1101 120.015C46.7581 121.069 46.3281 122.001 45.9731 122.909C45.7851 123.396 45.5891 123.894 45.5211 124.264C45.4891 124.422 45.4951 124.481 45.5301 124.576C45.5301 124.576 45.5861 124.722 45.6101 124.746C45.6221 124.769 45.6421 124.818 45.6361 124.798C45.6361 124.798 45.6381 124.793 45.6291 124.8C45.5951 124.831 45.5631 124.864 45.5321 124.9C45.4691 124.973 45.4121 125.064 45.3911 125.072C45.3331 125.103 45.2851 125.307 45.2971 125.247C45.2971 125.247 45.2921 125.247 45.2911 125.254C45.2921 125.236 45.2881 125.165 45.2741 125.131C45.2591 125.076 45.2431 125.082 45.2111 124.996C45.1781 124.91 45.1361 124.831 45.0871 124.76C45.0621 124.759 45.0911 124.755 45.1111 124.729C45.1961 124.669 45.3491 124.482 45.4801 124.291C45.7511 123.894 46.0111 123.422 46.2641 122.944L47.4131 120.675C47.8031 119.922 48.2021 119.23 48.5821 118.71C48.9651 118.197 49.3101 117.869 49.6731 117.578C50.0351 117.316 50.4181 117.046 50.9891 117.057C51.3381 117.057 51.7681 117.213 51.9891 117.492C52.2251 117.76 52.2751 118.043 52.3191 118.307C52.3781 118.849 52.3331 119.378 52.1991 120.103C52.0771 120.807 51.7421 121.802 51.3621 122.814C51.1821 123.317 51.0071 123.814 50.8851 124.309C50.8021 124.661 50.7701 124.908 50.7791 125.139C50.7841 125.22 50.7961 125.286 50.8081 125.338C50.8191 125.37 50.8361 125.415 50.8831 125.484C50.9141 125.597 50.9911 125.442 50.7611 125.747C50.7041 125.8 50.6911 125.95 50.6971 125.879C50.6941 125.866 50.6911 125.877 50.6871 125.859C50.6801 125.8 50.6631 125.744 50.6381 125.697C50.6091 125.631 50.5891 125.651 50.5321 125.536C50.5231 125.511 50.5361 125.52 50.5381 125.513C50.5441 125.515 50.5661 125.494 50.5931 125.459C50.6411 125.413 50.7001 125.327 50.7581 125.243C50.8771 125.07 50.9951 124.862 51.1091 124.65C51.5691 123.761 51.9411 122.848 52.4151 121.818C52.6831 121.258 53.0281 120.485 53.3771 119.938C53.7321 119.362 54.1011 118.881 54.4911 118.511C54.8841 118.157 55.3101 117.857 55.8821 117.807C56.4441 117.799 57.0731 118.14 57.3561 118.576C57.6551 119.265 57.6231 120.001 57.4671 121.031C57.3841 121.535 57.2341 122.09 57.1021 122.645L56.7601 124.033C56.6781 124.4 56.6061 124.773 56.5841 125.076C56.5751 125.155 56.5821 125.212 56.5821 125.265C56.5861 125.283 56.5891 125.3 56.5891 125.316L56.5921 125.31C56.5841 125.308 56.5191 125.317 56.4851 125.324C56.4041 125.339 56.3231 125.362 56.2431 125.393C56.0251 125.415 55.9131 125.622 55.9831 125.496C55.9731 125.504 56.0201 125.33 55.9861 125.249C55.9701 125.191 55.9221 124.857 55.8951 124.844C55.9091 124.839 56.0321 124.746 56.1201 124.67C56.2201 124.613 56.3001 124.488 56.3901 124.392C56.5631 124.18 56.7171 123.903 56.8581 123.601C57.1021 123.059 57.2691 122.443 57.4711 121.787C57.8301 120.557 58.2131 119.661 58.7321 119.061C58.8761 118.91 59.0131 118.785 59.1411 118.684C59.2911 118.584 59.4511 118.509 59.5871 118.459C59.8671 118.36 60.1751 118.412 60.3641 118.481C60.5631 118.589 60.7541 118.703 60.8191 118.82C60.9351 119.03 60.6821 119.229 60.5881 119.5C60.5261 119.757 60.3671 120.127 60.1521 120.995C60.0031 121.615 59.8441 122.309 59.6391 123.036C59.4281 123.764 59.1891 124.538 58.7141 125.353C58.4701 125.76 58.1521 126.176 57.7241 126.547C57.4781 126.724 57.2921 126.895 56.9711 127.053C56.8841 127.094 56.8341 127.125 56.7131 127.168C56.5911 127.209 56.4661 127.245 56.3411 127.273C56.1701 127.305 55.9291 127.312 55.7301 127.293C55.4501 127.248 55.1201 127.132 54.8871 126.944C54.6311 126.748 54.4351 126.478 54.3651 126.313C54.3161 126.217 54.2741 126.115 54.2381 126.015L54.1881 125.814C54.1211 125.51 54.1331 125.373 54.1251 125.182C54.1311 124.869 54.1631 124.617 54.2001 124.395C54.2731 123.944 54.3671 123.558 54.4621 123.179L54.5711 122.748L54.5671 122.724C54.5631 122.712 54.5581 122.703 54.5541 122.697C54.5441 122.686 54.5341 122.688 54.5241 122.693C54.4931 122.709 54.4951 122.732 54.4951 122.732C54.4891 122.747 54.5081 122.7 54.4811 122.764L53.9031 124.158C53.6841 124.682 53.4631 125.215 53.1791 125.786C53.0251 126.078 52.8901 126.364 52.6331 126.714C52.5811 126.792 52.5091 126.885 52.4151 126.988C52.3171 127.094 52.2731 127.164 52.1081 127.3C51.8561 127.493 51.4411 127.876 50.6111 127.852C50.1941 127.842 49.9281 127.71 49.6391 127.546C49.4791 127.452 49.4171 127.388 49.3441 127.32C49.2701 127.25 49.1981 127.177 49.1311 127.1C48.8831 126.794 48.8171 126.667 48.6621 126.349C48.3931 125.712 48.4021 125.201 48.4231 124.785C48.4371 124.575 48.4641 124.384 48.4961 124.203L48.5491 123.941L48.5631 123.877C48.5611 123.884 48.5611 123.887 48.5611 123.887L48.5631 123.884L48.5791 123.854C48.6031 123.811 48.6381 123.75 48.6701 123.674L48.7771 123.536Z" fill="#231F20"/>
<path fill-rule="evenodd" clip-rule="evenodd" d="M115.637 114.577C115.582 114.415 115.518 114.276 115.487 114.217C115.482 114.21 115.471 114.182 115.476 114.188C115.567 114.124 115.682 114.003 115.759 113.896C115.819 113.843 115.871 113.765 115.903 113.682C115.919 113.669 115.936 113.614 115.934 113.6C115.932 113.647 115.928 113.603 115.947 113.7C115.953 113.676 115.92 113.601 115.92 113.601C115.939 113.634 115.925 113.605 115.967 113.656C116.026 113.724 116.058 113.731 116.155 113.795C116.263 113.869 116.376 113.92 116.496 113.952C116.525 113.974 116.503 113.976 116.504 113.988C116.496 114.019 116.485 114.077 116.477 114.144C116.463 114.285 116.454 114.457 116.462 114.65C116.462 114.741 116.47 114.843 116.479 114.947L116.529 115.435L116.853 117.949C116.961 118.779 117.004 119.519 116.973 120.08C116.944 120.648 116.85 121.042 116.737 121.352C116.624 121.67 116.497 121.914 116.305 122.161C116.21 122.281 116.092 122.41 115.907 122.522C115.729 122.645 115.447 122.713 115.197 122.734C114.838 122.736 114.703 122.56 114.546 122.488C114.398 122.389 114.268 122.306 114.126 122.164C113.851 121.879 113.503 121.52 113.104 120.553C112.785 119.682 112.489 118.537 112.217 117.546C112.077 117.082 111.897 116.553 111.751 116.226C111.662 116.017 111.56 115.825 111.473 115.705C111.429 115.637 111.392 115.605 111.385 115.592C111.359 115.657 111.459 115.429 111.463 115.432C111.486 115.395 111.491 115.3 111.488 115.348C111.489 115.354 111.492 115.358 111.492 115.358C111.493 115.367 111.498 115.431 111.508 115.459C111.529 115.527 111.578 115.603 111.55 115.591C111.538 115.583 111.479 115.639 111.427 115.676L111.334 115.773L111.286 115.823L111.274 115.836L111.268 115.842L111.267 115.844C111.023 115.65 111.81 116.276 110.72 115.412L110.73 115.422C110.758 115.446 110.788 115.465 110.821 115.475C110.859 115.476 111.017 115.547 111.132 115.556C111.201 115.567 111.237 115.556 111.333 115.57C111.439 115.583 111.363 115.579 111.387 115.584C111.387 115.584 111.385 115.633 111.387 115.672C111.397 115.849 111.445 116.107 111.496 116.355C111.71 117.376 112.005 118.459 112.104 119.637C112.153 120.109 112.169 121.194 111.786 121.834C111.437 122.528 110.687 122.902 109.949 122.906C109.525 122.927 109.111 122.741 108.839 122.441C108.381 121.975 108.166 121.086 108.076 120.446C107.996 119.909 107.946 119.39 107.887 118.885C107.828 118.38 107.765 117.885 107.664 117.426C107.568 116.974 107.416 116.526 107.226 116.307C107.105 116.162 107.024 116.139 106.896 116.133L106.855 116.131C106.849 116.114 106.867 116.187 106.843 116.082L106.806 115.959C106.789 115.922 106.769 115.902 106.788 115.926C106.777 115.911 106.866 116.006 106.965 116.034C106.99 116.058 106.962 116.05 106.963 116.099C106.901 116.448 107.041 117.153 107.167 117.753C107.302 118.383 107.449 119.032 107.526 119.725C107.564 120.072 107.592 120.429 107.566 120.812C107.533 121.187 107.473 121.645 107.109 122.056C106.862 122.293 106.611 122.355 106.479 122.339C106.338 122.329 106.28 122.283 106.277 122.217C106.259 122.085 106.512 121.877 106.542 121.58C106.582 121.047 105.913 120.086 105.47 118.638C105.339 118.174 105.2 117.699 105.091 117.16C105.039 116.885 104.992 116.595 104.982 116.242C105.008 115.891 104.936 115.398 105.49 114.717C105.766 114.398 106.225 114.192 106.526 114.164C106.704 114.132 106.847 114.13 106.964 114.139C107.092 114.144 107.219 114.152 107.344 114.184C107.843 114.271 108.356 114.584 108.647 114.926C109.24 115.621 109.38 116.244 109.523 116.793C109.766 117.892 109.803 118.869 109.908 119.773L109.949 120.101L109.968 120.247L109.969 120.276L109.967 120.34C109.966 120.381 109.985 120.447 110.038 120.463C110.121 120.502 110.23 120.449 110.262 120.328L110.275 120.281C110.277 120.294 110.285 120.23 110.283 120.139C110.283 119.982 110.275 119.817 110.262 119.649C110.236 119.311 110.187 118.957 110.126 118.597C110.004 117.826 109.804 117.076 109.65 116.156C109.631 115.891 109.544 115.713 109.661 115.146C109.68 115.005 109.913 114.654 109.91 114.688L110.047 114.536C110.13 114.437 110.247 114.333 110.372 114.232C110.603 114.041 110.986 113.807 111.494 113.808C112.003 113.806 112.43 114.081 112.648 114.298C112.902 114.529 113.05 114.753 113.193 114.973L113.379 115.295L113.482 115.501C113.537 115.622 113.583 115.747 113.626 115.873C113.712 116.126 113.783 116.382 113.865 116.673C113.91 116.833 113.959 117 114.023 117.168C114.085 117.311 114.169 117.567 114.36 117.527C114.53 117.494 114.561 117.32 114.583 117.188C114.603 117.046 114.601 116.896 114.594 116.741C114.577 116.431 114.535 116.096 114.501 115.73L114.477 115.451L114.457 115.068C114.448 114.582 114.419 114.093 114.583 113.466C114.646 113.272 114.713 113.051 114.904 112.813C115.068 112.573 115.422 112.374 115.731 112.327C116.054 112.276 116.437 112.37 116.659 112.536C116.908 112.696 117.039 112.873 117.157 113.033C117.578 113.679 117.722 114.237 117.897 114.802C118.217 115.921 118.438 117.011 118.735 118.052C118.951 118.827 119.228 119.621 119.579 120.141C119.778 120.4 119.88 120.464 120.009 120.455C120.211 120.397 120.082 120.581 120.167 120.289C120.229 119.745 119.949 118.879 119.687 118.147C119.4 117.396 119.041 116.637 118.698 115.856C118.433 115.246 118.16 114.639 117.957 113.937C117.874 113.57 117.743 113.223 117.855 112.635C117.876 112.5 117.974 112.311 118.056 112.166C118.159 112.02 118.339 111.873 118.482 111.78C118.669 111.681 118.862 111.588 119.096 111.52C119.545 111.369 120.205 111.425 120.641 111.716C121.084 111.988 121.355 112.329 121.58 112.644C122.016 113.283 122.293 113.9 122.568 114.498C122.805 115 123.037 115.492 123.276 115.998C124.164 117.785 124.378 117.844 124.367 118.69C124.376 118.861 124.444 119.039 124.454 119.192C124.479 119.44 124.244 119.612 123.696 119.545C123.138 119.49 122.439 118.971 121.913 118.224C121.138 117.113 120.698 115.953 120.231 114.932C120.009 114.432 119.765 113.945 119.561 113.688C119.513 113.635 119.473 113.593 119.453 113.576C119.394 113.629 119.566 113.408 119.586 113.313C119.593 113.3 119.598 113.286 119.599 113.275C119.589 113.324 119.592 113.34 119.595 113.396C119.588 113.472 119.618 113.615 119.622 113.612C119.613 113.62 119.603 113.624 119.593 113.628L119.525 113.669L119.507 113.679L119.497 113.682L119.496 113.683C118.669 112.155 119.267 113.26 119.082 112.918H119.083H119.084C119.084 112.918 119.087 112.909 119.082 112.901C119.028 112.847 119.146 112.965 119.222 112.975C119.254 112.966 119.508 113.075 119.676 113.077C119.776 113.088 119.842 113.071 119.966 113.078L119.975 113.103C119.984 113.128 119.97 113.119 119.987 113.172C120.009 113.254 120.019 113.328 120.06 113.444C120.191 113.871 120.418 114.397 120.657 114.922L121.422 116.58C121.686 117.163 121.941 117.818 122.137 118.464C122.283 118.975 122.441 119.509 122.433 120.295C122.409 120.692 122.36 121.236 121.922 121.834C121.699 122.135 121.388 122.364 121.065 122.521C120.765 122.646 120.445 122.724 120.217 122.73C119.728 122.8 119.012 122.636 118.603 122.345C118.158 122.063 117.881 121.738 117.678 121.453C117.264 120.873 117.074 120.349 116.902 119.85C116.575 118.857 116.39 117.935 116.198 117.041C116.01 116.162 115.829 115.265 115.59 114.6L115.637 114.577Z" fill="#231F20"/>
</svg>
