<svg width="148" height="148" viewBox="0 0 148 148" fill="none" xmlns="http://www.w3.org/2000/svg">
<path fill-rule="evenodd" clip-rule="evenodd" d="M73.6767 85.6982C73.6767 85.6982 75.5127 85.8292 76.3297 87.1862C77.4837 89.1012 79.1057 109.736 78.8237 111.194C78.7427 111.616 75.4887 111.749 75.8007 112.357C76.1127 112.967 81.9507 117.454 82.0427 117.344C82.1347 117.235 79.9827 119.797 79.9827 119.797L69.5557 110.146L76.2517 109.366L73.6767 85.6982Z" fill="#231F20"/>
<path fill-rule="evenodd" clip-rule="evenodd" d="M61.9501 32.8038C66.6191 30.7018 71.8301 29.7138 76.9321 30.1808C77.8661 30.2268 78.7841 30.4068 79.7101 30.5148C80.6181 30.7158 81.5461 30.8478 82.4291 31.1458C88.7131 33.0328 94.2841 36.7718 98.4751 41.6568C100.341 43.8188 101.969 46.2058 103.243 48.7398C103.641 49.5568 104.025 50.3858 104.38 51.2268C104.679 52.0878 105.064 52.9238 105.278 53.8148C105.519 54.6978 105.716 55.5908 105.796 56.5028C105.839 56.9578 105.905 57.4078 105.921 57.8638L105.947 59.2248C105.951 60.3548 105.741 60.2048 105.309 59.3138C105.079 58.8708 104.841 58.2378 104.47 57.5088C104.072 56.7838 103.753 55.9288 103.381 55.0168C102.368 51.7068 100.875 48.5458 98.8311 45.7398C96.8111 42.9248 94.4091 40.3438 91.5951 38.2148C89.9411 36.9018 88.0411 35.8428 86.0641 34.9628C84.0871 34.0688 82.0041 33.4348 79.8961 33.0308C75.2691 32.1168 70.3991 32.4098 65.8721 33.9098C63.0851 34.8228 60.4171 36.1478 58.0051 37.8508C54.3341 40.3998 51.1351 43.7238 48.8421 47.5478C47.9491 49.0318 47.1941 50.5768 46.6081 52.1768C45.9911 53.7638 45.5531 55.4068 45.2081 57.0618C45.0701 57.7948 44.9461 58.5118 44.8591 59.2568C44.5221 62.0088 44.3511 62.8778 43.7081 63.4838C43.5721 63.6218 43.4411 63.8068 43.3201 63.8888C43.1131 64.0288 42.9361 63.8068 42.7431 63.2688C42.5471 62.7328 42.3611 61.8738 42.4271 60.7798C42.5691 54.2498 45.3421 47.5028 49.7481 42.1618C53.0231 38.1828 57.2121 34.9238 61.9181 32.7508L61.9501 32.8038Z" fill="#231F20"/>
<path fill-rule="evenodd" clip-rule="evenodd" d="M21.606 80.8671C21.007 82.1081 20.599 83.4301 20.213 84.7501L19.741 86.7631L19.472 88.8131C19.229 91.5591 19.472 94.3491 20.241 96.9991L20.707 98.4371C20.887 98.9071 21.128 99.3511 21.335 99.8091C21.718 100.747 22.295 101.576 22.812 102.442C24.746 105.437 27.427 107.956 30.672 109.448C33.919 110.968 37.644 111.353 41.309 111.191C44.578 111.043 47.855 110.412 51.043 109.618C55.151 108.634 59.184 107.174 63.433 106.525C64.764 106.357 64.637 106.622 63.647 107.28C62.667 107.991 60.816 108.979 58.465 109.675C54.297 110.891 50.072 112.111 45.657 112.775C44.548 112.918 43.45 113.104 42.32 113.152L40.636 113.263L38.934 113.242C37.801 113.273 36.659 113.07 35.524 112.961C34.957 112.897 34.398 112.725 33.835 112.61C33.277 112.463 32.703 112.396 32.166 112.164C29.505 111.376 27.024 109.893 24.853 108.097L23.299 106.648C22.803 106.146 22.386 105.575 21.927 105.041C21.705 104.766 21.473 104.501 21.26 104.22L20.69 103.329C20.331 102.723 19.892 102.163 19.608 101.518C16.693 96.0181 16.341 89.4481 17.959 83.5861C18.998 79.9711 20.78 76.5941 23.139 73.6961C24.881 71.4611 27.095 69.6061 29.44 68.0601C31.802 66.5301 34.366 65.3171 37.041 64.4891C41.195 63.2351 45.579 62.7821 49.877 63.5121C50.829 63.6321 51.738 63.8651 52.679 64.0881C54.408 64.5721 55.452 65.1561 56.165 65.5721C56.517 65.7911 56.768 66.0171 56.967 66.2201C57.154 66.4471 57.281 66.6661 57.39 66.8641C57.488 67.0481 57.641 67.2371 57.688 67.3571C57.767 67.5641 57.459 67.5651 56.794 67.5281C56.45 67.5321 56.067 67.4281 55.616 67.2921C55.154 67.1841 54.624 67.0491 54.041 66.8751C52.289 66.4341 50.543 65.9531 48.727 65.7781C46.921 65.5841 45.09 65.5241 43.262 65.6841C41.436 65.8581 39.622 66.2101 37.848 66.7371C36.078 67.2841 34.368 68.0351 32.726 68.9211C30.29 70.2781 28.073 71.9541 26.174 73.9561C24.313 76.0001 22.781 78.3501 21.666 80.8861L21.606 80.8671Z" fill="#231F20"/>
<path fill-rule="evenodd" clip-rule="evenodd" d="M127.699 90.7677C128.707 88.7777 129.285 86.5717 129.395 84.3027C129.498 82.0187 129.229 79.6847 128.56 77.4767C128.05 75.8687 127.288 74.3547 126.404 72.9267C125.643 71.6487 124.657 70.5227 123.612 69.4637C122.546 68.4177 121.325 67.5447 120.045 66.7617C117.431 65.2937 114.459 64.4147 111.41 64.1597C108.71 63.9277 105.937 64.2067 103.358 64.9367C100.021 65.8807 97.018 67.7717 93.771 69.2207C92.739 69.6457 92.762 69.3917 93.39 68.6047C93.991 67.7727 95.267 66.5067 97.121 65.5207C98.757 64.6417 100.483 63.8787 102.304 63.2977C104.145 62.7237 106.021 62.4007 107.926 62.2707C111.729 62.0177 115.595 62.6267 119.12 64.2097C123.306 66.0937 127.101 69.4107 129.249 73.6207C130.426 75.9207 131.168 78.4297 131.47 80.9797C131.765 83.5147 131.701 86.1537 130.973 88.6527C130.107 91.7317 128.352 94.5087 126.116 96.7117C124.402 98.3667 122.46 99.7617 120.353 100.83C118.24 101.925 115.95 102.615 113.663 103.036C110.099 103.693 106.578 103.836 103.124 104.123C102.361 104.18 101.626 104.282 100.865 104.35C100.165 104.434 99.584 104.483 99.094 104.497C98.607 104.534 98.211 104.545 97.88 104.534C97.546 104.516 97.286 104.511 97.058 104.457C96.827 104.388 96.633 104.293 96.457 104.206C96.297 104.122 96.094 104.066 95.995 104.002C95.828 103.893 96.018 103.728 96.491 103.391C96.96 103.018 97.78 102.799 98.836 102.521C101.997 101.845 105.275 101.744 108.462 101.473C111.643 101.202 114.793 100.795 117.619 99.6147C121.795 97.8757 125.657 94.7657 127.645 90.7467L127.699 90.7677Z" fill="#231F20"/>
<path fill-rule="evenodd" clip-rule="evenodd" d="M119.738 35.9065C120.344 35.1735 121.337 34.9905 121.954 35.5005C125.014 38.0265 116.581 39.7285 119.738 35.9065" fill="#231F20"/>
<path fill-rule="evenodd" clip-rule="evenodd" d="M107.168 118.089C107.774 117.356 108.767 117.173 109.384 117.683C112.444 120.209 104.011 121.911 107.168 118.089" fill="#231F20"/>
<path fill-rule="evenodd" clip-rule="evenodd" d="M29.3581 44.9336C29.9641 44.1996 30.9571 44.0176 31.5741 44.5276C34.6341 47.0536 26.2011 48.7556 29.3581 44.9336" fill="#231F20"/>
<path fill-rule="evenodd" clip-rule="evenodd" d="M75.8836 110.566L71.8676 110.818L71.6616 110.831L71.6316 110.829L71.5676 110.826L71.4226 110.821L71.0736 110.817L71.2816 111.038L71.4116 111.169L71.4836 111.239L71.8156 111.532L74.6236 113.945L77.5606 116.569C78.4686 117.385 79.7896 118.555 79.8896 118.68L80.2336 118.317L81.0876 117.344L82.7916 115.396C84.0596 113.94 85.2946 112.442 86.5026 110.956L87.1226 110.186L87.3776 109.844L87.8466 109.233C87.2386 109.288 86.7446 109.304 86.1176 109.262C85.7486 109.229 85.4806 108.766 86.3546 108.227C86.7976 107.958 87.5726 107.665 88.6536 107.405C89.7206 107.147 91.0996 106.922 92.3776 106.817L92.5716 106.801L88.2036 112.001L85.7596 114.837C84.9316 115.77 84.1016 116.706 83.2696 117.643C82.2146 118.816 81.1566 119.992 80.0956 121.172C80.0956 121.172 80.0886 121.166 80.0846 121.162C79.2786 120.44 78.4676 119.713 77.6516 118.982C77.0706 118.475 76.4856 117.966 75.8996 117.456C74.7196 116.443 73.5346 115.424 72.3586 114.415L66.5596 109.35L72.8176 108.926L74.8536 108.807L74.7906 107.68L74.6706 105.89C74.4516 102.721 74.2586 99.5354 73.9856 96.3934C73.7736 93.9514 73.4556 91.5654 73.1836 89.1564C73.1206 88.6264 73.0586 88.1064 72.9956 87.5724C72.8076 85.5874 72.8836 84.9444 73.3466 84.4774C73.4526 84.3724 73.5556 84.2344 73.6646 84.1694C74.0336 83.9484 74.4146 84.7334 74.6416 86.1804C75.3166 90.4735 75.7236 95.0234 76.0856 99.5964C76.3496 103.235 76.6146 106.889 76.8796 110.539L75.9246 110.61L75.8836 110.566Z" fill="#231F20"/>
<path fill-rule="evenodd" clip-rule="evenodd" d="M80.4455 99.1495C80.4175 97.8565 80.3955 96.5635 80.3575 95.2725C80.3435 94.8005 80.2665 94.3355 80.2585 93.8635C80.2315 92.2015 80.2385 90.5365 80.1975 88.8765C80.1785 88.1385 80.0995 87.4025 80.0075 86.6765C79.8875 85.7455 79.6605 84.8175 79.8145 83.8645C79.9115 83.2695 82.0255 83.8475 82.1305 84.9245C82.3175 86.8335 82.3765 88.7495 82.2345 90.6995C82.1495 91.8645 82.3355 93.0565 82.3835 94.2395C82.4375 95.5385 82.4715 96.8395 82.5155 98.1405C82.5435 98.9415 82.5655 99.7435 82.6045 100.543C82.6645 101.753 82.6955 102.971 82.8195 104.168C82.9155 105.098 83.1355 106.001 83.3015 106.915C83.3395 107.116 83.3955 107.311 83.4215 107.514C83.5165 108.27 83.3925 108.522 82.8375 108.729C82.7115 108.777 82.5865 108.836 82.4575 108.868C82.0245 108.974 81.6375 108.694 81.4655 108.149C80.9525 106.532 80.7595 104.799 80.6205 103.056C80.5155 101.761 80.4665 100.457 80.3925 99.1555L80.4455 99.1495Z" fill="#231F20"/>
<path fill-rule="evenodd" clip-rule="evenodd" d="M39.3725 112.656C38.3095 112.683 37.2385 112.546 36.1745 112.498C35.1115 112.382 34.0495 112.224 33.0005 112.016C32.2395 111.827 31.4645 111.708 30.7125 111.49C28.0655 110.698 25.5505 109.383 23.4925 107.557C23.0305 107.158 22.5545 106.772 22.1785 106.286C21.7855 105.82 21.3555 105.384 20.9915 104.903L19.7255 102.943C19.4075 102.235 19.1095 101.516 18.8445 100.793C18.6795 100.34 18.8985 100.337 19.2525 100.626C19.6075 100.917 20.1025 101.482 20.4675 102.24C21.9205 104.864 24.0635 107.004 26.6665 108.526C27.0345 108.791 27.4775 108.932 27.8895 109.136C28.3145 109.314 28.7255 109.533 29.1715 109.669L30.5185 110.062L31.1895 110.26L31.8775 110.396L33.3865 110.704C33.8935 110.794 34.4095 110.833 34.9195 110.901C35.9395 111.06 36.9765 111.099 38.0115 111.159C38.6485 111.215 39.2895 111.184 39.9285 111.187C40.5685 111.177 41.2095 111.199 41.8495 111.139C43.7895 111.041 45.7365 110.839 47.6475 110.538C49.1385 110.332 50.5755 109.992 52.0345 109.7C52.3565 109.641 52.6645 109.551 52.9895 109.487C54.1885 109.234 54.5905 109.234 54.8985 109.38C54.9685 109.413 55.0575 109.44 55.1025 109.476C55.2525 109.59 54.8015 109.857 53.9435 110.16C51.3935 111.024 48.6545 111.927 45.7965 112.283L44.2055 112.475L42.5995 112.588C41.5305 112.681 40.4515 112.68 39.3755 112.693L39.3725 112.656Z" fill="#231F20"/>
<path fill-rule="evenodd" clip-rule="evenodd" d="M118.51 101.937C116.992 102.515 115.452 102.986 113.862 103.331C113.285 103.455 112.711 103.588 112.132 103.675C110.088 103.998 108.039 104.133 105.997 104.289C105.091 104.367 104.185 104.445 103.286 104.523C102.135 104.632 100.981 104.772 99.8235 104.781C99.1015 104.79 99.9515 104.002 101.276 103.858C103.625 103.617 105.97 103.422 108.333 103.249C109.746 103.138 111.202 102.906 112.615 102.643C114.17 102.37 115.69 101.941 117.189 101.419C118.106 101.092 119.008 100.721 119.888 100.306C121.221 99.6787 122.516 98.9407 123.669 98.0407C124.564 97.3427 125.351 96.5477 126.05 95.6817C126.22 95.5037 126.354 95.3047 126.511 95.1137C127.097 94.4067 127.251 94.1547 127.487 94.0627C127.537 94.0397 127.594 94.0017 127.633 93.9947C127.762 93.9637 127.636 94.3327 127.325 94.9677C126.371 96.8517 124.682 98.4027 122.876 99.6657C121.516 100.594 120.045 101.359 118.521 101.958L118.51 101.937Z" fill="#231F20"/>
</svg>
