<svg width="148" height="148" viewBox="0 0 148 148" fill="none" xmlns="http://www.w3.org/2000/svg">
<path fill-rule="evenodd" clip-rule="evenodd" d="M112.953 44.3855C112.561 44.0265 112.025 43.7695 111.462 43.5805C110.9 43.3865 110.306 43.2485 109.702 43.1445C108.494 42.9365 107.255 42.8325 106.009 42.7995C103.52 42.7305 101.006 42.8555 98.5457 43.1475C98.1517 43.2185 97.9517 40.5775 98.3837 40.5995C100.998 40.5815 103.581 40.7395 106.159 41.0965C107.446 41.2755 108.731 41.5255 109.999 41.8925C110.632 42.0755 111.262 42.2955 111.875 42.5865C112.484 42.8725 113.095 43.2345 113.583 43.7925C114.006 44.3345 113.28 44.6695 112.953 44.3855" fill="#231F20"/>
<path fill-rule="evenodd" clip-rule="evenodd" d="M34.6526 83.451L34.0886 69.452L33.8386 64.349C33.6446 58.347 33.5206 52.343 33.4116 46.339C33.3816 43.674 33.2606 40.998 33.1726 38.354C33.0636 34.96 32.8026 31.544 33.2616 28.144C33.3936 27.084 33.7036 27.228 34.1446 28.121C34.3666 28.568 34.6316 29.202 34.8996 29.966C35.1346 30.731 35.2796 31.626 35.3286 32.599C35.6116 39.505 35.7436 46.415 35.7346 53.402C35.7296 57.58 36.0276 61.917 36.2036 66.185L36.7926 80.269C36.9316 83.159 37.0706 86.049 37.2096 88.936C37.4456 93.308 37.6636 97.704 37.9916 102.038C38.2486 105.408 38.6436 108.701 38.9916 112.022C39.0736 112.753 39.1536 113.469 39.2366 114.205C39.4176 116.945 39.3206 117.826 38.7996 118.453C38.6926 118.6 38.6006 118.793 38.5086 118.888C38.2496 119.226 37.5816 118.094 37.2676 116.102C36.2886 110.174 35.8556 103.886 35.4086 97.572C35.0936 92.882 34.8526 88.165 34.5956 83.46L34.6526 83.451Z" fill="#231F20"/>
<path fill-rule="evenodd" clip-rule="evenodd" d="M110.06 92.466C111.025 80.202 112.085 67.945 112.877 55.698C113.017 53.465 113.129 51.229 113.201 49.005C113.238 47.893 113.27 46.779 113.271 45.685C113.282 45.131 113.265 44.597 113.256 44.06C113.251 43.808 113.221 43.521 113.213 43.339C113.206 43.242 113.205 43.19 113.174 43.125C113.143 43.094 113.112 43.063 113.074 43.038C113.044 43.011 113.01 42.995 112.866 42.916C112.63 42.788 112.35 42.675 112.057 42.573C111.466 42.37 110.812 42.219 110.146 42.096C108.808 41.855 107.405 41.731 105.997 41.658C104.587 41.585 103.164 41.569 101.739 41.587L99.6007 41.642C98.5357 41.681 97.2027 41.784 96.0257 41.867L96.2777 39.985L96.3827 39.054L96.4577 38.262L96.6267 36.07C96.7237 34.603 96.7987 33.132 96.8527 31.661C96.9067 30.19 96.9417 28.718 96.9377 27.258L96.9227 26.168L96.8867 25.222C96.8777 25.072 96.8687 24.919 96.8387 24.766C96.8407 24.557 96.6187 24.62 96.4827 24.611L96.1627 24.619L95.4347 24.655L93.9087 24.741L90.8447 24.929L84.7057 25.292C77.6877 25.671 70.6197 25.994 63.6237 25.975C59.1297 25.961 54.6137 25.833 50.0977 25.308C47.8417 25.028 45.5847 24.66 43.3537 24.056C41.1447 23.426 38.8717 22.637 36.9797 20.957C36.6977 20.678 36.4467 20.459 36.2817 20.218C36.1237 19.966 36.0107 19.754 35.9367 19.582C35.7887 19.237 35.7967 19.058 35.9207 19.012C36.0447 18.966 36.2857 19.05 36.6037 19.221C36.7627 19.306 36.9397 19.413 37.1287 19.537C37.3447 19.636 37.5847 19.747 37.8507 19.87C38.8927 20.348 40.3617 20.851 42.2597 21.221C44.1447 21.608 46.3957 21.941 48.8727 22.302C52.7437 22.865 56.7117 23.099 60.6867 23.211C64.6647 23.321 68.6617 23.302 72.6647 23.208C76.6687 23.112 80.6807 22.945 84.7007 22.742C86.7127 22.633 88.7267 22.524 90.7417 22.415L93.7747 22.248L95.3027 22.173L96.1237 22.137L97.4987 22.108C98.3397 22.24 99.0357 22.749 99.1837 23.71C99.2677 24.178 99.3117 24.674 99.3397 25.155L99.3657 26.019C99.3847 27.149 99.3657 28.259 99.3327 29.369C99.2767 31.233 99.1907 33.1 99.0807 34.984C99.0157 35.927 98.9517 36.874 98.8857 37.825L98.7977 38.832L98.7407 39.277L100.12 39.216C101.065 39.18 102.013 39.159 102.964 39.154C104.868 39.147 106.783 39.195 108.72 39.393C109.689 39.494 110.664 39.632 111.653 39.861C112.147 39.976 112.645 40.113 113.15 40.301C113.679 40.52 114.099 40.646 114.793 41.173C114.951 41.289 115.093 41.421 115.237 41.553L115.453 41.751C115.53 41.813 115.508 41.932 115.54 42.021C115.606 42.392 115.729 42.808 115.731 43.144C115.778 43.668 115.79 44.157 115.796 44.64C115.81 45.61 115.794 46.558 115.765 47.504C115.556 53.744 115.088 59.916 114.644 66.104L113.208 84.639C112.611 92.241 112 99.844 111.486 107.441C111.294 110.318 111.108 113.198 110.958 116.077C110.887 117.516 110.819 118.955 110.78 120.389L110.754 121.464L110.746 122.75L110.735 123.136L110.729 123.33C110.718 123.389 110.638 123.414 110.596 123.458L109.979 123.933C109.786 124.1 109.535 124.221 109.35 124.323C109.17 124.414 108.994 124.529 108.811 124.597C105.889 125.781 102.936 125.897 100.027 126.049C97.1147 126.134 94.2197 126.063 91.3447 125.911C86.8727 125.678 82.4637 125.299 78.0767 124.874C75.8877 124.654 73.7017 124.433 71.5147 124.213C70.4347 124.109 69.3167 123.989 68.2997 123.942C67.3047 123.936 66.1507 123.978 65.0887 124.028C63.1797 124.121 61.3287 124.311 59.4367 124.576C55.9337 125.085 53.6837 125.699 52.0717 126.043C50.4647 126.408 49.4997 126.531 48.6557 126.478C48.2717 126.457 47.7797 126.477 47.5297 126.405C47.1087 126.284 47.5447 125.855 48.7287 125.207C49.9167 124.575 51.8687 123.741 54.5037 123.049C58.4087 121.998 62.5217 121.524 66.6187 121.396C67.1427 121.384 67.6157 121.364 68.1847 121.365C68.8117 121.375 69.2917 121.424 69.8227 121.465C70.8387 121.564 71.8577 121.664 72.8797 121.763C74.8997 121.974 76.9287 122.185 78.9637 122.397C83.0277 122.804 87.1167 123.175 91.2107 123.393C95.2927 123.596 99.4287 123.714 103.374 123.285C104.821 123.117 106.271 122.863 107.454 122.406C107.597 122.347 107.753 122.296 107.886 122.233L108.067 122.131C108.135 122.094 108.195 122.062 108.188 122.069L108.205 122.063L108.206 122.059V121.623L108.231 120.439C108.312 117.292 108.492 114.189 108.681 111.079C109.069 104.866 109.533 98.668 109.995 92.476L110.06 92.466Z" fill="#231F20"/>
<path fill-rule="evenodd" clip-rule="evenodd" d="M115.722 42.0676C113.968 38.5376 111.187 35.3806 108.648 32.4026C105.836 29.1056 102.873 25.7106 99.3877 23.1036C99.0117 22.8226 98.0997 23.1506 97.7177 23.2866C97.5677 23.3396 96.5867 23.7136 96.9227 23.9646C100.418 26.5786 103.395 29.9856 106.206 33.2966C108.686 36.2186 111.396 39.3096 113.114 42.7666C113.403 43.3466 115.897 42.4196 115.722 42.0676" fill="#231F20"/>
<path fill-rule="evenodd" clip-rule="evenodd" d="M48.0054 52.7138C48.5794 52.2728 49.1084 52.0208 49.6254 51.8868C50.1554 51.7258 50.6864 51.6868 51.2104 51.7008C54.7334 51.7698 58.3004 51.6688 61.8574 51.6298C64.9204 51.6188 67.9894 51.6078 71.0524 51.5968C76.3284 51.5098 81.6044 51.3508 86.8844 51.2128L91.5664 51.0988C93.0614 51.0338 94.5554 50.9708 96.0574 50.9478C96.3104 50.9428 96.5754 50.8958 96.8144 50.9528C97.4564 51.1078 97.6044 51.6988 97.1354 52.1488C97.0284 52.2508 96.9104 52.4188 96.7944 52.4218C95.6364 52.4538 94.7254 53.2628 93.5054 53.2778C91.2504 53.2598 88.9934 53.5078 86.7344 53.6208C85.8314 53.6658 84.9244 53.6748 84.0204 53.6578C82.8734 53.6168 81.6994 53.5748 80.5514 53.5328C78.9704 53.5028 71.5374 53.6298 64.4014 53.6478C60.8324 53.6488 57.3404 53.6358 54.6874 53.5478C53.3614 53.5148 52.2424 53.4458 51.4374 53.4108C50.6234 53.3478 50.1254 53.2888 50.0374 53.2788C49.4734 53.2148 48.8924 52.9758 48.0054 52.7138" fill="#231F20"/>
<path fill-rule="evenodd" clip-rule="evenodd" d="M49.8262 66.6599C50.3402 66.2029 50.7802 65.9479 51.2212 65.7819C51.6702 65.6059 52.1172 65.5529 52.5582 65.5519C55.5542 65.4899 58.5872 65.3039 61.6182 65.1829C64.2282 65.0739 66.8442 65.0819 69.4612 65.0069C73.9632 64.8769 78.4712 64.7359 82.9952 64.7489L87.0112 64.8149C88.2972 64.8359 89.5832 64.8439 90.8772 64.9449C91.0942 64.9579 91.3262 64.9309 91.5252 65.0039C92.0642 65.2049 92.1302 65.8039 91.6902 66.2179C91.5902 66.3119 91.4742 66.4709 91.3752 66.4669C90.3872 66.4259 89.5632 67.1349 88.5332 67.0969C86.6342 66.9469 84.7142 67.1049 82.8012 67.1529C82.0352 67.1759 81.2682 67.1599 80.5022 67.1209C79.5332 67.0629 78.5312 67.0029 77.5612 66.9459C76.2192 66.8919 69.9052 66.9849 63.8352 67.1479C60.8002 67.2219 57.8262 67.2859 55.5632 67.2839C53.3052 67.2999 51.7392 67.1969 51.5842 67.1619C51.1012 67.1119 50.5962 66.9079 49.8262 66.6599" fill="#231F20"/>
<path fill-rule="evenodd" clip-rule="evenodd" d="M51.0815 81.3195C51.6215 80.8635 52.0825 80.6145 52.5535 80.4455C53.0295 80.2705 53.5045 80.2205 53.9765 80.2185C57.1645 80.1615 60.3885 79.9895 63.6095 79.8805C66.3825 79.7805 69.1615 79.8005 71.9415 79.7345C76.7225 79.6205 81.5085 79.4905 86.3105 79.5085C87.7285 79.5045 89.1505 79.5685 90.5725 79.5755C91.9385 79.6025 93.3015 79.6055 94.6765 79.7145C94.9075 79.7285 95.1535 79.7015 95.3655 79.7765C95.9385 79.9795 96.0125 80.5795 95.5475 80.9915C95.4415 81.0855 95.3195 81.2435 95.2145 81.2385C94.1655 81.1915 93.2935 81.9025 92.1995 81.8625C90.1805 81.7075 88.1395 81.8645 86.1045 81.9115C85.2905 81.9345 84.4765 81.9115 83.6615 81.8785C82.6295 81.8185 81.5675 81.7565 80.5365 81.6955C79.1095 81.6405 72.3995 81.7165 65.9505 81.8545C62.7265 81.9165 59.5685 81.9675 57.1665 81.9575C54.7695 81.9665 53.1125 81.8625 52.9475 81.8275C52.4365 81.7755 51.9025 81.5745 51.0815 81.3195" fill="#231F20"/>
<path fill-rule="evenodd" clip-rule="evenodd" d="M61.7236 96.6774C62.2726 95.7224 62.6056 95.4944 62.9946 95.4764C64.2556 95.4234 65.5446 95.3454 66.8296 95.3174C67.9366 95.2904 69.0466 95.3794 70.1576 95.3694C72.0686 95.3504 73.9806 95.2784 75.8936 95.2134C76.4586 95.1924 77.0236 95.1964 77.5886 95.1564C78.1286 95.1074 78.6696 95.0574 79.2096 95.0324C79.3016 95.0274 79.3956 94.9794 79.4826 95.0364C79.7176 95.1904 79.7856 95.7814 79.6266 96.2314C79.5906 96.3334 79.5506 96.5014 79.5086 96.5064C79.0886 96.5404 78.7716 97.3464 78.3276 97.3524C77.5046 97.3184 76.6856 97.5364 75.8646 97.6184C75.5366 97.6524 75.2056 97.6464 74.8756 97.6174C74.4546 97.5794 74.0336 97.4784 73.6126 97.4414C73.0366 97.3904 70.3316 97.3924 67.7336 97.3514C66.4326 97.3294 65.1596 97.2954 64.1866 97.2454C63.2186 97.2064 62.5366 97.1234 62.4696 97.0954C62.2646 97.0424 62.0486 96.8714 61.7236 96.6774" fill="#231F20"/>
<path fill-rule="evenodd" clip-rule="evenodd" d="M53.6387 124.598C53.6387 124.598 65.0747 121.372 79.7277 124.056C94.3817 126.74 109.961 122.962 109.961 122.962C109.961 122.962 106.286 131.681 81.1337 127.156C66.6667 124.554 55.2547 128.614 52.6917 128.615C51.1857 128.616 53.6387 124.598 53.6387 124.598" fill="#231F20"/>
</svg>
