<svg width="148" height="148" viewBox="0 0 148 148" fill="none" xmlns="http://www.w3.org/2000/svg">
<path fill-rule="evenodd" clip-rule="evenodd" d="M72.0551 118.304C70.1641 118.258 68.2281 118.075 66.3231 117.541C65.6301 117.347 64.9221 117.156 64.2561 116.834C63.0831 116.276 61.9931 115.478 61.1351 114.486C60.7021 113.983 60.3311 113.479 59.9991 112.882C59.6511 112.285 59.4481 111.592 59.3671 110.897C59.2851 110.278 59.3511 109.641 59.5031 109.04C59.6681 108.437 59.9621 107.888 60.3051 107.386C61.2261 106.122 62.7871 105.365 64.2441 105.504C64.7011 105.533 64.6361 105.769 64.3431 106.127C64.0301 106.444 63.6081 107.09 63.1391 107.444C62.6881 107.75 62.4271 108.211 62.1361 108.56C61.8671 108.941 61.6941 109.359 61.6171 109.784C61.5021 110.202 61.4811 110.651 61.5701 111.118C61.6621 111.583 61.8931 112.046 62.2071 112.593C62.5891 113.2 63.1151 113.728 63.7221 114.159C64.3401 114.579 65.0301 114.905 65.7411 115.19C67.3131 115.813 69.0811 116.085 70.8671 116.198C71.9701 116.261 73.0901 116.277 74.1921 116.214C75.8651 116.116 77.5521 115.908 79.1371 115.417C80.3791 115.07 81.5291 114.54 82.6261 113.936C82.8701 113.805 83.0971 113.659 83.3351 113.518C84.2191 112.994 84.5511 112.899 84.9531 113.043C85.0431 113.075 85.1461 113.093 85.2181 113.134C85.4451 113.246 85.2771 113.755 84.6661 114.335C83.7551 115.181 82.6911 115.931 81.5331 116.533C80.9531 116.829 80.3571 117.117 79.7371 117.337C79.1111 117.534 78.4731 117.7 77.8301 117.83C75.9231 118.232 73.9721 118.36 72.0581 118.356L72.0551 118.304Z" fill="#231F20"/>
<path fill-rule="evenodd" clip-rule="evenodd" d="M77.2122 119.028C76.1872 119.3 75.1442 119.494 74.0982 119.654C73.7132 119.706 73.3362 119.756 72.9502 119.808C71.5902 119.906 70.2222 119.876 68.8742 119.687C68.2742 119.608 67.6762 119.502 67.0862 119.377C66.3382 119.188 65.5522 118.996 64.9142 118.504C64.7112 118.36 64.8722 118.175 65.1602 118.061C65.4552 117.942 65.8352 117.913 66.2152 118.034C67.5432 118.532 68.9992 118.756 70.4922 118.887C71.3902 118.955 72.3292 118.856 73.2422 118.724C74.2522 118.609 75.2542 118.401 76.2472 118.153C76.8592 118.007 77.4602 117.806 78.0622 117.62L79.4182 117.139C79.8612 116.959 80.3012 116.768 80.7352 116.571C81.3992 116.243 82.0162 115.855 82.6592 115.51L83.0742 115.267C83.6042 114.98 83.8142 114.958 84.0202 115.045C84.0672 115.066 84.1222 115.08 84.1582 115.106C84.2772 115.189 84.1282 115.419 83.7832 115.721C82.7662 116.627 81.5392 117.373 80.2302 117.956C79.2692 118.416 78.2532 118.77 77.2212 119.054L77.2122 119.028Z" fill="#231F20"/>
<path fill-rule="evenodd" clip-rule="evenodd" d="M79.2119 125.477C79.5369 125.2 79.8149 124.806 80.0699 124.393C80.1679 124.246 80.2039 124.059 80.2959 123.903C80.6099 123.336 80.8869 122.723 81.1619 122.089C81.2939 121.813 81.3899 121.518 81.4979 121.224C81.6439 120.851 81.7379 120.427 82.1579 120.122C82.2779 120.028 82.4159 120.216 82.5419 120.444C82.6619 120.685 82.8079 120.885 82.7699 121.079C82.5879 121.705 82.5089 122.517 82.0579 123.22C81.8139 123.648 81.7139 124.157 81.4959 124.625C81.2649 125.141 80.9549 125.638 80.6079 126.11C80.3579 126.382 80.1389 126.671 79.8349 126.897L79.5079 127.163L79.1319 127.366C78.8919 127.52 78.6219 127.598 78.3599 127.697C78.1589 127.79 77.9579 127.853 77.7489 127.911C77.5439 127.965 77.3279 128.063 77.1159 128.08C77.0229 128.092 76.9309 128.094 76.8359 128.086C76.4849 128.042 76.3819 127.936 76.3559 127.583C76.3489 127.508 76.3379 127.435 76.3379 127.367C76.3389 127.153 76.4979 126.884 76.7019 126.787C77.3269 126.477 77.7919 126.375 78.2469 126.153C78.5509 125.953 78.8999 125.788 79.1829 125.454L79.2119 125.477Z" fill="#231F20"/>
<path fill-rule="evenodd" clip-rule="evenodd" d="M63.46 107.824C63.209 107.928 62.911 108.042 62.654 108.241C62.562 108.314 62.507 108.418 62.415 108.493C62.079 108.756 61.748 109.064 61.504 109.428C61.414 109.588 61.358 109.777 61.369 109.942C61.363 110.177 61.447 110.303 61.273 110.484C61.211 110.545 60.825 110.726 60.394 110.772C59.978 110.842 59.434 110.643 59.391 110.367C59.278 109.873 59.375 109.441 59.526 109.081C59.672 108.712 59.898 108.409 60.17 108.153C60.502 107.86 60.649 107.457 60.939 107.146C61.261 106.812 61.617 106.513 62.023 106.268C62.261 106.109 62.543 106.001 62.809 105.882C63.015 105.796 63.248 105.751 63.461 105.687C63.696 105.665 63.918 105.612 64.152 105.596C64.335 105.593 64.522 105.549 64.713 105.541C64.9 105.55 65.098 105.56 65.294 105.592C65.384 105.598 65.45 105.647 65.522 105.692C65.772 105.89 65.778 106.063 65.599 106.42C65.558 106.502 65.52 106.583 65.474 106.659C65.32 106.909 65.089 107.087 64.91 107.183C64.354 107.497 64.325 107.589 64.09 107.644C63.938 107.678 63.717 107.746 63.49 107.867L63.46 107.824Z" fill="#231F20"/>
<path fill-rule="evenodd" clip-rule="evenodd" d="M46.3074 91.018C43.9114 88.24 41.7524 85.231 40.0264 81.971C39.6934 81.386 39.4044 80.778 39.1204 80.167C38.8194 79.564 38.5484 78.949 38.3174 78.315C36.5534 73.905 35.8324 69.09 36.1844 64.383C36.2414 63.337 36.4154 62.298 36.5414 61.259C36.7654 60.237 36.8904 59.193 37.1854 58.197C37.7744 55.608 38.7804 53.034 40.3394 50.86C40.8294 50.185 40.8734 50.359 40.6354 51.028C40.3874 51.697 39.9714 52.908 39.4194 54.282C39.1754 54.893 38.9594 55.516 38.7664 56.144C38.5714 56.769 38.4394 57.427 38.2534 58.061C38.0714 58.699 37.9074 59.34 37.7984 59.994C37.6844 60.646 37.5124 61.289 37.4434 61.948C37.0254 64.566 36.9944 67.238 37.2494 69.893C37.5524 73.078 38.5444 76.307 39.9284 79.275C41.4334 82.552 43.3614 85.647 45.6284 88.486C47.0054 90.247 48.4944 91.926 50.0604 93.528C52.4214 95.968 54.9544 98.268 57.5364 100.447C59.5454 102.142 61.5894 103.711 63.6104 105.359C64.0534 105.725 64.4994 106.067 64.9314 106.456C66.5484 107.876 66.9854 108.428 67.1454 108.921C67.1834 109.032 67.2474 109.164 67.2564 109.24C67.2824 109.5 66.5604 109 65.3534 108.018C61.7484 105.131 57.8454 102.141 54.1354 98.862C51.3834 96.424 48.7144 93.845 46.2894 91.039L46.3074 91.018Z" fill="#231F20"/>
<path fill-rule="evenodd" clip-rule="evenodd" d="M41.5396 48.9742C43.1136 46.8712 44.9676 45.0212 46.9906 43.3982C49.0606 41.8402 51.2766 40.4982 53.6176 39.4232C58.3156 37.3352 63.4436 36.1972 68.6076 36.3592C70.4916 36.4172 72.3716 36.6342 74.1896 36.9952C75.1056 37.1762 76.0186 37.3942 76.9236 37.6612C77.8286 37.9232 78.7136 38.3062 79.6036 38.6332C82.6876 39.9812 85.4316 42.0572 87.6196 44.5642C89.8176 47.0702 91.4746 49.9882 92.6106 53.0592C94.9186 59.2072 95.3616 65.8812 94.5016 72.2572C94.1576 75.0982 93.5536 77.9012 92.8076 80.6502C92.0866 83.4102 91.1396 86.0922 90.1336 88.7252C88.8366 92.1092 87.2806 95.3952 85.5456 98.5762C83.8246 101.765 81.8686 104.82 79.7456 107.735C78.4146 109.55 78.3486 109.128 79.1006 107.356C79.4856 106.477 80.0296 105.233 80.7246 103.766C81.3946 102.284 82.2246 100.585 83.1726 98.7742C84.8626 95.5652 86.3096 92.2462 87.6946 88.9182C89.0506 85.5762 90.2086 82.1582 91.0826 78.6742C92.8466 71.7242 93.3916 64.4202 91.7116 57.4512C91.1996 55.3802 90.4806 53.3392 89.5326 51.3992C88.5806 49.4602 87.3476 47.6582 85.9086 46.0532C84.4646 44.4542 82.7976 43.0422 80.9146 41.9982C79.0346 40.9522 77.0376 40.1512 74.9096 39.6582C65.5996 37.3282 55.2216 39.7512 47.7646 45.8732C45.4856 47.7592 43.5046 50.0152 42.0506 52.5782C41.7246 53.2372 41.3746 53.8872 41.0636 54.5522L40.2986 56.6202C39.9166 58.0602 39.5186 59.5022 39.3246 60.9822L39.1856 61.8172L39.1156 62.6612L38.9816 64.3502L38.9926 66.0452L39.0016 66.8922L39.0806 67.7372C39.2156 69.9992 39.7376 72.2222 40.3796 74.3952C41.0356 76.5712 41.9826 78.6502 43.0126 80.6772C44.0906 82.6822 45.3126 84.6072 46.6416 86.4522C50.8196 92.1802 55.9636 96.9392 61.2376 101.598C62.4036 102.625 63.5656 103.606 64.7266 104.674C69.0396 108.589 70.2116 110.308 70.4366 111.7C70.4856 112.018 70.5386 112.417 70.5126 112.598C70.4866 112.755 70.3886 112.74 70.2206 112.599C70.0446 112.457 69.8616 112.182 69.4876 111.828C68.8006 111.11 67.6586 109.992 66.0776 108.605C61.3396 104.538 56.2416 100.402 51.5786 95.6172C46.9246 90.8492 42.5686 85.4262 39.7056 79.0542C38.6386 76.6982 37.8396 74.2052 37.2856 71.6522C36.7206 69.0952 36.5766 66.4502 36.6576 63.8312C36.7546 61.2022 37.2766 58.6202 37.9576 56.1012C38.7506 53.5412 39.9576 51.1252 41.4826 48.9492L41.5396 48.9742Z" fill="#231F20"/>
<path fill-rule="evenodd" clip-rule="evenodd" d="M67.3927 116.697C69.9417 117.164 72.6527 117.087 75.3107 116.654C76.2737 116.485 77.2497 116.217 78.1837 116.012C79.7547 115.605 81.3557 114.857 82.8167 113.99C84.2747 113.109 85.6347 112.03 86.5827 110.719C87.3817 109.537 87.5687 108.12 86.8597 106.959C86.4187 106.222 85.6787 105.614 84.8807 105.115C84.0657 104.635 83.1967 104.198 82.2727 103.869C81.6987 103.676 81.7847 103.488 82.3757 103.32C82.9457 103.19 84.1187 103.007 85.3137 103.54C86.3567 104.006 87.3837 104.638 88.2157 105.654C88.6507 106.155 88.9097 106.807 89.1557 107.446C89.2267 107.788 89.2837 108.139 89.3117 108.49C89.3207 108.838 89.2607 109.182 89.2247 109.527C88.9607 110.879 88.2577 111.952 87.4957 112.841C86.7277 113.742 85.8237 114.421 84.8937 115.034C83.7777 115.758 82.6207 116.411 81.4097 116.993C80.8037 117.283 80.1817 117.55 79.5367 117.781C79.2177 117.902 78.8717 117.99 78.5417 118.093L77.5787 118.303C74.7707 118.928 71.8597 119.255 68.9487 119.01C67.1597 118.853 65.3797 118.478 63.6847 117.822C62.4047 117.311 61.1977 116.587 60.1357 115.669C59.0887 114.735 58.2327 113.53 57.8097 112.132C57.5037 111.049 57.4577 109.831 57.8267 108.725C58.2067 107.623 58.9177 106.674 59.7657 105.946C60.1397 105.623 60.5187 105.327 60.9437 105.079C61.7277 104.616 62.3167 104.479 62.7307 104.427C63.1527 104.394 63.4247 104.49 63.6687 104.691C63.7797 104.78 63.9117 104.859 63.9837 104.953C64.2257 105.278 63.6627 105.746 62.7357 106.331C61.3547 107.181 60.1937 108.358 59.8767 109.614C59.6847 110.24 59.7197 110.858 59.8667 111.511C60.0447 112.164 60.4277 112.801 60.8957 113.395C62.3847 115.154 64.8547 116.21 67.3977 116.644L67.3927 116.697Z" fill="#231F20"/>
<path fill-rule="evenodd" clip-rule="evenodd" d="M64.7227 111.965C66.1367 112.557 67.7097 112.944 69.3187 113.133C69.9067 113.205 70.5017 113.195 71.0947 113.218C73.1887 113.31 75.3297 113.155 77.3807 112.632C78.2877 112.398 79.1797 112.077 79.9967 111.657C81.0477 111.107 81.9627 110.397 82.7747 109.608C83.0327 109.363 83.2247 109.503 83.2607 109.937C83.3187 110.378 83.1367 111.145 82.5387 111.689C80.4167 113.536 77.7907 114.397 75.1767 114.653C73.6107 114.802 71.9957 115.042 70.3847 114.996C68.6197 114.943 66.8447 114.713 65.1357 114.162C64.0867 113.824 63.0607 113.372 62.1137 112.762C61.4007 112.295 60.7347 111.728 60.1867 111.046C59.9307 110.691 59.6737 110.337 59.4827 109.94C59.2637 109.584 59.1037 109.017 59.1137 108.535C59.1247 107.752 59.4237 107.057 59.8067 106.477C60.1957 105.895 60.6837 105.403 61.2467 105.003C61.4907 104.821 61.7447 104.66 62.0247 104.523C63.0927 104.048 63.5807 104.232 63.8207 104.654C63.8777 104.752 63.9447 104.846 63.9727 104.942C64.0477 105.267 63.7017 105.564 63.1877 105.847C62.4037 106.26 61.6657 106.936 61.2647 107.636C61.0637 107.982 60.9757 108.32 60.9957 108.543C60.9987 108.659 61.0337 108.748 61.0787 108.842C61.1327 108.958 61.2827 109.199 61.3737 109.375C62.0767 110.473 63.3107 111.349 64.7387 111.919L64.7227 111.965Z" fill="#231F20"/>
<path fill-rule="evenodd" clip-rule="evenodd" d="M70.4778 121.118C71.7968 121.428 73.2318 121.475 74.6628 121.346C75.1878 121.31 75.6978 121.164 76.2198 121.078C78.0668 120.777 79.8918 120.202 81.6378 119.437C82.4038 119.081 83.1368 118.644 83.8008 118.147C84.6778 117.52 85.3758 116.743 86.0968 116.021C86.3398 115.803 86.5568 115.937 86.6598 116.352C86.7078 116.557 86.7488 116.857 86.6878 117.169C86.6158 117.458 86.4768 117.777 86.2548 118.063C84.5898 119.919 82.5178 121.249 80.2228 121.95C78.8478 122.344 77.4788 122.917 76.0288 123.168C74.4458 123.455 72.8158 123.556 71.1888 123.393C70.1908 123.287 69.1858 123.05 68.2448 122.715C66.8178 122.191 65.4698 121.387 64.3518 120.339C63.4788 119.537 62.6758 118.635 62.0988 117.576C61.9808 117.34 61.8648 117.108 61.7658 116.861C61.4768 115.918 61.6418 115.557 62.0378 115.265C62.1288 115.198 62.2108 115.12 62.2978 115.076C62.5768 114.929 63.0008 115.21 63.3688 115.723C63.9098 116.488 64.3808 117.209 64.9178 117.87C65.4568 118.529 66.0918 119.097 66.8118 119.578C67.8698 120.288 69.1828 120.807 70.4848 121.064L70.4778 121.118Z" fill="#231F20"/>
<path fill-rule="evenodd" clip-rule="evenodd" d="M64.9707 59.7382C64.9347 59.2372 64.9317 58.7232 64.9597 58.1972L65.0187 57.3862L65.1157 56.8012C65.1717 56.5902 65.2477 56.3862 65.3127 56.1782C65.5907 55.3422 66.2407 54.7982 67.0107 54.6392C67.7887 54.4852 68.5997 54.7522 69.2237 55.3202C69.3747 55.4672 69.5327 55.6182 69.6577 55.7852C69.7967 55.9532 69.9287 56.1162 69.9857 56.2252C70.1447 56.4732 70.2707 56.7172 70.3907 56.9612C70.6287 57.4472 70.8117 57.9272 70.9757 58.4052C71.2847 59.3692 71.5437 60.3692 71.6607 61.3612C72.1537 65.3302 71.5567 69.3322 69.8197 72.9272C69.5007 73.5822 69.1277 74.2162 68.7157 74.8302C68.5067 75.1392 68.2267 75.4512 67.9807 75.7572C67.6877 76.0382 67.3897 76.3252 67.0547 76.5672C65.6857 77.5592 63.8517 77.8202 62.3487 77.4642C60.9977 77.1872 59.7997 76.6142 58.7127 75.9302C57.6237 75.2382 56.6447 74.4332 55.7587 73.4972C54.8587 72.5312 54.1597 71.4712 53.5717 70.3452C52.9907 69.2182 52.5127 68.0272 52.2727 66.7382C52.0367 65.4662 51.9937 64.0372 52.6167 62.7142C52.9117 62.0712 53.3177 61.4952 53.9077 61.0092C54.4857 60.5222 55.2937 60.2402 56.0607 60.2642C57.6167 60.3162 58.7887 61.2532 59.6727 62.1082C60.5857 62.9972 61.3407 64.0052 62.0007 65.0522C64.3337 68.7862 65.6377 72.9742 66.8757 76.9952C67.6847 79.5922 68.3947 82.2592 68.8467 84.9832C69.0587 86.3472 69.2217 87.7232 69.2637 89.1052C69.3057 90.4882 69.2347 91.8692 69.1047 93.2372C68.8967 94.9432 68.6447 94.6702 68.3797 93.2352C68.2337 92.4692 68.0417 91.4752 67.8207 90.3212C67.5567 89.1302 67.2917 87.7582 67.0387 86.2642C66.5867 83.6142 65.8317 81.0202 65.0227 78.4082C64.2347 75.7662 63.4477 73.1412 62.4917 70.6412C61.5337 68.1482 60.3687 65.7032 58.6897 63.8072C58.2757 63.3362 57.8077 62.8882 57.3687 62.5862C56.9127 62.2852 56.4257 62.0992 56.0127 62.1002C55.5987 62.0892 55.2377 62.2372 54.8877 62.5752C54.5377 62.9152 54.2407 63.4242 54.0907 63.9172C53.7017 65.1662 54.0017 66.7692 54.5917 68.2132C55.1787 69.6692 56.0567 71.0902 57.1257 72.2082C58.2437 73.3402 59.5887 74.3142 61.0137 74.9602C62.4317 75.5742 63.9977 75.8662 65.2227 75.2932C65.8997 74.9992 66.4817 74.4812 66.9627 73.8312C67.4517 73.1242 67.8837 72.3542 68.2417 71.5462C68.9377 69.9202 69.4017 68.1662 69.5987 66.3842C69.8137 64.6022 69.7687 62.7892 69.4537 61.0462C69.2757 60.1832 69.0407 59.3322 68.7077 58.5182C68.5427 58.1172 68.3557 57.7332 68.1447 57.4032C67.9697 57.1282 67.8807 57.0232 67.6757 56.9062C67.4337 56.7692 67.1297 56.9142 67.0337 57.1652C66.9807 57.2832 66.9357 57.4172 66.9167 57.5382C66.8727 57.7382 66.8237 58.0292 66.8147 58.2842C66.7627 59.3502 66.8837 60.4712 67.0917 61.5632C67.3027 62.6562 67.6047 63.7402 68.0267 64.7562C68.4387 65.7462 68.9997 66.7842 69.7167 67.2802C70.3097 67.6432 71.0417 67.8212 71.7447 67.6882C72.4567 67.5682 73.1557 67.1862 73.7687 66.6832C74.9877 65.6662 75.9647 64.2132 76.4327 62.7032C76.6637 61.9882 76.6707 61.1662 76.5677 60.3872C76.4557 59.6202 76.1757 58.8572 75.7167 58.4662C75.2417 58.0722 74.7677 58.0772 74.2667 58.5502C73.7627 59.0332 73.3517 59.7632 73.0417 60.5092C72.7857 61.0922 72.6367 61.6862 72.4897 62.3422C72.3247 62.9772 72.2147 63.6252 72.1087 64.2722C71.9177 65.5682 71.8027 66.8732 71.7747 68.1792C71.7157 70.7912 71.9137 73.4012 72.3667 75.9742C72.5667 77.1082 72.8157 78.2062 73.0987 79.3282C73.6147 81.4122 74.0597 82.7512 74.2997 83.7202C74.5517 84.6852 74.5917 85.2872 74.5187 85.8272C74.4847 86.0732 74.4807 86.3842 74.4187 86.5492C74.2587 87.0972 73.0207 85.6492 71.9107 82.5272C70.3037 77.9072 69.4997 72.8502 69.7197 67.6992C69.7887 66.4132 69.9097 65.1202 70.1257 63.8322C70.2467 63.1912 70.3187 62.5392 70.4737 61.8982L70.6857 60.9212C70.7797 60.5522 70.8897 60.2202 71.0117 59.8812C71.2627 59.2102 71.5597 58.5502 71.9957 57.8832C72.4317 57.2472 73.0137 56.4642 74.2807 56.0432C74.8847 55.9062 75.5567 55.8932 76.1257 56.1702C76.7267 56.3672 77.1547 56.7352 77.5037 57.1222C78.1957 57.9162 78.4547 58.7492 78.6337 59.5252C78.8547 60.6962 78.8827 61.7692 78.5857 63.0082C78.2737 64.1362 77.7787 65.0962 77.1787 65.9912C76.5727 66.8792 75.8517 67.6942 74.9587 68.3842C74.0707 69.0612 72.9627 69.6412 71.6527 69.7452C71.3337 69.7922 70.9957 69.7352 70.6707 69.7202C70.3457 69.6792 70.0307 69.5762 69.7147 69.4942C69.4187 69.3742 69.1337 69.2322 68.8487 69.0922C68.5297 68.9052 68.2537 68.6782 68.0227 68.4522C67.1427 67.5332 66.6907 66.5762 66.2877 65.6242C65.5317 63.7102 65.0807 61.7832 64.9247 59.7522L64.9707 59.7382Z" fill="#231F20"/>
<path fill-rule="evenodd" clip-rule="evenodd" d="M104.587 62.1537C104.564 62.3287 104.333 62.2517 103.974 62.0397C103.859 61.9727 103.588 61.6937 103.579 61.6247C103.561 61.4907 103.546 61.3577 103.554 61.2437C103.554 61.1747 104.008 60.4497 104.169 60.1947C104.319 59.9457 104.516 59.7447 104.73 59.5647C105.155 59.1867 105.61 58.8357 106.091 58.5157C106.198 58.4457 106.318 58.3957 106.446 58.3627C106.892 58.2577 107.276 58.0607 107.656 57.8307C107.72 57.7937 107.794 57.7747 107.83 57.6787C107.877 57.5047 109.02 57.0517 109.194 57.0727C109.611 57.0897 110.009 57.0687 110.414 57.1197C110.471 57.1267 110.524 57.0857 110.589 57.1657C110.738 57.3497 110.846 57.2997 110.965 57.2997C111.128 57.2957 111.294 57.3147 111.46 57.3687C111.542 57.3947 111.629 57.5017 111.711 57.5857C111.785 57.6607 111.766 57.9607 111.746 57.9947C111.686 58.0937 111.75 58.2287 111.764 58.3517C111.769 58.3927 111.775 58.4467 111.774 58.4807C111.757 58.5467 111.041 59.1677 110.974 59.1917C110.963 59.1857 110.695 59.3017 110.419 59.4097C110.141 59.5197 109.86 59.6517 109.807 59.6927C109.751 59.7307 109.672 59.7037 109.6 59.6957C109.56 59.6847 108.79 60.1587 108.761 60.1747C108.582 60.2307 108.449 60.3767 108.202 60.3007C108.153 60.2877 108.124 60.3147 108.092 60.3347C107.817 60.5067 107.502 60.6097 107.197 60.7457C107.044 60.8187 106.913 60.9267 106.772 61.0197C106.746 61.0367 106.707 61.0337 106.675 61.0417C106.635 61.0517 106.59 61.0547 106.559 61.0787C106.233 61.3127 105.848 61.4837 105.574 61.7927C105.508 61.8567 105.038 62.0057 104.971 62.0967C104.932 62.1437 104.596 62.0817 104.587 62.1537Z" fill="#231F20"/>
<path fill-rule="evenodd" clip-rule="evenodd" d="M94.9519 39.872C94.9279 40.052 94.6829 39.97 94.3089 39.754C94.1899 39.685 93.9079 39.399 93.8969 39.328C93.8759 39.188 93.8579 39.049 93.8619 38.929C93.8619 38.857 94.2969 38.081 94.4429 37.8C94.5809 37.529 94.7689 37.309 94.9729 37.109C95.3899 36.704 95.8349 36.333 96.2769 35.977C96.3759 35.899 96.4899 35.839 96.6159 35.803C97.0479 35.675 97.3939 35.435 97.7059 35.154C97.7579 35.107 97.8239 35.078 97.8309 34.971C97.8489 34.795 98.7379 34.136 98.8819 34.103C99.2559 34.025 99.5919 33.893 99.9459 33.781C99.9979 33.768 100.023 33.712 100.121 33.766C100.349 33.892 100.414 33.797 100.514 33.749C100.653 33.681 100.796 33.619 100.965 33.588C101.049 33.572 101.188 33.628 101.311 33.662C101.423 33.693 101.604 33.974 101.608 34.018C101.619 34.143 101.763 34.231 101.855 34.335C101.886 34.37 101.927 34.416 101.948 34.447C101.995 34.51 101.66 35.574 101.578 35.641C101.581 35.687 100.57 36.588 100.47 36.709C100.418 36.772 100.32 36.772 100.236 36.789C100.196 36.801 99.4199 37.535 99.3849 37.549C99.1889 37.646 99.0579 37.832 98.7699 37.787C98.7129 37.778 98.6829 37.81 98.6499 37.837C98.3659 38.064 98.0259 38.204 97.7039 38.369C97.5419 38.454 97.4109 38.582 97.2629 38.685C97.2359 38.705 97.1929 38.701 97.1599 38.711C97.1169 38.723 97.0679 38.726 97.0359 38.753C96.7139 39.033 96.2889 39.187 96.0049 39.512C95.9349 39.578 95.4299 39.723 95.3599 39.817C95.3179 39.865 94.9619 39.798 94.9519 39.872Z" fill="#231F20"/>
<path fill-rule="evenodd" clip-rule="evenodd" d="M81.9842 125.32C81.4552 126.075 80.8272 126.837 79.9912 127.43C79.6762 127.631 79.3812 127.872 79.0172 127.998C78.3922 128.257 77.6572 128.323 77.0202 128.222C76.3742 128.124 75.7892 127.904 75.2652 127.62C74.7992 127.37 74.3492 127.113 73.9212 126.836C73.6502 126.654 73.3722 126.479 73.1212 126.272C72.8802 126.052 72.6772 125.79 72.5082 125.503C72.4052 125.321 72.5952 125.173 72.9012 125.087C73.2022 125.007 73.6422 124.948 73.9522 125.088C74.9192 125.766 75.8922 126.328 76.8592 126.701C77.4732 126.922 78.0502 126.753 78.6122 126.442C79.2252 126.11 79.7702 125.559 80.2402 124.906C80.5352 124.509 80.7982 124.067 81.0502 123.618C81.4232 122.928 81.8002 122.216 82.1262 121.48C82.3742 120.907 82.5432 120.293 82.8142 119.708C82.8752 119.579 82.9212 119.444 82.9922 119.319C83.2842 118.869 83.5192 118.815 83.9402 118.988C84.0312 119.024 84.1202 119.049 84.1922 119.085C84.4102 119.189 84.6172 119.592 84.5332 119.941C84.2972 120.988 83.8602 121.966 83.3372 123.001C82.9552 123.769 82.5242 124.553 82.0212 125.341L81.9842 125.32Z" fill="#231F20"/>
<path fill-rule="evenodd" clip-rule="evenodd" d="M68.4885 28.5351C68.5995 28.6921 68.3825 28.8351 67.9915 28.9661C67.8665 29.0081 67.4855 29.0141 67.4265 28.9711C67.3145 28.8871 67.2015 28.8031 67.1185 28.7171C67.0735 28.6621 66.7675 27.8181 66.6205 27.5411C66.4875 27.2701 66.4175 26.9971 66.3595 26.7231C66.2435 26.1671 66.0725 25.6221 65.9755 25.0701C65.9505 24.9481 65.9535 24.8221 65.9755 24.6931C66.0565 24.2481 65.9805 23.8231 65.8375 23.4111C65.8135 23.3421 65.8115 23.2671 65.7115 23.2161C65.5395 23.1341 65.2605 21.9991 65.3345 21.8241C65.4385 21.4121 65.4685 21.0121 65.5205 20.6041C65.5275 20.5461 65.4845 20.4961 65.5705 20.4241C65.7705 20.2551 65.6995 20.1501 65.7135 20.0231C65.7255 19.8501 65.7335 19.6761 65.7925 19.4911C65.8505 19.3911 65.9695 19.2771 66.0455 19.1751C66.1155 19.0811 66.3185 19.0711 66.3565 19.0881C66.4495 19.1421 66.5445 19.0551 66.6305 19.0261C66.6605 19.0161 66.6995 19.0031 66.7275 19.0001C66.8275 18.9811 67.8385 19.7261 67.8205 19.8431C67.8245 19.8541 67.9725 20.1891 68.1295 20.5471C68.2855 20.9021 68.4555 21.2741 68.4995 21.3481C68.5475 21.4261 68.5145 21.5211 68.5035 21.6111C68.5135 21.6481 68.8935 22.7561 68.8925 22.8061C68.9035 23.0481 69.0245 23.2751 68.8515 23.5481C68.8185 23.6021 68.8365 23.6481 68.8475 23.6961C68.9355 24.1021 68.9055 24.5281 68.8985 24.9461C68.8945 25.1601 68.9425 25.3681 68.9435 25.5811C68.9445 25.6191 68.9155 25.6601 68.9035 25.7001C68.8885 25.7501 68.8635 25.8011 68.8665 25.8491C68.9015 26.3481 68.8055 26.8561 68.8805 27.3481C68.8965 27.4621 68.6845 28.0191 68.7115 28.1471C68.7245 28.2211 68.4415 28.4731 68.4885 28.5351Z" fill="#231F20"/>
<path fill-rule="evenodd" clip-rule="evenodd" d="M36.1104 30.2901C35.8974 30.2621 36.0064 29.9771 36.3184 29.5601C36.4174 29.4271 36.7984 29.1111 36.8804 29.0971C37.0394 29.0681 37.1944 29.0411 37.3204 29.0381C37.3944 29.0441 38.1214 29.4301 38.3984 29.5121C38.6564 29.6061 38.8664 29.7481 39.0684 29.9031L40.3534 30.8001C40.4494 30.8671 40.5294 30.9561 40.6014 31.0621C40.8414 31.4321 41.1854 31.6671 41.5644 31.8491C41.6274 31.8791 41.6804 31.9301 41.7824 31.8931C41.9434 31.8351 42.9274 32.4201 43.0274 32.5541C43.2654 32.8841 43.5404 33.1621 43.8024 33.4651C43.8404 33.5081 43.9074 33.5101 43.8994 33.6221C43.8804 33.8811 44.0004 33.9071 44.0934 33.9811C44.2214 34.0851 44.3444 34.2011 44.4444 34.3521C44.4944 34.4261 44.4944 34.5811 44.5074 34.7131C44.5204 34.8331 44.3064 35.1131 44.2654 35.1331C44.1454 35.1901 44.1114 35.3621 44.0424 35.4911C44.0194 35.5341 43.9884 35.5901 43.9654 35.6231C43.9124 35.6931 42.8104 35.7461 42.7244 35.6931C42.7144 35.6881 42.3934 35.5581 42.0514 35.4171C41.7094 35.2801 41.3494 35.1381 41.2694 35.1171C41.1864 35.0961 41.1434 35.0071 41.0894 34.9361C41.0664 34.9101 40.0024 34.5001 39.9654 34.4671C39.7794 34.3241 39.5294 34.2701 39.4444 33.9701C39.4284 33.9111 39.3814 33.8941 39.3404 33.8731C38.9784 33.6791 38.6834 33.3831 38.3804 33.1011C38.2234 32.9591 38.0374 32.8531 37.8684 32.7251C37.8384 32.7021 37.8274 32.6541 37.8054 32.6201C37.7774 32.5781 37.7594 32.5211 37.7214 32.4931C37.3214 32.1861 37.0184 31.7681 36.5974 31.4751C36.4944 31.4101 36.2804 30.8351 36.1694 30.7601C36.1024 30.7171 36.1934 30.3011 36.1104 30.2901Z" fill="#231F20"/>
</svg>
