<svg width="148" height="148" viewBox="0 0 148 148" fill="none" xmlns="http://www.w3.org/2000/svg">
<path fill-rule="evenodd" clip-rule="evenodd" d="M58.0193 97.5077C58.8553 98.7997 59.8493 100.028 61.0813 101.002C61.5233 101.366 61.9823 101.708 62.4793 101.994C64.1383 103.156 66.0533 103.967 68.0403 104.517L69.3863 104.815C69.8373 104.905 70.3013 104.909 70.7543 104.955C71.9213 105.133 73.0973 105.013 74.2853 105.22C74.6563 105.277 74.6223 105.472 74.3163 105.711C74.0113 105.932 73.4243 106.297 72.7103 106.342C72.0793 106.415 71.4463 106.393 70.8113 106.362C70.1783 106.307 69.5383 106.303 68.9163 106.144C68.2953 106.005 67.6723 105.864 67.0463 105.724C66.4393 105.51 65.8373 105.284 65.2413 105.05C64.5273 104.773 63.8433 104.379 63.1213 104.071C62.4213 103.716 61.7543 103.28 61.0843 102.874C59.7243 101.814 58.4043 100.67 57.4233 99.2427L56.9473 98.6077L56.5483 97.9197C56.2983 97.4527 55.9853 97.0217 55.8053 96.5217C55.4823 95.7887 55.1633 95.0547 54.9803 94.2727C54.7243 93.5137 54.6163 92.7227 54.4873 91.9417C54.3333 90.7247 54.2273 89.5097 54.3373 88.2827C54.3563 88.0137 54.3363 87.7417 54.4193 87.4797C54.6633 86.4957 54.8353 86.2067 55.1913 86.0887C55.2723 86.0617 55.3553 86.0197 55.4313 86.0137C55.6823 85.9917 55.7983 86.4327 55.7623 87.1197C55.6453 89.1547 55.7183 91.2257 56.2263 93.2417C56.4573 93.9757 56.6273 94.7317 56.9743 95.4277C57.2393 96.1577 57.6563 96.8147 58.0493 97.4857L58.0193 97.5077Z" fill="#231F20"/>
<path fill-rule="evenodd" clip-rule="evenodd" d="M64.1994 84.0526C64.1994 84.0376 64.2014 84.0226 64.2034 84.0076L64.1794 84.1796C64.1844 84.1476 64.1924 84.1156 64.2054 84.0856C64.1834 84.1366 64.1614 84.1886 64.1394 84.2406C64.1494 84.2196 64.1604 84.1986 64.1754 84.1806C64.1414 84.2236 64.1074 84.2676 64.0734 84.3116C64.0864 84.2956 64.1014 84.2806 64.1174 84.2676C64.0734 84.3016 64.0304 84.3356 63.9864 84.3696C64.0054 84.3546 64.0264 84.3426 64.0494 84.3326C63.9974 84.3546 63.9454 84.3766 63.8934 84.3986C63.9234 84.3856 63.9534 84.3786 63.9854 84.3736L63.8124 84.3976C63.8614 84.3906 63.9104 84.3926 63.9584 84.3986L63.7854 84.3756C63.8624 84.3856 63.9354 84.4076 64.0064 84.4366C63.9544 84.4156 63.9034 84.3936 63.8514 84.3716C63.9264 84.4036 63.9984 84.4446 64.0634 84.4946C64.0194 84.4606 63.9754 84.4266 63.9314 84.3926C63.9754 84.4266 64.0154 84.4646 64.0494 84.5076C64.0154 84.4636 63.9814 84.4196 63.9484 84.3756C63.9684 84.4026 63.9864 84.4316 63.9994 84.4626L63.9334 84.3066C63.9434 84.3286 63.9494 84.3516 63.9534 84.3756C63.9454 84.3186 63.9374 84.2606 63.9304 84.2026C63.9324 84.2216 63.9324 84.2396 63.9304 84.2586C63.9384 84.2006 63.9464 84.1436 63.9534 84.0856C63.9504 84.1036 63.9464 84.1206 63.9394 84.1366C63.9614 84.0856 63.9834 84.0336 64.0054 83.9816C63.9974 84.0006 63.9864 84.0186 63.9744 84.0346C64.0084 83.9906 64.0424 83.9476 64.0754 83.9036C64.0574 83.9276 64.0354 83.9476 64.0124 83.9666C64.0564 83.9316 64.1004 83.8986 64.1434 83.8646C64.1014 83.8966 64.0544 83.9216 64.0054 83.9416C64.0574 83.9206 64.1094 83.8986 64.1604 83.8766C64.1204 83.8936 64.0784 83.9076 64.0354 83.9206C63.9504 83.9406 63.8774 83.9796 63.8144 84.0366C63.7434 84.0826 63.6884 84.1436 63.6474 84.2196C63.5994 84.2936 63.5744 84.3736 63.5704 84.4606C63.5504 84.5476 63.5544 84.6336 63.5814 84.7196C63.6034 84.7716 63.6254 84.8236 63.6474 84.8746C63.7044 84.9726 63.7824 85.0506 63.8804 85.1086C64.0334 85.1896 64.2104 85.2236 64.3814 85.1736C64.4834 85.1436 64.5814 85.1006 64.6784 85.0566C64.7174 85.0396 64.7544 85.0196 64.7884 84.9956C64.8554 84.9476 64.9344 84.8946 64.9904 84.8286C65.0994 84.6996 65.1394 84.6366 65.1964 84.4766C65.2464 84.3306 65.2434 84.1336 65.1974 83.9876C65.1424 83.8156 65.0654 83.6946 64.9454 83.5606C64.9244 83.5356 64.9004 83.5136 64.8754 83.4926C64.8074 83.4366 64.7384 83.3806 64.6644 83.3326C64.5584 83.2636 64.4374 83.2156 64.3214 83.1716C64.2014 83.1256 64.0764 83.1116 63.9494 83.0976C63.8324 83.0846 63.7074 83.1006 63.5944 83.1296C63.5104 83.1516 63.4274 83.1846 63.3534 83.2306C63.3464 83.2346 63.3394 83.2396 63.3324 83.2446C63.2834 83.2806 63.2324 83.3176 63.1874 83.3576C63.1754 83.3686 63.1644 83.3806 63.1544 83.3926C63.0454 83.5236 62.9984 83.5986 62.9424 83.7636C62.9114 83.8556 62.9034 83.9566 62.8994 84.0526C62.8954 84.1416 62.9144 84.2256 62.9554 84.3026C62.9814 84.3836 63.0264 84.4536 63.0894 84.5116C63.1484 84.5756 63.2184 84.6206 63.2994 84.6466C63.3764 84.6876 63.4594 84.7056 63.5494 84.7026C63.6064 84.6946 63.6644 84.6866 63.7214 84.6796C63.8324 84.6486 63.9284 84.5926 64.0094 84.5116C64.0424 84.4686 64.0764 84.4246 64.1104 84.3806C64.1694 84.2796 64.1994 84.1696 64.1994 84.0526" fill="#231F20"/>
<path fill-rule="evenodd" clip-rule="evenodd" d="M62.8743 91.8828C62.8703 91.8738 62.8663 91.8648 62.8623 91.8558L62.9283 92.0108C62.9053 91.9538 62.8883 91.8958 62.8793 91.8338C62.8863 91.8918 62.8943 91.9488 62.9023 92.0068C62.8963 91.9618 62.8953 91.9168 62.9013 91.8718L62.8773 92.0448C62.8833 92.0038 62.8943 91.9638 62.9093 91.9258C62.8873 91.9778 62.8653 92.0288 62.8443 92.0808C62.8583 92.0478 62.8753 92.0178 62.8973 91.9878C62.8633 92.0318 62.8293 92.0758 62.7953 92.1198C62.8193 92.0898 62.8453 92.0628 62.8753 92.0388C62.8323 92.0728 62.7883 92.1068 62.7443 92.1408C62.7773 92.1148 62.8123 92.0938 62.8513 92.0778C62.7993 92.0998 62.7473 92.1208 62.6953 92.1428C62.7383 92.1258 62.7823 92.1138 62.8273 92.1078C62.7703 92.1148 62.7123 92.1228 62.6543 92.1308C62.7013 92.1248 62.7483 92.1248 62.7943 92.1308C62.7373 92.1228 62.6793 92.1148 62.6223 92.1078C62.6713 92.1138 62.7183 92.1268 62.7633 92.1458C62.7113 92.1238 62.6603 92.1018 62.6083 92.0808C62.6533 92.0998 62.6943 92.1248 62.7333 92.1538C62.6893 92.1198 62.6453 92.0858 62.6023 92.0518C62.6473 92.0878 62.6873 92.1278 62.7233 92.1738C62.6893 92.1298 62.6553 92.0858 62.6213 92.0418C62.6643 92.0988 62.6983 92.1598 62.7263 92.2248C62.7043 92.1738 62.6823 92.1218 62.6603 92.0698C62.6833 92.1268 62.7003 92.1838 62.7093 92.2438L62.6863 92.0708C62.6963 92.1518 62.6943 92.2308 62.6843 92.3108C62.6913 92.2528 62.6993 92.1948 62.7073 92.1378C62.6913 92.2438 62.6613 92.3458 62.6193 92.4448L62.6853 92.2888C62.6363 92.4028 62.5743 92.5078 62.5003 92.6068C62.5343 92.5628 62.5683 92.5188 62.6023 92.4748C62.5503 92.5418 62.4943 92.6028 62.4303 92.6578C62.3103 92.7598 62.2403 92.9638 62.2403 93.1168C62.2403 93.2768 62.3113 93.4668 62.4303 93.5768C62.5543 93.6908 62.7173 93.7748 62.8903 93.7668L63.0623 93.7438C63.1733 93.7128 63.2683 93.6568 63.3503 93.5768C63.4883 93.4578 63.6043 93.3038 63.7013 93.1498C63.7403 93.0878 63.7743 93.0218 63.8043 92.9538C63.8533 92.8398 63.9053 92.7248 63.9363 92.6038C64.0003 92.3548 64.0043 92.1158 63.9573 91.8648C63.9353 91.7508 63.8823 91.6388 63.8333 91.5338C63.8083 91.4818 63.7783 91.4328 63.7443 91.3858C63.6833 91.3048 63.6233 91.2168 63.5443 91.1518C63.4703 91.0888 63.3913 91.0218 63.3043 90.9768C63.1233 90.8828 62.9433 90.8318 62.7393 90.8258C62.5403 90.8208 62.3673 90.8758 62.1903 90.9568C62.1533 90.9738 62.1203 90.9938 62.0883 91.0178C62.0143 91.0728 61.9373 91.1248 61.8793 91.1968C61.7683 91.3338 61.7173 91.4198 61.6543 91.5848C61.6173 91.6798 61.6073 91.7878 61.5993 91.8878C61.5903 91.9948 61.6113 92.1058 61.6303 92.2098C61.6513 92.3248 61.7053 92.4338 61.7523 92.5388C61.8143 92.6778 61.9993 92.7988 62.1403 92.8378C62.2963 92.8808 62.5033 92.8608 62.6413 92.7718C62.7803 92.6828 62.9023 92.5498 62.9403 92.3828C62.9473 92.3258 62.9553 92.2678 62.9633 92.2108C62.9623 92.0928 62.9333 91.9838 62.8743 91.8828" fill="#231F20"/>
<path fill-rule="evenodd" clip-rule="evenodd" d="M71.5151 76.4112C71.0911 76.3752 70.6191 76.4822 70.3211 76.8072C70.0611 77.0892 69.9421 77.4762 69.9691 77.8582C69.9941 78.2102 70.0981 78.5702 70.3021 78.8622C70.5051 79.1562 70.7951 79.4262 71.1611 79.4862C71.4281 79.5302 71.6741 79.4922 71.9151 79.3662C72.1571 79.2392 72.3381 79.0282 72.4961 78.8112C72.5681 78.7132 72.5771 78.5392 72.5471 78.4262C72.5151 78.3102 72.4251 78.1842 72.3171 78.1272C72.2011 78.0662 72.0601 78.0352 71.9321 78.0772C71.8011 78.1192 71.7131 78.1962 71.6331 78.3072C71.6231 78.3202 71.6131 78.3332 71.6031 78.3462C71.7011 78.2052 71.6691 78.2632 71.6421 78.2942C71.6261 78.3142 71.6101 78.3332 71.5941 78.3512C71.5581 78.3902 71.5211 78.4282 71.4811 78.4622L71.4561 78.4832C71.4061 78.5272 71.5731 78.3992 71.5181 78.4352C71.5001 78.4472 71.4831 78.4602 71.4641 78.4722C71.4291 78.4942 71.3911 78.5132 71.3521 78.5302C71.3921 78.5132 71.4321 78.4962 71.4721 78.4792C71.4221 78.4992 71.3711 78.5142 71.3181 78.5222C71.3631 78.5152 71.4071 78.5102 71.4521 78.5042C71.3991 78.5112 71.3461 78.5112 71.2941 78.5042C71.3381 78.5102 71.3821 78.5162 71.4271 78.5222C71.3711 78.5142 71.3191 78.4982 71.2681 78.4772C71.3071 78.4942 71.3481 78.5112 71.3871 78.5282C71.3281 78.5022 71.2801 78.4622 71.2231 78.4322C71.2141 78.4262 71.3451 78.5302 71.2981 78.4882C71.2911 78.4832 71.2851 78.4782 71.2791 78.4732C71.2661 78.4612 71.2541 78.4502 71.2421 78.4392C71.2171 78.4152 71.1941 78.3902 71.1711 78.3652C71.1601 78.3512 71.1491 78.3382 71.1381 78.3252C71.1161 78.2982 71.2311 78.4522 71.1781 78.3752C71.1581 78.3472 71.1391 78.3192 71.1211 78.2902C71.0821 78.2252 71.0481 78.1582 71.0181 78.0892C71.0351 78.1292 71.0521 78.1692 71.0691 78.2082C71.0151 78.0812 70.9781 77.9492 70.9601 77.8122L70.9771 77.9452C70.9631 77.8342 70.9611 77.7232 70.9751 77.6122C70.9701 77.6562 70.9631 77.7012 70.9571 77.7452C70.9691 77.6632 70.9891 77.5842 71.0201 77.5082C71.0041 77.5472 70.9871 77.5872 70.9701 77.6272C70.9871 77.5872 71.0071 77.5482 71.0301 77.5122C71.0611 77.4622 71.1251 77.4122 70.9981 77.5482C71.0141 77.5322 71.0271 77.5152 71.0421 77.4992C71.0571 77.4832 71.0741 77.4682 71.0911 77.4532C71.1521 77.3962 70.9591 77.5472 71.0521 77.4842C71.0931 77.4562 71.1371 77.4332 71.1831 77.4132C71.1431 77.4312 71.1031 77.4472 71.0631 77.4642C71.1441 77.4312 71.2291 77.4102 71.3161 77.3972C71.2711 77.4032 71.2271 77.4092 71.1831 77.4152C71.2931 77.4012 71.4041 77.4022 71.5151 77.4112C71.6361 77.4212 71.7861 77.3482 71.8691 77.2652C71.9551 77.1782 72.0201 77.0362 72.0151 76.9112C72.0021 76.6212 71.7951 76.4352 71.5151 76.4112" fill="#231F20"/>
<path fill-rule="evenodd" clip-rule="evenodd" d="M28.7841 109.795L28.5151 112.326L28.5021 112.406C28.5131 112.43 28.5331 112.432 28.5721 112.457L29.4791 112.931L30.6971 113.565C31.1061 113.772 31.5551 113.916 31.9821 114.095L34.5771 115.123L37.2661 115.959C38.1651 116.233 39.0551 116.534 39.9811 116.731C41.8221 117.155 43.6401 117.669 45.5151 117.972C46.8771 118.214 48.2331 118.486 49.6051 118.672L53.7231 119.223C63.4181 120.486 73.2561 120.782 83.0531 120.416C87.4021 120.245 91.7611 119.798 96.0331 119.201C101.511 118.354 106.965 117.313 112.362 116.067C114.06 115.727 113.945 116.097 112.647 116.905C111.998 117.31 111.054 117.833 109.885 118.411C108.718 119.005 107.275 119.411 105.698 119.821C104.298 120.174 102.895 120.518 101.476 120.764C100.063 121.042 98.6461 121.313 97.2221 121.53C94.3651 121.875 91.5121 122.304 88.6381 122.483C82.9001 122.995 77.1251 123.077 71.3461 122.865C64.4371 122.62 57.2431 122.224 50.2321 121.18C46.3771 120.622 42.5521 119.829 38.7631 118.865C35.0101 117.766 31.2291 116.643 27.7381 114.694L26.6471 114.132L26.0371 113.818C26.0161 113.611 26.0631 113.366 26.0731 113.143L26.1791 111.884L26.2681 110.989C26.3871 109.795 26.5321 108.606 26.6951 107.419C27.0191 105.045 27.4191 102.683 27.8871 100.337C29.3071 93.2288 31.4341 86.2148 34.3931 79.6288C36.7081 74.5308 39.4591 69.6608 43.2371 65.4638C44.0641 64.5378 44.9321 63.6838 45.8681 62.8458C47.6331 61.3228 48.9511 60.5028 49.9501 60.0728C50.9131 59.5858 51.5751 59.5028 52.1131 59.4708C52.3591 59.4588 52.6591 59.4018 52.8091 59.4158C53.3191 59.4638 51.8271 60.6128 49.3971 62.6958C45.7331 65.7228 42.6271 69.5398 40.0471 73.7808C37.4711 78.0298 35.4251 82.7018 33.7711 87.5218C31.3311 94.6918 29.7001 102.217 28.8451 109.792L28.7841 109.795Z" fill="#231F20"/>
<path fill-rule="evenodd" clip-rule="evenodd" d="M112.164 89.6745C111.324 86.8055 110.406 83.9465 109.214 81.2035C108.76 80.2125 108.326 79.2075 107.826 78.2425C106.206 74.7515 104.17 71.4745 101.835 68.4085C101.273 67.7685 100.698 67.1345 100.117 66.5075L99.2437 65.5725C98.9367 65.2785 98.6037 65.0135 98.2867 64.7355C97.4487 64.0445 96.6607 63.2905 95.7977 62.6325C94.9217 61.9895 94.0287 61.3825 93.2417 60.5975C92.7477 60.1125 92.9967 59.8655 93.7067 59.8445C94.4287 59.7995 95.6057 60.0425 96.7147 60.7715C96.9577 60.9345 97.2097 61.0865 97.4447 61.2595L98.1197 61.8185L99.4607 62.9485C99.8937 63.3415 100.35 63.7135 100.759 64.1295L101.935 65.4285C103.553 67.1205 104.864 69.0665 106.128 71.0205C106.801 72.2425 107.601 73.4155 108.309 74.6495C108.975 75.9045 109.727 77.1295 110.318 78.4165C111.614 81.2495 112.757 84.1465 113.659 87.1125C114.259 88.9255 114.719 90.7765 115.2 92.6175C115.546 94.0165 115.821 95.4355 116.129 96.8425C116.364 98.2645 116.664 99.6705 116.88 101.084C117.24 103.277 117.646 105.424 117.892 107.621C117.943 108.105 118.013 108.577 118.053 109.067C118.181 110.886 117.957 111.479 117.446 111.866C117.324 111.955 117.205 112.071 117.084 112.122C116.681 112.292 116.307 111.566 116.104 110.285C115.574 106.473 114.945 102.486 114.195 98.5015C113.948 97.0155 113.571 95.5535 113.264 94.0745C112.911 92.6075 112.518 91.1475 112.112 89.6945L112.164 89.6745Z" fill="#231F20"/>
<path fill-rule="evenodd" clip-rule="evenodd" d="M51.4562 47.8725C51.5242 48.3195 51.6622 48.7535 51.7602 49.1995C51.8932 49.6345 52.0422 50.0675 52.1902 50.5025C52.3192 50.8115 52.5002 51.0935 52.6222 51.4065C53.1022 52.4815 53.6752 53.5385 54.4332 54.4545C54.7822 54.8445 55.1762 55.1995 55.6122 55.4625C56.1472 55.8545 56.7312 56.0725 57.2602 56.4815C57.4222 56.6175 57.3072 56.9895 57.0022 57.3025C56.7102 57.6065 56.1492 57.8935 55.6902 57.7175C55.3122 57.5405 54.8872 57.3935 54.5492 57.1555C54.2122 56.9145 53.8632 56.6665 53.5912 56.3665C53.0042 55.7925 52.5252 55.1375 52.1412 54.4385C51.6972 53.5985 51.0902 52.8405 50.6912 51.9735C50.4622 51.5035 50.2582 51.0245 50.1032 50.5265C49.9192 50.0405 49.7982 49.5335 49.6682 49.0335C49.5012 48.4195 49.4192 47.7835 49.3092 47.1625C49.1872 46.2065 49.1412 45.2445 49.1532 44.2905C49.1732 43.9195 49.1502 43.5515 49.1522 43.1805C49.1762 42.8125 49.1892 42.4385 49.2352 42.0685C49.2462 41.9035 49.2762 41.7445 49.3222 41.5835C49.5252 40.9955 49.7692 40.8665 50.1172 40.8495C50.2002 40.8465 50.2832 40.8345 50.3572 40.8425C50.6032 40.8685 50.7652 41.1705 50.8592 41.6035C50.9122 42.2215 50.9802 42.8225 50.9882 43.4115C51.0632 44.0115 51.0952 44.5955 51.1412 45.1935C51.1782 46.0775 51.3092 46.9745 51.5052 47.8585L51.4562 47.8725Z" fill="#231F20"/>
<path fill-rule="evenodd" clip-rule="evenodd" d="M89.7545 46.629C89.5805 47.424 89.3775 48.212 89.0725 48.976C88.9785 49.257 88.9115 49.551 88.7725 49.822C88.3105 50.779 87.6585 51.657 86.8795 52.379C86.5525 52.712 86.1945 53.023 85.8525 53.337C85.6115 53.514 85.3925 53.732 85.1315 53.885C84.8525 54.002 84.5565 54.088 84.2495 54.115C84.0535 54.129 83.9525 53.782 83.9255 53.369C83.9055 52.959 83.9175 52.461 84.1055 52.282C84.8255 51.715 85.4925 51.186 86.2045 50.48C86.6475 50.066 86.8165 49.438 87.0615 48.873C87.3165 48.235 87.5365 47.565 87.6835 46.866C87.7795 46.437 87.8575 46.001 87.8985 45.557C87.9675 44.889 88.0135 44.204 87.9485 43.532C87.8865 43.01 87.7355 42.51 87.6015 42.012C87.5735 41.901 87.5305 41.796 87.5185 41.683C87.4505 41.269 87.6535 41.095 88.0205 40.927C88.1085 40.888 88.1925 40.842 88.2775 40.813C88.5555 40.713 88.8625 40.836 89.1275 41.131C89.7195 42.039 90.0215 43.112 90.0005 44.201C90.0135 45.009 89.9285 45.824 89.8045 46.634L89.7545 46.629Z" fill="#231F20"/>
<path fill-rule="evenodd" clip-rule="evenodd" d="M97.6404 50.3915C97.3914 51.1575 97.0894 51.9205 96.7384 52.6665C96.6254 52.9405 96.5104 53.2255 96.3644 53.4915C95.8124 54.4125 95.1354 55.2825 94.2874 55.9595C94.1204 56.1295 93.9024 56.2445 93.7174 56.3935C93.5254 56.5345 93.3484 56.6935 93.1374 56.8025C92.8754 56.9525 92.6284 57.1375 92.3524 57.2615C92.0704 57.3705 91.7774 57.4545 91.4734 57.4835C91.2824 57.5005 91.2154 57.1755 91.2404 56.8055C91.2694 56.4355 91.3634 56.0125 91.6024 55.8775C92.0144 55.6025 92.4114 55.3385 92.7634 55.0175C92.9504 54.8725 93.1434 54.7315 93.3304 54.5725C93.5304 54.4275 93.7284 54.2735 93.9144 54.0935C94.1584 53.8975 94.3424 53.6395 94.4934 53.3535C94.6644 53.0845 94.7784 52.7745 94.9274 52.4855C95.2474 51.8455 95.5144 51.1565 95.7454 50.4465C95.8804 50.0065 96.0194 49.5645 96.1214 49.1085C96.2854 48.4225 96.4504 47.7225 96.5314 47.0155C96.6024 46.4645 96.5194 45.9015 96.5644 45.3425C96.5764 45.2195 96.5684 45.0985 96.5944 44.9745C96.6914 44.5195 96.8454 44.3975 97.3104 44.3925C97.4144 44.3905 97.5174 44.3815 97.6154 44.3895C97.9394 44.4125 98.2164 44.6545 98.2884 44.9935C98.5874 46.0125 98.4074 47.0135 98.2424 48.0615C98.1014 48.8385 97.9074 49.6165 97.6844 50.4005L97.6404 50.3915Z" fill="#231F20"/>
<path fill-rule="evenodd" clip-rule="evenodd" d="M33.6241 39.8795C33.0731 40.2605 32.4881 40.6195 31.9811 41.0325L31.2001 41.6345L30.5041 42.2615C30.2841 42.4705 30.1771 42.6395 29.9921 42.8315L29.5081 43.6615C29.1711 44.2065 28.9371 44.8175 28.6651 45.4035C27.7091 47.8245 27.2771 50.4925 27.3181 53.1515C27.3471 55.0895 27.6661 57.0355 28.2461 58.8185C28.4761 59.6225 28.8331 60.3435 29.2111 61.0005L29.5271 61.4335C29.6451 61.5745 29.6731 61.6135 29.8001 61.7015C29.9981 61.8645 30.3181 61.9915 30.6541 62.0925C32.0731 62.4735 33.8461 62.3315 35.501 62.0085C38.848 61.3215 42.145 59.8765 44.798 57.7125C45.484 57.1495 46.11 56.5215 46.663 55.8455C46.945 55.5105 47.1891 55.1515 47.4261 54.7905L47.7551 54.2355L48.01 53.7165C48.076 53.5655 48.0771 53.4085 48.0201 53.2425C47.9701 53.0495 47.8381 52.7765 47.7091 52.5305C47.4221 52.0205 47.0471 51.5165 46.6621 51.0255C46.2381 50.5075 45.7891 50.0035 45.3181 49.5155L44.5981 48.7965L43.663 47.9005C43.435 47.7305 43.2861 47.5435 43.1511 47.3515C43.0751 47.2555 43.0501 47.1755 42.9971 47.0865C42.9571 46.9815 42.968 46.8515 42.982 46.7455C43.04 46.3005 43.3201 45.8525 43.6521 45.4355C43.8061 45.2275 44.0091 45.0165 44.1751 44.8425C44.3021 44.7095 44.434 44.5805 44.569 44.4565C44.839 44.2075 45.1191 43.9715 45.4171 43.7545C46.5791 42.9045 48.0661 42.1815 49.6621 42.3985C50.4051 42.5045 50.661 42.7605 50.6 42.9035C50.539 43.0685 50.163 43.1695 49.663 43.4055C48.641 43.8955 47.3961 44.9695 46.0491 46.4445L45.9571 46.5475C45.9461 46.5585 45.951 46.5555 45.951 46.5555V46.5575L45.9531 46.5595H45.9561C45.9741 46.5785 45.9171 46.5175 45.9971 46.5965C46.1291 46.7215 46.2671 46.8395 46.3901 46.9685L47.1371 47.7435C47.6221 48.2735 48.0971 48.8135 48.5511 49.3935C49.0011 49.9845 49.4451 50.5745 49.8411 51.3105C50.0391 51.6985 50.2251 52.0555 50.3801 52.6225C50.4841 52.9065 50.448 53.2765 50.486 53.5985C50.463 53.9285 50.3501 54.2485 50.2851 54.5735L50.0021 55.1295C49.9261 55.2815 49.848 55.4325 49.757 55.5735C49.578 55.8585 49.414 56.1555 49.212 56.4195C48.83 56.9655 48.4141 57.4825 47.9641 57.9545C47.0711 58.9095 46.0781 59.7315 45.0321 60.4485C42.9341 61.8775 40.6341 62.9085 38.2361 63.5965C36.9691 63.9605 35.6611 64.2365 34.3111 64.3975C32.9591 64.5425 31.5611 64.6085 30.0671 64.2295C29.3371 64.0275 28.5041 63.6895 27.8701 62.9595C27.3751 62.3545 26.9911 61.7195 26.6881 61.0765C26.0761 59.7885 25.7211 58.4635 25.4821 57.1355C25.2201 55.6765 25.0921 54.2045 25.1181 52.7345C25.1281 51.2665 25.2621 49.7975 25.5571 48.3545C25.8211 46.9065 26.2711 45.4895 26.8501 44.1265L27.3151 43.1155C27.4881 42.7865 27.6841 42.4675 27.8671 42.1445L28.1471 41.6615L28.5441 41.1715C28.8111 40.8205 29.0931 40.5985 29.3711 40.3385C30.7521 39.1245 32.2101 38.1295 33.7221 37.2165C34.4691 36.7445 35.233 36.3075 36.008 35.8925C36.771 35.4565 37.5521 35.0545 38.3401 34.6715C43.0921 32.2855 48.1211 30.4675 53.1921 29.0735C57.1271 27.9515 61.0641 27.1265 65.0821 26.5345C65.9701 26.4295 66.8401 26.3275 67.7351 26.2225C69.3971 26.0125 70.51 26.1165 71.284 26.2055C72.0601 26.3105 72.506 26.4805 72.863 26.7405C73.026 26.8595 73.24 26.9735 73.333 27.0895C73.647 27.4735 72.3081 27.8835 69.9401 28.1805C69.0591 28.2345 68.178 28.3775 67.291 28.4955C66.405 28.6125 65.5151 28.7295 64.6211 28.8475C62.8481 29.1985 61.0381 29.4115 59.2551 29.8515C55.6601 30.5675 52.0841 31.6085 48.5641 32.8065C43.3581 34.6245 38.2271 36.9125 33.6611 39.9215L33.6241 39.8795Z" fill="#231F20"/>
<path fill-rule="evenodd" clip-rule="evenodd" d="M114.473 39.745C115.587 40.631 116.673 41.552 117.708 42.613L118.473 43.456C118.718 43.799 119.011 44.189 119.194 44.528C119.511 45.191 119.86 45.84 120.109 46.531C121.206 49.249 121.743 52.164 121.719 55.078C121.68 57.2 121.478 59.358 120.647 61.422C120.304 62.331 119.812 63.22 119.148 64.038C118.957 64.244 118.828 64.432 118.583 64.645C118.332 64.873 118.069 65.041 117.802 65.182C117.272 65.447 116.742 65.613 116.234 65.701C114.197 66.052 112.332 65.766 110.517 65.37C106.918 64.501 103.515 62.925 100.661 60.521C99.4065 59.453 98.2695 58.184 97.4335 56.698C97.2165 56.316 97.0495 55.97 96.8625 55.518C96.7925 55.394 96.7685 55.243 96.7485 55.097C96.7315 54.951 96.6825 54.806 96.6905 54.659C96.7375 54.371 96.7415 54.052 96.8625 53.804C97.2215 52.867 97.7325 52.217 98.2425 51.561C98.7555 50.919 99.3035 50.332 99.8655 49.758C100.145 49.472 100.43 49.19 100.727 48.921L101.378 48.333C101.464 48.247 101.584 48.185 101.644 48.094C101.603 47.974 101.514 47.882 101.436 47.788C101.341 47.683 101.303 47.64 101.153 47.494C100.953 47.293 100.744 47.1 100.529 46.913C99.6655 46.167 98.7155 45.538 97.7325 45.091C97.2275 44.889 96.9975 44.764 97.0205 44.59C97.0445 44.43 97.3495 44.217 97.9625 44.11C98.5595 44.017 99.4925 44.006 100.455 44.377C100.94 44.553 101.445 44.792 101.942 45.106C102.191 45.261 102.437 45.438 102.681 45.632C102.8 45.727 102.901 45.809 103.145 46.043C103.348 46.24 103.549 46.444 103.733 46.661C104.19 47.18 104.491 47.756 104.488 48.282C104.49 48.405 104.469 48.582 104.439 48.68C104.412 48.787 104.39 48.894 104.303 49.021C104.223 49.141 104.184 49.269 104.072 49.383L103.674 49.713L102.762 50.512L102.281 50.971C101.955 51.272 101.635 51.579 101.324 51.891C100.707 52.513 100.111 53.165 99.6545 53.802C99.4445 54.102 99.2185 54.457 99.1685 54.63L99.1435 54.667L99.1415 54.675L99.2025 54.822C99.5015 55.54 99.9145 56.232 100.41 56.885C102.46 59.487 105.644 61.408 108.991 62.641C110.093 63.038 111.244 63.341 112.407 63.517C113.561 63.689 114.763 63.74 115.8 63.528C116.312 63.426 116.776 63.238 117.032 63.015C117.166 62.92 117.353 62.65 117.517 62.482L117.963 61.806C118.515 60.843 118.882 59.711 119.129 58.561C119.404 57.293 119.524 55.976 119.529 54.656C119.509 53.334 119.365 52.013 119.114 50.709C118.831 49.413 118.447 48.139 117.923 46.919C117.801 46.61 117.638 46.321 117.497 46.02C117.353 45.722 117.211 45.406 117.039 45.204L116.795 44.854L116.467 44.495C116.243 44.258 116.045 44.008 115.788 43.785C113.395 41.507 110.604 39.535 107.725 37.785C103.362 35.108 98.6545 32.924 93.8335 31.29C90.0945 29.978 86.2635 29.252 82.4235 28.635C81.5725 28.53 80.7395 28.427 79.8815 28.321C76.7015 27.978 75.7055 27.682 75.0485 27.08C74.8985 26.942 74.6975 26.803 74.6125 26.676C74.3235 26.255 75.6685 26.006 78.0995 26C78.9995 26.009 79.8955 26.111 80.7995 26.211C81.7035 26.314 82.6135 26.418 83.5275 26.522C84.4325 26.687 85.3425 26.854 86.2555 27.021C87.1725 27.182 88.0865 27.371 88.9905 27.62C89.8985 27.853 90.8095 28.088 91.7225 28.323C92.6205 28.61 93.5215 28.898 94.4245 29.187C95.3325 29.461 96.2175 29.805 97.1045 30.147C97.9885 30.498 98.8925 30.802 99.7565 31.205C104.954 33.445 109.951 36.213 114.501 39.697L114.473 39.745Z" fill="#231F20"/>
<path fill-rule="evenodd" clip-rule="evenodd" d="M59.6322 51.7361C57.7412 48.8491 56.9972 45.2551 57.7822 41.8941C57.8472 41.5851 57.9192 41.2911 58.0232 40.9801L58.2482 40.2651L58.3052 40.0901C58.3342 40.0391 58.3992 40.0141 58.4442 39.9751L58.7402 39.7631L59.6222 39.1391C59.8842 38.9661 60.1582 38.8421 60.4282 38.6981C62.3462 37.7351 64.3362 37.1901 66.3302 36.7611C68.3252 36.3381 70.3442 36.1241 72.3642 36.0071C74.1552 35.8891 75.9662 35.8921 77.7642 35.9901C78.3412 36.0511 78.9232 36.0601 79.5042 36.1541C80.0822 36.2701 80.6652 36.3311 81.2362 36.5181C81.8072 36.7061 82.3842 36.8401 82.9272 37.1441L83.7372 37.5641C83.9932 37.7411 84.2142 37.9841 84.4422 38.1901C84.9972 38.7451 84.6442 38.9261 83.8862 39.0291C83.4992 39.0871 83.0552 39.1311 82.5402 39.1581C82.0362 39.1691 81.5282 39.1101 80.9492 39.0051C76.9362 38.1301 72.4102 38.1571 68.0012 38.6981C66.6822 38.8801 65.3402 39.1711 64.0692 39.6271C62.7882 40.0541 61.5432 40.6081 60.4942 41.2901L60.2372 41.4531C60.1732 41.4821 60.1782 41.5661 60.1502 41.6151C60.0562 41.8481 59.9562 42.2571 59.8812 42.5771C59.7302 43.2601 59.6502 43.9641 59.6572 44.6731C59.6502 46.0921 59.9692 47.5221 60.5472 48.8391C60.8592 49.5351 61.2222 50.2161 61.6832 50.8251C61.9022 51.1371 62.1532 51.4261 62.4092 51.7051L62.8082 52.1101L63.1762 52.4281C63.2712 52.5281 63.4122 52.5531 63.5452 52.5561C63.7062 52.5651 64.1242 52.5071 64.4352 52.4511C64.7722 52.3941 65.1232 52.3181 65.4722 52.2431L67.6022 51.7861C69.0352 51.4891 70.4912 51.2511 71.9532 51.1031C74.2232 50.8801 76.5142 50.8181 78.8022 51.2311C79.3032 51.3251 79.7992 51.4091 80.2962 51.5541C80.7572 51.6821 81.1272 51.8321 81.4362 51.9551C81.7362 52.1041 81.9612 52.2621 82.1402 52.4011C82.4942 52.6901 82.6372 52.9751 82.6992 53.3001C82.7262 53.4501 82.7792 53.6081 82.7722 53.7361C82.7412 54.1751 81.9372 54.1411 80.6962 53.8981C77.0902 52.9391 73.2062 52.9241 69.2732 53.7021C68.2692 53.8911 67.2652 54.1191 66.2182 54.3571C65.6912 54.4741 65.1612 54.5951 64.5602 54.6931C64.4092 54.7161 64.2582 54.7401 64.0842 54.7571C63.9242 54.7751 63.7562 54.7911 63.4402 54.7921C63.1812 54.7731 62.9182 54.7571 62.6722 54.6741C62.5442 54.6471 62.4292 54.5881 62.3172 54.5221C62.2032 54.4601 62.0822 54.4171 61.9802 54.3361L61.5342 53.9631C61.4282 53.8691 61.3122 53.7831 61.2162 53.6801L60.6232 53.0801C60.2502 52.6621 59.9032 52.2271 59.5892 51.7711L59.6322 51.7361Z" fill="#231F20"/>
<path fill-rule="evenodd" clip-rule="evenodd" d="M60.8395 77.9737C57.3135 81.6977 55.9335 87.3837 57.3275 92.4077C57.8205 94.2527 58.7015 95.9807 59.7645 97.5697C61.6525 100.368 64.3625 102.601 67.5625 103.736C70.7465 104.889 74.3225 104.974 77.6405 104.081C80.5865 103.29 83.3535 101.702 85.4405 99.5187C88.1925 96.7417 89.6725 92.9957 90.1695 89.1657C90.3225 87.9727 90.8655 88.1007 91.3265 89.2267C91.7955 90.3287 92.0695 92.5797 91.0995 94.9637C89.4415 99.1647 86.1475 102.645 82.1565 104.628C78.1885 106.662 73.5195 107.295 69.1735 106.291C66.5915 105.672 64.0515 104.559 61.9185 102.866C59.7645 101.203 58.0035 99.0517 56.7755 96.6607C55.4225 94.0337 54.6695 91.0747 54.7175 88.1017C54.7625 85.1357 55.5655 82.2097 57.0275 79.6427C58.8215 76.4717 61.6735 73.9787 64.9205 72.4617C69.8445 70.1387 75.7065 69.9597 80.7145 71.9617C82.6585 72.7397 84.4715 73.8157 86.0525 75.1767C87.6345 76.5417 88.9405 78.2027 89.9795 80.0297C90.4295 80.8427 90.8185 81.6717 91.1245 82.5627C91.6785 84.2207 91.7955 85.3847 91.7785 86.1887C91.7555 86.9967 91.5745 87.4627 91.2975 87.8237C91.1665 87.9877 91.0345 88.1997 90.9035 88.2887C90.4245 88.5847 90.2335 87.2527 89.7095 85.0657C88.9105 81.8277 87.0145 78.8047 84.4225 76.5887C81.8245 74.3817 78.4735 73.0187 74.9875 72.7547C72.4025 72.5367 69.7615 72.9027 67.3095 73.7707C64.8755 74.6767 62.6125 76.0887 60.8825 78.0047L60.8395 77.9737Z" fill="#231F20"/>
<path fill-rule="evenodd" clip-rule="evenodd" d="M72.2973 78.3636C72.2993 78.4166 72.3003 78.4686 72.2973 78.5216C72.2973 78.5386 72.2953 78.5566 72.2943 78.5736C72.2863 78.6536 72.2883 78.6436 72.2993 78.5446C72.3103 78.5756 72.2533 78.7756 72.2303 78.7996C72.2403 78.7776 72.2503 78.7546 72.2603 78.7316C72.2453 78.7646 72.2293 78.7976 72.2123 78.8286C72.1853 78.8776 72.1523 78.9226 72.1253 78.9696C72.0713 79.0626 72.1563 78.9266 72.1673 78.9176C72.1313 78.9466 72.1033 78.9926 72.0703 79.0266C72.0293 79.0686 71.9813 79.1026 71.9403 79.1436C72.0763 79.0086 72.0253 79.0796 71.9713 79.1146C71.9433 79.1336 71.9133 79.1506 71.8843 79.1676C71.8163 79.2056 71.6603 79.2366 71.8703 79.1816C71.8013 79.1996 71.7353 79.2286 71.6653 79.2446C71.6383 79.2516 71.6103 79.2556 71.5843 79.2616C71.4543 79.2886 71.7713 79.2456 71.6393 79.2546C71.5843 79.2576 71.5293 79.2616 71.4743 79.2616C71.4073 79.2606 71.3413 79.2526 71.2753 79.2486C71.5243 79.2616 71.3043 79.2496 71.2323 79.2316C71.1723 79.2166 71.1143 79.1986 71.0563 79.1776C71.0303 79.1686 71.0043 79.1566 70.9783 79.1476C71.1833 79.2176 71.0743 79.1886 71.0243 79.1636C70.9743 79.1386 70.9253 79.1116 70.8783 79.0826C70.8493 79.0646 70.8213 79.0466 70.7943 79.0276C70.6483 78.9256 70.8903 79.1146 70.8033 79.0346C70.7623 78.9976 70.7213 78.9616 70.6823 78.9216C70.6593 78.8976 70.6373 78.8726 70.6153 78.8476C70.5303 78.7566 70.6983 78.9716 70.6523 78.8986C70.6193 78.8456 70.5823 78.7976 70.5523 78.7436C70.5353 78.7146 70.5213 78.6846 70.5053 78.6546C70.4503 78.5486 70.5633 78.8186 70.5233 78.6966C70.5023 78.6306 70.4803 78.5656 70.4653 78.4976C70.4263 78.3176 70.4733 78.6626 70.4603 78.4716C70.4543 78.3976 70.4553 78.3226 70.4603 78.2486C70.4673 78.1346 70.5033 78.2176 70.4523 78.2806C70.4763 78.2506 70.4793 78.1506 70.4893 78.1106C70.4993 78.0756 70.5123 78.0426 70.5223 78.0076C70.5513 77.9046 70.5773 77.9846 70.5063 78.0356C70.5543 78.0016 70.5953 77.8656 70.6303 77.8136C70.6393 77.7986 70.6763 77.7556 70.6773 77.7436C70.6583 77.7686 70.6393 77.7936 70.6203 77.8186C70.6373 77.7976 70.6553 77.7756 70.6743 77.7546C70.7153 77.7096 70.8383 77.6346 70.8573 77.5806C70.8323 77.6006 70.8073 77.6196 70.7823 77.6386C70.8053 77.6226 70.8283 77.6066 70.8523 77.5906C70.8873 77.5676 70.9233 77.5456 70.9603 77.5256C70.9903 77.5086 71.0263 77.4956 71.0553 77.4776C71.1323 77.4266 70.8883 77.5326 71.0263 77.4896C71.1093 77.4646 71.1923 77.4426 71.2763 77.4216C71.3643 77.4006 71.2833 77.4566 71.2213 77.4266C71.2553 77.4426 71.3603 77.4176 71.4003 77.4176C71.4103 77.4176 71.5393 77.4266 71.5403 77.4236C71.4383 77.4076 71.4133 77.4056 71.4673 77.4146C71.4893 77.4176 71.5123 77.4226 71.5343 77.4276C71.5773 77.4376 71.6203 77.4486 71.6633 77.4626C71.6913 77.4716 71.7193 77.4816 71.7463 77.4926C71.6473 77.4496 71.6323 77.4436 71.7003 77.4756C71.7313 77.4936 71.9043 77.6196 71.9233 77.6126C71.9003 77.5936 71.8753 77.5746 71.8513 77.5566C71.8743 77.5746 71.8963 77.5936 71.9173 77.6136C71.9503 77.6436 71.9813 77.6746 72.0113 77.7056C72.0203 77.7156 72.0893 77.8056 72.0983 77.8046C72.0343 77.7206 72.0243 77.7086 72.0683 77.7686C72.0803 77.7866 72.0923 77.8056 72.1043 77.8236C72.1243 77.8556 72.1433 77.8866 72.1613 77.9186C72.1763 77.9466 72.2153 78.0646 72.2403 78.0766C72.2283 78.0486 72.2153 78.0196 72.2033 77.9906C72.2143 78.0186 72.2233 78.0466 72.2333 78.0746C72.2473 78.1156 72.2593 78.1586 72.2703 78.2016C72.2813 78.2446 72.2883 78.2876 72.2973 78.3306C72.3103 78.4076 72.3083 78.3886 72.2913 78.2756C72.2943 78.3046 72.2963 78.3346 72.2973 78.3636C72.3193 78.7286 72.6033 79.0816 72.9973 79.0636C73.3583 79.0476 73.7213 78.7556 73.6973 78.3636C73.6353 77.3366 72.9673 76.3326 71.9283 76.0826C70.9233 75.8416 69.8133 76.3296 69.3353 77.2526C68.8873 78.1166 68.9993 79.1356 69.6473 79.8626C70.1383 80.4136 70.9543 80.7326 71.6883 80.6486C72.1883 80.5916 72.6363 80.4106 73.0093 80.0656C73.4743 79.6346 73.7173 78.9916 73.6973 78.3636C73.6853 77.9986 73.3843 77.6466 72.9973 77.6636C72.6283 77.6806 72.2843 77.9716 72.2973 78.3636" fill="#231F20"/>
<path fill-rule="evenodd" clip-rule="evenodd" d="M65.1284 83.5565C65.1304 83.6095 65.1314 83.6615 65.1284 83.7145C65.1274 83.7315 65.1264 83.7485 65.1254 83.7665C65.1174 83.8465 65.1194 83.8365 65.1304 83.7375C65.1414 83.7685 65.0844 83.9685 65.0614 83.9925C65.0704 83.9705 65.0814 83.9475 65.0904 83.9245C65.0764 83.9575 65.0604 83.9905 65.0434 84.0215C65.0164 84.0705 64.9834 84.1155 64.9554 84.1625C64.9024 84.2555 64.9864 84.1195 64.9984 84.1105C64.9624 84.1395 64.9344 84.1855 64.9014 84.2195C64.8604 84.2615 64.8124 84.2955 64.7714 84.3365C64.9064 84.2015 64.8564 84.2725 64.8014 84.3075C64.7734 84.3265 64.7444 84.3435 64.7154 84.3605C64.6464 84.3985 64.4914 84.4295 64.7014 84.3745C64.6314 84.3925 64.5664 84.4215 64.4954 84.4375C64.4684 84.4445 64.4414 84.4485 64.4154 84.4545C64.2854 84.4815 64.6024 84.4385 64.4704 84.4475C64.4154 84.4505 64.3604 84.4545 64.3044 84.4545C64.2384 84.4535 64.1724 84.4455 64.1064 84.4415C64.3554 84.4545 64.1354 84.4425 64.0634 84.4245C64.0034 84.4095 63.9444 84.3915 63.8874 84.3705C63.8614 84.3615 63.8354 84.3495 63.8094 84.3405C64.0144 84.4105 63.9054 84.3815 63.8544 84.3565C63.8044 84.3315 63.7554 84.3045 63.7084 84.2755C63.6804 84.2575 63.6524 84.2395 63.6254 84.2205C63.4794 84.1185 63.7214 84.3075 63.6344 84.2275C63.5934 84.1905 63.5514 84.1545 63.5134 84.1145C63.4904 84.0905 63.4684 84.0655 63.4464 84.0405C63.3614 83.9495 63.5294 84.1645 63.4834 84.0915C63.4504 84.0385 63.4134 83.9905 63.3834 83.9365C63.3664 83.9075 63.3524 83.8775 63.3364 83.8475C63.2804 83.7415 63.3944 84.0115 63.3544 83.8895C63.3324 83.8235 63.3114 83.7585 63.2964 83.6905C63.2564 83.5105 63.3044 83.8555 63.2914 83.6645C63.2854 83.5905 63.2864 83.5155 63.2914 83.4415C63.2984 83.3275 63.3344 83.4105 63.2834 83.4735C63.3074 83.4435 63.3104 83.3435 63.3204 83.3035C63.3304 83.2685 63.3424 83.2355 63.3534 83.2005C63.3824 83.0975 63.4084 83.1775 63.3374 83.2285C63.3844 83.1945 63.4264 83.0585 63.4604 83.0065C63.4694 82.9915 63.5074 82.9485 63.5084 82.9365C63.4894 82.9615 63.4704 82.9865 63.4504 83.0115C63.4684 82.9905 63.4864 82.9685 63.5054 82.9475C63.5464 82.9025 63.6694 82.8275 63.6884 82.7735C63.6634 82.7935 63.6384 82.8125 63.6134 82.8315C63.6364 82.8155 63.6594 82.7995 63.6824 82.7835C63.7184 82.7605 63.7544 82.7385 63.7914 82.7185C63.8214 82.7015 63.8574 82.6885 63.8864 82.6705C63.9634 82.6195 63.7194 82.7255 63.8574 82.6825C63.9404 82.6575 64.0224 82.6355 64.1074 82.6145C64.1954 82.5935 64.1134 82.6495 64.0524 82.6195C64.0864 82.6355 64.1914 82.6105 64.2314 82.6105C64.2414 82.6105 64.3704 82.6195 64.3714 82.6165C64.2684 82.6005 64.2444 82.5985 64.2984 82.6075C64.3204 82.6105 64.3424 82.6155 64.3644 82.6205C64.4084 82.6305 64.4514 82.6415 64.4944 82.6555C64.5224 82.6645 64.5504 82.6745 64.5774 82.6855C64.4784 82.6425 64.4624 82.6365 64.5304 82.6685C64.5614 82.6865 64.7354 82.8125 64.7544 82.8055C64.7304 82.7865 64.7064 82.7675 64.6824 82.7495C64.7054 82.7675 64.7274 82.7865 64.7484 82.8065C64.7804 82.8365 64.8124 82.8675 64.8424 82.8985C64.8514 82.9085 64.9204 82.9985 64.9284 82.9975C64.8654 82.9135 64.8554 82.9015 64.8984 82.9615C64.9114 82.9795 64.9234 82.9985 64.9354 83.0165C64.9554 83.0485 64.9744 83.0795 64.9924 83.1115C65.0074 83.1395 65.0454 83.2575 65.0704 83.2695C65.0584 83.2415 65.0464 83.2125 65.0344 83.1835C65.0454 83.2115 65.0544 83.2395 65.0644 83.2675C65.0784 83.3085 65.0904 83.3515 65.1014 83.3945C65.1114 83.4375 65.1194 83.4805 65.1284 83.5235C65.1414 83.6005 65.1384 83.5815 65.1224 83.4685C65.1254 83.4975 65.1274 83.5275 65.1284 83.5565C65.1504 83.9215 65.4344 84.2745 65.8284 84.2565C66.1884 84.2405 66.5524 83.9485 66.5284 83.5565C66.4654 82.5295 65.7984 81.5255 64.7584 81.2755C63.7544 81.0345 62.6444 81.5225 62.1664 82.4455C61.7184 83.3095 61.8304 84.3285 62.4784 85.0555C62.9684 85.6065 63.7854 85.9245 64.5194 85.8415C65.0194 85.7845 65.4674 85.6035 65.8404 85.2585C66.3054 84.8275 66.5484 84.1845 66.5284 83.5565C66.5164 83.1915 66.2144 82.8395 65.8284 82.8565C65.4594 82.8735 65.1154 83.1645 65.1284 83.5565" fill="#231F20"/>
<path fill-rule="evenodd" clip-rule="evenodd" d="M64.1113 92.1015C64.1123 92.1545 64.1133 92.2065 64.1113 92.2595C64.1103 92.2765 64.1093 92.2935 64.1083 92.3115C64.1003 92.3915 64.1013 92.3815 64.1123 92.2815C64.1233 92.3135 64.0673 92.5135 64.0433 92.5375C64.0533 92.5145 64.0633 92.4925 64.0733 92.4695C64.0583 92.5025 64.0423 92.5345 64.0253 92.5665C63.9993 92.6155 63.9653 92.6595 63.9383 92.7075C63.8853 92.8005 63.9693 92.6645 63.9803 92.6555C63.9443 92.6845 63.9163 92.7305 63.8843 92.7645C63.8423 92.8055 63.7953 92.8405 63.7543 92.8815C63.8893 92.7465 63.8393 92.8175 63.7843 92.8525C63.7563 92.8715 63.7273 92.8885 63.6973 92.9055C63.6293 92.9435 63.4733 92.9735 63.6833 92.9195C63.6143 92.9375 63.5483 92.9665 63.4783 92.9825C63.4513 92.9885 63.4243 92.9935 63.3973 92.9985C63.2683 93.0265 63.5853 92.9835 63.4523 92.9915C63.3973 92.9955 63.3423 92.9995 63.2873 92.9985C63.2203 92.9985 63.1553 92.9905 63.0893 92.9865C63.3373 92.9985 63.1183 92.9875 63.0453 92.9695C62.9863 92.9545 62.9273 92.9365 62.8703 92.9155C62.8433 92.9065 62.8183 92.8945 62.7923 92.8855C62.9973 92.9555 62.8883 92.9265 62.8373 92.9005C62.7873 92.8765 62.7383 92.8495 62.6913 92.8195C62.6633 92.8025 62.6343 92.7845 62.6073 92.7655C62.4623 92.6635 62.7043 92.8515 62.6173 92.7725C62.5763 92.7355 62.5343 92.6995 62.4963 92.6595C62.4723 92.6355 62.4513 92.6095 62.4283 92.5855C62.3433 92.4935 62.5123 92.7095 62.4653 92.6355C62.4333 92.5835 62.3963 92.5355 62.3653 92.4815C62.3493 92.4525 62.3353 92.4215 62.3193 92.3925C62.2633 92.2865 62.3773 92.5565 62.3373 92.4345C62.3153 92.3685 62.2933 92.3035 62.2783 92.2355C62.2393 92.0555 62.2873 92.4005 62.2733 92.2095C62.2683 92.1355 62.2683 92.0605 62.2733 91.9865C62.2813 91.8725 62.3173 91.9555 62.2663 92.0185C62.2903 91.9885 62.2923 91.8875 62.3033 91.8485C62.3133 91.8135 62.3253 91.7795 62.3353 91.7455C62.3653 91.6425 62.3913 91.7225 62.3203 91.7735C62.3673 91.7395 62.4083 91.6035 62.4433 91.5505C62.4523 91.5365 62.4903 91.4935 62.4913 91.4815C62.4723 91.5065 62.4523 91.5315 62.4333 91.5565C62.4513 91.5345 62.4693 91.5135 62.4883 91.4925C62.5293 91.4475 62.6523 91.3725 62.6713 91.3185C62.6463 91.3385 62.6213 91.3575 62.5963 91.3765C62.6183 91.3605 62.6423 91.3445 62.6653 91.3285C62.7003 91.3055 62.7363 91.2835 62.7743 91.2635C62.8043 91.2465 62.8403 91.2335 62.8683 91.2145C62.9453 91.1645 62.7023 91.2705 62.8403 91.2275C62.9233 91.2025 63.0053 91.1795 63.0903 91.1595C63.1783 91.1375 63.0963 91.1935 63.0343 91.1645C63.0683 91.1805 63.1743 91.1545 63.2143 91.1545C63.2243 91.1545 63.3523 91.1645 63.3543 91.1615C63.2513 91.1455 63.2273 91.1435 63.2813 91.1515C63.3033 91.1555 63.3253 91.1605 63.3473 91.1645C63.3913 91.1745 63.4343 91.1865 63.4773 91.2005C63.5053 91.2095 63.5323 91.2195 63.5603 91.2305C63.4613 91.1875 63.4453 91.1815 63.5133 91.2135C63.5443 91.2315 63.7183 91.3565 63.7373 91.3505C63.7133 91.3315 63.6893 91.3125 63.6653 91.2945C63.6873 91.3125 63.7093 91.3315 63.7313 91.3515C63.7633 91.3805 63.7953 91.4115 63.8243 91.4435C63.8333 91.4525 63.9033 91.5435 63.9113 91.5425C63.8473 91.4585 63.8373 91.4465 63.8813 91.5065C63.8943 91.5245 63.9063 91.5435 63.9183 91.5615C63.9373 91.5925 63.9563 91.6235 63.9743 91.6565C63.9903 91.6845 64.0283 91.8025 64.0533 91.8145C64.0413 91.7865 64.0283 91.7575 64.0163 91.7285C64.0273 91.7565 64.0373 91.7845 64.0463 91.8115C64.0603 91.8535 64.0723 91.8965 64.0843 91.9395C64.0943 91.9825 64.1023 92.0255 64.1113 92.0685C64.1233 92.1445 64.1213 92.1265 64.1043 92.0135C64.1073 92.0425 64.1103 92.0725 64.1113 92.1015C64.1333 92.4665 64.4173 92.8195 64.8113 92.8015C65.1713 92.7855 65.5353 92.4935 65.5113 92.1015C65.4483 91.0745 64.7813 90.0705 63.7413 89.8205C62.7373 89.5785 61.6273 90.0675 61.1493 90.9905C60.7013 91.8535 60.8133 92.8735 61.4603 93.6005C61.9513 94.1515 62.7683 94.4695 63.5023 94.3865C64.0023 94.3295 64.4503 94.1485 64.8233 93.8035C65.2883 93.3725 65.5313 92.7295 65.5113 92.1015C65.4993 91.7355 65.1973 91.3845 64.8113 91.4015C64.4423 91.4175 64.0983 91.7095 64.1113 92.1015" fill="#231F20"/>
<path fill-rule="evenodd" clip-rule="evenodd" d="M74.7363 87.122C75.5263 87.912 75.5263 89.191 74.7363 89.98C73.9473 90.769 72.6683 90.769 71.8793 89.98C71.0903 89.191 71.0903 87.912 71.8793 87.122C72.6683 86.333 73.9473 86.333 74.7363 87.122" fill="#231F20"/>
<path fill-rule="evenodd" clip-rule="evenodd" d="M26.9623 106.362C26.5503 106.445 16.3693 110.542 18.0073 113.555C20.7903 118.671 51.5183 123.057 52.5073 120.639L26.9623 114.047V106.362Z" fill="#231F20"/>
<path fill-rule="evenodd" clip-rule="evenodd" d="M51.1973 120.094C53.4093 120.279 55.6263 120.438 57.8463 120.56L60.2783 120.641C63.1343 120.8 65.9933 120.923 68.8553 121.037C70.1253 121.084 71.4023 121.077 72.6623 121.059C74.2823 121.049 75.9073 120.963 77.5293 121.217C78.0343 121.297 77.9693 121.513 77.5443 121.802C77.1203 122.089 76.3353 122.524 75.4003 122.565C73.7423 122.706 72.0833 122.701 70.4213 122.676C68.7593 122.645 67.0943 122.592 65.4243 122.441C63.4263 122.277 61.3433 122.297 59.2993 122.198C57.0513 122.09 54.8023 121.945 52.5573 121.775L48.4133 121.429C46.3273 121.25 44.2093 120.997 42.1463 120.67C40.5403 120.427 38.9613 120.224 37.3873 120.013C37.0403 119.968 36.7023 119.926 36.3563 119.867C35.7143 119.768 35.2983 119.663 35.0143 119.515C34.7283 119.388 34.5733 119.234 34.4533 119.056C34.3983 118.978 34.3223 118.905 34.2913 118.844C34.1833 118.676 34.7553 118.415 35.7483 118.38C38.6763 118.444 41.6043 119.129 44.5443 119.456C46.7153 119.718 48.9683 119.892 51.1973 120.054V120.094Z" fill="#231F20"/>
<path fill-rule="evenodd" clip-rule="evenodd" d="M59.6834 86.4365C59.2234 88.9695 59.4404 91.6555 60.5144 94.0215C60.9104 94.8825 61.4274 95.6795 61.9884 96.4435C63.9814 99.1255 67.0244 101.086 70.3804 101.661C71.8624 101.922 73.4124 101.872 74.8844 101.589C76.7874 101.226 78.5614 100.428 80.2664 99.5345C80.7934 99.2515 80.9504 99.5925 80.6944 100.188C80.4414 100.777 79.7164 101.613 78.5794 102.093C76.5774 102.932 74.3984 103.355 72.2194 103.295C70.0334 103.235 67.8674 102.626 65.9704 101.581C63.7044 100.337 61.6014 98.5575 60.1764 96.3225C59.3994 95.0975 58.8124 93.7495 58.4554 92.3445C58.1624 90.9305 57.9414 89.4875 58.0694 88.0505C58.1844 86.2915 58.5354 84.5345 59.2564 82.9255C60.2564 80.4495 62.0394 78.3155 64.1814 76.7775C65.8534 75.5905 67.7344 74.7225 69.7564 74.3185C70.2004 74.2395 70.6404 74.1895 71.0934 74.1375C71.9364 74.0165 72.4934 74.1195 72.8784 74.1875C73.2644 74.2725 73.4774 74.4015 73.6384 74.5995C73.7104 74.6905 73.8074 74.7815 73.8444 74.8705C73.9664 75.1705 73.2944 75.3935 72.1644 75.4365C70.4974 75.6275 68.7954 75.8905 67.2544 76.6345C65.7064 77.3335 64.2784 78.3245 63.0944 79.5815C61.3914 81.4785 60.1224 83.8665 59.7194 86.4395L59.6834 86.4365Z" fill="#231F20"/>
<path fill-rule="evenodd" clip-rule="evenodd" d="M103.425 59.2534C104.3 59.9214 105.262 60.5624 106.224 61.1204C106.58 61.3214 106.958 61.4754 107.321 61.6604C108.603 62.3164 109.96 62.8364 111.36 63.2404C111.981 63.4214 112.626 63.5204 113.261 63.5984C114.081 63.6824 114.897 63.7954 115.725 63.9464C115.983 64.0014 115.951 64.1734 115.726 64.3754C115.502 64.5734 115.076 64.8374 114.571 64.8884C113.673 65.0034 112.778 64.8944 111.901 64.7274C111.023 64.5594 110.152 64.3284 109.327 63.9634C108.341 63.5404 107.284 63.1984 106.307 62.7034C105.229 62.1584 104.233 61.5164 103.252 60.8444C102.653 60.4204 102.07 59.9704 101.509 59.4894C100.659 58.7594 99.8965 57.9114 99.2525 56.9824C98.7465 56.2684 98.2825 55.5004 98.0475 54.6284C97.9785 54.4414 97.9445 54.2504 97.9075 54.0524C97.7785 53.3194 97.9535 53.0684 98.2265 52.9204C98.2945 52.8864 98.3615 52.8424 98.4285 52.8234C98.6515 52.7644 98.8675 53.0364 98.9995 53.4774C99.4285 54.7894 100.129 55.9284 101.036 57.0264C101.728 57.8244 102.546 58.5634 103.444 59.2244L103.425 59.2534Z" fill="#231F20"/>
<path fill-rule="evenodd" clip-rule="evenodd" d="M41.4727 59.532C42.3217 59.04 43.1757 58.533 43.9537 57.928C44.2497 57.719 44.4917 57.452 44.7697 57.226C45.7367 56.42 46.6847 55.558 47.3837 54.533C47.5487 54.31 47.6787 54.07 47.7767 53.822C47.8247 53.706 47.8977 53.56 47.9227 53.469C47.9507 53.389 47.9517 53.287 47.9537 53.185C47.9207 52.625 47.6227 51.965 47.4337 51.251C47.3747 51.023 47.6127 50.934 47.9427 50.987C48.2677 51.041 48.7207 51.234 48.9557 51.666C49.1417 52.05 49.3667 52.467 49.3927 53.018C49.4117 53.289 49.3997 53.597 49.2927 53.922C49.2017 54.173 49.1177 54.338 49.0247 54.548C48.6527 55.339 48.1367 55.997 47.5657 56.58C46.8807 57.27 46.2287 58.016 45.4877 58.646C44.6687 59.33 43.8057 59.95 42.9037 60.503C42.3577 60.856 41.7807 61.158 41.2167 61.478C40.3417 61.928 39.4457 62.34 38.5397 62.714C38.1927 62.87 37.8507 63.032 37.4987 63.18C37.1527 63.342 36.8017 63.5 36.4287 63.61C36.2647 63.66 36.1077 63.724 35.9407 63.765C35.3027 63.87 35.0777 63.782 34.9057 63.394C34.8667 63.305 34.8187 63.219 34.7927 63.129C34.7087 62.825 34.9197 62.526 35.3037 62.355C36.4307 61.79 37.6297 61.403 38.8257 60.843C39.7167 60.455 40.5927 59.991 41.4507 59.499L41.4727 59.532Z" fill="#231F20"/>
<path fill-rule="evenodd" clip-rule="evenodd" d="M16.6099 45.6957C16.5529 45.8547 16.4139 45.6277 16.1949 45.1727C16.1259 45.0287 15.9879 44.5667 16.0009 44.4927C16.0249 44.3487 16.0539 44.2097 16.0959 44.1047C16.1169 44.0357 16.7169 43.6627 16.9229 43.5417C17.1229 43.4127 17.3329 43.3697 17.5429 43.3427C17.9489 43.2917 18.3599 43.2407 18.7659 43.1907C18.8539 43.1817 18.9429 43.1967 19.0299 43.2327C19.3349 43.3567 19.6219 43.3387 19.8899 43.2657C19.9349 43.2537 19.9839 43.2607 20.0169 43.1817C20.0839 43.0597 20.7679 42.9417 20.8589 42.9707C21.1009 43.0497 21.3389 43.0947 21.5979 43.1627C21.6339 43.1697 21.6569 43.1357 21.7139 43.2057C21.8479 43.3657 21.9059 43.3147 21.9809 43.3077C22.0859 43.3017 22.1869 43.2857 22.3089 43.3047C22.3679 43.3127 22.4599 43.3837 22.5449 43.4337C22.6209 43.4787 22.7199 43.7167 22.7169 43.7507C22.7099 43.8457 22.8039 43.9367 22.8589 44.0297C22.8759 44.0617 22.8989 44.1037 22.9129 44.1297C22.9509 44.1797 22.5129 44.9697 22.4219 45.0087C22.4139 45.0177 22.1769 45.1747 21.9179 45.3377C21.6529 45.4727 21.3649 45.5917 21.3119 45.6227C21.2539 45.6567 21.1799 45.6237 21.1119 45.6087C21.0789 45.6127 20.2779 45.9207 20.2469 45.9137C20.0739 45.9167 19.9179 46.0147 19.7359 45.8527C19.7009 45.8207 19.6689 45.8347 19.6359 45.8427C19.3609 45.9037 19.0839 45.8617 18.8169 45.8427C18.6779 45.8337 18.5509 45.8747 18.4189 45.8867C18.3949 45.8887 18.3679 45.8637 18.3429 45.8547C18.3109 45.8417 18.2799 45.8207 18.2509 45.8257C17.9499 45.8857 17.6349 45.8227 17.3649 45.9637C17.3029 45.9907 16.9529 45.8397 16.8839 45.8887C16.8479 45.9127 16.6339 45.6297 16.6099 45.6957" fill="#231F20"/>
<path fill-rule="evenodd" clip-rule="evenodd" d="M21.9557 31.587C21.7977 31.536 21.9227 31.344 22.2117 31.058C22.3037 30.966 22.6327 30.771 22.6977 30.775C22.8257 30.783 22.9507 30.795 23.0507 30.823C23.1137 30.837 23.6417 31.382 23.8247 31.571C24.0077 31.75 24.1297 31.962 24.2407 32.178C24.4617 32.619 24.6927 33.057 24.8907 33.505C24.9347 33.605 24.9627 33.712 24.9697 33.826C24.9987 34.215 25.1297 34.56 25.2917 34.894C25.3187 34.949 25.3307 35.012 25.4107 35.046C25.5457 35.102 25.8847 36.045 25.8777 36.182C25.8597 36.525 25.9097 36.845 25.8877 37.186C25.8847 37.233 25.9177 37.274 25.8577 37.336C25.7177 37.48 25.7687 37.566 25.7797 37.665C25.7957 37.802 25.8027 37.941 25.7847 38.088C25.7757 38.161 25.7067 38.251 25.6567 38.334C25.6107 38.41 25.3817 38.445 25.3517 38.433C25.2637 38.396 25.1727 38.475 25.0827 38.508C25.0527 38.519 25.0127 38.534 24.9867 38.539C24.9387 38.545 24.2627 37.951 24.2227 37.878C24.1867 37.866 23.7167 36.854 23.6457 36.748C23.6087 36.692 23.6257 36.617 23.6277 36.546C23.6317 36.511 23.2017 35.734 23.1917 35.702C23.1487 35.525 23.0227 35.38 23.1007 35.158C23.1157 35.114 23.0947 35.082 23.0787 35.05C22.9407 34.771 22.8787 34.462 22.7917 34.163C22.7477 34.009 22.6627 33.875 22.6007 33.73C22.5887 33.703 22.5987 33.668 22.5967 33.638C22.5927 33.6 22.5967 33.559 22.5797 33.527C22.4057 33.196 22.3187 32.822 22.0817 32.526C22.0317 32.457 21.9937 32.012 21.9217 31.938C21.8847 31.896 22.0197 31.608 21.9557 31.587" fill="#231F20"/>
<path fill-rule="evenodd" clip-rule="evenodd" d="M122.755 34.3391C122.789 34.4981 122.554 34.3981 122.16 34.1351C122.034 34.0521 121.699 33.7431 121.669 33.6811C121.61 33.5591 121.554 33.4411 121.525 33.3471C121.508 33.2901 121.674 32.7791 121.714 32.5901C121.754 32.4101 121.849 32.2751 121.954 32.1461L122.587 31.3341C122.635 31.2741 122.701 31.2271 122.782 31.1941C123.061 31.0791 123.24 30.8801 123.388 30.6501C123.413 30.6111 123.453 30.5841 123.43 30.5051C123.385 30.3761 123.893 29.8131 124.006 29.7791C124.268 29.6851 124.516 29.5791 124.791 29.5051C124.829 29.4931 124.842 29.4511 124.921 29.4881C125.104 29.5741 125.143 29.5061 125.213 29.4691C125.305 29.4141 125.42 29.3831 125.548 29.3721C125.611 29.3661 125.713 29.4101 125.798 29.4381C125.876 29.4641 125.997 29.6571 126.003 29.6871C126.015 29.7731 126.111 29.8371 126.173 29.9091C126.194 29.9351 126.221 29.9671 126.237 29.9881C126.254 30.0321 126.225 30.7831 126.193 30.8161C126.193 30.8161 126.093 30.9971 126.005 31.1911C125.903 31.3711 125.791 31.5571 125.777 31.6041C125.761 31.6511 125.697 31.6541 125.647 31.6701C125.622 31.6751 125.339 32.2581 125.32 32.2771C125.221 32.3641 125.194 32.5151 124.98 32.5061C124.937 32.5051 124.927 32.5321 124.913 32.5551C124.792 32.7521 124.596 32.8911 124.418 33.0461C124.326 33.1261 124.271 33.2351 124.195 33.3281C124.182 33.3451 124.148 33.3451 124.125 33.3551C124.097 33.3671 124.061 33.3731 124.045 33.3961C123.883 33.6331 123.629 33.7961 123.506 34.0741C123.479 34.1391 123.111 34.2491 123.083 34.3271C123.067 34.3721 122.741 34.2761 122.755 34.3391" fill="#231F20"/>
<path fill-rule="evenodd" clip-rule="evenodd" d="M125.368 43.6047C125.369 43.7687 125.155 43.6457 124.788 43.3687C124.672 43.2807 124.38 42.9567 124.367 42.8887C124.338 42.7537 124.316 42.6217 124.319 42.5117C124.312 42.4417 124.743 41.8267 124.908 41.6257C125.055 41.4167 125.251 41.2817 125.453 41.1567C125.865 40.9147 126.273 40.6697 126.692 40.4737C126.785 40.4287 126.887 40.4037 126.995 40.4017C127.369 40.3897 127.687 40.2687 127.992 40.1127C128.042 40.0867 128.1 40.0777 128.127 39.9927C128.169 39.8367 129.035 39.5527 129.17 39.5957C129.492 39.6487 129.793 39.6507 130.098 39.6697C130.142 39.6727 130.175 39.6387 130.235 39.7007C130.37 39.8387 130.449 39.7997 130.541 39.7997C130.668 39.7977 130.797 39.8027 130.932 39.8277C131 39.8407 131.085 39.9087 131.163 39.9557C131.235 39.9987 131.275 40.2017 131.265 40.2307C131.235 40.3127 131.31 40.3937 131.343 40.4737C131.355 40.5017 131.369 40.5377 131.374 40.5617C131.378 40.5837 130.891 41.3467 130.822 41.3817C130.815 41.3857 130.588 41.5187 130.344 41.6607C130.108 41.8037 129.865 41.9577 129.82 41.9987C129.772 42.0407 129.703 42.0227 129.639 42.0207C129.599 42.0437 128.923 42.4377 128.898 42.4527C128.739 42.4877 128.62 42.6157 128.41 42.5167C128.369 42.4977 128.342 42.5187 128.314 42.5327C128.074 42.6637 127.801 42.7107 127.541 42.7867C127.406 42.8227 127.299 42.9097 127.177 42.9677C127.155 42.9787 127.121 42.9667 127.094 42.9677C127.06 42.9687 127.022 42.9627 126.996 42.9797C126.729 43.1497 126.403 43.2277 126.193 43.4707C126.142 43.5207 125.749 43.5567 125.701 43.6337C125.674 43.6697 125.368 43.5357 125.368 43.6047" fill="#231F20"/>
</svg>
