<svg width="148" height="148" viewBox="0 0 148 148" fill="none" xmlns="http://www.w3.org/2000/svg">
<path fill-rule="evenodd" clip-rule="evenodd" d="M92.52 46.4932L87.5 47.3422L85.677 47.6992C83.526 48.0822 81.372 48.4662 79.223 48.8482C78.27 49.0392 77.316 49.2302 76.371 49.4202C75.152 49.6682 73.967 49.9822 72.662 50.0192C72.246 50.0232 72.325 49.7842 72.627 49.5232C72.916 49.2782 73.453 48.9462 74.142 48.8162C76.595 48.3092 79.068 47.7992 81.588 47.4262C83.095 47.1982 84.636 46.8292 86.166 46.5372L91.225 45.6162L94.345 45.0822C95.924 44.8312 97.51 44.5792 99.078 44.3302C100.299 44.1442 101.484 43.8842 102.708 43.7272L103.511 43.6102C104.531 43.5322 104.865 43.6072 105.083 43.9092C105.133 43.9782 105.198 44.0472 105.226 44.1182C105.32 44.3572 104.917 44.5742 104.208 44.6712C102.01 45.0102 99.818 45.3472 97.585 45.6922C95.903 45.9672 94.213 46.2432 92.527 46.5192L92.52 46.4932Z" fill="#231F20"/>
<path fill-rule="evenodd" clip-rule="evenodd" d="M48.9299 64.9678C50.8679 65.9588 52.8199 66.9288 54.7839 67.8748L56.9509 68.8728C59.4809 70.0888 62.0129 71.3058 64.5409 72.5208C65.6649 73.0608 66.8069 73.5768 67.9329 74.0908C69.3789 74.7578 70.8599 75.3658 72.1839 76.3358C72.5989 76.6318 72.4229 76.7558 71.9489 76.7348C71.7099 76.7258 71.4039 76.6788 71.0509 76.6008C70.6889 76.5238 70.2699 76.4338 69.8669 76.2338C66.9499 74.9008 63.9379 73.6888 61.0259 72.1998C59.2769 71.3238 57.3869 70.5638 55.5659 69.7348C53.5639 68.8198 51.5729 67.8798 49.5869 66.9268L45.9319 65.1408C44.0889 64.2348 42.2639 63.2698 40.4449 62.3448C39.0369 61.6118 37.6129 60.9688 36.2199 60.2228C35.9119 60.0588 35.5959 59.9288 35.3049 59.7278C34.2039 59.0228 33.9319 58.6798 33.9159 58.2068C33.9119 58.0998 33.8909 57.9838 33.9079 57.8928C33.9609 57.5988 34.5589 57.6468 35.4069 58.0408C37.9179 59.2118 40.4529 60.6318 43.0839 61.9498C45.0229 62.9498 46.9729 63.9648 48.9439 64.9328L48.9299 64.9678Z" fill="#231F20"/>
<path fill-rule="evenodd" clip-rule="evenodd" d="M71.9381 58.6893C71.8431 59.7063 71.7481 60.7253 71.6531 61.7403C71.6221 62.1113 71.6291 62.4833 71.5941 62.8543C71.4751 64.1613 71.3551 65.4743 71.2351 66.7783C71.1921 67.3583 71.1681 67.9433 71.1611 68.5203C71.1521 69.2603 71.1831 70.0073 71.0551 70.7383C70.9811 71.2003 70.0411 70.6103 70.0011 69.7423C69.9561 68.2173 69.9941 66.7023 70.2141 65.1793C70.3391 64.2693 70.3111 63.3153 70.3641 62.3813L70.5641 59.3013L70.6991 57.4063C70.7641 56.4503 70.8481 55.4903 70.8751 54.5383C70.8931 53.7983 70.8451 53.0703 70.8391 52.3363C70.8381 52.1743 70.8261 52.0153 70.8321 51.8523C70.8411 51.5513 70.8761 51.3463 70.9461 51.2103C70.9811 51.1423 71.0251 51.0893 71.0821 51.0473C71.1431 50.9463 71.2431 50.8623 71.3311 50.8603C71.4131 50.8513 71.4691 50.8743 71.4971 50.9253C71.5401 51.0153 71.4461 50.8043 71.4881 50.9003C71.5621 51.0663 71.5601 51.0553 71.5841 51.0903C71.6251 51.1493 71.7181 51.2003 71.8071 51.1623C71.8961 51.0703 71.9091 51.1633 71.9441 51.2523C71.9741 51.3373 71.9961 51.4343 72.0101 51.5433C72.1831 52.8463 72.1981 54.2293 72.1361 55.6073C72.0971 56.6323 72.0381 57.6623 71.9721 58.6893H71.9381Z" fill="#231F20"/>
<path fill-rule="evenodd" clip-rule="evenodd" d="M52.3653 52.3331C52.3293 53.2701 52.3083 54.2121 52.3013 55.1541C52.3093 55.4991 52.3183 55.8371 52.3263 56.1841C52.3083 57.3971 52.2893 58.6191 52.2713 59.8301C52.2663 60.3701 52.2853 60.9141 52.3083 61.4511C52.3273 62.1441 52.4073 62.8401 52.2213 63.5561C52.1663 63.7771 51.9263 63.7061 51.6973 63.5021C51.4733 63.2971 51.2523 62.9821 51.2413 62.5981C51.2193 61.2411 51.1553 59.8371 51.2353 58.4231C51.2883 57.5761 51.1993 56.6981 51.1853 55.8321C51.1723 54.8781 51.1763 53.9241 51.1833 52.9691C51.1933 52.3811 51.2033 51.7921 51.2133 51.2061C51.2423 50.3141 51.2713 49.4211 51.3013 48.5371C51.3143 47.8491 51.2653 47.1681 51.2993 46.4831C51.3023 46.3331 51.3033 46.1841 51.3203 46.0321C51.3833 45.4701 51.4803 45.2991 51.7623 45.2141C51.8263 45.1951 51.8913 45.1671 51.9533 45.1601C52.1633 45.1341 52.3133 45.3801 52.3493 45.7871C52.4743 46.9911 52.4653 48.2381 52.4443 49.5021C52.4273 50.4421 52.4113 51.3881 52.3953 52.3321L52.3653 52.3331Z" fill="#231F20"/>
<path fill-rule="evenodd" clip-rule="evenodd" d="M78.4597 19.5031C79.1577 19.2791 79.8587 19.1211 80.5617 18.9751C80.8177 18.9211 81.0607 18.8221 81.3197 18.7831C82.2317 18.6331 83.1607 18.5611 84.0747 18.4441C84.4827 18.4001 84.8827 18.3181 85.2827 18.2601C85.7977 18.1911 86.3177 18.1251 86.8527 18.1461C87.0187 18.1521 86.9897 18.1221 86.8637 18.1801C86.7347 18.2291 86.5307 18.4441 86.2667 18.6051C85.3417 19.2161 84.3827 19.6631 83.3437 19.8671C82.7187 19.9741 82.1157 20.2551 81.4937 20.4221C80.8117 20.6081 80.1157 20.7581 79.4297 20.9211C79.0067 21.0201 78.5847 21.1181 78.1807 21.2351C77.8687 21.3361 77.6117 21.3971 77.4697 21.5321C77.3037 21.6751 77.2007 21.9411 77.1467 22.2321C77.0707 22.6911 77.1227 23.1861 77.0817 23.6981C77.0737 23.8111 77.0657 23.9291 77.0587 24.0381C77.0127 24.4681 76.9087 24.6021 76.8957 24.6891C76.8897 24.7091 76.8857 24.7351 76.8847 24.7471C76.8857 24.7891 76.8927 24.6111 76.7737 24.3161C76.5307 23.4261 75.7767 22.6201 76.2027 21.1391C76.3047 20.8721 76.4697 20.5771 76.7217 20.3571C76.9517 20.1321 77.2207 20.0101 77.3827 19.9221C77.7577 19.7251 78.0957 19.5991 78.4457 19.4651L78.4597 19.5031Z" fill="#231F20"/>
<path fill-rule="evenodd" clip-rule="evenodd" d="M69.1496 32.708C69.1736 32.808 69.1376 32.729 69.1126 32.748C69.0826 32.743 69.0696 32.73 69.0256 32.726C68.9316 32.719 68.8546 32.697 68.7416 32.69C68.5276 32.67 68.2876 32.655 68.0416 32.642C67.8566 32.637 67.6876 32.699 67.4946 32.682C66.8226 32.625 66.0996 32.489 65.3876 32.437C65.0696 32.402 64.7606 32.426 64.4476 32.417C64.0466 32.396 63.6276 32.371 63.2136 32.188C63.0876 32.134 63.1086 32.188 63.2066 32.133C63.3076 32.094 63.4576 31.822 63.6436 31.647C64.2946 30.954 64.9836 30.507 65.8056 30.469C66.2976 30.468 66.7656 30.212 67.2746 30.146C67.8396 30.081 68.4116 30.076 69.0866 30.17C69.4676 30.208 70.1916 30.431 70.5216 30.866C71.0536 31.512 71.0526 32.14 71.1446 32.657C71.2016 33.067 71.2716 33.442 71.2196 33.832C71.2126 33.917 71.2096 33.999 71.1956 34.084C71.1516 34.401 71.0656 34.535 71.0776 34.604C71.0766 34.621 71.0816 34.641 71.0846 34.649C71.1096 34.67 71.0236 34.576 70.7936 34.391C70.5186 34.096 70.1976 33.777 69.8976 33.489C69.6456 33.192 69.3756 32.927 69.2036 32.749C69.1326 32.694 69.0676 32.631 69.0116 32.62C68.9826 32.612 68.9586 32.594 68.9466 32.603L68.9286 32.605C68.9176 32.613 68.9276 32.603 68.9616 32.574C68.9876 32.549 68.9956 32.549 69.0136 32.534C69.0706 32.493 69.1406 32.415 69.1756 32.37C69.1986 32.349 69.2206 32.32 69.2396 32.283C69.2336 32.292 69.2306 32.308 69.2306 32.308V32.309V32.31C69.2076 32.38 69.4336 31.696 69.3376 31.986L69.3366 31.988L69.3356 31.991L69.3326 31.998L69.3216 32.023L69.3026 32.075L69.2336 32.282C69.1936 32.422 69.1656 32.563 69.1496 32.705V32.708Z" fill="#231F20"/>
<path fill-rule="evenodd" clip-rule="evenodd" d="M38.2732 87.0698C41.2092 88.9208 44.1652 90.7548 47.1402 92.5558C48.2252 93.2148 49.3502 93.8048 50.4322 94.4668L61.8762 101.495C63.5762 102.523 65.3152 103.503 67.0362 104.464C69.2532 105.686 71.4472 106.973 73.5382 108.421C74.1872 108.876 73.9482 109.078 73.2032 109.036C72.4612 108.988 71.1902 108.743 69.8682 108.118C67.5152 107.032 65.2512 105.788 62.9922 104.521C60.7332 103.256 58.4912 101.948 56.2752 100.57C53.6202 98.9318 50.7492 97.4148 47.9922 95.8078C44.9632 94.0378 41.9492 92.2368 38.9442 90.4168C37.0952 89.2948 35.2502 88.1678 33.4152 87.0118C32.7182 86.5818 32.0282 86.1238 31.3372 85.6718C30.9922 85.4518 30.6482 85.2088 30.3042 84.9648C30.1082 84.8208 29.8232 84.6458 29.6172 84.4648L29.4492 84.3288C29.4222 84.2638 29.4072 84.1898 29.3862 84.1208C29.3422 83.9818 29.3072 83.8408 29.2862 83.6978C29.1552 83.0618 29.1442 82.7288 29.0952 82.2948L28.9922 81.0608C28.9312 80.2428 28.8702 79.4268 28.8102 78.6138C28.6212 76.0898 28.3182 73.6248 28.1812 71.1248C28.1462 70.5748 28.0962 70.0358 28.0792 69.4798C28.0402 68.4488 28.1212 67.7648 28.2502 67.2838C28.4232 66.8038 28.6212 66.5248 28.8592 66.3048C28.9682 66.2038 29.0682 66.0718 29.1622 66.0138C29.3212 65.9168 29.4652 66.0778 29.6512 66.4458C29.8302 66.8148 30.0982 67.3908 30.1942 68.1328C30.5322 70.3378 30.8062 72.6068 31.0262 74.9078C31.2232 77.2018 31.3692 79.5578 31.5902 81.8358L31.6972 82.8088C31.7102 82.8358 31.6662 82.7978 31.7292 82.8468C32.3822 83.3168 33.1482 83.7788 33.8582 84.2478L38.3022 87.0128L38.2732 87.0698Z" fill="#231F20"/>
<path fill-rule="evenodd" clip-rule="evenodd" d="M74.3218 95.0957L74.2908 98.5807C74.2938 99.0047 74.3558 99.4257 74.3518 99.8497C74.3318 101.348 74.3118 102.853 74.2918 104.349C74.2848 105.015 74.3248 105.683 74.3738 106.343C74.4278 107.196 74.5718 108.034 74.3528 108.938C74.2868 109.217 73.8958 109.14 73.5058 108.905C73.1208 108.671 72.7178 108.306 72.6658 107.829C72.5108 106.153 72.3368 104.432 72.4748 102.685C72.5558 101.638 72.3848 100.564 72.3438 99.4987L72.2528 95.9797L72.2108 93.8117C72.1868 92.7167 72.2238 91.6137 72.1758 90.5247C72.1348 89.6787 71.9908 88.8477 71.9808 87.9927C71.9778 87.8037 71.9588 87.6187 71.9668 87.4277C72.0058 86.7157 72.1818 86.4757 72.6218 86.3867C72.7238 86.3647 72.8258 86.3327 72.9248 86.3267C73.2588 86.3087 73.5178 86.6177 73.6138 87.0857C73.7658 87.7997 73.9408 88.5407 74.0438 89.2977C74.1338 90.0537 74.1928 90.8247 74.2498 91.6027L74.3528 93.3407L74.3738 95.0917L74.3218 95.0957Z" fill="#231F20"/>
<path fill-rule="evenodd" clip-rule="evenodd" d="M137.01 95.2524L122.044 99.0004C120.223 99.4514 118.421 99.9734 116.597 100.402L97.2816 104.899C94.4296 105.587 91.5636 106.278 88.7336 106.96C85.0866 107.806 81.4686 108.816 77.6836 109.173C76.4736 109.235 76.6296 108.876 77.5306 108.338C78.4276 107.766 80.0896 106.973 82.1706 106.465C89.5376 104.61 96.9416 102.797 104.449 101.137C108.942 100.148 113.544 98.8254 118.099 97.6514L133.136 93.8104C136.217 93.0084 139.301 92.2084 142.36 91.3574L144.207 90.8324L144.733 90.6774C144.794 90.6394 144.948 90.6514 144.921 90.5464L144.926 90.2904C144.933 86.8354 144.94 83.3874 144.947 79.9684C144.932 76.2424 144.8 72.5854 144.829 68.8864C144.835 68.0714 144.83 67.2714 144.855 66.4494C145.007 63.3984 145.324 62.4174 146.02 61.8414C146.18 61.7104 146.344 61.5334 146.496 61.4664C147.021 61.2514 147.249 62.4934 147.267 64.6814C147.361 71.2004 147.383 78.1144 147.376 85.0654C147.371 87.0924 147.365 89.1234 147.361 91.1614L147.191 91.6664L147.106 91.9184L147.063 92.0434L147.042 92.1064C147.225 92.2374 146.792 91.9324 146.836 91.9644L146.834 91.9684L146.829 91.9744L146.821 91.9874L146.803 92.0134L146.529 92.4264C146.456 92.5844 146.233 92.6474 146.092 92.7614C145.756 92.9324 145.291 93.0404 144.956 93.1494L144.342 93.3274L141.902 94.0034L137.032 95.3084L137.01 95.2524Z" fill="#231F20"/>
<path fill-rule="evenodd" clip-rule="evenodd" d="M117.093 66.8048L105.819 69.2468L101.724 70.2128L87.2445 73.4298C85.1055 73.9138 82.9645 74.4418 80.8575 74.9838C78.1375 75.6268 75.4275 76.3728 72.6715 76.8308C71.8185 76.9928 71.8925 76.8728 72.5485 76.4858C72.8755 76.2898 73.3515 76.0228 73.9265 75.7268C74.4985 75.4148 75.1875 75.0998 75.9605 74.8688L80.0615 73.5948C81.4335 73.1898 82.8185 72.8318 84.2015 72.4668C86.9685 71.7288 89.7595 71.0678 92.5825 70.4858C95.9555 69.7788 99.4135 68.8238 102.839 68.0008L114.161 65.3548C116.486 64.8208 118.812 64.2868 121.135 63.7528C124.653 62.9398 128.198 62.1628 131.682 61.3118C134.392 60.6588 137.02 59.8938 139.694 59.2058C140.282 59.0528 140.854 58.8828 141.449 58.7398C142.562 58.5018 143.311 58.4188 143.858 58.4648C144.401 58.4948 144.733 58.6078 145.021 58.8008C145.152 58.8888 145.317 58.9648 145.401 59.0548C145.681 59.3438 144.846 59.8768 143.289 60.5058C138.592 62.0048 133.549 63.1898 128.468 64.3368C124.691 65.1738 120.897 66.0148 117.11 66.8548L117.093 66.8048Z" fill="#231F20"/>
<path fill-rule="evenodd" clip-rule="evenodd" d="M46.2761 64.4789C48.3011 65.5039 50.3371 66.5169 52.3881 67.4989L54.6541 68.5259C57.2971 69.7899 59.9411 71.0549 62.5821 72.3179C63.7551 72.8769 64.9501 73.4129 66.1301 73.9369C67.6421 74.6279 69.1961 75.2409 70.5761 76.2769C71.0081 76.5909 70.8051 76.7459 70.2931 76.7559C70.0361 76.7609 69.7041 76.7319 69.3351 76.6649C68.9501 76.5999 68.5051 76.5239 68.0851 76.3199C65.0371 74.9569 61.8771 73.7289 58.8411 72.1689C57.0171 71.2529 55.0351 70.4859 53.1301 69.6279C51.0371 68.6859 48.9521 67.7169 46.8771 66.7259L43.0551 64.8769C41.1291 63.9359 39.2221 62.9309 37.3221 61.9609C35.8531 61.1899 34.3531 60.5429 32.9021 59.7289C32.5811 59.5539 32.2551 59.4009 31.9451 59.2029C30.8111 58.4099 30.5511 58.0139 30.5961 57.4759C30.6071 57.3529 30.5991 57.2209 30.6301 57.1179C30.7291 56.7819 31.3791 56.8259 32.2411 57.2489C34.8181 58.4859 37.4511 59.9559 40.1841 61.3379C42.2081 62.3699 44.2361 63.4309 46.2931 64.4369L46.2761 64.4789Z" fill="#231F20"/>
<path fill-rule="evenodd" clip-rule="evenodd" d="M132.598 49.3865C132.598 50.4175 132.599 51.4505 132.624 52.4855C132.633 52.8625 132.705 53.2335 132.708 53.6115C132.713 54.9455 132.728 56.2815 132.709 57.6205C132.71 58.2145 132.762 58.8065 132.822 59.3915C132.907 60.1415 132.95 60.9025 132.792 61.6685C132.74 61.9075 132.43 61.8925 132.081 61.7155C131.738 61.5365 131.318 61.2015 131.206 60.7815C130.986 60.0355 130.906 59.2815 130.844 58.5195C130.786 57.7575 130.736 56.9925 130.801 56.2105C130.869 55.2765 130.676 54.3275 130.616 53.3825L130.464 50.2535L130.394 48.3235C130.357 47.3485 130.361 46.3655 130.278 45.4005C130.223 44.6485 130.029 43.9175 129.941 43.1685C129.932 43.0035 129.902 42.8435 129.91 42.6755C129.916 42.5205 129.93 42.3915 129.955 42.2835C129.991 42.1755 130.067 42.0885 130.127 42.0165C130.257 41.8725 130.407 41.7905 130.603 41.7235C130.692 41.6945 130.776 41.6545 130.856 41.6375C131.107 41.5785 131.401 41.8275 131.71 42.2615C131.832 42.5855 131.956 42.9105 132.068 43.2405C132.142 43.5715 132.195 43.9035 132.249 44.2405C132.349 44.9135 132.413 45.5985 132.469 46.2875C132.547 47.3115 132.611 48.3445 132.653 49.3805L132.598 49.3865Z" fill="#231F20"/>
<path fill-rule="evenodd" clip-rule="evenodd" d="M99.2557 47.0916C95.2587 47.7856 91.2607 48.4756 87.2797 49.2236L82.9427 50.1166C80.3987 50.6286 77.8347 51.1186 75.3577 51.7646L74.4267 52.0036L73.6377 52.2586L73.4457 52.3176L73.3487 52.3456C73.3407 52.3746 73.3377 52.4086 73.3327 52.4396L73.3137 52.6356L73.2887 52.9906L73.0867 56.8896C72.9817 59.2006 72.9177 61.5276 72.8787 63.8226C72.8307 66.7716 72.8527 69.7376 72.6097 72.6746C72.4807 74.5086 70.9177 72.1666 70.8917 68.7526C70.8897 65.7346 70.9197 62.7206 70.9997 59.7006C71.0337 58.1906 71.1077 56.6796 71.1917 55.1656L71.3337 52.8866L71.3557 52.5606C71.3447 52.3796 71.4317 52.2486 71.4687 52.0936C71.5727 51.8076 71.6397 51.4636 71.7857 51.2586L71.8097 51.2146L71.8157 51.2036L71.8187 51.1976C71.8457 51.2156 71.5967 51.0256 71.7047 51.1036L71.7257 51.0866L71.8117 51.0176L71.9827 50.8816C72.0937 50.7886 72.2007 50.6926 72.3787 50.6536L73.2137 50.3736C75.0537 49.8276 76.8507 49.4156 78.6807 48.9646C80.5057 48.5386 82.3377 48.0986 84.1627 47.7306C88.1757 46.9016 92.1987 46.1536 96.2197 45.4036C98.6937 44.9466 101.171 44.4906 103.644 44.0346C107.387 43.3356 111.156 42.6686 114.851 41.8786C117.724 41.2656 120.509 40.5306 123.315 39.8186C123.929 39.6536 124.531 39.4906 125.15 39.3236C127.462 38.7606 128.185 38.6496 128.84 39.0446C128.987 39.1316 129.171 39.2066 129.272 39.3056C129.616 39.6376 128.77 40.2376 127.084 40.8386C122.097 42.5146 116.735 43.7206 111.338 44.8156C107.329 45.6316 103.297 46.3926 99.2717 47.1456L99.2557 47.0916Z" fill="#231F20"/>
<path fill-rule="evenodd" clip-rule="evenodd" d="M80.6406 32.0244L90.9176 30.3344C92.1696 30.1294 93.4106 29.8654 94.6646 29.6794C96.8786 29.3514 99.0976 29.0444 101.338 28.8024C102.464 28.6954 103.583 28.5904 104.742 28.5654L105.623 28.5664L106.178 28.6044C106.399 28.6204 106.595 28.6714 106.804 28.7134C107.33 28.6654 107.348 29.2174 107.513 29.5884C107.576 29.7774 107.676 30.0044 107.708 30.1604L107.808 30.5894C108.262 32.6214 108.351 34.6614 108.343 36.6414C108.342 39.1884 108.222 41.7004 108.208 44.1824C108.206 44.9544 107.913 44.8904 107.553 44.2464C107.19 43.6044 106.778 42.3554 106.719 40.8844C106.632 38.2834 106.612 35.7254 106.382 33.2924C106.318 32.6844 106.226 32.0894 106.109 31.5064C106.051 31.2174 105.968 30.9314 105.904 30.6534C105.892 30.5844 105.902 30.5694 105.889 30.5214C105.873 30.5134 105.857 30.5014 105.838 30.4964C105.826 30.4944 105.82 30.4914 105.815 30.4864L105.807 30.4804L105.71 30.4724C105.425 30.4674 105.126 30.4644 104.823 30.4724C104.208 30.4914 103.578 30.5334 102.945 30.5784C99.8976 30.8124 96.7286 31.4684 93.6126 32.0134L83.3086 33.8574L76.9636 35.0134C73.7606 35.6004 70.5336 36.1504 67.3566 36.7634C64.8846 37.2324 62.4866 37.8434 60.0286 38.2934C59.4886 38.3964 58.9616 38.5124 58.4116 38.5934C57.3936 38.7514 56.7096 38.7954 56.2226 38.7414C55.7306 38.6624 55.4366 38.5044 55.1876 38.2504C55.0746 38.1344 54.9306 38.0244 54.8606 37.9094C54.6296 37.5384 55.4056 37.0344 56.8496 36.6804C61.1346 35.6194 65.7046 34.7304 70.3126 33.8614C73.7356 33.2204 77.1776 32.5744 80.6246 31.9684L80.6406 32.0244Z" fill="#231F20"/>
<path fill-rule="evenodd" clip-rule="evenodd" d="M53.7256 51.5836L53.6236 54.9116C53.6156 55.3176 53.6596 55.7206 53.6456 56.1256C53.5876 57.5566 53.5286 58.9946 53.4706 60.4226C53.4486 61.0576 53.4606 61.6986 53.4826 62.3316C53.4976 63.1486 53.6026 63.9646 53.3456 64.8126C53.2686 65.0756 52.9066 64.9776 52.5596 64.7296C52.2166 64.4796 51.8796 64.1126 51.8666 63.6596C51.8386 62.0676 51.7996 60.4196 51.9566 58.7606C52.0616 57.7656 51.9466 56.7346 51.9426 55.7176L51.9606 52.3576L51.9806 50.2876C51.9866 49.2416 52.0346 48.1906 52.0126 47.1506C52.0056 46.3416 51.8686 45.5476 51.8766 44.7366C51.8746 44.5586 51.8576 44.3836 51.8656 44.2036C51.9136 43.5306 52.0506 43.3236 52.4656 43.2226C52.5596 43.1986 52.6546 43.1656 52.7466 43.1566C53.0596 43.1256 53.3016 43.4146 53.3876 43.8836C53.5046 44.5826 53.6516 45.2986 53.6916 46.0276C53.7336 46.7536 53.7616 47.4986 53.7706 48.2416C53.8036 49.3486 53.7796 50.4646 53.7696 51.5816L53.7256 51.5836Z" fill="#231F20"/>
<path fill-rule="evenodd" clip-rule="evenodd" d="M45.5812 43.4908L45.4572 47.9648C45.4472 48.5088 45.4942 49.0518 45.4782 49.5958C45.4082 51.5158 45.3382 53.4408 45.2682 55.3588C45.2422 56.2108 45.2572 57.0698 45.2852 57.9168C45.3072 59.0128 45.4332 60.0908 45.1482 61.2368C45.0602 61.5938 44.6532 61.4708 44.2642 61.1498C43.8832 60.8358 43.4922 60.3408 43.4762 59.7238C43.4312 57.5568 43.3872 55.3388 43.5692 53.1088C43.6892 51.7718 43.5642 50.3858 43.5632 49.0188L43.5932 44.5088L43.6182 41.7308C43.6232 40.3288 43.6742 38.9198 43.6452 37.5258C43.6252 36.4418 43.4762 35.3788 43.4692 34.2958C43.4662 34.0568 43.4472 33.8228 43.4552 33.5818C43.4932 32.6848 43.6652 32.3908 44.1282 32.2468C44.2352 32.2138 44.3422 32.1668 44.4462 32.1528C44.7972 32.1058 45.0682 32.4868 45.1612 33.1088C45.2992 34.0458 45.4752 35.0128 45.5232 35.9978C45.5812 36.9808 45.6092 37.9828 45.6292 38.9888C45.6672 40.4808 45.6432 41.9848 45.6312 43.4878L45.5812 43.4908Z" fill="#231F20"/>
<path fill-rule="evenodd" clip-rule="evenodd" d="M72.8533 25.6991L66.0603 26.8331L63.5953 27.3201C60.6843 27.8231 57.7703 28.3271 54.8613 28.8301C53.5713 29.0621 52.2833 29.3441 51.0143 29.6281C49.3833 29.9951 47.7593 30.4251 46.0903 30.6081C45.0523 30.7291 46.0673 29.1501 47.9363 28.6851C51.2553 27.8921 54.5883 27.1701 57.9943 26.6401C60.0333 26.3361 62.1123 25.8111 64.1793 25.4051L71.0113 24.1261L75.2233 23.3721C77.3473 22.9851 79.4913 22.6441 81.5943 22.2281C83.2313 21.9121 84.8153 21.4841 86.4273 21.1201C86.7823 21.0391 87.1253 20.9411 87.4863 20.8731C88.8213 20.6211 89.2703 20.6901 89.6433 21.1941C89.7283 21.3081 89.8333 21.4191 89.8913 21.5391C90.0853 21.9441 89.5953 22.3821 88.6383 22.6581C85.8013 23.4881 82.7613 24.0241 79.7043 24.5691C77.4303 24.9601 75.1453 25.3531 72.8653 25.7451L72.8533 25.6991Z" fill="#231F20"/>
<path fill-rule="evenodd" clip-rule="evenodd" d="M78.4388 18.3681C79.3048 18.2341 80.1718 18.0991 81.0348 17.9661C81.3488 17.9181 81.6528 17.8291 81.9678 17.7891C83.0748 17.6611 84.1908 17.5331 85.2958 17.4051C85.7868 17.3471 86.2728 17.2481 86.7598 17.1771C87.3848 17.0771 88.0008 16.9371 88.6808 17.0311C88.9038 17.0671 88.8548 17.3101 88.7088 17.5671C88.5618 17.8231 88.3148 18.1221 87.9738 18.2101C86.7658 18.5351 85.5178 18.7581 84.2308 18.8401C83.4598 18.8931 82.6948 19.1321 81.9278 19.2881C81.0858 19.4601 80.2418 19.6331 79.3988 19.8051C78.8828 19.9181 78.3688 20.0351 77.8688 20.1771L77.1628 20.3861C77.0808 20.4141 76.9948 20.4421 76.9218 20.4931C76.8378 20.5451 76.8818 20.6521 76.8648 20.7341L76.8608 20.8951L76.8638 21.1711C76.8758 21.7971 76.9988 22.4121 77.1018 23.0091C77.1258 23.1391 77.1698 23.2671 77.1698 23.3931C77.1708 23.6311 77.1618 23.7671 77.0508 23.8751C76.9038 23.9751 76.7368 24.0551 76.5328 24.1371C76.4388 24.1771 76.3558 24.2301 76.2748 24.2681C76.1368 24.3321 75.9998 24.3351 75.8118 24.2361C75.6338 24.1451 75.3828 23.9851 75.3368 23.7731C75.0968 23.2151 75.0668 22.6791 75.0438 22.1421C75.0368 21.8741 75.0418 21.6071 75.0518 21.3431L75.0728 20.9491L75.0878 20.6551C75.0938 20.5221 75.1028 20.3901 75.1198 20.2621C75.1288 20.0701 75.1838 19.9081 75.2418 19.7481C75.4518 19.6461 75.3788 19.3731 75.5848 19.2811C75.7248 19.1451 75.9198 19.0471 76.1058 18.9531C76.3088 18.8791 76.5078 18.7911 76.7158 18.7341L77.0988 18.6271C77.5518 18.5111 77.9908 18.4191 78.4278 18.3291L78.4388 18.3681Z" fill="#231F20"/>
<path fill-rule="evenodd" clip-rule="evenodd" d="M70.2233 31.283C69.3713 31.348 68.4963 31.454 67.6273 31.58C67.3093 31.627 67.0013 31.719 66.6833 31.764C65.5603 31.924 64.4313 32.082 63.3123 32.279C62.8153 32.366 62.3263 32.499 61.8373 32.609C61.2113 32.761 60.5953 32.951 59.9233 32.954C59.7083 32.953 59.6983 32.709 59.8103 32.429C59.9233 32.152 60.1583 31.816 60.5063 31.693C61.7363 31.238 63.0153 30.932 64.3433 30.786C65.1373 30.696 65.9223 30.431 66.7183 30.263C67.5943 30.081 68.4753 29.919 69.3693 29.778L70.2003 29.659C70.4183 29.635 70.9403 29.553 71.3003 29.564C71.5623 29.564 71.8023 29.6 71.9833 29.738C72.2033 29.854 72.2073 30.118 72.2913 30.353C72.4213 31.103 72.4883 31.452 72.5933 31.926C72.7363 32.554 72.9853 33.152 73.1853 33.778C73.2293 33.916 73.2933 34.05 73.3083 34.196C73.3413 34.467 73.3393 34.658 73.2313 34.803C73.0813 34.955 72.9133 35.042 72.6913 35.108C72.5913 35.136 72.4973 35.165 72.4113 35.172C72.2633 35.184 72.1293 35.127 71.9663 35.068C71.8063 35.001 71.5673 34.895 71.5143 34.728C70.9873 33.731 70.8693 32.546 70.6993 31.374C70.6783 31.285 70.7053 31.344 70.6893 31.33C70.7073 31.319 70.7073 31.308 70.7033 31.297C70.7013 31.291 70.6953 31.287 70.6883 31.281L70.2313 31.323L70.2233 31.283Z" fill="#231F20"/>
<path fill-rule="evenodd" clip-rule="evenodd" d="M117.598 90.5624C115.645 90.9994 113.689 91.3884 111.733 91.7664C111.019 91.9034 110.319 92.1014 109.602 92.2234C108.339 92.4394 107.071 92.6354 105.797 92.8104C105.16 92.8964 104.522 92.9834 103.877 93.0504L102.902 93.1324L102.404 93.1624C102.262 93.1594 101.943 93.1914 101.729 93.1754C101.517 93.1714 101.316 93.1444 101.126 93.0834C101.079 93.0694 101.027 93.0544 100.984 93.0324L100.887 92.9164L100.693 92.6844C100.456 92.3694 100.258 91.9344 100.154 91.5724C99.9633 90.9414 99.9003 90.3184 99.8773 89.7224C99.8553 88.9574 99.8693 88.2154 99.9393 87.4994C100.015 86.7844 100.128 86.0944 100.191 85.4194C100.231 85.0054 100.539 84.9944 100.917 85.3584C101.29 85.7174 101.715 86.4974 101.762 87.3484C101.82 88.1004 101.748 88.8124 101.794 89.4694C101.813 89.7944 101.834 90.1144 101.888 90.3964C101.907 90.5454 101.944 90.6754 101.976 90.8064C101.989 90.8744 102.011 90.9334 102.034 90.9904C102.062 91.0534 102.027 91.0174 102.038 91.0334C102.036 91.0474 102.025 91.0924 102.047 91.1124C102.057 91.1224 102.07 91.1314 102.087 91.1404C102.066 91.1494 102.162 91.1414 102.25 91.1344L102.505 91.1114C103.197 91.0424 103.921 90.9594 104.652 90.9104C106.402 90.7684 108.18 90.2914 109.944 89.9364C111.886 89.5424 113.829 89.1394 115.76 88.6914C116.949 88.4154 118.136 88.1334 119.307 87.8074C121.07 87.3044 122.885 86.8134 124.466 86.0474C124.616 85.9724 124.763 85.8934 124.897 85.8094C125.011 85.7404 125.068 85.6934 125.145 85.6274C125.214 85.5634 125.281 85.4984 125.318 85.4144C125.358 85.3284 125.325 85.2264 125.32 85.1384L125.301 85.0074L125.282 84.7614L125.233 84.2504L125.105 83.2424C125.061 82.9504 124.992 82.6684 124.944 82.3874C124.793 81.3334 124.936 81.1104 125.41 80.6564C125.512 80.5464 125.616 80.4354 125.715 80.3284C126.033 79.9484 126.773 80.3624 127.167 81.3134C127.465 82.0014 127.556 82.6984 127.658 83.3874C127.702 83.7334 127.731 84.0794 127.752 84.4284L127.773 84.9514L127.776 85.0944C127.767 85.1724 127.77 85.2524 127.767 85.3324C127.758 85.4894 127.771 85.6554 127.744 85.8074C127.696 86.4274 127.355 87.0004 126.836 87.3824C126.596 87.5754 126.281 87.7774 126.044 87.9034C125.863 88.0054 125.691 88.0904 125.517 88.1754C124.832 88.4994 124.171 88.7474 123.508 88.9774C121.545 89.6524 119.574 90.1164 117.616 90.6164L117.598 90.5624Z" fill="#231F20"/>
<path fill-rule="evenodd" clip-rule="evenodd" d="M29.6293 79.4241C29.6293 79.4241 24.5253 77.9241 21.4113 80.3601C18.6473 82.5231 29.8883 93.7581 52.9073 97.7031L30.1183 83.8731L29.6293 79.4241Z" fill="#231F20"/>
<path fill-rule="evenodd" clip-rule="evenodd" d="M114.343 65.7779L104.273 68.0659L100.616 68.9669L87.6869 71.9939C85.7759 72.4449 83.8649 72.9439 81.9829 73.4459C79.5549 74.0519 77.1359 74.7409 74.6719 75.1859C73.9099 75.3399 73.9789 75.2339 74.5649 74.8909C74.8589 74.7149 75.2819 74.4799 75.7959 74.2139C76.3069 73.9329 76.9219 73.6529 77.6119 73.4389C80.0459 72.6299 82.4909 71.8738 84.9689 71.2208C87.4399 70.5378 89.9309 69.9139 92.4519 69.3659C95.4649 68.6959 98.5519 67.8139 101.614 67.0489L111.726 64.5809L117.956 63.0909C121.099 62.3319 124.267 61.6099 127.38 60.8249C129.8 60.2149 132.152 59.5269 134.536 58.8839C135.061 58.7409 135.572 58.5869 136.105 58.4579C137.096 58.2319 137.763 58.1449 138.251 58.1739C138.737 58.1879 139.033 58.2779 139.292 58.4379C139.41 58.5109 139.558 58.5729 139.634 58.6479C139.886 58.8899 139.144 59.3649 137.753 59.9379C133.552 61.3089 129.045 62.4079 124.506 63.4739C121.131 64.2549 117.741 65.0379 114.358 65.8199L114.343 65.7779Z" fill="#231F20"/>
<path fill-rule="evenodd" clip-rule="evenodd" d="M91.9013 36.7235C92.4413 36.6565 92.9833 36.5895 93.5203 36.5235C93.7163 36.4965 93.9073 36.4415 94.1043 36.4185C94.7973 36.3405 95.5023 36.2615 96.1893 36.1835C96.4973 36.1505 96.8023 36.0895 97.1023 36.0255C97.4873 35.9415 97.8673 35.8245 98.2723 35.8445C98.5243 35.8515 98.3613 36.6405 97.9253 36.7755C97.1473 36.9835 96.3663 37.1785 95.5433 37.1945C95.0523 37.2125 94.5673 37.3585 94.0773 37.4405C93.5413 37.5245 92.9993 37.6105 92.4603 37.6955C92.1273 37.7485 91.7923 37.8025 91.4623 37.8545C90.9023 37.9465 90.4333 37.9315 89.9263 38.0295C89.5413 38.0945 89.1723 38.2235 88.7963 38.3275C88.7133 38.3505 88.6333 38.3835 88.5493 38.4005C88.2373 38.4655 88.1263 38.4085 88.0153 38.1295C87.9903 38.0665 87.9603 38.0045 87.9413 37.9395C87.8773 37.7225 87.9783 37.5185 88.2013 37.4195C88.8603 37.1225 89.5813 36.9885 90.3223 36.8915C90.5873 36.8515 90.9173 36.8395 91.1023 36.8185L91.8953 36.6975L91.9013 36.7235Z" fill="#231F20"/>
<path fill-rule="evenodd" clip-rule="evenodd" d="M88.4959 42.6384C89.4619 42.4894 90.4289 42.3404 91.3919 42.1924C91.7449 42.1244 92.0889 42.0584 92.4419 41.9914C93.6809 41.7894 94.9279 41.5864 96.1629 41.3854C96.7139 41.2944 97.2609 41.1734 97.7999 41.0494C98.4919 40.8884 99.1799 40.6934 99.8939 40.6334C100.338 40.5904 99.9529 41.4384 99.1629 41.6644C97.7559 42.0334 96.3439 42.3834 94.8799 42.5454C94.0059 42.6524 93.1229 42.8854 92.2409 43.0494L89.3259 43.5594L87.5309 43.8644C86.6259 44.0224 85.7119 44.1604 84.8179 44.3384C84.1229 44.4784 83.4529 44.6754 82.7709 44.8464C82.6219 44.8844 82.4709 44.9234 82.3229 44.9614C81.7579 45.0794 81.5639 45.0394 81.3919 44.7744C81.3529 44.7134 81.3059 44.6554 81.2779 44.5924C81.1849 44.3804 81.3849 44.1564 81.7879 44.0174C82.9859 43.6104 84.2759 43.3464 85.5769 43.1044C86.5449 42.9414 87.5179 42.7764 88.4899 42.6124L88.4959 42.6384Z" fill="#231F20"/>
</svg>
