<svg width="148" height="148" viewBox="0 0 148 148" fill="none" xmlns="http://www.w3.org/2000/svg">
<path fill-rule="evenodd" clip-rule="evenodd" d="M75.4276 102.924C75.0606 102.817 74.6906 102.708 74.3286 102.602C74.1986 102.565 74.0616 102.605 73.9346 102.556C73.4816 102.39 73.0466 102.169 72.6096 102.002C72.4156 101.928 72.2116 101.927 72.0076 101.943C71.7446 101.963 71.4586 102.115 71.2446 101.79C71.1156 101.587 71.7516 99.0818 72.0096 99.0948C72.4946 99.1238 72.9586 99.2988 73.4076 99.7198C73.6786 99.9718 73.9976 99.8858 74.2926 99.9658C74.6136 100.056 74.9416 100.149 75.2666 100.239C75.4686 100.295 75.6636 100.34 75.8656 100.372C76.1636 100.41 76.4706 100.48 76.7456 100.409C76.9436 100.352 77.1466 100.136 77.2066 99.9788C77.2256 99.9448 77.2326 99.8908 77.2536 99.8738C77.2466 99.8128 77.3076 99.9988 77.7686 100.552L78.0856 100.926C78.4516 101.34 78.6356 101.772 78.4306 102.074C77.8636 102.88 77.1886 103.007 76.6306 103.064C76.2126 103.092 75.8096 103.033 75.4276 102.99V102.924Z" fill="#231F20"/>
<path fill-rule="evenodd" clip-rule="evenodd" d="M43.644 55.1313C44.876 60.2313 46.358 65.2703 48.204 70.1593C49.119 72.6073 50.165 74.9973 51.279 77.3493C52.436 79.6763 53.682 81.9563 55.092 84.1213C57.147 87.2803 59.619 90.1393 62.446 92.5013C64.933 94.5873 67.787 96.2103 70.881 97.0763C73.958 97.9603 77.207 98.0223 80.208 96.9473C83.203 95.8663 85.815 93.7693 88.012 91.3213C90.219 88.8603 92.016 86.0053 93.572 83.0323C96.341 77.7423 98.258 71.9703 99.783 66.2183C101.678 58.8113 102.876 51.1313 103.508 43.6123C103.633 42.4523 103.654 42.0133 103.818 41.9883C103.966 41.9753 104.272 42.5063 104.586 43.5503C104.882 44.5793 105.171 46.0773 105.214 47.8663C105.26 49.6523 105.153 51.7393 104.821 53.9673C103.591 61.8513 101.689 69.6303 98.788 77.1273C97.326 80.8663 95.598 84.5363 93.389 87.9703C91.166 91.3693 88.547 94.6763 85.024 97.0523C82.949 98.4963 80.486 99.4993 77.92 99.9353C76.636 100.208 75.322 100.16 74.018 100.151C72.728 99.9863 71.423 99.8483 70.199 99.4583C68.935 99.1853 67.762 98.6363 66.561 98.1763C65.425 97.5803 64.254 97.0353 63.212 96.2913C62.11 95.6303 61.152 94.7903 60.151 94.0073C59.237 93.1353 58.265 92.3143 57.45 91.3603C55.556 89.3483 53.944 87.1163 52.484 84.8143C51.004 82.5193 49.745 80.1063 48.577 77.6613C46.257 72.7603 44.447 67.6623 42.918 62.5023C41.047 56.1423 39.654 49.6623 38.574 43.1483L38.333 41.6633L38.243 41.0883C38.21 40.9693 38.23 40.8053 38.144 40.7253L37.736 40.5533L36.991 40.2343C36.484 40.0203 35.975 39.8183 35.464 39.6293C34.439 39.2643 33.407 38.9253 32.361 38.7163C31.322 38.5203 30.262 38.3663 29.253 38.4723C28.247 38.5523 27.262 38.7993 26.492 39.3703C24.854 40.3863 24.116 42.5463 23.772 44.5803C23.455 46.6643 23.624 48.8403 24.058 50.9523C24.84 54.6073 26.277 58.1023 28.072 61.3643C29.854 64.6363 31.995 67.7073 34.413 70.5193C35.491 71.7443 36.597 72.8973 37.805 73.9843C40.043 76.0033 41.701 77.0063 42.852 77.6063C44.018 78.1893 44.677 78.4233 45.32 78.7363C45.609 78.8743 46.021 78.9063 46.249 79.0223C46.439 79.1123 46.442 79.2363 46.225 79.4033C46.01 79.5623 45.569 79.8193 44.906 79.8813C43.578 80.0873 41.498 79.6073 39.443 78.3013C36.354 76.3973 33.833 73.8383 31.517 71.1073C29.236 68.3433 27.208 65.3363 25.493 62.1083C23.792 58.8773 22.352 55.4323 21.553 51.7083C21.168 49.8443 20.935 47.9113 21.016 45.9183C21.104 43.9293 21.505 41.8683 22.541 39.9503C23.302 38.4383 24.757 37.0963 26.399 36.4443C28.05 35.7743 29.748 35.7073 31.287 35.8553C32.827 36.0313 34.271 36.4053 35.648 36.8803C36.339 37.1123 37.009 37.3813 37.663 37.6563L38.629 38.0743L40.381 38.7923C40.545 39.3843 40.727 39.9853 40.831 40.6253L41.005 41.7043L41.325 43.6323C41.548 44.9153 41.776 46.1973 42.028 47.4753C42.526 50.0313 43.084 52.5763 43.705 55.1033L43.644 55.1313Z" fill="#221F1F"/>
<path fill-rule="evenodd" clip-rule="evenodd" d="M116.279 63.9987C117.946 61.2407 119.353 58.3157 120.362 55.2857C120.714 54.1747 120.957 53.0397 121.191 51.9177C121.612 49.9387 121.796 47.9227 121.577 45.9717C121.484 44.9887 121.201 44.0587 120.85 43.1547C120.621 42.7577 120.428 42.3217 120.143 41.9687C119.832 41.6447 119.559 41.2677 119.159 41.0457C118.53 40.5367 117.697 40.3317 116.876 40.1697C116.023 40.0947 115.149 40.0967 114.274 40.2517C113.151 40.4137 112.04 40.7737 110.94 41.1577C110.388 41.3437 109.84 41.5567 109.284 41.7567C108.726 41.9607 108.186 42.1837 107.539 42.2537C106.627 42.2627 106.763 42.0197 107.11 41.2657C107.434 40.4507 108.307 39.4347 109.697 38.9287C110.918 38.4777 112.201 38.1177 113.546 37.8987C114.881 37.6707 116.329 37.6367 117.791 37.9617C118.522 38.0897 119.245 38.4207 119.93 38.7697C120.256 38.9877 120.578 39.2137 120.893 39.4437C121.2 39.6827 121.438 39.9957 121.705 40.2747C121.831 40.4197 121.969 40.5587 122.08 40.7117L122.368 41.1937C122.556 41.5137 122.766 41.8327 122.921 42.1577C123.172 42.8127 123.464 43.4597 123.591 44.1397C123.987 45.7437 124.166 47.3927 124.099 49.0157C124.054 50.6397 123.849 52.2507 123.465 53.7887C122.644 57.1827 121.239 60.3427 119.639 63.3547C118.651 65.2097 117.525 66.9827 116.345 68.7107C114.577 71.3457 112.512 73.7827 110.32 76.0607C108.6 77.8147 106.832 79.5137 104.599 80.8107C104.074 81.0537 103.608 81.3687 103.016 81.5357C102.497 81.7307 102.019 81.8107 101.612 81.8437C101.218 81.9067 100.863 81.8357 100.592 81.7757C100.046 81.6747 99.7624 81.3327 99.6224 80.9747C99.5574 80.8047 99.4744 80.6307 99.4704 80.4747C99.4634 80.2117 99.6944 80.0197 100.009 79.8897C100.321 79.7817 100.749 79.6597 101.297 79.5027C102.113 79.2887 102.95 78.8217 103.76 78.2907C104.58 77.7777 105.365 77.1107 106.147 76.4457C107.696 75.0787 109.187 73.5247 110.59 71.8807C111.634 70.6567 112.603 69.3617 113.59 68.0717C114.512 66.7367 115.423 65.3857 116.22 63.9697L116.279 63.9987Z" fill="#221F1F"/>
<path fill-rule="evenodd" clip-rule="evenodd" d="M77.8097 101.095L77.8487 100.958C77.8487 100.925 77.9077 100.787 77.8487 100.841C77.8207 100.849 77.7877 100.858 77.7477 100.86L77.6857 100.865C77.6407 100.868 77.7167 100.854 77.4847 100.888C76.8257 100.976 76.1947 101.003 75.5687 101.014C74.3217 101.028 73.1057 100.956 71.8957 100.849L71.3877 100.802L71.4107 101.2L71.5617 102.593L71.7667 104.106C71.9207 105.116 72.0717 106.127 72.2497 107.138C72.5917 109.161 72.9777 111.183 73.3847 113.202C73.7457 114.994 74.1827 116.783 74.6217 118.546C75.1737 120.828 75.8917 123.029 76.0317 125.503C76.0187 126.431 75.4517 126.139 74.8807 125.639C74.2747 125.122 73.5767 124.169 73.2777 122.864C72.2337 118.256 71.1847 113.58 70.4947 108.793C70.2887 107.36 70.0267 105.908 69.7727 104.44C69.6607 103.699 69.5167 102.97 69.4257 102.218L69.3507 101.657L69.3037 101.299L69.2547 100.845L69.1007 99.018C69.0897 98.831 69.0587 98.621 69.0647 98.454L70.9507 98.684L72.4477 98.823C73.1727 98.877 73.8997 98.925 74.6207 98.935C75.3387 98.945 76.0607 98.944 76.7517 98.874C76.9277 98.864 77.0977 98.842 77.2627 98.815C77.5117 98.771 77.8147 98.752 78.1347 98.574C78.4587 98.418 78.7497 98.308 79.0967 98.119C79.4207 97.941 79.8227 97.739 80.0767 97.584L80.1387 97.721C80.1547 97.776 80.1957 97.778 80.1727 97.918C79.9787 100.295 79.7847 102.674 79.5897 105.049C79.3517 108.052 79.0817 111.068 78.9097 114.053C78.7747 116.374 78.7687 118.658 78.7087 120.957C78.6947 121.464 78.7017 121.96 78.6777 122.47C78.5857 124.36 78.4017 124.951 77.8057 125.318C77.6697 125.401 77.5327 125.514 77.3987 125.559C76.9477 125.71 76.6367 124.916 76.6017 123.526C76.4957 119.401 76.7327 115.074 77.0237 110.734C77.2677 107.528 77.5127 104.307 77.7567 101.094L77.8097 101.095Z" fill="#221F1F"/>
<path fill-rule="evenodd" clip-rule="evenodd" d="M66.9205 132.903C67.8855 133.429 55.2215 132.998 57.1535 131.357C61.0425 128.056 66.8105 129.277 66.9205 128.711C66.9205 128.711 66.2475 131.651 66.9205 132.903" fill="#221F1F"/>
<path fill-rule="evenodd" clip-rule="evenodd" d="M72.4807 52.5802C72.5337 52.0202 73.0417 51.6282 73.8237 51.6162C74.0717 51.6282 74.4137 52.1332 74.4767 52.1882C74.5177 52.4072 74.5357 52.7162 74.5267 53.0072C74.5017 53.1352 73.7697 55.9262 73.4197 56.9872C73.3467 57.2132 73.2647 57.4412 73.1637 57.6772L73.0787 57.8682C73.0297 57.9682 72.9807 58.0632 72.9287 58.1542C72.8237 58.3382 72.7187 58.5232 72.5927 58.6892C72.3497 59.0322 72.0517 59.3162 71.6947 59.5122C71.3317 59.7162 70.9387 59.7392 70.5187 59.7502L69.9747 59.7112C69.5137 59.6882 69.1497 59.6842 68.7307 59.6862L68.1217 59.6992L67.8657 59.7092C67.8597 59.7102 67.8587 59.7122 67.8587 59.7122C67.8497 59.7202 67.8537 59.7282 67.8597 59.7322L67.8647 59.7342C67.8647 59.7342 67.8107 59.7222 67.7417 59.7382C67.6837 59.7522 67.6637 59.7842 67.6677 59.8212C67.6697 59.8392 67.6767 59.8592 67.6887 59.8792L67.7087 59.9092C67.7217 59.9222 67.7007 59.9112 67.7967 59.9832C68.3557 60.4092 68.9587 60.8022 69.5607 61.1402C69.7467 61.2512 69.9627 61.3702 70.1717 61.4752C70.4057 61.5622 70.6517 61.6372 70.8567 61.7492C70.9407 61.7902 71.0937 61.9162 71.2277 62.0912C71.3347 62.2092 71.5047 62.5382 71.5437 62.8932C71.5987 63.2632 71.5137 63.7422 71.3907 64.2452C71.3317 64.4942 71.2517 64.7632 71.1897 64.9862L71.0657 65.4062C70.7247 66.5182 70.3397 67.5852 70.2257 67.8212C70.0867 68.1142 69.9497 68.4022 69.8137 68.6882L69.6337 69.0932C69.6067 69.1522 69.5827 69.2162 69.5727 69.2212C69.5567 69.2152 69.6087 69.2242 69.5357 69.2072L69.2897 69.1582C69.1247 69.1272 68.9587 69.1012 68.7927 69.0802C68.5897 69.0632 68.5767 69.0232 68.4557 69.0172C68.3617 69.0062 68.2537 69.0162 68.1717 69.0282C68.1207 68.9892 68.1227 69.0812 68.1037 68.9742C68.0897 68.9452 68.0647 68.9222 68.0357 68.9072C68.0207 68.9002 68.0047 68.8942 67.9877 68.8912C67.5657 68.5302 68.9247 69.6962 67.0397 68.0822L67.0417 68.0812L67.0437 68.0802L67.0477 68.0752L67.1187 68.0092C67.5137 67.6412 67.7667 67.4972 68.0687 67.2842L68.9297 66.7372C69.0927 66.6392 69.2327 66.4882 69.4357 66.4712C69.9027 66.4312 70.2027 66.1592 70.5427 65.9362C71.0137 65.6272 71.4937 65.3332 71.9977 65.0782C72.2477 64.9522 72.5517 64.9102 72.8397 64.8472C73.1017 64.7882 73.2007 65.1692 73.1527 65.2512C73.0137 65.4902 73.2797 65.5172 73.3867 65.6292C73.4227 65.6672 73.4697 65.7172 73.4837 65.7582C73.5057 65.8432 71.2917 68.2132 71.0327 68.4212C71.0167 68.4342 70.7847 68.6262 70.4387 68.9112C70.1147 69.1862 69.6157 69.6092 69.3227 69.9292L69.2937 69.9662L69.2777 69.9842L69.2737 69.9892L69.2137 69.9402L69.1767 69.9112L69.1587 69.8962C69.0417 69.7992 69.3007 70.0072 69.2587 70.0062C69.0707 70.2292 68.7477 70.4302 68.4427 70.4952C68.3367 70.5112 68.3737 70.5262 68.1077 70.5312C67.8937 70.5302 67.5657 70.4692 67.2697 70.2592C66.6367 69.8582 66.6187 68.9972 66.6377 69.1822C66.6307 69.1012 66.6287 69.0172 66.6317 68.9352C66.6467 68.7182 66.6527 68.7432 66.6597 68.6822L66.7007 68.4712C66.7447 68.2932 66.7877 68.1162 66.8297 67.9432C66.9107 67.6432 66.9887 67.3552 67.0577 67.0982C67.1907 66.6012 67.2927 66.2222 67.3277 66.0902C67.3897 65.8192 67.5317 65.5752 67.6497 65.3252C67.6637 65.2952 67.7337 65.0492 67.8257 64.6992C67.8697 64.5252 67.9207 64.3252 67.9747 64.1112C68.0127 63.9642 67.9947 64.0022 67.9967 63.9742C67.9927 63.9622 67.9877 63.9552 67.9827 63.9482C67.9407 63.8852 67.8517 63.9602 67.8717 63.9512C67.9077 63.9702 67.7897 63.8962 67.7027 63.8422L67.4377 63.6792L66.9177 63.3452C66.5797 63.1142 66.2597 62.8572 65.9927 62.5302C65.9667 62.4982 65.9377 62.4682 65.9077 62.4402C65.8477 62.3932 65.7927 62.3502 65.7367 62.3062L65.3807 62.0442C64.4267 61.3422 63.5107 60.5202 63.1387 59.7632C62.9547 59.3842 62.8827 59.0442 62.8907 58.6922C62.8857 58.5152 62.9427 58.3132 63.0177 58.1012C63.1077 57.9162 63.2157 57.7732 63.3287 57.6462L63.5507 57.4782C64.1117 56.9652 65.2247 56.6612 66.4747 56.5592C66.6957 56.5352 66.9367 56.5612 67.1607 56.5592C67.4117 56.5632 67.6647 56.5662 67.8997 56.5702C68.3127 56.5482 68.7237 56.5482 69.1367 56.5552L69.7567 56.5792L70.0597 56.5962L70.1207 56.6052C70.2097 56.6382 70.3017 56.6042 70.3397 56.5152C70.3667 56.4682 70.3697 56.4572 70.4027 56.3762C70.4757 56.2192 70.5447 56.0502 70.6087 55.8732C70.7307 55.5842 71.6087 54.0682 71.7277 53.6402C71.7917 53.4082 72.4557 52.8102 72.4807 52.5802" fill="#231F20"/>
<path fill-rule="evenodd" clip-rule="evenodd" d="M69.3683 71.0099C69.1323 71.2149 68.2893 71.8849 67.6283 72.1469C66.9473 72.4149 66.2983 72.3219 65.7663 71.8619C65.3303 71.4159 65.2153 70.7309 65.3323 69.9069C65.4693 68.9479 65.5733 68.7029 65.6943 68.2109C65.9403 67.3239 66.2233 66.4709 66.5223 65.6249L66.9843 64.3639C67.1993 63.7939 67.1553 63.9319 67.2163 63.7879C67.1973 63.7349 67.1183 63.7049 67.0653 63.6649L66.3463 63.2619C64.9913 62.4979 63.5743 61.5899 62.5373 60.2319C62.3963 60.0409 62.2573 59.8649 62.1333 59.6479C61.9213 59.3249 61.7733 59.0149 61.6173 58.6919C61.5763 58.4469 61.4863 58.1979 61.4863 57.9619C61.5003 57.7189 61.6353 57.4639 61.8083 57.2959C62.1463 56.9369 62.7063 56.7499 63.2723 56.6349C63.6023 56.5659 63.7123 56.5609 63.9123 56.5339L64.4533 56.4819C64.8113 56.4539 65.1643 56.4379 65.5153 56.4299C66.2193 56.4139 66.9153 56.4259 67.6113 56.4579L68.6573 56.5239L68.9123 56.5459L69.0073 56.5579L69.2023 56.5879L69.3593 56.3079L69.7433 55.5739L70.5253 54.1119C71.0553 53.1389 71.5903 52.1719 72.1793 51.2129C72.3423 50.9459 72.4823 50.7239 72.6973 50.4189C72.9313 50.0719 73.2123 49.7579 73.5743 49.5349C74.2003 49.3099 74.8493 49.6359 75.3253 50.0899C75.5763 50.3519 75.6883 50.4929 75.8423 50.7039C75.9943 50.8979 76.1113 51.0929 76.2463 51.2879C76.7443 52.0699 77.1723 52.8539 77.6053 53.6249L78.6383 55.4279L79.1703 56.3119L79.2663 56.4679L79.3253 56.5559C79.3643 56.6119 79.3993 56.6779 79.4413 56.7239L79.6763 56.6499L80.1383 56.5309C80.5473 56.4309 80.9613 56.3449 81.3823 56.2789C82.2243 56.1519 83.0873 56.0609 84.0403 56.2509C84.6163 56.3919 84.8233 56.7109 84.7043 56.8219C84.5913 56.9649 84.2693 57.0179 83.8933 57.1679C83.1283 57.4569 81.8933 58.0049 80.2893 58.4289C79.8133 58.5479 79.1523 58.7609 78.5893 58.9349L77.4933 57.1349L76.8903 56.0819L75.7503 53.9819C75.3783 53.2939 75.0073 52.6059 74.6203 52.0099C74.5253 51.8529 74.4273 51.7259 74.3303 51.5939C74.2823 51.5209 74.2353 51.4739 74.1903 51.4219C74.1813 51.4079 74.1853 51.4089 74.1813 51.4049C74.1743 51.3889 74.1563 51.3689 74.1333 51.3709C74.1193 51.3709 74.1113 51.3709 74.0193 51.4959C73.8453 51.7539 73.6713 52.0209 73.5003 52.3009C73.1583 52.8579 72.8203 53.4319 72.4893 54.0139L71.5023 55.7709L71.0143 56.6569L70.7473 57.1499L70.3353 57.9449C70.2733 58.0629 70.2113 58.1819 70.1463 58.3049L69.2643 58.1869L68.5693 58.1139C68.2453 58.0839 67.9173 58.0609 67.5883 58.0449C66.9303 58.0139 66.2663 58.0069 65.6063 58.0279C65.2773 58.0379 64.9493 58.0569 64.6253 58.0859L64.1463 58.1379L63.7613 58.1969C63.6543 58.2189 63.5433 58.2419 63.4503 58.3009C63.3203 58.3609 63.3963 58.4989 63.4473 58.5849C63.4643 58.6209 63.4833 58.6559 63.5053 58.6899L63.5973 58.8349C63.7183 59.0199 63.8623 59.1909 63.9943 59.3689C64.2903 59.7049 64.5993 60.0329 64.9523 60.3259C65.4973 60.7949 66.1073 61.2069 66.7533 61.5889L67.7533 62.1539C67.9523 62.2559 68.2813 62.4559 68.5263 62.6119C68.7613 62.7879 69.0363 62.9639 69.2283 63.1649L68.6623 64.6149L68.3223 65.5269C68.1003 66.1359 67.8873 66.7479 67.6893 67.3619C67.4923 67.9749 67.3073 68.5919 67.1613 69.2019L67.0803 69.5559L67.0413 69.7699C67.0233 69.9129 67.0013 70.0669 67.0503 70.2109C67.1223 70.3499 67.3013 70.3649 67.4313 70.3079C67.5673 70.2599 67.6923 70.1819 67.8163 70.0949C67.8913 70.0489 68.1703 69.8189 68.4023 69.6209C68.6363 69.4169 68.8683 69.2069 69.0973 68.9889C70.0173 68.1209 70.9083 67.1939 71.7983 66.2689L73.0553 64.9599L73.8043 65.5719L74.4623 66.0899L75.4883 66.8689C76.1783 67.3789 76.8793 67.8729 77.5953 68.3369C78.3103 68.8009 79.0413 69.2369 79.7893 69.6029C80.1633 69.7879 80.5433 69.9489 80.9203 70.0739C81.1093 70.1389 81.2983 70.1899 81.4803 70.2219C81.6383 70.2549 81.7333 70.2599 81.8623 70.2529C81.9673 70.2459 82.0723 70.2179 82.1613 70.1639C82.2453 70.0939 82.2593 69.9779 82.2823 69.8799C82.2933 69.7729 82.2983 69.6749 82.2913 69.5699C82.2873 69.4069 82.2663 69.2369 82.2453 69.0689C82.1423 68.3909 81.9313 67.7119 81.6633 67.0599C81.3983 66.4059 81.0583 65.7799 80.6863 65.1759C80.5023 64.8719 80.3033 64.5779 80.0943 64.2889L79.1673 62.9719C79.3133 62.5619 79.7123 62.1459 80.0453 61.7779C80.2443 61.5639 80.3363 61.4879 80.4763 61.3529C80.6123 61.2369 80.7453 61.1159 80.8893 61.0079C81.9533 60.1869 82.8193 59.8839 83.4213 59.7569C84.0323 59.6379 84.4103 59.7079 84.7183 59.8859C84.8583 59.9679 85.0313 60.0429 85.1123 60.1339C85.3893 60.4839 84.4313 60.7599 83.0373 61.5489C82.5203 61.8469 82.0383 62.2099 81.6023 62.6179L81.4433 62.7759L81.3683 62.8509L81.3463 62.8799C81.3143 62.9209 81.3033 62.9429 81.2893 62.9679C81.2393 63.0169 81.2893 63.0629 81.3383 63.0979C81.3033 63.0169 81.5973 63.4439 81.7903 63.7189C81.9943 64.0199 82.1863 64.3329 82.3743 64.6489C82.7413 65.2869 83.0653 65.9599 83.3383 66.6659C83.6063 67.3769 83.8173 68.1199 83.9253 68.9329C83.9413 69.1459 83.9713 69.3439 83.9693 69.5729C83.9923 69.9509 83.9153 70.2619 83.8553 70.5959C83.7063 71.2439 83.1733 71.6969 82.5493 71.8599C81.9203 72.0279 81.0903 71.8689 80.7793 71.7769C80.3593 71.6679 79.9873 71.5249 79.6273 71.3719C78.9123 71.0639 78.2563 70.7109 77.6223 70.3369C76.6863 69.7819 75.7963 69.1849 74.9293 68.5639C74.1453 68.0099 72.8613 67.0099 73.2153 67.2719L73.2023 67.2789L73.1983 67.2809L73.1263 67.3549L72.8523 67.6399L71.7473 68.7819C70.9993 69.5419 70.2523 70.3019 69.4003 71.0389L69.3683 71.0099Z" fill="#221F1F"/>
<path fill-rule="evenodd" clip-rule="evenodd" d="M103.141 95.4348C103.116 95.3928 103.139 95.3508 103.192 95.3058C103.208 95.2908 103.267 95.2808 103.278 95.2918C103.299 95.3138 103.319 95.3358 103.335 95.3588C103.345 95.3728 103.421 95.6118 103.449 95.6928C103.476 95.7708 103.495 95.8518 103.511 95.9318C103.544 96.0958 103.579 96.2588 103.613 96.4218C103.62 96.4588 103.625 96.4958 103.627 96.5328C103.635 96.6618 103.659 96.7858 103.688 96.9098C103.693 96.9308 103.696 96.9518 103.709 96.9708C103.73 97.0008 103.798 97.3388 103.8 97.3848C103.805 97.4968 103.816 97.6078 103.825 97.7198C103.826 97.7348 103.832 97.7508 103.825 97.7678C103.807 97.8058 103.818 97.8378 103.823 97.8728C103.829 97.9188 103.835 97.9668 103.836 98.0158C103.837 98.0388 103.828 98.0648 103.822 98.0898C103.816 98.1118 103.777 98.1078 103.772 98.1018C103.756 98.0828 103.743 98.1038 103.728 98.1088C103.723 98.1098 103.716 98.1128 103.712 98.1118C103.703 98.1118 103.585 97.8558 103.579 97.8268C103.578 97.8198 103.478 97.4318 103.464 97.3888C103.457 97.3658 103.458 97.3408 103.457 97.3168C103.456 97.3058 103.371 96.9968 103.369 96.9838C103.358 96.9188 103.335 96.8558 103.344 96.7868C103.346 96.7728 103.342 96.7608 103.338 96.7468C103.312 96.6368 103.297 96.5228 103.28 96.4108C103.271 96.3528 103.256 96.2968 103.244 96.2398C103.242 96.2298 103.244 96.2188 103.243 96.2078C103.242 96.1948 103.242 96.1818 103.239 96.1678C103.209 96.0338 103.193 95.8958 103.155 95.7638C103.146 95.7328 103.142 95.5798 103.132 95.5438C103.125 95.5248 103.151 95.4508 103.141 95.4348" fill="#221F1F"/>
<path fill-rule="evenodd" clip-rule="evenodd" d="M102.227 97.0519C102.184 97.0779 102.14 97.0549 102.093 97.0019C102.079 96.9859 102.069 96.9269 102.081 96.9159C102.103 96.8949 102.125 96.8749 102.15 96.8589C102.165 96.8489 102.413 96.7709 102.497 96.7419C102.579 96.7139 102.662 96.6949 102.746 96.6779C102.915 96.6439 103.085 96.6069 103.255 96.5719C103.292 96.5639 103.331 96.5589 103.37 96.5569C103.503 96.5489 103.632 96.5239 103.761 96.4929C103.783 96.4879 103.805 96.4849 103.824 96.4719C103.855 96.4499 104.207 96.3799 104.254 96.3779C104.371 96.3719 104.486 96.3599 104.602 96.3509C104.618 96.3489 104.635 96.3429 104.651 96.3499C104.69 96.3669 104.725 96.3559 104.76 96.3509C104.809 96.3439 104.858 96.3379 104.908 96.3369C104.933 96.3359 104.959 96.3439 104.985 96.3509C105.009 96.3569 105.004 96.3949 104.998 96.4009C104.978 96.4159 104.999 96.4299 105.004 96.4449C105.006 96.4489 105.008 96.4559 105.008 96.4599C105.008 96.4689 104.742 96.5889 104.711 96.5949C104.704 96.5959 104.301 96.6989 104.256 96.7139C104.232 96.7209 104.206 96.7199 104.182 96.7219C104.17 96.7219 103.849 96.8099 103.836 96.8119C103.768 96.8229 103.702 96.8469 103.631 96.8389C103.617 96.8379 103.603 96.8419 103.59 96.8439C103.475 96.8719 103.357 96.8879 103.241 96.9059C103.181 96.9159 103.122 96.9309 103.063 96.9429C103.052 96.9449 103.041 96.9439 103.03 96.9449C103.016 96.9459 103.002 96.9449 102.989 96.9479C102.849 96.9799 102.706 96.9959 102.568 97.0359C102.537 97.0449 102.377 97.0499 102.341 97.0609C102.32 97.0669 102.245 97.0419 102.227 97.0519" fill="#221F1F"/>
<path fill-rule="evenodd" clip-rule="evenodd" d="M102.472 96.0431C102.428 96.0341 102.416 95.9881 102.424 95.9201C102.426 95.8991 102.46 95.8511 102.475 95.8501C102.503 95.8501 102.532 95.8501 102.557 95.8541C102.574 95.8561 102.781 95.9611 102.853 95.9951C102.922 96.0271 102.987 96.0681 103.05 96.1101C103.179 96.1951 103.309 96.2781 103.438 96.3631C103.466 96.3821 103.493 96.4031 103.519 96.4271C103.607 96.5071 103.704 96.5731 103.805 96.6341C103.822 96.6451 103.837 96.6571 103.858 96.6601C103.892 96.6651 104.158 96.8421 104.189 96.8711C104.264 96.9421 104.344 97.0081 104.422 97.0771C104.433 97.0861 104.448 97.0921 104.453 97.1081C104.465 97.1461 104.494 97.1601 104.519 97.1791C104.555 97.2061 104.589 97.2341 104.621 97.2651C104.637 97.2801 104.647 97.3041 104.659 97.3251C104.669 97.3441 104.64 97.3691 104.632 97.3691C104.609 97.3681 104.613 97.3911 104.606 97.4051C104.604 97.4101 104.601 97.4161 104.597 97.4181C104.591 97.4251 104.344 97.3391 104.321 97.3231C104.316 97.3191 103.996 97.1321 103.958 97.1141C103.938 97.1041 103.923 97.0861 103.907 97.0711C103.899 97.0641 103.64 96.9191 103.631 96.9131C103.581 96.8761 103.525 96.8511 103.486 96.7991C103.478 96.7891 103.467 96.7831 103.457 96.7761C103.367 96.7221 103.284 96.6571 103.199 96.5941C103.155 96.5631 103.108 96.5361 103.064 96.5061C103.055 96.5011 103.049 96.4921 103.042 96.4861C103.033 96.4771 103.024 96.4681 103.014 96.4611C102.906 96.3941 102.806 96.3141 102.694 96.2521C102.668 96.2381 102.567 96.1381 102.536 96.1231C102.519 96.1141 102.49 96.0461 102.472 96.0431" fill="#221F1F"/>
<path fill-rule="evenodd" clip-rule="evenodd" d="M102.938 97.7143C102.928 97.7563 102.883 97.7633 102.816 97.7503C102.795 97.7453 102.75 97.7093 102.75 97.6943C102.75 97.6673 102.751 97.6403 102.755 97.6153C102.758 97.6003 102.868 97.4103 102.904 97.3443C102.938 97.2803 102.98 97.2223 103.023 97.1653C103.111 97.0493 103.197 96.9313 103.284 96.8153C103.303 96.7893 103.325 96.7653 103.349 96.7423C103.431 96.6653 103.499 96.5773 103.562 96.4863C103.572 96.4713 103.585 96.4573 103.589 96.4373C103.595 96.4053 103.777 96.1653 103.806 96.1383C103.878 96.0723 103.946 96.0013 104.016 95.9323C104.025 95.9223 104.032 95.9093 104.048 95.9053C104.085 95.8973 104.1 95.8703 104.12 95.8483C104.147 95.8163 104.175 95.7853 104.207 95.7573C104.222 95.7433 104.246 95.7363 104.267 95.7273C104.286 95.7183 104.31 95.7483 104.309 95.7563C104.307 95.7783 104.33 95.7763 104.343 95.7843C104.348 95.7873 104.354 95.7903 104.356 95.7943C104.362 95.8003 104.27 96.0303 104.253 96.0503C104.25 96.0553 104.056 96.3463 104.036 96.3813C104.026 96.3993 104.008 96.4123 103.993 96.4263C103.986 96.4333 103.835 96.6693 103.829 96.6773C103.792 96.7223 103.764 96.7743 103.712 96.8073C103.702 96.8133 103.696 96.8233 103.689 96.8333C103.633 96.9153 103.566 96.9893 103.502 97.0653C103.469 97.1043 103.442 97.1463 103.411 97.1873C103.406 97.1943 103.397 97.1993 103.391 97.2063C103.382 97.2143 103.373 97.2213 103.366 97.2303C103.296 97.3283 103.214 97.4173 103.15 97.5193C103.136 97.5433 103.035 97.6313 103.018 97.6593C103.009 97.6753 102.942 97.6973 102.938 97.7143" fill="#221F1F"/>
<path fill-rule="evenodd" clip-rule="evenodd" d="M74.9937 126.444C73.1877 126.579 71.3687 127.125 69.7807 128.035C69.2017 128.368 68.6917 128.798 68.2277 129.229C67.8677 129.564 67.5257 129.928 67.3127 130.306C67.2057 130.491 67.1087 130.683 67.0727 130.853C67.0237 130.983 67.0257 131.051 67.0357 131.162C66.9417 131.682 68.7407 131.469 70.0757 131.315C71.2017 131.173 72.3387 130.949 73.4967 130.809C74.2397 130.721 75.0067 130.635 75.8057 130.729C76.5777 130.811 77.5157 131.096 78.0607 131.887C78.3467 132.416 77.9757 132.411 77.5307 132.334C77.0377 132.261 76.5357 132.394 75.8667 132.371C74.6477 132.333 73.2057 132.567 71.7707 132.823C71.0457 132.948 70.3067 133.077 69.5387 133.174C69.1497 133.221 68.7607 133.259 68.3437 133.265C68.1377 133.272 67.9227 133.268 67.7017 133.257L67.3627 133.229C67.2647 133.211 67.0277 133.192 66.8917 133.152C66.2197 133.003 65.5837 132.592 65.3867 131.917L65.2967 131.486L65.2857 131.046C65.2537 130.739 65.3417 130.481 65.3877 130.254C65.4517 130.027 65.5417 129.823 65.6257 129.611C65.7277 129.423 65.8287 129.228 65.9387 129.046C66.3907 128.33 66.9557 127.759 67.5587 127.27C69.2817 125.897 71.3017 125.064 73.3877 124.648C74.6747 124.397 75.9937 124.326 77.2967 124.432C79.2787 124.574 81.1977 125.25 82.9077 126.188C84.2267 126.93 85.5167 127.749 86.5527 128.853C86.7997 129.078 87.0087 129.324 87.2247 129.579C87.6177 130.061 87.7897 130.439 87.8577 130.738C87.9317 131.033 87.8987 131.252 87.8027 131.472C87.7597 131.572 87.7297 131.683 87.6807 131.756C87.5257 131.993 86.9787 131.782 86.3187 131.25C84.3977 129.664 82.5517 128.08 80.2927 127.219C78.6377 126.577 76.8177 126.31 75.0017 126.494L74.9937 126.444Z" fill="#221F1F"/>
<path fill-rule="evenodd" clip-rule="evenodd" d="M96.682 19.1472C96.657 19.1052 96.68 19.0632 96.733 19.0182C96.749 19.0032 96.808 18.9932 96.819 19.0042C96.84 19.0262 96.86 19.0472 96.876 19.0712C96.886 19.0852 96.962 19.3242 96.99 19.4052C97.017 19.4832 97.036 19.5642 97.052 19.6442C97.085 19.8082 97.12 19.9712 97.155 20.1342C97.162 20.1712 97.166 20.2082 97.168 20.2452C97.176 20.3742 97.2 20.4982 97.229 20.6222C97.235 20.6432 97.237 20.6642 97.25 20.6832C97.271 20.7122 97.339 21.0512 97.341 21.0962C97.346 21.2092 97.357 21.3202 97.366 21.4322C97.367 21.4472 97.373 21.4632 97.366 21.4802C97.348 21.5182 97.359 21.5502 97.364 21.5852C97.37 21.6312 97.376 21.6792 97.377 21.7272C97.378 21.7512 97.369 21.7772 97.363 21.8022C97.357 21.8242 97.318 21.8202 97.313 21.8142C97.297 21.7952 97.284 21.8162 97.269 21.8212C97.264 21.8222 97.258 21.8252 97.253 21.8252C97.244 21.8242 97.126 21.5682 97.12 21.5392C97.119 21.5322 97.019 21.1442 97.005 21.1012C96.998 21.0782 96.999 21.0532 96.998 21.0292C96.997 21.0182 96.912 20.7092 96.91 20.6962C96.899 20.6312 96.876 20.5682 96.885 20.4992C96.887 20.4852 96.883 20.4722 96.879 20.4592C96.853 20.3492 96.838 20.2352 96.821 20.1232C96.812 20.0652 96.797 20.0092 96.785 19.9522C96.783 19.9422 96.785 19.9312 96.784 19.9202C96.783 19.9072 96.784 19.8932 96.781 19.8802C96.75 19.7462 96.734 19.6082 96.696 19.4762C96.687 19.4452 96.684 19.2922 96.673 19.2562C96.666 19.2372 96.692 19.1632 96.682 19.1472" fill="#221F1F"/>
<path fill-rule="evenodd" clip-rule="evenodd" d="M95.768 20.7643C95.725 20.7903 95.681 20.7673 95.635 20.7143C95.62 20.6983 95.61 20.6393 95.622 20.6283C95.644 20.6073 95.666 20.5873 95.691 20.5713C95.706 20.5613 95.955 20.4833 96.038 20.4543C96.12 20.4263 96.203 20.4083 96.287 20.3903C96.456 20.3563 96.626 20.3193 96.796 20.2843C96.833 20.2763 96.872 20.2713 96.911 20.2693C97.044 20.2613 97.173 20.2363 97.302 20.2053C97.324 20.2003 97.346 20.1973 97.365 20.1843C97.396 20.1623 97.748 20.0923 97.795 20.0903C97.912 20.0843 98.027 20.0723 98.143 20.0633C98.159 20.0613 98.176 20.0553 98.192 20.0623C98.231 20.0793 98.266 20.0683 98.301 20.0633C98.35 20.0563 98.399 20.0503 98.449 20.0483C98.474 20.0483 98.5 20.0563 98.526 20.0633C98.55 20.0693 98.545 20.1073 98.539 20.1133C98.519 20.1283 98.54 20.1423 98.545 20.1573C98.547 20.1613 98.549 20.1683 98.549 20.1723C98.549 20.1813 98.283 20.3013 98.252 20.3073C98.245 20.3083 97.842 20.4113 97.797 20.4263C97.773 20.4333 97.747 20.4323 97.723 20.4343C97.711 20.4343 97.39 20.5223 97.377 20.5243C97.309 20.5353 97.244 20.5593 97.172 20.5513C97.158 20.5493 97.144 20.5543 97.131 20.5563C97.016 20.5843 96.898 20.6003 96.782 20.6183C96.722 20.6273 96.663 20.6433 96.604 20.6553C96.593 20.6573 96.582 20.6563 96.571 20.6573C96.557 20.6583 96.543 20.6573 96.53 20.6603C96.39 20.6923 96.247 20.7083 96.11 20.7473C96.078 20.7573 95.918 20.7623 95.882 20.7733C95.861 20.7793 95.786 20.7543 95.768 20.7643" fill="#221F1F"/>
<path fill-rule="evenodd" clip-rule="evenodd" d="M96.0132 19.7555C95.9692 19.7465 95.9572 19.7005 95.9652 19.6325C95.9672 19.6115 96.0012 19.5635 96.0162 19.5625C96.0442 19.5625 96.0732 19.5625 96.0982 19.5665C96.1152 19.5685 96.3222 19.6735 96.3942 19.7075C96.4632 19.7395 96.5282 19.7805 96.5912 19.8225C96.7202 19.9075 96.8502 19.9905 96.9792 20.0755C97.0082 20.0945 97.0342 20.1155 97.0602 20.1395C97.1482 20.2195 97.2452 20.2855 97.3462 20.3465C97.3632 20.3575 97.3782 20.3695 97.3992 20.3725C97.4332 20.3775 97.6992 20.5545 97.7302 20.5835C97.8052 20.6545 97.8852 20.7205 97.9632 20.7885C97.9742 20.7985 97.9892 20.8045 97.9942 20.8205C98.0062 20.8585 98.0352 20.8725 98.0602 20.8915C98.0962 20.9185 98.1302 20.9455 98.1622 20.9775C98.1782 20.9925 98.1882 21.0165 98.2002 21.0375C98.2102 21.0565 98.1812 21.0815 98.1732 21.0815C98.1502 21.0805 98.1542 21.1035 98.1472 21.1175C98.1452 21.1215 98.1422 21.1285 98.1382 21.1305C98.1322 21.1375 97.8852 21.0515 97.8622 21.0355C97.8572 21.0315 97.5372 20.8445 97.4992 20.8255C97.4802 20.8165 97.4642 20.7985 97.4482 20.7835C97.4402 20.7765 97.1812 20.6315 97.1722 20.6255C97.1222 20.5885 97.0662 20.5635 97.0272 20.5115C97.0192 20.5015 97.0082 20.4955 96.9982 20.4885C96.9082 20.4345 96.8252 20.3695 96.7402 20.3065C96.6962 20.2755 96.6502 20.2475 96.6052 20.2185C96.5962 20.2135 96.5902 20.2045 96.5832 20.1975C96.5742 20.1905 96.5652 20.1805 96.5552 20.1735C96.4472 20.1065 96.3472 20.0265 96.2352 19.9645C96.2092 19.9505 96.1082 19.8505 96.0772 19.8355C96.0602 19.8265 96.0312 19.7585 96.0132 19.7555" fill="#221F1F"/>
<path fill-rule="evenodd" clip-rule="evenodd" d="M96.479 21.4267C96.469 21.4687 96.424 21.4757 96.358 21.4627C96.336 21.4577 96.291 21.4207 96.291 21.4067C96.291 21.3797 96.292 21.3527 96.296 21.3277C96.299 21.3127 96.409 21.1227 96.445 21.0567C96.479 20.9927 96.521 20.9347 96.564 20.8777C96.652 20.7617 96.738 20.6437 96.825 20.5277C96.844 20.5017 96.866 20.4777 96.89 20.4547C96.972 20.3777 97.04 20.2897 97.103 20.1987C97.113 20.1837 97.126 20.1697 97.13 20.1497C97.136 20.1167 97.318 19.8777 97.347 19.8507C97.419 19.7847 97.487 19.7137 97.557 19.6447C97.566 19.6347 97.573 19.6217 97.589 19.6177C97.626 19.6097 97.641 19.5827 97.661 19.5607C97.688 19.5287 97.716 19.4977 97.748 19.4697C97.763 19.4557 97.787 19.4487 97.808 19.4397C97.827 19.4307 97.851 19.4607 97.85 19.4687C97.848 19.4897 97.871 19.4887 97.884 19.4967C97.889 19.4997 97.895 19.5027 97.897 19.5067C97.904 19.5127 97.811 19.7427 97.794 19.7627C97.791 19.7677 97.597 20.0587 97.577 20.0937C97.567 20.1117 97.55 20.1247 97.534 20.1387C97.527 20.1457 97.376 20.3817 97.37 20.3897C97.333 20.4347 97.306 20.4867 97.253 20.5197C97.243 20.5257 97.237 20.5357 97.23 20.5457C97.174 20.6277 97.107 20.7007 97.043 20.7777C97.01 20.8167 96.983 20.8587 96.952 20.8997C96.947 20.9067 96.938 20.9117 96.932 20.9177C96.923 20.9267 96.914 20.9337 96.907 20.9427C96.837 21.0407 96.755 21.1297 96.691 21.2317C96.677 21.2557 96.576 21.3437 96.56 21.3717C96.55 21.3877 96.483 21.4097 96.479 21.4267" fill="#221F1F"/>
<path fill-rule="evenodd" clip-rule="evenodd" d="M96.6022 33.3198C97.8422 33.6078 99.0792 33.9108 100.329 34.2908C101.006 34.5028 102.393 34.9288 103.179 35.4448C103.615 35.7048 103.879 36.0108 104.072 36.3318C104.252 36.6308 104.377 37.0968 104.227 37.5308C104.058 38.1058 103.775 38.5788 103.251 39.0078C102.765 39.4498 102.02 39.7728 101.307 40.0688L100.745 40.2668L100.407 40.3718L99.7372 40.5608C99.2912 40.6808 98.8482 40.7838 98.4062 40.8788C96.6392 41.2578 94.8862 41.5078 93.1312 41.7148C90.9322 41.9708 88.7412 42.2108 86.5442 42.3238C78.7992 42.7008 71.0612 42.4798 63.3662 41.7668C59.9532 41.4438 56.5222 41.0628 53.1522 40.5208C48.8322 39.8388 44.4502 38.9038 40.4422 36.9428C39.2022 36.3008 39.6082 35.9378 40.8442 35.9318C42.0902 35.9198 44.1742 36.1318 46.5392 36.7128C54.9472 38.8088 63.7452 39.6768 72.6022 40.1938C77.9112 40.4868 83.4572 40.2478 88.8602 39.8158C91.2392 39.6218 93.6152 39.3678 95.9462 38.9728C97.1092 38.7718 98.2652 38.5378 99.3712 38.2268L100.07 38.0118C100.186 37.9728 100.305 37.9328 100.42 37.8818C100.646 37.7798 100.901 37.6658 101.041 37.4398C101.059 37.3798 101.108 37.3198 101.092 37.2568C101.072 37.1968 101.023 37.1528 100.974 37.1158C100.873 37.0408 100.758 36.9858 100.642 36.9328C100.389 36.8228 100.216 36.7578 99.8112 36.6318C96.3432 35.6128 92.6892 34.9298 89.0622 34.3218C83.5522 33.4258 77.9682 32.7278 72.4352 32.3658C68.1332 32.0858 63.8992 32.1428 59.6882 32.3728C58.7602 32.4228 57.8572 32.5058 56.9322 32.5918C53.5012 32.9328 52.4882 33.1708 51.6252 32.9308C51.4332 32.8848 51.1832 32.8618 51.0492 32.7978C50.5822 32.6198 51.8622 31.6498 54.4762 31.0328C58.3282 30.1268 62.3402 29.8178 66.3762 29.8438C70.4152 29.8478 74.4902 30.0918 78.5582 30.4668C84.5982 31.0768 90.6152 31.9688 96.6072 33.2588L96.6022 33.3198Z" fill="#221F1F"/>
</svg>
