<svg width="692" height="692" viewBox="0 0 692 692" fill="none" xmlns="http://www.w3.org/2000/svg">
<path d="M239.5 294.867L150.809 243.558L62 294.867V397.25L150.809 448.442L239.5 397.25V294.867ZM220.402 386.238L150.809 426.301L81.2147 386.238V305.878L150.809 265.699L220.402 305.878V386.238Z" fill="white"/>
<path d="M431.2 294.75L345.944 243.558L260.8 294.75V397.133L345.944 448.442L431.2 397.133V294.75Z" fill="white"/>
<path d="M541.192 243.558L452.5 294.867V397.25L541.192 448.442L630 397.25V294.867L541.192 243.558ZM610.787 386.238L541.192 426.301L471.598 386.238V305.878L541.192 265.699L610.787 305.878V386.238Z" fill="white"/>
<path d="M161.4 464.425V566.809L250.325 618L338.9 566.809V464.425L250.325 413.117L161.4 464.425ZM319.477 556.149L250.325 595.86L180.121 556.149V475.437L250.325 435.257L319.711 475.437L319.477 556.149Z" fill="white"/>
<path d="M353.1 464.425V566.809L441.791 618L530.6 566.809V464.425L441.791 413.117L353.1 464.425ZM511.385 556.149L441.791 596.212L372.315 556.149V475.437L441.791 435.257L511.385 475.437V556.149Z" fill="white"/>
<path d="M338.9 227.691V124.957L250.443 74L161.4 124.957V227.34L250.443 278.883L338.9 227.691ZM180.146 136.672L250.443 96.1401L319.686 136.672V217.032L250.443 256.743L180.146 216.68V136.672Z" fill="white"/>
<path d="M530.6 228.043V125.308L441.791 74L353.1 125.308V227.691L441.791 278.883L530.6 228.043ZM372.315 137.023L441.791 96.843L511.385 137.023V217.383L441.791 257.446L372.315 217.383V137.023Z" fill="white"/>
</svg>
